<svg xmlns="http://www.w3.org/2000/svg" xml:space="preserve" viewBox="0 0 45.3 45.2"><path d="M14.6 20.6 1.3 26.4a32 32 0 0 1 0-5.7zM3.9 12.4q-1.2 2.2-2 4.7h12.6zm39.6 4.7q-.8-2.5-2-4.7l-10.6 4.7zm.7 3.5H30.9l13.3 5.7.2-3.1zM35 26.2l8.4 3.6c-1.9 6.1-6.4 11-12.2 13.4l-2.8-18.3H17.2v.3l-1 6.8-.6 3.8-1 6.8-.1.7A22 22 0 0 1 2.1 29.8l8.4-3.6 6.6-2.8v-8.9L6 9.5a21.6 21.6 0 0 1 33.6 0l-11.1 4.9v8.9zm-8.9-7.5c0-1.8-1.5-3.3-3.3-3.3s-3.3 1.5-3.3 3.3S21 22 22.8 22s3.3-1.4 3.3-3.3m2.2-6-5.6-5.5-5.5 5.5z"/></svg>