<?xml version="1.0" encoding="utf-8"?>
<!-- Generator: Adobe Illustrator 25.2.3, SVG Export Plug-In . SVG Version: 6.00 Build 0)  -->
<svg version="1.1" id="Layer_1" xmlns="http://www.w3.org/2000/svg" xmlns:xlink="http://www.w3.org/1999/xlink" x="0px" y="0px"
	 viewBox="0 0 45.3 45.2" style="enable-background:new 0 0 45.3 45.2;" xml:space="preserve">
<g>
	<g>
		<path d="M14.6,20.6L1.3,26.4c-0.1-1-0.2-2.1-0.2-3.1c0-0.9,0.1-1.8,0.2-2.6H14.6z M3.9,12.4c-0.8,1.5-1.5,3-2,4.7h12.6L3.9,12.4z
			 M43.5,17.1c-0.5-1.7-1.2-3.2-2-4.7l-10.6,4.7H43.5z M44.2,20.6H30.9l13.3,5.7c0.1-1,0.2-2.1,0.2-3.1
			C44.4,22.3,44.4,21.5,44.2,20.6z M35,26.2l8.4,3.6c-1.9,6.1-6.4,11-12.2,13.4l-2.8-18.3H17.2l0,0.3l-1,6.8l0,0v0l0,0l-0.6,3.8
			l-1,6.8l-0.1,0.7C8.6,40.8,4,35.9,2.1,29.8l8.4-3.6l6.6-2.8v-8.9L6,9.5c4-4.9,10-8,16.8-8c6.8,0,12.8,3.1,16.8,8l-11.1,4.9v8.9
			L35,26.2z M26.1,18.7c0-1.8-1.5-3.3-3.3-3.3s-3.3,1.5-3.3,3.3c0,1.8,1.5,3.3,3.3,3.3S26.1,20.6,26.1,18.7z M28.3,12.7l-5.6-5.5
			l-5.5,5.5H28.3z"/>
	</g>
</g>
</svg>
