<svg enable-background="new 0 0 32 32" viewBox="0 0 32 32" xmlns="http://www.w3.org/2000/svg"><path d="m0 0h32v32h-32z" fill="#fff" transform="matrix(-1 -0 0 -1 32 32)"/><g fill="#288c53"><path d="m8.6 20.1c.1-.1.2-.2.1-.3 0 0 0 0-.1 0-.1.1-.1.2-.2.4s-.3.5-.4.7v.1h.3s.1-.1.1-.1v-.1c0-.1-.1-.3 0-.4 0-.1.1-.2.2-.3z"/><path d="m13 14c-.1.1-.1.1-.2.2 0 0 .1.1.1.1.1-.1.1-.2.1-.3z"/><path d="m9.6 17.6c-.1.1-.3.1-.3.2s-.1.2-.1.3c-.1.2-.3.3-.5.5-.1.3-.4.5-.6.7s-.2.3-.1.5c.5-.7 1.1-1.4 1.6-2.2z"/><path d="m9.1 20.3c.1 0 .1 0 .2-.1s.2-.2.1-.4c-.2.2-.2.3-.3.5 0-.1 0 0 0 0z"/><path d="m13.7 17.4c0 .1-.1.1-.1.1-.1.2-.2.4-.3.6-.1.1-.1.2-.2.3s-.2.3-.2.4c-.2.3-.3.5-.4.9.8-.5 1.4-1.7 1.2-2.3z"/><path d="m11.7 18.1c.1-.2.2-.3.4-.5v-.1h-.1c-.2.2-.4.4-.5.6-.2.3-.3.6-.5.8-.1.1-.1.2-.2.2-.2.2-.4.4-.6.6-.2.3-.5.5-.7.8 0 0-.1.1-.1.2s.1.1.1.2c.2.1.5-.1.6-.3.1-.1.1-.3.1-.4.2-.4.5-.8.8-1.2.2-.2.5-.6.7-.9z"/><path d="m12.8 16.3c0 .1 0 .1 0 0h.1c.2-.1.4-.3.5-.5.1-.1.2-.3 0-.6-.1.5-.4.8-.6 1.1z"/><path d="m11.9 19.9s.1-.1.1-.1c.1-.3.2-.5.3-.8.2-.3.3-.5.4-.8.2-.3.4-.6.6-.9.1-.1.1-.2 0-.4-.1.1-.1.3-.2.4-.2.3-.4.5-.6.8s-.4.6-.7.9c-.2.2-.3.4-.5.7s-.3.5-.5.8c0 .1-.1.1-.1.3h.2c.4-.4.7-.7 1-.9z"/><path d="m7.7 16.4c.1-.1.2-.1.2-.2.1-.1.1-.2.2-.3v-.1c.2-.3.4-.6.7-.9s.4-.8.8-1c0 0 0 0 0-.1.2-.3.4-.6.6-.9.1-.1.2-.2.2-.3.1-.2.2-.4.4-.5.2-.2.2-.2-.1-.3-.1 0-.1-.1-.2-.1-.1-.1-.2-.1-.3.1-.2.3-.4.5-.6.8-.3.4-.6.8-.9 1.3-.4.5-.7 1-1 1.5-.1.1-.1.2 0 .3v.1c.1.1 0 .3 0 .6z"/><path d="m8 11.6c.1-.1.2-.2.3-.4-.1 0-.1 0-.2 0-.3-.1-.3-.1-.3.2v.1c.1.1.2.1.2.1z"/><path d="m7.8 13c.5-.5.9-1.1 1.4-1.6-.2-.1-.3-.1-.4 0-.3.4-.6.7-.9 1.1-.1.2-.1.3-.1.5z"/><path d="m11.2 17.3c-.4.5-.7 1-1.1 1.5-.2.3-.4.5-.5.8v.2c.1 0 .2-.1.2-.1 0-.1.1-.1.1-.1.1-.1.2-.2.3-.3v-.1c0-.1.1-.2.1-.2.2-.3.4-.5.6-.7l.6-.9c.2-.3.5-.6.7-1 .1-.1.2-.3.3-.4.1-.2.2-.4.4-.6.1-.2.3-.4.4-.5 0-.1 0-.1 0-.2 0 0 0 0-.1 0-.1.1-.1.1-.2.2-.2.2-.4.4-.6.7-.4.5-.8 1.1-1.2 1.7z"/><path d="m10.2 16.1c-.4.5-.8 1-1.2 1.5 0 0-.1.1-.1.1.2-.1.3-.2.5-.3.1-.1.2-.2.3-.3s.1 0 .2.1v.1h.1c.1-.2.2-.3.2-.5.1-.1.2-.3.3-.4.2-.2.4-.4.6-.7 0 0 0 0 0-.1.2-.2.3-.4.5-.7 0 0 .1-.1.1-.1.1-.2.2-.4.4-.5 0 0 .1-.1.1-.1.1-.1.2-.3.2-.4.1-.1.2-.3.2-.4 0 0 0-.1 0-.2s-.1-.1-.1-.2c-.1.2-.3.3-.4.5-.3.4-.6.8-.9 1.1-.4.7-.7 1.1-1 1.5z"/><path d="m8.5 13.1c.2.1.2 0 .3-.2.2-.2.3-.4.5-.6 0-.1.1-.1.1-.2.1-.1.2-.3.3-.5.1-.1.1-.1 0-.2-.6.7-1.1 1.4-1.7 2.1.3.2.5-0 .5-.4z"/><path d="m11.5 12.9c0 .1.1.1.1.1.1-.1.3-.2.3-.3s-.1-.2-.2-.3c0 0-.1-.1-.1-.1-.1 0-.1 0-.2 0v.1h.1c.2.1.2.2-0 .5 0-.1 0-.1 0 0z"/><path d="m7.8 18.1c.1-.1.1-.2.1-.2.1-.2.3-.4.4-.5.1-.2.3-.5.4-.8.2-.2.4-.5.6-.8.1-.2.3-.4.5-.6v-.1c-.1.1-.2.1-.3.2 0 0-.1.1-.1.1 0 .1-.1.1-.1.2 0 0-.1.1-.1.1s-.1.2-.2.3-.2.3-.4.4c-.1.1-.1.2-.2.2-.2 0-.3.2-.4.3-.1.2-.3.3-.2.5v.5z"/><path d="m20 15.1c.2-.2.5-.5.7-.7.4-.4.8-.7 1.3-.9.2-.1.3-.2.5-.4 0 0 .1-.1.1-.1.4-.3.8-.7 1.3-.9 0 0 .1 0 .1-.1.2-.3.4-.5.6-.8 0 0 0-.1 0-.2-.1 0-.1 0-.2 0-.1.1-.3.2-.4.3-.4.3-.7.6-1.1 1-.1.1-.2.1-.2.2-.1.1-.3.3-.4.4s-.2.2-.3.2c-.5.1-.9.4-1.3.7-.2.1-.4.3-.6.5-.2.1-.4.3-.6.5-.1.1-.1.3-.2.4v.3s0 .1.1.1c0 0 .1 0 .1-.1.2 0 .3-.2.5-.4z"/><path d="m20.2 16.7c-.2.2-.4.3-.6.5-.1.1-.1.2 0 .4.3-.3.5-.6.6-.9.1 0 .1 0 0 0z"/><path d="m26.2 11.6h.4c-.2-.2-.4-.3-.5-.4-.1 0-.2-.1-.2 0-.1 0-.2.1-.3.2 0 0-.1.1 0 .1 0 0 .1.1.1.1z"/><path d="m25.3 11.1s0-.1.1-.1c-.1 0-.1-.1-.1-.1-.1.1-.2.2-.2.2s0 .1.1.1c-.1 0-0 0 .1-.1z"/><path d="m23.6 11.3c.1-.1.3-.2.4-.3v-.1s-.1-.1-.1 0c-.3 0-.6.1-.9.1.2.1.3.2.4.3z"/><path d="m21.6 12.9c.1-.1.3-.1.4-.3.1-.1.2-.2.2-.3.1-.2.2-.3.3-.5 0 0 0 0-.1-.1 0 0-.1.1-.1.1-.1 0-.1.1-.2.1-.2.1-.4.3-.6.4-.1 0-.1.1-.2.1-.2.2-.3.4-.5.6h.1c.2 0 .4 0 .7-.1z"/><path d="m20.9 18.1c0-.3-.1-.6-.1-.8 0-.1 0-.1 0-.2-.1 0-.1.1-.1.1-.3.4-.6.7-.8 1.1-.2.3-.2.5 0 .7.1-.1.2-.2.4-.3s.4-.3.7-.4c-.1-0-.1-0-.1-.2z"/><path d="m14.1 16v.3c.2-.3.2-.3 0-.3z"/><path d="m20.7 20.8s0 .1 0 0c.2.2.4.3.6.5.1.1.2 0 .2-.1.1-.2.1-.4.2-.6 0-.1 0-.2-.1-.2s-.1 0-.2 0c-.2.1-.5.2-.7.4z"/><path d="m16 .6c-8.5 0-15.4 6.9-15.4 15.4 0 5 2.4 9.5 6.1 12.3 0-.9 0-1.6 0-1.7 0-.4.1-.7.1-1.1 0-.3 0-.7 0-1 0-.5.1-.9.1-1.4 0-.7 0-1.5 0-2.2s0-1.4 0-2.1c0-.6 0-1.1 0-1.7 0 0 0 0 0-.1.1-.4 0-.7 0-1.1 0-.2 0-.3 0-.5 0-.1 0-.1 0-.2-.2.1-.3.2-.4.2s-.2 0-.2-.1c-.1-.1-.1-.2-.1-.2.1-.2.3-.5.5-.7s.1-.4-.1-.5c0 0-.1-.1-.1-.1 0-.2 0-.4.1-.5.1-.2.2-.4.2-.6 0-.3 0-.5 0-.8 0-.2 0-.3 0-.5-.2-.2 0-.4.2-.4.1 0 .2.1.2.2.1-.1.1-.3.1-.4 0-.3.1-.6.3-.8.1-.1.2-.1.3-.1.1.1.2.2.1.4v.2h.4.6.3c.3 0 .5 0 .8.1.1 0 .1 0 .2.1.2.1.3.1.5.2.1 0 .2.1.3.1.2.1.3.1.5.2h.2c.1 0 .2-.1.3-.1s.2 0 .2.1v.2c0 .1-.1.1-.1.1.4.3.7.6 1 .9.1.2.3.3.5.4 0 0 .1.1.1.1 0 .2.1.3.3.4.1.2.1.3.1.5.1.3.2.5.2.8.1.3.1.7.2 1 .1.4 0 .8 0 1.2 0 .2-.1.5-.2.7-.1.3-.2.6-.3.9s-.3.5-.4.8c-.1.1-.2.2-.3.3-.3.3-.6.6-.9.9-.2.2-.5.4-.7.6-.3.3-.7.4-1.1.5-.5.2-1 .3-1.5.4-.3.1-.6 0-.9 0-.2 0-.2 0-.2.2v.4.9.2.2c-.1.2-.1.3-.1.4v.1 1.3c0 .2-.1.5-.1.7v2.7c2.4 1.5 5.1 2.3 8.1 2.3 8.5 0 15.4-6.9 15.4-15.4 0-8.4-6.9-15.3-15.4-15.3zm-8.1 6.6v.6.9c0 .3-.3.4-.6.3-.1.1-.2 0-.3 0 0-.2 0-.5-.1-.7v-.1c.2-.3.1-.6.1-1 0-.2 0-.4 0-.7 0-.1 0-.2 0-.3-.1-.1 0-.2.1-.2s.2 0 .3.1.1.1.3.1c.1 0 .2.1.3.1v.3c0 .2-.1.4-.1.6zm3.1 1.4c-.1.1-.1.2-.1.3 0 .3 0 .3-.3.4 0 0-.1.1-.1.1-.1 0-.2.1-.3.1s-.1-.1-.2-.2c0-.1 0-.2.1-.3s.1-.2.1-.4c0-.3.1-.6.1-.9 0-.1 0-.3 0-.4 0-.3.2-.5.3-.6s.3 0 .3.1c.1.2.2.4.2.6v.3c.1 0 .1.7-.1.9zm-.6 16.8c0 .1-.1.1-.2.1-.1-.1-.2-.2-.3-.3 0 .1-.1.2-.1.2 0 .1-.1.2-.2.2s-.2-.1-.2-.2c0-.3-.1-.6-.1-.8s0-.4 0-.6c0-.3 0-.6 0-.9 0-.1 0-.2.1-.2s.2-.1.3.1c0 0 .1.1.1.1.2 0 .4.2.3.4-.1.3.1.5.1.8.1.2.2.4.3.7-0 .1-0 .3-.1.4zm3.6-15.7c0 .1-.1.2-.2.3 0-.1 0 0 0 0s-.1.1-.1.1c-.2 0-.2.1-.3.2 0 0-.1.1-.2.1-.2 0-.3.1-.4.2s-.3.1-.3-.1c0-.1 0-.2 0-.3.2-.2.4-.4.5-.6.1-.1-.1 0 0-.1.1-.2.2-.3.3-.4 0-.1 0-.1 0-.2s0-.2.1-.2c.2-.1.4-.3.6-.3.1 0 .2-.1.3-.1s.2-.1.2 0c.1.1.1.2.1.3-.1.2-.2.3-.3.4-.1.2-.3.4-.3.7zm.7 2.8c-.1 0-.2 0-.3-.1-.1-.2.1-.2.2-.3.2-.1.3-.1.5-.2s.4-.2.5-.4l.2-.2c.1-.1.2-.1.3 0 0 0 .2.1.2 0 .1-.1.3-.2.4-.2s.3-.1.4 0 .1.2.1.4c0 .1-.1.3-.1.4-.1.1-.2.1-.3 0s-.1-.1-.2 0c-.2.2-.5.3-.6.5-.1.1-.1.3-.3.3-.1 0-.1.1-.1.2-.2.2-.3.2-.5 0-.1-.2-.2-.2-.1-.5-.2.1-.2.1-.3.1zm-.6 11.9c-.1 0-.2 0-.2-.1-.1-.1-.2-.2-.2-.3-.1-.1-.1-.2-.3-.1h-.1c-.1-.1-.3-.3-.4-.4s-.1-.2-.2-.2c-.2-.3-.3-.6-.5-.9-.1-.3 0-.4.2-.3h.1c.1-.1.1-.2.2-.3s.3 0 .3.2c.1.4.3.7.5 1.1.1.2.3.4.4.6.1.1.2.2.2.3.1.1.1.2.1.4 0-.1 0 0-.1 0zm3.1-2.8c-.1.1-.2.1-.4 0-.1-.1-.2-.2-.3-.2s-.2-.1-.3-.1c-.2.1-.4 0-.5-.2-.4-.3-.8-.6-1.2-1-.1-.1-.2-.2-.2-.4.1-.1.3-.1.4-.1h.1c0-.1 0-.2 0-.4 0-.1.1-.1.1-.1s.1.1.2.1c.1.2.2.4.4.5.2.2.4.4.7.6l.2.2.3.3.3.3c.2.2.3.4.2.5zm.6-4.6c-.1.1-.2.1-.3.1-.3-.1-.6-.2-.9-.3-.2-.1-.4 0-.7-.1-.1 0-.2 0-.2 0-.1-.1-.2-.1-.2-.2 0-.2.1-.3.2-.3s.2-.1.3-.2.2-.1.3-.2c.2-.1.4-.1.6-.1h.1c.3 0 .3.1.3.3 0 .1 0 .2.1.2s.2.1.2.3c0 .1.1.3.1.4.2 0 .2.1.1.1zm3.7.9c0 .1.1.2.2.2.2.1.2.2.1.3s-.1.3 0 .4c.1.2.2.4.3.6 0 .1.1.1.2.1h.3.1c.1-.2.1 0 0 0-.1.4-.1.6.3.8.5.3 1 .6 1.6.8s1.3.3 1.9.1c.2 0 .4-.2.5-.3.2-.1.4-.1.5-.1s.2.1.3.2c0 .1-.1.2-.1.3-.2.2-.5.4-.8.6-.5.3-1 .5-1.5.6-.2 0-.3 0-.5.1-.6-.1-1.2-.2-1.8-.4-.2-.1-.5-.1-.7-.1-.4-.1-.5-.2-.8-.3-.4-.1-.8-.3-1.1-.5-.1-.1-.3-.2-.4-.3-.2-.3-.5-.5-.6-.8-.4-.1-.5-.2-.7-.2-.3-.1-.4-.3-.2-.6s.1-.5.1-.8c-.1-.3-.1-.7-.2-1 0-.1 0-.2 0-.3 0-.6 0-1.1 0-1.6 0-.2 0-.3-.2-.4-.1-.1-.2-.3 0-.4.1-.1.2-.3.3-.5.1-.4.3-.8.6-1.1.4-.5.8-1 1.2-1.4.3-.4.7-.7 1.2-.9.2-.1.5-.2.7-.3.4-.2.8-.3 1.3-.3h1.3c.5.1 1 .3 1.5.5.1.1.3.1.4.2.2.1.4.3.6.4.1.2.1.3.1.5s-.1.3-.3.3c-.1 0-.2 0-.3-.1-.3-.1-.5-.2-.8-.2-.4-.1-.7-.1-1.1.1-.2.1-.3.1-.5.2-.1 0-.1.1-.1.1-.1.1-.3.2-.4.2-.2 0-.3.1-.4.2-.4.3-.8.7-1.1 1.1-.2.3-.4.5-.6.9-.1.3-.3.5-.3.9v.1c-.1.1-.1.2-.2.3v.7.4c-0 .2-0 .4.1.7z"/><path d="m21 19.3c-.2.3-.5.7-.7 1 .4-.1.7-.2 1-.4 0 0 .1-.1.1-.1 0-.2-.1-.3-.2-.5-0-.1-.1-.1-.2 0z"/><path d="m21.3 14.6c-.5.6-1.2 1.1-1.6 1.9.1 0 .1 0 .2-.1.3-.1.6-.3.9-.4.1 0 .1-.1.1-.2.1-.1.1-.3.2-.4.1-.3.2-.5.4-.8-.1 0-.2-.1-.2 0z"/></g></svg>