<svg xmlns="http://www.w3.org/2000/svg" xml:space="preserve" viewBox="0 0 277.5 47.6"><path d="m21.3 13.4 2.9 9.7c.3 1 .4 1.3.5 2.7h.2c.1-1.4.1-1.7.4-2.7l2.8-9.7h7.8L27.8 34h-6.4l-8-20.5z"/><path d="M42.5 34h-7.9l7.1-20.5H50L57.3 34h-7.9l-.7-2.6H43zm4.9-7.4-1-3.9-.2-1.2-.2-1.1h-.3l-.3 2.3-1 3.9z"/><path d="M59.4 13.4h9.3q3.1 0 4.9 1.2a7 7 0 0 1 3.3 5.9q0 2.3-1.2 3.8-.7 1-2.8 1.6v.2q.8.5 1.1 1l4.6 6.9H70l-3-6-.2-.3-.1-.3-.1.1V34h-7.3zm8.2 9.2q1.9-.1 2-1.7c.1-1.6-.7-1.8-1.7-1.8h-1.3v3.5z"/><path d="M81.2 13.4h7.1l4.7 7.7c1.1 1.8 1.2 1.9 1.9 3.7h.2c-.5-2.2-.5-2.4-.5-4.9l-.1-6.5h7.1V34h-7.1l-5.1-8.1c-.6-1-.9-1.5-1.4-2.7h-.2c.3 1.9.4 2.7.4 3.8l.1 7h-7.1z"/><path d="M111.7 34h-7.9l7.1-20.5h8.2l7.3 20.5h-7.9l-.7-2.6h-5.7zm4.9-7.4-1-3.9-.2-1.2-.2-1.1h-.2l-.3 2.3-1 3.9z"/><path d="M274.8 8.6h-114l-.2-.1a21 21 0 0 0-29 0l-.2.1H2.3V7.5h128.8a22 22 0 0 1 30.2 0h113.5z"/><path d="M146.1 46.1c-5.2 0-10.3-1.9-14.3-5.2H2.3v-1.1h130l.2.1a21 21 0 0 0 27.6 0l.2-.1H275v1.1H160.5c-4 3.3-9.1 5.2-14.4 5.2"/><path d="m139.9 21.8-10.2 4.4-.2-2.4.1-2zm-8.1-6.3q-1 1.7-1.5 3.6h9.7zm30.3 3.6q-.6-2-1.5-3.6l-8.1 3.6zm.5 2.7h-10.2l10.1 4.4.2-2.4zm-7.1 4.2 6.4 2.8a17 17 0 0 1-9.4 10.3l-2.2-14h-8.6v.2l-.7 5.2-.4 2.9-.8 5.2-.1.5c-4.5-1.9-8-5.6-9.5-10.3l6.4-2.8 5-2.2V17l-8.5-3.7a16.6 16.6 0 0 1 25.8 0l-8.5 3.7v6.8zm-6.8-5.7q-.2-2.3-2.5-2.5c-2.3-.2-2.5 1.1-2.5 2.5s1.1 2.5 2.5 2.5 2.5-1.1 2.5-2.5m1.7-4.5-4.3-4.2-4.2 4.2z"/><path d="m171.1 19.9-4.2.2v-6.7h15.7v6.7l-4.1-.2V34h-7.3z"/><path d="M185.8 13.4h7.5V34h-7.5z"/><path d="M200.5 13.4h7.7l2.4 8.4.5 2.4h.2l.4-2.4 2.4-8.4h7.6L225 34h-7.2l-.9-9.2-.1-2h-.1l-.4 1.7-3 9.5h-4.4l-2.7-9c-.2-.6-.3-1-.4-2.2h-.2v1.6l-1 9.6h-7.2z"/><path d="M228.9 13.4h13.8V19h-6.4v2h5.8v5.4h-5.8v2h6.6V34h-14.1z"/><path d="m248.5 26.6.8.6a7 7 0 0 0 4.3 1.5q1.6 0 1.8-1.2 0-.9-1.4-1.1l-2.2-.4q-4.8-1-5-5.5c0-4.3 3.8-7.4 9-7.4 2.4 0 4.2.5 6.4 1.8l-2 5.3q-2.4-1.6-4.3-1.6-1.6 0-1.6 1.1 0 .7 1.2 1l2.4.5q5 1.2 5.1 5.8c0 4.3-3.7 7.3-8.8 7.3a17 17 0 0 1-7.9-1.9z"/></svg>