<?xml version="1.0" encoding="utf-8"?>
<!-- Generator: Adobe Illustrator 25.2.3, SVG Export Plug-In . SVG Version: 6.00 Build 0)  -->
<svg version="1.1" id="Design" xmlns="http://www.w3.org/2000/svg" xmlns:xlink="http://www.w3.org/1999/xlink" x="0px" y="0px"
	 viewBox="0 0 277.5 47.6" style="enable-background:new 0 0 277.5 47.6;" xml:space="preserve">
<g>
	<g>
		<g>
			<g>
				<path d="M21.3,13.4l2.9,9.7c0.3,1,0.4,1.3,0.5,2.7h0.2c0.1-1.4,0.1-1.7,0.4-2.7l2.8-9.7h7.8L27.8,34h-6.4l-8-20.5H21.3z"/>
			</g>
			<g>
				<path d="M42.5,34h-7.9l7.1-20.5H50L57.3,34h-7.9l-0.7-2.6H43L42.5,34z M47.4,26.6l-1-3.9l-0.2-1.2c0-0.2-0.1-0.6-0.2-1.1h-0.3
					c-0.2,1.3-0.2,1.8-0.3,2.3l-1,3.9H47.4z"/>
			</g>
			<g>
				<path d="M59.4,13.4h9.3c2.2,0,3.6,0.3,4.9,1.2c2.2,1.4,3.3,3.3,3.3,5.9c0,1.5-0.4,2.9-1.2,3.8c-0.6,0.7-1.3,1.1-2.8,1.6v0.2
					c0.6,0.4,0.8,0.6,1.1,1l4.6,6.9H70l-3-6c-0.1-0.2-0.1-0.3-0.2-0.3c0-0.1-0.1-0.2-0.1-0.3l-0.1,0.1V34h-7.3V13.4z M67.6,22.6
					c1.2,0,2-0.7,2-1.7s-0.7-1.8-1.7-1.8h-1.3v3.5H67.6z"/>
			</g>
			<g>
				<path d="M81.2,13.4h7.1l4.7,7.7c1.1,1.8,1.2,1.9,1.9,3.7h0.2c-0.5-2.2-0.5-2.4-0.5-4.9l-0.1-6.5h7.1V34h-7.1l-5.1-8.1
					c-0.6-1-0.9-1.5-1.4-2.7h-0.2c0.3,1.9,0.4,2.7,0.4,3.8l0.1,7h-7.1V13.4z"/>
			</g>
			<g>
				<path d="M111.7,34h-7.9l7.1-20.5h8.2l7.3,20.5h-7.9l-0.7-2.6h-5.7L111.7,34z M116.6,26.6l-1-3.9l-0.2-1.2c0-0.2-0.1-0.6-0.2-1.1
					H115c-0.2,1.3-0.2,1.8-0.3,2.3l-1,3.9H116.6z"/>
			</g>
		</g>
		<g>
			<g>
				<path d="M274.8,8.6h-114l-0.2-0.1c-3.9-3.7-9.1-5.8-14.5-5.8c-5.4,0-10.6,2-14.5,5.8l-0.2,0.1H2.3V7.5h128.8
					c4.1-3.8,9.5-5.9,15.1-5.9c5.6,0,11,2.1,15.1,5.9h113.5V8.6z"/>
			</g>
			<g>
				<path d="M146.1,46.1c-5.2,0-10.3-1.9-14.3-5.2H2.3v-1.1h130l0.2,0.1c3.8,3.3,8.7,5.1,13.8,5.1s9.9-1.8,13.8-5.1l0.2-0.1h114.7
					v1.1H160.5C156.5,44.2,151.4,46.1,146.1,46.1z"/>
			</g>
		</g>
		<g>
			<g>
				<path d="M139.9,21.8l-10.2,4.4c-0.1-0.8-0.2-1.6-0.2-2.4c0-0.7,0-1.3,0.1-2H139.9z M131.8,15.5c-0.6,1.1-1.2,2.3-1.5,3.6h9.7
					L131.8,15.5z M162.1,19.1c-0.4-1.3-0.9-2.5-1.5-3.6l-8.1,3.6H162.1z M162.6,21.8h-10.2l10.1,4.4c0.1-0.8,0.2-1.6,0.2-2.4
					C162.7,23.1,162.7,22.4,162.6,21.8z M155.5,26l6.4,2.8c-1.5,4.6-4.9,8.4-9.4,10.3l-2.2-14h-8.6l0,0.2l-0.7,5.2l0,0v0l0,0
					l-0.4,2.9l-0.8,5.2l-0.1,0.5c-4.5-1.9-8-5.6-9.5-10.3l6.4-2.8l5-2.2V17l-8.5-3.7c3-3.7,7.7-6.1,12.9-6.1c5.2,0,9.8,2.4,12.9,6.1
					l-8.5,3.7v6.8L155.5,26z M148.7,20.3c0-1.4-1.1-2.5-2.5-2.5s-2.5,1.1-2.5,2.5c0,1.4,1.1,2.5,2.5,2.5S148.7,21.7,148.7,20.3z
					 M150.4,15.8l-4.3-4.2l-4.2,4.2H150.4z"/>
			</g>
		</g>
		<g>
			<g>
				<path d="M171.1,19.9l-4.2,0.2v-6.7h15.7v6.7l-4.1-0.2V34h-7.3V19.9z"/>
			</g>
			<g>
				<path d="M185.8,13.4h7.5V34h-7.5V13.4z"/>
			</g>
			<g>
				<path d="M200.5,13.4h7.7l2.4,8.4c0.2,0.6,0.3,1.1,0.5,2.4h0.2c0.1-1.2,0.2-1.5,0.4-2.4l2.4-8.4h7.6L225,34h-7.2l-0.9-9.2
					c-0.1-0.8-0.1-1.1-0.1-2h-0.1c-0.2,1.1-0.3,1.4-0.4,1.7l-3,9.5h-4.4l-2.7-9c-0.2-0.6-0.3-1-0.4-2.2h-0.2c0,0.9,0,1.3,0,1.6
					l-1,9.6h-7.2L200.5,13.4z"/>
			</g>
			<g>
				<path d="M228.9,13.4h13.8v5.6h-6.4V21h5.8v5.4h-5.8v2h6.6V34h-14.1V13.4z"/>
			</g>
			<g>
				<path d="M248.5,26.6l0.8,0.6c1.2,1,2.9,1.5,4.3,1.5c1,0,1.8-0.5,1.8-1.2c0-0.6-0.4-0.9-1.4-1.1l-2.2-0.4c-3.1-0.6-5-2.6-5-5.5
					c0-4.3,3.8-7.4,9-7.4c2.4,0,4.2,0.5,6.4,1.8l-2,5.3c-1.7-1.1-2.9-1.6-4.3-1.6c-1,0-1.6,0.4-1.6,1.1c0,0.5,0.4,0.8,1.2,1l2.4,0.5
					c3.3,0.7,5.1,2.8,5.1,5.8c0,4.3-3.7,7.3-8.8,7.3c-2.7,0-5.4-0.6-7.9-1.9L248.5,26.6z"/>
			</g>
		</g>
	</g>
</g>
</svg>
