<svg xmlns="http://www.w3.org/2000/svg" xml:space="preserve" viewBox="0 0 126.8 165.5"><path d="m122.4 161.5.1-.7-.1-.6z"/><path d="M122.6 156.2c-.1-.9-.2-2-.3-1.4l.2 2.2-.1 1.3.1 1.7zc0-.4 0-.1 0 0"/><path d="M122.8 78v.5z"/><path d="M122.9 29.6v.5z"/><path d="M123 21.3v.5z"/><path d="M122.8 78v-1.3z"/><path d="M122.3 145.4v.7z"/><path d="M122.9 99.3v.4l.1.3z"/><path d="M123 115.7q0-.5-.2-.6l.1.8z"/><path d="M122.8 141.7v.5z"/><path d="M103.6 161s.1 0 0 0q.2 0 0 0"/><path d="M122.6 161.6h-.3l-.1.1z"/><path d="M123.2 6.2q0 .5 0 0"/><path d="M4.2 22.7c.1-1.6.1 2.6.2.2 0 .2-.2-2.2-.2-.2"/><path d="M122.3 145v-.7z"/><path d="M4.4 22.9v-.2z"/><path d="M90 3.5h.4z"/><path d="M116 3.6h-.6z"/><path d="M76.5 3.6h-.9z"/><path d="M62.5 3.6h.7z"/><path d="m61 161.1.6.1c-.2-.1 1.9-.2-.6-.1"/><path d="M122.4 145.4v-.4q-.1.2 0 .4-.1.2 0 0"/><path d="M75.9 4.5h-2.2z"/><path d="M5.1 117.2v.5z"/><path d="m67.1 4.5-1.3-.1h-.3z"/><path d="M76.3 160.9c-2.1 0-1 .1-1.4.2-2.5 0-1.2-.1-2-.2l-4 .2q-.3 0 0-.1c-1.7.1-5 0-6.9.2h-.3l.3.2h-2.1l.9-.1h-1c-.9-.1 1.4 0 1.4-.2-1.9 0-4.2.2-5.7.1-.3-.1 3.5 0 1.5-.2l2.3.1c-1.8-.2 1.4 0-.2-.2-3 0-3.4.1-6.4 0-.7.1.2.1-.5.2-4.3.1-3.4-.3-6.6-.2-.8.1-1.1.3-3.4.2l.8-.2c-2.9 0-1.7.2-4.8.1l1.9-.1c-2-.1-1.4.1-2.9.1l-.3-.1-10 .1-13.6-.2-1.6.1q-.7 0-.3-.1c-1.6 0-.1.1-.9.1q-1.4 0-.6-.1l-4.7.1v-3l.1-2.9v.6c0-2.4-.2-2.7-.1-4.9v.4c.1-5.2-.1-10.9.1-14.8-.2-.7.1-5.1-.2-5.4.1-2.9.2-2.1.2-6.3l-.2-3h.1L5 120l.1-1v-1.3l-.1 1v-3.2l.1-1.7V109l.1 1.5v-2.8c0 .3-.1-.2-.1-.2v-5.8l.1.4V90.7c0 1.4-.2 1.1-.2-.1l.1-.5c-.1-.7 0 1.2-.2-.3 0-1.5.2-1 .2-.1v-1.8l.1.4V84l-.1-9-.2-2.3.1-7.8v-1.4c.1-.1.1-3 .2-1.5l-.1-8.7-.1.7c0-.8 0-1.8.1-1.7v.2c-.2-4.9.3-11.2.1-15.1v.2l-.1-4c0-1.8.1 1.1.1-.3-.2-4.2 0-6.7-.1-10.3.3-2.8 0-9.8.2-13.5l-.1.2c-.1-1 0-1.2.1-1.9-.1.1-.1 1-.1.4V4.4l10 .1 10.5.1c3.1 0 1.7-.4 5.6-.2l-1.3.2 18.7-.1-1 .1h2.8l1.9-.1c.9 0 .2.1.8.1h3.9-.6c.8 0 3.9 0 3.1-.1h6.1c1.2-.1 3.9.1 4.3-.1-.2.2 4 .1 5.4.1-.5.1 1.2.1.7.1 1.6 0 3.1 0 2.9-.1 3 .2 6.1-.2 7.8.1l13.7-.2c-.2.2-4.8 0-4.6.2l10.7-.2c1.1 0-.6.1-1 .1l11.7-.1h-.8c.7 0 1.7 0 1.6-.1h-.7c-1.2-.1 2.9-.3 3-.3-.6.1.3.1 1.1.2h.7l-.2.2h.2q0 .2.1.1V5l-.1-.4.1 4-.1-.7c.1 1.2.2 2.4.1 4.4 0-.1-.1.1-.1-.5 0 3.4.2 5.8.1 9.6-.2-1.1-.1 1.3-.2 1.5v2l.1-.8.1 4.9-.1-1.3V31l.1-1.9c.1 1.8.2-.2.1 2.2l-.1 2.7.1 3.1c0 .3-.2-.3-.2-.1.1.9 0 4.1.2 5.2q0-.5-.1-.3l.1.7q0 1-.1.8c0 2.5.2-.8.1 2.1v-.6 8.4c-.2.8 0-2.4-.2-1.4 0 3.9.2 8.1.1 11.8V63c.2.5-.1 2.8 0 4.7l-.1-.5.1 9.2-.1-.5-.1 5.6c.1.5 0 1.4.1.9-.3 5.1.2 9.7-.1 14.2v-.9l.1 3.8.1-1.3.1 2.5c-.1-1.7-.2 0-.2.8l.1.1c-.2 2 .2.3.1 3.1v-.1l.1 3.1c-.1.5-.1-1.1-.1-1.2l.1 4.5-.1-2.3-.1 2.8v-.1l-.1 2.6v-.7c.3 1.9.1 3.9.2 6.6-.2-2.5-.1-.4-.2-.6l-.1 1.4c.1 1.2-.1 2.1.1 3.8 0 .1 0 1.3-.1 1 0 1.6.1-.4.1-.2.1 2.5-.2 5.8 0 9.4l.3 6.5c-.1 1-.1-.8-.1-.8v4.2l-.1.5.1 2.3-.2-1.2.1 4.2c-.1.4-.1-.9-.1-1.4l.2 4.7v-1c0 .6-.1.3-.1-.1q-.1-2 .1-2.1v1c.2-1 0-4.1 0-6.1l.2.9-.1-2.1c0-.4.1-.8.2.3v-2.6.1l-.1-1.4c0 .3.1-.2.1.6v-5.1.2c-.1-3.6-.1-.3-.3-3l.3-1.8-.1-.4c0-.4 0-1.1.1-1-.1-1.4-.1.2-.1-.6.1-1.8-.1-4.9.1-5.3-.1-.6-.1 1.7-.1-.2.2-.5 0-2.2.1-3.8.1.5.1 2 .1.4-.2-1 0-3.2 0-4.5l-.1-5.3.1-6.4v.1l-.2-4.2.2 1.2V100l-.1-1.8.1.4-.1-6.6c-.1-.1-.3 2.1-.4-.7.1-.1.2-.2.2.5v-1.3l.1 1.1-.1-1.6.1-.6v1.2l.1-2.8-.1-.8c0-2 .1-.7.1-1.9l-.1-1.8.1-.9c-.1-1 0-4.8-.1-3.7v.3-10.6l-.1-5.9.1-1.2v-3.9c.1 1.5.1-.5.1 1.6v-4.6c.1.7.1-1.5.1-2.5l-.1 1.4v-3l.1.5c.2-4.1-.3-7.4 0-10.5-.1-1.1-.1 2.2-.2 1.3l.2-4.4c.1-2.6-.2-2.4-.1-5.1 0 .3-.2.7-.2-1.3q.1-2.9.2-1.1v.7c0 .6 0 1.4.1.7v-.2c0-.9 0-3.5.1-2.9 0-1.4-.1-.6-.1.4v-6.3l-.1.4c.1-3.7-.1-1.6-.1-4.1.1-1.4.2.5.1-2 0-1.5.1-.3.2.3l.1-5.5v1.2-1.9l-.1.7.1-1.3c-.1-.7-.2.6-.2-.9 0-.9-.1-2.8.1-3.2 0 2.9.1-.3.1 2.2V6.2v.3V5l-.1-1.2-1.1.1h-1.4c.4-.1-.7-.1-1.2-.1 1.2 0 .6.1-.5.2h-3 1.1l-2.6.1c-.1-.1 1.2 0 .7-.1h-5.3c-.9 0-.1-.1-.9-.2h-4.8c.7.1.8.1-.9.2l3.9-.1-2.5.1h3.2c-1.2.1-1.1.1-.5.1H102l.1-.2c-2.8-.1-5 .1-8.6.1h1.2l-3.4.1c.1-.1-.6-.1-1.1-.2.1.1-2.7 0-3 .2L85.6 4l-6.2.2c.9-.1-.4-.1 1.5-.2h-5.3l-1.6.1s-1.7.1-.7.1c-2.9-.2-8.1 0-10.7-.2l-6.4.1h.4c-2.6-.1-1.6.2-4.5.1-1.5-.1 1.6-.1.6-.1-.4-.3-3.5 0-5.5-.1h.5l-6.2.1-7.3.2q1.2-.1.6-.2c-1.1 0 .3.2-1.8.2l-2.4-.2h2H29l.1-.1c-3.1 0-3.1.2-6.4.2h.3c-1.8.2-1.5-.1-3.3 0l-.5-.2-6.3.2 5.3-.3-4.6.1h1.5l-5.7.2q.2-.6-1.4-.5H4.3v2.1l-.1 1.3v13.1c.2-1.7 0 1.4.3 1.1V23l-.1 3.4c-.1.8-.1-1.1-.1-1 0 2.5-.1 1-.2 2.7.1-.3.1.9.1 2.3l.1-2c.1 3.5-.2 3-.1 6.5L4 33.6l.1 8.2c0 4.3.2 9.5.1 12.8l-.1-.3.1 2.4q0-.3-.1 0l.1 3.2-.1-.9c-.1 4.2.2 6.4.2 9.9-.2 0-.2 3.3-.3 4.9v-.1l.2 12.7c-.2 2.8-.1 9.4-.2 13.9 0-.7.1.1.2.9v2.7-.4c-.2.8-.1 3-.1 4.6l.2.3c-.3 4.4.1 11.6-.2 14l.1 3.4-.1.2v8.1l-.1-.8c0 2.1.3 2.6.3 4.5l-.2.6v10.8l-.1-.7c0 1.7-.1 6.5.1 5.9-.2 0 0 3.7.1 5.6l-.1-.3.1 1.1v1.1l2.4-.1q.8 0-.2.1H10l-.8.1 2.7-.1 3.8.1 2.4-.1-.5.1h6.7l.4.1h-4.3c0 .1 2 .1.4.3l6.3-.2h.3-.2H30l3.3.1c-.1-.1 1.2-.1 0-.2h-1.2.1-2.5 2.7l1.4-.2c1.4.2 4 .2 4.3.3 3-.1 7.1 0 9-.3l1.3.1H47c1.7-.1 5.1 0 5.5-.2 2.2.1-1.2.1 1.8.1h-.4c5.9.2 9.5-.4 16.1-.1l-.8-.1c7.4.1 15.3-.1 22.6.1l3.6-.1.5.1 2.2-.1c3.1-.1 5.3.3 9.2.1l-.5-.1h5.2v.1l3.4-.1c2.7 0-.4.3 3.5.3l3.6-.2-1.5-.1h1.3c.2-.2 1.3-.4-2-.5l-2.3.1-.7-.1h1.9-2.5l-.9-.1-2.2.2c-.3-.1 1-.1-.5-.2-1 .1 1 .2-.7.2-1.1-.1-.8-.2-2-.1l.6-.1-3.6.1c-1.1-.1-3.8 0-3.7-.2l-3 .1c1.9-.2-3.9 0-3.4-.2-1.4.2-5.1.1-7.6.2h.6l-2.7-.1c-.2.2-2.4.2-3.5.3-1.7-.2 1-.2.5-.3.1.1-3 .1-2.4.2-1.3-.1-1.1 0-1.8-.2l-2.3.2c-1.9-.1-.5-.2-2.6-.1-1-.1.8-.2.8-.2m-49.6.3h1zm-4.2 0h1.8l-.4.1zm8.9.8h-1 1.3z"/><path d="M32.5 161.9h.3-.6z"/><path d="m5.2 121.8.1.4z"/><path d="M122.4 101.6v.3z"/><path d="M122.4 111.5v1.4z"/><path d="M116.5 4.4h-.3z"/><path d="m122.5 33.9-.1-1.2z"/><path d="M76.2 4.5H76z"/><path d="M122.4 31.1v1.7z"/><path d="M122.3 152.2v.4z"/><path d="M122.3 152.6v.4z"/><path d="M122.3 153.9v-.9z"/><path d="m122.3 139-.1 2.9v.1c0-.5.2-2.3.1-3"/><path d="M122.8 126.2v2.6c0-.4.1-1 .1.1.1-3.2-.1.7-.1-2.7"/><path d="M122.9 118.2c0 1.4.1 0 0 0q0-1.3 0 0"/><path d="m122.9 60.6.1.1c0-1 0 0-.1-.1"/><path d="m122.4 49.6-.1 1 .1.5z"/><path d="M123.1 43.1v.4-1.7z"/><path d="m65 3.5.3.1q1.2 0-.3-.1"/><path d="M23.2 3.7h-2.4z"/><path d="M4.1 110.7v-.8 1.6z"/><path d="m125.3 164.3.1-.7-.1-.6z"/><path d="M125.6 158.7c-.1-1-.2-2.1-.3-1.5l.2 2.2q0 1.4-.1 1.3l.1 1.7zc-.1-.4 0-.1 0 0"/><path d="M125.8 77.3v.5z"/><path d="M125.9 26.8v.6z"/><path d="M126.1 18.2v.5z"/><path d="M125.8 77.3V76z"/><path d="M125.3 147.4v.7zq0 .2 0 0"/><path d="M125.9 99.5v.4l.1.3z"/><path d="M126 116.6q0-.5-.2-.7l.1.8z"/><path d="M125.8 143.6v.5z"/><path d="M126 87.3v-.2z"/><path d="M105.8 163.7s.1 0 0 0q.3 0 0 0"/><path d="M125.6 164.3h-.3l-.1.1z"/><path d="M126.2 2.5q0 .5 0 0"/><path d="M1.2 20.7c.1-1.6.1 2.7.3.2-.1.2-.3-2.2-.3-.2"/><path d="M125.3 147v-.7z"/><path d="M1.4 20.9v-.3z"/><path d="m90.5.7.4.1z"/><path d="M117.6.9h-.7z"/><path d="M76.5.9h-1z"/><path d="M61.9.9h.8z"/><path d="m61.4 163.8.7.1c-.2-.1 1.9-.1-.7-.1"/><path d="m125.3 147.4-.1-.4zq0 .2 0 0"/><path d="M75.9 1.8h-2.3z"/><path d="M2.1 119.2v.5z"/><path d="m66.7 1.8-1.3-.1h-.3z"/><path d="M77.4 163.6c-2.2 0-1 .2-1.5.2-2.6 0-1.2-.1-2.1-.2l-4.1.2q-.3 0-.1-.1c-1.7.1-5.2 0-7.2.2h-.3l.3.2h-2.2l.9-.1h-1c-.9-.1 1.4-.1 1.4-.2-2 0-4.4.2-5.9.1-.3-.1 3.6 0 1.6-.2l2.4.1c-1.8-.2 1.5 0-.2-.2h-6.7c-.7.1.2.1-.5.2-4.5.1-3.5-.4-6.8-.2-.9.1-1.2.3-3.5.2l.8-.2c-3.1 0-1.7.2-5 .1l1.9-.1c-2.1-.1-1.5.1-3.1.1l-.3-.1-10.5.2-14.1-.2-1.7.1q-.7 0-.3-.1c-1.7 0-.1.1-.9.1q-1.5 0-.7-.1l-2.9.1-3.1.1v-2.5l.1-2.5v.6c.1-2.5-.3-2.8-.1-5.1v.4c.1-5.4-.1-11.3.1-15.4-.1-.7.1-5.3-.1-5.6l.3-6.5-.2-3.2h.1l-.2-1.9.2-1v-1.3l-.1 1.1v-3.3l.1-1.8-.1-5 .1 1.6v-2.9c0 .3-.1-.2-.1-.2v-6l.1.4V91.8c0 1.5-.2 1.1-.2-.1l.1-.5c-.1-.9 0 1.1-.1-.5 0-1.5.2-1 .2-.2v-1.9l.1.4v-4.4l-.1-9.3L2 73l.1-8.2c-.1-2.1-.1-.6-.2-1.5.1-.2.1-3.1.2-1.6L2 52.6l-.1.8c0-.8 0-1.9.1-1.7v.2c-.2-5.1.3-11.7.1-15.7v.2L2 32.2c0-1.9.1 1.2.1-.3-.2-4.5 0-7.1-.1-10.8.3-2.9 0-10.2.2-14.1v.2c-.1-1 0-1.2.1-2-.1.1-.1 1.1-.1.5v-4l10.4.1 10.9.1c3.2 0 1.8-.4 5.8-.2l-1.1.1 19.4-.1-1 .1h3l2-.1c1 0 .2.1.8.1h4.1-.6c.9 0 4 0 3.2-.1h6.4c1.2-.1 4 .1 4.4-.1-.2.2 4.1.2 5.6.1-.5.1 1.3.1.7.1 1.7 0 3.3 0 3-.1 3.1.2 6.3-.2 8.1.1l14.3-.2c-.2.2-5 0-4.8.2l11.1-.2c1.1 0-.6.1-1 .1l12.2-.1-.8.1c.8 0 1.8 0 1.7-.1h-.7c-1.2-.1 3-.3 3.1-.3-1.3.2 3.8.1 1.8.4l1-.1h.3l-.2.1h.1V5l-.1-.8q.2 1.6.1 4.6c0-.1-.1.1-.1-.5 0 3.6.2 6.1.1 10-.2-1.2-.1 1.3-.2 1.5v2.1l.1-.8.1 5.1-.1-1.4v3.5l.1-2c.1 1.9.2-.2.2 2.3l-.1 2.8.1 3.2c-.1.4-.2-.3-.2-.1.1.9 0 4.3.2 5.5q0-.5-.1-.3l.1.8q0 1.2-.1.8c0 2.6.2-.8.1 2.2v-.6 8.7c-.2.8 0-2.5-.2-1.5l.2 12.3v-.7c.2.5-.1 2.9 0 4.9l-.1-.5.1 9.6-.1-.5-.1 5.9c.1.5 0 1.5.1.9-.3 5.3.2 10.1-.1 14.7l-.1-.9.1 4 .1-1.4.1 2.6c-.1-1.8-.2 0-.2.8l.1.1c-.2 2.1.2.3.1 3.2l-.1-.2.1 3.2c-.1.5-.1-1.1-.1-1.2l.1 4.6-.1-2.4-.1 3v-.1l-.1 2.7v-.7c.3 2 .1 4.1.2 6.8-.2-2.6-.1-.4-.2-.6l-.1 1.4c.1 1.3-.1 2.1.1 4 0 .1 0 1.4-.1 1.1 0 1.7.1-.4.1-.3.1 2.6-.2 6 0 9.8l.3 6.7c-.1 1-.2-.8-.2-.8v4.3l-.1.5c0 1.2.2.8.1 2.4l-.2-1.2.2 4.3c-.1.4-.1-.9-.2-1.4l.2 4.8v-1.1q0 .7-.1-.1-.1-2.1.1-2.1v1.1c.2-1.1 0-4.3 0-6.4l.2.9-.1-2.2c0-.5.1-.8.2.3v-2.7.1l-.1-1.5c0 .3.1-.2.1.7v-5.3.2c-.1-3.7-.1-.4-.3-3.2l.3-1.9-.1-.4c0-.4 0-1.1.1-1-.1-1.4-.1.2-.1-.6.1-1.8-.1-5.1.2-5.5-.1-.7-.1 1.8-.1-.2.2-.6 0-2.3.1-4 .1.5.1 2.1.2.4-.2-1 0-3.3 0-4.7-.2-.1-.1-3.1-.1-5.5.1.2.1-4.5.1-6.7v.1c-.2-.4-.1-2.7-.2-4.4l.2 1.3v-1.6l-.1-1.9.1.4-.1-6.9c-.1-.2-.3 2.1-.4-.7.1-.1.2-.2.2.5v-1.4l.1 1.1-.1-1.6.1-.6v1.2l.1-2.9-.1-.8c0-2.1.1-.7.1-1.9l-.1-1.9.1-1c-.1-1.1 0-5-.1-3.8v.3-11.1l-.1-6.2.1-1.2v-4.1c.1 1.6.1-.6.1 1.7v-4.8c.1.8.1-1.6.1-2.6l-.1 1.5V48l.1.5c.2-4.3-.3-7.7 0-10.9-.1-1.1-.1 2.3-.2 1.3l.2-4.6c.1-2.7-.2-2.5-.2-5.3-.1.4-.2.7-.2-1.4q0-3 .3-1.2v.7c0 .6 0 1.5.1.7l-.1-.3c.1-1 0-3.7.1-3 0-1.5-.1-.6-.1.5l.1-6.5-.1.4c.1-3.8-.1-1.7-.1-4.3.1-1.5.2.5.1-2.1.1-1.6.1-.3.2.3l.1-5.8v1.2-2l-.1.7.1-1.3c-.1-.8-.2.6-.3-.9V1.3v1.4q0 .2.1 0c0-.1.1-.3.1 1V1.9v.3V.4h-1.3l-.5.1-2 .1c.4-.1-.7-.1-1.2-.1 1.2 0 .6.1-.5.2h-3.1 1.2q-.5.4-2.7.3c-.1-.1 1.2 0 .7-.1h-5.5c-1-.1-.1-.1-.9-.2h-5c.7.1.8.1-.9.2l4.1-.1-2.6.1h3.3c-1.3.1-1.1.1-.6.1-1.7-.2-3.3.1-5.3 0l.1-.2c-2.9-.1-5.2.1-9 .1h1.2L92 1c.1-.1-.7-.1-1.2-.2.1.1-2.8 0-3.1.2L86 .9l-6.4.2c.9-.1-.5-.2 1.5-.2h-5.5L74 1s-1.7.1-.8.1c-3-.3-8.5 0-11.1-.2l-6.7.1h.4c-2.7-.1-1.7.2-4.7.2-1.5-.2 1.7-.2.7-.2-.4-.3-3.7 0-5.7-.1h.5l-6.4.1-7.6.1q1.2-.1.6-.2c-1.1 0 .3.2-1.9.2L28.8.9h2.1c-1.1-.2-2.7 0-3.8 0l.1-.1C24 .8 24 1 20.6 1h.4c-1.9.2-1.6-.1-3.4 0L17 .8l-6.6.2 5.5-.3-4.8.1h1.6q-2.4.3-6 .3 0-.2-1.5-.2H1.3v2.2l-.1 1.3V18c.3-1.8 0 1.5.3 1.2v1.7l-.2 3.6c-.1.8-.1-1.1-.1-1-.1 2.5-.2 1-.2 2.7.1-.3.1.9.1 2.4l.1-2.1c.1 3.6-.2 3.1-.1 6.7L1 32.1l.1 8.6c0 4.4.2 9.9.1 13.3l-.1-.3.1 2.5q0-.3-.1 0l.1 3.3-.1-.9c-.1 4.4.2 6.7.2 10.3-.2 0-.2 3.4-.3 5.1l.2 13.3c-.2 2.9-.1 9.8-.2 14.5 0-.7.1.1.2.9v2.9-.4c-.2.8-.1 3-.1 4.8l.2.3c-.3 4.6.1 12-.2 14.5l.1 3.6-.1-.1v8.4L1 136c0 2.1.3 2.7.4 4.7l-.2.6q-.2 5.6 0 11.2l-.1-.8c0 1.8-.1 6.8.1 6.2l-.1 2.2.1 3.7-.1-.4.1 1.3 1.7-.1 2-.1q.9 0-.3.1h3.7l-.8.1 2.8-.1 4 .1q.6-.2 2.5-.1l-.5.1h7l.4.1h-4.4c0 .1 2.1.1.4.3 1.7-.1 4.5-.3 6.5-.2h.3-.2 3l3.4.1c-.1-.1 1.3-.1 0-.2h-1.3.1-2.6 2.8l1.4-.2 4.5.4c3.2-.1 7.4 0 9.4-.3l1.4.1-1.4.1c1.8-.1 5.3 0 5.7-.2 2.3.1-1.3.1 1.8.1h-.4c6.1.2 9.9-.4 16.7-.1l-.8-.1c7.7.1 15.9-.1 23.6.1l3.7-.1.5.1 2.3-.1c3.2-.1 5.6.3 9.6.1l-.5-.1h5.4v.1l3.6-.1c2.8 0-.4.3 3.6.3l3.7-.2-1.6-.1h1.4c.2-.2 1.3-.4-2.1-.5l-2.4.1-.8-.1h2-2.6l-1-.1-2.3.2c-.3-.1 1-.2-.5-.2-1.1.1 1 .2-.8.2-1.1-.1-.8-.2-2.1-.1q-.2-.1.6-.1l-3.7.1c-1.2-.1-4 0-3.9-.2l-3.2.2c2-.2-4.1 0-3.5-.3-1.5.2-5.3.1-7.9.2h.7l-2.8-.1c-.2.2-2.5.2-3.7.3-1.8-.2 1.1-.2.5-.3.1.1-3.1.1-2.5.2-1.4-.1-1.2 0-1.9-.2-.2.2-1.3 0-2.4.2-2-.1-.5-.2-2.7-.1-.8-.3 1.1-.4 1.1-.4m-51.7.4h1.1zm-4.3 0h1.9l-.4.1c.1-.1-.9-.1-1.5-.1m9.1.8h-1 1.3z"/><path d="M31.8 164.6h.3-.6z"/><path d="M2.2 124v.4z"/><path d="M125.4 101.8v.3z"/><path d="M125.4 112.1v1.5z"/><path d="m125.3 120.1.1.2z"/><path d="M118.1 1.7h-.3z"/><path d="m125.5 31.3-.1-1.2z"/><path d="M76.2 1.8h-.3z"/><path d="M125.4 28.4v1.7z"/><path d="M125.3 154.5v.4z"/><path d="M125.3 155v.4z"/><path d="M125.3 156.3v-.9z"/><path d="m125.3 140.8-.1 3v.1c0-.5.2-2.4.1-3.1"/><path d="M125.8 127.5v2.7c0-.5.1-1.1.1.1.2-3.4-.1.7-.1-2.8"/><path d="M125.9 119.2c0 1.4.1-.1 0 0q0-1.5 0 0"/><path d="m125.9 59.1.1.1c0-1 0 .1-.1-.1"/><path d="M125.3 47.7v1l.1.6z"/><path d="M126.1 40.9v.5-1.9z"/><path d="m64.5.8.3.1q1.4-.1-.3-.1"/><path d="M21 .9h-2.5z"/><path d="M1.1 112.4v-.8 1.6z"/><path d="m50.4 23.8.2 1.3h.1l.2-.4 1.7-3.8 1.6-3.6 1-2 .7-1.4q.2-.4.7-.5l1.2-.1 2.9-.1 1.3-.1 2.4-.2 1-.1q.8 0 1.4.5l.5.2 1.5.2 2 .4 1.7.4 1.6.3 2 .5q1.5.4 2.2 1.7l.2.6.1.4q.7.5 1.3.5l2.3.5 2 .5 1.4.3 1 .1 2.6-.1 1.4-.1 2.2-.1 1.2.1.9.1 2 .2 2 .5q1 .3 1 1.4l-.1 2.7-.1 2.1-.1 2.6 1.3.2 2.6.5q.7.1 1.1.9l.1.2.1 2-.1 1.6v.3l1.2.4q.8.6.9 1.4a4 4 0 0 1-.1 1.9q0 .6.6.8.3.3.4.7l.2.6q.2.4.1.7v.3q.1.4 0 .8.4 1-.1 2.1-.2.3-.1.7.2.5-.2.8l-.2.2v.6l-.2.6-.3.7q0 .6-.6.8l-.5.2v.3q0 .6-.3 1.1l-1 1.9-.2.8-.1.8-.3 1.9-.1 1-.1 1.9-.1 1.9-.1 2.3-.1 2.5-.1 4.7-.1 1.8-.2 1.3a2 2 0 0 1-1.3 1.2q-.8.3-1.6.3l-2 .4-1.4.2-2.3.4-1.5.2-1.7.3-1.5.2-1.8.3-1.9.4-1.3.3-1.4.2-1.9.3-1.5.3-1.7.3-.7.2-1.6.3-1.5.2-1.3.3-1.4.2-2.5.5-2 .3-2.4.5-1.7.3-2.2.5-1.3.2-2.3.5-2.1.4-1.4.3-1.3.3-2.5.5-1.8.3-2 .4-1.5.2-1.9.3q-1.5.2-3 .1-.8 0-1.5-.4l-1.7-1-2.5-1.7-2.9-2-1.3-1-.7-.6q-.9-.7-.9-1.9v-3l-.1-2.4v-1.8Q28 68.6 28 67q-.2-2.9-.1-5.7l.1-3 .1-.3v-.5q-.2-.7-.1-1.6.2-1 0-2.1l-.1-6.4-.1-1.8v-5.5q0-.8.2-1.5l.1-1.7q0-1 .2-1.7v-.3l.1-1.3.2-.5q.4-.8 1.3-.8l.7-.1.7-.1h.1l1.7-.1.9-.1q.2-.4 0-.8-.3-.6-.2-1.4l.1-1.5-.1-.6.1-.9v-.6l-.2-1 .2-.8q.2-.4.6-.6 1-.5 2.1-.6l1.7-.3 1.1-.1a30 30 0 0 1 9.6.6c.4-.3 1.1.2 1.4.5M75 51.5q0 .2 0 0 0 .2 0 0m9.2 10.9q0-.2-.2 0zq0 .1.2 0zm14.2.3q.1 0 0-.2zq-.1 0 0 .2zm-.2.5q-.1 0 0 .2zq.1 0 0-.2zm-2.1.5.1-.2.1-.1q.8-1.5 1.2-3.2l.4-2.3v-2.1l-.1-.2-.1.2.1.6-.1 1-.1 1-.3 1.8q-.3 1.5-1 2.8-.2.3-.1.5zm1.9 0q-.1 0 0 .2zq.1 0 0-.2zm-61.7 8.8q0 .1.2 0zq0-.1-.2 0zm43.4-.9q0 .1.2 0zq0-.1-.2 0zm-30.3-45H49q.3.2.4 0h.4q-.4-.2-.4 0m49.4 34.7q.2-.2.1-.4.2-.1.2-.4l.3-1.6v-1.4l-.1 1-.3 1.7v.7l-.1.1zq-.2 0 0 .2zM51 65.8l.3-.2h-.2zh-.2q.2.1.2 0m17 3.1q0-.2 0 0 0-.2 0 0 .1.5.5.8 0-.6-.5-.8m-30.8-2.1q0 .2.3.4t.5.1q-.3-.4-.8-.5m67.5-16.4q-.6.3-.7 1.1l.1.1q.4-.5.6-1.2M44.9 68.9q-.8 0-1.6.6h.5q.7 0 1.1-.6m12.3-15.2.1.5.1.1.1-.4zl.1-.5-.3-.5-.7-.8q-.3-.3-.8-.1v.1q.7.6 1.1 1.6l.2.3zm33.5-5.1q-.1 0 0 0-.1 0 0 0l.2.2.5.3q1.2 1 1.9 2.3.6 1 .9 2.2l.3 2c.1 1-.1 1.3-.1 2l-.1.7-.6 2a9 9 0 0 1-2 3.1l-.9.8q-.9.8-2.1 1.2t-2.4.4q-1 0-2-.4l-1.3-.6-.7-.3.8.7q1.6 1 3.6 1.1 1 0 1.7-.3 1.8-.5 3.1-1.9.8-.7 1.4-1.8l1-2q.5-1.3.7-2.8l.1-1.8-.1-1.3-.1-.7-.7-1.8a9 9 0 0 0-2.2-2.9zM72.3 71.7q0 .1 0 0 0 .1 0 0l-.1-.2-1.2-1.7a15 15 0 0 1-2-4q-.6-1.5-.9-3.1l-.4-2.2v-4.1l.3-2.1.4-1.9a23 23 0 0 1 2-4.9q1-1.7 2.3-3.2 1.2-1.3 2.7-2.5l2.2-1.4q1.6-.7 3.4-1.2l1.6-.4-.2-.1-1.7.2q-1.9.3-3.4 1.2l-2 1.2-1.6 1.2-2 2.2q-1.2 1.5-2 3.2l-1.1 2.6q-.9 2.3-1.2 4.7l-.2 2.1.1 3.5.3 1.5q.1 1.2.6 2.4.9 2.7 2.5 5.1l1.3 1.5q.2.6.3.4m18-37.7-.2-.1-1 .1-2.4.2-2.4.2-2.3.2-2 .2-2 .2-1.9.2-1.8.2-2.2.2-1.5.1h-.1q-.8.3-1.5.3l-1.3.1-1.8.2-1.3.1-2 .1-.5.2q.1 1-.1 2.1l-.2 1.3-.6 2.2-.6 2.9-.3 2.1-.2 1.9-.1 1-.2 1.3v1.1l-.1 1.8v6.5q-.1 3.3.1 6.6l.1 1.9.1 1.7.1 1.5.1 1.6.2 1.8-.1.7q-.3-.4-.3-1l-.2-1.6-.1-1.8-.1-1.5-.1-2-.1-1.4-.1-2.3V62q.1-2.2-.1-4.4c-.1-.8 0-3.7.1-4.7v-.1l.2-1.9.1-1.2.3-1.9.2-1.4.3-1.5.2-1.4.7-2.8.4-1.7.1-.8.1-1.5-.4-.2q-.6 0-1-.4-.4-.7-.3-1.5l.2-1.2.7-3.2.2-.2v.4l-.4 2.5-.1.8-.2 1.5.2.6.5.4q.6-.2.6-.7l.2-1.3.3-2 .3-2.2.3-2.2.2-2.1.1-1.1.4-1.1q.3-.5.9-.7l2.1-.4 2-.2 1.7-.1h.2l1.9-.2 1.7-.1 2.2-.1 1.9-.1 2.2-.1 1.6-.1q.5-.5 1.5-.4l3.1-.2.4-.1-1.3-.5-2.9-.7-2.4-.5-1.3-.3-1.7-.2q-.4.4-.9.4l-2 .2-1.8.1-1.4.1-2 .1-2 .1-.3.1q.6.3 1.1.3l1.4-.1 1.6-.1 1.7-.1 1.5-.1 2.4-.1.8-.1h.7l-.2.1-1.6.2H76l-1 .1-1 .1-1.4.1-2.2.1h-3l-1.2-.4-1-.3-1.5.1-1.7.1h-.1l-1.5.2-1.4.1-2.1.3q-1.6.1-2.1 1.6l-.7 2.4-1.3 4.2-.1.4h.5q.8 0 1.3.7l.5.4 1.1.3 2.1.6q.6 0 1 .6l.1.7-.1.6-.1.4-.5 2.1-.7 2.9-.5 2.1-.4 2.2-.4 2.3-.2 1.3-.3 1.7-.2 1.6-.2.9q-.1.6.4 1 .7.5 1 1.3l.4 1.9.1 1.1.1 1 .1 1a13 13 0 0 1-.2 3.4l-.4 1.5-.7 1.1q-.6.5-.4 1.3l.2 1.7.1 1.3.2 2.8.1 1.2.2 2.1.1 1.1.3 1.6q0 .6.6.9l.7.4q1 .4 2.2.5l.9.1 1.4.2 1.1-.1 1.4-.2 2.2-.5 1.7-.3 1.8-.4 2.2-.5 2.4-.6 2.6-.5-.5-.2a4 4 0 0 0-1.9-.1l-1.8.3-1.4.2-1.5.3-1.4.2-1.8.4-2.2.5-1.4.3-1.2.1h-1.3q-.6-.1-1.1-.7-.4-.7-.5-1.5l-.1-2.3-.1-1.4v-.2l-.1-1.7.2.2q.2.6.2 1.4l.1 1.8v.1l.2 1.9q0 1 .9 1.7.5.3 1.1.3l.7-.1 1.9-.4.8-.2v-.6q-.2-.7-.2-1.5l-.1-1.7q0-.5-.6-.8l-.1.3-.1 3-.1 1.2-.1-1.9-.2-3.2-.5-.4-.1.1-.1 1.8V74q0 .3-.2.5v-.1l-.1-3.5-.3-1-.8-1.3q-.8-1.3-1.2-2.7l-1-3.9-.2-.2-.1.9-.1 3.1-.2.2v-2.8q-.1-1.5.1-3l.1-2.1.1-2 .1-1.5.1-1.1.3-2q.2-1.4.7-2.6.6-2 1.7-3.9a18 18 0 0 1 3.8-5l.8-.7 1.3-1.1a14 14 0 0 1 5.5-2.4l2-.2.6.1 2 .1 2.6.2 2 .4q1.8.6 3.4 1.8.7.6 1.6.6l.9.2 1.5.4q0-.5-.2-.9t-.3-.9l-.1-1.5zm-.4-.7.1-.3v-.6l-.1-1.6-.1-7q0-.7-.3-1.4-.5-1-1.5-1.1l-2.7.1-2.4.1-1.6.1-1.9.1-1.4.1-1.9.1-1.6.1-2.1.1-2.8.1h-.1l-2.1.2-1.1.1-1.6.3q-1 .1-1.1 1l-.2.9-.3 2.1-.1.7-.1 1.1-.3 2-.1.9-.3 1.7-.2 1.7-.2.9.1.3h.3l.3-.1h.3q.8.2 1.6 0l1.7-.2 1.8-.1h.1l1.4-.2 1.5-.1 1-.1 1.4-.2 1-.1 2-.3 1.3-.1 2.3-.2 1.7-.1h.1l.7-.1.8-.1 1.7-.1 1-.1 1.6-.2 1.2-.1.2-.4.2.3zM56 41.4l.1-1.2.2-1.2.3-1.3.4-1.2h-.5l-1.8.1-2.3.1h-.1q-.9.2-1.9.2l-1.9.1-2 .2-.5.1q-.4.1-.7-.2l.2-.1.8-.1 1.5-.1h.1l1.5-.2 1.7-.1h.1l1.7-.2 1.7-.1h.1L56 36l1-.1.1-.4h-.2l-1.7.1-1.3.1-2.7.2-1.6.1h-.1l-1.9.2-1.7.1h-.1l-.8.1-.8.1-1.2.1q-1 .2-2.2-.1l.5-.1 1.5-.1 2.8-.2 1.9-.1h.1l.8-.1.8-.1 1.7-.1h.1l.8-.1.8-.1 1.8-.1h.1l1.4-.2L57 35l-.1-.3-.5-.5-1.5-.6h-.4l-.2.6-.4.5-.8.2q-1.3.1-2.7-.4-.5-.2-.6-.6v-.5l-.1-.5-.8.3-2 .5-2 .4-2.1.2-1.6.1-2.6-.1-.8-.1-1.4-.3-1.6-.4q-.5-.1-.9-.7l-.4-.5-2.3.2-.9.1q-.7 0-1.3.4-.5.3-.6.8l-.2 1.6v3.1l.3.5.5.3 3.2 1.6 1 .5q.7-.1.9-.7l.4-.8q.3-.7 1-.4l1.8.4q.8.1 1.7.5l.1.5v2.6l.1.1.3-.1.1-.5-.1-1.9-.1-1.6-.4.2-.6-.7.3-.1.5-.1q.6-.1.6.5l.1 2.3v1.9l1.2-.1 1.4-.1 1.7-.2h.2l.6-.1.7-.1 1.4-.1 2.2-.3 1.3-.1 1-.1 1.5-.2h.2l1.2-.2zm-26.9 37 .8.7.9.7 1.9 1.5 3.2 2.2 1.9 1.1 2 .7 1.9.1 1.1-.2 1.3-.2.8-.1 1.5-.2 2-.4 1.7-.3 2.2-.5 2.5-.5 2.5-.6 2.8-.5 2.2-.4 3.1-.6 2.9-.5 2.3-.5 2.5-.5.8-.3-.5-1.4-.3.2v.4l.2.4-.2.2c-.7-.1-1.3.3-2 .2l-2.5.5-2.2.4-.8.1-2 .3-.4.1-.2-.1 1.3-.3 1.3-.2 1.3-.3 1.3-.2 1.3-.2q.7 0 1.3-.3l-.2-.5q-.4 0-.6.3l-.9-.1-1.1.2-2.1.4-1.4.2-2.2.4-1.1.2-1 .2h-.3l-1 .2-1.2.1-.9.1h-.9l6.2-1.3-.2-.2-1.2-.1-1.2.1-1.1.1-1 .1-1.1.2H56l.4-.3.2-.2q-1-.1-1.9.1l-.7.1-1.8.3-1.9.3-2.3.5-1.7.3-2.3.5-2 .4-.9.1q-.9 0-1.6-.3-1.4-.4-2.6-1.1l-2.6-1.7-3.9-2.5-1.5-1q-.2 1 0 1.7l.5.5 1.6 1.1.9.8-.1.1-1.7-.9-.9-.6h-.1zM104 36.7l.1-.6.2-2.4V32q0-1.2-1.1-1.6a6 6 0 0 0-2.3-.5l-1.1-.2q-.1.7-.7 1.2h-.5l-1 .5q-.5 0-.8.3l.1.1.6-.1 2-.1 2-.2.8-.1h.4v.2l-2 .3-1.9.1h-.3q-.7.2-1.6.2l-2.1.1h-.1l-1 .1-1 .1-1.8.1-.4.2.3.2 2.9-.1h.4l.1.1-.3.1h-.6q-.7 0-1.3.2l-1 .1.1.8.1 2.2.2 1.3.4.4 1.3-.1 1.8-.1h.1l1.6-.2 1.4-.1 1.6-.2 1.7-.1h.1l1.3-.2 1-.1zM57.6 15.1l.8.3 3.8 1q.4 0 .7.3l-.1.1-1.6-.3-1.9-.5-2.4-.6-.2.5-2 4.3-1.2 2.6-.5 1-.8 1.8-1.2 2.6-.2.4q-.1.3.1.5.8 0 1.5-.3l.5-1.4 1.3-3.9.7-2.4q.2-.6.8-1l.8-.3 1.7-.3 1.7-.1h.1l1.9-.2q.8 0 .9-.7l.5-1.2q.4-1 1.4-1.4l2.4-.2 1.5-.1 1.4-.1 2.6-.1h1q.7 0 1.4-.3l-.7-.1H73l-1.8-.3-2.3-.4-1.8-.2-1.6.1-2.2.1-1.9.1-2.1.1-.3.1.5.2 2.2.6 1.4.4q.3 0 .4.4h-.3l-.7-.2-3.1-.7q-1.1-.4-1.8-.2M73.5 75q0-.1 0 0l-1.6-.8q-1.8-.9-3.3-2.4l-1.3-1.4q-1-1.2-1.7-2.5l-.9-1.9-.9-2.8-.5-2.4-.2-1.9v-.8l-.1-.3.1-.8v-1.1l.1-1.4.1-1 .4-1.8q.6-2.2 1.5-4.3a21 21 0 0 1 3.6-5.3l1.3-1.3q1.5-1.3 3.3-2.2 1.2-.6 2.4-.9l1.9-.5 1.6-.2 2.4.2 2.2.5 1.6.5.6.2q0-.3-.2-.3l-1.8-.9q-1-.4-2.2-.6l-2-.2q-1.5 0-2.9.2l-2.1.5a19 19 0 0 0-3.6 1.6q-1.6 1-3.1 2.4l-1.8 2q-1.2 1.4-2 3.1l-1 2.1-.8 2.3-.4 1.7-.2 1.1-.2 1.3-.1 1.1q-.1 2 .1 3.8l.2 1.6.4 2.4a19 19 0 0 0 2.4 5.8 13 13 0 0 0 3.2 3.5q1 .8 2.3 1.5 1.1.6 2.2.8.9-.4 1-.2m29.2-4.8-1.7.3-1.6.2-1.8.3-.8.1-1.6.3-1.3.1q-.7.1-1.5.5l-.4.5-.1.3q-.2.6-.8 1.1l-.9.8-1 1.3q-.2.1-.1.4l.6-.1 1.5-.2 2-.3 2.3-.4 1.7-.3.8-.1 1.8-.3 1.3-.2q.4 0 .8-.4h-1.2q.5-.4 1-.3.8 0 .9-.8l.1-.9zM75.9 42.9q-.2.4-.6.6-1.5 1.4-2.6 3.2l-.4.7q0 .4-.2.6l-.3.6-.3.6c-.4-.1-.6-.6-1.1-.4q-1.5 3.1-1.9 6.7l.7.1q.3 0 .1.4h-.9v.6l-.1 1.6.1 1.3.2 2.2.4 2.2q0 .8.6 1.5l.5.3q0 .4-.2.5 0 .6.4.9l.8.2-.6.5.5 1h.7q.3.1.2.4l-.6.1.2.2q.4.3.6.8.3.7.8.6c.2.7.2.7.7 1.2l1.6 1.3q1.4 1 3 1.5 1.3.5 2.8.5 1.9 0 3.8-.3 1.4-.3 2.7-.9l2.4-1.2.3-.2h-.4l-1.8.7-1 .5a14 14 0 0 1-4.5 1l-1.6-.1-1.7-.3a10 10 0 0 1-4.1-2.1q-1.2-1-2.1-2.4t-1.6-3q-.9-2-1.2-4.2l-.1-.9-.2-2.2v-.4l-.3-1.3-.1-1.1.4-.3.2-.4.2-1.1q.1-1.4.6-2.6.5-1.7 1.3-3.3l1.1-2.1q.9-1.5 2.1-2.8l1.8-1.8 1.3-1.1q.9-.7 2.5-1.5l.4-.3-.5.1q-1.2.3-2.2 1l-1.1.7H77l-.4.1-1.3 1zm-.8 8.2.3-.4 1.2-2.2a14 14 0 0 1 7.4-6.2l1.5-.4 1.8-.2h1.5q1.4 0 2.6.6l3.5 1.7 1 .6.3.1-.3-.4-1.6-1.8-1.4-1q-1.5-.8-3.2-1.2l-1.9-.2-2 .1q-.7 0-1.3.3l-2.3.8a14 14 0 0 0-5 3.5q-.5.5-.6.9 0 .8.7 1.1l-.4.7-1.2 2.1-.6 1q-.4.2 0 .5m16.7-10.9q-.4-.5-.9-.5l-2.2-.5L87 39l-2.1.2-2 .5a13 13 0 0 0-3.2 1.4q-1.4.9-2.6 2l-1.6 1.6-.7.8q-1 1.3-1.8 2.8l-1.1 2.3-.9 2.5-.4 1.8-.2 1.4-.1.8-.1.8v1.9l.2 2.8.6 2.4q.6 2 1.6 3.9.8 1.4 1.9 2.6c1.1 1.2 1.5 1.4 2.5 1.9q1 .5 2.2.8l1.8.3q1.2.1 2.4-.1L85 74q1.3-.3 2.5-1v-.1l-.1-.1-.7.2-.9.4q-1.5.4-3.2.6-1.1.1-2.2-.1l-2-.5q-1-.3-1.7-.9-1.1-.7-1.9-1.7a13 13 0 0 1-1.9-2.7q-.9-1.8-1.5-3.7-.4-1.5-.5-3l-.1-1.9.1-.7.1-1.7.2-1.7.6-2.7 1.2-3.2.7-1.4q.7-1.2 1.6-2.3l.9-1q.7-.9 1.5-1.4l.6-.5 2.2-1.5 1.8-.9 2.5-.8 1.8-.2h1.6l1.1.1 2 .5zM77.6 61.4l.1 1.2q.3 1.4.8 2.6.8 2.1 2.3 3.8c1.5 1.7 2.2 2 3.7 2.6q1.8.6 3.6.7l1.9-.2 1.6-.4q1.2-.3 2.2-1l2.1-1.5 1-1.1 1-1.3.5-.7 1.1-1.9.6-1.3.8-2.4.3-1.6q.3-1.2.2-2.5l-.1-1.8-.4-1.9q-.6-2.2-1.7-4.2-1-1.6-2.3-2.8-1.5-1.4-3.4-2-1-.4-2.1-.5-1.5-.2-3 .2l-2.3.7a14 14 0 0 0-3.7 2.7l-.6.7-1.1 1.3q-1.3 2-2.2 4l-.2.5v.2l.1-.1.4-.8q.7-1.6 1.8-3.3 1.3-1.8 2.9-3.1l.8-.6a12 12 0 0 1 4.7-1.9q1.9-.1 3.8.2a8 8 0 0 1 5 3.7q1 1.5 1.7 3.3l.7 2.5q.3 1.5.3 3l-.2 2.3-.3 1.9q-.3 1.5-1 3.1t-1.7 3L96 68.3l-.5.4-1.1.9q-.9.7-1.9 1.1-1 .6-2.1.8-1.2.4-2.4.3l-1.6-.1-1.2-.2q-2.3-.4-3.9-2.1l-1.4-1.6q-.7-.9-1.2-1.9l-.7-1.7-.5-1.5q.5-.5.2-1.3m-22-10.3.3-2.2.1-.8.2-1.3.3-1.8.3-1.6.4-1.7.5-2.2.5-2.5.4-1.8.4-2.2.1-1q-.3-.4-.6-.4l-2.8-.9-.9-.3c-.2.3-.2 1.8-.2 2.4l.5.4 1.5.5.9.6.1.8-.1 1.1-.3 1.5-.3 1.5-.5 2.5-.3.9h-.5l-.3.6-.1.9-.2 1.2-.1 1.1-.3 1.7-.1 1.1-.1 1-.2 1.3v.1zm10.4 20-.7-1.1a16 16 0 0 1-2.3-4.5l-.6-2.3-.3-1.7-.1-.9-.2-1.7.1-3.8V55l.3-1.9.3-1.8.7-2.5.7-1.9q1.1-2.5 2.8-4.6l2-2.2 1.5-1.2 1.8-1.1a8 8 0 0 1 2.5-1.1l1-.4-1.1.1-1.4.5-2.6 1.3-1.5 1.1-1.6 1.4-1.5 1.7q-1 1.2-1.7 2.6-1 1.5-1.5 2.9l-.8 2.3-.4 1.9-.2 1.4-.1 1.1a15 15 0 0 0-.1 4.6l.1 1.2.4 2.1.5 1.9 1.4 3.8 1.3 2zM49.2 23.6q-.2-.4-.6-.4a17 17 0 0 0-4.7-.7l-4.3.1-1.4.1-2.3.5q-.5.1-.8.5.2.5.6.6l1.7.5 1.7.3 3.3.2 1.7-.1 1.5-.1 1.2-.2 1.7-.5q.4-.2.7-.8m39.5 19.3-.4-.1-.8.2q-1.4.2-2.6.8-2.1 1-3.6 2.6l-1.2 1.4-1.5 2.2a24 24 0 0 0-2.1 5.8l-.2 1.7-.1 1.7q-.1.8.1 1.5l.3 2.2q.2 1.2.6 2.2l1.1 2.5.9 1.3 1.4 1.5q1.1 1.1 2.5 1.6h.2l-.1-.1q-1.2-.6-2.2-1.5-.9-.8-1.6-1.8a13 13 0 0 1-1.8-3.5q-.7-2.1-.9-4.2-.2-1.7.1-3.2v-.1l.3-1.4.5-2q.6-2 1.6-3.9a19 19 0 0 1 4.3-5q1.4-1 3-1.6l1.8-.5zm-1.9 17.2q.5 0 .6-.3.7-.8 1.1-1.7.5-1.2.6-2.4t-.3-2.3q-.4-1.4-1.7-2.1-.6-.2-1.2.1-.7.5-1 1.4c-.4 1.2.4 2.4 1.6 2.7l.9.3q0 2.2-.6 4.3m-33.3-7.4q-1 1.5-.9 3.2l.2 3.8.3 1.9.5 1.2q.4.5.9.2t.7-.7q.6-1.2.6-2.4-.1-.7.1-1.4v-1.3l-.2-2-.3-1.3q-.2-1.1-1.3-1.3zM41.2 81.2l.1-1.8-.1-6.1V60.4l-.1-6-.2-5.8v-3.8l-.2-.8-.2-.1v1.4l.1 3.7.1 15.7V80l-.1 1.3zm-7.8-37.3-.2.3q-1.5 2-2.1 4.3l-.2 1.3v1.7q0 .8.5 1.5 1.4 1.4 3 .6 1-.7 1.5-1.7L37 50l1.4-3 .2-.8q.1-1.6-.7-3l-.4-.5H37l-.1.3.1.8q.4 1 .4 2l-.2 1.7a18 18 0 0 1-2.2 4.6q-.5.9-1.5 1.1t-1.7-.6a2 2 0 0 1-.4-1.3V50q0-.7.3-1.5.5-1.6 1.5-3l.9-1.6zm46.3 26.4-1.3-1.6q-1.2-1.7-1.9-3.6l-.7-2.7-.2-2v-.2l-.1-.7.1-1.3v-.3l.1-1.2.3-1.5.7-2.5a20 20 0 0 1 3.8-6.4l.9-.9a11 11 0 0 1 2.8-2q1.6-.7 3.3-1h2l.8.2.7.1-.3-.2-2.1-.4-1.1.1-2.4.4q-1.9.4-3.4 1.5-1.6 1-2.8 2.4l-.2.2.5.4q0 .6-.3.9-1.3 2-2.3 4.3l-.7 2.2-.3 1.6-.2 1.9q-.1 1.5.1 3l.2 1.5.6 2.4q.5 1.6 1.4 3.1.8 1.2 1.7 2 0 .4.3.3m-24.8-1.6.5.1.5.4q.4 1 .4 2v2.2l-.3.5-.5.3.1 1.4q0 .9.3 1.6.3 1 1.4 1.3.6.2 1.2-.2l-.2-.1q-.6-.3-.8-1-.5-1-.5-1.9l-.1-1.8v-.1l-.1-.8-.1-.8-.1-1.7V70l-.2-1.8-.1-1.6-.2-2-.2-.6q-.7-.1-.9.1-.2 2.3-.1 4.6M34.6 32q0 .5.4.8l1.2.4 1.8.4.7.1 1.7.2 3.4-.2 1.7-.2 2.2-.4q1.2-.2 2.2-.8l.3-.3-.2-.3-.9.2-.9.2-1.8.3-1.7.2-1.9.2-2.6-.1q-1.5 0-2.9-.2l-1.7-.4q-.5-.2-1-.1m19.7-2.5q-1.7-.4-3.3.1l-.1.1.1.3-.5.3v2.9q0 .4.3.6l1.1.4h1.5l.5-.1c.1-.4.2-1.4.1-1.8l-1.8-.1q-.5 0-.8-.3l2.7.1c.2-.6.3-.7 0-1.4q-1.2.2-2.5-.2l.2-.1 2-.2q.3-.2.5-.6m23.9-11.3q-.2-1.7-1.8-2.3h-2L73 16l-1.4.1-2 .1-1.4.1-2 .1-.8.1q-1 .1-1.4 1l-.5 1.1q-.2.3.2.5.3 0 .4-.4l.4-.9.5-.5q.6-.2 1.3-.2l1.6-.1 1.6-.1 1.7-.1 1.5-.1q1.6-.2 3.2 0 .6 0 1 .4l.3.6.4.5zm16.6 34.5v.3l.2 1.2.2 1.7-.2 2-.5 2.1-.8 2a10 10 0 0 1-2.8 3.4q-1.5 1-3.2 1.4l-1.5.2-.8-.1-.6-.1-1.5-.6-.9-.4.1.2 2.7 1.3q1.2.4 2.6.1c1.4-.3 1.7-.5 2.5-1q1.5-.9 2.5-2.4.8-1.2 1.4-2.6 1-2.2 1-4.5l-.1-1.8-.4-1.7q.3-.5.1-.7M88 20.3q.1.4.6.5l.9.5q.6.5 1.3.5.6-.2 1.1 0h1l2.3-.1h.3l1.6-.3q.3 0 .5-.3v-.3q-1.3-.4-2.7-.4v.1q0 .5-.5.6l-.9.1-1.3.1-1.9-.2-.4-.2-.2-.6zm9.2 36.2-.1 1.1v.3l-.4 1.5q-.4 1.7-1.1 3.3l-1.1 1.9q-.7 1-1.5 1.7-1.2 1-2.5 1.5l-1.5.5-1.3.2q-.9.1-1.8-.1l-2.2-.7-.3-.1.2.2a6 6 0 0 0 3.5 1.1h.6q1.2 0 2.3-.4a9 9 0 0 0 2.6-1.3l1.1-1 1.6-2.2 1.2-2.4.5-1.6.3-1.9q.1-.9 0-1.6m-42.5 6.9q.7.2 1.2-.3l.6-1.2q.4-1 .4-2.1.1-2-.1-4v-.1l-.3-1.3q-.2-1.1-.9-1.9L55 52q-.2-.2-.5.1v.1q.7.5 1 1.2.6 1.5.7 3v2l-.2 2.3q-.1 1.3-1.1 2.4zm-20.3-35q.5.6 1.1.8 2 .6 3.9.6 2.5 0 4.9-.2l2.2-.3q1.2-.1 2.4-.6l.8-.5-1.7.4-1.9.4-.9.1-1.7.2q-2.3.1-4.7-.1l-1.7-.2-2.3-.5q-.2-.2-.4-.1M85 67.6q.6.4 1.4.5a7 7 0 0 0 4.9-1.2 12 12 0 0 0 4-5.3q.9-2 1-4.3v-1.9l-.1-.3-.1.3-.1 1.8-.3 1.7a16 16 0 0 1-1.9 4.7 8 8 0 0 1-4.4 3.5q-.8.3-1.7.4h-2.6zM72.1 43.5l.5-.4 1-1 2.3-1.7 1.8-.9q1.4-.6 2.8-.9l.5-.2h-.7l-2.1.6-2.1.8q-1.3.6-2.4 1.5l-.1.1q-1.2.7-2 1.7-.4.3-.5.8c-.5.3-.5.3-.8.9l-.3.4-.6.7.5.3q.8-.8 1.1-1.6 1-.3 1.1-1.1M94 23.4l-.1 1.9-.1 3.2v2.9h.5l.1-.7v-2l.1-2v-1.4l.1-1.6-.1-.3zm-59.5 3.1.2.3 1.1.5q1.7.5 3.6.5h.7l.7.1q.3.2.6 0l.6-.1h1.8l1.2-.2 1-.1q.4 0 .7-.3l-1.2.1-1.8.1H40l-2-.2-2.6-.5q-.4-.2-.9-.2m12.1 3.6q-.1 0 0 0h-.4l-3.6.1h-2.4l-1.6-.1-1.5-.2q-1.2-.1-2.4-.6l-.4-.1v.2q.3.4.7.5 1.9.7 3.7.7 2.8.1 5.6-.1l1.9-.3zm4.1-3.2s.1 0 0 0l6.2-12.6-.2-.2-.3.2-2.3 5.1-1.7 3.7-1.5 3.3zm19 15.8.3-.2.5-.5.9-.7 1.4-1.1.6-.4 2.6-1.3q1.6-.6 3.4-.7l1.9-.1h.2q-3.5-.5-6.6.9a13 13 0 0 0-5.5 4zM34.5 30.1q.1.5.5.6l1.2.4 1.2.2 1 .1 1 .1 1 .1h.5l3.1-.1.9-.1 1.4-.3 2.2-.5.3-.1h-.4l-1.5.3-1.6.2-2 .2H43l-2.3.1-1.7-.2-1.7-.2zm57.2 24.6-.2-1a6 6 0 0 0-2.2-3.4l-1.2-.7q-.9-.3-1.8-.3l-1 .1q-.9.2-1.8.7-1.3.7-2.1 1.9l-.4.6-.9 1.9q-.3.7-.2 1.5l.2-.7a8 8 0 0 1 1.1-2.5q.7-1 1.7-2 1.1-1 2.6-1.3c1.5-.3 1.9 0 2.7.4s1.4.9 1.9 1.6q.5.6.7 1.3l.6 1.6zm3.5 10.5-.3.2-1.6 1.7q-1.6 1.2-3.4 1.8-1.2.4-2.4.4h-1.4l-1.1-.2-.5-.1.4.2 1.1.2 1.7.2.8-.1q.9 0 1.9-.4 1.6-.5 2.8-1.4 1.3-.7 2-2.5m.4 1-.2.1-.6.7q-1.4 1.4-3.3 2.4-1.3.6-2.7.8l-1.1.1q-.7.2-1.5 0h-.6a4 4 0 0 0 1.8.4l.8-.1a6 6 0 0 0 2.3-.5 13 13 0 0 0 3.1-1.6 5 5 0 0 0 2-2.3M77.8 38.7v-.1l-.4.1-2.1.8-1.2.7-.5.3-.4.2-1.2.9-1.7 1.6-.2.2.7.3.2-.6 2-1.8q.5 0 .8-.4.5-.5 1.1-.7l1.7-.8zm14.4 19.2-.2.6q-.3 1.3-1 2.5-.5.9-1.2 1.6l-1.4 1q-1.1.7-2.4.8h-2l.1.1 1 .2a5 5 0 0 0 2.1-.1q1.5-.4 2.6-1.5l.9-1 1-1.6.5-1.4zm-2-35.3q.5.2 1.1.2l2.8-.2 2.7-.5 1.6-.4q.5-.1.5-.5-.2-.3-.5-.1a1 1 0 0 1-.9.5l-.6.2q-1.4.5-2.9.5l-3.6.1h-.1zM58 14.2l2.3-.1 1.6-.1 1.9-.2h2l.4-.2-.7-.3-.6.1-2.4.1-1.5.1-2.6.1-.9.1zm46.4 27.4-.1.5-.1 2.2v2.4l.1.2q.3-.2.3-.5l.3-1.3.2-2V42l-.2-.8q-.4.1-.5.4M84.2 63.2q0-.1 0 0l-.5-.5-1.1-1q-1.3-1.5-1.4-3.5v-2l.5-2.3.1-.6-.3.2-.6 1.5-.3 2.3.1.9.2 1.2a6 6 0 0 0 3.3 3.8m14.6-40.3v.6l-.1 5.1v1.3q0 .2.2.3l.1-.2.2-1.9.1-3.7V24l.1-1.4q-.5 0-.6.3M35.4 42.2v.7l.6 2 .2.3q.3.1.6-.2l-.1-.4-.4-1.2q-.3-.8.3-1.4l.3-.5-.3-.1-.5.1-.4.3q-.3.1-.3.4m53.4 29.1h.2q1.1 0 2.2-.4 1.5-.5 2.8-1.5l1.6-1.4.5-.8v-.3q-1.5 1.6-3.3 2.7-2 1.2-4 1.7M75.9 18.5l-.2-.2h-.4l-2.3.1c-.6.2-1.2 0-1.9.2l-1.2.1-1.9.1-1.8.1q.4.3.8.2l.3-.1 1.8-.1 1.7-.1 1.7-.1 1.3-.1zm-8.1 57.9-.2-2.9q-.3-.5-.8-.3v3.2l.1.2zM35.4 40.2l.5.2 1.4.4q.7.2.8 1v.8q0 .3.3.5.3-.2.2-.4v-2l-.7-.3q-.9-.3-1.9-.4zm56.9.3.5.3 1.8 1.3 1.8 2 1.3 1.8.4.5v-.3l-.5-.9q-.7-1.4-1.8-2.4l-2.2-1.9-.8-.5zm3.5-17.3-.1.7-.1 2.2V30l-.1 1.1.1.1.3-.1.1-2.6v-5.1q-.1.1-.2-.2M78.4 70.9q0-.3-.2-.3l-1.9-1.7-.8-1-1.2-2.1-.6-1.8-.4-1.3-.1.4.4 1.4q.4 1.3 1.1 2.5a10 10 0 0 0 2.5 3.1zM37.8 49.5l-1.2 2q-.7 1.4-1.9 2.3-.2 0-.1.3l.5-.1q1.1-.8 1.9-2c.4-.8.8-2 .8-2.5m-3.4-22.2q.1.4.4.6l.7.3 3 .6h.3q0-.4-.2-.4l-1-.3-.9-.1q-1-.2-1.9-.6zm51.2 35.4q.7.3 1.4 0l1.2-.6q1.1-.8 1.8-1.8l.8-1.8.1-.3h-.1l-.1.2q-.6 1.5-1.6 2.6-1.3 1.3-3.1 1.6zm19.3-27q0 .4.2.5.4.3.4.8.2 1.2-.4 2.2l-.2.4.3-.2q1.2-1 .8-2.6 0-.5-.4-.8l-.4-.4zm-8.8 29.7q.2 0 0 0l.3-.3.6-.9a14 14 0 0 0 1.3-3.6l.2-.9.1-.9q.1-.3-.1-.6l-.1.6-.6 2.4-1.3 3.2zM74.8 50.3l-.2.1q-.6 1-.9 2l-.4 2-.2 1.6-.2 1.4v1.2l.3-2.8.7-2.7zM94 20.6q-.7-.4-1.5-.5h-.9q-.7 0-1.2.3l-.1.1.2.2h2.9zM68.6 74q-.2-.2-.6-.1v2.3l.3.1.5-.1q0-1.2-.2-2.2m5.8.4L74 74l-.4-.3-.4-.3-.4-.3-.4-.4-.4-.3-.4-.4-.3-.3-.4-.4-.4-.3 1.1 1.5 1.2 1.1 1.3.8zm23.1-51.1-.2.1-.1.9q.1 2-.1 4v2.2q0 .2.2.3l.1-2.9v-2.8q.2-1 .1-1.8m-51.4 5.1.6-.1 2.3-.6q.4 0 .9-.4v-.2l-3.9.8q-.1.4.1.5m53.1-6.3-2.2.5-1.6.3-.8.2 1.1.1 1.9-.3q.9-.2 1.6-.8m-6.1 5.1h-2.7l.2.3.4.1h1l1-.1.3-.2zm-2.4 36.1-1.9 1.1-2 .8c.9.3 3.1-.7 3.9-1.9m-.2-34.2-.2.2.3.3 2.6-.2.1-.1-.1-.3zm0 2 2.5.1.3-.4-.1-.1h-2.7l-.1.1zm12.7 16.7q-.3.5-.2.9l.4.2q.2-1.2-.1-2.3l-.7.4zM57.6 58.4q.4-1.5 0-2.9l-.2-.1-.2.2.2 2.8q.1-.2.2 0m32 .7a6 6 0 0 1-3.2 2.7 3 3 0 0 0 1.6-.5q.9-.5 1.3-1.3.5-.3.3-.9m1-30.9-.2.2q.1.3.3.2l.7.1h.3l.5-.1h.6q.3 0 .5-.3l-.1-.1zM82 59v-.3l-.1-.7.1-2.1v-.1l.1-1c-.6.7-.8 3.2-.1 4.2M68.2 45.7q.3.1.6-.1l.7-.7-.3-.1h.4l.3-.4-.7-.3-.5.8zm-32.6-4.8q-.8 0-1.2.6t-.1 1.2l.4.2.2-.7q0-.6.6-1zm4.5 32.2c-.9-.3-1.7-1-2.8-1.1l.3.3.7.4 1.3.7q.2.2.5.1zm53.2-47.4-.3-.2h-2.4l-.1.1.1.3h2.6zm-4.1 48.1v.1q.8.1 1.5-.3.5-.3.5-1zM71.5 58.2q.3.3.6.2l.2-1.6-.1-.2-.5-.1zm21.8-31.8c-1.2-.1-2.5 0-2.8.1q.3.3.5.3h2.2zM49.1 53.7l-.1-.1-2.8 1.1c.8.3 2.1-.2 2.9-1m41.3-23.6.8.3q1 .1 2.1-.1l-.1-.3H91zM57.1 61.6l-.9 1.8q.3.3.6 0l.5-1.3q.2-.3-.2-.5M107 44.2l-.3-.3h-1.2l-.1.7 1.3-.1zm-39.3 6.2.4-.2.3-.5.5-1.1q-.2-.2-.5-.1l-.5 1.2zm25.6-25.9-1.1.1h-1.6l-.1.1v.2h2.8zm-20 43.2q.8 1 1.2 2l.3-.2c-.4-.6-.5-1.2-1.1-1.5q.2-.3-.2-.5zM40 53.6v-.1l-.8-.2-.9-.1q-.4-.1-.8 0 1.2.8 2.5.4m-2.4 21.5q1 .7 2.2 1c-.3-.4-1.4-1-2.2-1m2.6 3.2q-1-1-2-.8c.5.6 1.2.6 1.8.9zm46.2-14.6q1 0 1.8-.5.5-.1.7-.7zM70 46.6l-.5-.2-.8 1.3.6.2q0-.9.7-1.3M38.9 78.9q-.8-.5-1.8-.6l.1.2 1.7.9h.2zM69.7 76l-.1-1.3q0-.4-.4-.4V76zm-29.9-4.1.2-.4-1.5-.7-.2.1.3.3zm8.3-23.6-.7.1q-.8.3-1.4.8 1.4 0 2.1-.9m-4.5 5.4q.4.2.7 0 .8-.1 1.4-.6l.2-.3zm28.5.4-.2.3.3.3q-.3.1-.2.4h.5l.2-1zM37.4 26.7c.2-.4-.1-.7-.1-1.1l-.5-.1.1 1.1zm-3-2.1q1 .8 1.8.6l-.1-.1-1.5-.7h-.2v.1q-.1 0 0 .1m11 27.1h-.2l-1.6.6.4.1c1.1-.3 1.1-.3 1.4-.7m29.9-3.9-.4-.1-.5.8q.2.3.6.2l.1-.4-.2-.1.4-.2zM44.4 59.3q.4.3.7 0 .8-.1 1.2-.7h-.1zm1.8 12.6H46l-1.5.5-.4.3q1.2-.2 2.1-.8m3-15.4-1.9.9q1.5 0 1.9-.9m-3 3.3-1.8.9-.2.2q.7 0 1.3-.4.5-.1.7-.7M34.4 46.1q.8.8 2 .6-1-.6-2-.6m2.8 27.4 1.5.7h.2q-.1-.5-.5-.6-.7-.2-1.2-.1m36-22.5-.3.7.5.1.2-.2-.1-.3.3-.4zm-24 9.5-1.7.7.2.1.9-.2q.4 0 .6-.6m17.7 7.8-.7-1.5q0-.2-.3-.2.3 1.4 1 1.7m-27-3-.7-.4q-.4-.2-.9-.1.8.6 1.6.5M80.7 60c0 .7.6 1.7 1.2 2zm-13.8 6.9v.2l.8 1.4q.1-.3 0-.4l-.4-.8q0-.4-.4-.4m4.8-10.6h.5l.3-.8h-.6zm31.8-10.7-1.2-.4q.3.5 1.2.9zm-.2 3.9-.4 1 .4.3q.3-.6 0-1.3M68.2 67.4q.2.9.8 1.6v-.5q-.3-.8-.8-1.1m31.5-27.2-.8.2q-.3 0-.6.4l1.6-.4zM47.4 26.4v-.8l-.3-.3-.2.2v.9zm-9.5-.7v.9q.2.3.5.1l-.1-1zm14.3 46.2-.8.2v.4l1.3-.4zm-5.5-15.7q1.2.2 1.6-.7l-1.1.5zm3.2 14.4q.7-.3 1.2-.9h-.5q-.6.2-.7.9m-7.6-43.7.1-.5-.1-.4-.2-.1q-.3.6 0 1zm8.6 45.7q-.6-.6-1-.1 0 .3.3.4.4 0 .7-.3m-4.2-.2q1 .2 1.6-.4-.9-.2-1.6.4m1.6-21.5q.6 0 .9-.3t.2-.5q-.7.1-1.1.8m54.7 1.5.4-.4-.2-.8-.4.2zM48.8 64.9q1 .2 1.6-.6-.8 0-1.6.6m2.1-11.6q-.7 0-1.3.5.3.2.6 0 .5 0 .7-.5m-1.5-9.1q-1 .4-1.4 1 .7 0 1.4-1M65 58.8v.7q.1.3.4.2v-.8zm3.2 11.8.2.3.9.9.4.2q0-.3-.2-.4l-.4-.4q-.4-.5-.9-.6M43 46.5q-.6 0-1.1.4l-.1.1.2.1q.6 0 1-.6m6.9 24.8q-.8 0-1.3.6.7.2 1.3-.6m21.9 7.3q.1-.3-.2-.5l-.5.2v.5zM37.6 62.5q.6.5 1.5.6-.7-.6-1.5-.6m7.8-11.8s0 .1 0 0q.7 0 1.2-.4l.1-.2q-.9.1-1.3.6m-4.8-23.8v-.8l-.4-.1v.9zm-1.7 33.7q.3.5.9.6l.4-.2-.5-.2zm1.1-8q-.6-.6-1.3-.4.4.4 1 .5zm6.7 15.3q.7.3 1.3-.3l.1-.2zm27.2-18.7q.3.3.6.2.3-.2.1-.4l-.4-.1zM48.8 66.3q.9.2 1.2-.5-.7 0-1.2.5M44.4 55q.7.1 1.3-.4v-.2q-.7.2-1.3.6m-6.9 6.4q.8.7 1.1.4 0-.3-.3-.4zm64.9-4.1q.2.4.6.7v-1zm-34.9 7.4q-.2-.1-.4 0l.4 1 .2.2zm5.5-4.8q-.2 1 .1 2.1l.1-.1zm-26.7-8.3q.8 0 1.3-.7-.8.2-1.3.7m1.1.8q.8.1 1.4-.6-1 .1-1.4.6m23-8.7q-.3-.2-.7-.1l-.1.3.5.2q.2 0 .3-.4m1.8 34.9.6-.2q-.1-.5-.5-.5-.3.2-.1.7m-17-9.1q-.1.8.4 1.1.2-.8-.4-1.1m48.4-27.1-1.3-.3 1.3.7zm-33 29.7-.7-.8q-.2-.4-.7-.7a4 4 0 0 0 1.4 1.5m-28.1 2.2L44 74l.2-.1-.1-.1zm57.2-33q-.6-.2-.9.4.2.3.5.2zM34.6 31.1q.9.8 1.8.5zm39.5 46.5q-.1.8.4 1.2.2-.9-.4-1.2M36.7 54.3c.1.4.8.8 1 .6v-.2q-.4-.4-1-.4m12 8.2q1.1.2 1.2-.7zM97.2 40q1 .1 1.1-.5-.6.1-1.1.5m-53-13.2v-.4q0-.3-.4-.4v1zm-.6 16.9q-.4.2-.2.6.6 0 .7-.5zm6.3 13q.6 0 1-.6-.8-.2-1 .6M66.7 50l.3-.2.1-.1-.2-.3h-.3l-.2.3v.1zm36 18.9q-.2-.3-.4-.2h-.6v.2q.6.3 1 0m-52.9-8q1-.2 1.1-.9l-.4.2zm24.4-10.8q.3-.1.2-.4l-.5-.1-.3.3zM51.8 71q.6 0 1-.3-.6-.4-1 .3M39.1 26.8l-.1-.9-.3-.2v1.1zm36.4 20.7.5-.7q-.4-.3-.7.1zM36.3 69.6l-1.1-.8.3.6q.3.3.8.2M49 55.8q.7-.1.9-.8l-1.1.7zM41.2 26q-.2.3-.1.7l.4.3q0-.6-.3-1m10.2 44q.6 0 .8-.6-.7 0-.8.6m15-19.9-.3.2q0 .4.7.3l.1-.3q-.2-.2-.5-.2M34.2 70.8q.8.7 1.3.9-.6-.9-1.3-.9m10.7-24.6q.5-.1.7-.5-.8-.2-.7.5m55.1 0q.6-.3.7-.8-.7.2-.8.6zm2.9-5 .7.7.1-.6h-.4zM48.6 53.1q1-.1 1.1-.5-1 0-1.1.5m38.5 7.7q1-.2 1.3-1.1zM33.8 48.9q.5.6 1.2.4-.5-.5-1.2-.4m31.3 6.3v.5l.5.2.1-.5zm-22.6.9q.7.2 1-.4-.6 0-1 .4M74.1 44l-.6.5.2.3.6-.7zm19.2-20.5h-.5v.5h.5zM38.1 56.4q-.4-.5-1.1-.4c.4.4.4.4 1.1.4m5-30.3q-.3.4-.1.9l.3-.1zm57.6 16.1q-.3-.1-.6.1l-.5.4q.6 0 1.1-.5M50.8 71l-.4.5q.6 0 1-.3zm-11.6-3.5q.3.4.9.6v-.3q-.5-.3-.9-.3m45.9 3.4q-.6-.4-1.4-.6.5.6 1.4.6m-34.2 2.6q.6.2 1-.1c-.2-.3-.4-.1-.6-.2zm23.2-23.2-.7-.1-.1.3.4.1q.3 0 .4-.3m-28.4 5.6-1.2.7q.9 0 1.2-.7m21.5-8.3v.3l.5.1q.3-.1.2-.5zM36.6 63.3l.4-.1q-.4-.5-.9-.3.3.4.5.4m64.7 5.7q-.6-.4-.9.2zm-50.7-7q.8.1.8-.6-.5.2-.8.6m-2.3-2.2-1.2.5q.9.1 1.2-.5m-12.2 1q-.5-.5-1.1-.4.4.4 1.1.4m13.6-3q-.7 0-1 .6.7 0 1-.6m-2.4 8.8q.6 0 1-.5zm-8.5-7.4q.4.8 1 .3zM49 76.4q.7 0 1.1-.4-.6-.2-1.1.4m-5.1-31.2q.4.1.7-.2v-.2h-.5zm-6 12.4q.3.5 1 .4-.4-.4-1-.4m9.2 4.6q-.4-.2-1 .4.6.2 1-.4m18.6-5.9q-.4-.3-.8 0l.6.3zm37.9-11.9q-.1-.2-.4-.1l-.1.4q.2.2.3.1.2 0 .2-.4m-36.4 3.7q-.2 0-.3.3.3.3.7.1 0-.3-.4-.4m-1.4 5.4q-.2-.3-.5-.1l-.1.3q.4.3.6.1zm-16.9-4q.8 0 .8-.4h-.4zm54.1 5.4q-.2-.4-.5-.2c-.3.2-.3.1-.4.5zm.5-11.1q.2-.3.1-.7h-.6zm-37.9 8.3.1.2.5.1.2-.2-.3-.3q-.3 0-.5.2M37.2 76.2q.5.4 1.2.5-.6-.5-1.2-.5m2.1-7.5q.1.5.8.5-.2-.5-.8-.5m26.6-17.4-.2.3.5.2.3-.4zM37 74.3a1 1 0 0 0-.8-.4l-.1.1q.3.5.9.3m8.6-16.7q.6.3 1-.4zm4.3-7.7.2.3.5-.2-.1-.4zm15 7.2q.6.3.7-.1l-.6-.3zm-15.6 6.5q-.4-.1-.8.2l-.2.2q.6 0 1-.4M31.9 51.9l.3.2.2.1-.4-.9q-.2.1-.1.6m4 24.9c.5.4.5.4 1 .5q-.4-.6-1-.5m7.5 2.3-1 .4q.6.2 1-.4M40.2 28q-.3.4-.1.7h.4zm3.3 19.5q-.5 0-.8.4.6.1 1-.3zm25 .5q0 .3.3.4l.2-.1V48zM49 74.9q.6.2 1 0-.4-.4-1 0m15.3-18.4h-.5l.1.5h.4zm3.5-5.4h-.4l-.2.3.5.2zm30.4 18.6.3.1q.4 0 .6-.4h-.6zM46.4 26.5l-.1-.8-.2.2.1.7zM38.1 32q.8.2 1.5.1-.5-.3-1.5-.1m27.6 22h-.4v.3l.4.1.1-.3zM49.9 73.6c-.1.2-.4 0-.5.3q.4.3.9-.1v-.1zm52.4-6.7q.3-.2.4-.7-.3 0-.5.2v.3zM43.5 46.6q.7 0 .7-.6-.5 0-.7.6M67.3 49q-.4-.3-.7-.2l.1.4.4.1zm-27.4-.4q-.4-.3-1-.1.4.6 1 .1m2.7 1.6q.6.1 1-.4-.6 0-1 .4M65.5 53h.5l.2-.2-.4-.2h-.2zM44.3 28.1v.6q.3.1.4-.1l-.2-.4zm27 19 .5.3.3-.3-.3-.3zm-3.2.1q-.2-.3-.5-.2l-.1.2q.2.3.6.2zm-21.9-.5q-.5.1-.9.4l.8-.1zm-6.7-20.8v.7l.1.1h.1q.2-.4-.2-.8m6.6 44.9q-.7 0-.9.5.6 0 .9-.5m2.3-21.2q-.2 0 0 0l-.8.2v.1h.5zm16.8 11.6h.4v-.5l-.4-.1zm7.7-15.6q-.1-.3-.4-.3l-.2.2.1.1.3.2zM47 76.7q.8.1 1-.3h-.7q0 .2-.3.3m20.5-30.9h-.3l-.2.5.2.1zM51.3 74.2c-.5-.1-.5-.1-.9.1q.4.3.9-.1m50-30.7h-.8l-.2.3q.6 0 1-.3m-66 4.9q-.4-.3-1-.4-.2-.2-.3 0 .6.4 1.3.4M50.8 55q.3-.2.4-.6-.6.1-.8.6zm-4.3-7.2q.7 0 .7-.4-.5 0-.7.4m1.2 21.3-.8.4q.7.2.8-.4m1.4 8.5a1 1 0 0 0-1.1-.1q.6.3 1.1.1m-13.8-9.7q.3.3.7.1l-.7-.5zM43.9 51q-.6-.1-.8.4.5 0 .8-.4m22-.1q.3.3.6.2l.1-.2-.5-.2zm34.2-6.4-.8.3.4.2q.4-.1.4-.5M38.5 63.9l1 .4-.4-.4zm-1.2 4.4q.3.6.9.6-.4-.5-.9-.6m6.1-9.2q-.5 0-.8.4h.5q.2 0 .3-.4m27.7 16.5q0-.3-.2-.4-.3.3 0 .7zm-22.4-1.3q-.4-.2-.9.2l.2.1zm-2.6-28.6q.5 0 .7-.4-.3-.1-.6.1zm1.1 24.8q.6 0 .7-.4-.4 0-.7.4m-.1-40.6v.1l.7-.1q.4 0 .7-.3zM42.4 49q-.7 0-.8.4.6.2.8-.4M67 52.2q.4.1.6-.2-.2-.3-.5-.1zm35.5 10.7-.2.3.3.3q.3-.2.2-.5zm-54.2 7.7v.2l.9-.3v-.2zm55.4-31q0-.4-.6-.4l.3.4zm-60.2 5.6q-.7-.1-.8.4.5 0 .8-.4m48.4-21.7q-.1.4.2.6.3-.2.1-.4 0-.3-.3-.2M44.8 62.6q-.7 0-1.1.4.6 0 1.1-.4m1.5 1.9h.5l.3-.5zm20.1.2-.4-.1q-.1.5.4.6zm35.1 3.2q.3.3.7.2l.1-.1-.3-.2q-.2-.1-.5.1m-62.1 6.9q.3.6.8.2-.4-.3-.8-.2m6.2-48.2v-.8h-.3v.5zm-2.5 2.1-.2-.6q-.3.2-.3.6zm60.6 9.9.1-.5q-.3-.1-.5.2zm-5.2 3.3-.2-.3-.3.2q-.1.3.1.3t.4-.2M35 44.7q0-.3-.4-.5l-.1.2-.1.2zm9.8 2.4-.8.4.4.1q.4-.2.4-.5m.9 1.2.3-.5-.7.4v.1zm31.8 0 .5.3.2-.3q-.4-.4-.7 0m-9.8 2.1-.4.4.2.1.2.1.2-.3q0-.2-.2-.3m-.5 2.7-.4-.1q-.2.2-.1.4.5 0 .5-.3M47.9 78.8q.4.6.9.1zm-3-29.2q.6-.1.8-.5-.5 0-.8.5m-7.6 30.2 1 .5q-.2-.4-.5-.6zM65 58.1q0 .5.5.3l.1-.2zM36.3 62q-.3-.4-.8-.5v.2l.5.3zm1.6-2.9q-.2-.4-.6-.3l.4.5zm29.2 5.2q.5-.3 0-.5-.3 0-.3.2zm5.2-10.9.3.4.3-.2v-.2zM41.7 28.3q-.2.5.2.5l.1-.1v-.4zm23.9 26.3q-.3 0-.4.2v.2h.4l.1-.2zm37.6-14.1q.2.3.5.3 0-.5-.2-.5zM49.9 67.4l.4-.4q-.5 0-.7.3v.1zm25 10.2.2 1.2q.3-.6-.2-1.2m-9.4-20-.3-.1-.2.4h.7zM48.1 46.3l1-.5q-.6 0-1 .5m-1.8-1.9q-.6-.2-.9.4zm22.9-.9-.2-.1h-.1l-.4.2q.4.2.7-.1m-1.5 3.2.4.1.2-.3-.4-.1-.1.1zM98.6 44q.3.3.6-.1-.3-.3-.6.1M73 52.6l.3-.3-.4-.1-.1.2zM35.7 70.7q.3.4.9.5zm63.9-32.2q-.6-.2-.8.3zm2.4 8.3q-.4.1-.7.5h.4zm-2.5 23.5c.2-.2.6 0 .9-.3l-1.2.1zM63.9 55.5q.3.1.5-.1 0-.2-.3-.3zm38.6 4.5h-.5l-.2.3q.4.1.7-.3m-54.8-1.1.3-.5-.7.4v.1zm-1.4 7.5-.7.3v.1h.3zM64.6 54q0-.3-.3-.4-.2.1-.1.4zm-22.1 3.5q.5.2.7-.3-.5 0-.7.3m-7.7-10.3q-.4-.4-1-.4.4.4 1 .4m32 7.6.2-.3h-.6v.2zm11-5.9q-.4-.1-.7.1.4.5.7-.1m-10.1-3.4.3-.3-.4-.1-.3.4zm5.4 7.6v-.3q-.4 0-.7.3zm28.4-12-.8.1q.4.5.8-.1M36.8 70.3q.4.5.8.5zm30.1-16.2q.3-.1.1-.4h-.4v.2zm34.8 0q.5 0 .8-.3l-.3-.2zm-33.5-9.8q.4.1.5-.3v-.1h-.4zm31.2 23.1q.1.3.4.1.2-.1.1-.4-.4 0-.5.3m-1-24.1.1-.3q-.5 0-.5.3zm-52.2 30q-.8 0-.9.3.6 0 .9-.3M41 28.2q-.3.1-.1.4.2.2.3.1 0-.3-.2-.5m5.4 46.7q.5.1.8-.2-.5-.2-.8.2M34.9 45.3q0 .2 0 0 .4.4 1 .3zm65.7 22q.5-.2 0-.5-.3.3 0 .5m-34.5-3.6q-.3-.5-.5-.3v.3zm-.8-14.2q.4 0 .6-.3h-.4zm.2 11v-.4l-.3-.1q-.1.3.1.5zm1.1-4h-.3q0 .3.2.4.3-.1.1-.4m-2.1-.3-.2-.3q-.3-.1-.3.2t.5.1m-.6 1.9q.4 0 .4-.2l-.3-.2q-.2.2-.1.4m38.6 2.8.5.1-.1-.3h-.3zm-24.8-4.7c-.3.3-.1.7-.2 1q.3-.4.2-1m-11.5 1.7q.3.5.5 0-.3-.3-.5 0m-29.5.9q.2-.1-.1-.3h-.4zm5.6-14.4q.4 0 .5-.2-.4-.3-.5-.1zm30.2 18.9q-.3-.2-.6-.1 0 .3.4.4zM45 74.8c-.5-.1-.5-.1-.9.2q.5.1.9-.2m3-9.8q-.4 0-.7.2v.1h.4zm54.8-9.2q0 .4.3.4l.1-.6zm-63.7-.6q-.3-.3-.7-.2l.5.3zm5.8-11.5q.4.1.7-.2H45l-.1.1zm56.4 18q.5 0 .5-.5-.4.2-.5.5M66.1 48.3q.3-.1.2-.4H66l-.1.2zM93.8 32q-.4-.3-.9-.2.3.3.9.2M71.5 59.4l.3.2.2-.2q-.2-.4-.5 0m.6.7V60q-.2-.2-.6-.1l.2.3zm9.4-21.8c.4.2.4.2 1 0zm-12 4.4q-.3 0-.4.2.1.2.3.1.3 0 .1-.3M34.8 66l.5.4h.2q-.2-.4-.7-.4m5 14.9q.1-.3-.1-.5t-.4.1zm59.8-14.7.4.1.4-.4zm2.4-21.8-.4-.1-.3.3q.4 0 .7-.2M72.1 58.8l-.2-.2q-.2 0-.3.3l.3.1zm-5.2-6.1.5-.1q-.2-.3-.5-.1zm-.7 5.7.1.3h.3l.2-.3zm-27.4-8.2.7.2q-.3-.3-.7-.2m30.4 19q.1.4.5.7-.2-.5-.5-.7m13-6.7q.2.5.6.5-.2-.5-.6-.5M66 48.5l-.3.1-.1.3q.5 0 .4-.4m6.2 14.3q.1-.3-.2-.4l-.3.2q.3.3.5.2M39.1 28.3q-.1.3.2.4.3-.1.1-.4zM64 57.7l.3-.2q0-.3-.4-.2l-.1.3zm-14.5-9.8.7-.4.1-.1q-.5 0-.8.5m52.9 17q-.5 0-.5.2l.2.2zm-.2-17q-.4 0-.4.4l.6-.3zm-35.8 7.8-.1.3q.3.3.4 0l-.1-.2zm30.9-12.3.1-.3q-.3 0-.5.3zM37.6 64.7q-.2-.4-.5-.3l-.1.1zm9.8-1.6-.5.2v.2q.5 0 .5-.4m-3-14.6q-.6 0-.7.3.4 0 .7-.3m20.4 3.8h-.2l-.1.3.4.1zm-15.4-.5.5-.3.1-.3c-.3.3-.6.2-.6.6m17.3-4.4q-.5-.2-.5.2.3.1.5-.2m34.3-.7.5-.6q-.3 0-.5.2zm1.9 12.4v-.5l-.3.2q0 .3.3.3M66.4 46.9l.4.2.2-.2-.3-.1zm35.5-4.3q-.6-.2-.6.2.2.1.6-.2M35.6 75q.3.4.7.4-.3-.3-.7-.4m66.5-16v-.2q-.3 0-.4.3l.1.1zm-34-14.7-.3.5.5-.1zM45.2 77.4l.7-.3-.8.1zm-8.1-8q0-.1 0 0l-.3-.5h-.4zm-5.3-27.5q-.2-.3-.7-.4l.3.4zm16.9 1.6q-.5-.1-.8.4.5-.1.8-.4m52.7 20.2v.3l.5-.2zm-37.2-9.5-.1.3.1.2.3-.1zm38.4-15.5h-.5q.3.3.5.2zM66.7 66.2q.1-.6-.4-.5zm-27.3 3.7.6.4q0-.5-.6-.4m25.8-18.7L65 51q-.3.1-.1.4zm-14.3 7.6.3.1q.3-.1.2-.4zm13.3.1.1-.3-.3-.1q-.1.3.2.4m-.3 1 .2.3q.3-.3.2-.4zM35.3 25.7q0 .3.3.5.1-.3-.1-.5zm3.6 23.6q.2.3.5.2l.1-.2zm4.5 26.2-.7.1q.4.3.7-.1m5.8-8.1q-.6-.2-.6.2.4 0 .6-.2m-4.5-2q-.5 0-.9.3zm20.6-3.8q0 .3.2.4l.2-.1-.1-.3zm11-11.2.2.2.3-.2-.2-.2zM50 63.1q.5 0 .5-.3-.2 0-.5.3M73.3 67H73l.3.5.2-.1zm-21.5-3.3-.3.5q.3 0 .5-.3zm12.9-10.5-.3-.2-.2.3.2.2zm1.7 8.5q.2.4.4.2v-.2zM30.2 40.1q.2.3.6.3-.3-.3-.6-.3m69.4 7.2.3-.3-.1-.1-.3.2zm-33.1 8.2.3-.2v-.1h-.4zm.2 4.3-.4.1q.3.4.4.2zm34.3-12q-.4.1-.5.4.3.1.5-.4M38.2 60.5q-.2-.2-.5-.1l.5.3zm33.5.8q0 .3.3.2h.1v-.2q-.3-.1-.4 0m30 5.6-.2-.4-.1.5zm-.4-16.6.3-.3v-.1l-.6.2zM99.5 46l-.1-.1-.4.2.1.3zM66.3 57.6l.4-.3-.4-.1zm-29.8-.4q0 .2.4.3.1-.5-.4-.3m28.1 6.1q0 .4.4.2-.1-.5-.4-.2m20.5 6.8q-.3-.2-.7-.2.4.3.7.2m16.7-.3h-.8c.2.1.2.1.8 0m-.4-4.8q.2 0 .2-.3h-.4zm-58-36.8.2.5q.3-.3-.2-.5m4.5-1.9.3-.1.1-.1-.3-.2zm18.8 35V61h-.4l.1.3zm-16.5 7.5q-.3 0-.5.4zm16.3-6.5v.1l.4.2v-.3q-.3-.1-.4 0m-20.4-.8q.3 0 .7-.3-.6 0-.7.3m21.5 8.3.4.5q.1-.4-.4-.5m-15-.3.2-.2.1-.2zm-2.9-45.3-.5.4.1.1q.4 0 .4-.5M35.1 77.3q.3.4.6.4-.1-.4-.6-.4m67.4-28.1-.1-.1-.4.1.1.1zM65.8 64l.4.2V64zm-14.9 4.8q.6 0 .5-.4-.3 0-.5.4m-15.6-4 .5.3q0-.5-.5-.3m64.7 3.3q-.1.3.1.4.2-.1.1-.4zM78 47.6q.3.1.5-.1l-.3-.2zm21.6-8.2.6-.2q-.4 0-.6.2M47.1 79.2l-.4-.2-.3.2zm4.6-29.7q-.2-.1-.5.1v.3zm14.6 9.6.1.4.4-.2zm2.4 11 .4.4q0-.5-.4-.4m22-46.1v-.4l-.2.1q-.1.1.2.3M51.3 75.6l-.3-.2-.2.2zm49.8-36.5q-.2-.2-.3-.1l-.1.1.3.2zM35.4 73q.2.2.5.1zm41-21.8-.2-.2-.4.2zm-28.1 18q.3-.1.4-.5-.3.2-.4.5M39.5 77v.2l.4-.1-.1-.1zm25.7-26.8.4-.3h-.5zm-14.4 2q-.3-.1-.4.1l-.1.2zm-5 17.4-.6.3q.5 0 .6-.3m2.2 3.9q-.5 0-.5.2zm3.9-13.7q-.2 0-.4.3.5 0 .4-.3m13.3-9.4-.3.3h.4zm-28 15.3q-.3-.4-.6-.3zm34.4-5q.3.3.4 0-.1-.1-.4 0m-26.9-34 .2-.4-.2-.3zm32.5 23h-.5q.3.2.5.1zm25.5 3.6h.4l.2-.2q-.4 0-.6.2M51 57.5q-.4 0-.4.4.3 0 .4-.4m14.4 4.7v.1q.1.1.4 0l-.2-.1zM36 59.8q.1.3.4.1-.2-.3-.4-.1m.7 7.7-.5-.3q.1.5.5.3M64 59.2l.1.3.2-.2zq.1-.1-.1 0m20.3-20.8q-.2-.3-.5 0zM50.8 76.7h-.4q.2.3.4 0m17-10.8q0 .3.2.5zm4.2-4-.3.2.5.1zm7.2 9.4q-.2-.3-.6-.4.2.3.6.4M40 55.1q-.2-.3-.4-.1zm2.3.1q.2 0 .4-.3-.3 0-.4.3m-7 2.9v-.3q-.2-.1-.3.1zm-1.1-8s0 .1 0 0q.1.3.4.2zM64 60.6l.3.3v-.2l-.1-.2h-.1zM51.8 50.5q.5 0 .4-.3zm-18.9-8.3q0 .3.4.2zm19.4 24.9.4-.2q-.4 0-.4.2m43.8-13q-.1.3.1.5zM38.2 70l-.4-.2v.1zm64.2-29.2-.2.2h.4zm-37.5 11h-.3l-.1.1q.3.2.4-.1m-26.6-.6q.3.3.5.1l-.2-.1zm62.4-2q.3 0 .4-.2-.3 0-.4.2M66.5 60.7q.1 0 0 0l-.1-.3-.2.1zM45.9 74.5v-.2l-.3.1v.1zm-9.6-48.1h.1q0-.2-.2-.3zM102 62.5l-.2-.2-.1.1v.1zm-1.6 2.5v.4l.3-.3zm-1.6-20s0-.1 0 0l-.3.1.2.1zM72.9 65.8l-.3.1.4.1zm27.9.3q.2.1.3-.2v-.1zM39.3 44.3q0 .2 0 0l.5.1v-.1zm4.4 23.9q.3 0 .4-.3zm28 7-.2.3.2.3zm29.6-7.2-.3.1q.3.1.3-.1M32.4 43.2l.1-.1-.4-.2v.1zm71.1-5.8q.3.2.4-.2zM38.3 52.1h-.4l.3.2zm34.8 14.5v-.3zm-8.8-4.9h.4l-.3-.2zm-11.9.7-.2.2zm42.8-30.7-.3.2h.4zm6.1 20 .1.1.2-.2v-.1q-.1.3-.3.2M65.2 65l.2.3.1-.1zM42.8 76.9q.4 0 .3-.2zm59.6-24.5-.3.2.4-.1zm-54.1 23q-.3-.2-.5.1zm4.1-.6-.3.2h.4zM98.1 44l-.3.2v.1h.2zM65 64.2l-.2-.4zm4.9 8q0 .3.4.3zm2.6-7h.3q-.2-.3-.3 0m18.3-10.9-.1-.4q-.2.2.1.4m-40.5 24 .4-.2q-.3-.1-.4.2m-10.7.8.3.3q0-.4-.3-.3m27.9-9.8-.4-.3zM50.1 49.1l.3-.2v-.1l-.2.1zm49.3 19.4q-.3-.2-.3.1zm-29.3 7.3q.2 0 0 0 .2-.1 0-.3H70zm4.9-6 .1.1zm3.7-31.5h.3zM34.2 57.5q0 .3.2.2zm41.3 13.2-.1-.2zm-35.6-7.9q-.1 0 0 0l.1.2zm-.2-15.9h-.2v.1zm-.9 19.4v-.2h-.2zm26.8-3.4.2.2q0-.4-.2-.2m9.8 11.8-.2-.1v.1zM35.9 57l-.1-.2v.1zm12.9-32.2h.3v-.1zm50.1 42.7q-.3 0-.2.2zm-3-27q.3 0 .1-.2zm-53 37.9-.2-.1h-.1v.1zm33-25.8-.2-.1h-.1v.1zm-33.3.3h-.2v.1zm9.9-4-.2.2q.3 0 .2-.2m-15.8 4.3q-.1 0 0 0l.1.2zm61.1 10.9q.2 0 0 0v-.2zM45.4 28.2q-.2 0 0 0v.2zm2.8 18.9H48zm50.4 15.1q-.1 0 0 0v.2q-.1-.1 0-.2m-27.2-14h-.2v.1zM51.6 52q.2 0 0 0v-.1h-.1zm45.7-9.9q0 .2 0 0h.2V42zm4.4 10.9v.2zm-59.3 5.5s.1 0 0 0v-.1h-.1zm-2.5-.8h.2v-.1zm57-16.6.2.1zM43.6 71.3h-.2v.1zm-3.9-25.4h-.2v.1zm36.3.4h-.2v.1zm26.3-2.4s0-.1 0 0M76 51.8q-.1 0 0 0-.1 0 0 0-.1 0 0 0M52.5 68.2s-.1 0 0 0q0 .2 0 0m46.2-6.5s0 .1 0 0m-31.9 1.1q0 .2 0 0 0 .2 0 0 .2.2 0 0m30.7 2s0-.1 0 0M67 63.5q0-.1 0 0-.1-.1 0 0-.1 0 0 0m34.9 2.4s.1 0 0 0q.2 0 0 0 .2 0 0 0m-50.1.3s-.1 0 0 0m42.7-14.4q-.1 0 0 0-.1 0 0 0M35 56.5q0 .2 0 0 0 .2 0 0 0 .2 0 0m17.2 8.7q.2 0 0 0m50.5 2.5q.2 0 0 0 .2-.1 0 0 0-.1 0 0m-.3-3.2"/><path d="m61.1 37.3.1.3-.1 1-.8 3.3-.3 1.7-.6 3.6-.2.8v-.6l.2-1.1.2-1.7.2-1.2.3-1.3.5-2.5.2-.9.1-.9q-.1-.3.2-.5"/><path d="m63.5 21.4.9-.2.1-.3q1-.4 1.9.2h2.7-.5l-.3.1-1.4.1-1.2.2h-2.2z"/><path d="M62.7 22.5q-2.3-.3-4.7-1.2.9-.1 1.4.1l2.7.7z"/><path d="m62 23.5-2.7-.6-2.6-.7c.4-.3 4.5.7 5.3 1.3"/><path d="m58.6 47.4-.1-.1.4-2.2h.1z"/><path d="m88.9 36.6-.4-1.7.2.2q.3.8.3 1.5z"/><path d="m89.6 36.6-.3-1.5h.1q.3.8.2 1.5"/><path d="M54.8 27.8v.1s-.1-.1 0-.1"/><path d="m87.3 23.7.4.2.4.5.1.7-.1 3.6q0 .7-.7.8l-.7.1-2.5.1-2.5.2-2.5.2-1 .1-.9.1-.5-.2q-.4-.6-.3-1.2v-.4l.1-3 .1-.6q.2-.5.8-.5l1.6-.2h.5l1.1-.1L83 24l1.5-.1 1.6-.1zm.2 5.1-1.2.1-2.5.2-1.5.1-1.4.1-2.3.1-1.5.1q.1.3.3.3l2.3-.1 2.2-.2 2-.1 1.7-.1 1.7-.2zm-2.6-.3.1-.1.1-2v-1.7l-.2-.2-.1.2-.1 1.6V28q0 .3.2.5m-4.7.2q.3-.2.2-.3v-1.3l.1-1.9-.1-.3a8 8 0 0 0-.2 3.8m-.8-3.7-.1.9v2.5l.1.3.2-.2q.1-1.7-.2-3.5m3.8 3.3c.4-1.1.2-2.3.2-3.4l-.3-.2zm-.8.2q.1.2 0 0l.2-.1.1-1.1v-2.4l-.2-.2-.1 1.5zm1.6-4v.8l-.1.7v1.2l-.1 1.1.1.3q.3-.1.2-.4v-2l.1-.5q.1-.6-.2-1.2m-2.9.5-.1 1.2v1.4l-.1.9.3.1zm.7 2.3q.3-1.7 0-2.4zM78.7 25s-.1 0 0 0l-.1 2.2v.2l.1-.1zm6.9-.4v2.3z"/><path d="M76.1 25.1q.2 1.2.1 2.2l-.1.7-.2 1.7q-.2 1-1.2 1l-.9.1-.9.1h-.1l-1.7.1-2.1.2-2.5.2h-.2q-.8.2-1.2-.7l-.3-1v-.3l.1-2 .1-1.3q.1-.4.5-.7l.5-.2 1.1-.1 2.5-.1 1.5-.1 1.7-.1 2.3-.1q.7-.2 1 .4m-10.4 5.7.6.2 1.1-.1 2.1-.2 2.3-.2 2-.1 1-.2-.7-.1q-.7.2-1.5.2l-1.2.1-1.7.1-2.4.1-.3.1q-.6.1-1.2-.2l-.1-1.1.1-1.6v-1.7q-.4.3-.4.7V30zm9.6-1 .1-.5.1-1.1v-2.9l-.1-.1h-.2l-.1.6v1.7l-.1 1.8q0 .3.3.5m-1.9-.6q.3-.3.2-.6v-1.3l.1-1.9-.2-.2-.1.8-.1 1.9v.1q-.1.7.1 1.2m-1.5 0q.3-1.6.2-3.2l-.2-.6a10 10 0 0 0 0 3.8m-3-3.3-.1.6-.1.9-.1.9-.1.8v.6l.1-.2.2-.9.1-2.1zm1.6-.2s-.1 0 0 0l-.2.5-.1 2v.1l-.1.8q0 .3.3.4v-.2l.1-1.7zm-.8 0h-.1l-.1.2v3.6l.2-.2.1-.9v-2.3zM68 29.5l.2-1.4v-1.9l-.1-.1q-.3 1.6-.1 3.4m3.1-1q.3-1.3.1-2.8-.3 1.3-.1 2.8m1.7-3.1-.1.8v.6q-.1.5.1.9zm-5.4.6-.1.8.2.2zm-.7.5v.9z"/><path d="m75.8 22.6-.3.2h-.2l-2.4.1-1.5.1-2.6.2-1.6.2H67l.2-.2h.2l1.7-.1.8-.1.7-.1h.1l2.2-.1 2.5-.1z"/><path d="M65.5 23.5q-1 .5-1.3 1.5v-.7q.3-.6.8-.9.3-.2.5.1"/><path d="M73.5 23.9c.3.1.5-.2.8 0z"/><path d="M88.9 27.1v.2h-.1z"/><path d="M29.5 33.9h.3l1.4.5 2.8 1.1 2.3.8 2.7.8.9.1 1.7.1-.3.3h-2l-1.4-.3-4.4-1.4q-1.8-.6-3.6-1.5l-.6-.3q.4 0 .2-.2"/><path d="m30.9 33.3 2 .7q2.1.9 4.4 1.5l2 .6.4.2q-.5.4-.8.2l-1.7-.5-1.9-.6-2.7-1-1.4-.6z"/><path d="M53.3 38.4v.5q0 .6-.6.9-.3.2-.6 0-.8-.5-.4-1.3c.4-.8.8-.6 1.3-.3zm-.9.2q-.3.2-.2.5l.2.1q.3 0 .2-.3z"/><path d="m29.5 37.2 1.9.5-.1-.3-.1-.3-.5-.4-1.4-.7-.1-.1a6 6 0 0 1 2.1.8l.3.7.2.8-.2-.1-1.7-.8q-.4.2-.4-.1"/><path d="M38.1 38.6q-.2.3-.5.1l-1.7-.6-1.8-.6q-.2 0-.3-.2c.6.1 4.1 1.1 4.3 1.3"/><path d="M29.7 38.4h.2l2 1 .1.1-.5-.2-1.7-.8z"/><path d="M29.7 38.4q-.1 0 0 0"/><path d="m34.1 80.7.7.2 4.1 2.3-.9-.4q-1.8-.7-3.4-1.8-.3 0-.5-.3"/><path d="M31.8 78.2q-1.5-.6-2.7-1.8.4 0 1 .4l.9.6z"/><path d="m35.9 80.4 3.1 1.7c-.8 0-2.8-1-3.1-1.7"/><path d="M35.7 82.7q.4 0 .7.2l2.3 1.2.1.1c-.6 0-2.1-.7-3.1-1.5"/><path d="M33.9 80.6h-.2q.2-.1.2 0"/><path d="m34.1 80.7-.2-.1z"/><path d="M35.7 82.7q-.1 0 0 0-.1 0 0 0"/><path d="M91.7 34.5q.4 1.5.3 3.1h-.1l-.1-.2-.2-1.7-.1-1.1v-.2z"/><path d="M102.6 35.3q.3-.5.8-.5l.5.2z"/><path d="M103.3 33.9q.2-.1.5.1l-1 .4z"/><path d="m102.5 36.1.1-.1q.4-.2 1-.1-.2.3-1.1.2"/><path d="m103.4 33 .5.1-.6.3-.1-.1z"/><path d="M92.7 36.4q.2.4.1.8-.2-.4-.1-.8"/><path d="M101.1 72.4q.3-.5.8-.7l.5.2z"/><path d="m101.9 71 .4.2-1 .3q.2-.4.6-.5"/><path d="m102.3 72.9-1 .2q0-.3.3-.3.3-.2.7.1"/><path d="M70.4 49.6h.8l-.5 1.1-.7-.4q.1-.4.4-.7"/><path d="M68.9 59.8q.2.5-.2.6l-.3-.2v-.3z"/><path d="m70 65-.5-.2v-.2h.8z"/><path d="M69.3 62.8H69l-.2-.3.1-.1.4.1z"/><path d="m69.9 51.9-.3-.4.2-.5q.2.5.1.9"/><path d="m70.4 51.5-.2.4-.1-.2zq0-.2 0 0 0-.2 0 0"/><path d="m86.1 41 .3-.4v.6q-1.7.1-3.3.8l-.2-.5.5-.1a2 2 0 0 0 1.3-.4q.6 0 1.1-.2z"/><path d="M93 41.7q.6.4.6.8h-.3q-.6-.2-.9-.6 0-.2.6-.2"/><path d="m81.8 42.6-1.1.3-.1-.1q.1-.5.5-.6l.5-.2z"/><path d="m90 40.9.1.4q-.6-.1-1.1.1l-.2-.4q.2-.3.6-.4l.3.3z"/><path d="m79.6 43.9-.2-.3-.3.4-.1-.3.3-.2v-.2q.3-.1.6.1 0 .3-.3.5"/><path d="m90.6 40.9.2.5-.2.1-.3-.2z"/><path d="m80.1 43.4.2-.6.2.5z"/><path d="m43.8 22.8-.2.4.8.5q.1.4-.1.6-.8.4-1.7.4h-1.7q-1 0-1.9-.3l-.4-.1-1.3.1q.7-.4 1.4-.4-.3-.4-.7-.4l-1.3-.1q.7-.2 1.6-.1a3 3 0 0 0 1.6-.1l1-.2 1.5-.1.6-.1zm-.3 1.3c-.8-.7-3.2-.7-3.8 0q1.8.4 3.5.1z"/><path d="m53.9 54.7.2.1q.9.1.9 1v3.6l-.2 1.5-.1.3-.1-.3v-.5l-.2-.3-.1.3v1q-.4-.2-.3-.5l-.1-.9-.1-.2-.1.2v.4l-.2.8v-5.3l.1-.9q-.2-.1.3-.3m0 .6-.1.6.1 2.9q.1.3.6.2l.1-.7-.1-2.6-.2-.5z"/><path d="M53.7 31.2q-1 .2-2.1-.2 1-.2 2.1.2"/><path d="M52.2 32.8h1.4l-.1.1-1-.1q-.3.2-.3 0"/></svg>