<svg xmlns="http://www.w3.org/2000/svg" xml:space="preserve" viewBox="0 0 126.7 165.7"><path d="m66.7 92.8-1.1.1h-4.5l-1-.1-3.6-.2h-.7q-2.3 0-4.5-.4l-2.1-.5q-2.9-.7-5.3-2.3-2-1.4-2.2-3.8l-.5-2.9-.1-.6-.1-3.9-.1-.7-.2-2.2-.3-4.6-.3-3.6-.4-4.1-.2-3.2-.3-6.6-.4-5.8v-1.5q-.1-3.6-.5-7.3l-.2-4v-.2q-.3-2.1-.2-4.2l-.1-6.8q0-.5.3-.9a6 6 0 0 1 2.1-1.4l2.6-.9 3.4-1q2.5-.6 5.1-.7.9 0 1.5-.5l1.2-.8q.4-.3.8.1l.4.5q.2.5.7.4l2-.2 1.2-.1.9-.1 1.4-.1h1.8l2.2.1 4.1.2q2.3 0 4.6.4 2.2.2 4.3.6l2.6.6c1.1.3.8.2 1.6-.4l2.5-2.3 3.5-2.4 1-.6q1-.7 2 .2l.8.9q.4.7-.2 1.2h-.3l-.4-.2q-.9-.4-1.8 0l-1.6 1-2.1 1.5-1.7 1.4-.3.4q-.2.2.1.4l.9.4q1 .5 1.9 1.4.3.3.3.8l-.1 7-.4 7.1-.1 3.2-.2 4.9-.3 5.7v.7l-.3 7.7-.4 7.1-.3 4.9-.1 3.1-.2 3.1-.1 1.8-.3 4.2-.4 3-1 1.2q-1 1.2-2.5 1.8l-1.5.7a17 17 0 0 1-5.2 1.3l-2.8.4-3.2.4q-.6.3-1.1.2m-4.3-46.5-.4.1-.2.2v.1h.3zl.2-.1.4.3.2.1.1-.2q0-.4.4-.5.6-.1.7.3.1.2.2 0 .2-.4.5-.1l.5.3 1.1.5q.3.2.3-.2l.1-.2.4-.2.2.2.3.1.3-.1q.6-.3 1 .2l.3.1.5.1q.3 0 .5-.3t-.2-.5q-.4-.4-.9-.4l-.5-.2-.1-.2.2-.1 1.1.1q.3 0 .4-.2l.2-.1q.4.3.7.2l.2-.1-.2-.1q-.2 0-.3-.3-.3-.6-1-.9-.2 0-.1-.3l.2-.3-.3-.4-.5-.1q.3-.7 1.1-.5h.6l.2-.1-.1-.1c-.3 0-.4-.4-.7-.3l-1.9.3-.3.2-.3.1-.6-.1-.7.1q-.7 0-.2.5l.1.1-.1.2h-.2q-.4-.1-.4-.4-.2-.4-.5-.3l-1.6.1q-.7 0-.7.6v.7l.1.5-.3-.3s-.2-.1-.2 0q-.3.4-.8.4-.3 0-.5.4 0 .5.2.9l.1.1v-.2l-.1-.3q-.1-.4.2-.3t.5-.2h.2l.7.4.1.3-.2.1-.2-.1q-.3 0-.2.2zm6.1 1q.3.1.6-.1l-.5-.3h-.1q-.4 0-.3.3l-.4-.1h-.3l.2.3.5.1q.2.1.2-.2m-4 30.9-.5-.3-.1.1.1.2zl-.1.3.4-.1.3-.2.1-.2-.2-.1q-.3 0-.5.3m14.8-31.4-.1-.1-.1-.1.1.1zl-.5 1.2q-.1.5-.6.5l-.2.1.2.1q.4.1.7-.3l.3-.5.3-.6q.3-.3-.2-.5M72.4 44h.4l.2-.2q0-.3.4-.3l.3-.1.1-.2-.1-.1h-.2l-.3-.2-.3.4-.3.4q-.5 0-.2.3l-.7.3q-.2 0-.2.3t.3.2q.6-.2.6-.8m13.1-5.1-.1-.2-.1-.1.1.1zl.1.2q.3.4-.1.9l-.2.2v.7l.4-.2q.4-.3.4-.8l.1-1.5-.1-.2-.4.2q-.2.2 0 .3t-.2.2M60.4 77q-.4.3-.1.5l.6.3q.4 0 .3-.4-.2-.3-.1-.6.2-.4-.2-.2l-.1-.2q0-.5-.3-.9l-.4-.7-.1-.4v-.2h-.2l-.2.1-.4.1V74l.1-.3q.5-.6-.1-1.1l-.2-.1-.1.2.2.3.1.3c-.3.4-.1 1-.5 1.4q0 .2.3.4.2-.1.1-.2l.2-.2.5.4-.2.3q-.5.5.2.9l.2.1.1.3zm9-24.6q0-.4-.4-.4l-.3.1.1.3zl.1.3q.2.4-.1.7l-.1.1.2.1 1.9.1q1.3-.1.8-1.3l-.1-.4v-.3l-.2.1q-.4.4-.4-.1h-.2q-.6.4-1.1 0-.3-.1-.2.2.2.4 0 .6zm14 .1q0-.4-.6-.5l-.4-.2h-.3l-.1.3.1.3q.1.4.4 0l.3-.1zq.2.3.2.7l.2.2.2-.2q.1-.9.7-.2l.1.1q.3.2.5-.2l.1-.4c.3-1.4.1-2.9.3-4.4l-.1-.2-.3.1-.1.4-.1 1.3q.1.5-.4.4-.3 0-.3.2.1.4-.2.6l-.4.5q-.1.2.1.2.4 0 .3-.3 0-.3.2-.3h.4l.1.1-.1 1-.4.4-.2-.3q-.2-.3-.2 0-.1.4-.6.3m.7-6.3-.2.1q-.5.3 0 .6l.2.5q-.1.3.2.4.3.3.6.2.8-.2.9-1.2l.1-3.1.1-1.4q0-.3-.2-.5v-.2l.2-.2v-.3h-.2q-1 .4-1 1.4l-.1 1.2v.1h.2l.3-.2.2.1-.1 1.1-.2.1-.1-.1v-.1q0-.3-.3-.3-.3.2-.1.4l.4.5q.2.4-.1.4-.8-.1-.8.5m-4.8 13.2.5.8.4.4.3-.3.3-.2h.4l.1.3.1.2q.4 0 .7.5l.1.1.1-.2-.7-.9-1.4-1.7q-.3-.4.1-.6.3-.3 0-.6l-.1-.2q-.2-.6-.5-.1h-.1c-.2 0-.8-.4-.8-.6l.2-.1.2.1q.3.3.2-.1v-.1q.1-.4-.3-.4l-.4.1q-.3.4-.5-.1l-.2-.1h-1.2v-.2l-1-1q-.4-.6.2-1h.2v.2q-.3 0-.2.4l.3.2.1-.2q0-.2.2-.2t.2.2v.2q-.2.6.4.8.2.1.4 0 .2-.3-.1-.4l-.3-.2v-.8q0-.3.3-.3l.2.2.2.5.3.2.1-.3.2-.2.1-.2q0-.3.3-.4c.7-.2.7-.9.9-1.5v-.1h-.1l-.5.8-.2.3q-.2.3-.6 0c-.4-.3 0-.3.1-.4q.3-.2 0-.4l-.3-.4-.1-.3q.3-.3-.2-.4-.3-.4-.1-.6.5-.3.2-.6l.1-.4q0-.3-.2-.2l-.3.2-.1.5-.1.2-.2-.1q-.2-.3-.4-.1l-.2.1v-.2q.1-.3-.1-.5h-.1q-.2.2.1.6h.2l.2.4.2.2v.3h-.2l-.3-.2h-.3v.2l-.1.2h-1.1c-.1 0-.6-.2-.3.3l-.2.1q-.6-.1-.2.4l-.1.3-.3.3v.3l.4.5q.3.2.5.6 0 .3.3.3h.2q.2 0 .1.3l-.2.2q-.2.3.1.4l.5.3.4.4.5-.2h.2q-.2.8.2.9l.6.3.2-.1.2-.4.4.2.5.3.1.2-.2.4c-.3-.2-.6.2-.9.2l-.2.4q0 .2.3.2.3.3.7.2l.1.1-.1.1-.2.2-.1.2zm.5-23.7c-.1-.1-.2-.5-.4 0q0 .2-.2.1l-.2-.1.1.3q.5.6 1.3.6.6-.1.5.5l-.1.7q-.1.4.4.3l.5-.3q.2-.1.4 0l.1.2-.3.3-2.5 1.1-1 .3-.8.3-.1.1s.1.1.1 0q1-.2 1.9-.6l2.2-.8a9 9 0 0 0 3.4-2.1l.4-.6q.3-.3-.2-.7l-.2-.2q-.8-.7-1.7-.9-.2-.2-.5-.2l-.3.2.3.2h.1q.8 0 1.2.6l.3.2.2.6q.2.6-.3.7l-.4.1q-.1.4-.6.4-.3 0 0 .3l-.1.1c-.3-.1-.8.1-1.1-.3q-.2-.3-.6-.2l-.2-.1c0-.3-.4-.5-.3-.9q0-.4-.3-.4c-.4.4-.7.1-1 .2M40.9 42q.8 0 .3-.6l-.1-.3c.4-.6.1-1.2.1-1.7l-.1-.2-.2-.1v.2q.3.4 0 .7l-.2.4-.4-.2-.5-.5.1-.3h.3l.2.2.2.1.1-.3-.2-.5-1-.8q-.4-.3-.4.2v1.8l.3 4.7v.7q0 .9.8.9h.1q.6.1.6-.5l-.2-.6-.3-.4v-.2l.2-.1.2.1q.4.2.3-.2l.1-.2q.3-.2-.1-.3-.3-.2-.2-.3.3-.5-.2-.9v-.3q.3 0 .2-.5m21.2-5.8q.3.2.5 0l1-1v-.5l-.8-.4h-.4q-.1.2.1.4t.2.7l-.1.1-.2-.1-.4-1q-.2-.4-.7-.4h-.5q-.9.4-1.8.1-.6-.1-.5.5l.6 2.2q0 .5.6.5l.5.2.1.2-.2.1q-.4.1-.4.4l.2.6q.1.4.4.4t.4-.4c0-.4.1-.2.2-.3q.2-.3 0-.6-.1-.2.1-.3.5 0 .6-.7.7 0 .5-.7M84 63.5l-.1-.2-.2-.1-.1.1.2.1zq.2.2.1.4-.2.5-.1 1.1l-.2.4q-.4.2-.2.5.3.4-.2.7t0 .6l.2.2q.1.1 0 .4l-.2.6q0 .4-.4.1-.4-.2-.5.1l.2.3q.2.3-.1.3h-.1l-.3.2.3.1h.2l.2.1-.1.2q-.3.3-.6.1-.4-.2-.4.1-.2.3-.1.6.1.4-.3.7c-.5.4-.5.4-.3 1.1v.2h-.2q-.3-.3-.6.1c-.3.4-.1.2.1.2l.2.2-.3.1h-.5q-.3 0-.2.3l.3.5.1.2h-.3l-.5-.6-.1-.1-.1.2.1.3.3.3q.1.2-.1.2l-.3.1-.1.2.1.4q-.1.2-.4.2l-.7.2-.4.3-.3.6v.3h.3l.8-.6q2.3-1.7 4.1-4.2l.4-.6.8-1.4q.9-1.3 1-2.9l.1-.4q.4-1.6.4-3.2l-.1-.3-.3.2q-.6-.2-.7.1M55.2 24.6q.2-.2 0-.5v-.3c.2-.3-.2-.3-.2-.5l.1-.5q-.4-.3-.2-.8l-.2-.6.1-.6-.1-.4-.5-.5q-.2-.1-.5.1l-.6.2h-.2l.1-.3a2 2 0 0 1 1.2-.8q.4-.1.3-.5l-.1-.4q-.1-.5-.6-.2l-2.4 1.9-.8.6q-.7.3-1.2.8l-2.5 2.5-1.4 1.7q-.2.2-.1.4.5.4 1 .1c.5-.3.3-.2.5 0l.3.1c.2.5.6.4 1 .5l4.6.6 1.4.1q.5.1.3-.4l-.1-.3.1-.2.2.1.3.5q.2.5.6.3h.2q.6 0 .3-.6l-.2-.2q-.3-.1-.1-.3.2-.6-.1-1.3zM73 39.2q.4 0 .5.4.2.5.4.5h.2v-.2q-.5-.4-.3-1v-.2l.2.1q.4.1.2.5l.1.2.4.1.3-.1-.1-.2-.1-.2h.2l.4.3h.3l.1-.1-.2-.5-.3.1h-.1q-.4-.3-.7-.2l-.2-.1.2-.1.4-.1.1-.1-.1-.1-.3.1q-.7 0-1.2-.5-.2-.2.1-.3.2-.1 0-.2c-.6-.1-.7-.8-1.3-.8l-.7-1.3q0-.4.2-.6.3-.3-.1-.4-1.4-.4-2.7-.4l-.5.1-1.7.6q-1.4.4-2.3 1.5l-.2.2q-1 .7-1.8 1.8l-.2.4q.1.4-.1.6-.2.6-.6 1l-.2.3q-.1.3.2.3l.9-.1.9-.1q.5 0 .8.2l1.2.3q.6.3.7-.4l.2-.3.2.3.2.2q.6.2 1.2 0l1.1-.2H70q.6-.2 1.1-.1l.2-.1.3-.4.3.4.3.1.6.2q.4 0 .5-.3.2-.3-.2-.4-.3 0-.1-.3zM60.3 49.4l.3.4.1.7.2.5q.3-.2.1-.5v-.3q-.1-.8.6-1 .4-.1.1-.5l-.4-.4q-.8-.7-1.1-1.8l-.9-2.7-.3-.9q0-.4-.4-.4h-.4q-1.9 0-3.7-.4l-.9-.1q-.2 0-.2.2 0 .6-.5.4-.2-.1-.2.1l-.1.3q-.5 0-.5.4-.1.2-.4 0l.1-.2.7-.7.4-.4q.3-.3-.1-.4l-.6-.2-1.7-.1-1.8-.2-1.8-.3-1.2-.4-.5-.2q-1-.1-1.9-.5-.2-.1-.3.2v.4l.4 1.8.3 1.2.2.6.3 1.2a9 9 0 0 0 2.1 2.9c.4.4.4.4.9 0l.1-.1.1-.1v.2l-.2.2q-.5.6.2.9l.7.6.9.8 1.9 1.1q1.2.7 2.5.7.6.1.7-.5l.6-1.6 2-5.3q.1-.8.7-1.5l.1-.1.1.2v.7q0 .4-.3.4t0 .2.5.1l.5-.3v-.2q-.3.1-.4-.2v-.5l.2-.4q.3 0 .4.3t.2.2q.4.3.3.7l.1.3q.3.4.4.9l.1.4.9 1.9q.3.4-.1.6l-.1.3zq-.4-.1-.3-.5l-.1-1-.1-.3-.1.3.2 2.9.1.7.3.2.2-.2v-.7zM42.9 66q-.6.3-.1.7l.5.7q0 .4.3.2.2 0 .2.2-.2 0-.3.2l.1.1q.3 0 .2-.3l.4.1.1.2-.2.5.4.3q.1.3.5.3l.2.1-.1.2q-.5.3-.2.8l.2.3.2.3q0 .6.6.7l.5.1q.2.4-.3.6l-.2.3.4.8h.2l.1-.1-.1-.3q-.2-.3.1-.6l.1-.2.1-.2.3.2v.5h-.2q-.1.4.3.6h.2l.5.1c.2-.1-.1-.3-.1-.5s0-.2.2-.2h.2l.3-.1-.1-.2q-.3 0-.1-.3t.5-.1q.7.5 1.3 1.4.4.7 1.1.4l.2-.2-.2-.3h-.3q-.3 0-.1-.3.1-.7.8-.3.5.2.4.6v.4q0 .2.3.3.4-.1.6.1l-.4.4-.1.4.3-.2q.1-.2.3.1t-.4.6l-.2.1.2.2.4.1q.4 0 .4-.4v-.2l.1-.2.3.1q.4.3.6-.1l.1-.2h.8q.2.1.2.4 0 .2-.2.1l-.9.2-.1.1.4.7h.3l.1-.2-.1-.3.4.1.5.3v.3h-.2q-.4-.2-.4.2v.5h.1q.2-.5.8-.4.3-.1.4.1h.2l.3-.3q.1-.2.3 0 .3.4.4 0t.7-.6l.2-.3-.4-.1-.2.2q-.2.4-.6.2t-.7.2l-.3.1v-.2q.3-.7-.4-1l-.2-.2v-.2l.6-.1.2.3.4.7.4.1-.1-.3-.2-.2q-.4-.3-.1-.7.4-.5-.2-.4h-1q-.4 0-.1-.3t.1-.4l-.8-.5q-.8-.1-1.1-.8-.2-.5-.6-.2a1 1 0 0 1-1.1-.1h-.5q-.3 0-.4.3l-.2.2q-.4-.1-.7.2v.1l.2.2.1.2-.2.1-.3-.1q-.6-.5-1-1.1-.1-.5-.5-.2l-.6.7-.2.1-.1-.2v-.2q-.2-.3.2-.4l.3-.2-.4-.1h-.2q-.5.2-.5-.3-.1-.5-.4-.3c-.9-.1-.9-.1-.9-.6l-.2-.4-.3-.5-.5-1.1-.4-.5q-.3 0-.1-.3l.1-.3q0-1-.4-2l-.1-.3q.3-1-.4-1.6V63q.5-.6 0-1.1-.1-.3 0-.4.3-.9 0-1.8 0-.3-.3-.1l-.4.5-.4-.1.1-.5.6-.6q.3-.2.2-.6l-.1-1.7q0-.5-.3-.6-.2-.2-.1-.3.3-.9.2-1.8l-.2-.5.2-.5.1-1.9q0-.5-.4-.6h-.4l.2-.4v-.2h-.2q-.3.3-.3-.1l-.1-.4q0-.5-.5-.4h-.2v-.6l.2-.2.1-.2-.3-.1-.2.1q-.2.3-.5.3c-.5.2-.4.2-.6-.3q-.2-.4.2-.4t.1-.3c-.1-.1-1-.4-1.2-.3q-.3.3-.1.8v.2l.3 4.3.3 5.9.3 4.5q.1 2 .7 4 .8 3 2.6 5.6 1.6 2.4 3.9 4.2.8.7 1.9.9l.2.1c.2.6.8.6 1.3.9l1.2.5 1.9.6.5.1.5-.2.3.4h.1l2.6.4 4.6.2q3.1.1 6.1-.6l5.2-1.5q1.3-.4 2.5-1.1.4-.2.2-.6 0-.3-.3-.1c-.3.3-.5 1-1.2.7l-.3.2-.6.3-.3-.3-.2-.1q-.5 0-.5-.4t.3-.6l.1-.1q.2 0 .1-.2l-.2-.1q-.4.3-.7-.1-.2-.2-.4.1l-.4.2q-.4 0-.4.3l-.2.2-.1.1q-.1.6-.6.7-.1 0 0 .2l.2.1.3.1.1-.3.3-.4.3.3.2.2.1-.2-.1-.5-.1-.3.1-.1.2.1.1.3.3.3q.5 0 .5.5l.2.2v.3q-.2.3-.6-.1-.1-.2-.3-.1-.2 0-.1.3v.2c0 .1-.6.3-.7.2q-.3-.2-.4.1-.2.2-.3 0t-.3-.5h-.2v.1l.1.2q.1.4-.2.5t-.2-.3v-.1l-.2-.1-.1.1v.2q.1.3-.2.4t-.5.1h-.5l-.5.1-.6.1-.4.1h-1.6q-.6.2-.9-.4l-.3-.1q-.2.2 0 .3.2.4-.4.4h-.8q-.4.1-.6-.1t-.4-.1q-.4.3-.9.3-.3 0-.3-.2-.1-.4-.4-.1t-.7.1q-.1-.1-.4 0l-.7.2-.2-.1.1-.2.5-.1q.3 0 .2-.3L59 79q-.3.4-.6.1-.4-.3-.6.2l-.1.2q-.1.3-.4 0-.1-.3-.4 0t-.6 0-.7-.1l-.1-.1.1-.2.3-.1.9.1h.2q.1-.4.5-.2l.3-.2-.2-.2h-.7q-.6 0-.9-.3t-.9-.1q-.1 0 0 .2l.2.2.1.2-.1.1-.8.1c-.4.3-.3-.4-.7-.4h-.1q0-.5.5-.6.3 0 .2-.2-.1-.4.2-.5.3-.2 0-.5t-.4 0q-.3.3-.2.8l-.1.3h-.3l-.3-.3h-.2v.3l.2.4-.1.2-.3-.1-.1-.3-.1-.6-.1-.1-.1.1q0 .3-.3.3t-.5.2-.3-.1q0-.6-.2-1-.1-.5-.4-.1-.6.7-1-.2-.2-.5-.5 0t-.4 0q-.2-.5-.7-.6l-.4-.4q-.2-.3.1-.3l.3-.1-.1-.3q-.3-.4-.8-.1l-.2.2q-.2.1-.4 0l-.2-.4q.1-.3.3-.2.6.2.8-.3l.1-.2-.2-.2-.3.1q-.5.4-.9.1l-.6-.2q-.2-.1-.2-.4l-.1-.6-.4-.5q-.4-.3-.1-.7v-.6l-.3-.6q-.2-.3-.3 0t-.3 0q-.2-.4-.7-.5-.3 0-.1-.3.3-.3.2-.6l-.1-.2-.2.2-.2.2-.3-.3q-.2-.3.1-.5t.1-.5l-.1-.3q-.1-.2-.2 0l-.2.2-.4-.3.1-.1q.4-.2 0-.4l-.3-.2q-.4-.4-.2-.9l.1-.1.1.1.2.6.2.1v-.1q-.2-.1 0-.4v-.3l-.2-.2q-.9-.6 0-1.1l.1-.1V64h-.1l-.1.1h-.3v-.3q.2-.3-.3-.5l-.1-.1.1-.1c.2.1.3-.3.6-.1s.3-.3.5-.2l.2.1.4.3.4.3-.5.1-.3.2q-.2.4.1.7.4.4.7.2l.2-.1h.2v.2l-.2.1q-.4 0-.6.2l.2.6zm25.9-2.9q-.3.1-.4.4v1q.3.5-.1.9l-.2.2c.1.5-.5.8-.5 1.2q-.2.2 0 .4l-.1.1-.2-.1q-.4-.2-.2.3v.2l-.2-.1q-.2-.1-.2 0v.2q0 .4-.3.3t-.4.2q0 .2-.3.1-.3 0-.4.3h-.5q-.2.3-.5.2l-.4.4h-.2q-.2-.2-.5.1l-.3.1c-.5 0-2.2.4-2.6.6q-.4.2-.3.5 0 .7.6 1.2v.3q-.4.2-.2.5.3 1 .9 2l.3.3a6 6 0 0 0 2.5 1c.3 0 .6.3.8-.2l.2-.1q.3 0 .3.3l.1.2.6-.1 1.1-.2q.5 0 .8-.2h.2l.2.2.9-.1q.1 0 0-.2-.2-.1 0-.3l.3.1q0 .3.3.2 1-.2 1.7-.8l.3-.2 1-.2q1-.1 1.8-.8.3-.1.1-.4v-.2h.2c.3.4.5.1.8 0a9 9 0 0 0 2.6-2.6q.2-.3-.1-.4t0-.4h.1q.7-.1 1-.8l.3-.7q.4-1.1.3-2.2 0-.5-.5-.3t-.7.6q0 .5-.6.7t-.3.7v.2h-.2q-.6-.5 0-.9l.4-.2v-.1l-.1-.1h-.7q-.3 0-.1-.2l.3-.2.6.1q.3.2.3-.1.1-.6.7-.7l.5-.2V65l-.1-.1c-.5.1-1 0-1.3.6q-.2.3-.4 0t-.4-.1l-.3.2q-.4-.3-.9.1h-.1l-.9-.4v-.1l.1-.1q.6.3 1.3.1.7.1 1-.7 0-.3.3-.1l.1.1q.1.2.3-.1l.1-.2q.2-.3.5 0l.3.3.2-.1q-.3-.3.1-.4l.1-.2-.4-2.4q0-.9-.9-.5l-1.4.3c-.8.1-.8 0-.9.9l-.1.3-.2-.2-.1-.3q0-.5-.5-.5h-.2l.2-.1q.4 0 .3-.4l-.6-1.6-.1-.3v-.2h.2l.2.4.3.4q.5.2.6.6l.2.6.2.2.2-.1-.1-.2q-.2-.1-.1-.4t.4-.1.4 0 .3-.1l.1.3q0 .4.3.3h.5q.5 0 .3-.5-.2-1.1-1.2-1.9l-.5-.5q-.9-1.4-2.3-2.1l-.9-.5-2-.6-.7-.1-.6-.1q-.3-.3-.6.1h-.2q-.1-.3-.4-.1-.2.3-.5.1-.8-.1-.5.6.1.2.4.3t.1.3l-.2.2.3.1q1 0 1.8.6l1.8 1.3q.2.1.1.4t.1.6.2.7l.1.4q.3 1.2.1 2.4l-.1.1-.1-.2-.1-1.2q-.1-1.4-.7-2.6a5 5 0 0 0-2.3-2.1q-.3-.2-.4.1t-.4 0-.3-.1l-.1.2q.5.3.4.9-.4 0-.4.2t.2.5l.1.1v.2q-.3.1 0 .3.1.2 0 .2l-.1.3v.2l.1-.1q.3-.3.5.1v.2q-.4.1-.5.4-.3.3 0 .6t0 .4q-.1.2 0 .4.2.1 0 .4l-.2.6q-.2.3.2.5zm-4.1-8.5s0-.1 0 0q.1-.3-.1-.3l-.2.1zq-.1.4-.4.1t-.6-.1l-.5.3-.2.1q-.5-.2-1 0l-.9.1h-2.6l-.6.2q-.3.2-.4 0t-.3-.1l-2-.3-.3.1q-.2.3-.3-.1-.3-.6-.8-.4-.3.3-.4-.1t-.4-.1q-.3.1-.5-.1l-1.2-.6-.2.1v.2l.1.2 1 1.1.1.2-.3-.1-.6-.6-.9-.9-.1-.3q0-.5-.4-.6l-.7-.3-.8-.5q-.3-.1-.4 0-.3.3-.3-.1l-.1-.3q0-.6-.7-.6l-.2-.2q0-.4-.3-.3-.6 0-.7-.6l-.2-.4q-.2-.3-.5-.2H44l-.1-.1.1-.1.2-.1q.9-.3.2-.9L43 46.8a2 2 0 0 0-.7-1.3q-.3-.1-.2-.4t-.2-.7h-.2q.1.4-.4.6-.3.2-.1.6l.2.2v.3q-.3.3 0 .5t.4.6l.4.8.3.5q.5 1 1.6 1.3.4 0 .4.3t-.3.5l-.2.1-.5.6q-.2.3.1.4t0 .3-.3.4q.2.8.1 1.7l.1 1.4.1.4.2.1.2-.1.3.1q.1.2-.1.3l-.2.1q-.3.1-.1.4l.2.3q.3.3 0 .6-.4.4-.1.9.2.3 0 .6-.2.6.4.9c-.1.4-.5.7-.1 1.1v.2l-.1.7.1.9.4 2.1q0 .4.4.2l.2-.1h.2v.2l-.5.3v.5l.2.8.4.1h.1l.1.1-.1.1h-.2q-.3 0-.2.3l.3.6q.1.3.4.1.2-.1.2.1-.1.4.2.5.6.6 1.5.8l.4.1q1 .5 2 .5.7-.2 1.4.1l.8.1q.4 0 .7-.2.4-.1.7.2h.1l.8-.2 2.1-.5 3.4-.4.5-.1q3-.8 5.5-2.5l.1-.1q.7-.5 1-1.4l.1-.6.5-2.5a3 3 0 0 0 0-1.9q0-.3-.3-.5l-.1-.2q.3-.4.2-.9l-.1-1.4-.1-.7v-.3q.4-.6.2-1.4-.1-1.5-.7-2.9-.3-.7-1-.6-.3 0-.4.3 0 .3.5.2.5-.2.3.3v1q0 .6-.5.4-.3-.1-.4.2-.1.9-.9.8m2.7 37.3s0 .1 0 0l2-.1q2.4-.2 4.8-.7 2.7-.6 5.4-1.6a8 8 0 0 0 3-2.3q.4-.4.6-1 .5-1.2.7-2.5l.2-1.5.4-5 .2-4.1.1-3.8v-.2l-.1-.1-.1.1-.3.6q-.7 1.6-1.9 3l-2.2 2.5q-1.6 1.6-3.5 2.9-1.5 1-3.2 1.3l-3 .8q-1.4.5-2.7.7-2.1.4-4.2.2l-2.6-.2-3.6-.2-2.9-.4q-2.7-.7-4.9-2.2l-.9-.6-1.4-1-.4-.3h-.3q-.3.3-.6-.1l-.9-.9-.2-.3v-.3l.3.1.9.8h.1v-.2l-1.6-2.2a17 17 0 0 1-2.9-5.3l-.3-.9-.1-.2v.2l.1 2.2.4 5.2.2 2.3.3 3.2.1 2.3.1 1.2q.3 2 1.1 3.6c.8 1.6 1.4 1.9 2.6 2.3l1.9.8q2 .7 4 1.1l3.8.4q1.6 0 3.1.3l2.3.3h3.6zm4.8-73.2.5.1.1-.1-.1-.1h-.3l-3.1-.2-4.3-.2q-.5-.1-1.1.2l-.4.1-2.3.1-.8-.2q-.3-.3-.6 0-.5.3-1.1.2l-.3-.1q-.1-.2-.4-.2l-1.3.1-.5.1.6.1.2.1-.2.1-1.2.2q-.7 0-.5.7l.3 1.6.6 3.8.3 1.9q0 .4.4.4l2.9.2 4.7.1 1.7.1 1.2-.1 1.6-.2 1.9-.3q2.8 0 5.6-.6.7-.1 1-.7l2.5-3.9 1-1.3q.3-.4-.1-.4l-1.3-.5q-2.2-.6-4.4-.8l-3.7-.2h-.1l-.1-.1.1-.1zM59 42.2l1.9-.2 3.4-.2.6-.1.1-.1-.2-.1-1.4.1q-.3 0-.4-.2l.4-.2h.7l.3-.1-.3-.1q-.7 0-1.3-.2h-.7q-.4.2-.8 0h-.4l-1.8-.1-.2-.1.2-.2h1l.2-.1-.2-.2q-.4 0-.7-.2l-1.9-.6q-.3-.1-.5.2-.1.4-.5.4h-.7l-.1-.1.1-.1h.4l.2-.2-.2-.2-.2-.2-.2-.4-.4.1-.3-.1.1-.3v-.3l-.2-.2-.1-.3.3-.4.3.2c.3.7.9.7 1.5 1h.1l-.1-.1-.4-.3-.4-.3v-.2h.2l.8.5 1 .5h.2v-.1q-.4-.6.2-1l.1-.1V37q-.1-.2-.3 0l-.3.1v-.3l.1-.3c.2-.4 0-1.6-.3-1.8l-.1-.1q-.4-.1-.1-.4.2-.2 0-.4t-.3.1h-.2v-.2l.1-.3q.1-.2-.2-.3t-.2-.4l.4-.5q.1-.3-.2-.3l-.2-.1.1-.2q.3 0 .2-.3l-.1-.5-.5-2q-.1-.7-.5-.2l-.2.1h-.3v-.3l-.1-.2-.2.2v.2l-.1.2-.1-.1q-.2-.4-.7-.4l-.5-.1q-.4 0-.9-.4-.3-.3-.7-.2l-.2.1-.1.3-.4-.2-.3-.1-.6-.2-.6-.2-2.4-.4q-.6-.2-1.1.4l-.2.1v-.2q.2-.5-.3-.5l-.7-.2q-.5-.1-.6.3l-.8 1.7q-1 2.6-1.2 5.3l.2 3.3.2.5.2.1.2-.2.1-1.4v-2l.2-1.1q0-.4.3-.6t0-.4 0-.3q.5-.1.3-.6v-.3c.3-.3.1-.8.5-1q-.1-.4.2-.6V29q-.1-.2.1-.3h.3l-.1.3-.5 1.2q-1 3.1-1.2 6.4v.6q0 .5.5.6l.3.1.1.2-.2.1-.7-.1-.4-.1-.3.2.2.2 1.7.6q.6 0 .9.5.2.4.6.1t.4.1c0 .4.6.3.8.1q.3-.3.8-.2l3.2.8q.4 0 .7.3l.5.2 1.4.4 1.1.3zm10.1-10q2 0 4 .3 1 .1 1.5-.8L76 29l.2-.6-.1-.2h-.4l-2.2.1h-.3l-.1-.1v-.1l.8-.1.1-.1-.1-.1q-1.5-.1-3 .1l-3.2.4a94 94 0 0 1-9.3.1q.1.2-.1.2h-.7q-.6 0-.4.5l.4 1.4.4 1.9q0 .6.7.5l1.3-.1.3.1q.3.3.6.2l1.8-.1.6-.2q.6-.4 1.2-.3h.2l-.2.1q-.1.1.1.1h2.3l.2-.1-.2-.1h-1.2l.3-.1zm17.5-4.8v-.8q.2-1-.6-.4l-.9.4h-.2l.1-.2.4-.3-.5.1-.6.2q-1.5.6-3.1.7H81l.2-.2.9-.2q1.6-.2 3.1-1l.9-.6.3-.4v-.1s-.1-.1-.2 0l-.4.2-1.6.7-3.7 1.1q-.4 0-.2.4v.3l-.4.3-1.3.3q-.7.1-1 .7l-.1.3-1.1 2.5-.2.5q-.2.6.4.5l1-.1q1.7.3 3.3 1.1.8.5 1.5.3h.1l-.1-.1-1-.3-.1-.1h.2q1.7.2 3.2.9l1.1.6q.4.3.5-.3V34l.1-3.6zm-48.2.1.2 6 .2 2.5q0 .8.6.3l.2-.2 1.5-1.2q1.1-.5 1-1.6.4-3.5 2.1-6.5.6-.7-.4-.9-1.8-.5-3.3-1.4l-1.8-.9q-.2-.1-.3.1zm6.3-1.8q.3 0 .5-.4a16 16 0 0 1 3.4-3.9l1.7-1.4.4-.5-.5-.1-2.8.3-1.9.5-1 .2-.3-.1q-.2-.3-.3-.1l-1.8.6q-.3 0-.1.3l-.1.2-.6.2q-.5.4-1 .1l-.2.1-1.3.9q-.4.4.1.7l.4.3a27 27 0 0 0 5.4 2.1m12.1 28.8 1.3-.1.2-.3q0-.2-.3-.1l-.1.1q-.3.2-.4 0-.3-.4-.6-.1t-.4-.1-.4-.1q-.3.4-.5-.2-.2-.2-.3-.1-.5.4-.6-.2l-.3-.2-2.1-.7H52q-.3.2-.5 0-.4-.2-.6-.6c-.1-.4-.6 0-.8-.3l-.1-.1-.2-.2-1.1-.7-.5-.4q-.3 0-.2-.2l-.2-.4q-.1-.1-.2 0-.2.3-.2-.1t-.3-.4l-.2-.1-.3-.6q-.4-.7-1-1.2-.4-.2-.4-.5l-.2-.3q-.5 0-.2-.3l-.1-.3q-.3-.3-.4-.8l-.3-.7-.1-.1-.1.1v.6l-.2.2-.1-.2v-1.2l-.1-.3q-.2-.3.1-.4t0-.5h-.3q-.2.1-.2-.1l-.1-.4q-.1-.3.2-.5.3 0 .1-.3a2 2 0 0 1-.5-1.2v-.1q-.2-.3-.5-.2t-.2.4v.4q.1 2.5 1 4.9.4 1.2 1.2 2.3l1.1 1.2q2.5 2.7 5.9 4.2l1 .4q.4.2.4-.2l.1-.2.2.2q.1.7.8.8l1.8.4q.8-.1 1.3.1m.4-2.8v.9q0 .4.4.5 1.3.2 2.5-.2l.3-.4v-.2h-.2q-.2.4-.5.1l-.2-.1v.5q-.5.2-.6-.3v-.8q-.1-.4.1-.7l.2.6v.1l.2.2.2-.2q.2-1-.2-2v-1l-.2-1V47q.2-.4-.2-.6l-.3-.3-.1-.1v.2q.3.8.1 1.5 0 .4-.4.4t-.4.3l-.3 1-.2.1-.1-.2q.1-.8.5-1.4.3-.4.3-.8v-.6q0-.5.3-.9l.2-.3-.1-.2q-.6 0-.8.6l-.2.5-.5 1.3-.2.2q-.2-.1 0-.4l.1-.5-.1-.2-.1.1-.7 1.8.1.6-.5.5-.8 2.3q-.1.4.3.5l1.1.3q1 .5.8-.6l.2-1.4.1-.1v.1zm26.5-31-.3.1.2.2.7.3.7.6.1.2-.2-.1-1.3-.8q-.5-.4-.9.2l-.1.1-3 4v.2h.2q2.7-.8 5.1-2.1.8-.2.5-.9l.2-.1.1.1q.1.2.4.1.3-.2.1-.4l-.1-.2q-.7-.9-1.6-1.4zm6.8-5.8q-.2-.5-.6-.5l-.4.2a21 21 0 0 0-7.7 5.9l-1 1.2a24 24 0 0 0-3 4.6l.4-.1.2-.2 2.4-3 2.5-2.9.9-1 2.9-2.4a7 7 0 0 1 3.1-1.6l.2-.1zm-5.2 41s.1 0 0 0v-2l-.2-.3-.3.1q-.2.4-.7.4l-.4.1.2.3q.2.3.6.1l.2.1-.2.2-.7.1-.2-.1-.1-.1v.2l.1.3q.4.2.1.6-.2.3.3.4h.2q.3 0 .1-.3l-.1-.1-.1-.6q.3 0 .3.3t.3.2q.2.3-.1.5l-.6.3q-.5 0 0 .3t.2.7.1.6l.2.1.1.2-.2.2h-.1l-.5-.1c-.3.1 0 .3 0 .4v.1l-.1.3h.4l.5-.2.2-.2.1.1v.1q-.3.4-.8.7-.5.1-.3.4t.1.9v.6q0 .2.2.1.4-.3.5.2.1.3.4 0l.1-.3.1-.7q-.1-2.5.1-5.2M42.2 36.8l-.2-1.5q0-.6-.5-.2l-1.2.9-.9.9q-.3.3.1.4l1 .4.6.3.2.2h-.4l-.7-.3q-.2-.2-.5-.1l.4.4.2.1q1.4.6 2.9.8h.2l-.1-.1q-.5 0-.6-.7l-.1-.1q-.6-.4-.4-1.1zm31.6-.6.1.3.4.2.2-.3.2-1q.2-2 .9-3.6l1.3-3.1c.1-.2.4-.5.1-.6s-.4.2-.5.4q-1.6 2.9-2.4 6.1zm-13.1 7.3v-.2q0-.3-.3-.3t-.3.3l-.1.6c.1.5-.1 1 .4 1.4v.1l.8 2 .3.4q.4.2.7.6l.3.3.9.8.1.1q.4-.1.3.3.2.4.5.6t.5 0q.3-.1.2-.5-.1-.3.3-.4h.3q.2 0 .3-.2l-.3-.2-.4.1q-.3.3-.7 0l-.8-.8-.7-.5q-.8-.1-1.2-.8l-.4-.7q-.5-.5-.4-1.4 0-.3-.2-.5t-.2-.5zm.9 10.8 1.4-.2 1.5-.4.6-.6q.1-.2-.1-.4t-.4-.1l-.8.4q-.6.4-1.4.4l-1 .1c-.3.1-.5.5-.9.3q-.2.4-.5.1h-.1v.2l.2.1zm11-4.7h-.2l-.5.5v.2q.3.3.5 0 .3-.4.9-.7l1.7-.9q.7-.3 1-.9l.4-.3q.4 0 .4-.4 0-.2.3-.5l.8-1.6v-.2h-.2l-.3.3-1.1 1.8-.3.4-1.4 1.1q-.2.2-.5.1-.4-.1-.4.2-.1.5-.5.3-.2 0-.3.3.2.5-.3.3m-4.5 1.6c.6.2 1.3-.4 2-.4l.1-.1-.1-.1-1.1.1q-.5 0-.9.3h-.2l-.5-.3-.1-.1.1-.1h.8l-.1-.1q-.9-.4-1.8-.4-.3 0-.3.4v.2l-.2-.1-.3-.4-.2-.1q-.2 0-.1.2l.2.7.5.1.2.1zm2.9-8.6q0-.2 0 0l-.5-.1-.4.1.4.2h.5l.5.1v.1l-.1.1h-.2q-.6-.3-.5.4-.1 1 .8.5l.1-.1-.1-.1-.3-.1-.1-.3h.2q.3.2.7 0 .5-.2.5-.5.1-.4.4-.5l.3-.3q.1-.4-.2-.4h-1.2l-.1.1.1.1.7.1.1.1-.1.1zm-4.1 5-.1-.2-.8-.3q-.3 0-.5-.3l-.1-.1-.1.2v.2q.2.3-.2.2l-.5-.1h-.4l.1.4v.2l-.2-.1-.4-.5-.3-.1v.3l1.7 1.2h.1v-.1l-.2-.2c-.2-.2.1-.3 0-.5h.3q.4.2.9 0 .2-.1.3.1.4 0 .4-.3m-3.3-14.4-.8.1-.1.2.2.1q.4-.3.3.2l.2.1.1-.2q0-.4.3-.2l.4.1q.2.2.4-.1t.7-.2.3.4l.2.1.2-.1v-.5q0-.3.2-.3l.4.1q.4.3.7 0l.5-.2.2-.1-.2-.1-2.5.1-.7.1c-.3.3-.6.7-1 .4M79.3 51l.2-.4.5.2v.4l.2.7.7-.4q.3-.2.1-.4l-.3-.2-.2-.2.2-.1.2-.1q0-.3-.4-.3-.5.2-1 .1c-.5-.1-.7.2-1 .1h-.2l.1.2.3.1q.3.1.1.4l-.2.2v.2l.2.1.5-.3zm-1.5 23.7.1-.2q0-.3-.3-.4l-.2-.1.2-.2.2-.1.5-.1.3-.5.1-.3-.3.1-.3.3q-.3.4-.7.5l-.4.3q-.1.4-.5.4l-.1.2.1.2q.3.1.5-.1.4-.4.8 0-.2-.1 0 0M63.9 42.3q0 .2 0 0 1.4 0 2.9-.3l.5-.2.1-.2-.2-.1-3.7.5-.6.1.6.1zm17.2 4.8q-.2.3-.1.5.3.4.8.6t1 .5l.4.2h.2v-.2l-.1-.1q-.6-.5-1.4-.7l-.1-.1.1-.2.2-.2v-.1zM73.5 41l-1.5.1-3.4.3-.4.1-.2.1.2.1q2.1-.3 4.2-.3l1.3-.2.2-.1-.2-.1zm1.4-4.4q0 .8.7.5l.3-.2.3-.4h-.5l-.3-.2.3-.1h.2l.2-.2-.2-.2q-.9-.2-1 .8m5.3 18 .2-.2q.1-.3.4-.1l.2.1q.3.2.4-.2 0-.5.4-.8l.1-.2-.2-.2-.6.3v.3q.1.4-.4.2-.7-.1-.6.5zm.2-9.9-.6.2-.1.1.3.6.2.1q.4 0 .4.3 0 .4.2.6l.2-.5q.1-.3-.1-.4l-.6-.4v-.2h.3l.1-.1-.1-.1q0-.3-.2-.2m-1.1-1.8-.2-.5-.2-.3-.1.3-.6 1.8-.1.3v.1l.1-.1q.1-.3.6-.5.3-.2.1-.4t.1-.4zm-1.6-10.2h-.2l-.1.1.1.1 1.1.8h.5l.2-.2-.1-.3zm-2.5 41.9-.2.1.1.1.2.1.1.2-.2.1h-.4q-.3.2-.1.5.3.5.7 0t.8-.5l.1-.1-.1-.1q-.4 0-.6-.3zm-12 4.8.1-.3v-.2q.4-.2 0-.5l-.1-.3q.1-.5-.4-.5l-.3-.1h-.2v.3l.3.3.3.3q.2.1-.1.3l-.1.3zM66 41.6l1.7-.4q.2 0 .2-.3t-.4-.1l-.3.1h-.5q-.6-.2-1 .3l-.1.3zm7 11.6-.2-1.6-.1-.2h-.2l-.1.3v2l.1.2.3-.1q.3-.4.2-.6m7.1-3.8-.3-.1-.2.1q-.3.4-.5-.2l-.2-.1q-.3.3-.6 0l-.1.1.1.3q0 .3.3.1.3-.3.4.2l.1.2q.4 0 .6-.2.3 0 .4-.4m.6 12.9.2-.1q.3-.3.2-.6t-.3-.2h-.1l-.1-.1.1-.2.2-.1q.2-.1.1-.4l-.2-.1q-.2 0-.3.2l-.2.5.5.3h.1l.1.1-.1.2-.4-.1-.1.1.1.1q0 .5.2.4M68.6 48.6q.4 0 .2-.3l-.1-.2-.2-.1q-.5.4-1.1.2h-.2l-.2.1.2.2.3.1zm5.4-6.4q.6 0 1.1-.3l.2-.2-.2-.1q-.6.2-1.2.1-.2 0-.3.3l.3.2zM69.1 53s0-.1 0 0l-.7-.4h-.2l-.2.2.1.2q.4.1.1.4v.2l.2.1zM57.4 71.4l-.3.1-.2.1.2.1.7.1.2.2q.3.5.8.2l.1-.1-.1-.1q-.3.1-.5-.1-.4-.5-.9-.5M79.5 54l-.2-.4q-.1-.2-.3.1l-.2 1.1.1.1q.4-.3.6-.9m1.6 2.2-.3-.1-.2.1.1.2.9.6.2.1.1-.3-.3-.5q-.2-.2-.5-.1m-10.7-7.8h.6q.3 0 .4-.4v-.2h-.2q-.3.4-.7.2h-.2l-.5.2q.2.3.5.1zm3.2 27.1h.3q.4 0 .4-.4l-.1-.3h-.4q.1.4-.4.4l-.1.1.1.2zm8.6-11.3-.7.1q-.2 0-.2.2l.3.3.7-.2.1-.3zm-8.1-16 .5-.2q.4.2.5-.1c.1-.3.1-.1-.1-.2l-.4-.3-.3.4-.3.3q.1-.1.1.1m2.4-15.6h-.2l-.2.2.2.1.5.3q.3.2.3-.1.2-.4-.3-.4zM80 69.8v-.3l-.2-.1c-.2 0-.5.5-.5.6.1.2.3-.1.4.1l.1.1.2-.1zm4.6-21.3-.5-.3-.1.1q.1.5-.1.8l.1.1q.5-.2.6-.7M80.4 72l-.2-.3-.3-.4-.1-.3-.4.3v.1l.8.6q0 .1.2 0m-.1-18.7-.3-.4-.1-.2-.2.3q0 .4.3.7.2-.1.3-.4M62.4 43l-.6.1v.3q.3.3.7.1l.2-.3zm5.7 34.1-.4.1.2.4h.2l.3-.1q.3 0 .2-.3 0-.4-.3-.1zM49.3 40.7h-.2l-.1.1.1.1 1.1.2h.4l.1-.1-.1-.1zm17.6 8.6-.3.2.4.2h.2q.4-.2.8 0l.2-.1-.1-.1zm1.6-8.3h.2q.4 0 .6-.2l-.6-.3h-.1l-.2.3zM58 72.6q-.4.3-.4.6t.3.1q.3-.1.3.1h.2s.1-.2 0-.2zm-7.2 1.6-.4.3q0 .3.4.4.5 0 .4-.3.1-.4-.4-.4m30.5-16.5-.5.2-.1.1.2.3h.3l.3-.4v-.2zm-7.9-24.9H73l-.2.1.1.2h.3q.3-.1.4.2l.1.2.1-.2q.2-.4-.3-.5zm4.7 3.5v.2l.9.6h.2s.1-.1 0-.1zm1 3.7-.1-.1-1.1.3-.1.2h.2zq-.1 0 0 0m-3.6-2.3h-.4l.1.1.4.4q0 .3.3.2l.1-.3q.2-.6-.5-.4M81 68.1l.1.4.4-.2.2-.1q.1-.1 0-.2l-.2-.1-.3-.1q-.2 0-.2.3m1.1-26.2q.4-.2.6-.7l-.2-.2-.1.1-.3.6zm-40.8.5s-.1.1 0 0q-.2.5.1.8l.2-.1c.1-.1-.1-.6-.2-.7zm21.5 8-.1.1v.5l.2.2.4-.2-.2-.3zm13.5-10.2.4-.1.2-.3q-.2-.2-.3 0l-.5.2-.1.1.1.1zm-5.7 9.5.3.1q.3 0 .3-.2t-.3-.2l-.6.3-.1.1.1.1q.1-.2.3-.2m1 .4-.2-.2-.4.2-.1.3h.3l.3-.1zm-19.8 24q-.2 0-.2.3-.1.3.2.5l.2-.5q.1-.3-.2-.3M59 54.3q.6 0 .5-.3l-.3-.2q-.3 0-.3.3zm23.5-10.6-.5-.3-.2.4.2.2zm-2.3-5.3-.6-.8h-.1s-.1.1 0 .1l.3.8h.2zM58.6 74.3v-.2l-.1-.4q-.2 0-.1.3l-.1.4.2.3q.3 0 .2-.2zm1.9 4.5-.2-.3q-.2-.2-.5-.2l-.1.1.3.4h.3q.1.1.2 0M84 62.5l-.2-.3-.4.5.2.1q.3 0 .4-.3M69.6 49h-.2l-.5.1.6.2h.2l.4-.2zm12.5 18.6.3-.1v-.1l-.1-.1q-.4.1-.8-.1l-.2.1.1.2zm-6.6-26.8q-.5-.1-.8.1l.1.2c.1.1.6-.1.7-.3m-19 31.1-.2.4v.2l.5.1.1-.1v-.1zm26.8-7q.4 0 .4-.4l-.1-.2-.3.3zm-2.5-31q-.4-.1-.4.1l.3.2.3-.1.1-.2-.1-.1zM67 48.8l-.1-.1-.5-.2-.2.1.1.2.6.2zm-11.9 23-.3.2.4.4.2-.3zM58.6 47l-.1-.3-.1-.1-.1.1v.3l.2.4q-.1-.3.1-.4m21.6 8.7q.2 0 .3-.2t-.3-.2l-.4.2v.2zM58.6 39.3l.2-.1-.2-.2h-.2l-.4.1.3.3zm1.3 38.5-.2-.4-.3-.2-.1.4.4.2zm22.2-12.5-.1.3q0 .3.3.4h.2v-.4l-.1-.2zM59.2 76l-.1-.1-.6.4.1.1q.5.1.6-.4m23.1-26.8-.3-.6h-.1l-.1.1.1.5.2.1zm-1 9.5-.1.1.1.3h.4V59q0-.4-.4-.3M70.2 47.3h-.3q.1.3.4.2h.4l.1-.1-.1-.1zM69.5 77l-.2-.5-.1-.1-.1.2.2.5.2.1zm-2.9.5q0-.1 0 0l-.5-.5-.1.1.1.5.4.1zm15.9-18.9q0-.4-.4-.4h-.2l.3.4.2.1zM52.2 76.4h.2q.3.1.2-.1l-.2-.2-.4.1-.1.1.1.1zm24.1-39.5.2.2q.4.1.5-.4l-.2-.2zm6.4 2.7s0-.1 0 0h-.4l-.6.4.6-.1.3-.1zm-32.5 32-.1-.2-.6.1v.2l.4.1zm17.7 4.8h-.3l-.2.1.1.1.7.2h.2l-.1-.3zm-19-3.8-.2.2q0 .4.2.3l.2-.2q0-.2-.2-.3m18.5 5.5-.2.2q.1.4.5.4v-.1zm11.8-31.8q0 .1 0 0c.3-.1.5.3.8.3l.1-.1a1 1 0 0 0-.9-.2m-8.3 29.6-.4.2-.3.3.5-.1zm14.8-39.5q.4-.4.6-.9v-.1l-.1.1zm-8.5 4.1s-.1-.1 0 0l-.7.2v.1l.1.1.5-.2zm-1.4 10q-.2-.4-.6-.4l-.1.1.5.4zm-14.1-6.1.2-.4q0-.3-.3-.3t-.1.3q-.1.3.2.4M49 75.4h-.3l-.1.1.7.2.1-.1-.1-.2zm32-33.6-.2-.2h-.2l-.2.5.1.1zm1.1 3.3-.2-.1-.4.3.3.3zm.2 17-.3-.4-.2.3q0 .3.2.3zm-1.2 4.4.3-.3-.3-.2-.2.2zm2.1-18.7-.3-.4-.2-.3v.4l.4.4zm-2.4-4.9-.3-.2-.3.2.3.3zm1.4-8.8-.3-.1-.2.2.3.2zM82 51.4l-.2-.1-.5.3v.1l.1.1zm-2.6-9.7v-.3zl-.2.2v.2l.3-.1zM61.5 78.3l-.1-.1q-.3-.2-.5.1v.1l.2.1zm19.4-34.2h-.2l-.2.1.2.1h.5l.1-.1-.1-.1zM55.5 71q-.1 0 0 0l-.2.1.2.2h.3v-.2zM74 54.1l-.1.1-.1.2.4.3h.1zm-2.7-7.8q.2-.1 0 0l.7-.3-.6.1h-.1zm4.9-3.1-.3.5.1.1.3-.3q-.1-.2 0-.2M72 48q.3-.1.2-.4l-.1-.1-.3.3zM57.5 77.3l-.2.2.2.3.2-.3zm27.1-35.9.4-.3-.1-.1q-.3 0-.4.2zM73.8 44l-.1-.2-.1.1-.2.2v.1h.1q.2.2.3-.2M62.2 77q.4 0 .4-.4l-.1-.2-.1.1-.2.4zm9.9-28.3q.2.2.3.1l.3-.2-.2-.1zm9 18.2-.3-.2-.3.2.3.2zM65.6 77.2l-.2-.2-.1.3.1.2zm5.9-36.3.3-.1.1-.1-.2-.1-.4.2zm8.5-7.1-.2-.2-.2.3.2.2zm-14.7.3-.4-.3h-.2l.2.3q.1.1.4 0m-4.4 9.6.1.2.1-.2v-.4H61zm10.8 3.2s-.1-.1 0 0q-.3-.2-.4 0l-.1.1.2.1zq0 .2 0 0m2.6-3.5-.3.3.1.1q.2 0 .3-.3m-.4 3.2-.1-.1-.5.3v.1q.4 0 .6-.3m9-4.3-.3.3.1.1q.3 0 .3-.2zM53.3 75.9l-.2.1.2.2.2-.2zM82.6 53s0 .1 0 0l.1.3.3.2.1-.1q-.2-.4-.5-.4m-6.5-3.1-.3-.2-.1.1.2.2zm-3-2.2-.6.1.1.1zm6.9.8-.2-.1-.3.2.2.2zm2.4 7.5-.3-.2H82l.3.3zm-17.9-7.4.2.2h.2l-.1-.2zm16.7 4.2-.3-.2-.2.2.1.2zm-4-15.4-.1-.1-.5.4.1.1zm5.3 22.3-.1.1.1.1.4-.1-.1-.1zm.1-9.8-.2-.2-.2.2.2.2zM81.4 63l-.2-.3-.1.4.1.1zm-7.6-9 .3-.4-.1-.1-.2.3q-.1 0 0 .2m.9-13.8-.3.2v.1h.4l.2-.1zm-4.4.7h.5l-.1-.1zl-.4.1h.4m-28.4 2.8-.2-.2-.2.2.1.1zM77.2 48l-.1.2.1.1.2.1.1-.1v-.1zm3.8 1.1s-.1 0 0 0l.1.4.1-.1q.1-.2-.2-.3m.4-28.9L81 20l-.1.1.3.3zm-6.9 25.5.2-.1v-.2h-.2l-.2.2zm.1 5.1.1-.4-.1-.1-.2.2zm-10 26.6.1-.3-.1-.2-.1.2q-.1.1.1.3m9.1-29.2-.2-.1-.1.2.1.1zm-12 27.9-.4-.1v.1zq-.1 0 0 0m21.7-17.6.1-.2-.2-.2-.1.2zm-11.8-9.8-.1-.1-.2.2.1.1q0-.2.2-.2M48.4 74.6l-.2-.2-.1.2.2.2zm33-5.8-.1.2.3.2.1-.1zm-5.5-34.5-.1.3.1.1.2-.2zm6.9 10.1h-.2l-.2.2v.1h.1q.2 0 .3-.3m-1 19.2-.2-.2h-.2l.1.2.1.1zm-9.6-29.9-.1.1.1.1.4.1v-.1zm5.5 4.9-.2-.1-.1.1.2.1zM74.9 44l-.2-.1-.3.3.1.1zM63.8 77.7l-.2-.3-.1-.1v.2l.2.2zM62 33.3l-.1.2.2.2.1-.1zm-2.1.2.3.1.2-.2-.2-.1zm14.6 3.8q-.1.2 0 0 0 .2.2.3l.1-.1zm8.4 14.2-.1-.1-.1.1.1.1zm-8.2-4.9.1.1.3-.2-.1-.1zm16.1-32.3-.1.1.3.4.1-.1q-.2-.1-.3-.4m-9.1 26.1-.2.2.1.2.1-.1zm1.4 21.1-.1.2.1.2.2-.2zM58.5 76.9l-.1.2.2.2.1-.1zm-8.1-.4-.2-.2-.1.1.1.2zm5.3-48.4h.4L56 28h-.3l-.1.1zs.1 0 0 0m21 10-.1.3.2.1.1-.2zm6.1 12.6-.2-.2-.2.1.2.2zm-8.1-5.8-.1-.1-.2.1v.1zm8.7 12.7.3-.1-.2-.1-.2.1zm-1.3 5.3-.2-.1-.1.1.1.2zm.4.4-.3-.1-.1.1.2.1zm-1.3 1.2-.3-.1-.1.1.1.2zm1.2 2.4-.2-.1-.1.1.1.1zm-11.9-34-.1.2.2.1v-.1zm-4 1.1-.2.2q.2-.1.2 0M81 70.6l-.2-.2-.1.1zM69.6 49.9l.3.1.2-.2-.2-.1zm-13.3 23-.1-.2h-.1v.1l.1.2.1.1zm1.4 1.7-.2-.2-.1.1.2.2zM51 75.9l-.1-.2-.2.1.1.2zm-.9.1-.3-.2h-.1v.1l.2.2q.1.1.2-.1m30.8-27.7-.3-.1-.1.1.1.2zM69.3 78.1l.2-.1-.2-.2-.1.1zm-3.6.6.2-.1v-.3l-.2.1zm17-33.4.1-.1-.1-.3-.1.1zm-10.6 1.2.2-.1-.1-.1zm1.1-.1v-.1H73v.1q.1.1.2 0m1.9 27.2-.1.2.1.1.2-.1zm1-40.1-.2-.1-.1.1.1.2zM84 50.4l-.3-.1v.1s.1.1.1 0zm-6.8-15.9-.1-.1-.2.2.1.1zm-4.2.1-.2-.1v.1l.1.1zm-24.3 39-.2-.2h-.1l.1.2zm13-24.1-.1.2.1.1.1-.1zm4.9 28.9-.1.2.1.1.1-.1zM41.4 47.2l-.1-.1v.1l.1.1zm17.2 31-.1-.1-.2.1v.1zm-2-.6.1.1h.1zM77.4 73l-.2-.1-.1.1zM41 47.5l-.1.2.1.2.1-.1zm31 1.9s0-.1 0 0q-.1-.2-.1 0zm4.5 24.2.1-.2-.2-.1-.1.1zm-23.2 3.1H53l-.1.1h.3zm14.4-28.9-.2-.1-.1.1.1.1zm8-7.9-.3-.1-.1.1.2.1zm-.2 4.7-.2.1v.1zm10-7.9q0-.1 0 0h-.2v.1zM71.2 51.5l-.1-.1q-.2.1.1.1-.1 0 0 0m12.3-.3-.1.1.1.1.1-.1q-.1.1-.1-.1m-.8 2.8s0-.1 0 0l-.2-.1v.1zm-21.2-3.6q-.1 0 0 0-.1-.2-.1 0zm16.7-2.9v.2q.1 0 0-.2.2 0 0 0m-9.5 2.3.1-.1-.1-.1h-.1zM48.8 74.5v.2h.1zm28.1-25.7.1-.1-.1-.1-.1.1zm3.9 15q-.1 0 0 0l-.1.2zm-3.3-6.5s.1-.1 0 0v-.2l-.1.1zm-14 19.4q-.1 0 0 0v.2l.1-.1zm12.2-32.4.1-.1-.1-.1zm-5.4 33.3-.2-.1-.1.1.1.1zm-1.7.4h-.2v.1zM63 46.8l-.1-.1v.1l.1.1q-.2 0 0-.1m1.1-.3-.2-.1-.1.1.1.1q.2.1.2-.1m12.1-4.9q-.2 0 0 0h-.1s0 .1.1 0q-.1 0 0 0m-19.3 4.5s.1 0 0 0l.1-.2h-.1zM41.2 21.2l.1-.1V21h-.1zm42.1 19.3h.1v-.1zm-8.2 4.3-.1.1v.1l.1-.1q.1 0 0-.1m-14-11.4s0 .1 0 0l.1.2.1-.1zm13.8 42.7q-.1 0 0 0-.1-.1 0 0-.1 0 0 0-.1 0 0 0m6.2-18.8q0 .2 0 0m-12-9.1q.2-.2 0 0v-.1zq0-.2 0 0m13.7 8.6q-.1 0 0 0v.1zm-15-4.6s-.1 0 0 0q-.1 0 0 0M55.9 77.5l.1-.1-.1-.2zM74.2 47s-.1 0 0 0v.1zM61.6 79.2s0-.1 0 0-.1 0 0 .1q0-.1 0 0m2.8-32.4q-.1 0 0 0-.1-.1-.1 0zq-.1 0 0 0m-2.2 4.5s0 .1 0 0v.2zM75.8 74s-.1.1 0 0m.1-31.1q.1-.1 0 0 .1-.1 0 0 0-.2 0 0 0-.1 0 0m5.3 7.3v-.1zm-4.8-7.9h-.2zm-1.2 0h-.1zm-21-14.4q-.2 0 0 0-.2 0 0 0-.2 0 0 0M83.1 46h.2l-.1-.1zm-20.9 0q0-.2 0 0 0-.1 0 0 0-.1 0 0M45.4 72.2l-.1-.1zm38.4-32q0 .2 0 0m.3 4.9V45q-.1 0 0 .1-.1 0 0 0m-12-.1q.2 0 0 0m-13.4-.1s-.1 0 0 0q-.2 0 0 0-.2.2 0 0 0 .2 0 0m-9.2 28.5h-.1zM74 44.6q0 .2.1 0 0 .2 0 0"/><path d="M81.3 78.9q-.2-.4-.5-.1l-1.6.6-.3-.1.2-.2.6-.2 2.4-1.3q.8-.5 1.2-1.4.1-.4.4-.4.3.2-.1.5l-.5.8q-.3.3 0 .6l-.1.3-1.5.9q.1.1-.1.1"/><path d="M79.2 87.6q-.3 0-.1-.2l.1-.2H79l-1.9.5-.4.1h-.1v-.1l.3-.1 1.5-.5a13 13 0 0 0 4.1-2q.2-.3.4-.1.1.3-.2.4l-.7.5q-.4.1-.3.5l-.1.2-2.2 1.1z"/><path d="M79.6 85.4q-.1-.2-.5-.2-.6 0-1 .3l-.5.3H77l.3-.3q.3-.4.9-.5 2.1-.3 3.9-1.4.2-.3.5-.1l-.3.4q-.6.2-.9.9z"/><path d="M75.7 89.3h-.2l-.1-.1.1-.1.3-.1q2.6-.4 5.1-1.5l.8-.3h.2l-.1.2-.7.3q-.3.1-.4.5l-.1.2q-.6.5-1.4.5h-.1l.1-.1.8-.4.1-.1H80l-.4.1-3.3.9z"/><path d="M44.2 80.5q0 1.2.5 2.4l.4 1v.2L45 84l-.1-.1a8 8 0 0 1-.8-3.7l.1-1.3.1-.4q0-.8.9-.5h.1q.4 0 .4.3l-.5-.1q-.4-.1-.6.3z"/><path d="m68 91.1-.6-.2q.2-.3.6-.2l4.4-.6.5-.1.2.1-.1.1-3.1.7z"/><path d="m62.2 91.8-1.6-.2-.3-.2.3-.1h.3l.6.1 2.7-.1q.3 0 .3-.3l.1-.2.3.2q.4.5-.2.6z"/><path d="m80.9 79.6-.1.2-.9.5q-1.7.8-3.6 1.3h-.2l-.1-.1v-.1l.2-.1 3.1-1.3 1.4-.5z"/><path d="m83.2 73-.4 1q-.6 1.4-1.9 2.3l-.5.2-.2-.1.1-.2.1-.1a5 5 0 0 0 2.2-2.7l.3-.5.1-.1z"/><path d="m59.9 81.3 2.3.5.2.2-.2.1-.5-.1-1.7-.3-.4-.1-.1-.2.2-.1z"/><path d="M74.3 85.6c.1-.5-.3-.3-.5-.3H73l-.1-.1.1-.2.2-.1 1.7-.4h.2l-.1.2-.1.4q-.4 0-.3.4z"/><path d="M55.2 85.4q.6 0 1 .4.3.3 0 .6l-.3.1.1-.2v-.2q-.2-.5-.8-.6-.4 0-.7.6l.1.4.4.2.1.1-.2.1a1 1 0 0 1-.7-.7q.1-.6.8-.7z"/><path d="M48 86.3q-.8 0-1.4-.3-1.1-.4-1.4-1.5v-.2l.1.1.2.3q.7 1.1 1.8 1.2l1.2.1h.1l-.1.1zq0-.2 0 0"/><path d="m76.4 80.1-2.2 1-.3-.1.2-.2 2.2-.9zq0-.2 0 0"/><path d="M52.7 80.4h-.3l-1.6-.7-.3-.1-.1-.2.2-.1.3.1 1.6.8z"/><path d="M83.4 74.6v.2q-.4.8-1.1 1.4h-.2V76l1-1.4z"/><path d="m52.1 84.2-.2.4q-.5 1-1.6 1.3h-.2l.1-.1.8-.5q.9-.5.6-1.5l.1-.2.1.1q.3.2.3.5"/><path d="m79.6 80.7.2.1v.1l-1.4.6-.3-.1.1-.2z"/><path d="m78.8 83-.2.2-1.5.5H77v-.1l1.4-.6q.3-.1.4 0"/><path d="m69 89.8-.7-.1-.1-.2.1-.1 1.4.1.1.1-.1.1z"/><path d="M82 79.4v-.2l.9-.6h.2v.2l-1 .6"/><path d="m43.1 72.7-.1.1h-.2l-.6-1v-.2h.2q.6.6.7 1.1"/><path d="M50.2 81.9H50l-1.1-.7-.1-.1-.1-.1h.1l1.3.8z"/><path d="m75.3 89.7.3.2q0 .3-.3.2l-.2-.2z"/><path d="m80 81.6-.4.1-.1-.2.3-.2z"/><path d="m63.4 82 .3-.1.2.1-.2.1z"/><path d="m78 89.6-.3.1-.1-.1.2-.2z"/><path d="m65.3 81.9.2.2-.2.1-.2-.1z"/><path d="m81.5 81.6.2.2-.2.1z"/><path d="m78.7 84.3-.1-.3.1-.1.1.2z"/><path d="m83.1 82.3-.2.1-.1-.1z"/><path d="m82.9 81.5-.1-.3.2-.1.1.2z"/><path d="m75.6 88.2-.2.1-.1-.1z"/><path d="m43.8 73.9-.1.2-.1-.1.1-.1q0-.1.1 0"/><path d="m46 78.6.1.3H46z"/><path d="m77 80.7-.2.1-.1-.1z"/><path d="m80.8 82.4.1.2-.1.1-.1-.1z"/><path d="m66.5 90.3-.2-.1.1-.1z"/><path d="m73 90.7.2.1-.1.2z"/><path d="m66.9 91.2-.2.1-.1-.1.1-.1z"/><path d="m75.8 86.6-.2.1-.1-.1.1-.1z"/><path d="M48.6 80.8q-.1 0 0 0h-.3l.1-.1z"/><path d="m73.6 88.6-.3.1-.1-.1.1-.1z"/><path d="m72.4 89.2-.2.1-.1-.1.1-.1z"/><path d="m76.5 89.9-.1-.2.2-.1v.2"/><path d="m46.4 77 .1-.1.1.1v.1z"/><path d="m55.7 81.3-.1.1s-.1-.1 0-.1z"/><path d="M79.8 83.2h-.2q.2-.1.2 0 0-.1 0 0"/><path d="M53.8 80.8q-.1 0 0 0-.1 0 0 0"/><path d="M54.8 81.1h-.2q.1-.1.2 0 0-.1 0 0"/><path d="M67.6 81.9q-.1 0 0 0-.1 0 0 0-.1 0 0 0-.1-.1 0 0"/><path d="M59.7 83.7q.2.2 0 0 0 .2 0 0"/><path d="M49.9 86h-.1z"/><path d="M72.1 90.9s.1-.1.1 0"/><path d="M65.2 62h.6q0 .3-.4.4-.3.1 0 .2.3.2.1.3-.2.2-.4.1l-.2-.1q-.6-.4-1.3-.4-.5 0-.6.3-.3.4-.2.9l-.2.4-.3.6q-.3.8-1 .9h-.2v-.2l.1-.2H61l-1.1.6-.7.1-.1-.1.1-.1q1.2-.4 2.2-1.2.6-.5.9-1.1l.5-.8q.2-.4.6-.2h.1l1.6-.1z"/><path d="M45.9 54.3q0-.6.5-.9l.7-.4q.4-.3.6.1l.1.2q.1.4.4.1.2-.2.3.1v.1l.3.4q0 .3-.4.4-.3.3-.4-.1l-.1-.3q-.3-.7-1.2-.6-.3 0-.5.4-.1.4.2.6l.2.2v.2l-.5.1-.1-.1z"/><path d="m57.8 57.4-1.5-.3-1-.3-.5-.2-.2-.2h.2l.5.2q1.2.4 2.4.4l.7-.1h.8l1.1-.1.2-.1q1 .1 1.9-.3h.2l-.1.2a4 4 0 0 1-1.8.5l-2.6.2z"/><path d="M66.3 58.8q-.5.2-.3.9.2.1 0 .4l-.1.2.3.1.3-.1q.3 0 .2.2t-.4.3h-.6l-.1-.1q.3-.3-.1-.5V60l.1-.4q.2-.6-.3-1l-.7-.5-.2-.2.3-.2q.5-.1.9.4c.4.5.3.5.7.4z"/><path d="m66.6 55.7.1.1v.2q-.2.2-.6.1l-.4-.1-.2-.1q0-.4-.4-.4v-.2c.4-.3.7-.9 1.3-1l.2.1-.1.1-.3.1q-.4.1-.3.6 0 .5.7.5"/><path d="M46.5 52.6q.2-.4-.3-.5-.3 0-.1-.2.3-.4.9-.4l.2.1-.1.2q-.2 0-.2.3l.3.2h.2l.1.1-.1.1-.5.3h-.3z"/><path d="M65.9 57v.4l-.1.1-.5-.1q-.3 0-.3-.3t-.2-.1l-.2.2h-.2V57q.1-.3.4-.3l.6-.1q.3-.3.4.1z"/><path d="m62.3 65.3.4-.5.4-.4h.2v.2q-.2.3.1.3h.2l.1.1-.1.1-.3.1q-.4-.2-.9.2.2 0-.1-.1"/><path d="M48.6 56.1q.1.4-.2.7l-.1-.6-.1-1 .1-.1.1.1z"/><path d="m64.5 63.9-.5.4h-.2v-.2q0-.5.6-.6l.3-.2h.2l.1.1-.2.2q-.3.1-.3.3"/><path d="m63.6 63.5-.2-.2.1-.2.4-.3.3.1-.1.2z"/><path d="m64.5 64 .3.1.2.1q.2-.2.3-.1.1.3-.1.5l-.2.1-.4-.4z"/><path d="m47.3 59.2.2.1.1.2-.3.2-.3-.1-.4-.1.5-.2z"/><path d="M65 64.7v.2q0 .4-.4.3-.2-.1-.2-.5l.2-.1z"/><path d="m66.4 57.9-.1-.1.1-.5.2-.2.2.3q0 .4-.4.5"/><path d="M65.2 62h-.4q-.5 0-.4-.5l.2-.1z"/><path d="m57.6 67.7-.5-.2v-.1q.4-.2.7 0l.2.1.1.1-.1.1z"/><path d="m66.1 65.9-.1-.3q-.1-.5.2-.4t.1.4z"/><path d="m52.6 57.9.4.4-.1.3-.2-.1-.2-.4z"/><path d="m64.8 59.3.2.3-.2.4q-.2 0-.2-.3z"/><path d="m45.9 57.2-.3-.1.2-.2.5-.1v.1z"/><path d="m43.4 48.8-.2-.2.3-.2.3.1z"/><path d="M63.3 57.7h.2l-.3.3H63l-.1-.2.2-.1z"/><path d="M66.3 58.8q.5 0 .3.5l-.2.3-.1-.4z"/><path d="m63 66.2.4.2.2.3h-.3l-.3-.3z"/><path d="m52.6 69.3-.2.4h-.1l-.1-.4.2-.2z"/><path d="m63.8 56.2.4.1.1.1-.1.3-.2-.1-.2-.2s-.1-.1 0-.2"/><path d="M53 57.2h-.2l-.2-.1.2-.1h.2l.2.1z"/><path d="m45.8 52.9.2.2-.2.2-.2-.2z"/><path d="M67.1 58.4v.1l-.1.2-.1-.1v-.5h.1z"/><path d="m56.7 68 .3.4-.2.2q-.2-.2-.2-.5z"/><path d="m47.2 56.8-.2-.1.1-.2h.1l.4-.1z"/><path d="m43.1 47-.4.2-.2-.2.2-.1z"/><path d="m64.4 55.3-.4-.2V55z"/><path d="M58.2 68q.2-.4.5-.1l.1.1-.2.1z"/><path d="m61.4 66.7.3.3v.1h-.2l-.2-.3z"/><path d="m60.2 68.2.2.2-.4.2-.1-.1q.2 0 .3-.3"/><path d="m50.7 62 .2-.2.1-.1.1.2q.1.3-.4.1"/><path d="m53.7 69.2-.2-.2.2-.2.1.2z"/><path d="m66.6 64.3-.3.1-.2-.2.2-.1z"/><path d="m55.1 66.2-.2-.2.2-.2.2.1z"/><path d="M44.6 60.3q0-.3.3-.4l.2.1v.1z"/><path d="M45.6 54.8q-.2.2-.3.1l-.2-.1.2-.1z"/><path d="m62.3 67.1-.1-.3.1-.1.2.2z"/><path d="m66.2 61.4-.4.1-.1-.1.3-.2z"/><path d="m50.8 65.6.3.3-.1.1-.3-.2z"/><path d="m64.1 65.6.3.3-.1.1q-.2-.1-.3-.4"/><path d="m62.4 68.1-.2.2-.2-.1.1-.2q.2-.1.3.1"/><path d="m56.9 56.4.2-.1.2.1-.2.2z"/><path d="m49.5 55.4.2.2-.2.2-.2-.1z"/><path d="m47.9 66.8.1.2-.1.1-.2-.1z"/><path d="m65.5 61.2-.2.2-.2-.1.1-.1z"/><path d="m59.5 58.5-.1-.2.2-.1.1.2q-.1-.1-.2.1"/><path d="m47.3 55.6-.2.2-.1-.1.1-.2z"/><path d="m57.8 69.1.2.3-.1.1-.2-.1q-.1-.1.1-.3"/><path d="m62.4 60-.2.1-.1-.1.1-.1z"/><path d="m45.3 62.8-.2.1-.1-.2.1-.1z"/><path d="m60.8 67.8.1.3-.2.1-.1-.2z"/><path d="m47.5 65.7-.1.1-.1-.1zq-.2-.1 0 .1"/><path d="m56.3 69-.1-.1.1-.2.1.1z"/><path d="m67.5 60.2.2.2-.1.1-.2-.1z"/><path d="m67.2 62 .1.2-.1.1-.2-.1z"/><path d="m55.7 69.9-.2.2-.1-.2.1-.1z"/><path d="m58.6 61.1-.2.2-.1-.1.1-.2z"/><path d="m45.6 59.4-.1-.2.1-.1.1.2z"/><path d="m62.6 65.8-.2.2-.2-.1.1-.1z"/><path d="m44.7 59.2.2.1-.1.1-.2-.1z"/><path d="m46.3 55.8-.2.3-.1-.2.1-.2z"/><path d="m46.1 61.4-.1.1-.2-.1.1-.2z"/><path d="m45.6 55.5-.1-.2.2-.1.1.1z"/><path d="m55.3 59.3-.2.1-.2-.1.1-.1z"/><path d="m67.1 61.1-.2.1-.1-.1.1-.1z"/><path d="m61.8 61.3-.2.1-.2-.1z"/><path d="m62 61.8.1.2-.1.1-.1-.1z"/><path d="m46.8 62.1.2.2-.1.1-.2-.1z"/><path d="m52.7 62.5.2.1-.1.2-.1-.1z"/><path d="m67.2 64-.2.1-.1-.2.1-.1z"/><path d="m64.5 66.7-.1.2-.1-.1z"/><path d="m60 67.5.1.2-.1.1-.2-.1z"/><path d="m58.2 68-.3.2-.1-.1q.2-.2.4-.1"/><path d="m48 69.2-.1-.1.1-.1.1.1z"/><path d="m50.6 69.7-.1.1-.1-.1.1-.1z"/><path d="m65.1 65.9-.2.1-.1-.1.1-.1z"/><path d="m66.8 61.6.1.1v.1h-.1z"/><path d="m42.6 46.5.1.1-.1.1-.1-.1z"/><path d="m54.6 70.1-.2.1-.1-.1s.1-.1.1 0q.2-.1.2 0"/><path d="m59.7 63.6.1.2-.1.1-.1-.1z"/><path d="m51.4 59.3-.1-.2.1-.1.1.1z"/><path d="m54.7 61.6-.2.1-.1-.1.1-.1z"/><path d="m47.4 64.6-.1-.1z"/><path d="m59.4 66.6.1.2-.1.1-.1-.1z"/><path d="m45.3 51.5-.1-.1.1-.1.1.1z"/><path d="m49.7 59.7.1-.1.2.1-.1.2z"/><path d="m49.9 61.5.1.1-.1.1-.1-.1z"/><path d="m61.2 67.6-.1-.3.1-.1.1.1z"/><path d="m49.2 64-.2.1-.1-.1.1-.1z"/><path d="m56.3 59.6.1.1v.1l-.1-.1z"/><path d="m55.3 57.1.1.2-.1.1-.1-.1z"/><path d="m56.5 62.8-.1.1-.1-.1.1-.1z"/><path d="M57.4 68h-.2v-.1l.1-.1z"/><path d="m54.5 57.8-.1-.1.1-.1.1.1z"/><path d="m54.5 60.9-.2.1-.1-.1.1-.1z"/><path d="M66.7 62.6v-.1h.1z"/><path d="m60.3 62.5-.2.1H60v-.1z"/><path d="M48.3 62.5h-.2v-.1h.1z"/><path d="m58.1 64.5-.2.1-.1-.1.1-.1z"/><path d="m59.7 64.9.1-.1h.1v.1z"/><path d="m45.1 61-.1-.2.1-.1.1.1z"/><path d="m62.3 55.7-.1.1-.1-.1.1-.1z"/><path d="m55.6 58.1.1-.1.1.1-.1.1z"/><path d="m50.8 68.6.1.1-.1.1-.1-.1z"/><path d="m45 62-.1.1-.1-.1.1-.1z"/><path d="m50.6 62-.3-.2.1-.1z"/><path d="m65.1 60.7-.1.1-.1-.1.1-.1z"/><path d="m53.7 60-.3.1-.1-.1.1-.1z"/><path d="m65 58.8-.2.1-.1-.1.1-.1z"/><path d="m50.9 69.4-.2.1-.1-.1.1-.1z"/><path d="m49.4 69.5-.1.1-.1-.1.1-.1z"/><path d="m61.7 55.7-.1-.3.1-.1s.1.1 0 .1z"/><path d="m48.6 66.1-.1.1-.2-.2v-.1z"/><path d="m60.7 66.6-.1-.1.1-.1.1.1z"/><path d="m57.7 66.5-.1-.1v-.1z"/><path d="m47.4 66.7-.1.1-.1-.1v-.1z"/><path d="m49.5 63.3-.1.1zq-.1 0 0 0"/><path d="M54.9 63s.1.1 0 0q.1.2 0 .2h-.1z"/><path d="M55.7 67.2q-.1 0 0 0h-.2l.1-.1z"/><path d="M48.6 63.2q-.1 0 0 0l-.1-.1h.1q-.1 0 0 .1"/><path d="M45.5 52.4v-.2h.1l.1.1z"/><path d="m63.3 67.6-.1-.1zl.1.1z"/><path d="M62.1 62.7s.1 0 0 0v.1z"/><path d="m56 68-.1.1-.1-.1.1-.1z"/><path d="m46.5 68.2-.1-.1zl.1.1z"/><path d="m44.7 53-.1.1h-.1V53z"/><path d="m44.6 54.4-.1.1-.1-.1z"/><path d="m53.1 64.6-.1-.1z"/><path d="m59.1 61.2.1.1-.1.1-.1-.1z"/><path d="M48.4 61.3s.1.1 0 0v.2s-.1-.1 0-.2"/><path d="m46.8 60.8-.1-.1.1-.1.1.1z"/><path d="M49.4 60.3q0 .2 0 0v.2q-.2 0 0-.2 0 .1 0 0"/><path d="M46.4 60.2s.1 0 0 0q.1-.1.1 0zq.2.2 0 0"/><path d="m45.6 60.2.1.1-.1.1s-.1-.1 0-.2"/><path d="m57.5 64.9-.1.1-.1-.1.1-.1z"/><path d="M59.6 60h-.1v-.1q0-.2.1.1 0-.1 0 0"/><path d="m52.6 59.2.1.2v.1h-.1z"/><path d="M55.5 55.4s-.1 0 0 0l.1-.1z"/><path d="M60.3 58.8s.1-.1 0 0l.2.1z"/><path d="m50.6 58 .1.1-.1.1-.1-.1z"/><path d="M64.1 65.5h-.2l-.1-.1h.1z"/><path d="M43 47.5q0 .2 0 0v.1zq0 .2 0 0"/><path d="M46.1 63.8h-.2v-.1h.2q-.1 0 0 .1"/><path d="M48.9 65.6h-.2v-.1z"/><path d="m65.5 63.5.1.1-.1.1zq-.1 0 0 0"/><path d="M57.7 62.4v.1q-.1 0 0-.1"/><path d="M56.9 61q0 .2 0 0h-.2z"/><path d="M49.6 68.1s0-.1 0 0q0-.1 0 0 0-.1 0 0"/><path d="M59.2 67.8q-.1 0 0-.1-.1 0 0 0"/><path d="M48.1 67.6q-.1 0 0-.1-.1 0 0 0"/><path d="M50.5 55.7q-.1.2 0 0h-.1z"/><path d="M46.3 67.6h.1l.1.1z"/><path d="M56.2 67.5h-.1l-.1-.1zq-.1 0 0 0"/><path d="M48.8 55.1q0 .2 0 0 0 .2 0 0"/><path d="M53.8 62.9s0 .1 0 0h-.1z"/><path d="M63.2 57H63z"/><path d="M60.2 56.3q-.1 0 0 0H60q0-.1.2 0-.1-.1 0 0"/><path d="M45.7 53.8v.1zq-.1 0 0 0"/><path d="M47.4 61.4s-.1 0 0 0q-.1 0 0 0"/><path d="M51.1 63.2s-.1 0 0 0q-.1-.1 0-.1z"/><path d="M61.2 64.1h-.1z"/><path d="M55 61.5s-.1.1 0 0h-.1z"/><path d="M44.6 55.4q0-.2 0 0 .2 0 0 0 .2 0 0 0"/><path d="M66.2 63.5s-.1 0 0 0"/><path d="M48.5 69.2q0 .2 0 0 0 .2 0 0"/><path d="M48 52.8v.1l-.1.1z"/><path d="M62.7 58.7s.1 0 0 0v.2z"/><path d="M67.2 60.1s-.1 0 0 0 0-.1.1 0q-.1-.1 0 0"/><path d="M51 65.4q0-.1 0 0 0-.1 0 0"/><path d="M54.9 58.7s.1.1 0 0v.2z"/><path d="M61.1 58.5q-.1 0 0 0H61q-.1-.2.1 0-.1-.1 0 0"/><path d="M55.2 69.1s-.1 0 0 0H55z"/><path d="M47.9 61.8v.1z"/><path d="M61.9 58.3q0-.1 0 0 0-.1 0 0 0-.1 0 0 0-.1 0 0"/><path d="M52.7 66.2s0 .1 0 0"/><path d="M47.5 68.8q-.2 0 0 0h-.1zq-.2 0 0 0"/><path d="M55.6 68.5q.2 0 0 0"/><path d="M77.1 68.8h.3l.6.4-.1.1q-.5.3-.9.1l-.4-.2-.1-.2.2-.2z"/><path d="m77.1 59.2-.1.1-.4-.1-.3.1-.3.1-.5-.3V59l.5-.3h.3l.5.4z"/><path d="m77.2 62.3-.1-.1.1-.2q.3-.2.6-.1.5.4.2.9-.2.2-.4 0l-.1-.2q.4-.4-.3-.3"/><path d="M71.2 67.1q0 .4-.3.7H70l.1-.1.8-.7.2-.1z"/><path d="m77 67.2.2.3q.2.2 0 .3l-.2.4q-.1.2-.3 0-.2-.4.1-.6t.1-.3zq-.1 0 0 0"/><path d="m70 62.5.1.2-.1.1-1-.7V62l.1-.1.3.1.4.1z"/><path d="M73.3 72.3c-.3.2.3.3.1.5l-.5.2-.1.1-.1-.1q.1-.4.5-.9z"/><path d="m68.6 68.8-.2-.1.1-.1q.7-.5 1.3-.6h.1l-.1.1z"/><path d="m64.1 72.3.6.6-.1.1q-.6 0-.7-.5z"/><path d="m72.4 65-.3.7H72l-.3-.3v-.2q.5.2.6-.3zq-.1-.1 0 0"/><path d="m70.8 55.9-.1.1q-.5-.2-.2-.7l.2-.1.1.1z"/><path d="M74.9 61.5q.5.1.4.5l-.1.1-.3-.2-.2-.2z"/><path d="M71.9 73.6q0 .3-.3.4-.4.1-.7-.1v-.1l.1-.1z"/><path d="M61.6 72.1q.7.1.6.5v.4l-.2-.3z"/><path d="m76.3 70.4.7.3zq-.1.2 0-.1 0 .1 0 0"/><path d="m72.9 66.6.2.1v.2l-.6.4h-.2v-.2z"/><path d="m61.5 71 .5.1.3.2v.2s-.1.1-.2 0q-.5-.1-.6-.5"/><path d="m75 71.8.1-.2h.2l.1.1.2.4h-.1q-.5 0-.5-.3"/><path d="m76.1 69.6-.2.1-.3-.2q-.3-.1-.1-.4.3 0 .4.2z"/><path d="m74.7 56.8-.2.1-.3-.3q-.3-.2-.1-.3l.4.1z"/><path d="M76.8 63.6v.2l-.1.1-.2-.1v-.3l.2-.3q.2 0 .1.3z"/><path d="m74 70.8.3.3-.2.2-.2-.2z"/><path d="m71.1 59.4-.1.2h-.1l-.1-.5.1-.1z"/><path d="m68.4 67.6-.3.1q-.4 0-.3-.3l.2-.1z"/><path d="m75.8 71.5-.1-.2.3-.3.1.2q0 .2-.3.3"/><path d="m65 74.4-.4.3h-.1v-.2q.1-.2.5-.2-.1 0 0 0"/><path d="m68.8 63.4.1.5-.1.1-.1-.1-.1-.3z"/><path d="m74.7 66.7.2.3v.3h-.1l-.2-.4q-.1-.2.1-.2"/><path d="m63.1 73.5-.2.1-.3-.1v-.1l.4.1q0-.2.1 0"/><path d="M63.5 74.7h-.2l-.1-.1.2-.1h.2l.2.1z"/><path d="m76.1 57.7.3.3-.1.1-.3-.2z"/><path d="m63.5 70.1.3.3-.2.2-.2-.2q-.1-.1.1-.3"/><path d="m69 72.6-.2.1-.4-.3.2-.1z"/><path d="m64.2 73.6.3.4-.1.1-.3-.3z"/><path d="m69.4 60.1.3.4-.1.1-.3-.1-.1-.3z"/><path d="m72.3 72.8-.3.2-.2-.1q0-.3.2-.3z"/><path d="m73.8 65.1.3.3-.2.1-.2-.2z"/><path d="M67.1 70.4h.2l.1.1-.1.1-.4-.1z"/><path d="m69.3 57.7.2.1.2.2-.1.1-.2-.2z"/><path d="m78.2 67.6.2.4-.1.1-.3-.3z"/><path d="M66.3 70.6h.3l-.1.1h-.6zq-.1 0 0 0"/><path d="M74.7 64.3q-.1.3-.4.2v-.1l.3-.2z"/><path d="m69.9 74.3-.1-.2.2-.3.1.2z"/><path d="m66.5 73.9-.1-.2.2-.2.1.2z"/><path d="m73.2 59.5.2-.2.2.1-.1.2z"/><path d="m74.6 71.9-.4.2-.2-.2.2-.1q.1-.1.4.1"/><path d="m71.5 70.5.1.3-.1.2-.1-.2q-.1-.1.1-.3"/><path d="M78.8 67.2q.4-.1.3.2l-.2.1z"/><path d="m74.1 67.2-.4.2-.1-.1z"/><path d="m75.8 57.5-.3.2-.1-.2.2-.2z"/><path d="m75 68.1-.3.2-.1-.2.2-.2z"/><path d="M61.5 71h-.2l-.1-.2.1-.1z"/><path d="m78.6 63.8-.2-.2.1-.2.2.1q.1.2-.1.3"/><path d="m74.4 55.7-.2.2-.2-.2.2-.1z"/><path d="M69.3 57.6q-.4 0-.4-.4.4.1.4.4"/><path d="m72.2 55.8-.2.1-.1-.2.2-.1z"/><path d="m71.5 61.5-.2-.2.1-.1.2.1z"/><path d="m70.6 74.7.2.2-.1.2-.2-.1z"/><path d="m68.7 74.4-.3.2-.2-.1.1-.2z"/><path d="m61.7 72.1-.2-.2v-.2h.1l.1.2z"/><path d="m72.8 73.6.1.2-.2.1-.1-.1z"/><path d="m74.6 60.5.2.2-.1.2-.2-.1q-.1-.2.1-.3"/><path d="m65.9 71.9.2-.1.2.1-.2.1z"/><path d="m75.2 70.4-.3.1-.2-.2.2-.1z"/><path d="m61.6 73.5-.2-.3.1-.1.3.2z"/><path d="m77.4 61.6-.2.1-.2-.1.1-.1h.2z"/><path d="m75.5 62.7-.2.1-.1-.2.2-.1z"/><path d="m66.6 74.4-.2.1-.2-.1.1-.1z"/><path d="m73.5 65.9-.2.2-.2-.1.1-.2z"/><path d="m74.3 59.1-.2.1-.1-.2.2-.1z"/><path d="m73.8 68.8-.2.2-.1-.1.1-.1z"/><path d="m73.1 72-.2-.2.2-.1.1.1z"/><path d="m67.5 75.1-.2.1-.1-.2.2-.1q-.1.1.1.2"/><path d="m71.6 73-.2-.1.1-.2.1.1z"/><path d="m74.8 57.5-.1.1-.1-.1.1-.1z"/><path d="m76.5 62.2.2-.1.1.1-.1.1q-.2.1-.2-.1"/><path d="m68.8 63.1.2.3-.3.1z"/><path d="m69.6 63.7-.1-.2.1-.2.1.1z"/><path d="m78 63.6.1.2h-.2l-.1-.1z"/><path d="m70.9 63.9-.3.1-.1-.2.1-.1z"/><path d="M72.9 55.9v.1l-.2.2-.1-.1.1-.2z"/><path d="m69.6 69.8-.2.2h-.1z"/><path d="m75.7 70.5-.1-.2.1-.1z"/><path d="m70.4 70.9.1-.2z"/><path d="m69.8 71.3-.2.1-.1-.1.1-.1z"/><path d="m65.6 71.4-.2.1-.1-.1z"/><path d="m67.6 71.7-.2.1-.1-.1.1-.1z"/><path d="M77.3 63.5h-.2v-.1l.1-.1z"/><path d="m67.2 69.8-.2.2-.1-.1.1-.1z"/><path d="M71.4 64.3q0-.1-.1 0"/><path d="m66.2 70-.3.1-.1-.1.1-.1z"/><path d="m74.6 63.9-.1-.1.1-.1.1.1z"/><path d="m69.6 61.6.1-.1.1.1-.1.1z"/><path d="M78.6 63.1q-.1 0 0 0h-.2l.1-.1z"/><path d="M73.6 55.9q.2 0 0 0v.1s-.1-.1 0-.1"/><path d="m75.6 56.7-.1.1-.1-.1.1-.1z"/><path d="M70 72q0-.1 0 0l.2.1z"/><path d="m67.6 73.5-.2.1-.1-.1.1-.1z"/><path d="M74.9 71.1s.1-.1 0 0l.2.1z"/><path d="M72.9 56v-.2l.2-.1-.1.2z"/><path d="M73.8 58v-.1h.1z"/><path d="m75.5 58.3-.1-.2.1-.1s.1.1 0 .1q.1.1 0 .2"/><path d="m77.3 64.5-.2.1-.1-.1.1-.1z"/><path d="m69.2 69.5-.2.2-.1-.1.1-.1z"/><path d="M68.3 66.6s-.1 0 0 0"/><path d="M78.8 67.2q0-.1 0 0"/><path d="M73.7 64.2q0-.1-.1 0"/><path d="M71.3 62.7s0-.1 0 0l.2-.1v.1z"/><path d="M77.8 68.4q-.1.2 0 0h-.2v-.1z"/><path d="m78.6 61.7-.1.1h-.1z"/><path d="M73.8 69.6s.1-.1.1 0"/><path d="M77.1 70.1h-.2q.1-.1.2 0 0-.1 0 0"/><path d="m62.5 70.1-.1.1s-.1-.1 0-.1zq-.2 0 0 .1"/><path d="M63.7 73.2h-.2q.1-.1.2 0"/><path d="m71.9 73.6.1-.2.1-.1z"/><path d="M70.6 74.1s0 .1 0 0 .1-.1.1 0"/><path d="m69.3 55.4-.1.1-.1-.1zq-.1 0 0 0"/><path d="M69.4 58.4q0 .1 0 0h-.2v-.1z"/><path d="M68.8 65.4q.2 0 0 0 .2.2 0 0"/><path d="M75.5 66q-.1 0 0 0"/><path d="M77.9 61.5q0-.2 0 0v-.1zq0-.1 0 0"/><path d="M75.1 57.1q-.1 0 0 0V57z"/><path d="M68.3 73.6q.2 0 0 0 0 .1 0 0 0 .2 0 0"/><path d="M69.3 65.1q.1 0 0 0"/><path d="M75.4 67q-.1.2 0 0-.1 0 0 0"/><path d="M74.1 66.6q-.1 0 0-.1"/><path d="M69.4 73.8s0-.1.1 0"/><path d="M76.7 69.8s-.1.1 0 0h-.2z"/><path d="M62.4 74s-.1 0 0 0q-.1 0 0 0-.1-.1 0 0 0-.1 0 0"/><path d="M62.9 74.1q-.1 0 0 0-.1 0 0 0l-.1-.1z"/><path d="M62.7 72.8s.1-.1 0 0h.1zq.2 0 0 0"/><path d="M62.8 72.4q-.1 0 0 0-.1 0 0 0-.1-.1 0-.1-.1 0 0 .1"/><path d="M73.8 72.7q.1 0 0 .1.2 0 0 0"/><path d="M77.5 63.9s.1.1 0 0v.2z"/><path d="M68 68.8q0 .2 0 0"/><path d="M72.5 66q-.1 0 0 0h-.2l.1-.1z"/><path d="M71.3 64.7s0 .1 0 0q0 .2 0 0"/><path d="M58.8 19.2h-.1v-.1zq0-.1 0 0"/><path d="m67.7 25.3-.1-.1zq0-.1 0 0"/><path d="M64.8 23.6v.1z"/><path d="M64.5 22.5q0 .2 0 0 0 .2 0 0"/><path d="M52.8 39.9q.3-.4.7-.2l.9.1.1-.1-.1-.1-.8-.1-.5-.1q.2-.3.5-.1.8-.1 1.5.1l.3.1q.4.1.1.5t.2.4l1.2.1q.6.2 1.1-.3l.3-.1q.5 0 .5.3t-.3.3q-.6.2-1.3.1l-1.7-.1-1.6-.2-.1-.1.1-.1.7-.1-.8-.3z"/><path d="m56.7 36.1.8.9.4.4s.1.1 0 .2h-.2q-.5 0-.6-.5 0-.7-.7-.6-.2 0-.2-.2 0-.7-.7-.9h-.7l-.2-.2.2-.1q.3-.1 0-.2l-.8-.7-.1-.3.3.1 1.4 1.2q.7.4 1.1.9"/><path d="m52.8 39.9.1.4h-.5l-3.2-1q-.3 0-.5-.3h.6l2.8.8z"/><path d="M49.2 29.4q-.1.2 0 0h-.4q-.3 0-.5-.3-.1-.3-.5-.2t-.4-.2-.2-.3l-.5-.4q-.2-.2-.1-.3h.3l.6.4 1.5 1.2z"/><path d="m50.1 38.8.1-.1q.4.1.7-.2h.4l1 .4.1.1-.1.1q-.7.2-1.6 0l-.5-.2z"/><path d="m56.8 30-.4.3q-.2.2 0 .4l.4.1h.3v.2l-.3.4-.2.3-.2-.3-.3-.7-.2-.6.5-.1.3-.1q-.3 0 .1.1"/><path d="m52.2 36.1-1-.3q-.2-.1-.3-.4t.1-.5.5 0q.6.3.9.9v.2zm-.4-.5-.4-.2q-.2-.2-.3-.1l.1.3.4.2z"/><path d="m53 29.6.3.2.8 1.3v.2h-.2l-.3-.3-.8-1q-.2-.3.2-.4"/><path d="m54.6 32.9-.2-.1-1.2-1.2-.2-.3-.1-.3.3.1 1.4 1.6z"/><path d="m51.7 29.5-.2.3h-.3l-.9-.8v-.2h.2l.3.2q.2.2.5.1.3-.2.4.4"/><path d="M47.2 30.5q.4 0 .5.6-.1.4-.5.4-.5-.1-.4-.5t.4-.5"/><path d="M53.2 36.1h.2l1.3.7.1.2-.2.1a2 2 0 0 1-1.3-.7q-.2-.2-.1-.3"/><path d="M48.2 31.5q.6.2 1 .9v.1l-.2.1q-.6-.2-1-.8v-.2z"/><path d="m52.7 37.6.8.2q.3 0 .1.3-.2.4-.3 0-.3-.4-.8-.1-.3.2-.4-.2l.1-.2h.1q.3.2.4 0"/><path d="M55.2 33.5h.1l.4.5v.3l-.3.1q-.4-.2-.2-.9 0 .2 0 0"/><path d="m47.3 29.8-.2.4c-.2.1-.5-.3-.5-.4l.3-.3q.4-.2.4.3"/><path d="m54.6 35.9-.1.1q-.4 0-.7-.4v-.2s.1-.1.1 0z"/><path d="M47 33.7h-.3l-.2-.2.2-.2h.3l.2.3z"/><path d="m56.2 33.5-.2.2q-.2 0-.3-.4l.2-.2q.4 0 .3.4"/><path d="m55.8 41.6-.5-.2-.1-.1.1-.1.5.1.2.2z"/><path d="m47.7 37.6.4.2q0 .2-.5.2h-.1l-.2-.2.2-.1z"/><path d="m49 33.1.6.4v.1h-.1l-.6-.3v-.2q0 .1.1 0"/><path d="m50.5 31.5.7.4v.3H51z"/><path d="m55.5 31.9-.1.1h-.2l-.2-.3.1-.2.2.1z"/><path d="m50.5 31.5-.6-.4V31s.1-.1.2 0q.4 0 .4.5"/><path d="m54.8 38.1.3.3-.3.2-.3-.2z"/><path d="m51.2 33.9-.3-.2v-.2h.3l.2.2z"/><path d="m54.6 29.2.2.2v.4h-.2q-.3-.2-.2-.5z"/><path d="m46.2 31.7-.2-.3.1-.1.3.3z"/><path d="m54.1 34.4-.1.2-.3-.2.1-.1z"/><path d="m45.9 37-.3.1-.3-.2.3-.1z"/><path d="m44.6 37.3-.2-.1-.1-.1.1-.1h.2l.1.2q.1.1-.1.1"/><path d="m61.4 41.4-.2-.2.2-.1.2.1z"/><path d="m49.6 35-.2.1-.2-.1.1-.1z"/><path d="m48.7 34.4-.2-.2.2-.1.2.2z"/><path d="m46.1 35.4-.1.1-.3-.1.1-.1z"/><path d="m57.9 35.2-.1.1-.2-.1.1-.2z"/><path d="m45 34 .2.2-.1.1-.2-.1z"/><path d="m52 37.8-.2.1-.1-.1.1-.1z"/><path d="m56.2 29.1.1.2-.2.1-.1-.1z"/><path d="m49.1 30 .1.1-.1.1-.2-.1z"/><path d="m58 35.8.1.1-.1.2-.1-.1z"/><path d="M60.6 41.6s0 .1 0 0q-.1.1-.1 0z"/><path d="m45.9 27.5-.2.1-.1-.1.1-.1z"/><path d="M46.3 27.5q0 .2 0 0l-.1.3-.1-.1z"/><path d="M45.6 28.4h-.1l-.2-.1.1-.1z"/><path d="m55.6 29.4.1.2-.1.1-.1-.1z"/><path d="M56.6 32.2q-.1 0 0 0V32l.1.1z"/><path d="M52.3 33.2v-.1h.1v.1z"/><path d="m56.5 35.3-.1.1-.1-.1.1-.1z"/><path d="m57.4 36.3.1-.1.1.1-.1.1z"/><path d="m47.8 36.8-.1-.2.1-.1.1.1z"/><path d="M50.8 37.4q0 .2 0 0l-.1.1zq0 .1 0 0"/><path d="m56.7 36.1.1-.2.2-.1v.2z"/><path d="m44.5 36.6-.1.1-.2-.1.1-.1z"/><path d="M49.7 37.2h-.2v-.1l.1-.1z"/><path d="M59.9 41.7s-.1 0 0 0h-.1l.1-.1z"/><path d="M49.6 29.8s-.1.1-.1 0l-.1-.1h.1z"/><path d="M45.9 33.3q0 .2 0 0l-.2.1z"/><path d="M53.2 33.7s-.1 0 0 0l-.2-.1q.1-.1.2.1 0-.1 0 0"/><path d="M49.4 34.3q0 .1 0 0h-.2l.1-.1z"/><path d="M47.8 36q-.1 0 0 0-.1 0 0 0-.1 0 0 0-.1 0 0 0"/><path d="M47.3 35.7s.1.1 0 0q.2.2 0 0 0 .2 0 0"/><path d="M46.9 35.6h.2q-.2.1-.2 0"/><path d="M45.2 35.1s0 .1 0 0"/><path d="M45.2 32.9s-.1 0 0 0q-.1 0 0 0-.1 0 0 0"/><path d="M45.6 28.4s.1.1 0 0q.2.2 0 .2z"/><path d="M49.9 28.4q-.1 0 0 0-.1 0 0 0-.1 0 0 0"/><path d="M58.4 41.7h-.2z"/><path d="m41.9 56.3-.4 1.1q-1 .6-.8-.5-.1-.6.1-1.2l-.1-.4c-.2-.4 0-.8-.3-1.1V54q.2-.3.6-.1c.4.2.1.2 0 .4q-.2.5.1.9l.3.2.6.2.2.2-.3.2-.4-.2h-.3l-.1.3.1.4v.4l.2-.3q.2-.3.5-.3"/><path d="M53.2 72.2q.5 0 .8.4t.7.5c.2 0 .3.7.2.9h-.1q-.4-.4-1-.3h-.2v.2q.2.1 0 .3l-.3-.1-.4-.6q-.1-.2.1-.3h.2q.5-.1.2-.6z"/><path d="m41 61.7.2-.3q.4-.2.4-.6l.1-.2.2-.1.1.2q-.1.5.4.6.3 0 .2.3-.2.3-.6.3l-.2-.1-.2-.1-.1.2q-.2.4.3.5l.1.1-.1.2q-.4.1-.6-.2z"/><path d="m41.5 57.4 1-.1q.4 0 .4.4l-.1.1H42q-.2 0-.2.2 0 .4-.3.6h-.1v-.1q.3-.1.1-.4z"/><path d="m51.5 71.8 1 .1.1.1.3.6q0 .2-.2.2l-.8-.4-.4-.1-.2-.2z"/><path d="M40.7 49.5q-.3.1-.5-.1t.4-.3h.3q.3 0 .3.3t-.3.2z"/><path d="M42.5 50.4q.2.5-.3.8H42v-.3q.3-.1.1-.4l.1-.1z"/><path d="M41.7 54.1q-.1-.3.2-.5h.5l.2.3q0 .2-.2.1-.4-.2-.7.1"/><path d="m41.5 59.4.2-.6q.3-.1.4 0l-.1.5z"/><path d="M41.7 53.4h-.2q-.2-.3 0-.6h.3v.3z"/><path d="m41.2 52.3-.3.3-.2-.1v-.1l-.1-.4h.2z"/><path d="m41.3 53.3-.4.2q-.2 0-.2-.3t.2-.3z"/><path d="m40.8 59.1.1-.2.2.1.1.2q.2.2 0 .3l-.2.1-.2-.2z"/><path d="m42.4 52 .3.1.1.2-.2.1-.3-.1-.1-.2z"/><path d="M44.4 71.3q-.1 0 0 0l-.5-.3.1-.1h.4l.1.2z"/><path d="M41.2 58v.1l-.3.3-.1-.1q0-.3.2-.4z"/><path d="m41.4 60.4-.3.2q-.2 0-.2-.4l.2-.1z"/><path d="m72.8 76.5-.2.2-.2-.3.2-.2z"/><path d="M42.9 66h.4l.1.1-.1.1-.3.1q-.2.2-.1-.3"/><path d="m40.7 50.7.2.3-.1.2-.3-.2z"/><path d="m45.8 70.8-.2.1-.1-.2.1-.2z"/><path d="m40.7 50.4-.3-.4h.1q.3.1.2.4"/><path d="m42.9 54.5-.2.2-.1-.2.1-.2z"/><path d="m47.3 75.4-.2.1-.3-.2.1-.1z"/><path d="M41.9 56.3q0-.3.3-.2l.2.1-.1.1z"/><path d="m41.2 51.5.3-.2.1.2-.3.2q.1-.1-.1-.2"/><path d="m42.1 54.7-.1-.1.1-.2.1.1z"/><path d="m43.4 62.5-.2.2-.2-.1.2-.2z"/><path d="m52.6 78.3-.2.2-.1-.1.1-.1z"/><path d="m41.4 50.4-.1.1-.2-.2.1-.2z"/><path d="m43.3 60.9-.2.1-.2-.1.1-.1z"/><path d="M41.6 54.1v.1l-.1.3h-.1z"/><path d="m55.9 75.3-.2.1-.1-.2.1-.1z"/><path d="m46.3 71.6.1-.2h.2v.1l-.1.1z"/><path d="m53.3 72.2-.2-.3.1-.1z"/><path d="M47.1 72.7h.1l.3.1-.1.1q-.2.1-.3-.2"/><path d="m53.6 78.5-.2.3-.1-.1z"/><path d="M43.4 70.5q-.1-.1 0 0l.1-.2z"/><path d="m50.5 77.5-.1-.1v-.1z"/><path d="M43.9 67.2h-.1v-.1zq-.2 0 0 .1"/><path d="m43 57.1-.1-.3h.1s.1.1 0 .1q.2 0 0 .2"/><path d="m52.5 73.5-.1.1h-.1v-.1q.2-.1.2 0"/><path d="m43 58.4.1.2-.1.1-.1-.1z"/><path d="M42.7 51.6v.1z"/><path d="M41.7 49.5h.1zq.2 0 0 0"/><path d="M73.7 77.7q-.1-.1 0-.1z"/><path d="M40.5 56.4s-.1 0 0 0h-.2q.1-.2.2 0 0-.1 0 0"/><path d="M42.4 60.4s-.1 0 0 0q-.1 0 0 0-.1-.1 0 0"/><path d="M41.1 48.6v.1z"/><path d="M42.6 62.1s0 .1 0 0v.1zq-.1.2 0 0"/><path d="m45.2 42.5.5-.1.4.2v.5l-.2.3q-.2.3-.4 0c-.4-.3-.4-.3-.3-.9m.7.4.1-.1q-.2 0-.1.1-.2 0 0 0"/><path d="M47.1 46.7q.5 0 .5.5t-.4.4q-.5 0-.6-.5t.5-.4m0 .6.1-.2-.1-.1-.1.1z"/><path d="M51.7 46.7q-.1.5-.7.8l-.2-.2q0-.5.5-.8.4-.1.4.2"/><path d="M55.2 43.7v.2l-.6 1-.2.1v-.2l.3-.6.4-.5z"/><path d="M48.8 47.3v.2l-.8 1.1h-.2s-.1-.2 0-.2q.3-.7 1-1.1"/><path d="m50.8 45.5-.8.9h-.2v-.2l.9-.9h.1z"/><path d="M55.6 44.8s-.1-.1 0-.1l.6-1.2.1-.1v.1q0 .7-.7 1.3"/><path d="m52.5 50.7.2-.6.2-.1.1.2q0 .5-.3.9l-.2.1z"/><path d="M49.5 48.7v.1l-.6.4-.1-.1V49q.2-.4.7-.3"/><path d="M49.6 44.8q-.3-.2-.2-.5.2-.3.3-.2h.2v.2z"/><path d="m47.9 43.1-.4.3-.2-.2.4-.3z"/><path d="m49.8 43.2-.1.1-.2.2-.4.3q0-.4.2-.5l.3-.2z"/><path d="m54.2 45.6-.3.2-.4-.1v-.1l.4-.1q.2-.1.3.1"/><path d="m49.3 42.3-.3.2h-.3v-.1l.4-.2q.1-.1.2.1"/><path d="m52.7 43.8.4.6-.1.1-.5-.5z"/><path d="m47.5 42.5-.3-.2.2-.1.3.1z"/><path d="m61.3 48.5-.4.3-.1-.1.3-.3z"/><path d="M50.5 47.6h.1v.2q-.2.4-.4.3v-.2z"/><path d="M51.1 42.7q0-.1 0 0l.3-.4.1.1z"/><path d="m49.9 45.5-.1-.2.2-.3.2.1z"/><path d="m44.8 41.6-.2.2-.2-.1.1-.2q.2-.1.3.1"/><path d="m50.8 49.9-.1-.2.2-.2.1.2z"/><path d="m48.3 46-.2.2-.2-.1.1-.2z"/><path d="m45.2 42.5-.2-.1-.2-.2.1-.1.2.2z"/><path d="M47.4 45.7v-.2l.2-.2h.2l-.1.2z"/><path d="m47.2 44.3.1.1-.2.2-.1-.1z"/><path d="m46.9 42.9.2.2-.1.1-.2-.1z"/><path d="m53.4 43.8-.1-.1.1-.2.1.1z"/><path d="m52.7 47.8-.1-.2.1-.1.1.1z"/><path d="M48.8 47.3s0-.1 0 0V47h.1z"/><path d="m52.3 45.7-.2-.3.2-.1.1.1z"/><path d="m45.4 41.1-.1.1-.1-.1.1-.1z"/><path d="m45.6 42-.2-.1.1-.1.1.1z"/><path d="m49.6 41.9.1.1v.1h-.1z"/><path d="m55.4 46.6-.2.1-.1-.1.1-.1z"/><path d="m53.3 47.9-.1.1h-.1l.1-.1z"/><path d="m52 48.9-.1-.2.1-.1.1.1z"/><path d="M54.1 50.3q0 .2 0 0v.2q-.1 0 0-.2 0 .1 0 0"/><path d="m50.2 43.1.1.1-.1.1z"/><path d="M54.3 46.7h-.1s0-.1.1 0"/><path d="M44.7 42.9q.2 0 0 0v.1s-.1 0 0-.1"/><path d="m51.8 42.7.1.1-.1.1h-.1z"/><path d="M45.8 46h.2v.1z"/><path d="M57 43.7s-.1 0 0 0v-.1z"/><path d="M48.4 44.9s-.1 0 0 0h-.2q.1-.2.2 0"/><path d="M45.3 44.8s0 .1 0 0q0 .2 0 0"/><path d="M68.8 28.8h-1.3l-.1-.1.1-.1.7-.1 2-.1 1.8-.1.2.1-.2.1-1 .1z"/><path d="m60.1 28.6-.3.1-.2-.2.2-.1z"/><path d="M62.8 32.6h-.3.5z"/><path d="m61.6 32.6-.3.1-.1-.1.3-.1z"/><path d="m60.5 28.9-.1-.2.1-.1.1.1z"/><path d="m63.6 30.1-.1-.2.1-.1.1.1z"/><path d="M64.5 29.8q-.1.2-.1 0zq0-.2 0 0"/><path d="m83.9 27 .4-.1.1.1-.3.2z"/><path d="m85.6 27.3-.2-.1.2-.2.1.1z"/><path d="M84.4 27.8q0 .2 0 0l-.2-.1z"/><path d="M71 36.4q-.4 0-.2.3t.1.4q-.3.2-.4-.2-.1-.1-.2 0 0 .1-.2 0l-.4-1.3v-.1c.5-.3.1-.7 0-1v-.1h.1l.4.4.2.1c.8 0 .8.6.8 1.1q.2.5-.2.4m-.1-.7q0-.3-.3-.5h-.2v.1q.2.1.1.4l.1.1.2-.1q.1.2.1 0"/><path d="M68.2 35.8h-.5l-.2-.1.1-.1 1-.2q.5 0 .8.4t.4 1q0 1.6-1.4 2.1l-.2.1-.3.3-.4-.4q-.2-.2.1-.2l1-.2q.4 0 .7-.5.4-.7.2-1.5t-1-.7z"/><path d="M67.5 34.6q0 .2 0 0l-.2.2c-1.3.1-2.1 1-3.1 1.7l-.4.2.2-.3a6 6 0 0 1 3-1.7z"/><path d="m70.4 38-.1.2q-.4.1-.4.6l-.2.2q-.1 0 0-.2c-.1-.4.4-.7.4-1.1h.1z"/><path d="m66.4 37.5-.1-.3.5-.7h.2v.2l-.4.8z"/><path d="M73 39.1h-.2l-.1-.2q.4-.5.8-.1v.2z"/><path d="M64.6 39.4s.1 0 0 0v.4q-.1.3-.4.1l-.1-.3.2-.1z"/><path d="m65.5 39 .2.1v.1l-.2.4-.1.2-.3-.3z"/><path d="m63 38-.2.3-.3-.1v-.3l.3-.2z"/><path d="m66.6 35.8-.1-.1v-.1l.4-.2.3.1-.3.2z"/><path d="m62.5 40.1-.3-.1-.2-.2h.3l.2.1.3.1z"/><path d="m67.1 40.1-.1.2-.2-.2v-.2l.2-.1.1.1q-.1 0 0 .2"/><path d="m65 39.2-.1-.2.4-.6h.1z"/><path d="M71.8 38.8q.4.5-.2.5-.3-.4.2-.5"/><path d="m63.9 39.2-.1-.1.2-.2.2.2q-.3-.1-.3.1"/><path d="m72.5 39.8-.1.1-.1-.3.1-.1z"/><path d="m66.3 36-.3.1-.1-.1.3-.2z"/><path d="M68.6 34.4h-.2v-.1h.2s.1 0 0 .1q.1 0 0 0"/><path d="m69.3 39.3.2.2v.1l-.3-.2z"/><path d="m68.9 35-.2.1-.1-.2h.1z"/><path d="m67.8 35.4-.3.1-.1-.1.2-.1z"/><path d="m72.4 37.7-.2.1-.1-.3h.1z"/><path d="m65 38.1-.3.1-.1-.1.2-.1z"/><path d="m65.6 36.2-.2.1-.1-.1v-.1z"/><path d="m64.9 37.1-.2.1-.1-.1.1-.1z"/><path d="m62.2 39 .1.1-.1.2h-.1z"/><path d="m63.8 39.5-.1.1-.1-.1.1-.1z"/><path d="m68.3 40-.2.1-.1-.1.1-.2z"/><path d="m71.1 37.9-.1.1s-.1-.1 0-.1l.2-.1z"/><path d="m71.5 39.3-.2.1-.1-.1z"/><path d="M68.6 39.3s.1.1 0 0v.2z"/><path d="M71.8 38.8v-.1z"/><path d="M71 39.6s-.1-.1 0 0q0-.1 0 0 0-.1 0 0"/><path d="m52.9 21.8.1.1.2.5q.1.4-.2.5-.5.2-.2.6.4.6.6 1.3l.2.5v.2l-.1-.1-1-2v-.5l.1-.4q-.1-.3.2-.3l.2-.3q-.2 0-.1-.1"/><path d="m52.4 25.1-.2.1h-.1L51 23.9v-.3h.3l.3.3.7 1.2q.1-.2.1 0"/><path d="m48 24.3 1-1h.1v.2l-1.2 1.4z"/><path d="m50.5 22.1-.1.2-.5.5q-.1.2-.5.3l.4-.5.6-.5z"/><path d="m49.8 24.1.2.1.2.7-.1.1c-.2 0-.5-.6-.5-.7z"/><path d="M52.7 20.3q0 .2 0 0l-.3.4-.6.3.4-.5.4-.2z"/><path d="m47.2 26.2.2-.6.3-.3-.1.5z"/><path d="M48.9 25.4h.2l.2.2-.1.1zh.1"/><path d="m51.9 20.5-.2-.2q0-.2.3-.3l.1.1z"/><path d="m53.8 23.1.2.4-.2.1-.2-.3z"/><path d="m52.8 19.2.1.3-.2.1-.2-.2z"/><path d="m53.4 26.2-.2-.3.1-.1.2.2q.1.1-.1.2"/><path d="m48 24.3-.3-.1.1-.2z"/><path d="m55.5 26.1-.2.1-.2-.1.1-.1z"/><path d="m51.8 25.9-.2.1-.2-.2.1-.1z"/><path d="m49.7 25.3-.2.1-.2-.1.1-.1z"/><path d="m50.2 21.8-.2-.1.2-.2.1.1z"/><path d="m51.2 20.9-.2.1-.1-.1.1-.1z"/><path d="m48.8 23.2-.2.1-.1-.1.2-.1z"/><path d="m55.2 24.6-.1.2h-.2v-.1l.1-.1z"/><path d="m51.5 21.3-.2.1v-.1zq-.1 0 0 0"/><path d="m49.3 22.2.1.1-.1.1-.1-.1z"/><path d="m47.2 24.8.1.1v.1h-.1q-.1-.1 0-.2"/><path d="m55.5 26.7-.1.1-.1-.1.1-.1z"/><path d="M54.4 20.4q-.1.2 0 0h-.2s.1-.1.2 0q-.2 0 0 0"/><path d="M55.4 25.3h-.1v-.1l.1-.1q-.2.1 0 .2"/><path d="m47.9 24.8-.1.2z"/><path d="M54.8 23.9s0 .1 0 0h-.2z"/><path d="M40.5 30.4h.1q0 .2-.1 0"/><path d="m42.7 23.6-.1-.1h.1l.1.1z"/><path d="m43.6 23.2.1.1-.1.1z"/><path d="M43.2 20.8s-.1 0 0 0q-.1 0 0 0-.1 0 0 0"/><path d="m64 44.8-.2-.6.1-.3.4.1q0 .6.4 1.2l-.1.1q-.5-.2-.9 0l-.2-.1.2-.1.3-.1q-.1 0 0-.2"/><path d="m68.3 43.2.8.4q.1.3-.2.3l-.6-.1zq-.1-.1.1-.1"/><path d="m70.2 44.9-.2.1-.9-.4q-.2-.2.1-.3h.3l.6.5z"/><path d="m65.6 44.9.3.2q.2.2.5.1.3 0 .2.2t-.3.2q-.5-.1-.8-.6zq-.1 0 0 0"/><path d="m68.6 45.8-.1.1-.6-.6v-.2l.1-.1.6.7z"/><path d="m69.5 42.8-.3.3-.3-.2-.1-.3h.3z"/><path d="M65.6 44.1v.2l-.1.1-.1-.1-.1-.2.1-.3z"/><path d="m67.5 44.2-.1.1-.1-.1-.1-.5.1-.1z"/><path d="M64.6 43.6v-.3l.2-.2.1.2v.2l-.1.2z"/><path d="M65.2 45.5H65l-.2-.2.1-.2h.1z"/><path d="m66.4 43.9-.2-.1v-.1l.1-.1.3.1.1.1-.1.1z"/><path d="m67.8 44.7-.1.1-.2-.2.1-.1z"/><path d="m69 46.2-.1-.1.1-.2.1.1z"/><path d="m66 46.2-.1.1-.1-.1.1-.1z"/><path d="m67.2 44.9.1.1-.1.1z"/><path d="M69.7 43.5s-.1 0 0 0q-.1 0 0 0-.1-.1 0 0"/><path d="M69.8 46.2s-.1.1 0 0h-.2zq-.1 0 0 0"/><path d="m53.9 53.5-.2-.2.1-.1.2.2z"/><path d="m57.9 52.7-.5-.2-.1-.1.1-.1q.5.1.6-.4l.3-.2.2.3q.1.7-.6.7"/><path d="m59 49.7-.1.2h-.1q-.4-.2-.4-.6l.1-.1z"/><path d="M58.2 51.2s0 .1 0 0l-.6-.1-.1-.3h.2l.4.2z"/><path d="m58.6 48.7.2-.2.1.2-.2.2q.1-.1-.1-.2"/><path d="m75.2 52.1-.1.1q-.4 0-.3.4l.3.7v.2s-.1.1-.2 0l-.3-.2c-.1-.3-.5-.6-.2-1.1V52q0-.4.3-.3.5 0 .5.4"/><path d="M77.3 52.4s0-.1 0 0l.2-.6.4.6q0 .4-.4.6l-.1-.1z"/><path d="M76.5 52.1q-.1 0 0 0-.4.2-.6-.1l.1-.1q.3-.2.5.2"/><path d="m76.9 51.4-.2.2q-.2 0-.2-.3l.1-.2z"/><path d="M75.5 51.5h-.2l-.2-.1.1-.1h.4v.1z"/><path d="m76.7 52.6-.1.1-.1-.1.1-.1z"/><path d="m77.9 53.4.1-.1.1.1-.1.1z"/><path d="M75.5 52.4v.1zv-.1z"/><path d="M76.7 53q0 .2 0 0v.2q-.1 0 0-.2-.1.2 0 0"/><path d="M77.1 52.2s0 .1 0 0q.1.1 0 .1zq-.1 0 0 0"/><path d="M75.8 54.8q0-.1.1 0 0-.1 0 0"/><path d="M76 52.5s0 .1 0 0q0 .2 0 0"/><path d="m82.3 70.7-.1-.2h.1s.1.1 0 .1q.1.1 0 .1"/><path d="m81.7 71.7-.2.1-.1-.1.1-.1z"/><path d="M60.8 36.1v.2l-.1.1-.1-.1q0-.3-.3-.3l-.2-.2.2-.2q.5-.2.5.5"/><path d="m61.7 37.2-.3-.2.1-.4h.2l.1.1z"/><path d="m60.1 36.4-.1.1q-.4-.1-.4-.5l.1-.1z"/><path d="M62.1 36.2q-.2 0-.2-.3h.1q.4 0 .1.3"/><path d="M60.3 38.3h-.1q0-.1.1 0 0-.1 0 0"/><path d="M63.4 35q-.2 0 0 0h-.1zq-.1 0 0 0"/><path d="M40.9 42q-.3 0-.5.3l-.1.3-.2.1-.1-.2v-.6l.1-.2c.4.2.2-.2.3-.3q.5.1.5.6"/><path d="m40.7 46.2-.2.1-.3-.1-.1-.3h.3z"/><path d="m39.8 40.9.3-.2.2.1-.4.2z"/><path d="m40.5 44.5-.2.1-.1-.2.1-.1z"/><path d="m39.6 41.5.1.1-.2.1-.1-.1z"/><path d="m40.2 43-.1.1H40V43z"/><path d="m40.9 40.9-.1-.2.1-.1.1.1z"/><path d="M40.4 43.5v.1l-.1.1h-.1z"/><path d="M40.6 41.5h-.2l-.1-.1h.1z"/><path d="M40.4 43.5v-.1zq0-.2 0 0"/><path d="m84.5 60.4-.2.2-.3-.2.2-.2z"/><path d="m84.5 57.2-.1-.2.2-.2.1.2z"/><path d="m84.6 57.9-.1.1-.2-.1.1-.1z"/><path d="m84.2 61.1.1.1-.1.1h-.1z"/><path d="m79.8 35.7.5.4.1.2-.1.1h-.5q-.3-.4 0-.7"/><path d="M84.6 35.2q.4 0 .3.3l-.1.1q-.2 0-.2-.4"/><path d="M84.4 35.2V35l.1-.2.1.2v.1z"/><path d="m80.8 59.5-.5.5-.1-.2-.2-.4-.2-.2q0-.4-.5-.5l-.1-.2.1-.1.3-.1q.4-.1.5.3l.4.6z"/><path d="M79.4 57.6q-.1-.4.2-.6.1-.1.3.1c.1.2-.1.8-.3.9l-.2-.1z"/><path d="M77.1 56.1 77 56l.1-.1.1.1z"/><path d="M79.3 59.4v-.2l.1-.1v.2z"/><path d="M78.8 57.6s-.1 0 0 0l-.1-.1h.1z"/><path d="M77.7 56.2q-.1.1-.1 0z"/><path d="m41.3 36.4-.1-.1h.1l.1.1z"/><path d="m40.9 36.6.1.2v.1h-.1z"/><path d="m41.9 38.4.1-.1.1.1v.1z"/><path d="m85.3 47.2-.3.4q-.3.1-.5-.2l-.1-.5.2-.1q.2.3.5.2z"/><path d="m84.1 46.2.8-.3.3.1-.2.3q-.4.5-.9-.1"/><path d="m84.9 42.8.2.2-.1.1-.1-.1z"/><path d="m85.6 43.2-.2-.1.1-.2.1.1z"/><path d="m85.4 42-.2.1-.1-.1.1-.1z"/><path d="M64.7 49.9q0 .2 0 0"/><path d="m70.9 53 .1-.1.1.2-.1.1z"/><path d="m60.1 76.4-.1-.5.1-.3.2.2q.4.3-.2.6"/><path d="M60.4 77h.1l.2.1-.1.2q-.2.1-.3-.1z"/><path d="m66.3 50.5.3-.2.3.3-.3.1z"/><path d="m72 42.8-.1.1-.1-.1zq.1-.1.1 0"/><path d="m80.6 51.3-.1.1-.1-.1.1-.1z"/><path d="m78.8 33.3.1.1v.1l-.1-.1z"/><path d="m122.2 161.7.1-.7-.1-.6z"/><path d="M122.5 156.3c-.1-.9-.2-2-.3-1.4l.2 2.2-.1 1.3.1 1.7zc-.1-.4-.1-.1 0 0"/><path d="M122.7 78.1v.5z"/><path d="M122.8 29.7v.5z"/><path d="M122.9 21.4v.5z"/><path d="M122.7 78.1v-1.3z"/><path d="M122.1 145.5v.7zq.2 0 0 0"/><path d="M122.8 99.5v.4l.1.3z"/><path d="M122.8 115.9q0-.5-.2-.6l.1.8z"/><path d="M122.6 141.8v.5z"/><path d="M103.5 161.1s0 .1 0 0q.2 0 0 0"/><path d="M122.5 161.7h-.3l-.1.1z"/><path d="M123.1 6.3q-.1 0 0 0 0 .6 0 0"/><path d="M4 22.8c.1-1.6.1 2.6.2.2 0 .2-.1-2.1-.2-.2"/><path d="M122.2 145.1v-.7z"/><path d="M4.3 23v-.2z"/><path d="M89.8 3.6h.4z"/><path d="M115.8 3.8h-.6z"/><path d="M76.3 3.8h-.9z"/><path d="M62.3 3.8h.7z"/><path d="m60.8 161.2.6.1c-.1-.1 1.9-.1-.6-.1"/><path d="M122.2 145.5v-.4zq0 .2 0 0"/><path d="M75.8 4.7h-2.2z"/><path d="M5 117.3v.5z"/><path d="m66.9 4.7-1.3-.1h-.3z"/><path d="M76.2 161c-2.1 0-1 .1-1.4.2-2.5 0-1.2-.1-2-.2l-4 .2q-.3 0 0-.1c-1.7.1-5 0-6.9.2h-.3l.3.2h-2.1l.9-.1h-1c-.9-.1 1.4 0 1.4-.2-1.9 0-4.2.2-5.7.1-.3-.1 3.5 0 1.5-.2l2.3.1c-1.8-.2 1.4 0-.2-.2-3 0-3.4.1-6.4 0-.7.1.2.1-.5.2-4.3.1-3.4-.3-6.6-.2-.8.1-1.1.3-3.4.2l.8-.2c-2.9 0-1.7.2-4.8.1l1.9-.1c-2-.1-1.4.1-2.9.1l-.3-.1-10 .1-13.6-.2-1.6.1q-.7 0-.3-.1c-1.6 0-.1.1-.9.1q-1.4 0-.6-.1l-4.7.1v-3l.1-2.9v.6c0-2.4-.2-2.7-.1-4.9v.4c.1-5.2-.1-10.9.1-14.8-.2-.7.1-5.1-.2-5.4.1-2.9.2-2.1.2-6.3l-.2-3h.1l-.1-1.9.1-1v-1.3l-.1 1v-3.2l.1-1.7-.1-4.8.1 1.5v-2.8c0 .3-.1-.2-.1-.2v-5.8l.1.4V90.5c0 1.4-.2 1.1-.2-.1H5c-.1-.7 0 1.2-.2-.3 0-1.5.2-1 .2-.1v-1.8l.1.3v-4.3l-.1-9-.1-2.2.1-7.8c-.1-2-.1-.6-.2-1.5.1-.1.1-3 .2-1.5l-.1-8.7-.1.7c0-.8 0-1.8.1-1.7v.2c-.2-4.9.3-11.2.1-15.1v.2l-.1-4c0-1.8.1 1.1.1-.2-.2-4.3 0-6.8-.1-10.4.3-2.8 0-9.8.2-13.5l-.1.1.1-1.8c-.1.1-.1 1-.1.4V4.6l10 .1 10.5.1c3.1 0 1.7-.4 5.6-.2l-1.1.1 18.7-.1-1 .1h2.8l1.9-.1c.9 0 .2.1.8.1h3.9-.6c.8 0 3.9 0 3.1-.1h6.1c1.2-.1 3.9.1 4.3-.1-.2.2 4 .1 5.4.1-.5.1 1.2.1.7.1 1.6 0 3.1 0 2.9-.1 3 .2 6.1-.2 7.8.1l13.7-.2c-.2.2-4.8 0-4.6.2l10.7-.2c1.1 0-.6.1-1 .1l11.7-.1h-.8c.7 0 1.7 0 1.6-.1h-.7c-1.2-.1 2.9-.3 3-.3-.6.1.3.1 1.1.2h.7l-.2.2h.2q0 .2.1.1v.5l-.1-.4.1 4-.1-.7c.1 1.2.2 2.4.1 4.4 0-.1-.1.1-.1-.5 0 3.4.2 5.8.1 9.6-.2-1.1-.1 1.3-.2 1.5v2l.1-.8.1 4.9-.1-1.3v3.3l.1-1.9c.1 1.8.2-.2.1 2.2l-.1 2.7.1 3.1c0 .3-.2-.3-.2-.1.1.9 0 4.1.2 5.2q0-.5-.1-.3l.1.7q0 1-.1.8c0 2.5.2-.8.1 2.1V45v8.4c-.2.8 0-2.4-.2-1.4 0 3.9.2 8.1.1 11.8v-.7c.2.5-.1 2.8 0 4.7l-.1-.5.1 9.2-.1-.5-.1 5.6c.1.5 0 1.4.1.9-.3 5.1.2 9.7-.1 14.2v-.9l.1 3.8.1-1.3.1 2.5c-.1-1.7-.2 0-.2.8l.1.1c-.2 2 .2.3.1 3.1v-.1l.1 3.1c-.1.5-.1-1.1-.1-1.2l.1 4.5-.1-2.3-.1 2.8v-.1l-.1 2.6v-.7c.3 1.9.1 3.9.2 6.6-.2-2.5-.1-.4-.2-.6l-.1 1.4c.1 1.2-.1 2.1.1 3.8 0 .1 0 1.3-.1 1 0 1.6.1-.4.1-.2.1 2.5-.2 5.8 0 9.4l.3 6.5c-.1 1-.1-.8-.1-.8v4.2l-.1.5.1 2.3-.2-1.2.1 4.2c-.1.4-.1-.9-.1-1.4l.2 4.7v-1q0 .7-.1-.1-.1-2 .1-2.1v1c.2-1 0-4.1 0-6.1l.2.9-.1-2.1c0-.4.1-.8.2.3V142v.1l-.1-1.4c0 .3.1-.2.1.6v-5.1.2c-.1-3.6-.1-.3-.3-3l.3-1.8-.1-.4c0-.4 0-1.1.1-1-.1-1.4-.1.2-.1-.6.1-1.8-.1-4.9.1-5.3-.1-.6-.1 1.7-.1-.2.2-.5 0-2.2.1-3.8.1.5.1 2 .1.4-.2-1 0-3.2 0-4.5l-.1-5.3.1-6.4v.1l-.2-4.2.2 1.2v-1.5l-.1-1.8.1.4-.1-6.6c-.1-.1-.3 2.1-.4-.7.1-.1.2-.2.2.5v-1.3l.1 1.1-.1-1.6.1-.6v1.2l.1-2.8-.1-.8c0-2 .1-.7.1-1.9l-.1-1.8.1-.9c-.1-1 0-4.8-.1-3.7v.3-10.6l-.1-5.9.1-1.2v-3.9c.1 1.5.1-.5.1 1.6v-4.6c.1.7.1-1.5.1-2.5l-.1 1.4v-3l.1.5c.2-4.1-.3-7.4 0-10.5-.1-1.1-.1 2.2-.2 1.3l.2-4.4c.1-2.6-.2-2.4-.1-5.1 0 .3-.2.7-.2-1.3q.1-2.9.2-1.1v.7c0 .6 0 1.4.1.7V31c0-.9 0-3.5.1-2.9 0-1.4-.1-.6-.1.4v-6.3l-.1.4c.1-3.7-.1-1.6-.1-4.1.1-1.4.2.5.1-2 0-1.5.1-.3.2.3l.1-5.5v1.2-1.9.4l.1-1.3c-.1-.7-.2.6-.2-.9 0-.9-.1-2.8.1-3.2 0 2.9.1-.3.1 2.2V6v.3-1.5l-.1-1.2-1.1.1h-1.4c.4-.1-.7-.1-1.2-.1 1.2 0 .6.1-.5.2h-3 1.1l-2.6.1c-.1-.1 1.2 0 .7-.1h-5.3c-.9 0-.1-.1-.9-.2H104c.7.1.8.1-.9.2l3.9-.1-2.5.1h3.2c-1.2.1-1.1.1-.5.1h-5.1l.1-.2c-2.8-.1-5 .1-8.6.1h1.2l-3.4.1c.1-.1-.6-.1-1.1-.2.1.1-2.7 0-3 .2l-1.6-.1-6.2.2c.9-.1-.4-.1 1.5-.2h-5.3l-1.6.1s-1.7.1-.7.1c-2.9-.3-8.1 0-10.7-.2l-6.4.1h.4c-2.8-.1-1.8.2-4.7.1-1.5-.1 1.6-.1.6-.1-.4-.3-3.5 0-5.5-.1h.5l-6.2.1-7.3.2q1.2-.1.6-.2c-1-.1.4.1-1.7.1l-2.4-.2h2H29l.1-.1c-3.1 0-3.1.2-6.4.2h.3c-1.8.2-1.5-.1-3.3 0l-.5-.2c-1.3.1-4.2.3-6.4.3l5.3-.3-4.6.1H15L9.3 4l-1.4-.2H4.2v2.1l-.1 1.3v13.1c.2-1.7 0 1.4.3 1.1v1.7l-.1 3.4c-.1.8-.1-1.1-.1-1 0 2.5-.1 1-.2 2.7-.1-.4 0 .8-.1 2.2l.1-2c.1 3.5-.2 3-.1 6.5l-.1-1.1.1 8.2c0 4.3.2 9.5.1 12.8v-.3l.1 2.4c-.1 0-.1-.3-.1.1l.1 3.2-.1-1c-.1 4.2.2 6.4.2 9.9-.2 0-.2 3.3-.3 4.9v-.1l.2 12.7c-.2 2.8-.1 9.4-.2 13.9 0-.7.1.1.2.9v2.7-.4c-.2.8-.1 3-.1 4.6l.2.3c-.3 4.4.1 11.6-.2 14l.1 3.4-.1.1v8.1l-.1-.7c0 2.1.3 2.6.3 4.5l-.2.5v10.8l-.1-.7c0 1.7-.1 6.5.1 5.9-.2 0 0 3.7.1 5.6l-.1-.3.1 1.1v1.1l2.4-.1q.8 0-.2.1h3.6-.8l2.7-.1 3.8.1 2.4-.1-.5.1h6.7l.4.1h-4.3c0 .1 2 .1.4.3l6.3-.2h.3-.2 2.8l3.3.1c-.1-.1 1.2-.1 0-.2H32h.1-2.5 2.7l1.4-.2c1.4.2 4 .2 4.3.3 3-.1 7.1 0 9-.3l1.3.1h-1.4c1.7-.1 5.1 0 5.5-.2 2.2.1-1.2.1 1.8.1h-.4c5.9.2 9.5-.4 16.1-.1l-.8-.1c7.4.1 15.3-.1 22.6.1l3.6-.1.5.1 2.2-.1c3.1-.1 5.3.3 9.2.1l-.5-.1h5.2v.1l3.4-.1c2.7 0-.4.3 3.5.3l3.6-.2-1.5-.1h1.3c.2-.2 1.3-.4-2-.5l-2.3.1-.7-.1h1.9-2.5l-.9-.1-2.2.2c-.3-.1 1-.1-.5-.2-1 .1 1 .2-.7.2-1.1-.1-.8-.2-2-.1l.6-.1-3.6.1c-1.1-.1-3.8 0-3.7-.2l-3 .1c1.9-.2-3.9 0-3.4-.2-1.4.2-5.1.1-7.6.2h.6l-2.7-.1c-.2.2-2.4.2-3.5.3-1.7-.2 1-.2.5-.3.1.1-3 .1-2.4.2-1.3-.1-1.1 0-1.8-.2l-2.3.2c-1.9-.1-.5-.2-2.6-.1-1.1 0 .8-.1.8-.1m-49.6.4h1zm-4.2 0h1.8l-.4.1c.2-.1-.8-.1-1.4-.1m8.8.8h-1 1.3z"/><path d="M32.4 162h.3-.6z"/><path d="M122.7 78.7s0 .1 0 0q0 .2 0 0"/><path d="M5 122v.3z"/><path d="M122.3 101.7v.3z"/><path d="M122.2 111.6v1.4z"/><path d="M116.3 4.5h-.3z"/><path d="m122.3 34-.1-1.2z"/><path d="M76 4.7h-.2z"/><path d="M122.3 31.2v1.7z"/><path d="M122.1 152.3v.4z"/><path d="M122.2 152.7v.4z"/><path d="M122.2 154v-.9z"/><path d="m122.2 139.2-.1 2.9v.1z"/><path d="M122.7 126.3v2.6c0-.4.1-1 .1.1.1-3.2-.1.7-.1-2.7"/><path d="M122.8 118.4c0 1.3 0 0 0 0q0-1.5 0 0"/><path d="m122.8 60.7.1.1c-.1-1-.1.1-.1-.1"/><path d="M122.2 49.7v1.6z"/><path d="M123 43.2v.5l-.1-1.8z"/><path d="m64.8 3.7.3.1q1.3-.1-.3-.1"/><path d="M23 3.8h-2.4z"/><path d="m4 110.9-.1-.8.1 1.5z"/><path d="m125.2 164.4.1-.7-.1-.6z"/><path d="M125.5 158.8c-.1-1-.2-2.1-.3-1.5l.2 2.2q0 1.4-.1 1.3l.1 1.7zc-.1-.4-.1-.1 0 0"/><path d="M125.7 77.4v.5z"/><path d="M125.8 27v.6z"/><path d="M125.9 18.4v.5z"/><path d="M125.7 77.4v-1.3z"/><path d="M125.1 147.6v.7z"/><path d="M125.8 99.6v.4l.1.3z"/><path d="M125.8 116.7q0-.5-.2-.7l.1.8q.1.1.1-.1"/><path d="M125.6 143.8v.5z"/><path d="M125.8 87.4v-.2z"/><path d="M105.7 163.9q.2 0 0 0"/><path d="M125.5 164.4h-.3l-.1.1z"/><path d="M126.1 2.6c0 .5 0 .2 0 0"/><path d="M1 20.9c.1-1.6.1 2.7.3.2-.1.2-.2-2.3-.3-.2"/><path d="M125.1 147.1v-.7z"/><path d="M1.3 21.1v-.3z"/><path d="m90.4.9.4.1z"/><path d="M117.4 1h-.7z"/><path d="M76.3 1h-1z"/><path d="M61.7 1h.8z"/><path d="m61.3 163.9.7.1c-.3-.1 1.9-.1-.7-.1"/><path d="m125.2 147.6-.1-.4zq0 .2 0 0"/><path d="M75.8 2h-2.3z"/><path d="M2 119.3v.5z"/><path d="m66.5 2-1.3-.1h-.3z"/><path d="M62 164q-.1 0 0 0-.1 0 0 0"/><path d="M77.3 163.7c-2.2 0-1 .2-1.5.2-2.6 0-1.2-.1-2.1-.2l-4.1.2q-.3 0-.1-.1c-1.7.1-5.2 0-7.2.2H62l.3.2h-2.2l.9-.1h-1c-.9-.1 1.4-.1 1.4-.2-2 0-4.4.2-5.9.1-.3-.1 3.6 0 1.6-.2l2.4.1c-1.8-.2 1.5 0-.2-.2h-6.7c-.7.1.2.1-.5.2-4.5.1-3.5-.4-6.8-.2-.9.1-1.2.3-3.5.2l.8-.2c-3.1 0-1.7.2-5 .1l1.9-.1c-2.1-.1-1.5.1-3.1.1l-.3-.1-10.5.2-14.1-.2-1.7.1q-.7 0-.3-.1c-1.7 0-.1.1-.9.1q-1.5 0-.7-.1l-2.9.1-3.1.1v-2.5l.1-2.5v.6c.1-2.5-.3-2.8-.1-5.1v.4c.1-5.4-.1-11.3.1-15.4-.2-.8.1-5.3-.2-5.7l.3-6.5-.2-3.2H2l-.1-1.9.2-1v-1.3l-.1 1.1v-3.3l.1-1.8-.1-5 .1 1.6v-2.9c0 .3-.1-.2-.1-.2v-6l.1.4V91.8c0 1.5-.2 1.1-.2-.1l.1-.5c-.1-.8-.1 1.3-.2-.3 0-1.5.2-1 .2-.2v-1.9l.1.4v-4.4L2 75.5l-.1-2.4L2 65c-.1-2.1-.1-.6-.2-1.5.1-.2.1-3.1.2-1.6l-.1-9.1-.1.8c0-.8 0-1.9.1-1.7v.2c-.1-5.2.3-11.8.1-15.8v.2l-.1-4.2c0-1.9.1 1.2.1-.3-.2-4.5 0-7.1-.1-10.8.3-2.9 0-10.2.2-14.1v.2c-.1-1 0-1.2.1-2-.1.2-.1 1.2-.2.6v-4l10.4.1 10.9.1c3.2 0 1.8-.4 5.8-.2L28 2l19.4-.1-1 .1h3l2-.1c1 0 .2.1.8.1h4.1-.6c.9 0 4 0 3.2-.1h6.4c1.2-.1 4 .1 4.4-.1-.2.2 4.1.2 5.6.1-.5 0 1.3 0 .7.1 1.7 0 3.3 0 3-.1 3.1.2 6.3-.2 8.1.1l14.3-.2c-.2.2-5 0-4.8.2l11.1-.2c1.1 0-.6.1-1 .1l12.2-.1-.8.1c.8 0 1.8 0 1.7-.1h-.7c-1.2-.1 3-.3 3.1-.3-1.3.2 3.8.1 1.8.4l1-.1h.3l-.2.1h.1v3.3l-.1-.8q.2 1.6.1 4.6c0-.1-.1.1-.1-.5 0 3.6.2 6.1.1 10-.2-1.2-.1 1.3-.2 1.5v2.1l.1-.8.1 5.1-.1-1.4v3.5l.1-2c.1 1.9.2-.2.2 2.3l-.1 2.8.1 3.2c-.1.4-.2-.3-.2-.1.1.9 0 4.3.2 5.5q0-.5-.1-.3l.1.8q0 1.2-.1.8c0 2.6.2-.8.1 2.2v-.6 8.7c-.2.8 0-2.5-.2-1.5l.2 12.3v-.7c.2.5-.1 2.9 0 4.9l-.1-.5.1 9.6-.1-.5-.1 5.9c.1.5 0 1.5.1.9-.3 5.3.2 10.1-.1 14.7l-.1-.9.1 4 .1-1.4.1 2.6c-.1-1.8-.2 0-.2.8l.1.1c-.2 2.1.2.3.1 3.2l-.1-.2.1 3.2c-.1.5-.1-1.1-.1-1.2l.1 4.6-.1-2.4-.1 3v-.1l-.1 2.7v-.7q.3 2.9.2 6.8c-.2-2.6-.1-.4-.2-.6l-.1 1.4c.1 1.3-.1 2.1.1 4 0 .1 0 1.4-.1 1.1 0 1.7.1-.4.1-.3.1 2.6-.2 6 0 9.8l.3 6.7c-.1 1-.2-.8-.2-.8v4.3l-.1.5c0 1.2.2.8.1 2.4l-.2-1.2.2 4.3c-.1.4-.1-.9-.2-1.4l.2 4.8v-1.1c0 .6-.1.3-.1-.1q-.1-2.1.1-2.1v1.1c.2-1.1 0-4.3 0-6.4l.2.9-.1-2.2c0-.5.1-.8.2.3v-2.7.1l-.1-1.5c0 .3.1-.2.1.7v-5.3.2c-.1-3.7-.1-.4-.3-3.2l.3-1.9-.1-.4c0-.4 0-1.1.1-1-.1-1.4-.1.2-.1-.6.1-1.8-.1-5.1.2-5.5-.1-.7-.1 1.8-.1-.2.2-.6 0-2.3.1-4 .1.5.1 2.1.2.4-.2-1 0-3.3 0-4.7-.2-.1-.1-3.1-.1-5.5.1.2.1-4.5.1-6.7v.1c-.2-.4-.1-2.7-.2-4.4l.2 1.3V100l-.1-1.9.1.4-.1-6.9c-.1-.2-.3 2.1-.4-.7.1-.1.2-.2.2.5V90l.1 1.1-.1-1.6.1-.6v1.2l.1-2.9-.1-.8c0-2.1.1-.7.1-1.9l-.1-1.9.1-1c-.1-1.1 0-5-.1-3.8v.3V67l-.1-6.2.1-1.2v-4.1c.1 1.6.1-.6.1 1.7v-4.8c.1.8.1-1.6.1-2.6l-.1 1.5v-3.1l.1.5c.2-4.3-.3-7.7 0-10.9-.1-1.1-.1 2.3-.2 1.3l.2-4.6c.1-2.7-.2-2.5-.2-5.3-.1.4-.2.7-.2-1.4q0-3 .3-1.2v.7c0 .6 0 1.5.1.7l-.1-.3c.1-1 0-3.7.1-3 0-1.5-.1-.6-.1.5l.1-6.5-.1.4c.1-3.8-.1-1.7-.1-4.3.1-1.5.2.5.1-2.1.1-1.6.1-.3.2.3l.1-5.8v1.2-2 1l.1-1.3c-.1-.8-.2.6-.3-.9V1.8v1.4q0 .2.1 0c0-.1.1-.3.1 1V2.4v.3V.9h-1.3l-.5.1-2 .1c.4-.1-.7-.1-1.2-.1 1.2 0 .6.1-.5.2h-3.1 1.2l-2.7.1c-.1-.1 1.2 0 .7-.1h-5.5c-1-.1-.1-.1-.9-.2h-5c.7.1.8.1-.9.2l4.1-.1-2.6.1h3.3c-1.2.1-1.1.1-.5.1-1.7-.2-3.3.1-5.3 0l.1-.2c-2.9-.1-5.2.1-9 .1h1.2l-3.6.1c.1-.3-.7-.3-1.2-.4.1.1-2.8 0-3.1.2L85.9 1l-6.4.2c.9-.1-.4-.2 1.5-.2h-5.5l-1.7.1s-1.7.1-.8.1c-3-.3-8.5 0-11.1-.2l-6.7.1h.4C53 1 54 1.3 51 1.2c-1.6-.1 1.6-.1.7-.1-.4-.3-3.7 0-5.7-.1h.5l-6.4.1-7.6.2q1.3-.1.7-.2c-1.1 0 .3.2-1.9.2l-2.5-.2h2.1c-1.1-.2-2.7 0-3.8 0V1c-3.2 0-3.2.2-6.7.2l.4.1c-1.9.2-1.6-.1-3.4 0l-.6-.3-6.6.2 5.5-.3-4.8.1h1.6q-2.3.2-6 .2.1-.1-1.5-.1L1.2 1v2.2l-.1 1.3c.1 4.3-.1 8.6-.1 13.7.3-1.8 0 1.5.3 1.2v1.7l-.2 3.6c-.1.8-.1-1.1-.1-1 0 2.6-.1 1.1-.2 2.8.1-.5.2.8.1 2.2l.1-2c.1 3.6-.2 3.1-.1 6.7l-.1-1.1.1 8.6c0 4.4.2 9.9.1 13.3v-.3l.1 2.5q0-.3-.1 0l.1 3.3-.1-.9c-.1 4.3.2 6.7.2 10.3-.2 0-.2 3.4-.3 5.1v-.1l.2 13.3c-.2 2.9-.1 9.8-.2 14.5 0-.7.1.1.2.9v2.9-.4c-.2.8-.1 3.1-.1 4.8l.2.3c-.4 4.6.1 12-.2 14.6l.1 3.6-.1-.1v8.4l-.1-.8c0 2.1.3 2.7.4 4.7l-.3.6v11.2l-.1-.8c0 1.8-.1 6.8.1 6.2v2.2l.1 3.7-.1-.4.1 1.3 1.7-.1 2-.1q.9 0-.3.1h3.7l-.8.1 2.8-.1 4 .1q.6-.2 2.5-.1l-.5.1h7l.4.1h-4.4c0 .1 2.1.1.4.3 1.7-.1 4.5-.3 6.5-.2h.3-.2 3l3.4.1c-.1-.1 1.3-.1 0-.2h-1.3.1-2.6 2.8l1.4-.2 4.5.4c3.2-.1 7.4 0 9.4-.3l1.4.1-1.4.1c1.8-.1 5.3 0 5.7-.2 2.3.1-1.3.1 1.8.1H54c6.1.2 9.9-.4 16.7-.1l-.8-.1c7.7.1 15.9-.1 23.6.1l3.7-.1.5.1 2.3-.1c3.2-.1 5.6.3 9.6.1l-.5-.1h5.4v.1l3.6-.1c2.8 0-.4.3 3.6.3l3.7-.2-1.6-.1h1.4c.2-.2 1.3-.4-2.1-.5l-2.4.1-.8-.1h2-2.6l-1-.1-2.3.2c-.3-.1 1-.2-.5-.2-1.1.1 1 .2-.8.2-1.1-.1-.8-.2-2.1-.1q-.2-.1.6-.1l-3.7.1c-1.2-.1-4 0-3.9-.2l-3.2.2c2-.2-4.1 0-3.5-.3-1.5.2-5.3.1-7.9.2h.7l-2.8-.1c-.2.2-2.5.2-3.7.3-1.8-.2 1.1-.2.5-.3.1.1-3.1.1-2.5.2-1.4-.1-1.2 0-1.9-.2-.2.2-1.3 0-2.4.2-2-.1-.5-.2-2.7-.1-.9-.3 1.1-.4 1.1-.4m-51.7.4h1.1zm-4.4 0h1.9l-.4.1zm9.2.8h-1 1.3z"/><path d="M31.6 164.8h.3-.6z"/><path d="M2 124.1v.4z"/><path d="M125.3 101.9v.3z"/><path d="M125.2 112.3v1.5z"/><path d="m125.2 120.2.1.2z"/><path d="M118 1.8h-.3z"/><path d="m125.3 31.5-.1-1.2z"/><path d="M76 2h-.3z"/><path d="M125.3 28.5v1.7z"/><path d="M125.1 154.7v.4z"/><path d="M125.1 155.1v.4z"/><path d="M125.2 156.4v-.9z"/><path d="M125.2 144.2q-.1 0 0 .1"/><path d="m125.2 141-.1 3v.1z"/><path d="M125.7 127.6v2.7c0-.5.1-1.1.1.1.1-3.4-.1.7-.1-2.8"/><path d="M125.8 119.3c0 1.4 0 0 0 0 0-.8 0-1.1 0 0"/><path d="m125.8 59.3.1.1c-.1-1.1-.1 0-.1-.1"/><path d="m125.2 47.8-.1 1.1.1.5z"/><path d="M126 41v.5l-.1-1.8z"/><path d="m64.3.9.3.1c.8 0 1-.1-.3-.1"/><path d="M20.8 1.1 18.4 1z"/><path d="m1 112.6-.1-.9.1 1.7z"/></svg>