<?xml version="1.0" encoding="utf-8"?>
<!-- Generator: Adobe Illustrator 25.2.3, SVG Export Plug-In . SVG Version: 6.00 Build 0)  -->
<svg version="1.1" id="Layer_1" xmlns="http://www.w3.org/2000/svg" xmlns:xlink="http://www.w3.org/1999/xlink" x="0px" y="0px"
	 viewBox="0 0 59.9 53.5" style="enable-background:new 0 0 59.9 53.5;" xml:space="preserve">
<style type="text/css">
	.st0{fill:#1E8C50;}
</style>
<g>
	<path class="st0" d="M22.5,12.2c-0.4-0.6-0.3-1.7,0.1-1.8c0.1,0,0.2-0.1,0.3-0.2c0.6-0.3,1.2-0.2,1.8-0.2c0.5,0,1.1-0.2,1.6,0.1
		c0.1,0.1,0.2,0,0.4,0c0.2,0.1,0.3,0.2,0.5,0.3c0.3,0.2,0.2,1.6,0.2,1.8c0.6,0,3.3,0.3,3.7,0.1c0.2,0.1,0.5,0.2,0.8,0.3
		c0.1,0.4,0.2,0.7,0.2,1.1c0,0.3,0,0.7,0,1c0,0.4-0.1,0.8,0,1.2c0.1,0.5-0.1,1.1-0.2,1.6c-0.1,1-0.2,2.1-0.3,3.1
		c-0.1,0.8,0,1.5,0,2.3c0,0.1,0,0.2,0,0.2c0,0.9-0.1,1.7-0.1,2.6c0,0.4,0.1,0.9,0.1,1.3c0,0.7,0.1,1.4,0.1,2.1
		c0,0.2-0.1,0.5-0.1,0.7c0,0.6-0.1,2.1-0.1,2.7c0,0.5-3.5,0.4-3.8,0.3c-0.2-0.1-5.1,0-5.5,0.1c-0.1-0.1-1.3-0.2-1.5-0.1
		c0,0.1,0,0.3,0.1,0.4c0.4,0.7,0.9,1.4,1.3,2.2c0.5,0.9,1,1.8,1.6,2.8c0.1,0.1,0.2,0.3,0.3,0.4c0.4,0.6,0.8,1.3,1.2,1.9
		c0.6,0.8,1.2,1.7,1.9,2.4c0.5,0.5,0.9,1.1,1.4,1.7c0.4,0.5,0.7,1.2,1.2,1.6c0.1,0.1,0.2,0.2,0.2,0.3c0.1,0.3,0.3,0.5,0.5,0.7
		c0.1,0.1,0.2,0.3,0.3,0.4c0.2,0.2,0.4,0.5,0.7,0.7c-0.2,0.1-0.4,0.1-0.6,0.2c0,0.1-0.1,0.2-0.1,0.4c-0.2,0.1-0.4,0.1-0.6,0.2
		c-0.4-0.3-0.9-0.4-1.4-0.5c-0.4,0-0.6-0.5-0.8-0.8c-0.2-0.7-0.6-1.2-1-1.8c-0.5-0.7-0.9-1.5-1.4-2.2c-0.1-0.2-0.3-0.3-0.4-0.4
		c-0.2-0.3-0.4-0.6-0.7-0.9c-0.6-0.8-1.2-1.5-1.7-2.3c-0.3-0.4-0.5-0.8-0.8-1.2c-0.2-0.3-0.4-0.6-0.6-0.9c-0.6-0.9-1-1.8-1.6-2.7
		c-0.1-0.1-0.1-0.3-0.3-0.3c0,0-0.1,0.1-0.1,0.1c0.1,0.6,0.2,1.3,0.3,1.9c0,0.4-0.1,0.7-0.1,1.1c0,0.4-0.1,0.8,0.1,1.1
		c-0.1,0.4-0.3,0.9-0.1,1.3c0,0.1,0,0.2,0,0.3c-0.1,0.4,0,0.8,0,1.2c0,0.6-0.1,1.1,0.1,1.7c-0.1,1.1,0.3,2.1,0.7,3
		c0,0.1,0.1,0.1,0.1,0.2c-0.1,0.1-0.1,0.2-0.2,0.3c0.2,0.4,0.4,0.7,0.6,1.1c-0.5,0.6-1.1,0.5-1.6,0.4c-0.2,0-0.3-0.3-0.6-0.4
		c-0.1,0-0.2,0-0.4,0c-0.1-0.2-0.2-0.3-0.2-0.5c0-0.6-0.1-1.1,0-1.7c0.1-0.5,0-0.9-0.1-1.4c-0.1-0.5-0.2-1.1-0.2-1.6
		c0-0.3-0.1-0.6-0.1-0.8c0-0.4,0-0.8,0-1.1c0-0.5,0-1-0.2-1.5c-0.1-0.3-0.1-0.6,0-1c0-0.3,0-0.7,0-1c-0.1-0.8,0-1.6-0.2-2.3
		c-0.1-0.2,0-0.4,0-0.6c0-0.2-0.1-0.4-0.1-0.7c-0.3,0.4-0.6,0.7-0.9,1.1c-0.3,0.5-0.8,0.8-1,1.4c0,0.1-0.1,0.1-0.1,0.2
		c-0.5,0.7-1.1,1.5-1.6,2.3c-0.3,0.4-0.6,0.9-0.9,1.4c-0.4,0.5-0.7,1.1-1.2,1.5c-0.1,0.1-0.1,0.2-0.2,0.3c-0.5,0.8-1,1.6-1.5,2.4
		c-0.4,0.2-0.6,0.8-0.9,1.1c-0.3,0.4-0.7,0.9-0.9,1.4c-0.2,0.6-0.5,1.1-0.9,1.6c-0.2,0-0.3,0.1-0.5,0.1c-0.3-0.3-0.6-0.5-1-0.8
		c0-0.3,0-0.6,0-0.9c0-0.1,0.1-0.3,0.2-0.4c0.2-0.1,0.3-0.3,0.4-0.4c0.2-0.3,0.4-0.6,0.8-0.8c0.3-0.1,0.4-0.5,0.6-0.9
		c0.3-0.5,0.6-1,0.9-1.5c0.1-0.2,0.2-0.4,0.5-0.4c0.2-0.6,0.9-1,1-1.7c0.3-0.2,0.6-0.3,0.6-0.7c0.4-0.2,0.4-0.7,0.7-1.1
		c0.4-0.5,0.8-1,1.2-1.6c0.4-0.5,0.7-1,1-1.4c0.2-0.2,0.3-0.5,0.5-0.7c0.5-0.5,0.9-1,1.2-1.7c0-0.3-0.2-0.4-0.4-0.3
		c-0.3,0-0.6,0.1-1,0.1c-1,0.1-2-0.1-3,0c-0.6,0.1-1.1,0.2-1.7,0.3c-0.7,0.1-1.3,0.1-2,0.1c-0.4,0-1.4,0-1.8,0
		c-0.6-0.1-0.9-2-0.5-1.7C5,32.3,5,32.2,5,32.1c0-0.7,0-1.5,0-2.2c0-0.4,0-0.6,0.1-1c0-0.2,0-0.3,0-0.5c-0.1-0.7-0.3-1.5-0.2-2.2
		c0,0,0,0,0-0.1c-0.1-1,0-2-0.1-3c0-0.3-0.1-0.6-0.1-0.9c0-0.2-0.1-0.4-0.1-0.7c0,0,0-0.1,0-0.1c0.1-0.9-0.2-1.7-0.2-2.5
		c0-0.4,0.1-0.8,0-1.2c-0.1-0.2-0.1-0.4-0.2-0.6c-0.1-0.5-0.3-1,0-1.5c-0.1-0.3-0.1-0.6-0.2-1c-0.3-0.1-0.1-1.9,0-1.8
		c1-0.2,1.9-0.4,2.9-0.6c0.3-0.1,0.6-0.1,0.9-0.1c0.8,0,1.6,0,2.4,0c0.2,0,0.4,0,0.6,0.1c1,0.2,1.9-0.1,2.9-0.1c1,0.1,2-0.2,3-0.1
		c0.6,0,1.3,0,1.9,0c0.7,0,1.5,0.1,2.2,0.2c0.4,0,0.8,0.1,1.1,0.1C22.3,12.4,22.4,12.4,22.5,12.2z M6.7,32.4c0.2,0,0.5,0,0.7,0
		c0.2,0,0.6-0.1,0.8-0.2c0.7-0.1,1.4-0.2,2.2-0.2c0.3,0,0.6,0,0.9-0.1c0.2-0.1,0.4,0.2,0.6,0.2c1,0,2-0.1,3-0.3
		c0.5-0.1,1-0.1,1.5-0.2c0.2,0,0.5,0,0.6-0.1c0.3-0.3,0.7,0,0.9-0.3c0.4,0.1,0.7-0.1,1.1-0.2c0.7,0.3,0.7,0.3,1,0.2
		c0.6-0.2,1.2-0.2,1.8-0.3c1-0.1,2-0.1,3.1-0.2c0.1,0,0.2,0,0.3,0c0.2,0.2,0.5,0.1,0.7,0.1c0.5-0.2,0.9-0.1,1.4-0.1
		c0.3,0,0.7,0,1,0.1c0.1,0,0.2,0,0.3,0.1c0.3,0.1,0.6,0.1,0.8,0.2c0.1,0,0.3,0,0.4,0c0-0.2,0-0.3,0-0.4c-0.3-1.3-0.3-2.6-0.3-4
		c0-0.8,0.1-1.5,0.1-2.3c0-1.4,0-2.7,0.3-4.1c0-0.1,0-0.3,0-0.4c0.1-0.8,0.1-1.6,0.3-2.4c0.1-0.2,0-0.3-0.1-0.4
		c-0.6,0.2-2.8,0.1-3.3,0.4c-0.2-0.1-1.4-0.6-1.6-0.5c-0.4,0.1-0.7,0.1-1.1,0.1c-0.1,0-1.5,0.4-2.1,0c-0.1,0-0.2,0-0.3,0
		c-0.7-0.1-1.3-0.2-2-0.4c-0.6-0.1-1.3-0.3-1.9-0.1c-0.3,0.1-0.7,0.1-1,0c-0.4-0.1-0.8,0-1.2,0.1c-0.4,0.1-0.9,0-1.3,0
		c-0.4,0-0.8,0-1.3,0c-0.2,0-0.5,0-0.7,0c-0.6-0.2-1.2-0.1-1.7-0.1c-0.4,0-0.9,0.1-1.3,0.2c-0.3,0-0.7,0.1-1,0.1c-0.5,0-1,0-1.5,0.3
		c-0.4-0.3-0.8,0-1.2,0.1c0.1,0.5,0.2,1,0.2,1.5c0,0.9,0,1.7,0.1,2.6c0.1,0.4,0.1,0.7,0,1.1c0,0,0,0.1,0,0.2c0.1,0.8-0.1,1.6,0,2.5
		c0,0.5,0.1,1,0.1,1.6c0,0.3,0,0.6,0.1,0.9c0.2,0.8,0.5,3.4,0.4,3.6C6.5,31.6,6.4,32,6.7,32.4z M30.6,14.2c-0.3,0-0.6,0-0.8-0.1
		c-0.6-0.1-1.1-0.6-1.7-0.5c0,0-3.4,0.1-3.5,0.2c-0.6,0.1-1.1,0.1-1.7,0.1c-0.8-0.1-1.6-0.2-2.4-0.3c-1.1-0.1-2.2-0.2-3.3-0.1
		c-0.5,0-1.1,0.1-1.6,0c-0.5,0-0.9-0.1-1.4,0c-1,0.1-2.1,0.4-3.1,0.3c-0.2,0-0.5,0-0.7,0.1c-0.3,0-0.5,0-0.8,0c-0.8,0-1.6,0-2.5,0.2
		c-0.5,0.2-1.1,0.2-1.6,0.4c-0.3,0.1-0.4,0.2-0.4,0.5c0,0.2,0,0.5,0,0.8c0.1,0,0.2,0.1,0.3,0.1c0,0.2,0.1,0.4,0.1,0.5
		c0.7-0.1,1.4-0.2,2.1-0.3c0.3,0,0.5-0.2,0.7-0.2c0.4-0.1,0.8-0.1,1.3-0.1c0.2,0,0.4-0.2,0.6-0.2c0.6,0,1.2,0,1.8,0.1
		c0.5,0.1,1,0,1.5,0c0.6,0,1.3-0.1,1.9-0.2c0.8,0,1.7,0,2.5,0c0.3,0,0.7-0.1,1-0.1c0.3,0.1,1.6,0.2,2,0.2c0.4,0.3,1.9,0.5,2.5,0.3
		c0,0,1.2-0.2,1.3-0.2c0.1,0.1,1.3,0.2,1.9,0.2c0.3,0.3,0.7,0.3,1.1,0.3c0.4,0,0.7,0,1.2,0.1c0.2-0.1,0.5-0.2,0.7-0.3
		c0.3-0.1,0.6,0.1,0.9-0.2C30.5,15.2,30.6,14.7,30.6,14.2z"/>
	<path class="st0" d="M47.4,46.1c0.4,0.1,0.7,0.1,1.1,0.1c0.3-0.1,0.5-0.1,0.8,0c0.1,0,0.2,0.1,0.2,0c0.4-0.2,3.2,0.1,3.4,0
		c0.5,0,0.6,0.4,1.1,0.3c0.3,0.4,0.6,0.6,0.9,1c0.1,0.4-0.3,0.6-0.4,1c-0.6,0.1-1.1,0.1-1.7,0.2c-0.3,0-0.5,0.1-0.8,0.2
		c-0.7-0.2-1.4,0-2.1,0.1c-0.1,0-0.3,0-0.4,0C49.1,49,48.5,48.8,48,49c-0.1,0-0.2,0-0.3,0c-0.5-0.1-1.1-0.1-1.6-0.2
		c-0.4-0.1-0.9,0-1.3,0c-0.9-0.1-1.9-0.1-2.8-0.1c-0.2,0-0.4,0-0.5,0.1c-0.5,0.2-0.9,0.1-1.3,0c-0.2-0.1-0.5-0.1-0.7-0.1
		c-0.5,0-1,0-1.6,0.2c-0.5,0.2-0.7,0.2-1.1-0.2c-0.1-0.3,0-0.6,0.1-0.9c0.2-0.3,0.3-0.6,0.1-1c0.2-0.4,0.6-0.6,1-0.5
		c0.7,0.1,1.3,0.2,2,0.2c0.2,0,4.3-0.1,5.8-0.3c0.2-0.3,0.2-0.7,0.2-1.1c-0.1-0.9-0.1-1.8-0.2-2.8c0-0.4,0.1-0.7,0.1-1.1
		c0-0.5,0-0.9,0-1.4c0-0.5,0.1-1,0.1-1.5c0-0.7,0.1-1.3,0.1-2c0-0.2,0-0.4,0-0.6c0.1-0.5,0-0.9-0.1-1.3c0-0.1-0.1-0.3-0.2-0.4
		c-0.5-0.6-0.6-1.2-0.4-2c0-0.1,0-0.1,0.1-0.2c-0.3-0.7-0.7-1.4-1.2-1.9c-0.1-0.1-0.2-0.2-0.3-0.2c-0.2-0.1-0.4-0.2-0.4-0.5
		c0-0.1-0.1-0.2-0.2-0.3c-0.4-0.4-0.6-0.9-1-1.3c-0.4-0.4-0.7-0.9-0.9-1.3c-0.3-0.5-0.6-1-0.9-1.5c-0.7-1.3-1.4-2.5-2.1-3.8
		c-0.2-0.4-0.4-0.9-0.6-1.4c-0.3-0.6-0.6-1.1-0.9-1.6c-0.2-0.3-0.4-0.5-0.6-0.7c-0.3-0.2-0.4-0.5-0.6-0.9c-0.2-0.3-0.4-0.6-0.7-0.9
		c-0.2-0.3-0.4-0.5-0.6-0.8c-0.1-0.1-0.2-0.2-0.3-0.3c-0.2-0.2-0.3-0.3-0.5-0.5c0.1-0.2,0-0.8-0.1-1c0.1,0,0.1-0.1,0.2-0.1
		c0.4,0,0.9-0.1,1.3-0.1c0.3,0,0.6,0.1,0.9,0.1c1,0,2,0,3.1,0c1,0,2-0.1,3.1-0.1c0.5,0,0.9-0.1,1.4-0.2c0.3,0,0.6-0.1,1,0
		c0.5,0,1-0.1,1.5-0.1c0.8-0.1,1.5-0.1,2.3-0.1c0.9,0,1.9,0.1,2.8-0.1c0.3,0,0.6-0.1,0.9-0.1c0.1,0,0.2,0,0.3,0
		c0.6-0.1,1.1-0.3,1.7-0.1c0.2,0.1,0.4,0.1,0.7,0.2c0.1,0,0.3-0.1,0.5-0.1c0.3,0.2,0.6,0.3,1,0.5c0.2,0.1,0.5,0.1,0.7,0.2
		c0.3,0.2,0.5,0.4,0.7,0.6c-0.2,0.6-0.3,1.3-0.8,1.8c-0.3,0.2-0.4,0.5-0.4,0.8c-0.1,0.5-0.4,0.8-0.6,1.2c-0.1,0.2-0.3,0.4-0.4,0.6
		c-0.6,0.7-1.1,1.5-1.7,2.2c-0.4,0.5-0.7,1.1-1.1,1.6c-0.3,0.4-0.6,0.8-0.9,1.2c-0.1,0.1-0.2,0.2-0.2,0.3c-0.2,0.6-0.6,1.1-0.9,1.7
		c-0.2,0.3-0.4,0.6-0.5,0.9c-0.1,0.2-0.3,0.5-0.4,0.7c-0.3,0.5-0.4,1.1-0.7,1.6c-0.2,0.4-0.3,0.9-0.4,1.4c0,0.2-0.1,0.3-0.2,0.5
		c-0.2,0.4-0.4,0.8-0.5,1.1c0.1,0.3,0.1,0.5,0.2,0.8c-0.1,0.2-0.2,0.3-0.4,0.5c0,0.4,0.1,0.8,0.1,1.2c0,0.3,0,0.5,0,0.8
		c0,0.2,0,0.4,0,0.5c0.2,0.4,0.2,0.8,0.1,1.2c-0.2,0.7-0.1,1.3-0.2,2c-0.1,0.6-0.1,1.2-0.2,1.8c0,0.5,0,1-0.1,1.5c0,0.2,0,0.4,0,0.6
		c0,0.2,0,0.5,0,0.7c0,0.2,0,0.3,0,0.5c-0.1,0.5,0,1.4,0,1.9C47.3,45.4,47.4,45.8,47.4,46.1z M54.5,14.4c-0.1-0.1-0.1-0.1-0.1-0.1
		c-0.6-0.1-1.2,0-1.7-0.1c-0.1,0-0.2,0.1-0.3,0.1c-0.4,0-0.8,0.1-1.2,0c-0.2,0-0.4,0-0.7,0c-0.4,0.1-0.8,0.1-1.2,0.1
		c-0.5,0-0.9-0.3-1.4,0c-0.2-0.1-0.4-0.1-0.7-0.2c-0.6,0.3-3.5,0.5-3.8,0.5c-0.2,0-1.7,0.2-2.2,0c-0.2,0.1-0.3,0.2-0.5,0.2
		c-0.6,0-1.3,0.1-1.9,0.1c-0.2,0-0.4,0-0.6,0.1c-0.1,0-0.2-0.2-0.3-0.1c-0.3,0.1-0.5,0.1-0.8,0c-0.2,0-0.3,0.1-0.3,0.3
		c0.4,0.6,0.8,1.2,1.2,1.9c0.5,0.9,0.7,1.2,1.4,2.1c0.1,0,0.3,0,0.5-0.1c0.7-0.1,1.6,0,2.3,0c0.8,0,1.7-0.2,2.5-0.1
		c0.1,0,0.3,0,0.4-0.1c0.6-0.2,1.1,0,1.7-0.2c0.2-0.1,0.4-0.1,0.6-0.1c0.2,0,0.4-0.1,0.6-0.1c0.2,0,0.5,0,0.7,0
		c0.5,0.1,1.1,0.1,1.6,0.2c0.5,0.1,1,0.2,1.5,0.3c0.4-0.7,0.8-1.3,1.1-1.9c0.5-0.8,0.8-1.7,1.4-2.5C54.5,14.7,54.5,14.5,54.5,14.4z
		 M47.9,21.9c0.8,0.6,1.6-0.1,2.5-0.3c0.1-0.4,0.4-0.6,0.3-1.1c-0.4-0.2-0.8-0.3-1.2-0.5c-0.2-0.1-0.3-0.1-0.5,0
		c-0.6,0.3-1.2,0.5-1.8,0.7c-0.5,0.2-1,0-1.4,0.3c0,0,0,0-0.1,0c-0.6-0.2-1.6-0.5-2.2-0.4c-0.2,0-0.4,0.1-0.6,0
		c-0.4-0.1-0.7-0.1-1,0.2c-0.1,0.1-0.2,0.1-0.3,0.1c-0.4-0.1-0.8-0.1-1.2-0.2c-0.1,0-0.2,0.1-0.4,0.1c0.1,0.4,0.5,1.1,0.6,1.4
		c0.3,0,0.6-0.1,1-0.1c0.4,0,0.8-0.1,1.2-0.1c0.3,0,0.5,0,0.8-0.1c0.6-0.1,1.1-0.1,1.7-0.2c0.2,0,0.3-0.1,0.4-0.1
		C46.4,21.7,47.1,21.8,47.9,21.9z M46.7,25.8c-0.1,0.2-0.4,0.3-0.7,0.4c-0.3,0.1-0.6,0.2-0.9,0.2c-0.3,0.1-0.6,0.1-1,0.2
		c0,0-0.1,0.1-0.1,0.1c0.1,0.1,0.1,0.3,0.2,0.4c0.2,0,0.3,0,0.4,0c0.7-0.1,1.3-0.2,2,0c0.6,0.1,0.9-0.1,1.2-0.6
		c0.2-0.3,0.4-0.7,0.3-1.1C47.6,25.5,47.2,25.6,46.7,25.8z M42.8,23.2c-0.2,0.2-0.3,0.4-0.5,0.6c0.8,0.6,1.6,0.9,2.5,0.8
		c0.4-0.1,0.8,0,1.2,0c0.7,0,1.4,0,2.1-0.1c0.4-0.1,0.7-0.3,1.1-0.5c-0.3-1-1.1-0.7-1.7-0.8C46.3,23,43.2,23.5,42.8,23.2z"/>
	<path class="st0" d="M21.6,27.8c-0.8,0.3-1.6,0.7-2.5,0.7c-0.6,0-1.2-0.1-1.8-0.3c-0.1,0-0.2-0.1-0.3-0.1c-0.8-0.1-1.4-0.5-2.1-0.8
		c-0.4-0.2-0.6-0.5-0.9-0.8c-0.2-0.3-0.4-0.6-0.5-1c0,0,0-0.1,0-0.1c-0.5-0.8-0.3-1.8-0.2-2.7c0.1-0.5,0.2-1.1,0.3-1.6
		c0.1-0.4,1-1.7,2.1-2.2c1.1-0.5,2.3-0.5,2.7-0.3c0,0,0.1,0.1,0.1,0.1c0.5,0.1,1,0.2,1.4,0.3c0.2,0,0.4,0.1,0.6,0.2
		c0.8,0.3,1.4,1,2.1,1.3c0,0,0,0,0,0c0.4,0.6,1.1,1,1.1,1.9c0,0.7,0.1,1.3-0.3,2c-0.1,0.2-0.2,0.4-0.2,0.6c-0.1,0.9-0.6,1.5-1.2,2.1
		C22,27.2,21.8,27.5,21.6,27.8z M21,21.6c-0.2,0.1-0.4,0.2-0.7,0.3c-0.5,0.2-0.8,0-1.1-0.4c-0.3-0.4-0.6-1-1.3-0.9
		c-0.1,0-0.2-0.1-0.3-0.1c-0.3-0.2-0.7,0.2-1,0.2c-1,0.1-1.5,0.5-1.6,1.6c0,0.2,0,0.4-0.1,0.6c-0.2,0.6-0.2,1.2-0.2,1.8
		c0,0.3,0.1,0.6,0.3,0.8c0.3,0.4,0.8,0.6,1.3,0.8c0.3,0.1,0.7,0.2,1,0.4c0.5,0.3,1,0.4,1.5,0.3c0.9-0.1,1.7-0.6,2.2-1.5
		c0.5-0.8,0.4-1.6,0.6-2.5c0-0.2,0-0.3,0-0.5c0.1-0.5,0-1.2-0.3-1.6c-0.1-0.1-0.3-0.2-0.4-0.2C21,20.8,21,20.8,21,20.8
		C21,21.1,21,21.3,21,21.6z"/>
</g>
</svg>
