<svg xmlns="http://www.w3.org/2000/svg" xml:space="preserve" viewBox="0 0 321.5 422.2"><path d="M311.3 399.5q.3 5.4-.1 9.6c-.2-1.1 0-3.6-.1-4.3.1.3.3-1.2.2-3.2-.4-2.6-.2-3.1-.6-5.5.3-1.6.6 1.2.8 3.6-.1-.2-.1-1-.2-.2m1.2-199v-1.3zM313 75l.1 1.4q0-1.5-.1-1.4m.5-21.2V55zm-1 145.4.1-3.3c-.1-.2 0 1.7-.1 3.3M310.7 372l.1 1.8v-1.7zm2-118.1v1l.1.8zm-.1 42.1q-.1-1.2-.4-1.6l.2 2.1zm-.6 66.6v.8zm.8-138.7.1-.4zm-50 188s0 .1 0 0q.5 0 0 0M313.9 15v.2zM8.6 56.6c.3-4 .3 6.6.6.5-.1.6-.4-5.5-.6-.5m302.2 314.3v-1.7zM229.7 8l-.9-.1zm65.7.5h-1.6zm-101.9-.3h.7zm0 0h-1.7zm-35.3 0 .7.1h1.1zm-4.8 403.6 1.7.3c-.5-.2 4.7-.3-1.7-.3M310.9 372l-.1-1.1v1.2q0 .2.1-.1M192.7 10.5l-5.7-.1zM10.4 300.3V299zM170 10.5l-3.9-.1zm130.8-.2-1.8.1h-.3l-2 .1c1.9-.1 4.3 0 4.1-.2m10.5 380.6v-.7zm2.5-373.5v1.4zM188 8.5q0-.1 0 0 0-.1 0 0m-44.1 1.9h-.8zM10.6 280.6l.1 1.3zM313.9 27c-.1 3.3-.5 8.4-.2 14.2-.1-1.5-.3-4.6-.4-.7.1 6.4-.1 1.5-.3 5.1 0 6.3.4 1.1.3 10.5 0 1 .1.1.2-.9l-.1 15c.1-2.1.1-3.2.2 0-.2-1.6-.2 5.1-.3 7.5l.1.6c-.1 1.9-.2-.1-.2-1.7l.1-1.7c-.1-3.1-.6-1.9-.6 2.9.1 5.2.4 4.3.6 3.5-.1 6.9.6 6.5.3 13.1 0 1.5-.5 6.5-.6 11.4.3 2.5.2-6 .5-3.2-.7 8 .4 16.4-.1 26.9l-.3-1.3v7.6l.2-3.6c.1 2.4 0 8.2-.3 6.3.3 5.5.1 6.7 0 11.8 0-5.4 0-.1-.1-4.1-.2 5.7-.1 6.1 0 10.1-.1-.7-.3 1.4-.3 3 .2 3.7.1 10 .3 15.2h-.1c.1 8.7-.4 18.1-.1 26.8v.4-.7c.3-3 .2 6.8.3 9.4-.1.6-.2.9-.2 2.4.3.1.2 3.4.3 4.6-.1 3-.4-.4-.4 4.8 0 2 .2 2.2.3 2-.2 1.1-.3 4.4-.3 7.1v-3c-.2-.3-.1 1.5-.3 1.4 0 2.4.3 1 .2 4l-.2-2.8c-.1 1.2 0 2.7.1 3.3-.1-1.8-.3-1.6-.4-1.3.2 7 .7 1.4.9 1.7-.2 6.6.1 11.8.1 17l-.3-1c0 2.5.1 3.7.2 4.6v3.9q-.1-3.1-.4-3.1c.1 4.1 0 9.8.4 10.8l-.1-.2c-.2 5.5-.3 16.9-.4 16.5.1 5.9-.1 13.3.3 13.5.1 3.5-.5 9.1 0 11.6-.3 4.2-.1.2-.4-1.1-.3 4.2.4 8.4-.2 9.8.2 4.9.1-1.1.4.5-.5 1-.1 9-.4 13.6.2 2 .1-2.1.3 1.4-.1-.3-.2 1.5-.2 2.5l.3.9-.8 4.6c.4 6.9.5-1.4.7 7.8v-.6c-.3 2.5.2 6.5 0 13.1.1-2.3-.1-.9-.2-1.6l.1 3.7q0-.6-.1-.1c-.2 3.2.1 2.8-.1 6.6-.1-2.6-.3-1.8-.4-.7l.3 5.4-.4-2.2c0 5.3.6 13.1 0 15.7l-.1-2.6q-.3.2-.2 5.3 0 1.5.3 1l-.1 2c-.3-1.3-.3-7.8-.4-11.9.1 1.3.2 4.5.4 3.5l-.3-10.7.4 3c.2-4-.2-3-.2-6 .1-1.1.2-1.9.3-1.2-.1-3.7-.1-6.7 0-10.7 0 0 .2 4.5.4 2-.2-7.3-.5-8.7-.7-16.6-.5-9.1.3-17.7 0-24-.1-.3-.2 4.7-.3.6.3.7.2-2.5.3-2.7-.4-4.5.1-6.6-.1-9.7.1.7.2-1.9.3-3.6.3.5.1-4.9.6 1.6-.5-6.7.1-11.8-.6-16.8l-.1 1.7.2-6.7v.3c.1-2.9 0-3.4.3-7.3l.1 5.8c.3-3.6-.2-7.5-.2-11.4.2.2.1 4.1.4 3l-.2-7.9.1.4c.3-7-.6-2.7-.2-7.9-.1.2-.2-.5-.2-.2.1-1.9.4-6.4.5-1.9l-.2-6.4c-.2 2.1-.1 2.6-.3 3.3l-.1-9.8.1 2.2c.7-11.5-.5-23.3.3-36.3-.2 1.5-.2-.9-.3-2.2.1-4.2 0-10.6.2-14.5l.1 1.2c-.1-10-.4-16.9-.3-23.6l.2 1.2c-.2-4.9.6-10.7 0-12.1v1.8c.1-9.7-.3-20.3-.3-30.3.3-2.3 0 5.8.4 3.7v-21.5l.1 1.5c.2-7.5-.3.8-.3-5.5.2.3.2 0 .3-2.1l-.3-1.9q0-.6.3.7c-.3-2.8-.1-11.2-.4-13.4.1-.6.4 1 .5.1.1-3.4 0-5.7-.1-7.9.2-2.4.2-8.1.3-6.9.1-6-.2-1-.4-5.5l-.2 4.8-.1-8.5.2 3.4L312 61l-.2 2.1-.1-5.2c.4-.5.1-6.6.5-3.8.2-9.4-.3-15.6-.3-24.1 0 .9.1.5.1.8.1-5.1-.1-8.2-.3-11.3l.3 1.9c0-6-.2-3.7-.3-10.3q.1 1.3.2 1l.1-.5v-.8q-.2 0-.2-.3l-.5.1q.8-.3.6-.4l-.5-.1H310c-2-.1-4.3-.1-3-.4-1.1.2-9.6.4-7.9.7l-30 .1c.9-.1 5.2-.2 2.5-.3-10.5-.1-16.7.2-27.3.4-.5-.5 11.5 0 11.9-.5l-35.2.4c-4.4-.7-12.2.3-19.9-.3.7.2-3.1.3-7.3.3 1.4-.2-3-.2-1.8-.3-3.7.2-14.3.3-13.9-.2-1 .5-7.9 0-10.9.3-4.6-.2-9.9.1-15.8-.1 1.8.3-4.3.2-7.1.2q.9 0 .7-.1c-1.7-.3-6.7.2-10 0-1.5-.1.4-.3-2-.3l-4.9.3-7.3-.1c1.5 0 1.5-.1 2.5-.2-15.5.3-32-.2-47.9.2l2.8-.3c-9.9-.5-6.5.5-14.3.5L37 10l-13.4-.2-12.1-.1v9.8c.1 1.5.1-.9.3-1.1 0 1.8-.3 2.3-.2 4.8l.2-.6c-.5 9.6.3 27.6-.5 34.7.3 9.1-.3 15.6.2 26.7-.2 3.5-.3-4.1-.4.7L11 95.1v-.6c.5 9.9-.7 26.2-.3 38.7v-.5c-.1-.3-.3 2.3-.3 4.3.1.7.1-.7.3-1.9.2 11.1.2 13.5.2 22.3-.2-3.8-.2 3.5-.4 3.9.2 2.3.3-1.3.4 3.8q0 11-.3 20.1c.2 2.5.2 5.7.4 5.9l.1 23-.1.3c.4 2.7-.2 8.8 0 10.7-.1-.3-.2-1.4-.3-1.1l.1 4.6c-.1-2.2-.4-3.4-.5.4.2 3.9.2-1.1.4.8l-.3 1.2c0 3 .4 3.8.5.2v29.2l-.2-1c.1 5 .1 11.8-.1 14.7.1.1.2 1.4.3.6.3 5.5-.3 1.4-.1 5.8l-.2-2.6.2 12.2-.3 4.5.1 5.6.1 3.3-.4 2.5.3 4.8-.3.1c.1 3.5.5 4.9.4 7.8-.2 10.7-.3 8.5-.7 16 .6.9-.1 12 .4 14-.5 10.1-.2 24.7-.4 38l-.1-1.1c-.3 5.7.4 6.4.3 12.5l-.1-1.5-.2 7.4v7.5h2.6l3.4-.1 5.9-.2q-2.1.2 1.6.3c2-.1-2-.4 2.2-.3-1 .1-.2.2.7.2l4.1-.3c10.8.2 23.5.5 34.8.3 2.1.1.6.2.1.3l25.8-.3.8.4c3.9 0 2.4-.5 7.6-.2 1.1.1-3.4 0-4.8.2 7.9.3 4.7-.3 12.2-.3l-2 .4c5.8.3 6.6-.2 8.7-.4 8.1-.5 5.8.8 16.8.5 1.8-.2-.6-.3 1.2-.5 7.8.1 8.7-.2 16.5 0 4.2.6-4 0 .6.6l-5.9-.1c5.1.3-4.6.1-3.8.4 3.8.1 9.6-.2 14.6-.3 0 .3-5.8 0-3.5.4l2.6-.1c-.7.1-.8.2-2.3.2.9.3 3 0 5.5 0q.3-.2-.8-.5l.7.1c5-.4 13.5-.1 17.7-.4-.7.1-.1.1.1.2 3 0 6.1-.3 10.2-.4 2.2.2-1.3.6 5.2.5 1.2-.2-1.7-.6 3.7-.6 0 0-4.8.2-2.2.3 5.4-.1 1.7.1 6.6.3 2.8-.3 5.3.1 5.9-.4 1.7.3 1.3.2 4.6.5-1.5-.3 6.4-.3 6.2-.6 1.4.4-5.7.4-1.3.9 3-.2 8.6-.3 9.1-.7 2.3.1 3.4.3 6.9.3l-1.6.1c6.4-.3 15.8 0 19.4-.4-1.3.6 13.6.1 8.7.6 2.7 0 6.9-.3 7.8-.4-.3.5 6.6.1 9.5.4 1.5-.3 6.3-.2 9.2-.3q-2.1 0-1.5.3c3.3-.2 2.4 0 5.2.2 4.4-.1-.8-.4 1.9-.6 3.8.1.6.3 1.3.5l5.7-.4q1.8 0 2.4.3c2-.1 3.7-.3 6.5-.1h-4.9l1.9.2 5.8-.3q3.9.1 5.1.4l-.1-2.3.3 1.5v.9c1.2.2.4.5 0 .8v.1h.5l-.5.1q0 .3-.1 0h-.2l.1-.2-3.4.1c.1.2 2.4.3 3.9.3 1.4.1-5.5.5-9.2.6-10-.1-2.1-.6-8.9-.7l-8.8.3-.1-.2-2.6.1c.6-.2-7.2-.1-10.8-.1l1.3.2c-10 .5-15.8-.6-23.7-.3l-5.6.3-1.2-.3c-3.3.2-3.8.4-9.2.3-18.8-.6-39 0-58-.4l2 .1c-16.7-.8-26.1.7-41.2.1l1-.1c-7.7 0 1-.1-4.5-.3-1.1.4-9.7.3-14.1.4l3.5-.1c-.8-.1-1.2-.3-3.4-.3-4.9.5-15.4.5-23.2.6-.9-.3-7.6-.5-11.1-.9l-3.6.5q-4-.2-6.9.1h6.3-.2 3.3c3.1.2-.2.2 0 .5-2.5 0-7.8.1-8.4-.2L70 414h-3.1.5l-.7-.1c-5-.1-12 .3-16.1.5 4-.4-1-.4-1-.7l10-.1c-5.5-.3-9.3.2-17.3 0 .5 0 1.5-.1 1.2-.2a29 29 0 0 0-6.1.3c-.7-.3-6.7-.5-9.7-.4-2.6.2-2.2.3-7 .3l2.1-.2c-5.6-.2-4.6.3-9.2.1q2.7 0 .6-.2l-3.3.1-2.9.1-.1-1.5v-1.4l-.2-2.7.3.8c-.2-4.7-.5-13.3-.2-14.4-.4.7-.1-11.1-.1-15.3 0 1.5.1 1.8.2 1.9-.4-9.1 0-18.4 0-27.6l.4-1.5c0-4.9-.9-6.3-.8-11.5l.2 1.9.1-20.7.3.1-.2-8.7c.7-6.2-.3-24.5.5-35.8l-.5-.7c0-4.3-.1-9.9.3-11.9v1c.4.4 0-4.3.1-7 0-2-.3-4.1-.4-2.3.3-11.5.1-28.5.6-35.7-.2-11.5-.6-20.2-.5-32.6l.1.1c.1-4.2.3-12.6.7-12.6-.1-9-.7-14.7-.5-25.3l.2 2.3c.1-2.7-.1-7-.2-8.1 0-.9.1-.3.2-.1.2-2.6-.1-4.1-.1-6.1l.2.8c.3-8.5-.3-21.9-.1-32.9 0 2 .2.9.3.1-.5-4.5-.3-16.8-.5-21.4l.2 2.8c-.3-8.9.6-7.7.2-16.6L8.3 76c.1-3.6 0-6.7-.2-5.8.2-4.2.4-.5.5-6.8.1-.3.1 4.6.3 2.5l.4-8.8v-.6.6-4.2c-.6.8 0-7.3-.6-2.9-.1-12.5.3-23 .1-33.6l.2-3.2V7.8h5.4a52 52 0 0 1 7.7.5L32.7 8c1.6-.2 8.8-.2 11.9-.2-4 .2-10.4.3-13.5.6l16.4-.5 1.4.4c4.6-.3 3.9.3 8.5-.1l-.9-.1c8.5 0 8.6-.4 16.4-.4l-.3.2c2.7.1 6.7-.3 9.3.1h-5.1c.5.3 4.4.4 6.2.6 5.4-.1 1.9-.5 4.6-.5 1.2.3.3.1-1.6.4 6.1-.1 14.3-.2 18.6-.5.3 0 0 .1 0 .1 6.3.1 11.9-.4 15.8-.2h-1.2c5.1.4 13.1-.3 14.2.3 2.4.1-5.4 0-1.6.3 7.5.2 5-.6 11.6-.3l-.9.1 16.4-.1c6.5.6 19.9-.1 27.3.6-2.2-.2 1.3-.3 1.8-.3q-.2 0 .1.1c2.7 0 3.1-.2 4.1-.3 2.2.2 7.5-.2 8.9-.1l4.6-.1c-4.9.1-1.6.3-3.7.5 7.3.1 8.3-.6 15.9-.5l4.2.3c.8-.4 7.8-.2 7.7-.4 1.3.1 3.2.2 2.9.4 3-.1 7.5.1 8.8-.1l-3-.1c9.3.2 14.9-.4 22.1-.1l-.1.6c4.8.3 8.9-.3 13 .1-1.4-.2-1.8-.1 1.3-.3l-8.2.1 6.4-.3-10 .2c4.3-.2 4-.2 2.2-.4 6.1-.2 6.6.3 12.4.1 2.1.1-.1.3 2.3.4 5.2-.2 9.9.5 13.6.2 1.2.1-2.1 0-1.8.2q5 0 6.7-.2l-2.9-.1c2.5 0 2.9-.2 7.7-.1 2.8-.1 4.3-.4 1.3-.4 1.2 0 3.9.1 3 .3l3.5-.1 2.9-.2.2 3-.1 4c0-.5 0-1-.1-.7v3.1c-.1-3.5-.5 2.7-.3-4.1-.3.8-.1 5.7-.2 8.1.2 3.7.5.4.6 2.3l-.2 3.3.3-1.7v4.9zm-239 387 2.5.1.7-.1zm-9.4-2h2.6zm-10.7 0 3.5.2q1.7 0 1.1-.2zm25.7 1.7h.7l-1-.1-.6.1zm232-213.2v.5zm-302 110.4v1zm300.8-51.3-.1.8zm-.1 27v-.6zm0 0-.1 2.1zm-.2 18 .1.4zM296.7 10.5h-.8zm15.2 75.6-.1-3c-.1 1.7-.1 3 .1 3M193.3 10.6h-.6zm118.5 68.3v4.3zm-1.1 311.5v.1-1.1zm0 1.1v-1zm.1 2.2-.1-2.2zm0-30.5.1.3zm.1-7.5-.2 7.3.1.2c-.2-1.2.2-5.8.1-7.5m1.3-26.3c.1-1.2.3-2.7.3.3.4-8.3-.3 1.7-.2-6.9zm.5-26.9c-.1-2.2-.1-2.8-.2-.1 0 3.5.1-.1.2.1m.1-147.9.3.4c0-2.8-.1-.1-.3-.4m-1.3-28.3-.2 2.7.2 1.3zm2-16.7v1.2l-.1-4.6zM164.6 7.9l.8.3c1.9 0 2.2-.4-.8-.3M57.4 8c-1.2-.2-4.2-.3-6-.1zM8 282.5l-.1-2.2.1 4.1zm309.7 121.8c-.2-2.5-.5-5.4-.8-3.7.3 2.5.2 3.1.6 5.7 0 2.1-.1 3.7-.3 3.3.1.7-.1 3.3.1 4.4q.4-4.3.1-9.9c.1-.8.2 0 .3.2m1-205.5v-1.3zm.5-129.5.1 1.4c0-.8 0-1.6-.1-1.4m.5-21.8v1.3zm-1 150 .1-3.4c-.1-.3 0 1.7-.1 3.4m-1.8 178.3.1 1.9V376zm2-121.8v1l.1.9zm-.1 43.3q-.1-1.3-.4-1.7l.2 2.1q.1.1.2-.4m-.6 70v-1.2zm.8-144.4.1-.4zM267.5 417q.4 0 0 0M320.2 7.4v.2zM2.4 53c.3-4.2.3 6.8.6.5-.1.6-.4-5.7-.6-.5m314.5 321.6v-1.8zM230.5 2.9l-.9-.1zm67.8.5h-1.7zm-105.2-.3h.7zm0 0h-1.8zm-36.4 0 .7.1h1.2zm-2.1 413.7 1.7.3c-.6-.2 4.9-.3-1.7-.3m162.5-41.1-.1-1.1v1.2q0 .3.1-.1M192.4 5.5l-5.9-.1zM4.3 304.5v-1.4zM169 5.5l-4-.1zm134.9-.2-1.9.1h-.3l-2.1.1c2-.1 4.5 0 4.3-.2m16.4 17.6-.1-3.2c-.1 3.4-.5 8.6-.2 14.6-.1-1.6-.3-4.8-.4-.7.1 6.6-.1 1.5-.3 5.3 0 6.5.5 1.1.3 10.8 0 1 .1.1.2-1l-.1 15.4c.1-2.1.1-3.2.2 0-.2-1.6-.2 5.2-.3 7.7l.1.6c-.1 2-.2-.1-.2-1.8l.1-1.7c-.1-3.1-.6-2-.6 3 .1 5.3.4 4.5.6 3.6-.2 7.1.6 6.7.4 13.5 0 1.6-.5 6.8-.6 11.7.3 2.6.2-6.2.5-3.3-.7 8.2.4 17-.1 27.8l-.4-1.4v7.8l.2-3.7c.1 2.5 0 8.4-.3 6.5.3 5.7.1 6.9 0 12.2 0-5.6 0-.1-.1-4.2-.2 5.9-.1 6.3 0 10.4-.1-.7-.3 1.5-.3 3 .2 3.8.2 10.3.3 15.7h-.1c.1 8.9-.4 18.6-.1 27.6v.4-.7c.3-3.1.2 7 .4 9.7-.1.6-.2.9-.2 2.4.3.1.2 3.5.3 4.8-.1 3.1-.4-.4-.4 4.9 0 2.1.2 2.3.3 2.1a64 64 0 0 0-.3 7.3v-3.1c-.2-.4-.1 1.5-.3 1.5 0 2.5.3 1 .2 4.1l-.2-2.9.1 3.5c-.1-1.9-.3-1.6-.5-1.4.2 7.2.7 1.4.9 1.8-.2 6.8.1 12.2.1 17.5l-.3-1c0 2.6.1 3.8.2 4.8v4c-.1-2.3-.2-3.1-.4-3.2.1 4.2 0 10.1.4 11.2l-.1-.2c-.2 5.6-.3 17.4-.4 17.1.1 6.1-.1 13.8.3 13.9.1 3.6-.5 9.4 0 12-.3 4.3-.1.2-.4-1.1-.3 4.3.4 8.7-.2 10.1.2 5 .1-1.2.4.5-.5 1.1-.1 9.3-.4 14 .2 2.1.1-2.1.4 1.5-.1-.4-.2 1.6-.2 2.5l.3.9-.8 4.8c.4 7.1.6-1.4.7 8v-.6c-.3 2.6.2 6.7 0 13.6.1-2.3-.2-1-.2-1.7l.1 3.8q0-.6-.1-.1c-.3 3.3.1 2.9-.1 6.8-.1-2.7-.3-1.9-.4-.7l.4 5.6-.4-2.3c0 5.4.6 13.5 0 16.2l-.1-2.7q-.3.1-.2 5.5 0 1.6.3 1l-.1 2.1c-.3-1.3-.4-8.1-.4-12.3.1 1.3.2 4.6.4 3.6l-.4-11 .4 3.1c.2-4.1-.2-3.1-.2-6.2.1-1.2.2-2 .3-1.2v-11s.2 4.6.4 2.1c-.2-7.5-.5-9-.7-17.1-.5-9.4.3-18.2 0-24.8-.1-.4-.2 4.9-.3.6.3.7.2-2.5.3-2.8-.4-4.6.1-6.8-.2-10 .1.8.2-1.9.3-3.7.3.5.1-5.1.6 1.6-.5-6.9.2-12.2-.6-17.3l-.1 1.8.2-6.9v.3c.1-3 0-3.5.3-7.5l.1 6c.3-3.7-.2-7.7-.2-11.8.2.2.1 4.3.4 3.1l-.2-8.1.1.4c.3-7.2-.6-2.8-.2-8.1-.1.2-.2-.5-.2-.2.1-2 .4-6.6.5-2l-.2-6.6c-.2 2.1-.1 2.7-.4 3.5l-.1-10.1.1 2.3c.7-11.9-.5-24 .3-37.4-.2 1.5-.2-1-.3-2.3.1-4.3 0-10.9.2-14.9l.1 1.3c-.2-10.3-.4-17.5-.3-24.3l.2 1.3c-.3-5 .6-11.1 0-12.5v1.9c.1-10-.3-21-.3-31.3.3-2.4 0 5.9.4 3.8.2-7.1-.1-14.4 0-22.2l.1 1.6c.2-7.7-.3.9-.3-5.7.2.4.2 0 .3-2.1l-.3-1.9q.1-.6.3.7c-.4-2.9-.1-11.6-.4-13.9.1-.6.4 1 .5.1.1-3.5 0-5.8-.1-8.2.2-2.4.2-8.4.3-7.1.1-6.2-.2-1-.4-5.7l-.2 5-.1-8.8.2 3.5-.1-12.8-.2 2.1-.1-5.3c.4-.5.1-6.8.6-3.9.2-9.8-.3-16.1-.3-24.9 0 .9.1.5.1.8.1-5.3-.1-8.4-.3-11.6l.3 1.9-.1-4.9-.1-1.7-.1-1.3v-.6h-.4l.5-.2-.7-.1c.4.1-1.3.2-2.5.3 5.1-.8-7.4-.4-4.6-.9-1.1.2-9.9.5-8.2.8l-31 .1c1-.1 5.4-.2 2.6-.3-10.9-.1-17.2.3-28.2.4-.5-.5 11.9 0 12.3-.5q-17.2.1-36.3.5c-4.5-.8-12.6.3-20.5-.3.8.3-3.2.3-7.5.3 1.5-.2-3.1-.2-1.8-.4-3.8.2-14.7.3-14.3-.2-1 .5-8.1 0-11.3.3-4.8-.2-10.3.1-16.3-.1 1.9.3-4.4.2-7.3.2q.9 0 .7-.1c-1.8-.3-6.9.2-10.3 0-1.5-.1.4-.3-2.1-.3l-5 .3-7.5-.1c1.6 0 1.6-.1 2.5-.2-16 .3-33.1-.2-49.4.2l2.9-.3c-10.2-.5-6.7.6-14.8.5L31.3 5l-13.8-.1L5 4.8V15c.1 1.6.1-.9.3-1.2 0 1.9-.3 2.4-.2 5l.2-.6c-.5 9.8.3 28.4-.5 35.7.3 9.5-.3 16.1.1 27.6-.2 3.6-.3-4.2-.4.7l.3 10.6v-.6c.5 10.2-.7 27.1-.3 39.9v-.5c-.1-.3-.3 2.4-.3 4.4.1.7.1-.7.3-1.9l.2 23c-.2-3.9-.2 3.6-.5 4 .2 2.4.3-1.4.4 3.9q0 11.4-.4 20.8c.2 2.5.2 5.9.5 6l.1 23.7-.1.3c.4 2.8-.2 9.1 0 11-.1-.3-.2-1.4-.3-1.1l.1 4.8c-.1-2.2-.5-3.5-.5.4.3 4.1.2-1.1.4.9l-.3 1.2c0 3.1.4 3.9.5.2v30.1l-.2-1c.1 5.2.1 12.1-.2 15.2.1.1.2 1.4.3.6.3 5.7-.3 1.4-.1 6l-.2-2.7.2 12.6-.3 4.6-.1 8.6c.1.2.2-1.3.3-2.7l.1 3.4-.4 2.6.3 4.9-.3.1c.1 3.6.5 5.1.4 8-.2 11-.3 8.8-.7 16.6.6.9-.1 12.4.4 14.4-.5 10.4-.2 25.5-.4 39.2l-.1-1.1c-.3 5.8.5 6.7.3 12.9l-.1-1.6-.2 6.4v6.4l7.8-.1 7.4-.2q-2.2.2 1.7.3c2.1-.1-2-.4 2.3-.3-1.1.1-.2.2.8.2l4.3-.3c11.2.2 24.3.5 35.9.3 2.1.1.6.2.1.3l26.6-.3.8.4c4.1 0 2.5-.6 7.8-.2 1.2.1-3.5 0-4.9.2 8.1.3 4.8-.3 12.6-.3l-2 .4c6 .3 6.8-.2 9-.4 8.4-.5 5.9.8 17.3.5 1.8-.2-.6-.3 1.2-.5 8 .1 9-.2 17 0 4.3.6-4.1 0 .6.6l-6.1-.2c5.3.3-4.8.1-4 .4 3.9.1 9.9-.2 15.1-.3 0 .3-6 0-3.6.4l2.6-.1c-.7.1-.9.2-2.4.2.9.3 3.1 0 5.6 0q.3-.2-.8-.5l.7.1c5.2-.4 13.9-.1 18.3-.4-.7.1-.1.1.1.2 3.1 0 6.3-.3 10.5-.4 2.3.2-1.3.6 5.4.5 1.2-.2-1.8-.6 3.8-.6 0 0-4.9.2-2.3.3 5.5-.1 1.8.1 6.8.3 2.9-.3 5.5.1 6.1-.4 1.8.4 1.3.2 4.8.5-1.5-.3 6.6-.3 6.3-.6 1.4.4-5.9.5-1.3.9 3.1-.3 8.9-.3 9.4-.8 2.4.1 3.5.3 7.2.3l-1.7.1c6.6-.3 16.3 0 20-.5-1.3.6 14 .1 9 .7 2.7 0 7.1-.3 8-.4-.3.5 6.8.1 9.8.4 1.5-.3 6.5-.2 9.5-.3q-2 0-1.6.3c3.4-.2 2.5 0 5.4.2 4.6-.1-.8-.4 1.9-.6 3.9.1.6.3 1.3.5l5.9-.5q1.8 0 2.5.3c2-.1 3.8-.3 6.7-.1h-5l1.9.2 6-.3q4 .2 5.2.4l-.1-2.4.4 1.5v.9c1.2.3.4.5 0 .8v.1h.5l-.5.1q0 .3-.1 0h-.2l.1-.2-3.5.1c.1.2 2.5.3 4.1.3 1.4.1-5.6.5-9.5.6-10.3-.1-2.1-.6-9.2-.7l-9.1.3-.1-.2-2.7.1c.6-.2-7.4-.1-11.1-.1l1.3.2c-10.3.5-16.3-.6-24.4-.3l-5.7.4-1.2-.3c-3.4.2-4 .4-9.5.3-19.4-.6-40.2 0-59.8-.4l2 .1c-17.2-.9-26.9.8-42.5.1l1.1-.1c-7.9 0 1.1-.1-4.7-.3-1.1.4-10 .3-14.6.4l3.6-.1c-.9-.1-1.2-.3-3.5-.3-5 .6-15.9.5-23.9.6-1-.3-7.9-.5-11.5-.9l-3.7.5q-4.2-.3-7.1.1h6.5-.2 3.3c3.2.3-.2.2 0 .5-2.6 0-8.1.1-8.7-.2l-4.3-.1h-3.2.5l-.7-.1c-5.1-.1-12.4.3-16.6.5 4.2-.4-1-.4-1.1-.7l10.3-.1c-5.6-.3-9.6.2-17.9 0 .5 0 1.6-.1 1.2-.2a29 29 0 0 0-6.2.3c-.7-.3-6.9-.5-10-.4-2.7.2-2.3.3-7.2.3l2.2-.2c-5.8-.2-4.7.3-9.5.1q2.8 0 .6-.2l-5 .1-4.3.2-.1-1.5-.1-1v-.8l.1.4.1.6-.1-4.6-.1-4.9.1-5.5c-.5.7-.2-11.5-.2-15.8 0 1.5.1 1.8.2 2-.4-9.4 0-19 0-28.5l.5-1.5c0-5-.9-6.5-.9-11.9l.2 2 .1-21.3.3.2c-.1-2.8-.1-6.3-.3-9.1.8-6.4-.3-25.3.5-36.9l-.6-.7c0-4.5-.1-10.2.4-12.3v1c.4.4 0-4.5.1-7.2 0-2.1-.3-4.2-.4-2.4.7-11.8.4-29.4 1-36.7-.2-11.9-.6-20.8-.5-33.7l.1.2c.1-4.3.3-13 .7-13-.1-9.2-.7-15.1-.5-26.1l.2 2.4c.1-2.8-.1-7.3-.2-8.4 0-1 .1-.3.2-.1.2-2.6-.1-4.2-.1-6.3l.2.9c.3-8.8-.3-22.6-.2-33.9 0 2.1.2 1 .3.1-.6-4.7-.4-17.5-.5-22.2l.2 2.9c-.3-9.2.6-8 .2-17.1L2.1 73c.1-3.7 0-6.9-.2-6 .1-4.2.4-.5.4-7 .1-.3.1 4.7.3 2.6l.4-9V53v.6-4.4c-.7.8 0-7.5-.7-3 0-12.8.4-23.6.2-34.6l.2-3.3.1-2.2V2.8h5.6a55 55 0 0 1 7.9.5l11-.4c1.6-.2 9.1-.2 12.2-.2-3.9.1-10.5.3-13.7.6l16.7-.4 1.4.4c4.8-.3 4 .4 8.8-.1l-.9-.1c8.7.1 8.8-.4 17-.4l-.4.2c2.8.1 6.9-.3 9.7.1h-5.3c.5.3 4.6.4 6.4.6 5.6-.2 2-.6 4.8-.6 1.2.3.3.1-1.7.4 6.3-.1 14.7-.2 19.2-.5.3 0 0 .1 0 .1 6.5.1 12.3-.4 16.3-.2h-1.3c5.2.4 13.5-.4 14.6.3 2.5.1-5.6 0-1.7.3 7.8.2 5.1-.6 12-.4l-1 .1 17-.1c6.7.6 20.5-.1 28.2.6-2.3-.2 1.3-.3 1.9-.3q-.2 0 .1.1c2.8 0 3.1-.2 4.2-.3 2.3.2 7.8-.2 9.2-.1l4.8-.1c-5 .2-1.6.3-3.9.5 7.5.1 8.6-.6 16.4-.5l4.3.3c.9-.4 8.1-.2 7.9-.4 1.3.1 3.3.2 3 .4 3.1-.1 7.8.1 9.1-.1l-3.1-.1c9.6.2 15.4-.4 22.8-.1l-.2.6c4.9.3 9.1-.3 13.4.1-1.5-.2-1.8-.2 1.3-.4l-8.5.1 6.6-.4-10.3.2c4.4-.2 4.1-.2 2.3-.4 6.3-.2 6.8.3 12.8.1 2.2.1-.1.3 2.4.5 5.3-.2 10.2.5 14 .2 1.2.1-2.2 0-1.9.2q5.3 0 6.9-.2l-3-.1c2.6 0 3-.2 8-.1 2.9-.1 4.5-.4 1.4-.5 1.3 0 4 .1 3 .3 3.1 0 4.3-.1 5.1-.2l1.2-.2 3.3-.1v4.7c0-.5 0-1.1-.1-.8v3.2c0-1.6-.1-1.2-.2-.9q-.1.4-.1-.1V5.2l-.1.8-.1.8v7.1c.2 3.8.5.4.6 2.3l-.2 3.4.3-1.8zM73.6 419.1l2.6.1.7-.1zm-9.8-2h2.7zm-11 0 3.6.2q1.7 0 1.1-.2zm264.7-21.8v-.7zM47.6 418.7q-.1 0 0 0M320 9.9v1.5q.2-1 0-1.5M4.4 284.2l.1 1.3zM187.5 3.4s.1-.1 0 0q0-.2 0 0m-45.5 2h-.8zM79.3 418.8h.7l-1-.1-.6.1zm239.4-219.6v-.4zM4.4 315.4v1zm313.1-55.6-.1.8zm-.1 26.3v1.2zm-.1 2.2v1.5zm-.1 18 .1.4zM299.7 5.4h-.8c-1.8.1-.6.1.8 0m18.4 75.4-.1-3.1c-.1 1.7-.1 3.1.1 3.1M193 5.5h-.6zm123.8 389.2v.1-1.1zm.1 1.2v-1.1zm.1 2.3-.1-2.3zm-.1-31.5.1.3zm.1-7.8-.2 7.6.1.3c-.2-1.3.3-6.1.1-7.9m1.4-33.9-.1 6.8c.1-1.2.3-2.8.3.3.4-8.5-.2 1.8-.2-7.1m.3-21.1c0 3.7.2 0 .2.2-.1-2.4-.1-2.9-.2-.2m.3-152.5.3.4c0-2.8-.1 0-.3-.4m-1.3-29.1-.2 2.7.2 1.3zm2-17.2v1.2l-.1-4.7zM163.3 2.8l.9.3c1.9 0 2.3-.4-.9-.3m-110.5.1a31 31 0 0 0-6.2-.1zM1.7 286.1l-.1-2.2.1 4.2zM286 78.1a16 16 0 0 1-6.6 6.2l-.9.6c-.5 3-1.1 5.7-4.3 7l-1-1.2h-1.7q-1.3 0-2.1-1.2c1-.2 1.7-1 2.3-1.6l-.7-1.8q-2.1.4-4.5.5h-4.8q-2.9-.5-5.8-.5a2 2 0 0 1-1.7 1.4c-3.4.7-5.9-2.7-5.2-5.3l-.5.4q-.9 1.3-2.4 2-1.6.8-2.8-.9-2 0-3.1-1.7l-2.7.6c-2.2.5-5.2-.1-6.3-2.3l-3.2-.2-2.8-.5-3.7-.5-2.8-.3a7 7 0 0 1-4.3 3.2q-3.3.6-6.4-.2-3.8-1.2-6.9-3.5-1.3-.9-2.8-.9h-9.1c-1.5 2.3-3.4 2.1-4.4 0-4.5-.3-9 .2-13.4-.3l-2.7.2h-5.1q-1.6-.1-2.8.9l-.9.8a10 10 0 0 1-7.4 2.6c-.9 0-1.7-.3-2.6 0q1.3-.8 2.3-2.3-3.3 1.4-5.7-.8l-1 .3a29 29 0 0 0-15.4 9.1l-3.7 3.4a49 49 0 0 1-18.3 8.1l-4.4.6-5.1.4q-3.4.3-6.9-.2-2.8-.3-5.7-.4h-.6l-1.8-.3-1.8-.3q-2.6-.2-5.2-.7-3.9-.8-7.8-2a49 49 0 0 1-13.7-6.4c-2.9-2-5.9-3.9-8.1-6.8q-1.8-2.2-3.1-4.8-1.2-2.6-1.8-5.5l.1-.5q.3-2.6 1.3-4.9c.7-1.6 1.2-3.3 2.6-4.5l.1-.1q1-1.7 2.6-3.1 2-1.8 4.3-3.4 5-3.6 10.5-6a69 69 0 0 1 19.8-5q3.3-.5 6.6-.6c4 0 8-.3 12 .2l5.4.6q2.4.4 4.8 1.1 6.8 2.1 12.7 5.9 3 1.8 5.3 4.4 2.1 2.4 4.5 4.2a30 30 0 0 0 11 5.2 2 2 0 0 0 1.9-.3q1.7-1.2 3.6-.5l1 .1a6 6 0 0 0-2.1-2h3.7q2.9 0 5.2 1.7a20 20 0 0 0 3.5 2.3q2.2.3 4.6.3h18.1l.2-.3c.8-1.6 2.3-1.9 3.6-.6l.9.9q4.6.1 9.1-.2 1.5 0 2.8-.9l2.9-1.8a21 21 0 0 1 6.1-2.1q2.2-.3 4.2.3 2.7.6 4.1 3.1c4.3-.1 8.4-1.1 12.7-1.6q.6-1.3 2-1.8l2.1-.4q2.5-.1 4.8.8 1-1.9 3.1-1.7.5-1.4 1.9-1.2 1 0 1.8.8l1.6 1.5v-.7q.3-2.8 2.9-4.1 3-1.1 4.3 1.4l4.8-.5q2.6-.2 5.2-.1l4.9.2.8-1.9-2.2-1.7c1.3-.9 1.3-.9 3.9-1q.1-.5.5-.9.6-.2 1.1.1l.8.5a8 8 0 0 1 2.5 5.3q0 1.1 1 1.6 2.8 1.6 5 4 3.2 3.5 3 8.1l-.3 1.8q-.6 1.7-1.3 3.1m-7.6-15.8q.3.8 1 1.1 2.1 1.7 3.8 3.9c.6.9.9 2 1.7 2.8l.1.9.7.3c.1-3-4.4-8.6-7.3-9m6.8 9.3-.1.1.2.1zM281 67l-.7 1.5 1.2 1 .8-.4zm-.7 2.6c-.2-.5-.9.2-1.1-.4-.4.1-.6.7-1.1.6v.3c.7-.1 1.5.1 2.2-.5m-2 1.2q.7.3 1.1-.4-.6-.2-1.1.4m1.5-6-.4-.2c-.2 0-.2.7-.7.3l-.1.2.2.3c.6.3.6-.4 1-.6m-1 1.8v.2zm-.5 2.6.8-.5v.5c.7-.2.6-1 .8-1.5q.2-.5.2-1.2-1.3 1-1.8 2.7m1.6-4.1.1-.1-.2-.1zm-1.9 4.4-.2.2h.2zm.2-3.1c-.9.8-.6 2-1.3 2.8l.3.3q1.4-1.1 1-3.1m-1.4 2.8-.2.1.2.1zM270.9 56l.2.1-.1-.2zm.7.2h-.4l.3.2zm1.8.8c.5 1 1.2.6 2 .4q1.3 1.6 1.8 3.6.9 3-.5 5.7l-.4 1q1-1 1.4-2.4.7-2.6.1-5.4-.4-2-1.2-3.8-.6-1.1-1.6-1.7-.4-.2-.6.1-.3.4.2.7 1.9 1 2.2 3.1-1.7-2.9-5.3-3.2zm-.6 13.2c.8-.4 1.8-.5 2.2-1.3l-.9.3q-1.3.8-2.9.4l1.4-.4q1.6-.4 2.7-1.8c.6-.7.8-2.2.4-2.9a3 3 0 0 0-2.2-1.4c-.6-.1-1.6.5-1.8 1q-.4 1.2.8 1.8l.9-.4-.2-1.3c.7.3 1.5.2 1.7 1.2v.9q-.9 1.9-2.9 2-3.1.1-5.9-1.4-1.9-1-4.1-.6c.5.6-.1 1.3.7 1.9l-.7.1q.4.8 1.3.9l1.3.4c-.7.5-1.3 0-1.9-.1q-1.1-.3-2.1.4c-1.2.8-2 1.9-3.2 2.9l2.8 2.5q1.3 1 2.8.5h1.4l-1.3.4q-.7.1-1.2.8h.4c.3.4-.6.4-.3.9q.1.3-.1 1 2 .4 3.7-.5 2.5-1.2 5.3-1.6a4 4 0 0 1 3.6 1.6q1.2 1.9-1.3 2.3l-.1-1-.7-.1q-.6-.1-1 .5-.5.8.2 1.5 1.4 1.2 3 .2c1.2-.9 1.3-2.6.4-3.8q-1-1.5-2.9-1.9l-1-.3c1-.4 1.9.1 2.8.1l-1.1-.8.9-.2-2.2-.6.6-.8q.8-.8 0-1.6l-.3-.3-.2-.4 1.9-.6q-.1-.3-.7-.4m2.3 6.2q-.2-.6-.8-.6.2.7.8.6m.6 5.3.1.4h.1v-.4zm-.6 2.8.1.2.1-.1-.1-.3zm.1-2q.2 0 0 0v-.3l-.1.1zm-1.2 4.7c.8-.2.8-.2.9-1.2l-2.8 1 .6.4zm-.9-1.3-.6-.5q0 .7.6.5m.5-.2.3-.2-.3-.4-.2.2zm.7-.7v.4l.5-.4-.1-.2zm.3-2.2-.1-.1-.1.1zm-3.6-2.5c0-1.2 1.1-1.8 2.2-1.3l1.2.7q0-.6-.3-1.1-.2-.3-.5-.4-1.6-.3-3.3-.3-2.5.3-3.6 2.6v.5q.9-.2 1.4-.9l.6-.8q1-1.2 2.5-1.1l.9.1c-1 .3-2 .4-2.2 1.6l-.5.2-.2-.4q-.9.8-1.1 2.3c1-.5 1.8-.9 1.8-2.1l.9-.7c-.4 1.1-.7 2 .4 2.7zm-3.3.8q-.2 0 0 0v.2h.1zm-1.1 1.1c.2.8.5.6.9.5zm.7-.4-.8-.6q.1.6.8.6m-1.5.7.1.2.1-.1zm-.8-2.8-.1.2.2-.1zm-.6.5q.4.1.5-.3-.4-.1-.5.3m-1-.2h-.5v.1zm-6.3-4.1-.8 1q.3.8 1 .6c.6-.7.4-1.5.4-2.3q-.6-.5-1.4-.2c-.1.7.4.7.8.9m-.6 2.8 4 2.6-.3-1a8 8 0 0 0-3.7-1.6m1.5-3.1.1 1.3.5-.7.5-.6-1.3-1.2-.2.8zm1.6 2.6.4-1.2q-.8.2-.4 1.2m.6-1.3-.1-.1-.1.2zm.5 2.9.2-.5-.3-.3-.2.3zm.1.2.5.5.5-1zm.5-1.7.7-1.3c-.8.3-.8.3-.7 1.3m-.3 2.8.7.9.8-1zm1.6-1-.1-.3-.7.4.1.2zm-.1-15.9-.5-.9-.5.9zm-.6.6-.1.2.6.5.2-.3zm-1 .4.9.6-.4-1zm.6 2.5v-.8q-.6.5 0 .8-.2.6.6.6zm-.9-2-.3.2.3.3.3-.3zm-.9 1.7q-.2 1 .9 1.5zm.7-3.4-1.9 1.3-1.6 1.2q1.6 0 2.7-1 .6-.4.8-1.5m2.9 1.3.1-.2-.3-.1-.1.2zm1.7.1q-.1-.4-.5-.3 0 .4.5.3m.1.2-.2-.1zm5.8.4-1-.7c.1-1.2-.7-1.6-1.7-2.2a6 6 0 0 0 1.1 2.4l.3-.2h.4c.2 1 1 1.2 1.8 1.4l.5.3h.4c1.4-.1 1.4-.1 1.8-1.5l-1.1.7c-1.1.5-2.3-.1-2.3-1.3v-1.3l.2-.1-.1-.1-.1.2c-.8.3-.6 1-.5 1.6q0 .3.3.8m-3-.9q-.3-.8-1.2-.4 1.3 2.8 4.3 2.7c.4 0 .9.3 1.2-.2h-.2c-1.9.3-3.1-.7-4.1-2.1m-1-1.2s0-.1 0 0q.2-.2 0-.2t-.1.1zm.6-1-.5-.1-.5.1v.1h.9zm7.6-3.6c-.2-.4.2-1.1-.6-1.1-.7-.1-1.5-.7-2.2.2zm-2.5.6.5-.5q-.6-.3-.5.5m2.8.6h-.2l.1.4h.1zm-.1 2.3-.1.1.1.1.1-.1zm0-3.4-.2-.1q.1.2.2.1m-.5 1.1.1-.2-.5-.3-.1.2zm-.1 2-.1.1v.1h.1zm-1.4-2.6.3.3.3-.2-.3-.3zm2.7 3.7-.1-.4h-.1v.4zm.4.3s.1 0 0 0v-.2zm-4.2-4.8-.1.1.1.1zm-.4-2.4q0 .2 0 0v.2h.1zm-6.8 3.9q.2.8 1.1.7 2 0 3.8.9 1.5.8 3-.2l.5-.2-.2-.2-1.9-.2q-2.8-1.1-5.8-.9zm-.8-1.2q0 .2 0 0h.2zm-.4 3.7-1.5-.2q.8 1.3 1.7 2.2h.4l-.9-1.7c0-.1.9.1.5-.5q-.4-.6.5-.7-.3.9.4 1.4l.3-.2.6 1.5.3-2.5-1.2.8v-.6q.5-.7-.2-1.3c-.7-.6-.7-.9-1-1.5q-.6.3-.6 1.1c-.2.8-.3 1.5.7 2.2m-3.9-2.9-.1.2.2-.1zm-8.8 1.2q.2 1 1.5 1c1.3 0 1.9 0 2.8-.3q2.2-.5 4.3-1.7l-3.9.3q-.5.1-1.1.6-.8.7-2-.3 1.5 0 2.1-1.3-.7-1-2-.7l-.8.2q-1.1.6-.9 2.2m-.9 1.4q.3 1.1 1.2 1.7 1.4.8 2.7.5l3.8-1.5 4.1-1.9-.1-.6q-3.4 1.4-6.8 2.5c-1.8.7-3.1.8-4.9-.7m6 3.8q.5.5.6-.1zm-3.3.3-.3.2h.4zm-4.1-3.9.1.2.1-.1zm-.3 1.5.1.2.1-.1zm-4.2-2.3c1.4.7 2.5 2 4.1 2.3l-1.8-2.2-.9-.7q-.5-.4-1.4.6m-3.4 1.4c2.5.9 4.8 2.2 7.8 2.6l-3.3-2q-1.4-.7-2.9-1.2-.9-.1-1.6.6m-8 3.4.7.3v-.6q0-2 2-1.9 1.6-.1 3.1.5l4.8 1.7q3.5 1.1 7.1.7 1 0 1.9-.5l-2.2.2q-1.7.2-3.3-.5l-7.2-2.5a13 13 0 0 0-3.3-.7q-1.7 0-3.3.8c-1.2.6-1.3 1.8-.3 2.5m2.8.5-1.1.3q3.5.2 6.8-.5c-1.6-.5-2.7-1.3-4.1-1.5l-1.5-.2q-1-.1-1.5.8c.1.9 1.1.4 1.4 1.1M218 69.7c2.8-.8 5.4.1 8.1.2l-3.8.3q-3.4.2-6.7 1-1.4.3-2.5-.6l-1.3-1.4c-.4 1-.4 1 .2 1.5l-2.9.4-1.5.3-.3.7c.6 0 1.1.4 1.6-.2l.2-.1c.2.8 1 .2 1.5.6q0 .6-.8.7l-.9.3c.9.4 1.6.2 2.3.3v-1.6h.2l.1.8c.1 1 .1 1.1 1.4 1l.2-.9.2.9c1-.5 2 .2 3.1.1l3.5-.1c1.1 0 2.1.3 3.2-.1q1.6.3 3.2.1c1.6-.2 2.2.1 3.4 0l3.2.2.3-.6.3.4.6.1h1.6q.7.1 1.4.5l-3.1.4.1.7q.3.3.7.3h3.4l.1-1.1c.5.2.1.7.4 1l4.4.3a1 1 0 0 0-.3-1.3c-1-.2-2.1.3-3-.5q.3-.5 1-.4h2.9l1.3-.1c.5-.2.6.4.9.4h2c.5-.2.9.2 1.3 0s.9-.4 1.3-.4l1.3.1h1.6l.3-.4.7.4 2.6-.3q-.6-1-1.9-1h-8.4l-3.4.2-1.7-.2-1 .2q-2.2 0-4.3-.2-1.7-.3-3.3 0-2.4.5-4.8 0h-.4q-1.4.4-2.7.2h-11.5q-.6.2-1.4-.4l1.1-.2h12.8l1.3-.2.8-.1q2 .5 4 0h9.7l9.8-.3c1.8-.1 3.5.4 5.4 0l1.1-1-12.6.2h-12.7q.6-.7 1.4-.6h1.7l12.8-.3c1.7-.5 3.5-.2 5.3-.5q2.5-.5 4.8.3h.7l-.9-1.1-.5-1.1-2.2.6c-2.9.8-5.8.6-8.7.5q-.7 0-1.4-.3-1.2-.2-2.3 0h-2.5q-3.4.2-6.7 0H231c.9-.6 1.8 0 2.4-.7l-1-.4q-.4-.4-.9-.2-.7.4-1.3-.3c.3-.5 1.2.3 1.4-.7h-1c-1.7.5-3.4.3-5.1 1.1h2.4v.2l-1.8.2-2 .2q-1.9.1-3.8.5l-1.4.1zm37.9 5.7c-.5-.9-1.2-.4-1.8-.5l-.3.6h1.5zm-2 1.1.4.4h1.4v-.2zm-.9-1.6-2.2-.2q-.1 1.5.8 1.1.8 0 1.8-.4-.1-.4-.4-.5m-4.5.1.3 1h1.6v-1zm-2.9 0v1h2.5v-1.1c-.9.1-1.7-.6-2.5.1m-.7-.1h-1.7l.2 1.2.2 1.1.9-.2q.6-.9.4-2.1m-8.8 3c-1.2.2-1.2.2-1.9.9q.1.4.4.7.8.4 1.6.3 2.1-.4 4.2-1.3l1.6-.6q.8-.2.8-1.1l-4.4.4-.3.8h-.2l-.2-.7-.2-.1h-1.2l-2.1-.1-.2.4q.8 0 2.1.4m-3.5-3h-2.1l-.1 1 2.9.1q.3-1-.7-1.1m-30.4-2.2-.1.1h-2.7c.3.7.9.7 1.3.9l2 .5q2.4.5 4-1.5-1.3-2-3.5-1.6l-4 .9.1.2zq0-.1 0 0m2.2-3.1 1.9.9q.1.2.3.1l4.4-.3q.3-1.5-.6-3.1l-1.8.3.3 1.2 1 .1-.1.2c-.3.1-.8-.2-1 .3q-.4-.2-.9-.2zm3.6-1.2c-.4-.6-.4-.6-.9-.6q-.7-.1-1 .6zm2.1-1.5s0-.1 0 0l-.4-.1v.2zm-6 8.7q1.9.3 3.3-1.4zm4.3-2.3c-.3-.4-.7-.1-1.1-.3.2.8.3.8 1.1.3m-2.1 3.8c1.2 1 1.9 0 2.6-.5-.8.1-1.8-.4-2.6.5m3.4-1.4q.8-.2.8-1.3l-1.9-.1-1.4 1.7q1.3 0 2.5-.3m-.2 2 .7-.2.9-.7c-1-.1-1-.1-1.6.9m1.3.7 1.6.1v-.1zm.9-.7q.2-.1 0 0v-.2zm.7-3.1-1.2-.1-.4 1.3q.7.4 1-.2zm-.7-6.8.6-1.3h-1zm-15.3 1.3-.1.2zm-5.3.2q2.1 1 4.2.3c.3-.1.8.2.9-.3zm-4.9-1q.3 1 1.3 1.5l3 1.6q.9.4 2.1.5a15 15 0 0 0 8.7-2.4q3.3-2.2 6.9-3.7 2.5-1 5.2-.3 1.7.5 1.9 2.7l-1-1q-1.2-.8-1.9.5-.1.3.1.7.6.8 1.3 1.3c1.1.8 2.5.1 2.6-1.3l-.3-2.1c.9.3 1 1.2 1.2 1.9.4-.8.4-.8.3-1.1q-.1-.7-.5-1.3t-1.1-.9a9 9 0 0 0-5.6-.8q-1.6.2-3.3.9-3 1.2-5.4 3.1-3.9 2.9-8.7 2.9a5 5 0 0 1-3.5-1.4l-1.5-1.8q-.4-.7-1.2-.6-1 .2-.6 1.1m3.2 4.5.7.1v-.1zm-.6-.1-.6.2.1.4.6-.2.1-.2zm-29.9-5.8.1.2.1-.1zm-.6-.3q.2.4.5.3-.1-.5-.5-.3m-6.4-2.1 2.2 2.4q1.7 1.3 3.8.6l-2.9-.8.5-.3-.7-.4q1-.1 1.7.5.3.3.5-.2l1.2.3q-.5-.8-1.4-.8v.3l-.2-.2.2-.1q-1-.7-2-.7-1.4-.6-2.9-.6m-.2-.1.2.1zm.2 1.3.1.2.1-.1zm-4 1.2c1.2 1.6 2.6 3 2.9 4.9q1.6.2 3.2-.4l-1.2-2.9q-.9-1.5-2.5-1.6-1-.2-2.4 0m.2 5.5c.1-.6-.4-.6-.8-.9l-.4.4q-.8.6.1 1.1v.5q1-.2 1.1-1.1m-.5 2.1-.1.2zq.2 0 0 0m-1-4q0-.1 0 0h-.2v.1zm-.1 3.9s-.1.1 0 0v.2l.1-.1zm1.1-5.3.2.1zq0-.1 0 0m-2.7-.5-.2.4 2.9 1.3q-.7-1.5-2.7-1.7m-.5-.1.4.1-.4-.3q.2 0 0 .2m-2.6-.4q.2.6.9.7l.6-.3-.6-.6.2-.3c-.3-.3-.3-.2-1.1.5m-8.4-5.5.2.1-.1-.2zM119.8 52q.2.4.5.3-.2-.5-.5-.3m-.3-.1.2.1-.1-.2zm-18.8-4.7h1c-.2-.4-.6-.1-1 0m-43.9 8.5q.4.4.5 0zm-5.4 5.2-.1.2.2-.1zm-.7.5q.3 0 .5-.3-.3 0-.5.3m-.2.1s0 .1 0 0m-2.9 4.3.2-.1zm-1.7 8.4-.2-.1.1.2zm3.8 7.4v-.2zm.3.3-.2-.1zm3.3 2.1q-.3-.6-.9-.6c-.3-.7-1.1-.7-1.6-1.1q.4 1 1.6 1.2.2.5.9.5m-1.5-3.5-.3-.3-.1.2zm1.1.8q-.3-.8-1.1-.7.4.6 1.1.7m3.4 4.2a3 3 0 0 0-2.4-1zm-.6-2.7c.1-.8.1-.8-.5-1.1l-1.6-.6c.1.9.2 1 2.1 1.7m3 1.1c0-1.1 0-1.1-.9-1.4l-1.7-.6c.2 1.7 1.6 1.6 2.6 2m-1.8 3.3q-.4-.5-1-.2l1 .5zm1.3-1 1.3.3c-.6-1-1.5-1-2.5-1.1.2.8.9.6 1.2.8m21.3 4.1.8 1.3c.7-.6 1.8.1 2.4-.8.9.6 1.6-.1 2.6-.1l-.7-1.4zm2.6-.9 2.1-.4-.6-1.4h-2.2zm-.7-.2q-.3-1-1-1.5l-2.2.3 1 1.7c.8-.3 1.6.1 2.2-.5m-3 1.3h-.6l-.8.4.4 1 1.9-.4q0-1.3-.9-1m-.9-2.6h-1.9v.3c.8 1.8.8 1.8 2.8 1.3zm-1.2 2.8-2.3.4c.7 1.4 1.8.6 2.8.9zm-1.6-2.9h-2.2l1.1 1.9h2.1zm-3-.2h-2.5l1.1 2.2h2.3c.1-.9-.5-1.5-.9-2.2m2.4-.7c-.2-.9-.9-1.4-1-2.2h-2.3l1 1.9zM70 84.4h-2.1c.8 2.3.9 2 3 2q0-1.3-.9-2m-2.4 1q-.6-1.7-2.4-1.3l.3.9q.1.8 1 .8l1.7.3q-.6-.5-.6-.7m-2.4 3h-1.5l.3.8c.8 0 1.6.6 2.6.2q-.2-1.1-1.4-1m-.4-1.5-1.5-.2q.2 1 1.2 1.1l1.7.3q-.5-1.2-1.4-1.2m.2-1.4-.8-1.6-2.1-.3.1.3c.3 1.2.3 1.2 1.5 1.4zm-5.3.5.4.7q1 .5 2.4.5l-.4-.5q-.8-.4-2.4-.7m1.9-2.5-2.6-.7q.3 1 .7 1.4.8.4 1.9.6zm-1.3 4.9c-.8-.9-1.8-.7-2.7-.9q1 .9 2.7.9m3.1.6c-.4-.9-.6-1-2.8-.8.1.7.8.5 1.2.7zm.9 2.2c-.3-.8-.8-.4-1.2-.4l.2.1zm3.2.4c-.2-.9-.8-.5-1.3-.6l-1.5-.2c.8 1 1.8.7 2.8.8m.4-2 1.4.2q.1-3-2.9-2.4.4 1.5 1.9 1.3l-1.1.1q0 .7.7.8m2.7 2.2c-.4-.9-.6-1-2.3-.6l.1.6zm.8 1.7s0-.1 0 0l-.5-.1v.2zm2.4-1.7-.3-.7h-2.3c.5.9.5.9 2.6.7M75 94c-.7-.8-1-.8-2.8-.5zm2.6-.1q0-1-.6-.8c-.6 0-1.3-.3-1.7.7q1 .3 2.3.1m2.9-.3-.5-.9-1.8.1q0 1.3.8 1.1zm2.9-.3-.2-.9c-.9-.4-1.6.1-2.4.2l.5 1zm.8 1h-1v.1zq0 .2 0 0m.1-1.3 1.1-.2 1-.4-.9-1.1-2.1.8zm7.3-1.8-.8-1.4-1.9.7.9 1.2zm-1.2 1.3.5.9 1.8-.4q0-.7-.7-1zm-2.2-1.8-1.9.5.3.6.3.6 2.1-.6zm-1 3.1c-.9-.4-1.6.2-2.3.4.8-.1 1.6.3 2.3-.4m1 1.8v-.2h-1.6v.2zm.1-1.7 1.8-.4q0-.7-.7-.7l-2.2.6q.7.5 1.1.5m3.2 1.3c-1.1-.9-1.9.1-2.8.1l.5.4zm2.6-.4-.7-.8-1.9.7.6.5q.8 0 2-.4m13.9-6.6-.5.4 1.1 1.1 1.5-.8q-.5-1.2-1.5-1 0 .5-.6.3m5.7-.6 1.4 1.1 1.4-1q.4-.3.3-.7l-1.1-.9-1 .3zm3 2.7 1.9-1.2-1.1-1.2-1.9 1.4zm-1-.1-.5-.5-1.6 1c.7.9.7.9 2.5 0zm-2.3-2.4-1.9 1.1 1.3 1.1 1.7-.9-.6-.7zm-7.6 6.8.1.3 1.2-.3 1.2-.4q-.1-.6-.7-.4zM107 93c-1-1-1-1-2.8.1.5.4.8.8 1.5.3zm2.9-1.4c-1.3-1-1.3-1-2.9.1l-.1.1.7.9zm-1 1.8c.9.5 1.5-.2 2.4-.4-1.1-1-1.6.2-2.4.4m4.7-1.5-.8-.7-1.5.9c.8 1 1.5.2 2.3-.2m-2.8-2.5-1.6 1 1.1 1 1.5-.8c.2-.8-.5-.9-1-1.2m-5.9.4.6.7.6.6 1.8-.9c-1-1.5-.9-1.4-3-.4m-2.6 1.1 1.2 1.3 1.7-.9c-.9-1.5-1.1-1.3-2.9-.4m-.9.3-1.5.6c-.2.7.4.9.8 1.4l2.1-.8zm-2.5 1-1.9.7c.6 1.5 1.1 1.3 2.9.4zm-.4 3.3q-1-.3-1.7.5c1 0 1 0 1.7-.5m-.2-4.4-1-1.2-1.8.7.5 1.3q1.3.1 2.3-.8m-3.4 0c-.9-.2-1.5.4-2.2.6l.7 1.1 2.2-.6zm-.1 3.8 2.6-.6-1-1-.2-.2-2.2.7zm.3 1.6v-.2zm1.6-.5H96q.6.5.7 0m1.7.9h-1.1c.4.1.8.5 1.1 0m.9 0q-.5-.5-.8 0zm2.2-1.9c-.8-.6-1.2-.6-2.5.3.9.4 1.6-.3 2.5-.3m1 .9-.2-.3-2.1.7q1.3.3 2.3-.4m1.5-1.7q-.3-1.1-.9-.8l-1.4.7c.8 1 1.5 0 2.3.1m-.7 3.4h-.4v.2h.4zm2.3-2.6c-1.1-.4-1.7.3-2.4.6q1.1.2 2.4-.6m-1.7 2.3h-.2zq0 .1 0 0m3.2-.5q-.2-.6-.8-.4l-1.6.5-.3.6zm3.2-1.1c-1.2-.4-1.2-.4-2.8.4q.3.4.5.4 1 .1 2.3-.8m3-.9-.9-.7-2.1 1 .7.7zm2.4-1.2-.9-.8-1.6.8.8.9zm2.3-1.4-.9-.7-1.5 1c.5.9.6.9 1.2.5zm1.1-.7 1.1-.8c-.6-.9-.6-.9-1.3-.4l-1.1.8q.5 1 1.3.4m5.7-5.4 1.3-1.4-1.3-1-1.1 1.5.3.6q.4.3.8.3m-1.9.2-.9 1.2.2.4.6.3 1.6-1.6-.4-.7q-.6-.1-1.1.4m-1.7 1.9-1.3 1.3.7.7 1.8-1.4-.2-.8a1 1 0 0 0-1 .2m-.7 4.1-.6.1q.5.3.6-.1m1-.9q-.7.2-1 .8c1-.2 1-.2 1-.8m2.8-1.2-.7-.8c-.5.7-1.4 1-1.7 2.1 1-.3 1.5-1 2.4-1.3m1.9-2.2-.6-.5-1.6 1.7.8.6q.6-1 1.4-1.8m1.7-1.9-.9-.6-1.2 1.5.9.8zm1.4-2.3-1-.6-1 1.6.9.8zm1 .9-.1-.1-.1.1zm1.6-2.1-.5-.5c-.3.7-.8 1.2-.6 2q.6-.6 1.1-1.5m2.6-1.5-.7-.5-.4 1.7.1.1zm3.1-1.3q-.3-.5-.9-.5-.6-.1-.5-.8.8.4 1.7 0l1.1-1.3q-.2-.5-.9-.3l-2.8 1 1.8-1.7-.7-.7-1.8 1.3c.1-.9.8-1.3 1.1-2l-1-.6c-.5 1.1-.6 2.4-1.5 3.6l.3-3.7q.2-1.6 0-3.2l-.3-3.7c.9 1.2 1 2.5 1.5 3.7l1.1-.6-1.2-1.9.2-.2 1.7 1.4.5-.9-1.9-1.7 2.5 1 .9.3q.3 0 .5-.3c-.1-.9-1.1-.9-1.5-1.7l3.6 1.6q.6-.8-.1-1.1l-5.5-2.7-.2 1.1-.2-.1-.6-1.1q-.2-.7-.9-1v.8c.5.7 0 1.3-.2 2.1-.9-2.1-1.7-4.2-3.3-5.8l.3.7c1.1 2 2 4 1.6 6.6l-.2-.5-.2-.4q-.8-3-2.3-5.4c-1.5-2.4-2-3.2-3.3-4.7l-1.5-1.3q-1.7-1.4-3.7-2.5l-.5-.1 1.6 1.4 4.5 4.4q.3.3.3 1.1l-1.7-1.7q-2.8-3-6.3-4.8a41 41 0 0 0-12.1-4.5q-2.3-.7-5-.9.7.5 1.5.5 4.8 1.2 9.2 3.4v1.4c-1.1-.6-2.3-.7-3.1-1.5l-2-.6q-.4-.2-1-.9l-.4.6c-.7-.7-2.2-.1-2.6-1.4l-.3.5q-3-.8-6.2-1.2-4.7-.6-9.4-.5l-2.7.2q-1.4 0-2.7.2l-2.7.3q-3.5.3-6.8 1.3a77 77 0 0 0-14.5 5.4l-.5.5 1.5-.5.7 1.3q-.5.6-1.4.8-1.2.3-2.1 1.1-.7.7-1.8.5c0 1.3-1.3 1.2-1.7 2l-.7-.3q0 1-.7 1.5-.8.6-1.4 1.3t-1.4 1.5l-.3.7 2.5-1.9.9.3-.2.6-1.6 1.4-2.5 2.6q-1.3 1.2-1.7 2.9-.4 1.4 0 2.8h.1q0-4.6 3.9-7.3 1.4-1 2.8-2.4l1.1.7-.1.3-2.8 2.2a8 8 0 0 0-3.1 5.2q-.3 1.3.7 2.4l.7-1.9c.3-1.6 1.3-2.8 2.2-4.1l.2-.1-.2.7q-1.2 1.8-1.9 3.8l-.6 2.1 1.8 1.8c.5-.8.3-1.7.6-2.6l.8-2.7q.4-1.2 1.3-2.2c-.8 2.6-2 5-2.1 7.8l1.9 1 .3-1.4q.2-2.6.9-5l.3-.5.2.5-.1.4c-.7 1.7-.7 3.6-1.1 5.4v.9l2 .8.1-3.2q0-2.2.8-2.7l.1.4-.5 2.9.1.7v1.2q-.2.8.5 1.1l1.7.7c.1-1.8-.8-3.6.3-5.5l.1 3 .4 2.8 2 .8q.3-.6.1-1.1a10 10 0 0 1-.5-3.4l.2-.4h.2l.1.8.3 3.1q0 1.2 1.4 1.3l.9.3-.1-1-.7-2.4q-.1-.5.4-.9l1.2 4.4 2 .4v-.7l-.7-2 .1-.9.4.5q.2 1 .6 1.9c.7 1.7.7 1.6 2.6 1.6.3-1.1-.9-1.9-.4-3.1q.4.3.4.6l1.1 2.8 2.1.2c.4-1-1.2-1.6-.6-2.9.8.9.9 2 1.5 2.8l1.4 2.7 2.2.2-1.2-2.9c.1.1 1 1.1 1.1 1.4l.9 1.6h2.4l-1.5-3.4.2-.3 2.3 3.8h2l-.4-1.9q1 1.1 1.4 2.6l.5 1 1.4-.1v.1l-1.1.5.7 1.4c.6-.5 1.4.1 2-.7-.5-1.2-1.5-2.2-1.5-3.6q-1-.6-.6-1.7l.6 1.7c.8.5.9 1.5 1.5 2.2l.8 1.4 2-.4-.2-.7.1-.1.9.8q0 .8.9 1.4l2.1-.7-2.5-4.1.1-.4c1.4 1.2 1.8 3.1 3.2 4.3l1.8-.7-.2-1 .6.5.8.4c0 .2-.4.4 0 .7l.9 1.1.9-.2.9-.3c-.6-1.6-1.9-2.6-2.6-4.1l.3-.1 3.1 3.7a3 3 0 0 0 2-.6c-.4-.7-1.3-1-1.4-2q.4 0 .6.3l1.4 1.6 2.1-.8-.4-1.1q1.1.8 2.1.6.2-.3.6-.3l.3-.4-1.1-1.5c.9 0 1.1.1 3.1 2.5.7-.5 1.9-.4 1.9-1.6h.8l1.1-.5.5-.7q-.2-.6.3-.4h.6l.7-.3-.5.8.6 1.2q.6 0 1-.3l1.4-1.2-1.1-1c.8-.3 1 .4 1.5.6l2.5-2.2.1-.1-.1.1-.3.7-1.4 1.4-.3.7-.6.2-1.5 1.5 1.3 1.1 1.9-1.4-.9-1.1 1.2.6 1.3-1.4-.3-.6.9.3 1.3-1.8.5-.5-.1.7 1.3.7c2.4-3.1 4.1-7.6 4.5-10.1.3 1.5-.5 4.7-2.2 8.4l.5.4h.5q1.4-2.4 2.4-5.4a7 7 0 0 1-.3 3.6q-.1.7.5.6l1.1-2.5 1.2 1 .6-.6.2.8c.7.3.7.3 2-.5m-28-29.1-.2-.1-.1.4zm31.2 18.2-.2-.1v.2zm-.5-.1h.2l-.2-.2zm-.5.1q.3.6.8.5v-.3l-.3-.3zm.4-.4-.1-.2-.1.1zm1.3 9q-.7-.4-1.2 0l-2.3 1-.3.4q.6.8 1.4.3l2.2-1.1zm-.4-2h-.2v.2zm-1.2.5.1-.2zq-.2 0 0 0m3.1 1.2V77l-.1.1zm.1-.8c-.7-.4-.7-.4-1.4.2l.5.8zm2.4-2.3h-1.7l1.9-1a9 9 0 0 0-4.6.3l-.8.1c.3-.7 1-.7 1.7-1l-2-1.1.1-.1 3.1.7q.5.2.8.1.9-.5 1.8.2v-.4L144 71h1.9q-1-1-2.1-.9t-2.2-.5l-.7.2c.3.7 1.1.7 1.9 1.1q-1.9 0-3-1-.7-.8-1.8-.7l-.4.7.4.4 1.2.5-.7.1q-2.5-.6-3.9 1.5c1.1 2 2.9 1.7 4.7 1.9l-1.6.5.6 1q1-.3 1.8-.9a3 3 0 0 1 2.4-.8l-1.3.8-.7.6h.5l.1-.2.2.2 1.7-.8c.8.3 1.8.4 2.5-.6m.1-.2-.1.2zm1.6 1.1-2.8 1 .6.4q1.5-.2 2.2-1.4m-.1 1.2a4 4 0 0 0 2.1-2.7c.3-1.6.2-3.3-1.4-4.3l.1.5c1.5 1.7 1 4.7-.4 6zm3.7 1.3q-.8 0-.7.8zm0-2c-1.4.2-1.7 1.4-2.6 2l.7.6zm.2-1.2-.2-.1-.3.3v.5l.4-.3zm1 1.2q-1.2.2-.9 1.2.6-.4.9-1.2m.1-1-.2-.1-.3.2.4.2zm.2-.9.3-.6c.4.1.6.8 1.3.4v-.9l-1.6.1-1.5-.1v.7l.2.5.6-.6zm1.5.7-.1-.2c-.3.1-.8-.2-.9.3l.1.2q.6.3.9-.3m-.9 1.3-.3.3-.1.5.2.1.5-.7zm4.2 3.4-.4-.5-1.3.2.2-.7 2.4-.6q-3.5-.7-5.3 2l-1 1c.6.4 1.3-.1 1.9-.2l3.3-.8zm-2.1-4.5c1.1.3 1.1.3 1.1-.6q-.8-.3-1.1.6m1.5-1.5q0-.8-1-.6v1q.7.3 1-.4m-1.4 2.3.8.1v-.1zm2.7-1.4-.7.2c-.2.3-.4.7.2.9q.1-.6.5-1.1m-1 1.5.5.1v-.1zm.9-2.6q0-.5-.4-.4-.2 0-.6.4l.5.5q.5 0 .5-.5m.8 5.4q-1 .1-1.4.8 1 0 1.4-.8m.3-.1-.1-.1-.1.2zm2.1-4c-.4-.4-1.2.1-1.4-.7l1.2-.1q.4-.8-.3-1-1.2-.3-2.4.2l.3 2.6 2.1-.3zm2.1-.2h-1.5v1.3h1.1zm0-.9-.3-.6H161c.6.9 1.3.4 2 .6m1.9.9h-1q-.6.3-.4 1.1l1.3-.4zm.4-1.1c1 .6 2.1.4 3.2.4l.3-.4c-.9-.4-1.9.2-2.8-.7l1.8-.3 11.3.1 1.7.2c1.1-.3 2.2.2 3.3-.2h1.1q1.7.5 3.3-.2a9 9 0 0 1-3.1-2.1q-.3-.2-.7-.2-6.3.2-12.7 0-4.8-.3-9.6-.1l-7.4.2.6 2 2.2.2 2.3-.1c1.1-.1 1.5.1 2.3.2s1.4-.2 2.2.1l-1.3 1 1.7.1.3-1.1zm3.7 1.4-.1-.3h-3.1l-.1.8h2.6q.4-.1.7-.5m2.3-.2q-.8-.2-1.7-.1v.8l.8.1h.8zm.3-1c-.9-.5-1.6-.3-2.3-.4.3.8.5.8 2.3.4m0 .2c1.9.1 3.8.4 5.7 0q0-.8-.8-.8h-4.9zm5.8.7h-5.5v1h5.4zm.3-.7c1.1.2 2 .6 3.2.2q1-.2 2.3 0v-.6q-1.2-.3-2.5-.2c-1.3.1-1.9-.2-3-.3zm5.5 1-1.2-.3-2 .2q-1 0-2-.3V75c1.7 0 3.3.6 5.1-.1zm2 0h-1.3l-.1.8h1zm0-1.4h-1.7q0 .8.6.6h1zm.7.9.6-.8.6.4h.4l.1-.2-.3-.2-.8.1-1-.1zm0 1.1.6-.5q-.8-.3-.6.5m11.1 1.1c-1.9-.7-3.7-.6-5.4-.5q-.3 0-.7.5zm20.5 1.9-.7.8v-1.1c.3-1.7-.8-2.6-2.4-2.2-.6.2-1.3.2-1.7.9q-.5.8 0 1.4.7.7 1.5.3l.8-.7q.2 1.2-.7 1.8a4 4 0 0 1-2.2.9q-4 .2-7.3-2.1c-2.5-1.4-4.8-3-7.5-3.9q-1.3-.5-2.8-.5h-.4c-1.6-.6-3 .1-4.4.7l-2.2 1.1q-1.5.8-1.4 2.4l.8.4q1-.1 1.3-1.3.5-1.8 2.4-2.2c1.9-.4 2.4-.5 3.7-.4q3 .3 5.5 1.8L203 78q2.6 1.9 5.8 2.7l1.7.3 1.7.2 1.5-.2q1.4-.2 2.7-1 1-.8 1.1-2.2m.9-1.8h1.6l.1-1.3-3-.1zm1.7.7h-1.7l1 .9zm2.8.2-2.2-.4v1.2c.8 0 1.7.4 2.2-.8m-.7-2.3c-.6 0-1.3-.3-1.8.3l.3 1.1h2.1l.1-.2q.7-1.4-.7-1.2m4.2 2.3h-2.6l-.4.5c2.5.2 2.6.2 3-.5m0-2h-2.9l-.1 1.1h2.8zm2.8 3.8-.4-.1v.2zm.6-1.7q-2.3-.5-2.9.3c2.3.3 2.6.3 2.9-.3m0-2.1H227V76h2.8zm1.5 3.6h-1.2q.2 1 1.1.7zm2.1-1.5h-2.9v.7c1 .1 2 .3 2.9-.7m12.2 4 3-1.7c-2.9 0-5.1 1.6-7.7 2.4.7.8 1.5.6 2.2.4zm3-.3q-1.2.3-2.2 1l-2 1.5q.8 1.2 1.6.3 1.3-1.2 2.6-2.8m.3-.1-.1.1zm2.5-2.3h1l-1-.4-1.2-.1-1.2-.2-1.1.2-2.7.3q-2 .3-3.7 1.1-2.4 1-5 1.4-1 0-2-.3-.7-.2-.8-1.1l-.1-1.2-.6.3q-1.8 1.5.3 2.7 2.2 1 4.6.5c2.2-.3 4.1-1.4 6.2-2l3.8-1.1a6 6 0 0 1 3.5-.1m-1.3 4.4.1-.2q-.2 0-.1.2-.1-.1 0 0m10 2.3-2.9-1.2q-2-.9-4.1-1a2 2 0 0 0-2.1 1q-.3 2.7 2.4 2.5h.8c.2-.3.6-.6.2-1l-.7-.7-1.2-.5q1.3-.4 2.4.3l1.1.3c1.4 0 2.6.5 4.1.3m2.4-.9-1.2-.7-5.1-2.2q-1.5-.7-3.3-.7-2 .2-2.7 2l1.7-.8q1.5-.5 2.9.1l6.4 2.3.7.2zm1.3.8.9-1.3q.5-.5-.1-.9 0-.9.6-.4l.5.1v-2.1l-.6.9-.1.6-.4-.1-.7 1 .6.1-.1.5-.8-.3.3-1.2-.5.1q0-.6.6-.8.2-.2.2-.8-.7 0-1 .6l-1 1.3 1.1.1-.5.9v1.1l.5 1.2zm8.5-1.4q.2.4.5.4l1.1-.3q-.7 0-1-.3-1.4-.9-2.9 0-2 .9-4.3.9-.6-.2-1.1.6c2.9.7 5.3-.2 7.7-1.3M272 86s0 .1 0 0v.2h.1zm-.3 2.4v.2h.1zm-.8 1 .1-.2-.2.1zm.7-.3q-.4-.4-.5 0zm6.1-9q-.2-1.5-1.4-2.5l.5 1.1q1.4 3 .2 6.1a5 5 0 0 1-1.7 2.8c-.7.3-1.5-.4-1.9.6l.5.1-.3.5-.4.2-.2-.5-.6.6-.9.7c2.2.2 3.7-.9 5.3-3.2q-.3 1.3-1 2.1l-1.4 1.2-.3.9q1.7-.5 2.4-1.9 1.3-2.4 1.4-5.1.3-1.8-.2-3.7m-1.3 1.5s0-.1 0 0v-.2q-.2 0 0 .2-.2 0 0 0m.2-5.7.2.1v-.2zm1.7 2.5q.2-1.6-1.2-2.5l-.3.3 1.1 2.6zm0-3.1.8.8.1-.4 1.1.2-.1-.3c-.6-.5-1.2-.3-1.9-.3m1-.3.1-.2-.3-.3-.7-.1-.1.3zm.8 3.8c0-1.4-.2-2-.9-2.7v.5l-.8-.5q.3 1.6 1.7 2.7m-1.5 1.3q-.1.5.4.2l.2.1c.3.6.6.2.8-.1l-.9-.4zm.1-1.4v-.2zm7.1-4.5-.8.4q.1.7-.4 1.4-.7 1-1.2 2.1a11 11 0 0 1-3.6 3.8l-1.1 1-.2.5c3.4-1.1 7.7-6.8 7.3-9.2m-4.8 4.4 1.4-2.2-1-.5-1.1.9q.4.7.7 1.8m4.2-4.8.1-.2-.2.1zm1.3-1.2c-.4-.3-.6-.9-1.2-.8l-.2.2q-1.3-.7-2.8-.3l-.2-.1 1.1-.7 1.3-.5q-.7-.3-1.2 0l-1.8.9-1 .2 1.9-1.6q-.5-.4-.9 0l-2.2 1.3q-.8.5-1.5-.1l.3-1.1h-.3v-.3q-.4.1-.6-.3h-.3q-.2.7-.9.6c-.7-.1-.7.2-.8.6l.2.1-.2.2v-.3l-.9.3v.2h.5l-.3.6q-.7.9-.1 1.8l.4.6h-.4q.1.5.7.6.2.7 1 .6.6 0 .8.6h.3q.2-.5.6-.3v-.3h.5c-.1-.4-.7-.6-.5-1.1q.7-.6 1.5-.1l2.2 1.3 1 .3c-.5-.9-1.2-1.2-2-1.8h.9l1.7.8q.6.3 1.2.2l-2.2-1.2q1.7.3 3-.4l.1.2c.7-.2.7-.2 1.3-.9m-100 .3q0-.2 0 0l-.1-.1zM53.6 113.4q0-.1 0 0 0-.1 0 0m1.8.3.5.9.1 1c2.5-.7 5-.6 7.5-.5.8.5 1.6.1 2.4.2q2.5.3 5.2.4 1.3-1.9 3.4-1.5.8.1 1.3.4 2.4 1.5 2.4 4.3v.3l.1.2q.5-.4.8-.9.5-.8 1.3-1.2 1.8-1.2 3.2.7 2.2-.1 3.1 1.7l3.2-.6q3-.6 5.2 1.6l.8.9q3.4 0 6.8.9l3.1.3 1.5.3q.8.2 1.2-.5 2-2.9 5.6-2.9 5.2-.2 9.4 2.7l2.5 1.6q.9.5 1.9.6l9.8.1q.8-1.5 2.3-1.6 1.5 0 1.9 1.7h4.8l11 .2 7.2-.3 3.4-2.6a7 7 0 0 1 4.1-1.4h4.3l-1.9 1.7.1.2q1.2-.4 2.3-.4 1.5 0 2.4.7l.6.6q3.8-.6 7.2-2.3 3.2-1.5 5.9-3.8l.2-.2c1.2-2 3.3-2.8 5.4-3.5q2.3-.7 4.7-.9l4-.2 1.3.2h.6q1-.4 2-.2h6.2q6.9 0 13.9.4c2.5.2 5 0 7.5.3 2.3.3 4.5 0 6.8.3s4.4 0 6.6.3c2.9.4 5.9 0 8.8.3 2.4.2 4.7 0 7 .3l5.3.3q4.4.2 8.7 1.4l2.8 1.1-1.4.1c-1.9.3-3.9.1-5.8.5h-1c-8.2.4-16.4.1-24.6.3l-10.4.2c-2.8.2-5.6 0-8.4.3-2.5.3-5.1 0-7.6.3-2.2.2-4.4 0-6.6.3q-2.5.3-4.9.2-.9 0-1.7.3-1 0-.9 1.5 1.3 1 2.8.8 4.4.2 8.7-.1c4.4-.3 8.8-.1 13.1-.2q6.5-.1 13 .1 4.5 0 8.9.3c1.8.2 3.7 0 5.5.3l5.3.3 4.1.3c2.1.3 4.3.3 6.4.8l3.9.7.8.4-2.3.4q-1.7 0-3.4.4c-1.6.4-3.3 0-5 .5h-1q-5.5 0-11 .4c-2.6.2-5.2 0-7.8.2-3.8.4-7.7 0-11.5.3-3.4.3-6.7 0-10.1.3-2.6.2-5.3 0-7.9.3-1.9.2-3.8 0-5.7.3q-2.5.3-5 .2-.5 0-.9.3-1.2.7-.1 1.5l.7.2 4.6.3q4.4 0 8.6.4c2.7.3 5.5 0 8.2.3 3.9.4 7.8 0 11.7.3 3.3.3 6.6 0 9.9.3 2.5.2 5.1 0 7.6.3 2.2.2 4.3 0 6.5.3l5.5.3 7.4.9 1.5.5-7 1.2-4 .3-5.7.3c-1.6.2-3.3 0-4.9.3-2.4.3-4.8 0-7.2.3-3.1.3-6.3 0-9.4.2q-6.8.5-13.6.1l-12.7-.3-5.6-.2q-1.2.1-2.3.5-.7.3-.6 1t.7.8l1.2.3c2.2.4 4.5.2 6.8.4 2.5.2 5 0 7.5.3 2.4.3 4.8 0 7.2.3 3.3.3 6.5.1 9.8.3 5.9.5 11.8 0 17.6.3l12 .3q2.5 0 4.9.3t5.1.8q-1.8.7-3.7 1.2-3.9.7-7.8 1l-6.5.2c-2.6.3-5.3 0-7.9.3s-5.3 0-7.9.3c-2.3.2-4.5 0-6.8.3l-6.3.2c-3 .3-6 0-8.9.3-4.4.4-8.8.1-13.1.2l-4.6.2c-2.5-.3-5 0-7.5-.3q-4-.3-7.4-2.2-1-.7-2-1.7a22 22 0 0 0-7.3-4.9q-2.5-1.1-5.2-1.9-1.1-.5-2.1.4-1.6 1-3.4.5l-1.3-.2c.9.8 1.4 1.7 2.7 2q-1.4.2-2.3.1l-3.7-.2a9 9 0 0 1-4.5-2.5 5 5 0 0 0-3.6-1.4l-7.9-.2h-13.3q-.3 1.6-1.7 1.7c-1.3.2-2-.7-2.6-1.7h-6.9l-3.4.2q-.6.1-1.2.5l-3 1.9a22 22 0 0 1-5 2.1q-4.5 1.4-8.4-1.3l-.9-.9-.8-1-5 .6-4.5.7-3 .4q-1.5 2.3-4.6 2.2-2.2 0-4.4-.8-.7 1.6-2.6 1.6-.4 0-.6.3-.5.8-1.5.9-1.2.1-2-.7l-.9-.9-.7-.9-.3.2v1.1a5 5 0 0 1-3.1 3.8q-2.5.9-4-1.4c-5 .5-10 .9-15 .2l-.7 1.7c.7.6 1.2 1.6 2.6 1.6-1.5 1.2-2.6 1.5-4.3 1.1l-.2.6q-.4.9-1.4.4a5 5 0 0 1-2.1-2q-1.3-2.2-1.5-4.7a22 22 0 0 1-5.9-4.5 12 12 0 0 1-2.8-6q-.3-2.9.6-5.6 1.1-3.1 3.7-5.2l4.4-3.1q.2-2 1.2-4.1l1.4-2q1-1.1 2.4-.7l.1.9q2.4-.6 4.4 1.2c-1.4 0-1.9.9-2.7 1.6m1-1.6v-.2zm-.3 33.3-.2-.1.1.2zm-.4-.3.2.1zm211-2.7c.4.1.9.4 1.4 0zm12.2-17.3h1.4c-.8-.6-.9-.6-1.4 0m-7.2-8.8q0 .1 0 0h.2zm-.9 0h.2v-.1zq.1 0 0 0m-.8.1s.1 0 0 0h.2zm-.8 0-.1-.1zm-218.8 9.4.2-.1-.2-.1zm-.3-.5v.2h.2zm0-.1-1-2.8q-.4.6-.4.9c.3.8.2 1.7 1.1 2.2zm-3.5.3c.7.8 1.4.5 2.1.5l-.8-.9.1-.6.8.6q-.4-1.4-1.7-2.7 0 1.7.9 2.7v.4zm0-.8-.4-1.4c-1.1 1-1.2 1.1-1.3 2.1l.9.3zm1.7-1.9s0-.1 0 0q0-.1 0 0h-.2zm-.7 3.9q.5.5 1.2 0zm1-5.9c-.5.5-.9-.6-1.4.2l.9.7.5-.6zm-7.4 6.2.2.2.8-.4-.2-.4 1.2-2 .5-.8q1.8-2.7 4.4-4.4.6-.1.4-1l-1.6 1a13 13 0 0 0-5.7 7.8m.9.6-.1.2.2-.1zm-.1 2.3q0-.1 0 0 0-.1 0 0 .6.5 1.4.2l1.8-.5c-.6.9-1.8.7-2.5 1.7 1.4-.1 2.3-1.3 3.8-1.2l-1.8 1.4c.4.7.8.2 1 .1q1-.8 2.3-1.4.7-.4 1.3.1l-.3 1.2q.4 0 .6.3h1.2l.5-.3q.7 0 .9-.6l-.9-.1 1.2-.5v-.6c.7-.6.7-.6.3-1.3l-.6-1-.2-.2.2-.1q-.2-.6-.8-.6t-1-.6l-.3-.3h-.3q-.1.5-.6.3v.3h-.5q.6.6.5 1.4c-1.8.4-2.9-.9-4.2-1.8l-.4.4 1.7 1.3c-1.4.3-2.1-1.2-3.8-1l1.5.8.8.6h-.1l-1.4-.2q-.7.1-1.4.5v-.2c-.7-.1-.9.6-1.5 1 .6.2.9.8 1.6.9m10.7-15.7q-.3.2-.5.6l.2.2-.2.1v.3l2.9-.9c-.8-.8-1.6-.3-2.4-.3m1.9-.6v-.2zq0-.1 0 0m.2 1.9s.1.1 0 0q.1.1.2 0v-.1zm-.4-.1-.1.2.1.2.2-.2zm-1.8 1.4.4-.6h-.9zm-.3 1.8-.1.2h.1q.2 0 0-.2m-.1-3.8-.2.2.2.1zm-.2.7.2-.1zm1.3.7.3-.3-.1-.2-.4.3v.2s.1.1.2 0m-1.2-2.6h-.2l.1.2zm-.4 3.3s0 .1 0 0l.4.1v-.2zm0 2-.1.2h.1s.1-.1 0-.2q.1 0 0 0m-.1 4.4q.8 1.4 2.4 1.9l1.6.4v.2h-2.3l.2.3.3.3-1 .1 2.5.9c-1.4 1-1.5 1.5-.4 2.6l.4.4q-.6 0-1.1.2c-.5.2-.8 0-.9.4l1.1.1c-.8.5-1.8.5-2.3 1.3l2.1-.7q.8-.5 1.4.4-1.7 0-2.9 1a3 3 0 0 0-1.4 2.9c0 1.4 1.3 2.6 3 2.2.9-.2 1.4-1.2 1-2q-.2-.4-.6-.5-.6 0-.9.2-.2.5-.1 1.1-1.4 0-1.5-.9-.3-1.3.9-2.3a5 5 0 0 1 4.1-.7q2.4.7 4.7 1.6l1.9.5c.5.1 1.1.2 1.3-.5q-.4-.2-.3-.6.5-.1.2-.5l-.5-.6h.5l-.7-.6-1.8-.7q1-.2 1.8.1 1.7.6 2.8-.8c1.1-1.4 1.6-1.6 2.5-2.4l-3-2.7q-1-.9-2.2-.4-.8.3-1.8 0l1.5-.5q.8-.2 1.2-.8h-.5l.2-.4q.1-.3-.2-.4v-.5l.5.2q-.2-.9-.8-.8a5 5 0 0 0-2.4.4q-2.5 1-5.2 1.8c-2.7.8-3.2-.1-4.4-1.4-.4-.5-.5-1.4-.2-1.9q.6-.9 1.6-.5-.5.6-.1 1 .4.3.9.3c.7-.1 1.1-1.2.7-1.8-.7-1-2.4-1.1-3.3-.3s-1.2 2.4-.5 3.4m2.7-.7c-.7 0-1-.6-1.5-.9.1 1.3.1 1.2 1.1 1.5l2.7.3q2.5-.1 3.6-2.3l-.1-.8q-1 .8-1.4 1.5-1.4 2-3.6 1.2 1.1 0 1.7-1h-.4l.1-1.7-.5-.5.2.6q.2 2-1.9 2.1m1.6-2.9-.1-.2-.1.1zm1.5 2 .6-.1q.8-.8.8-2-1.7.8-2 2.5zm3.1-2.4-.2-.1.1.2zm-.2.8.1.2.1-.1zm0-1q-.4-.5-.7 0zm-.1.7.1.2zm.9-1-.1-.2-.1.1zm.8 3 .3-.3-.4.1zm2.1-.4s0-.1 0 0q0-.1 0 0h-.2zm2.1 0-.3-.2-.2.3.2.5zm-.6 1.9-.1.8-.1.1.1-.1q.7-.3.1-.8m.5-2.8-.9-.8-.6.8zm-1.5.8.4.2.2-.2-.2-.3zm1.7 1.1.4-.3-.1-.2-.5.3q.3 0 .2.2m.5 2.4.2-.1q.9-.3.4-1.3l-.4 1.3zm3.7-2-3.6-2.4c.6 1.8 2 2.2 3.6 2.4m-.3 9.3q1-.1.5-1h-1c.2.6-.4.9-.1 1.4s-.1 1.1.6 1.4l.8-.5zm-3.5 5.6 4-2.7q-1.8.2-3.3 1.2-.7.5-.7 1.5m.7-3.4q.4-.8-.5-1zm1.6-1.3.3-2.1-1.3.8zm-4 .1.7 1.3c.2-1 .2-1-.7-1.3m.6 2.6-.1.4.3.3.2-.1-.1-.5zm-.5-1.1-.1.2zm-.3 1.4-.2.2.4.4.2-.2zm-.2 1.2.7.9 1-.9zm2.1-1.1-.1-1-.5.5q.3.1.6.5m-2.8 0-.1.2.1.2.1-.2zM62 136q.1.4.5.3-.1-.4-.5-.3m-.1-.2-.1.1.2.1zm-.6.8q-.1 0 0 0v.2zm-.4 2.4.1.1.1-.2zm-.7-1.8q-.4-2.8-3.4-2.9 1.4.8 2.4 2.2zm-1 0-.1.1.1.1q.1 0 0-.2.1 0 0 0m-2.9-1.8.8.5q0-.3-.3-.7l-1.1-.5-.3-.5q-.9 0-1.7.2c-1 .4-1 .3-.8 1.4q1.3-1.3 2.5-.6l.7 1c.4.6-.3 1.1-.4 1.7.9-.4 1-.7.6-2.5m.4-1.2q-.7-.6-1.3 0zm1 1.6-.2.4-.5-.2c.5 1.7.3 1.6 1.7 1.9-.1-.8-.7-2.2-1-2.1m2.5 1.9-.2.1.3.1.2-.1zm-.5.9.1.2.7-.1v-.1q-.4.1-.8 0m-7.6 3.8c0 .2-.4.4 0 .7q.3.5 1 .5c.6-.1 1.2.2 1.9-.4zm2.2-.4q.2 0 0 0l-.1-.2-.1.1zm.6.3q0-.2 0 0v-.2q-.1 0 0 .2m-.3 1.8v.2zm-3-3.5.4.2-.3-.5zm.2-1.8v-.5h-.1zq-.1 0 0 0m.1 3.4.2.1-.1-.2zm.4-3.1v-.5h-.1zm.2 2.3.2-.3-.1-.2-.2.3zm1-.3-.5.5.5.5zm-1.4-8.6q-1.1.2-1.4 1.4zm-1 5.5s-.1.1 0 0v.3l.1-.1zm-.3-.6-.1.1.1.1.1-.1zm-3.5-.6 1.3-.4c-.7-.6-.7-.6-1.3.4m.9-1.8q.2 0 0 0v-.2zm1-3.1h-.6l.3-.6-2.3.4c.3.9.8-.1 1.2.3q-.7 1.2-.9 2.9 1.3-.9 1.5-2.2zm-3.4 0-1.2.4q.5 1.3 1.6 2.2l.5-1.6zm1.8-.9h.7q.6-.2.1-.6l-.9.4zm1.1 3.3q0 .3.4.8l.4-.7q0-1.2.6-2l-.3-.3c-.9.5-.8 1.5-1.1 2.2m1.4-2.1-.2-.2-.1.2zm0 .2.2-.2h-.2zm.6-.6.2-.1-.2-.1zm1.7-1.6v.2l.2-.1zm.8 1 .1-.2zm-.8-4 .2-.1-.2-.2h-.2v.3zm.3-1.7q-.2-.6-.8-.6.2.6.8.6m.6.3q-.1-.5-.6-.3.2.5.6.3m-2.1-6.6H51l.1.4h.1zm-2.4 20.6q-.2-.7-.4-.9a17 17 0 0 1-5.8-6.8q-.5-.7-.6-1.6l-.9-.1q1.8 6.3 7.7 9.4m4.8 4.6c-.5-1-1.3-.3-2-.5a9 9 0 0 1-1.9-4.3q-.4-2.4.5-4.5l.5-1.2-.3.2a9 9 0 0 0-1.4 4.2q-.1 1.5.2 3 .4 2 1.2 3.9.5 1.1 1.6 1.5l1.2.3-2-2q-.9-.7-.8-1.8l1.8 1.9q1.3 1.2 3.2.9zm1.6.5.1-.2-.1-.2-.1.2q-.1.1.1.2m7.1-3.8q-.4-1-1.2-.8-1.8 0-3.6-.8c-2-.8-2-.8-4.1.2l-.1.2.8.2.7-.4q.4 0 .8.3 3.3 1.6 6.7 1.1m.5.8s-.1-.1 0 0h-.2zm.7-3.6 1 .3q-.6-1.3-1.4-2.1l-.5-.1.7 1.1q.2.3 0 .6l-.2 1.2-.6.3c0-.6.6-1.3-.2-1.6l-.6.2-.3-1.2-.4 2 1.2-.6-.3 1.3 1.6 2q1-1.9 0-3.4m1.4 2.3 7.5-2.7.8-.2q1.9-.2 3.5.9c.1-.7-.6-.8-.9-1.1q-1-1-2.6-.8c-1.6.2-2 .6-2.9 1l-5.5 2.4zm8.1-8.7-.1-.8h-1.4l-.5.6h.9zm-1.8 1c.4.4.4.4 1.7 0q-.8-.2-1.7 0m4.9-.7v-1.1h-2.6l.1.7zm-1.9 2.5.1.2.3-.2q-.1-.2-.4 0m1.7 5.5-.1-.3q-1.5-1.2-3.4-.5-2.3.5-4.4 1.5l-1.1.5h1l3.1-.3 1.2-.5 1.2-.4q.5-.1.7.5c-1.5.2-1.7.4-1.7 1.7 1 .8 2 .4 2.9-.1.9-.7.5-1.5.6-2.1m1.1-1.5-.2-.1zq-.1.2 0 0m5.9.9c-1.6-.9-2.9-2.2-4.6-2.6q1.2 1.4 2.6 2.7.7 1 2-.1m3.4-1.6c-2.7-.9-5-2.4-7.8-2.5l1.5.9 4.3 2.1q1 .4 2-.5m8.4-2.6q-.2-.4-.7-.7l-.7-.1.1.8q-.4 1.5-2.1 1.6-3 0-5.6-1.4a19 19 0 0 0-9.1-1.5q-1 0-1.9.5 1.1.1 2.2-.2h1q2.4.5 4.6 1.3c2.5.9 4.9 2 7.5 2.4q2.1.2 3.9-.9c.7-.4 1-1.4.8-1.8m-18.1-3.2h1.1q.9.2.7-1.1h-1.1q-.5 0-.7.3zm2.4 0h2.4l.3-1.1h-2c-.8 0-.8.1-.7 1.1m3.2 1.2 1.1.1q.6-1 .4-2.3h-1.5c-.6.8.6 1.3 0 2.2m9.1.8 2.2-.6q-1.3-.3-2.2-.2h-1.9l-.1 1.1q-1-1.6-2.5-1.4h-1.4l-.9-.2q-.1.8.6 1.1l3.5 1.5q1.4.6 2.9.6 1 0 1.5-1l-.7-.5c-.5-.1-.9.2-1-.4m5.4-.2q0-.8-.7-.8l-2.3.3c1.1.9 2.1.5 3 .5m-.5-1.7q.7 0 .6-.8H94l-.3.8zm.9 2.8-1.5-.5c.4 1.1.6 1.1 1.5.5m1.3 0v-.2l-.6.1v.1zm1.6-1.3-.1-.7c-.9.1-1.9-.3-2.8.4.7.5.7.5 2.7.5zm-2.9-1.5h2.8v-1c-1-.3-1.9.1-2.9.3zm6.4 1.7v-.8h-2.8q0 .7.6.8zm0-1.6-.1-1.2h-2.8v1.1zm2.8.7-2 .1.1.8h1.9zm.4-1.9h-2.6l-.1.5v.6h2.2zm1.6 2.1-.1-.3h-1.1l.1 1.1q1-.2 1.1-.8m1.5-2.2v-.2l-2.7.4v1.1h1.5q.6-.9 1.2-1.3m26 1.3q-3.3-1.2-5.5.2l2.7-.2zm5 .9q-.1-1-1-1.4l-3-1.6q-.7-.4-1.3-.5-2.8-.3-5.5.4c-2.9 1-5.5 2.7-8.1 4.1q-3 1.8-6.6 2-1.2 0-2.2-.7-1.4-.7-1.2-2.3l.8.8c.4.3 1.2.2 1.5 0q.5-.5.2-1.2-.2-.5-.6-.8l-1.3-.5q-2.3-.5-2.4 1.7v1.6l-.6-.6v.6q.6 1.4 2.1 2 3.4 1.1 6.9.1 4-1.2 7.2-3.7 4.2-3.1 9.2-2.7c1.7.2 3.4.8 3.9 2.8q.2.5.6.8.5.4 1.1 0 .6-.2.3-.9m-23.4-8.1q1 0 1.1-1.1l-1.9-.3q-.9 1.5-.6 3.1c1.5.1 2.9-.2 4.3.3h.4l2-1c-1.5-.1-2.8-.7-4.1-.2l-.3-.1zm3.5-.4c-.5-.7-1.1-.6-1.6-.5l-.4.9zm-.7 4.3q1 1.3 2.4 1.5.6.3 1.1.2c1.4-.4 2.8-.5 4.2-1.3l-3.7-.5v-.2h4q-1.7-.9-3.4-1.3-3-.6-4.6 1.6m-.3 1.8q1.2 1.6 3.1 1.1c-1-.3-1.8-.3-2.4-.9zm-1.9 2q.7.8 1.6 1.1.7.2 1-.8-1.3 0-2.6-.3m-1.5-2q.3.9.9 1.3h2.3l-1-1.3zm3.3-.9c-.5-.8-.8-.2-1.2.1zm-3.7 2.9-.1.2 1.3 1.2c.5-.8-.3-.8-.5-1.2zm0 2.1h-1.3v.2h1.3zm.1-2.8-.4-1.3h-1c.5 1.4.5 1.4 1.4 1.3m21.2-2.7q-.1-.4-.6 0zm.1.2-.2-.1zm.8 0 .4.4v-.6l-.3-.3-.2.1zm1.4.1.6-.2-.1-.4-.6.3-.1.2zm1.5 1.2-.3-.3-.2.2.2.4zm.5-1.7-.2-.2-.8.4-.1.5.7.1zm1.4 1.4-1.1.1c.2.9.2.9 1.1 1zm.3-1.4h-1.3l-.4.7h1.6zm5.5 1.4h-5.2c.2 1.1.2 1.1.9 1.1h4l.3-.1zm.6-1.4q-1-.3-2.1-.2l-1.7.2q-1-.1-2 .1v.7h5.4zm5.5 1.5-.2-.1c-1.3-.1-2.6.1-3.9-.2-.5-.1-1.1-.2-1.4.5l.4.8 5.1-.2zm.6-1.3q-.2-.4-.7-.3h-3.4l-1.4-.2-.2.1v1h3.7q1 0 2-.6m1.7 1h-1.7l.4 1h1.3zm.6-1.2c-.8 0-1.5-.2-2.2.3q1.3.7 2.2-.3m3.5 1.9v-.3l-3.2-.2-.2.2.4.7zm2-.5H162c.2 1 .9.8 1.4.8zm2 0-1.3.1.3 1.1h1zm.4-.9v-.7h-1.7l.1.7zm2.8 1.8.4-2.6q-1.3-.1-2.5.1l-.2.7 1.6.6-.9.2-.8.3.4.8zm-1 3 1.1.4q-.2-.5-1.1-.4m7.7 2.6-.2-.1zm-1.8-2c-1.2-1.2-2.9-.9-4.4-1.1l1.5.5 1.5.4-.5.2.5.5q-1 0-1.7-.5-.4-.2-.5.2l-1.1-.3.5.5q2.8 1.3 5.8 1.5zm-4.2-4.5.5 1c.4-.9.4-.9-.5-1m.6 1.6s0 .1 0 0q.1.2.2 0v-.1zm.2-3q-.1-.2-.5-.3t-.5.5l.6.3q.6 0 .4-.5m.6 1.5q.2 1.1 1.2.7l-.1-.8zm.8-.6V129l-.7.1v1zm-.2 1.8.1.1.1-.1q0 .1-.2 0m2.8.1q-.3.8.5.8zm.6-2q.7.2.8-.4l.8.9-.1-1.2h-1.8q0 .5.3.7m-.5 1.3q0-.4-.5-.5l-.2-.1-.1.1q-.1.5.4.6.2.1.4-.1m0-1.3v-.8h-1l-.1.8zm.9 1.5.4-.2-.3-.3-.4.3zm0 1 .9.8c0-.6-.1-1.2-.9-.8m1.4-1.2-.3-.3-.3.2.3.3zm.8 3.4-1.1-1.1q0 1.2 1.1 1.1m1.6-.4c-.8-.6-1.2-1.6-2.3-1.8.6.8.8 1.8 1.8 2.3zm.7-1.8c-1.8-2.2-1.9-3.7-.5-6.2v-.3c-1.4.9-1.6 2.4-1.4 3.9q.1 1.8 1.8 2.8zm-.7-3.4q0 .9 1 1c.6-1.1.6-1.1-.1-1.7q-.9-.1-.9.7m1-.9-.1.2zm.3-.8.1-.1-.1-.1zm-.9 3.6-.1.1.2.1zm0-3.9.1-.2zm3.5 6c-.1-.2-.7-.1-.3-.5l-2-.7-.7-.3q1 1.5 2.9 1.7zm-2.4-1.9q.2 0 0 0v-.2zm4.8 2q-.2-.3-.5-.4l-1 .3.6.5.4.3-.5.1.1.2.4-.3q.7 0 .5-.7m8.4 5.8-.4-1.8-.7.5.9 1.3zm38-3.6-.2-.2-.2.2q.1-.2.4 0m3.2-.2h-2.5v.1h2.5zm37.8-1.2h.2q-.2-.2-.2 0 0-.1 0 0m-18-.6.6-.1-.4-.1zm-.9-.1.2.1zq.2 0 0 0m-67.7-9q.6 0 1.1-.3l2.4-1.2.1.2-1.7 1.4c.6.5.7.5 1.2.3l2.6-1-1.6 1.6.6.9 1.7-1.5c0 1-.7 1.4-1.2 2.1l1.5.7q0-2 1.1-3.4l-.2 2.5c0 .8-.3 1.7.2 2.5-.5.8-.2 1.7-.2 2.5s.5 1.6 0 2.6l-1.2-3.4-1.1.4 1.2 1.8-.2.2-1.5-1.1-.8.8q1.3.6 2.1 1.7l-2.5-1q-.7-.3-1.6 0l.6.7.7.6-.9-.2-2.1-1-.5.7 3.1 1.5 2.1-1q0 .6-.2.8l-1.3.6 2.3 1.2.2-1.2.7.6q1-.1 1-1.4l1.7 3.8q.7 1.3 1.7 2.3.9.8 2.1 1.1c.7.2 1.3.7 2.1.6q-1.6-1-3-2.2-1.4-1.5-2.3-3.4-.5-1-.3-2c.4-1.3.1-2.7.3-4l-.2-.2-.3.5c-.7-.7-.5-1.5-.3-2.2q.2-.8 0-1.7-.2-.7 0-1.6.2-.5.7-.2l.1-1.8.2.5c.1 1.5-.2 3 .2 4.4l-.1.4-.2 1.4v4.6q-.1 1.5.8 2.7l.2-1.7-.1-2.7.5-.4v4.7q-.1 1 .8 1.6c.2-1.1-.1-2.2.3-3.2.4.7.2 1.5.3 2.3l.9.8c-.3-1.7.1-3.2-.3-4.6q-.3-.8 0-1.7t.2-1.8v-2.7q.4.5.3 1.1v9.8q0 .6.8.6l.1-.5.3-8.6.2-.7q.2 3 .1 5.4v5.2l.8.1.2-1.2h.2v1.6l1.2.5c-.3-1.3.4-2.3 0-3.4l.1-.4c.7 0 0-.7.4-.8l-.2-1.7.2-1.5c.1-.5-.1-1 .3-1.7v9.4h-.2l-.2-1.6h-.1v1.8l1.4.5v-3.9c.5 1.3.2 2.7.4 3.9l.8.3v-2.9l.1-.1h.1l.1.3v2.1q0 .4.4.7c.4.3.5-.2.7-.3l.2-.1.2.4 2.2.3.2-.8c.5.4 1 .2 1.5.2.7.1.7 0 1.3.6l.4-.5h2.9l2.7.2 2.7-.2q7.4 0 14.7-.2c6.4-.3 12.8.1 19.2-.3q4-.2 8 0l-.2-.5 1.3-.1c-3.1-.3-6.2-.2-9.3-.5-3.3-.3-6.5 0-9.8-.3-3.5-.3-7-.1-10.5-.3l-6.2-.1-.8-.1q-.6-.3-1.2 0-.4.2-.7.1-.7-.4-1.5-.2-.8-.1-1.7.2c-.9.3-1.1-.5-1.7-.5h-.9l-5.9-.1q-1.9 0-3.6-.7h-.7l-.5-1.2q-.6-1.2.1-2.2.8-1.2 2.1-1.6.7-.6 1.6-.1h.9q.7-.2 1.5 0c1.1.2 2.2-.1 3.4.1h.4c.7-.5 1.3-.1 1.9.1q.7.3 1.4.1 1-.2 1.8 0 1.3.4 2.6-.1.3-.3.7.2l.4.3c.5-.5 1.1.1 1.6 0l-.2-.4c.8-.1 1.4-.7 2.2-.1l.7-.1q.6-.2.8-.1c.8.4 1.6.1 2.4.2l.7.1v.2h-2.2l4.8.3a75 75 0 0 0 8.2-.3l.5-.1q1-.4 2.1 0c.4.2.7-.4 1 0 .6-.8 1.4-.3 2.1-.2h1.7q5.3 0 10.5-.3l6-.3.2-.1-.8-.3q-.4-.1-.9.2H265q-.6.1-1-.4t-.9 0c-.2.6-.6.3-1 .3s-1 .2-1.2-.2c-.3-.6-.9.1-1.2-.3l-.4.5c-.4-.4-.8.1-1.2 0l-.7-.6-.5.6q-.1-1-.8-.5l.1.5c-.6-.1-1.3.3-1.6-.6h-.6l-.1.5h-2.7v-.2l2.2-.4-.6-.1q-6 0-12.1-.3c-4.3-.3-8.7-.1-13-.4h-4.5c-.5 0-1-.4-1.5-.1-.4-.6-.9 0-1.4-.1l-1.2.1q-1-.4-1.7 0-.4-.4-.9 0l-1-.2-.1-.2q-1.9 0-3.8-.6-.3 0-.6.3l-.8-1.5c-.7-1.5 0-2.9 1.5-3.3l.8-.3.8-.3 5.2-.2q1.8-.2 3.6 0c1.8.2 2.3-.1 3.5 0q1.8-.2 3.5 0h.6q.8-.3 1.7-.2h5.1q.4.1.7-.2.4.1.7-.1c.9-.9 2-.5 3-.4l2.1.3q1 0 2.1-.3c1.1-.3 1.4-.2 2 0q1 .3 2 .2c4.9-.1 9.8.2 14.7-.2 2.3-.2 4.6.2 6.9-.3q.5-.1.9.1c1.9.4 3.7.1 5.6.1-4.7-.8-9.4-.3-14.2-.6l.6-.4-2.7-.4-9.5-.3q-7-.2-13.9-.1c-4.7 0-9.3-.2-14 .2q-4 .2-8.1.1c-1.3 0-2.6.1-3.9-.8l.2 1.2-.2 1 .9.3.7.2v.2h-1.5q-.3.8.4.8l.6.3-1.4-.1c-.1-1.9.2-3.7-.5-5.5-.3-.7 0-1.7.7-2.2q1-.7 2.4-.9l5-.3h7.4v-.1l-1.1-.3.8-.1c.5-.1 1 .5 1.5 0 .5.6 1-.1 1.5-.1q.7.3 1.6.1l1.9-.1c1 0 2 .2 3-.2q.2-.1.4 0c.6.4 1.3.2 2 .2l5.3-.2 13.1-.3h4.6l.9-.1v-.1l-1.6-.1v-.2l1.9-.1c-.3-.7-.9-.5-1.3-.5-5.2-.2-10.5 0-15.7-.3-5.8-.3-11.7.1-17.5-.4l-5.2-.1q-2 .1-3.9-.2l-1.3.1-4.2.1c-.7-.5-1.6-.2-2.4-.3h-.3q-.2.3-.5.4c-.3.1-.4-.4-.5-.4-.7.2-1.6 0-2.1.9l-.4-.6c-.7.1-.6.6-.7 1l-.2.1-.3-1q-.5.5-.6.9v1.6q.1 1-.1 2.2c-.4-.6.2-1.4-.7-1.6l.5-.3v-2.2l-2.8 1.5q0 1.3-.2 2.5-.3-.4-.4-.9 0-.6.3-1.3l-1.4.7.2.8-.9-.2c0-.5.8-.8.4-1.5-1.2.5-1.9 1.5-2.7 2.2l-.1.4q-1 .7-.7 1.9c.3 1.2.1 1.4.1 2.1l-.5.5v-1.8l-.3-.4v.1-.1q0-1 .5-1.9 1.6-3.3 5-5l-1.5.2a6 6 0 0 0-3.7 2.6q-1 1.8-1.8 3.7l-.5.8v-3.1q-.7.7-1 1.5 0 .6-.7.8l-.2-1.1-2.9 1.6-3.1 1.5q-.4.9.3.9m14.7-8-.1.2zq.2 0 0 0m-.6.8.5-.6q-.6-.2-.5.6m-.1 24.3-1-1.6c-.1 1.2-.1 1.2 1 1.6q.1.6 1.1.5zm-4.4-12.6v.2zm-.1.8.1.1zm-9.4 2.5.3.3h.6q-.2-.6-.8-.6zm.3.3h-.2l.2.2zm.3.6.1.2.1-.1zm-.6-.9h-.2l.2.2zm1 .5.1-.1-.2-.1zm-.5-7.2-.1.2zm.5.1-.1.2zq0 .1 0 0m-3.3-1.1.6.3-.5.6q1 .4 1.4-.4-.6-1-1.5-.5m-.4 2.2c-.6.4-1.6-.1-1.9.8h1.7l-2.2 1.1q2.5.2 4.6-.3l1.1-.3c-.2.7-1 .6-1.5 1l2 1.2q-1.8-.2-3.1-.6c-1-.3-1.9.3-2.9 0l1.7.9-1.9.1q1.2.9 2.3.8a4 4 0 0 1 2.4.6l.3-.3c-.3-.8-1.1-.7-1.8-1.1a4 4 0 0 1 3 1q.8.9 1.9.7l.4-.8-1.7-.7q3 .8 4.8-1.8c-.6-.6-1.1-1.4-2-1.5l-2.8-.2 1.8-.7-.8-1-2 1.2q-1 .7-1.9.6l.7-.5.7-.6q-.4 0-.5-.3c-.7.6-1.4 1.2-2.4.7m-2 1.1.1-.2zm-1.9-.8c.6.1.9-.6 1.5-.7l1.9-.6-.8-.4c-1.1.4-2.1.7-2.6 1.7m0-1.4-.1.2zq.1 0 0 0m-6.1 2.8h2.6l1.3-2.4 1.5-2.1c-2.4-1.2-5.6.8-5.4 4.5m-4.4-5.2 1.2-.3h.1v.1l.4.2 1.6-.5.3.1-1.1.5.1.3-3 .9q4 .9 6.8-3.3l-1.3.3q-2 .2-3.8.9-.9 0-1.3.8m-.5.3q.4.1.6-.3-.5-.1-.6.3m-.3.1.1.1.1-.2zm-29.7 4.9c.6.1 1.3.5 1.8.3q1.5-.3 2.8-.2 5 0 9.9-.2 2.9-.2 5.8 0 1.2-.1 2.4.8h-1.8c-.4.1-1.1-.3-1.4.5h3.4l.3-1 .2 1c.6-.1 1.3.3 1.6-.6-.2-.4-1.1 0-1-.9h8.8q.6-1.1.7-2.2l-30-.1q-1.7 1.4-3.5 2.6m-8.2-2.7c1.7.8 3.3.5 4.9.5l1-.5zm-20.6-1 .7-1.6q.3-.5.8-.4-.5.9-.6 2c.1 1.1 1.3 2.4 2.7 1.5q.7-.4 1.3-1.2.4-.7-.1-1.3t-1.3-.2l-1 .8c-.1-.9-.1-.9.2-1.1l1.7-1.3c2 0 4-.2 5.9.8l5.6 3.1 4.4 2.1c.9.4 2 .2 2.9.5q1.8.4 3.3-.3 2-.7 3.7-1.9 1.2-.6 1-2.1l-.9-.4-1.2 1.3a6 6 0 0 1-4 2.6q-1.4.1-2.6-.1-2.1-.3-4.1-1.2-2.6-1.5-5.1-3.2a14 14 0 0 0-6.8-2.4h-2.5q-1.3 0-2.5.6-2.1.9-1.5 3.4m5-1.7.8 1.2.3-1.2zm-17.4.3q-1.9 0-3.9 1h3.1a26 26 0 0 1-4.8.5q-3.1.1-6.2-.2-2.1-.2-4.4.1t-4.8.1q-2.7.2-5.2-.6l-1.8-.6-1.1 2.2h.4q1.5-.5 3.2-.5l1.4.2q2.3 0 4.7.3l4.3.3c3.6.2 7.2 0 10.8.4l2.8.1-.4.1q-6 0-11.9.2-1.7 0-3.3-.2l-8.4-.1-2.5-.1 1.3 1.2 2.3-.2 9.2.2c4.7.3 9.5 0 14.3.4q3 .2 6.1.1h10.9c.6 0 1.2-.1 1.8.6l-2.5.3h-2.8l-2.6-.1-2.7.1-3.9-.2-15.5-.1c-3.7-.1-7.3.3-11-.3l-.6.1-1.4.2q-1.4-.1-2.2 1.2l1.4-.1 1.3.1q.4 0 .8-.3h.1v.1l.5.3c1.2.1 2.4-.1 3.5.3l1.2-.1h.4q1 .4 2 .2h1.9q2-.5 4.1.1l.4.3-.1.2-3 .2v1.4l4.2-.3.4-.7.1.8h4.2c0-.9-.1-1-.6-1.1l-2.6-.1q1-1 2-.8.8.1 1.6 0c.6-.3 1 .2 1.6.1l2-.1 1.9.1h5.5q1 .2 1.9 0c.9-.2 1.2.1 1.7.1h5.5l.3-.5c.3.8 1 .5 1.6.5l.1-1.4.2.1.1.4q.1 1.2 1.1.8l1.3-.3-2-.9q1.1-.6 2.1-.5c.5.1 1.2.3 1.6-.4l-.6-.4-3.1-.4-.9-.3c.3-.8.3-.8-.2-1.4-.9 1.6-2.1 2.5-4.4 1.7q-1.7-.5-3.5-.6l-5.2-.4-.4-.2q3.6-.5 7.3-.3l-.7-1.1q-1.2 0-2.3-.2-1.9-.5-3.8-.5l-1.4-.1-1.2-.3v-.2h2.4q-1-.4-2-.5l-3.8-.6-.5.4q.5-.1 1.3.2m-4.4-.3q-.2-.7-.5-.9-.7-.4-1.5-.3l-3 .8q-1.1.3-2.1 1.1c.7-.2 1.2.3 1.9.1l1.8.2h2l-.2-.4zm-1.3 1.1.1.2.1-.1zm-8.2-4.4-4.7 2.5q2.2 0 3.8-.8l3.7-1.6-.8-.4q-1-.2-2 .3m-5 1.3c1.8-.7 2.9-1.7 4.3-2.6-.7-.8-.7-.9-1.3-.5q-.6.3-1.1.9zm-3.4 2.2-.5.1q1.8.6 3.5.7l2.1-.2q2.7-.2 5.2-1.2c2.1-.8 4.2-1.6 6.5-1.4q2 .2 1.5 2.4l.5-.2q.8-.2.9-1.1t-.9-1.5c-.9-.5-1.3-.6-2-.7q-2.2-.3-4.2.5l-5.7 2c-2.2.7-4.5 1.3-6.9.6m-8.3-6.7 1.5.6 3.7 1.3c.9.2 1.8.7 2.9.2q1-.3 1.2-1.2.2-1.2-.9-1.8-1-.4-2-.2-.5.1-.6.5t.2.8l1.4.9-.5.3q-.6 0-1.1-.3l-1.2-.5-3.2-.6zm-2.1 1 .7.4 3.4 1.5 3.8 1.5q3 1 4.7-2.3l-.6.5q-1.8 1.6-4 .8l-2.8-1-4.4-1.6zm-1.3-1c-1.1 1.3-1.1 1.3-1 2.8l-1.1-.4.4 1.8.3-.9c.9 0 .9-.6 1-1.2h.3l.2 1.6-.7.2.5.5q-.7 0-.8.6.6 0 .8-.6 1-.5 1.4-1.8h-.8q.4-.7.3-1.6c-.1-.9-.1-1.1-.5-1.5zm-.5-.7v-.2zm-8.9 1.9c1 1 2 1.5 3.3.6l.4-.1q1.8-.6 3.7-.9.3 0 1.1-.5-.8-.4-1.2-.3l-3.1.4-1.5.5c-1.4.5-1.4.5-2.7.3m1.3-4.8q.2 0 0 0v-.2zm.6-1.7q-2.4.1-3.8 1.5l-1.5 1.4q.3-1.5 1.6-2.3l1.1-1q-1.5-.3-2.1.8t-1.2 2.4l-.6 2.9q-.5 2.8.4 5.3.2 1.2 1.3 1.9v-.4q-2.2-3-1-6.6.5-2 2-3.5l.2-.2.1.2c.5.1 1.1.4 1.5-.3q.8-1 2-2.1m-5.1 8.8q.2.2 0 0l.2.1v-.1zm5-7.7.1.3.1-.2q0-.2-.2-.1M176.3 198q.3-.8-.4-1-1-.3-2.1-.3a9 9 0 0 1-7.6-4.9l-.4-.9-1.8.3q-1.6 0-1.5-1.4v-1.1q-.7-.3-1.5-.1h-1.5q-.6 1.5-2 1.2-.4.7-.9 1-1.5 1-2.4-.7l-.3-1.1H142q-.3 1.4-1.6 1.7c-1.3.1-1.7-.2-2.8-1.7h-5.7l-4.4.2-.9.3q-2.8 1.8-5.7 3.2-3.2 1.5-6.6 1.3a8 8 0 0 1-4.8-1.9q-.7-.7-1.2-1.5l-4 .3-5 .8-3.5.4q-1.3 2.2-4 2.2c-1.4 0-2.9.1-4.2-.6l-.8-.1q-1 1.8-2.9 1.5l-.2.1c-.4.4-.5 1.1-1.2 1q-1.4.1-2.4-.6l-1.9-1.9q.1 1.7-.5 2.9a5 5 0 0 1-2.8 2.3c-1.3.5-2.9-.2-3.8-1.6l-.6.3-4.3.3-4.2.2q-1 .1-2-.1-2-.3-4-.3l-.6 1.6c1.2 1.3 1.2 1.3 2.5 1.7q-1.8 1.8-4.3 1.1l-.1.6q-.4.8-1.3.4a6 6 0 0 1-2.2-2q-1.2-2.2-1.5-4.7a20 20 0 0 1-6.1-4.7 10 10 0 0 1-2.5-5.6l-.2-2q0-1 .3-2.1.8-3.5 3.3-5.9 2.2-2.3 5.3-3.7c.3-1.7.5-3.5 1.5-4.9q.8-1.1 1.7-1.9 1.4-1 1.9.8c1.8-.5 2.8-.2 4.2 1.1-1.2.1-1.8.9-2.5 1.6l.6 1.9 2.7-.2q2.4-.5 4.8 0h.7l6.3.4.4.2q.8-1.6 2.7-1.7a4 4 0 0 1 3.3 1.6q1.3 1.5 1 3.8l1.9-1.9c1-1 2.9-1.4 3.7.4 1.3.1 2.4.4 3 1.7l3.4-.7q1.6-.2 3.2.3c1.6.5 1.9 1.1 2.5 2.1q3.2 0 6.3.8l.7.1q2.3.1 4.7.6.8.1 1.2-.5c1.4-2.1 3.5-2.8 5.9-2.9 3.6-.2 6.7 1.2 9.6 3l2 1.3q1 .6 2.2.6h9.4c.6-.6 1-1.5 2.2-1.5q1.7-.2 2.1 1.5c1.4.2 2.8-.2 4.1.3 1.3-.5 2.5 0 3.8 0h4.2l.1-.8q0-.5.3-.9.8-1.2 2.1-.5l1.1 1.1c.7-.1 1.6 0 1.8 1.1h3.1V179q0-1.1 1.2-1.2c1.2-.1 1.4.1 2.2.2a8 8 0 0 1 4.4-4.8q1.8-1 3.8-1l1.7-.3q1.2-.2.5-1.3l-.3-.4q1.8.4 2.5 2.1c3.6-.6 7.2-.2 10.8-.3h10.9q1-.2 2.1.2.2.1.4 0c.7-.4 1.4-.2 2.1-.2h5.9l4.6.3q.8.1 1.7-.2.6-.2 1.1 0 1.6.3 3.1.2l15.5.1q3.6 0 7.1.5c.9.1 1.9-.2 2.8.3q.2.1.4-.1l.8-.2c1.4.3 2.9 0 4.4.5h.4c1.4-.6 2.7.3 4.1 0l.6.3c.7-.7 1.6.2 2.5.1 1 .8 2.2.5 3.3.7l4.9.7q3.6.7 7.1 1.9 2.7 1 5 2.7 3.8 2.6 5.3 6.9a8 8 0 0 1-2 8.5q-1.6 1.6-4.2 2.1-1.7.3-3.4.3l-5.9-.1-2.4-.3c-.8-.1-1.6.2-2.4-.3h-.3l-6.3-.3q-2.5 0-4.9-.4l-4-.3c-4.1-.5-8.3-.1-12.4-.3-6.4-.4-12.7-.1-19.1-.3-3.7.4-7.4.2-11.1.2l-3-.2c-2.4.3-4.7 0-7 .3l-6.8.2-2.7.2-2.6.2-3.8.4-2.9.3c-.7.6-1.2 1.6-2.5 1.7q.5-.3.6-.6m-46.5-17.1q3.1 1.1 6.1.4-3-.6-6.1-.4m-20.2-.9.4-.8q.2-.8.9-1l-.4 2.2q.8 1.5 2.2 1.3 1-.4 1.6-1.4.6-.7 0-1.4-.6-.8-1.4-.1l-.9 1q-.2-.9.4-1.5c.6-.5 1.1-1.2 1.9-1.2q3-.3 5.8 1l6.5 3.6q3 1.8 6.6 2.1l1.8-.1q2-.4 3.7-1.5a5 5 0 0 0 2.3-2.6q-1.3-1.1-2.2.4a6 6 0 0 1-5.7 2.9l-1.2-.2q-3.4-.5-6.2-2.6c-2.2-1.5-4.3-3-6.8-3.7q-3.6-1-7.2.1-2.6.7-2.1 3.5m27.8 4.7-.6-.3-.1.2.6.4.1-.1zm-13.7-.7h4.2l-3.4-1.2c-1.9-.7-3.2.1-4.5 1.4.8 1.2 1.9 1.4 3 1.8h.7l3.9-1.1-2-.3-1.9-.4zm-7.6 3.4-.5-1.4-1.2.1c.6.6.5 1.6 1.7 1.3m-.8 1.9v.2q.1-.1 0-.2.2 0 0 0m-.6.9q.7.4 1.9 0zm2.8-.7c-.6-.6-.6-1.5-1.6-1.4.6.9.6.9 1.6 1.4m2.1-2-1.1-1.4h-2.1c0 .7.6.9.9 1.4zm.2-2.4c-.5-.7-.9 0-1.3 0q.7.2 1.3 0m-1.9 3.2 1.5.8q.8.4 1.3-.7l-1.5-.1c-.5.1-.8-.6-1.3 0m4.5-1.2-2.7-1.2q1.1 1.7 2.7 1.2m-4.8-6.7c.7-.4.7-.4.6-1.2l-1.8-.3q-.7 1.3-.6 3.2c1.2 0 2.3-.3 3.3.1 1.3.4 2.1-.3 3.1-.7-1.3-.4-2.6-.8-3.9-.4zm3.1-.6c-1.2-.6-1.2-.6-1.9.3 1 .1 1 .1 1.9-.3m-6-1.6.7 1.3.3-1.3zm-19.2-.2.8.4.8.1a8 8 0 0 0-3.6 1.1h2.7q-2 .5-3.8.5h-7.1l-.7-.2-3.1.1c-1.3.1-2.6.5-3.8.3l-3.7-.2-1.5-.2q-1.8-.3-3.4-.9l-1.1 2.2h.5q1.6-.4 3.2-.4l4.1.5q3.5.3 7 .3c4.3-.1 8.6.4 12.8.4l.2.1-.4.1h-4.8l-4.9.2q-4.4.1-8.8-.2-3.8-.2-7.5-.1l.9 1.2 4.1-.3 13.9.3 2 .2h1.8c3.5.2 6.9 0 10.4.3q2.2 0 4.3-.2h5.9l2.4.3q-1.3.6-2.4.5l-10.9-.1-3.1-.2h-2.6l-23.9-.1q-1.3 0-2.2 1.2l1.4-.1 1.3.1q.4 0 .8-.3l.2.2 2.9-.1h.3c.5.8 1.3.3 1.9.4l.5-.1 2.3.1c.8-.2 1.5.2 2.2 0q.9-.2 1.6 0h1.7l.6.5-3.5.1v1.6q2.3-.4 4.1-.4l.5-1 .2-.1-.1.4-.2.6q2.3.1 4.4-.1v-.6c-.9-.8-2.1-.3-3.3-.6q1.3-.7 2.5-.7h1.1q.5-.1.8.2l2.3-.1h16.7q.4 0 .8-.4.4.6 1.4.3l.1-1c.2.5.2 1.1.9 1.1.5 0 1.2.3 1.5-.4l-1.8-.8q1-.8 2-.5c.5.1 1.2.3 1.6-.4-1.3-.8-2.8-.7-4.2-.8-.3-.6.2-1.2-.3-1.7h-.2c-1 1.7-2 2.5-4.6 1.7q-1.5-.4-3.1-.6l-5.6-.4-1.1-.1 5.6-.5h2.2l.3-.1-.6-.9-.6.1-2.6-.5-4.4-.4-.9-.3v-.2l2.2-.1-1.7-.3-4.2-.8q0 .6-.4.8m5 8.4v1.3h2.8v-1.3zm-6.7.2v.9l2.8-.1v-.8zm-2.8 2.9c.6-.8 1.7.1 2.1-.9h-3.9l-.3.9-.5-.9-2-.4c-.6-.1-1.3.1-2.2-.4v1.1l3.3 1.4a8 8 0 0 0 4.3.8q.7-.1.7-.8 0-.6-.6-.7-.3.1-.9-.1m-8.7-1 1 .3q.5-1.2.3-2.5H82v1.2c.6.1 0 .7.3 1m-2.7-2.3c-.7 0-.8.1-.7 1.2h1.9c.7 0 .7 0 .8-1.2zm-2.9.1-.4 1 1.1.1.9-.1v-1zm-2.9 3.5q.9.3 1-.1zm.1-1.6-.1-.1s-.1.1 0 .2m2.1-.8v-1.1h-2.5v.7zm-4.9.6c.4.6.4.6 2.1 0zm.1-.9c.7-.2 1.4.3 1.9-.4-.5-.8-1.3-.3-2-.4zm-6.8 5.5.8.8.6-1.1-1.2-.1zm.5-.7.2-.1-.4-.6-.3.2zm1-.4-.3-.7-.3.1.2.7zm-.6-2.7.1 1.1c.2-.6.5-1-.1-1.1m1-2 3.1-2.7-1.9-1.9-.7-.3q-1-1.5-2.7-1l-1.8.3q.3-.4.7-.5 1-.1 1.8-.9l-.5-.1.6-.7-.3-.3q-.1-.4.3-.6-.3-.7-1-.6l-2.2.6q-2.3 1-4.7 1.6-2.7.7-4.5-1.4c-.4-.4-.6-1.5-.2-1.9q.6-.9 1.6-.6-.6.6 0 1.2t1.3-.1q.8-.8.2-1.6l-.7-.7H54q-1.6-.1-2.3 1.3-.7 1.7.3 2.9a5 5 0 0 0 2.3 1.7l1.6.4q-.6.3-1.1.2l-1.9-.4.5.5 1.4.5-1 .1c.4.5 1.1.4 1.6.7-1.4 1.5-1.5 1.4 0 3-.6.3-1.3.2-1.7.7l1 .1-1.4.5-.5.5q1.3-.5 2.8-.1-2.3.1-3.7 1.9c-1 1-1.1 3.5.9 4.2 1.5.5 2.8.1 2.6-1.7q-.1-.8-1-.8-.5 0-.6.3l-.1 1.1c-1.5-.2-1.6-.4-1.5-2.1 1.1-1.8 3-2.2 4.5-1.9q2 .5 3.9 1.3l2.5.9c.8.2 1.6.3 2.3-.6h-.7v-.4q.5-.1.2-.5l-.5-.6.5-.1c-.5-.7-1.5-.6-2.2-1.1q.8-.1 1.5.1 1.2.5 2.1-.4m-2.6 4.6v.2h.1zq.1.2 0 0m-2.2-.1 1.2.4q-.2-.8-1.2-.4m-.7 2.8.1-.2zm-5-1q1-.8.3-2zm1.1-2q.2 1.6 1.6 2.2 0-1-.4-1.7c-.2-.5-.8-.2-1.2-.5q.1-.6-.6-.6c-.2-.7-.8-.5-1.3-.6l-.1-.2.3-.1.1-.1v-.1c-.6-.3-1.2.1-1.8.2-1 .2-1 .2-.9 1.5q.8-1.1 2-.9l1.4.8.3-.6zm-1.3 2.1.1-.2zm3.2-1.9q.4.7 1.2 1 .3-1.2-.7-1.7-1.1-1.3-2.9-1.1 1.6.4 2.4 1.8m1.5 1.7-.4-.1v.2zm0 .7-.7.1v.1h.7zm-8.3 3.8q-.2.2-.1.7c.4.7 1.1.3 1.7.6q.5.2 1.1-.6zm2.3-.1-.1-.4h-.1v.4zm.5 0v-.2q-.2.2 0 .2m-.4 1.9v.2q.1-.1 0-.2m-2.9-3.5.2.2.2-.1-.2-.1zm0-1.8-.1-.1zm.4 2.6h.9l-.4-.6zm.2-2.4q.1 0 0 0v-.2zm-.2 3.1-.1.1.2.1zm-.2 1.9h.2l-.2-.2zm1.7-2.3-.3-.3h-.2v.2l.4.3zm-2.5-3.6.4.1v-.2zm1.7-6q-.4-.2-.5.3.2.2.5-.3m.4-1 .1.2.3-.3zm.4-4.5-.3-.2-.1.2zm-2.7-6.4-.1-.1-.1.1zm.4-.6.2-.2-.2-.1-.2.1q.1.3.2.2m.9 5.6q.2.4.5.3 0-.4-.5-.3m.4-11q-.6.3-.4 1l2.7-.8c-.8-.8-1.5-.3-2.3-.2m2.2-.8s-.1 0 0 0l-.1.1zm.1 2.1q.1 0 0 0l-.1-.1q.2.2 0 .2m-.7 2.2-.2.1.3.4h.2v-.2zm.2-1.9.2-.4h-.2q-.2.2 0 .4m-1-.1-.2.5.5.3c-.1-.4.2-.7-.3-.8m-.3.5H52l.5.6zm-.5 2.6.1.2.1-.1zm-.2-.2-.1.1.2.1zm-.2-3.3-.2.1.1.1zm0-1.7h-.3l.2.2zm-.2 3.1-.3.5.1.1.4-.4zm-.2 2.2-.1.1.2.1zm3 3.7q-1.1 0-1.8-.9-.5 1 .4 1.4c.9.4 1.4.2 2.1.3l-.2-.5c.5-.2 1.2.1 1.4-.7q.6 0 .6-.6l.6-.3.2-.2.1.2h-.3l.2.2.1-.2q1-.7.8-2-1.5.7-1.7 2.2l-.6.6-.3-.6q.7-.9 0-1.8l-.3-.2.3 2c-.7.4-.9 1.1-1.6 1.1m1.2-3-.1-.2-.1.1zm4.6-.3v-.1q-.3-.5-.8-.3l-.1.2.8.4zm-.1.7v-.1q0 .1 0 0m-2.1 2.4c-.7.7-1.6.7-2.6 1.3q4.6-.7 4.3-3.2-1 .8-1.7 1.9M61 174l-.1-.2-.1.1zm1.7 2.3q-.6 0-.8.5.7.1.8-.5m2.5 0q-.8-.1-.7.7zm-.4 1.8.1.2.1-.1zm.3 1.4c.9 0 .5-.7.4-1.1zm.8-2.8-.3-.4-.2.3.2.4zm0-1.1-.9-.8-.6.8zm.5 4.7c1-.7 1-.7.8-1.6zm3.8-2.2-.4-.5-2.5-1.6-.8-.4q1.2 2.4 3.7 2.5m-3.7-1.3-.5.6.5.5zm2.9 5.3-.1-.2-.1.1zm-1.6 4.9.9 1.3.4-2c-.6-.2-.8.4-1.3.7m-1.1 1.3.5 1.1q.4-.8-.5-1.1m-.7 2.4.4.4.4-.5-.4-.4zm.6 2.1 3.6-2.5q-1.9 0-3.3 1.4-.6.3-.3 1.1m4.1-4.2-.7-1.3c.4-.2.9-.4.5-1.1l-1.1.1c.1 1-.2 1.9.3 2.8zm-.3 1.5-.1.2zm0-11.8-.2-.1zm20.8.5.4-.1q1-.1.9-.8-.2-.9-.9-.7l-2.4.2q-1.8.5-3.5 1.5l6.6.6c-.4-.3-1-.1-1.1-.7m-12.4-1.3c2.6 0 4.8-1.5 7.3-2.3-.8-.8-1.5-.6-2.2-.4-1.9.6-3.4 1.8-5.1 2.7m-.3-1.4.6-.2 3.6-2.2c-.9-.9-1.1-1-2-.3l-.3.3zm-.3.1.1-.2zm-2.1 2.5-1.7-.3c.7.7 1.4.4 2 .6 1.8.6 3.6.1 5.4-.2q2.3-.5 4.4-1.4 2.5-1 5.1-1.1c1.3 0 2.2.4 2.1 2.4l.5-.3q1.4-.8.3-2.1l-.7-.6a6 6 0 0 0-2.3-.6 14 14 0 0 0-5.4 1.1l-4.5 1.6a9 9 0 0 1-5.2.9m-9.3-6.9 1 .4 3.6 1.3c1.4.4 2.9.9 4.4-.3v-1.7q-1-1.2-2.7-1-.6 0-.8.5-.2.7.4 1.1l1.3.5q-.4.6-1.1.3l-1.7-.7q-1.5-.4-3.1-.6zm-2.1 1q.3.4.7.6 2.7 1 5.2 2.3 1.6.8 3.4.7 2.1 0 2.9-2.2l-.2.1-.3.3q-1.6 1.4-3.7.7l-1.5-.5-6.2-2.3zm-1.8-.8c-.8 1.2-.8 1.2-.8 2.4L61 174l.4 1.7.3-.7.7-.3q.6-.3.1-1v-.4l.4.3.1-.5.2.2c.1.6-.6 1.1 0 1.7l-.1.4-.4.8.6-.2c.3-.6 1-1 1.2-1.8l-.5.1-.7.3a3 3 0 0 0 .2-3.5zm-.4-1q.2 0 0 0h.2zm-8.1 2.4q.9 1 2.1.4l1.1-.4 3.8-.8.8-.5c-1.1-.4-2-.2-2.9-.2q-1.2.1-2.3.5zm.7-5.2s0-.1 0 0v-.2zm.8-.8-.1.2.2-.1zm-.3.3.1.1.1-.2zm-6.2 9.3q.3 1.2 1.1 1.9l-.5-1.3q-.5-1.4-.6-2.7a9 9 0 0 1 2.3-6.1l.2-.2.1.2c.5.1 1.1.4 1.5-.3q1.1-.9 1.9-1.9l-.8.2q-2 .2-3.3 1.8l-1 1.1q0-1 .7-1.7l1.8-1.7c-.8-.3-.8-.3-1.3 0q-1.2.8-1.6 2.1l-.8 2.7a10 10 0 0 0 .3 5.9m.6 3.7h-.2l.2.2zm-.7.3-.2-.1v.2zm-1.6-.6v.6c-.4-.1-.7-.5-.8.3h1.7zl.1-.6.8.6q-.4-1.4-1.6-2.3c0 .8-.1 1.6.7 2.3m.8-4c-.5-.1-.9-.6-1.4-.3l.7 1zm-.4 1.4-.1.2h.1q.1-.1 0-.2m-.9 4.2 1.5.4c-.5-.8-.9-.6-1.5-.4m2.5-1.4.3-.3-1-2.8q-.4.6-.4.9c.3.8.2 1.8 1.1 2.2m.3 0h.2l-.2-.2zm.3.3.2-.1-.2-.1zm-9.2 1.5 1-.4-.3-.6.9-1.2q2-3.5 5.2-5.9l.7-.8c-3.1 1.2-7 5.3-7.5 8.9m5-4.1q-1 1-1.3 2.2l.9.4.8-1.1zm-3.8 4.4-.3.3.4-.1zm-.5 2.3v-.3l.8.1q.3.6.9.3l1.6-.5c-.7.9-1.8.9-2.5 1.8 1.4 0 2.2-1.5 3.5-1.1l-1.7 1.3q.3.3.5.2l.9-.5q1.1-.8 2.4-1.3.5 0 .9.2c.2.6-.3 1-.6 1.4h.6q.4-.6.8.3h.3q.2-.6.8-.5t.9-.6l-.2-.1.3-.2v.3l.5-.2-.3-.3.2-.4q.7-1 0-1.9l-.2-.4.3-.3-.5-.2v.3l-.3-.2.2-.1q-.2-.7-.9-.6-.9 0-.8-.5h-.3q-.5.9-.8.3h-.6c.3.4.8.8.6 1.4-.3 0-.5.4-.9.2l-1.6-.8-1.4-.9c-.4-.3-.5.1-.6.3l1.8 1.3-1.3-.2-1.5-.8q-.4-.3-1 0l2.4 1.4-.8-.1-.9-.3c-.5-.2-.5.5-.9.5h-.5v-.3c-.7 0-.9.7-1.6 1 .6.2.8 1 1.5 1m5.9 6.2-.8.5.5.5 1.1-.7q-.4-.4-.8-.3m.4-1q0-.1 0 0v-.2q-.1 0 0 .2-.1-.1 0 0m.4-2.6-.8.6-.1-.6.8-.9-1.8.2-.2.4 1.1-.3v.5q-1 .9-.8 2.5a3 3 0 0 0 1.8-2.4m-2.8-.5-1.2.4q.4 1.2 1.5 2.3l.5-1.5zm2.9-1.5-1.1.3c.4.2.8.5 1.1-.3m.5 1.2v.2l.2-.1zm-.2 3.6.5-.8q0-1.2.6-2l-.3-.3q-.8.9-1.1 2 0 .4.3 1.1m1.1-3.3-.2.2h.2zm0 .5.2-.2H50zm.3-.3.2-.1-.2-.1zm-8.4-2.3q.1.5.5 0zm6.8 9.9-.5-.9-1.6-1.3c-2.1-1.7-3.3-3.9-4.6-6.1l-.1-.3c0-.2.4-.4 0-.6l-.8-.3c.1 2.2 1.3 3.9 2.6 5.5q1.8 2.6 5 4m7.5 5.9-.2-.1zm-.7-.5h.2l-.1-.2zm-2.1-.8c-.4-.7-.9-.4-1.5-.3l-.1.2-.2-.2-1.2-1.6q-.7-1.3-.9-2.8a6 6 0 0 1 1.1-5.5l.1-.5q-.5.4-.9 1a7 7 0 0 0-1.1 4A15 15 0 0 0 50 200q.5 1 1.4 1.8.5.6 1.3.2l-1.8-1.7q-.9-.7-.8-1.8l.3.2c1.8 2.4 2.9 2.7 4.9 2.8q-.9-1.2-1.9-2m-2.7-6.9-.1.2h.1s.1-.1 0-.2m4.4 7.4s0-.1 0 0l-.1-.1-.1.1zm7-3.9c-.7-.6-.7-.5-1.3-.6l-1.6-.2a9 9 0 0 1-3.1-1.1q-.8-.5-1.6.1l-1.4.7 1 .3.3-.5q5.1 2.3 7.7 1.3m.6 1h-.2zq-.2 0 0 0m.9-3.4 1-.1-1.4-1.8-.5-.1.2.5-.5.3.8.2-.2 1.6h-.3q.2-1-.8-1.2l-.2-.2q.1-.5-.3-.6l-.4 1.6 1.1-.4c0 1.2 0 1.2 1.4 3.3q.8-1.5.1-3.1m12.2 2.3v-.9c-1-1-2.2-.9-3.2-.7q-3 .6-5.7 2.1 1.4 0 2.7-.2c1-.3 2.1-.1 2.9-.8q.7-.6 1.6.2c-1.7.4-1.8.6-1.7 1.8q1 .7 2.2.1c1-.5 1.2-.5 1.2-1.6m.8-2.2v-.3a3 3 0 0 0-2.1-1.5q-1.3-.2-2.6.2c-1.8.5-3.4 1.5-5.1 2.1l-1.8.7q-.2.2-.4.9l5.3-2q1.5-.7 2.9-1a5 5 0 0 1 3.8.9m.2.1-.2-.1zm1.5-1.6-.1-.2-.1.1zm4.3 2.5-2.2-1.5c-.6-.3-1.2-.9-2-.9l2.4 2.6c.8.6.9.6 1.8-.2m-3.7-3.9-.4-.2-.1.2zm7.1 2.3q-2-1-3.9-1.6c-1-.4-2-.9-3.1-.7q2.4 2 5.4 2.8.8.4 1.6-.5m8.5-2.7c-.2-.4-.6-.9-1.3-.6q.2 2-1.7 2.3c-2.2.2-4.1-.6-6-1.4a19 19 0 0 0-8.8-1.5l-1.8.5q4.8-.3 9.2 1.7 2.4 1.1 5.1 1.6 2.2.3 4.3-.5.5-.2.8-.8.7-.7.2-1.3m2.3-1.5q-.4-.6-.7-.6l-2.3.3v.3c.9.5 1.9.2 3 0m.1 1.5c-.3-.7-.9-.4-1.6-.9l.5 1.2zm1.1-.3q-.1.2 0 0 0 .2 0 0m1.9-1.1c-.4-.7-2.1-1.1-2.6-.6v.6zm.2-2.6c-1.1-.5-2.1.2-3.2.1l.1.8 2.8.2zm3.4 2.5-.3-.6c-2.1-.1-2.1-.1-2.8.4 1 .6 2 .2 2.9.3q.2.1.2-.1m2.7-.7-2 .1.1.8h1.9zm.3-.9v-1H104c0 .6-.2 1 .2 1.4zm1.9 1H107l.2 1zm1.2-2.2-2.4.1-.4.2.1 1h1.8c.7-.8.7-.8.9-1.3m26.3 1.3c-2.7-.7-1.8-.6-4.8-.2q-.4 0-.7.3l.1.2zm3.9-.4q-1.8-1.1-3.8-1.8c-1.9-.7-3.8-.3-5.8.2-2.9.8-5.3 2.5-7.9 3.9a13 13 0 0 1-7.4 2.2q-1.3-.2-2.3-1-.7-.6-.9-2.2l.9 1c.4.3 1.2.2 1.5 0s.4-.9.2-1.3l-.4-.5q-.9-.6-1.8-.8c-1-.2-2.1.8-2.1 1.8v1.5l-.6-.6.1.8q.8 1.7 2.7 2.1t3.7.3q2.1 0 4.1-.9 3-1.2 5.6-3.2l1.5-1.1q3.5-2 7.4-1.7c1.8.2 3.5.7 4.3 2.7q.4 1.7 1.9.9.2-1.7-.9-2.3m-1.5-2.1.3.2.1-.3-.3-.4-.2.1zm1.9-.4-.9.1q.4.8.9-.1m.8 1.8-.2-.6-.2.1.2.6.2.1zm.6-1.5q.1-.4-.3-.5-.8-.1-.9.6c.5.5.8.1 1.2-.1m1.4 1.1h-1.1c.3 1 .3 1 1.1.8zm.3-1.5q-1-.4-1.7.4c.5.7 1.1.2 1.7.3zm1.7 1.7-.6-.6c.1.7-.2 1.1.5 1.6q.2-.7.1-1m.9-1.5-.1.5q1 .2.6-.7h-1.8l-.3.7c.8.4.9-.7 1.6-.5m.8 2.2-.4-1-.7-.1v1.2zm1.3-1.1h-.8v1.3l.8-.5zm.6-.1v1.5q.5-.8 0-1.5m.9-1.5c-1 .4-2-.5-2.4.8.6.5.9.1 1.2-.3l.4-.1.3.6zm.7 2.8-.3-1.6-.4.7c.4.2-.1.9.7.9m-.2-1.8-.1-.8h-.2v.8zm.9.4-.3.9.1.4h.7q.3-.9-.5-1.3m.9-1.2h-1.2l.2 1zm1.1 1.7q-.2-.5-.8-.1v.7l.2.3q.8-.1.6-.9m0-1c-.1-.7-.1-.7-.8-.6q-.2 1 .8.6m1.5.7c-.9.1-.9.1-.7.9.6 0 .4-.5.7-.9m.1-.6-.4-.8c-.5-.2-.6.3-.7.6l.1.2zm.1-1.8-1.2-1.1 1-.3-.1-.7h-11.8q-1-.2-1.4.9h1.3q.8.4 1.6 0l1-.1h6.4q-1.2.6-2.4.5h-5.6l-1.4-.2q-1-.3-1.7.1l-2 1.1 1.4.4q.5.2.8 0c.8-.4 1.6-.2 2.4-.2 2.5-.1 5 .3 7.5-.3h.3c1.2.6 2.4.1 3.9-.1m1.7.8c-.4-1.6-.1-3.1-.2-4.7l-.3-1-.4.4v10.8l.2.2q.6-.2.5-.9c.1-1.6-.2-3.2.2-4.8m2.1 0c-.4-1.2-.1-2.5-.2-3.7q0-.2-.3-.5-.8 1-.5 2l.2 1.3q.1 1.7-.2 3.4-.5 1 .7 1.9l.1-.6c.1-1.3-.3-2.6.2-3.8m2.7 2.6-.3-.3-.4.3.3.2zm1-3.7c-.3 1-.3 1 .3 1.3v-3.1H160q-.7 0-.7.7v4.8l.3.3q-.3-1 .4-1.5c1.2.5 1.2.4 1.2-.6h-.7l-.6.2q0-1.7.6-1.7l.6 1c.3-1.3.3-1.3 1-1.4m-.1 2.7h.3v-1.4q-.7.8-.3 1.4m.6 1.1-.3-.4-.3.3q0 .3.3.5zm2.1-8.2h-.9v3.9c0 1.2.3 2.4.1 3.5q-.2 1.9-.1 3.8h1.1zm16.5 14.9-.5-.1v.2zm9.5-2.3h-2.1l-2 1.7 1.3.2 1.3-.2zm2.4 1.5 3.1-3 .8-.4q.1-1 1.1-1.8c1-.8 1.2-1.1 1.8-1.7-.8.3-1.6-.2-2.5.1l-3.1 2.9c-.6-.5-1.3-.1-1.9-.1l-2.2.2-.2-.3-2.9-.2-1.8 1.7-.2-.2 1.3-1.5h-2.6l.4.4-2.3 1.6h6.1c.6-.3.8-1 1.5-.9l.2.1-.5.7c1.3 0 2.6.3 3.5-.7h.3l-.3.7.6.7c-1.5-.2-2.2.7-3.1 1.7zm-8.4-4.9q1.6.2 2.9-.3c-.1-.7.8-.9.9-1.6-1.1-.3-2 .1-2.9.4q-.3.8-.9 1.5m13.8 3.4-.9-.3q2.6-.2 3.8-2.3l-.3-.1q-.9.2-1.9 0-.5 0-1.2.3c-.3.1-.5.6-1 .5l-.7 1 .9.7h-1.4l-1.5 1.7h2.8q.8-.6 1.4-1.5m4.9-.9q1.1-.7 1.8-1.9-1.5.4-2.9 0l-2 1.9 2.1.2.1.5zm-1 .8h-2q-1 0-1.7.6l-.9 1 1.6.4q.9.2 1.5-.4.9-.7 1.5-1.6m8.7 2.8q0-.1 0 0l-.5-.1v.2zm1.2-1.1 1.6-1.6-1.6-.3.1-.4q1-.3 2 .2l2.2-2.3h-2.7l-2.2 2.1-2.2 2.1q1.7.3 2.8.2m.9 1.1-.6-.3-.1.4.7.1zm.5 0 .1-.2zq-.2 0 0 0m4.7-.4h-2.2v.1h2.2zm1.3-.7 1.6-1.6-2-.2-2.2 1.8zm2.4.9q-.6-.2-1.3-.2-.3 0-.4-.3l-.7.5zm11.9-.6 1.5-1.7-1.4-.1-.6.1a6 6 0 0 0-1.6 1.6l1.3.3v.1l-1.9.1v.1h2.2c0-.3-.1-.8.5-.5m2.9.5h-.5v.1h.5zm4.4-.1q-1.1-.1-2.2.2l2.2.2zm.7-.7 1.6-1.6-1-.2q2.6-.2 4.1-2.6l-1.2.2-.7.1c-.8-.5-1.4 0-1.9.4q-.7.5-1.3 1.2v.2l.9.7H241l-1.4 1.6zm6.5 1.1c-1-.7-2.3.2-3.3-.5l1.7-1q.7-1.3 2.1-2.1.8-.4 1.5-1.6c-1-.2-2 .4-2.8 0l-.2.1q-1 .5-1.8 1.7l1.8.2c-.9.8-1.9.3-2.8.6l-.8.8-.7.8c.7.2 1.3-.1 1.7.6-.8.9-1.9.1-2.8.5 1.4.2 5.6.1 6.4-.1m8-.1h-2.7l-.6.4c1.1-.1 2.3.7 3.3-.4m-1.9-.9h2.9l1.5-1.5-1.6-.2-.1-.5zm5-2.1 2.2-2.2h-2.7l-1.7 2zm4.1 2.9-2.1-.2-1.2 1.2h2q1 0 1.3-1m2.8-2.4-2.2-.3-2 1.9q2.6.6 4.2-1.6m12.2 2.4-.2-.4q1.5-.5 2.4-2h-2.1l-1.9 1.7 1.3.2v.2h-1.8l-1.8 1.8c2.3.7 2.3.4 4.1-1.5m3.5.1h-2.6l-1.5 1.4q2 .3 3.6-.8.5 0 .5-.6m-4.9-8.1q1.4 0 2.7.2-.9 1.3-2.2 1.9.2.7.7.5c.7-.4 1.5-.1 2.3-.2l1.3-1.2q.5-.5.9.1l-1.1 1.5 2.2-.4a9 9 0 0 0-1.9-4.1l-1.9 1.7q.4-1.3 1.4-2.2l-1.2-1.4q-1.8 1.6-3.2 3.6m-2.3 2.4c1-.1 2 .2 2.9-.3-.1-.7.8-.9.9-1.7q-1.6-.2-2.9.5zm2.9-7.1-4.6 4.5c1.1-.4 2 .5 3 .2l3.9-3.8zm-10.1-4.1h.8v-.1zm-100.6.4 3-2 .5-.3 3.5-.9q1-.2 1.9-.6c1-.5 1.7-1.4.9-2.3-.7 1.2-.7 1.3-2.3 1.4q-3.4.4-6.1 2.4c-.6.8-1.4 1.3-1.4 2.3m-.3.2.1.1.1-.2zm1.2 7.4c-.3.9-1.1 1.2-1.6 1.8l1.1 2 3-2.8-.1-.3 1.2-.7 1.9-1.8.5-.3.1.2-2 2.5-2.5 2.2 2.6.3.8-.9 1.5-1.3 2.4-2.3.9-.4-.5.9-1 1.1-.1.8q-.8 0-1.5.7c-.7.7-1.1.8-1.3 1.6l1.7.2-.7.2c-.7.4-1.3-.7-2 0l-1.5 1.5-1 1.3 1.8.8 1.1-1h.1l1.8-1.5.2.1-.2.8c1 0 2.1.2 3-.5.2.8 1 .7 1.5 1l-1.6.1-1.5.6.3-.5-2.1-.2-1.7 1.4 1.8.5c.6-.2.8-1 1.5-.9l-.3.9 2.8.2 1.7-1.2-.4 1.2c0 .6-.6.4-.9.7h1.7l-.6-.5c.9-.7 2 0 2.9-.6l-.3 1.1h.5l.3-.7.7-.1q1.9.2 3-1.4H184c-.3.5-.3.5-1.2 1.1l.9-1.3c-1.4-.3-2.6 0-4.1-.3l.6-.2q1 0 1.5-.8l3.1-3.2.7-.3q-.1-.2-.4-.3l-2.8-.2-.8.2.4-.5 4.6-4.5 1.2-.9-.2.7-3.9 3.8-.7.5 2.9.4 4.6-4.3.2.1q-.1.4-.4.6l-2.8 2.8-.6.7h2.9a6 6 0 0 1-2.1 2.1q.1.7.7.5c.7-.4 1.4 0 2.1-.3.7-.5 1.2-1.4 2.5-1.4l-1.2 1.7 2.5-.2 2.1-2-1.3-.2v-.2h1.8l.9-1 .6-.2-.5 1.1h1.6l.4.3 1.4-.3c-.6 1.1-1.5 1.5-2 2.3h3l1.6-1.7c-.4-.3-1.2.2-1.6-.5q1.2-.7 2.7-.2l1.7-1.9.5-.5c0-.1-.3-.4.1-.4q1-.1 1.5-1 .8-1.2 2.2-1.9.2.8-.4 1.1l-1.7 1.5c-.2.2-.2.7-.3.7q-1.7.9-2.7 2.4l-2.6 2.3h3.2l1.4-1.5q.6-.8 1.8-1.4c-.4 1.4-1.7 1.9-2.3 2.9q2.5.5 3.9-1.4.3-.5.8-.7c.5-.2.8-.9 1.4-.8l-.2.3-4.6 4.2q-.2.1-.5-.1l.7-1.1-1.2.3-1-.2-2.1 1.8q.4.7-.5.7l-.4.1-2 1.5h3l1.6-1.5-1.3-.4q.6-.4 1-.4c.5-.1 1.2.2 1.5-.5l.3.1q.1.6.7.5l1.6.4v.1h-2.9l-1.6 1.5 1.5 1.1.3-.9h1.5l1.6-2 1.8-1.6 1.8-1.8c.4-.6 1.5-.6 1.4-1.7l.4-.2.8-.5 1.9-1.8.5-.3a29 29 0 0 1-4.4 4.9l2.6.2.7-.7q1.8-1.2 3.2-3.1c.6-.2.8-1 1.6-1l-1.4 1.9-.1.6c-1.2.3-1.8 1.4-2.8 2.3l1.4.2q-.5.3-1 .2l-1.1-.3-1.9 2.3-3 2.5 1.3.2-.2.5h.9q-.5-.6.2-.8l.4.5 4.7-3.7-.2.8c1-.1 2.1.3 3-.5l.5.5.5.2.6.1q-.6.3-1.3.2c-.6-.1-.9.4-1.4.6q-.7.2-.8 1.1l2.6.1 1.6-1.2q0 .6-.3.8l-.1.8-.6.1v.1h1.3l-.3-.7 2.9-.2q0 .7-.6.8h-.7l-.5.1v.1h3.6v-.1l-1.6-.2c1-.8 1.9-.2 2.6-.5l1.5-1.5h-2.3l-1 .3q-.3-.6-1-.5h-3q.3-.4.8-.3.5 0 .8-.3 1.4-1.3 2.7-2.8.6-.8 1.5-1.2l-.3-.3-2.5-.2-.9.2q0-.6.4-.8l3.7-3.4 1.2-1.2.6-.4.1.3-4.5 4.4-.1.2 2 .4q.7.1 1.3-.5l2.2-2.3q.3-.4.9-.4l1-1.1q0 1-1 1.2l-2.6 3.2h2.9q-.8 1.4-2.2 2 .3.4.7.5l2.3-.2c.6-.4 1.1-1.3 2.3-1.3l-1 1.7c1.6 0 3.1-.1 3.9-1.7l.5-.5-1.2-.2v-.2l1.5-.1c.7-.3.9-1 1.7-1.1l-.4 1.2h1.8q-.2.6-.8.5c-1-.5-1.7 0-2.4.7l-1.9 1.8q-.2.4-.8.3l-.5-.2-1.5.2-1.6.2q-.2-.3-.8-.3l-2.5-.2c-.6.7-1 1.5-1.9 1.6l1.4-1.6h-2.6l.2.3-2.2 1.7h5.1q.9.1 1.6-.5c.2-.2.5-.7 1-.2l-.2.7h2.1q.7-.3 1.4-.9c.4.5-.1.5-.4.8l1 .7c-1.6-.3-2.2.8-3.3 1.7h2.4l.5-.2 2.8-2.6.8-.8c.2-.4.3-1.1.6-1.2q.7-.3 1.2-.8l1.9-1.5.8-.1c-.3 1.2-1.5 1.4-2.1 2.3h3l1.9-1.6c-.6-.4-1.5.2-1.9-.6q1.4-.7 2.7-.1l2.2-2.2c.4-.3-.2-.7.2-.7q.8-.1 1.2-.7l2-1.9.5-.3q0 .6-.4.9l-1.9 2-2.1 1.9-.8 1-2.7 2.3h2.8l1.8-1.5q.7-.8 1.8-1.4c-.4 1.5-1.8 1.8-2.3 2.9h2.5l1.8-2 1.9-.9-.3.6-4.2 3.7-.9.4.6-1.1-2.3-.1-1.6 1.7v.8a3 3 0 0 0-2.2 1.1l-.5.1v.5h2.8l-.2-.2 1.7-1.3c-.4-.4-1.1.2-1.2-.8h1.3q.9 0 1.3-.6l.2.1-.1.4 1.1.3 1.1.2-.7.2q-2.3-.4-3.5 1.6l1.1.5c-.4.2-.7.7-1.2.3q-.2-.2-.9.4c2.2.1 2.7.1 3-.2l-.6-.6.8-.3q.6.2 1.1-.1a5 5 0 0 0 1.5-1.4q.8-1 1.7-1.8 1.8-1.8 3.7-3.4l-.2-.3 1.2-.8 1.9-1.5.4-1q.3 1-.4 1.1 0 .6-.5.9l-1 1.1-2.5 2.3 2.6.2 2.7-2.2c1-.7 1.3-2.1 2.7-2.6-.1 1.2-1.6 1.4-1.3 2.6q-1.1.2-2.8 2.3l1.4.1q-.5.3-1.1.2-.5 0-1.1-.3-2.2 2.5-4.7 4.7c.1.5 1-.1.8.7-1.6.3-1.6.3-1.9.7l2.5.3.6-.8-.3-.2-.2-.6.6.1.2.3q1.5-1 2.6-2.3l2.1-1.5-.3 1c1-.2 2.1.3 3-.6.2.8 1 .7 1.5 1.1h-2.1l-1.7 1.8q-1 .7-1.6 1.9h2.9l1.1-1.3-2.4-.2c1.1-.8 2.1-.5 3-.4l1.9-1.4a5 5 0 0 1-1.5 2q-.8.4-1.3 1.5h2.2l1.6-1.5c-.3-.3-1.2.5-1.1-.6l2.8-.2c-.7 1-1.7 1.4-2.3 2.4h2.5l1.7-1.6-1.7-.2.3-.4h1q1.3.1 2.1-.9l.5-.6h-3l-1 1.1q-.1-.4.1-.7l.3-.7-4.2-.1.7-.2q1 .1 1.5-.8l.4-.1v.6h5.8c.6-.2.8-1.1 1.7-.8l-.5.7c1.8.1 1.8.1 4.1-.9l-.7.8.5.6c-1.5.2-1.6.3-2.9 1.8h2.8l.7-1.4c-.5-.6.4-.8.3-1.3s.1-1-.1-1.5l-3.8.5q0-.4-.6-.3-1.3 0-2.3-.2c-.7.2-.6 1-1.3.9l-.3.3.3-.3.4-.9h-2.7q-.2 1-1.2 1.2c.3-.5.4-1.2 1.2-1.2q.5-1.5 2-2-.1-.2-.4-.3l-2.5-.2-.6.2-.7.3-.1-.2 6-5.7-1.9-1 .2-.5-.3-.1q-.9.3-1.8-.2l-1.4-.4-2.1-.6-.2-1q-.7.9-1.6.7l-3.6-.4-2.4-.4c.6-.7 1.3-.5 1.9-.3q1.5.3 3 .1l-1.4-.2q-2.9-.5-5.9-.8-2.5-.3-5.2-.4h-.6q-3.2-.6-6.5-.6c-1.3.1-2.6-.5-3.9 0h-.4q-1.6-.4-3.3-.2h-6.5l.6-.9h-.6c-.7.8-1.7.6-2.6.6h-7.6l.2-.8c-.7.1-1.2.6-2 .6l-7-.1-.5-.1.1-.5c-1.1.2-2.1-.3-3 .5l-.7.1h-9.1q-.8-.1-1.2-.5-.6.5-1.4.3h-.9q-1.6.4-3.3.2c-1.7-.2-2.2.4-3.2-.2q-.2-.1-.6.1l-1.2.2-2.4.2c-1.2.2-1.6 0-2.4 0-.4-.8-.8-.5-1.3-.1l-.5.1-2.7.3h-1.1c.5-.9 1.4-.3 2-.7l-2.2-.4c-.4-.1-1.5.6-2 1.1l1.3-.2q-.5.6-.9.8-2.8.4-5.5 1.5-4.5 1.3-5.9 5.7l-.2.8q1-1.3 1.8-1.9c.8-.6 1-1.4 2.2-1.1l-1.6 1.5c-.4.5-1.2.7-1 1.6l-.8.1q-.4.2-.5.5-.2 1.2.2 2.5l1-.8zm67.6 6.4-.1.2zm-5.9-3.3c1-.2 2 .2 2.9-.4l1-1.6c-1.2-.3-2.1.1-3 .4 0 .7-.7 1-.9 1.6m-53.7 5.5q.1 0 0 0h.2zm-.6-.2v-.5q-.5.1 0 .5m-4.3-4.9h-2.5l-.8.9 1.3 1.2zm-4.3 2.5.2.1zq0-.2 0 0m9.9 6.1.3.1c.3-1.4.2-1.8-1.2-2.1l-5-1.1 1.5-.2c-.3-.7-.9-.5-1.4-.6q-2-.9-3.7-2.2l.1.5c.6 1.3 1.9 2 3 2.8q2.2 1.2 4.7 1.4 1.3 0 1.7 1.4m-4.7-11.5q-.2 0 0 0m97-96.2.2.1zm.1 0q.2 0 0 0 .1.1 0 0 .1.1 0 0 .1 0 0 0M74.6 51.6l-1.1-1.3q2.9-1 5.6-1.3 2.8-.7 5.8-.6l.7 1.3c-1.5.3-2.1.3-2.9-.1l-.1.4-2.5.3c-.5 0-.2-.9-.9-.7l.2.8-2.5.6-.5-.9-.2.1.1.9zm8-2.1q0-.5-.5-.8-.1.7.5.8m21.5 2.6.6.4 1.9.6c.1-1.2.1-1.4-.9-1.7l-1.5-.5-.2.4c-.6-1.3-2-.8-3.1-1.5v1q1 1.3 3.2 1.3m14.3 3.6.3-.6c.2 1.3 1.5 1.6 2.4 2.4l.1-1-5-3.4c-.3 1-.2 1.2.4 1.6zm8.2 16.8c-.3 1 0 2.2-.8 3l-.9.2c.3-1.1.3-2.2.9-3.1l-.2-.6q.3-1 .3-2l.1-1c.6 1.3.6 1.4.3 2.5q-.2.4.2.6zm-.6 0-.2.1zM90.1 49.9h1.4v-.2q-.3-1-.9-1.4-1-.2-2.2-.2v1.2q.7.7 1.7.6m-27.4 5.2-1-1.1-2.4 1 1.3 1.4c.5-.8 1.5-.6 2.1-1.3m25.7-5.3v-.5l-.9-1.1h-2.3l.9 1.6zm6.3.4c-.6-1.8-.3-1.9-3.1-1.7.4 1.8 1.8 1.6 3.1 1.7m1.3.3 2.1.3q-.5-1-1-1.6l-2.3-.5.3 1.1q.1.6.9.7m-24.9 1.9-.7-1.2c-.9-.2-1.6.4-2.5.6l.9 1.3zm27.6-1.5 1.9.4.3-.6-.3-.5-.5-.6-2.1-.4.3 1.3q.1.4.4.4m-6.5 1.3c-.8 0-1.6.3-2.3 0q-1.2-.4-2.4-.3l-.2.1.3.7 5.1.3q0-.8-.5-.8m-23.9 1.2-.5-.7-.4-.7-2.4.7 1.2 1.3zm45.6-.1 1.8.9q.3-1.4-.9-1.8l-1.9-.9q-.4 1.3 1 1.8m14.2 21.1-.8 4.2q.7-.3.9-1l.9-4.5q-1 .5-1 1.3M73.7 51.7l-.3-.7-.4-.6-2.2.6c1.1 1.4.7 1.4 2.9.7m-8.3 2.6-1-1.3-2.1.7 1.1 1.3zm43-.3 1.3.4-.3-1.4-2.2-.9c-.1 1.5.1 1.3 1.2 1.9m-53.5 9-1.8 1.2c1 .9 1 1 2 .3l1.1-1zm19.7-6.1-.8-1.2-2.3.6.8 1zm38.5-2q0 .6.3 1l2.6 1.6-.2-1.2c-.9-.5-1.7-1.3-2.7-1.4m0 0-2.6-1.6c-.4 1.2-.4 1.2.5 1.6l1.7.8q0-.4.4-.8m-55.4 6.4-2.1 1.2.6.8c1-.1 1.5-.8 2.4-1.2zm6-1.4c-.9-1-.9-1-2-.5l-1 .5.9 1zm16.8-4h2.4l-.6-1.1h-2.2q-.2.8.4 1.1m-14 3-1.1-1-2 .8.8 1zm-8.4 2.2 1.1.8 1.9-.9c-1-1.2-1.9-.6-3 .1m14.4-6.4-.5-1.2-2.4.7q.7 1.3 1.9.6zM69 58.2l-1-1.1-2.1.8 1.1.9zm52.3 5.2q-.5 1.2.3 2 .6.8 1.1 1.9l.5-1zm-40-10.1-.5-1.2-2.4.4v.6c.8.5 1.8.1 2.9.2m-24.7 7.4-.8-.7-2.2 1.3.9.8zm17.7-4.9.9 1 2-.3c-.9-1.4-.9-1.4-2.9-.7m4-2.8s0 .1 0 0m-2.9-.2.7 1.1 2.2-.4V53l-.8-.5zm18.8 3.4-.3-1.1c-.8.1-1.6-.5-2.6-.2l.4 1zm-40.3 6.2-1-.6-1.7 1.3.3.7.9-.2zm-2.3 1.3q-.1 0 0 0m34.7-8h2.1c-.4-1.6-1.5-1-2.4-1.1q-.5.7.3 1.1m-9.3-.6.8 1h2.1l-.4-1zm-5.7 2.4q-.3-1.4-1.2-1l-1.5.4 1.1 1zm4.1-3.5-.4-.8c-.8-.4-1.4.2-2.5.2l.9 1.1q1-.4 2-.5m-13.7 4.1-.7-.8-2.2 1 .8.8zm2.2-1.8q-.3-.1-.7.1l-.8.4-1 .3 1 .8 1.9-.9q-.1-.5-.4-.7M85 54.7l-1.9.1c.5 1.4.8 1.5 2.5.6zm-15.2.5q-.7-1.2-1.8-.6l-1 .3q.3.5.8.9zm46.5 1.4v1l2.1 1.4q.5-.6-.1-1.1zm-49.4-.5q-.1-1-1-.8l-1.7.6.9.8zm-9 3.9 1.3-.7c-1.2-1.1-2 0-2.9.4q.7.9 1.6.3m32.3-5.2h-1.5c.4 1.4 1.4 1.1 2.2 1.1q.2-1.3-.7-1.1m-8.8-2.6.7.8h2.1l-.5-1.1zm13.5 4 1.9.3-.1-1-2.2-.3q-.2.7.4 1m29.3 14.2c-.3-1 0-2.1-.9-3.3-.5 1.5.2 2.6.4 3.8q.5-.3.5-.5m-5.4-9c.1 1.5 1.3 1.8 1.9 2.8.4-1.6-.9-2-1.9-2.8m-31.9-8.7q0-.8-.7-.8H84l.8 1zm10.6 3.1c.5 1.1.5 1.1 2.2.9-.4-.9-.7-1.1-2.2-.9m7.7 1.9q-1-.7-2.1-.8-.4.7.3.9l1.9.6zm-22.5 1.8c.6 1.4 1.7.5 2.5.7-.6-1.4-1.7-.4-2.5-.7m36.2-1.2v1l2.2 1.6c-.2-1.5-1.3-1.8-2.2-2.6m-44.5 2 .6.7 2-.3V60c-.9-.2-1.6.4-2.6.3m11.2-.9c.2.9.2.9 2.2.8v-.7zm-16.5 2.1.8.7 2-.6-.6-.7zm33.2-4.8-2.3-.5.5 1 1.9.4zm-35.6 5.7.5.4q1.1 0 2.1-.7c-.9-.6-1.2-.5-2.6.3m61.8 6.4v4q.5-.5.5-.8c0-1.1.2-2.1-.5-3.2m-69.1-3.3.7.5 1.9-1-.7-.7zm4.9-2.4v.7c.8.2 1.5-.4 2.2-.6-.5-.8-.5-.8-2.2-.1m59.5-3.4c0-1.6-1.3-1.8-2-2.4 0 1.3 1.2 1.5 2 2.4m-34-.2H88c.5 1.4 1.6.6 2.3.9q.3-.9-.5-.9m33.5 3.8c.1-1.3-1.1-1.7-1.6-2.8q-.6.7-.1 1.2zm-44.1-3.5q-.7-.3-1.9.4c.8.8 1.5.4 2.5.4q-.2-.7-.6-.8m-17.4 4.3.7.7c.6-.5 1.4-.5 1.9-1.1q-1.5-.4-2.6.4m-4.6 2.8.5.6 1.9-1.2-.7-.5zm15-5.7c.9.4 1 .4 2.3-.2q-1.5-1-2.3.2m7.8-1.3c.7.8 1.5.3 2.5.5-.8-1.1-1-1.2-2.5-.5m13.4.1v.4q1.2.5 2.5.4c-.6-1.1-1.6-.7-2.5-.8m17-.1c-.3-1.1-1.4-.8-2.1-1.4.2.9.1.9.7 1.2.5.1.8.6 1.4.2m-4.4-2.2q-.4.6.2.9l1.6.6c-.1-1.2-1.1-1.1-1.8-1.5M55.5 68.4l.5.6 1.4-1.2-.6-.7zm62.5-7.6-1.7-1.2.1.7 1.5 1.1.8.1zm6.8-.9-.4.3 2.1 2.5c-.2-1.2-1.1-1.9-1.7-2.8m-34-.1c1 .8 1 .8 2.1.7l-.3-.7zm20.3 0c0 .7 0 .7 2 1.5-.3-1.2-1.3-1.1-2-1.5m-15 .5c.5 1.3 1.4.8 2.1 1v-.4q-.9-.4-2.1-.6M95 86.1l.1.6 1.2 1.7h.4c-.9-1.7-.9-1.8-1.7-2.3m1.7 2.3q0 .1 0 0 0 .1 0 0 .2.1 0 0m-.8-35.5c-.9-.1-1.6-.6-2.6-.2l.2.4 2.3.2zm19.8 9.5c-.7-.5-1.2-1.2-2.2-1.2.5.8 1.5 1.3 2.2 1.2M89.9 87.3l-.8-1.5q-.1-.3-.6-.3c.6.8.6 2 1.6 2.6l.1.2.1-.1-.2-.1zm9-26.1q.8.8 2.1.4-1-.8-2.1-.4m5.4 25.1c.5.4.8 1.1 1.8 1l-1.4-1.5zm20.7-9.1h.3c.3-.2.7-1.3.6-1.7h-.1l-.8.9zm-9.1-17.5q-1-1-2.4-1.3a4 4 0 0 0 2.4 1.3m-14.5 1.9.3.4 1.9.5c-.6-1-1.5-.5-2.2-.9M96.6 53q.8.6 2.1.7c-.6-.9-1.5-.4-2.1-.7m32.1 8.8-.9-1.9q-.2 1.2.9 1.9m0 0q0 .2 0 0 0 .2 0 0m-18-4.4 1.9.9c-.3-.9-1.1-.8-1.9-.9m-4.6 5.9c-.6-.7-.8-.8-2-.9q.4.6 1 .6zm17.8 10.5.3-2.2c-.5.5-.5.5-.3 2.2m-22.8 12.3q.2 1.1 1.2 1.5c-.3-.7-.3-.7-1.2-1.5m7-22.3q0 .2 0 0m-1.4-.7.3.4 1.1.3c-.3-.5-1-.4-1.4-.7m3.7 1.6q.1 0 0 0m0 0-1.3-.8q.4 1 1.3.8m11.9 18-.2.2zm.8-1.1q-.8.3-.8 1.1.8-.2.8-1.1m-40.3 3.6q0 .1 0 0 .1.1 0 0m-.9-1.3c.4.6.4 1.1.9 1.3q0-.7-.9-1.3m-6.8-.9q.2.6.7.4l-.1-.5c-.3-.4-.4-.1-.6.1m49.5-18.3-.4-1.3q-.4 1.1.4 1.3m0 0q0 .1 0 0m-73.3 4.5.8-.7q-1 0-.8.7m75.7-5.9q0 .6.5.8.1-.5-.5-.8m-10.2 0-.5-.6q0 .7.5.6.2.7.9.6-.2-.7-.9-.6m-5.6 22.4.6.5q.1-.5-.6-.5m.6.4q0 .2 0 0 0 .2 0 0 .2.2 0 0m-1.7-29.4-1.1-.1q.3.5 1.1.1m11.8 27.5q-.3.2 0 .3l.2.1.2-.2zm-4.2-20.3.4.6q.3-.8-.4-.6m-65.5 4.4.1-.5h-.1zm73-2.4q.1-.4-.2-.5-.2.3.2.5m-.3-.5q0-.2 0 0 0-.2 0 0 0-.2 0 0m-5.3-.1.1-.2h-.4zm5-.5q-.1.4.3.5.1-.4-.3-.5m3-.6v.5q.4-.4 0-.5m0 0q-.1 0 0 0-.2 0 0 0-.2 0 0 0m-2.1 18q-.4.2-.3.5.4-.2.3-.5m-.3.5s0 .1 0 0q0 .1 0 0m3.8-20.3q0 .1 0 0m-.3-.5q-.2.4.3.5.1-.4-.3-.5m-15.8 4 .1-.2-.4-.1zm16.1-3.4q-.1.4.3.5 0-.4-.3-.5m-17.1 2.8q.1.3.5.3-.1-.4-.5-.3m.5.3s.1 0 0 0q.2 0 0 0m-1-.4.4.1-.3-.3zm.4.1q.2.1 0 0 .2 0 0 0m13.7 16.8q-.1.1 0 0m.1-.4-.1.4.3-.3zm-17.1-25.2.4.1-.3-.3zm.4.1s.1 0 0 0q.2.1 0 0 .2 0 0 0m20.4 6.5v.5q.5-.5 0-.5m-31 26.2q-.1 0 0 0-.1 0 0 0-.1 0 0 0m.3-.2-.3.2h.4zm20.3-24.4q-.1 0 0 0-.1 0 0 0l.3.3h.1-.1zm-.3-.1.2.1zq.2 0 0 0m-1.4 19.9-.1.2zq0 .2 0 0m-.1.3q0-.1 0 0 0-.1 0 0l-.3.3v.1h.1zm17.9-6.7.3-.3zm-.1.2.1-.2zm.1-11.5q.1-.1-.1-.1m-.1-.1.2.1zm-7-1.5s0 .1 0 0h.2zm-14 1.1h.2zq.1 0 0 0m-2 20.1-.1-.2zm11.3-4.9s-.1 0 0 0q-.1.1 0 0-.1.1 0 0m.1-.1-.1.2zm2.1-15.4-.2-.1zm-.1 0q-.1-.2 0 0-.1-.2 0 0-.1-.2 0 0m-14.8-1.1-.1-.2zm-2.3-.9-.1-.2zM232 70.2h-1v.1zm5.8 4.5q.2.1 0 0 .2.1 0 0 .2.1 0 0 .2.1 0 0m-.1 0 .2.1zm29.1.4L263 77l.4.6.2-.5.6.5.2-.8.5.3q.1-.8.8-.3c.2-.4.3-.9.8-.3l.3-.7.5.3.6-.8.3 1 .3-1.1.6.7c.4-.1-.1-.9.5-.8l.7.4.6-.9a6 6 0 0 0-4.1.5m4.3-4.6-.4-.3-.3-.4-.1-.4-.7.5c-.6.1-.1-.7-.5-.8l-.7.8.1-1.4-.8.9-.3-.7-.6.3-.2-.9-.2.1q-.3.7-.7-.2-.7.5-.8-.3h-.1l-.4.3-.2-.9q-.2.6-.7.6l.2.3 3.9 2c1 .7 2.1.5 3.5.5m-10.7 3.6 1 .8.2-.1-.7-1.1zm2.4-3.6q.2 0 0 0m-1 .8 1-.8-.4-.3q-.4.4-.6 1.1m-2.1.3h.4q.4-.4 0-1.3zm-.1 1.8.4 1.1c.2-.9.2-.9-.4-1.1m.8-2.3q1.1-.2 1.2-.9-.6 0-1.2.9m3-.3v.9l.9-1.1-.4-.1zm.2 2.9s-.1.2 0 .2l.5.7.2-.2-.4-.7zm-1.1.8-.6-.9q-.2 1 .6.9m0 0q0 .1 0 0 .2 0 0 0m.3-4-.2.9.8-.6q0-.5-.6-.3m-.2 3.1.2.9h.5q0-.4-.3-.7zm9.1-1.6c-.1-.6-.4-.4-.7-.3.1.5.5 0 .7.3m-5.1-.9-.6.4q.8.3.6-.4m-.6 2.4.6.5q.2-.6-.6-.5m2.9-2.3-.5.2q.3.5.5-.2m-.5.2q-.1 0 0 0-.1 0 0 0m.3 2-.3.3.5.3zm-.3.3s-.1 0 0 0q-.1 0 0 0m1.3-2.5-.4.2.1.4zm0 2.8.1-.2-.5-.3-.1.2zm1.3-.6h.8c-.3-.2-.6-.5-.8 0m-6-6-.1.4.3-.3zm-.1.4s0 .1 0 0q0 .2 0 0 0 .2 0 0 0 .2 0 0m.2 9.8-.2-.4zm-.2-.4q-.1 0 0 0m0-6.4-.3.4.2.1zm.5 2.6q-.5.5.1.6zm-2.3-5.7.3.2v-.5zm.3.2q.2 0 0 0m1.5 6.4v-.6q-.6.5 0 .6m-2.3 3.7s.1 0 0 0l.1-.5h-.2zm.1-10.5.1-.4h-.2zm4.8 6.5-.1-.6q-.5.5.1.6m.8-2.7v-.6q-.4.6 0 .6m-.2 2.6.2.2.1-.2v-.2h-.3zm2.3-2.5-.2-.2-.1.2.3.2zm0 .2q0 .2 0 0 0 .2 0 0 0 .2 0 0m-.2 2.3.2-.2v-.2l-.3.2zm.5-2.2h.3l-.2-.5zm.2 0q.2 0 0 0 .2 0 0 0m-3.6-.3.1-.2zq0-.1 0 0m.1-.3q.2 0 0 0 .2 0 0 0m.2-.2-.1.2zm.1 3.2-.2-.1zm.2-.5.2.1-.1-.2zm.1.1q.2 0 0 0m2.6-1.8.1-.2h-.2zm0 1.5q.2 0 0 0 .2 0 0 0 .2 0 0 0 .2 0 0 0m-.2 0h.2l-.1-.2zm.4.3.2-.2h-.3zm.1-.3q.2 0 0 0 .2 0 0 0m-9.1-3.4-.1.2.2-.1zm.8 4.8.2-.2h-.2zm.2-.2s0-.1 0 0q0-.1 0 0m.7-7.5-.1.2.2-.1zm0 .2q-.1 0 0 0m.1 10.5-.2-.1zm-.2 0s0-.1 0 0q0-.1 0 0m1.6-7.2-.1.2.2-.1zm.1 3.8-.2-.1zm.1-3.1s.1 0 0 0l.2-.2zm.3-.3.3-.2zm0 3 .2.3zm.3-3.4-.1.2.2-.1zm.1 3.8-.2-.1zm.8-3.5-.1.2.2-.1zm.1 3.2-.2-.1zm-50.4 4.7.3-.3zm-.1.2.1-.2zm-.9-13.1.2.1zm.2.1.3.3zm-73.3 8q-.1 0 0 0m.3-.3-.3.2h.4zm-2.5-.1.1-.2zq-.1 0 0 0M281 72.3c-.6 0-1.3.2-1.8-.3h-.3l-3 .6.4.2 2 .3h.7c1.3-.5 2.7-.2 4-.3q.6.1 1.1-.5zm-3.9 1.4v.9l.6-.6v-.6zm0-3.2v.9l.5.3v-.6zm-.5 3.7.5-.5v-.4c-.6.3-.6.3-.5.9m.4-.5q.2 0 0 0m0-2.3s.1 0 0 0q.2 0 0 0m-.4.2q.4.3.4-.2l-.6-.6zm-.6 2.3h.1v-.8h-.1zm1.6-3.9q0-.1 0 0m0 0h-.8q.5.5.8 0m-1.4 1.2h-.2v.6h.1zm-1.7.7.2.2.1-.2-.3-.2q-.2.2 0 .2m1 0 .1-.5h-.2zm-.1 1.3-.1.4h.2zm2 1.7-.2.1.2.2h.2zm-2.9-1.9q.1.1.2 0zq0-.1 0 0m.5 1.6.2-.1-.2-.2zM273.3 56l-.2.1.2.8h.6zm-.7 33.2-.2-.1zm-63.9-20q-.1 0 0 0-.1 0 0 0-.1 0 0 0-.1 0 0 0m.1.1-.2-.1zm-53.6 9.4q.2-.1 0 0 0-.1 0 0 0-.1 0 0m0 0h-.8q.5.5.8 0m-1-12.9.4.1q-.1-.2-.4-.1 0-.1 0 0m.4 0q0 .1 0 0l.2.1zq0 .1 0 0M264 61.6l-.1-.2-.1.2.1.2zm.4.3-.1.2.2-.1zm-.7 21.5s.1 0 0 0l.1.1zq.2 0 0 0m15.3-6.8q.2.2 0 0 .2 0 0 0m.3.5-.2-.4v.4zm-10-11.9.2.1-.1-.2zm9.9 2.8v.4l.2-.4zm-.1.4q0 .2 0 0 0 .2 0 0 0 .2 0 0M238.9 134l.5-.5h-6.8v.3l.3.2q2.9.2 6 0m-30.6-14.4-.3.3q-.2 3 0 6c.5-.8.6-4.3.3-6.3m-11.3 9.2-.1 4.3.2.3h.3v-4.9zm5.4 2.9v5.5q.9-.7.4-1.6-.2-1 0-2.1c.1-.5.4-1.3-.4-1.8m34.4-15.5-.5-.3-1.3.1-1.2-.1-1.3.1-.1.3q2.3.2 4.4-.1M206.7 140q1-2.2 0-4.5zm-8.2-4.4q.7-2.3.1-4.5a10 10 0 0 0-.1 4.5m11.2 3.9-.1-1.8-.1-.7h-.1v6l.4-.6-.2-1.2zm38.9-23.1c-1.7-.7-2.5-.8-3.3-.3v.1zm-5.7 17.7q.3 0 .7-.5-1.9 0-3.3.2a8 8 0 0 0 2.6.3m.6-18a5 5 0 0 0-3.4.2c1.2 0 2.3.2 3.4-.2m-30.9 25.2c1.2-.1 2.4.1 3.6-.3h-3.3c-.8 0-.8-.1-1.4.2l.9.6zm.7-15.7h5.3l.2-.1c-1.6-.3-4.5-.3-5.5.1m-.2 8.3c-.6-.8-1.5-.2-2-.6v-.7l-.3.2v1.3zm18.2 0c-.9-.7-1.9-.3-2.8-.3.8.7 1.8.4 2.8.3m-27-8q.6-1 .2-2.4c-1.1.8-.2 1.6-.2 2.4m27.1-1.9c-1 0-1.9-.2-2.7.3.9 0 1.8.5 2.7-.3m-25.8 15.1q.8-1.4 0-3.3zm23.7 3.6h4.5c-1.6-.3-3.6-.3-4.5 0m-31-14.7v2.6c.7-.4.5-1 .5-1.4 0-.5.2-1-.5-1.2m8.5-5.5q-.2 1.3 0 2.9c.3-1.1.8-2 0-2.9m42.4 11.5q-1.3-.6-2.8-.3c.7.5 1.1.5 2.8.3m-23.9-17.7h1.7l-1.4-.5h-2l.6.5q.5-.2 1.1 0m34.8 8a2 2 0 0 0 1.7.1c-1.1-.6-2.3-.4-3.4-.3.5.5 1.1 0 1.7.2m-52 2.5q-.5 1.3.2 2.5c.1-.9.3-1.7-.2-2.5m28.7-1.1q.1 0 0 0 .1 0 0 0m-2.3 0h2.4v-.6c-.9.2-1.7-.3-2.4.6M208.3 139h-.2l-.2 3.9.4-1.2zm49.3-22.6h1.2c-1-.1-2-1.1-3 0q.4-.2.9-.2zm-50.4 15.3v-1.8l-.5-.3q-.1 1.2.1 2.1zm-.4.8v2.1h.3q.3-.8.1-1.7zm3.7-16.3q-.4-.6-1-.3-.8.5-1.2-.4c-.7.2 0 .6-.1 1 .8-.5 1.6.1 2.3-.3m1.7 26.5h3.9v-.2h-3.9zm3.2-18.4c-.8-.1-1.5-.7-2.6-.1 1.3.3 1.5.3 2.6.1m-8.2 4.5v-2.3l-.5.6c.1.5-.3 1.2.5 1.7m56 13.8H260l-.4.2h3.9zm-14.7-18.5v.3h2.1q-1.1-.7-2.1-.3m-43.8-1.2v-2.6l-.4-.5.2 3zm12.4 10.6H215c.9.7 1.2.7 2.1 0m21.7 9.1h-3.4v.2h3.4zm-26.5-10.2v.2h2.8l.2-.3zm3-.1q.1 0 0 0 .1 0 0 0 .1 0 0 0m-9.5-15.6h-.1v3.1h.1zm18.8 17.2c-.6-.4-.6-.4-1.7-.3.5.7 1.1.4 1.7.3m-17.7-17.7q-.3.9-.1 1.8c.6-.8.6-.8.1-1.8m2.7 14.5q.1-1.7-.1-3c-.3 1.3-.3 1.8.1 3m.1 5.6c-.5-.7.3-1.5-.3-2.5 0 1-.3 1.8.3 2.5m12 4.8h-2.8q1.3.4 2.8 0m-14.9-19.6c.3-.5.8-1.1.1-1.8q-.3.9-.1 1.8m1.6 13.6c-.1-.7.3-1.4-.4-2-.3.4 0 .7.1 1 0 .4-.4.8.3 1m-11.2-13.8c.2-.8.2-.8 0-1.5h-.4c.2.5-.2 1.1.4 1.5m-.3-1.5s-.1 0 0 0q-.2 0 0 0m29.7 4.6c-1.1-.6-1.1-.6-1.7-.1q1 .3 1.7.1m-17.2 0c.8-.9.3-1.4 0-2zm5.4-8.3v-.3h-1.1l-.5.4q1 .3 1.6-.1m4.9 17.8h1.4q-.8-.9-1.4 0m1.3-8.3h2.5q-1.3-.5-2.5 0m-17.2 5.8.4-.2.2.7h.1v-1.5c0 .4-.8.3-.7 1m-1-.1c.1-.7.3-1.2-.5-1.6v1.2q.2 0 .5.4m-4.1-11.6.4-1.1-.8-.2c0 .5-.2 1 .4 1.3m-.2 2.2c.4-.8.4-.8-.2-1.8q-.1 1.1.2 1.8m47.8 20.6q-1.5 0-2.9.2c1.6.2 1.8.2 2.9-.2m-22.6-25.1c-1.4-.3-1.5-.3-2.7.1q1.4.1 2.7-.1m9.8 8h-2.3c1.1.3 1.2.3 2.3 0m-5.5 8.2c-.7-.1-1.2-.3-1.6.3l1.1.1q.3 0 .5-.4m-23.4-6-.7.7-.1.5.9.1zm3.8-10.7c-.2.8-.8 1.2 0 1.9zm-8.6 8.3q.4-1.1 0-2.2zm-2.4 2.7c-.1-.6.2-1.1-.6-1.5.1.6-.1 1.1.6 1.5m21.4-3.9-1.6-.1c.7.3 1.1.8 1.6.1m1-8q-.6-.3-1.2-.1c.4.5.4.5 1.2.1m25.3.2c-.8-.4-.8-.4-1.2.1q.4.3 1.2-.1m1.3 7.9q-.6-.3-1.2.3h1.3zm4.2-7.7 1.1-.1c-.4-.5-.4-.5-1.1.1m-35.7 1h1.9q-.9-.4-1.9 0m-6.9 19.9v1.3h.3q.3-.6-.3-1.3m21.5-11.9h-1.8q.9.4 1.8 0m-9.8-8.1h-1.9v.2h1.8zm24.6 6.7h-1.8q.9.5 1.8 0m-15-7.8h-1.6v.1zm-17.6 8 .6.3.2-.5-.5-.2zm-5.9-2.9q-.4.8 0 1.6zm-4.6-.7v1.7c.1-.5.5-1 0-1.7m-2.6 7 .3-.7-.2-.4-.3.4q-.1.1.2.7m42.7 7.2-.5.2.2.3.7-.1.5-.2-.2-.3zm11.7-10.3.6-.1-.1-.3-.8.1zm-47.2 6.3v-1.3h-.2v1.3zm42 11.9v-.2h-1.3v.2zm-22.2-17.3h-1.4c.6.2.6.2 1.4 0m-24.2 4.5.1-.1-.1-.7-.4.1zq-.1 0 0 0m8-5.3v1.5q.4-.6 0-1.5m15.7 17.9h-1.2v.1h1.3zm20.7-8.5-.1-.2-.6-.2-.1.2.6.2zm1.9-9.7.1-.2-.1-.1-.6.2v.2zm-14.1 0h-1.3q.6.3 1.3 0m-14.3 18.2H218v.2h1.3zm-13.5-17.7h-.2v1.3h.2zm3.6-3.6v-1h-.1zm29.8 14h1v-.2h-1zm-39.4-8.2.1-.5-.1-.5h-.1zm7.2-8.3-.2.3.2.2q.2 0 .3-.3zm-1.2 17-.1-1.6q-.4.8.1 1.6m7.3-19.6-.7-.3-.1.2.7.4zm-14.5 7.2-.3.2.2.3.4-.2zm18.7 19.4v-.2l-.7.1v.1zm-1.6-26.6q0-.1 0 0m.8 0h-.8q.3.5.8 0m.3 8.1h-.6v.2zq0 .2 0 0m1.9 9.2-.1.3.4.2zm3.8 9.1h-.8v.1h.8zm-23.7-17.7-.5-.4q-.1.8.5.4m59.7 17.8h-.8v.1h.8zm-1.7-18.4-.2-.2-.3.4.1.1zm-2.2-7.9-.6-.5q0 .8.6.5m-1.3 26.4v-.2l-.7.1v.2zm-1.4-18.6-.5.3.4.1zm-50.5 2.4-.1-.2-.4.3.2.2q.3-.1.3-.3m1.2-2.5v-.6h-.3l.1.6zm3.2 2.6h-.2v.7h.2zm0 2.2v-.7h-.2zq-.1 0 0 0m0 3.1.1-.7h-.3zq-.2 0 0 0m49 10.9v-.2h-.8v.2zm-46.7-6.3.1.4h.2l-.1-1zm0-4.9.5-.6-.5.2q-.3.3 0 .4m1.4-4.3v-.7h-.2l-.1.7zm2.3 15.4v-.2l-.6.1v.1zm-16.4-20.1v-.4l-.2.4zm1.7 1.6.1.2.2-.2-.2-.2zm1.2 12.3.2.1.2-.1-.2-.1q-.1-.1-.2.1m59 6.1-.4-.1v.2q.2.1.4-.1m-1.6-18.3-.1-.3-.2.2.1.2zm-46.2 9.1.2-.1-.2-.2-.2.1zm1.9-1.1-.3.3.4-.1zm-.3.2s-.1.1 0 0q-.1.2 0 0-.1.2 0 0 0 .2 0 0m-2.8-2.1-.2-.1-.2.1.2.1zm1.2-12-.1.2.1.2.1-.2zm-9.5 1.5q-.1 0 0 0l-.2.4h.2zm-.1 1.1-.1.4h.2zm19.7 4.4-.4-.1v.2q.3.1.4-.1.1 0 0 0m0-1 .1-.2-.2-.1-.1.2zm-19.7 3.7.1-.5h-.2zm20.1 14.6h.4v-.1l-.4-.1zm.9-.2v.2l.4-.1v-.1zm-15.1-9.6h-.2v.4h.1zm42.8 9.7-.5-.1v.2zm1.3-26.2v-.2h-.4v.1zm-27.5-.3-.1-.2-.2.2.1.2zm28 17.5s-.1 0 0 0l-.1.4h.2zm-27 9-.2-.1-.2.1.2.1zm.1-18.4-.1-.2-.2.1.1.3zm28.4 18.6v-.2h-.5v.1zm1.5-26.6-.1-.2-.1.2.1.3zm1.4 7.8v.5h.1zm-49-3.8s-.1 0 0 0l-.2.4h.2zm26.4-4.3h-.5v.1zm26.9 26.8q0-.2 0 0l-.1.1zm-6.6-26.4q-.1-.2-.2 0zq-.2 0 0 0m-11.1 8q-.1 0 0 0v.2zm-1.9-8q-.1-.1 0 0h-.2zq-.1 0 0 0m-1 0v-.2zq-.1 0 0 0m-.9 0s.1 0 0 0v-.2q-.1.1 0 .2m.1 8.1q0-.1 0 0h-.2zm-26.2-8.3v.2zm.3 18.6-.1.1.1.1.1-.1zm-22.6.5-.2-.1zq0 .2 0 0m2.5-11.6-.1.2zq.1 0 0 0m.4 11.4-.2-.1zm-.2-.1s0-.1 0 0q0-.1 0 0 0-.2 0 0m5.1-12.1-.1.1.2.1zm16.9 11.1q0-.2 0 0l-.1.1zm-16.8-8.2q0 .1 0 0h.2zm.1-2.7q-.1-.1 0 0-.1 0 0 0m.1.1-.2-.1zm4.1 5.2h-.2l.1.1zm1.2-7.5s0-.1 0 0h-.2zm13-5-.1.1.2.1zm-13 4.1-.1.1.1.1zm0-1.7-.1-.2-.1.1q.1.2.2.1 0 .1 0 0m1.5 4.6q-.1 0 0 0h-.2q0 .1.2 0-.1.2 0 0m.2 4.1v.2zm17.2-10.7q-.1 0 0 0h-.2q0 .1.2 0-.1 0 0 0m-17 13.2v.2zq.2.2 0 0m18.1-5.3q0-.1 0 0h-.2zm.5-8v.2s.1-.1 0-.2q0 .1 0 0m4.4 8.2h-.2q.1.1.2 0 0 .2 0 0m-21.8-.7-.1.1zq0 .3 0 0 0 .1 0 0m-104.3 2.7h-.5v.1zM89 131.4q-.1 0 0 .1zm.1-.2-.1.2zm-15.4-1.5-.1.2zm-15.6-2.8q2.9-.8 5.3-2.5l-.6-.7-.2-.1.2.8-.2.1-.5-.6-.2 1.1-.7-.5-.2.9-.7-.9-.2 1.2-.7-.9-.2 1.3-.7-1-.2 1.3-.6-1-.4 1.3-.8-1-.2.1.2.7-.8.2a4 4 0 0 0 2.4.2m-1.5 3.9-.7.3.8.5v.1l.8-.3.2 1.2.7-1.1.2 1.3.6-1.1.3 1.1.7-.6.2 1 .7-.6.2.9.7-.6.2.9q.2-.7.7-.6-1.2-1-2.8-1.7a5 5 0 0 0-3.5-.7m9.7-3.3q-.1-.8-.8-1-.4-.3-.6.2c.7-.1.8.7 1.4.8m.3-.8.4 1.4q.5-.8-.4-1.4m-1.1 4.4q.8 0 .9-.8c-.8-.1-.7.5-.9.8m-9-1.2-.7-.5-.1.2.4.6q.2-.3.4-.3m8.7-2.5-.3-.7h-.7l.9.8zm1.6 3.3q.7-.4.2-1.2c0 .5-.5.8-.2 1.2m-8.3-.5v-.8l-.6 1.1zm5-6.8v1h.5zm-1.6 7.2.2.2.4-.7-.2-.1zm.9 0 .2.1.5-.6-.2-.2zm1 .1q.7 0 .4-1.1zm-.3 2.7q-.2 0 0 0-.2 0 0 0-.2 0 0 0m.2.4.3-.4h-.6v.8q.3-.2.3-.4m-3.5-3.5.3.1.3-.7-.2-.1zm3.2-3.3h-.5l.5 1.1zm-1.8 2.9-.5.7q.8 0 .5-.7m1.1-2.4-.7-.5q-.2.5.7.5m2.4 2.6-.5.7q.6.1.5-.7m-1.7 3.3q-.1-.4-.5-.3v.5zm-.5-.3s-.1 0 0 0q-.2 0 0 0m1.7 1.1q0 .2 0 0 0 .2 0 0m-.6.3.6-.3-.4-.3zm-3.1-6.7-.7-.5q-.1.5.7.5m-1.4 2.7.4-.4-.1-.1-.4.4zm-.9-2.9q-.2 0 0 0-.2 0 0 0-.2 0 0 0m.3-.3-.4.3.6.3zm-2.4.5s0 .1 0 0q0 .2 0 0m.1-.6v.7l.6-.1zm1 .1h-.2v.4h.1zm-.1 2.8.2-.2-.1-.2-.2.2zm-.8 2v-.4l-.2.3zm-2.2-5.6h-.6q.1.3.6 0m6.9.8v.5q.6-.4 0-.5m3.7 4 .4-.3-.5.1zm-2.3 2.8v-.4l-.2.3zm0-.4s.1 0 0 0q.2 0 0 .1m-4.6-6.1q0-.1 0 0m.3.5.1-.5h-.3l.1.5zm3.3-1.2.2.1zm-.6.3.2.1zm-1 0q.1.1 0 0 .1.1 0 0m-.1 0 .2.1q-.1-.2-.2-.1 0-.2 0 0m-.2.5-.2-.1.1.2zm-.2-.1s0-.1 0 0m-.3-.2.2.2q0-.2-.2-.2.1 0 0 0m-.6 2.7q0 .2 0 0 0 .2 0 0 0 .2 0 0 0 .2 0 0m.1-.2-.1.2zm-.1.3h-.2l.2.2zm-.2 0s-.1 0 0 0q-.2 0 0 0-.2 0 0 0-.2 0 0 0m-.6-2.7.2.1zm-1.3 2.6-.3-.2q.3 0 .3.2m-.2-2.2h-.3l.1.2zm-.6-.1s0 .1 0 0q0 .2 0 0m.2-.2-.2.2h.3zm-.3.5.1-.2-.2.1zm-.7.2q.1 0 0 0l-.1-.1q.2.2 0 .2m0 1.1.2.1v-.1zm9.3-5.7.2-.2h-.2zm.1.9.1-.2zm0 6.4.1-.2zq0-.1 0 0m-.4-7.6.2.1zq.1 0 0 0m0 4.1-.1-.2-.1-.1.1.1zm-.2-.3-.2-.2zm-.2-.4-.2.2h.2zm-.2.2q-.2 0 0 0m.2 3.8s.1 0 0 0q0-.1 0 0m-.1.2.1-.2-.2.1zm-.8-4.2.1.2zm47.3 8.2q0-.1 0 0 0-.1 0 0 0-.1 0 0m1.1.8-1-.8q-.2.7 1 .8m.5-13.5-.1.2zm-.1.2s0-.1 0 0q0-.1 0 0l-.3.3zm75.1 5.6s0 .1 0 0q0 .2 0 0 0 .2 0 0 0 .2 0 0m.4-.2-.4.3.5-.1zm-2.6 0 .4-.3-.4.1zm-137.1 1.2q1 .2 2.1.1l2-.4c-1.9-.3-3.4-.9-5.1-.2q-1.3.3-2.7.1l-1 .1q1.2.3 2.4.2c1.2-.1 1.6-.1 2.3.1m2.4.8-.5-.2v.5l.5.6zm-.6.3q0-.1 0 0 0-.1 0 0m.6-2.4v-.9l-.5.6q.1.5.5.3m-.5-.3q-.2 0 0 0-.2 0 0 0-.2 0 0 0m.5.3q.2.6.5.1l.3-.3.1.1v-.1q0-.5-.5-.2zm2-.1-.6.3.3.1zm-2 2.2s0-.1 0 0m.4-.3-.3.3.5.3zm-7.4 0H42v.3h.8zm9.6-1v-.4h-.2v.4zm-.3.6.3.3-.1-.4zm.3.3q0 .2 0 0m-1 .3.4.1v-.2q-.3-.1-.4.1m-.3-2-.3-.3.1.4zm-.3 1.7.1.2.1-.2-.1-.2zm-1.4-3.6s-.1 0 0 0q-.1 0 0 0m.6 0h-.6q0 .5.6 0m-4.9 1.7q-.1 0 0 0-.1 0 0 0-.1 0 0 0-.1 0 0 0m.4.1H45l.3.2zm5.2 2.4-.2-.1zm-.2-.1q0-.1 0 0 0-.1 0 0m-8.5-1.9.1-.2-.2.1zm-.1 1.1.2.1zm.2.1s0 .1 0 0q0 .1 0 0m11.4 15.6.4.1v-.2zm-.3-.4.3-.3-.4.1zm.4-.3q.2 0 0 0m-3.3-1.3.2.1zm.1.1q.2 0 0 0 .2 0 0 0m2.6-30 .7.1.2-1.1zm.7.2q0-.2 0 0 0-.2 0 0m-3.2.9s0-.1 0 0q0-.2 0 0 0-.1 0 0 0-.2 0 0m0 .4v-.4l-.2.4zm3.9-2.7h.2zm116 10.7-.1.2zm1.9 13s-.1-.1 0 0q-.1 0 0 0m.5 0h-.5q.1.5.5 0m-2.8-.3q-.1 0 0 0m.2.1-.2-.1zq-.2 0 0 0m-106.9 3.7q-.2 0 0 0-.2 0 0 0m.1.1-.2-.1.1.2zm-.3.5-.1.1zm.2-21.3s0 .1 0 0q0 .1 0 0 0 .1 0 0 0 .1 0 0m0-.4v.5l.2-.3zm.5 1.1s.1 0 0 0q.1 0 0 0 .1 0 0 0m0 .2.1-.2-.2.1zm-.6-1.4q.1 0 0 0 .1 0 0 0 .1 0 0 0 .1 0 0 0m-.1-.1.2.1zm-.4.5.2.1zq.2 0 0 0m.3.1q0 .1 0 0 0 .1 0 0 0 .1 0 0m-14.5 13.7q-.7.2-.5.9l.5-.3zm149.9 48.7-2.3 1.8h-3l1.7-1.2.3-.6-.2-.1-3 2.3-1 1.2q-.6.4-.7 1.5l1.6-1.5q1.5-1.7 3.6-.8c-.2.5-.9.7-.8 1.3h.4l2.2-1.8 1.5-1.7zm36.7 4.8q-.1 0 0 0 0 .1 0 0m2.3-1.8a3 3 0 0 1 1.5-.7q.6 0 1.5.3l-.8 1.3q2-.7 4.2-3.7-1.6.7-2.4 1.7h-3.1c1.9-1.5 1.9-1.5 1.9-2.1l-3 2.5-1.7 1.9-.3.7q1.2-.9 2.2-1.9m-6.6-8.3.9-.3v-.2l-1.6-.3h-6.7q-.8-.2-1.2.9zm-21-.4 1-.5h-10.9l-.7.4zm50.5 3.2v.4h.8c1.4.1 2.9-.1 4.3.3q.9.2 1.9.1.4 0 1-.5l-3.8-.5c-1.6-.3-2.1-.1-3.1-.2zm-62.6-2.1.5.1h9.8l.7-.1.3-.5c-1.2.4-2.2.1-3.3 0q-3.6-.2-7.2 0l-.9.3zm33.2.2-.9.5h3.2l2.8.2h3q1.4.2 2.7-.1v-.3l-1.1-.1-7.9-.1h-1.2zm-32.3 8q-.1 0 0 0-.1 0 0 0-.1 0 0 0m2.6-1.4q.3-.1 0-.5l2.6-2.5-.6-.5-4.2 4q-.5.3-.5.9l.5-.1q.9-1.1 2.2-1.3m15.7-7.8 2.6.2q1 .5 2.2-.8h-8.3q-.2 0-.8.6zM249 180c-.3-.1-.4-.6-.7-.2l-.8.6-2.7 2.4q-.7.7-1 1.6c.8-.4 1.3-1.4 2.5-1.2.3-1.4 1.7-2 2.7-3.2m26.5-.3q.2 0 0 0 .2 0 0 0 .2 0 0 0 .2 0 0 0m-3.2 2.5q-.7.8-1.7.6l.3.7-1.5 1.4q-.4.4-.2.9 1.4-.6 2.1-2 .1-.4.6-.7 1.5-1 2.8-2.2l1.2.2-.7-.8.4-.6-.6.2zM183 176c-.3.4-1.2 0-1.3.7l5-.2h1.1l.9-.5-.3-.2c-1.8-.4-3.6.2-5.4.2m42.3 6.8.7.4-1.7 1.6q-.5.3-.4.8.7 0 1-.6c.5-.6 1.3-.9 1.3-1.8l1.9-1.4 1.8-1.6.2-.6-1.7 1.3c-.9.7-1.6 1.9-3.1 1.9m45.6-3.1c-.6.9-1.5 1.3-2 2.3q.6 0 .8-.3l1-1.2q.7-1 1.9-.4.4.3 1-.4l-2.6-.7-2-.3-.8.5zm-90.5 2.9-.2.2.4.3-2.5 2.8c1.1-.5 2.7-1.7 2.8-2.4q.2-.6.7-.8a8 8 0 0 0 3.3-3.3l-3.3 2.7q-.4.6-1.2.5m3.2-7q1-.3 2.1-.2h3q.7.1 1-.4c-2.9-.4-5.8-.2-6.7.6zm63.1 2.1q1 .4 1.7-.7h-5q-.7-.1-1.2.6h2.2q1.2-.2 2.3.1m-23.6-1.1c1.8.1 3.6-.2 5.4.3q.6.2.9-.5c-3 .1-6-.6-8.9.3zm-10.3 5.6q.9-1 1.9-1.8.6-.4.1-.9l-3.3 3.1-.3.7 1.5-.3zm-1.6 1s0 .1 0 0q0 .1 0 0 0 .1 0 0 0 .1 0 0m45 .1 1.6-.3v-.6l2.1-2.1.3-.5q-2.4 1.3-4 3.5m-50.8-2.2-1.7 1.5-1.5.1.8 1 1.6-.7q.7-.5 1.2-1.3v-.2zm44.3-5.1c-1.5-.7-3.1-.4-4.7-.5l-.7.1-.1.4zm-12-.7-4-.4-1.5.2c3.1.8 3.8.8 5.5.2m12.4 6.4q-1 1.2-2.6 1.1l-.3.2.8.2.1.6c.8 0 1.1-.7 1.8-.8q.6-.3 1-1.1.1-.1-.1-.8zm-33-5.4c.8 0 1.7.6 2.5 0a28 28 0 0 0-8.2 0zm42.7 1.6-2.7-.3q-.7-.2-1 .7c2.7.3 2.7.3 3.7-.4m-61.7-2.9v-.2h-2.6l-2.5-.2-1.8.2-.5.1v.1zm-15.8 0-3.7.4q-.4.1-.9.5c1.6-.1 3.2.1 4.7-.6zm66.8 2.3-.6.5h4l.6-.5zm4.9-.9q.2 0 .6-.4-3.3-.6-4.3.4zm-34.7 6.2h.7l1.4-1.6 1-1.4a10 10 0 0 0-3.1 3m45.3.2h.6l1.3-1.5q.6-.6.7-1.4-2.1 1.6-2.6 2.9m-87.9-5.4q1.7 0 3.2-.3c.3-.1 1-.1 1-.7l-3.2.5q-.7-.2-1 .5m-2.2 4.4-.1.6.5.1q.7-1 1.5-1.8.7-.3.4-1.1zm87.6-5.2a6 6 0 0 0-3.5-.3l-.1.4c1.1-.1 2.2.2 3.6-.1m-89.4 2.1q1.5-.1 2.9-1.3c-1.4.1-2.1.4-2.9 1.3m51.6 3.1c.6-.7 1.5-1.3 1.8-2.3-.7.7-1.7 1.1-2.3 2.1zm-31.4 4.1c.7.3 1.5.1 1.4-.3s.2-.7.1-1c-.8 0-1 .9-1.8.9zm-12-6.5q-1 .7-1.7 1.5l-.4.7q1.5-.8 2.6-2.1zm15.8-3.3.3-.4-4.1.4 3.2.2zm42.6 10v-1.3l-1.7 1c.5.7 1.1.4 1.7.3m13.8-8.1c1.8.2 1.8.2 2.4-.4l-1.7-.2zm9.3 3.4 1.4-.9.2-.7c-.8.5-1.5.6-1.6 1.6m-88.6-1.9c-.8.6-1.6.7-1.6 1.7l1.4-1zm18.6-.2q-1.1.9-1.4 1.9 1.2-.4 1.4-1.9m24.8 1.9c.4-.5 1.4-.4 1.6-1.3q-1.3.3-1.6 1.3m19.2.1 1.2-1.3q-1.3.1-1.2 1.3m-21.3 2.3c.3-.5 1-.7 1-1.4q-1 .3-1 1.4m1-1.4s0-.1 0 0q.2-.2 0 0 0-.2 0 0 0-.2 0 0m41.4-6q-1.2-.2-2.5.1 1.3.3 2.5-.1m2.7 7.7c.2-.7.9-.9.8-1.7-1 .9-1 .9-.8 1.7m-83.4-8c-.4.4-1.2.1-1.6 1l1.8-.7zm-6 6.2c-.4.4-1.1.6-1 1.4.5-.5 1-.7 1-1.4m11.6 6.1h-1.8q.9.4 1.8 0m79.5 3h1.2c-.3-.7-.4-.7-1.2 0m-34.2-2.9h-1.9q.7.4 1.9 0m-10.7 2.5.5.5.3-.5-.4-.2zm-45.2.2h1.1c-.5-.7-.6-.6-1.1 0m99.2-2.4h1.6v-.2H271zm-10.2 2.4v.2l.7-.1-.1-.4zm-44-.1-1-.3c.2.5.2.5 1 .3m-.9-.3q-.2-.2 0 0-.2-.2 0 0-.2-.2 0 0-.2 0 0 0m7.3-2.3h.9l.1-.2-.5-.1zm-45.1-.1h1v-.1zm38.4-6.6-.3.2v.4h.4l.2-.3zm53.5 7 .3-.3v-.2h-.2l-.3.3zm-1.6 0h1v-.1h-1zm-54-5-.3.2.2.4.3-.4zm-43.8 7.4.9-.1q-.4-.8-.9.1m90.8-9 .3.2.3-.3-.4-.2zm12.4 1.1v-.2l-.7.1v.2zm-3.4 4.9q-.1 0 0 0-.2 0 0 0-.1.1 0 0m0 0 .6-.4q-.9-.2-.6.4m-2.1-5.2-.2.3.1.2.4-.3zm-.5 4.1.1.3.3-.1-.3-.4zm-1.9 2q.9 0 .5-.6zm-44.6 0 .3-.5q-.7-.4-.3.5m1.2-2 .1.2.5-.2v-.2zm.3-3.7q0 .1 0 0 0 .1 0 0 0 .1 0 0 0 .1 0 0m0 0 .6-.4q-.7-.1-.6.4m2.4 4.7q.7 0 .3-.6zm30.4-1.9h.8q-.3-.6-.8 0m-27.6-3.2h.7v-.2zm10.7 8.1v.2h.8v-.2zm-2.6-7.9h.9q-.3-.5-.9 0m-67.6 1.5-.4-.2-.1.2.5.2zm.8-1.1-.5.6q.8 0 .5-.6m6.4 5.3.5-.1.1-.3-.2-.2q0 .2-.4.6m1.9-1.8.2-.4-.5.3zm2.7.9.5-.6q-.8 0-.5.6m2.6-5.1v.2l.7-.1v-.1zm8.8.2q.2 0 0 0 .2 0 0 0 .2 0 0 0m-.7 0h.8q-.3-.5-.8 0m15.5 2.7h-.7q.2.5.7 0m3.9.2h.7v-.2h-.7zm60.7.1-.2-.1-.2.1.1.2zm-72.9-3.2v.2h.4v-.1zm68.5.3.3.1.2-.1-.2-.1zm-1.5-.2q-.1 0 0 0-.1 0 0 0-.1 0 0 0m.6 0h-.6q0 .6.6 0m-2.6 3.2h.4v-.1l-.4-.1zm-.3-.3h-.7q.1.6.7 0m-.6 0q-.1 0 0 0-.1 0 0 0-.1 0 0 0-.1 0 0 0m-2.9-1.5s.1 0 0 0l.2-.4h-.2zm-.8.4-.1.3.2.2zm-3.2-.5.3-.1-.2-.1zm-45.9-1.4-.3.1.1.2.2-.1q.2-.2 0-.2m1.3.9.3-.3-.4.1zm-32.9-.9v.4h.2zq.1 0 0 0m-1.4.1.4.1v-.2zm-.9-.1h-.6q0 .4.6 0m-.6-.1s-.1 0 0 0m-2 3.1.4-.1v-.1l-.4-.1zm-.3-.2h-.6q0 .6.6 0m-1.3-3.9q0-.2 0 0l-.2.2.2.2zm42 2.9-.2.2v.2l.3-.2zm-33.7 3.4-.1.4h.2zm38.5-2.2.2.2.2-.2-.2-.1zM233 180l.2.1.2-.1-.2-.1zm-12.8 3 .2-.1-.2-.2h-.2zm30.8 2.7s-.1 0 0 0q-.1 0 0 0-.1 0 0 0-.1 0 0 0m.6 0h-.6l.3.3zm-26.5 2.9v-.6q-.5 0 0 .6m0-.6q0-.2 0 0 0-.2 0 0m50.8-6.9s-.1 0 0 0q-.1 0 0 0m.2.1-.2-.1.1.2zm-7 4.7.1-.2-.2.1zm0-.1q.2 0 0 0 .2-.2 0 0 .2-.2 0 0 .2-.2 0 0m-1.9 1.8.2.1v-.1zm-11.2-4 .2-.3h-.1zm-1.5-.6s.1 0 0 0m-11-.2-.1.2.1.1q.2-.2 0-.3.2 0 0 0m-4.6 6.3.1-.2zq0-.2 0 0m-62.3-11.5.1-.2zq0-.2 0 0m.5 9.9.1-.1-.1-.1zm33.4-3.6h-.2q.2.2.2 0 0 .1 0 0m-32.5 1.7s-.1 0 0 0v.2zm2.6 0s-.1 0 0 0l.1.1zm1 .5s.1 0 0 0m-.1.2.1-.2zm6.7-6.5s.1 0 0-.1m29.2 5.8-.1.2.1.1zq.2 0 0 0m4.3-2.7s0 .1 0 0h.2zq0-.2 0 0m.3 4.7q.2 0 0 0l.1-.1-.1-.1zm1.3-1.8q0-.2 0 0h-.2zm.5 0 .1-.2zm.1-.2s.1 0 0 0q.2 0 0 0m2 .1s-.1 0 0 0h-.2q.1.2.2 0 0 .1 0 0m.8.7.1-.2zm.1-.2q.2 0 0 0m1.6 6.1.1-.2zq0-.1 0 0m.2-.3.3-.3zM99.2 179.2q0-.1 0 0H99zm-25.6 5.7-.1.2zm-.1.1q0 .1 0 0 0 .1 0 0m-15.1 1q-1.3-.5-2.6.3l.7.2-.2.8 1-1.1.2 1.3.7-1 .1 1.3.7-1 .2 1.3.8-.9.1 1.2.7-.9.2.9.7-.6.1 1.1.8-.7-1.1-.7q-1.4-1-3.1-1.5m-2.1-3.9h2q2.4-.6 4.4-2.2c-.6.1-.5-.5-.7-.9l-.2 1.2-.7-.5-.2 1-.7-.9-.2 1.3-.7-1-.2 1.3-.7-1-.1 1.3-.7-.9-.2 1.2-1-.9.3.7-.8.2q.1-.1.4.1m8.5 4.1.2.2q1 .1 1.1-1.1c-.5.3-.7 1-1.3.9m1.6-3.5q-.4-1-1.1-1.1-.4-.2-.5.2c.6 0 .8.8 1.6.9m-1.6-.9s0 .1 0 0q0 .1 0 0m1.8.3.4 1.2c.3-.6 0-1-.1-1.5zm.2-.2q0-.1 0 0m.1 2.8-.4 1.6q.9-.7.4-1.6m-3.6-5.2-.9-1 .3 1.3q.5.1.6-.3m-.6.3q.2 0 0 0m-6.9 5.2q-.1 0 0 0m1.1.1q-.5-.5-1.1-.1.4.8 1.1.1m8.2-2.6-.3-.7h-.7l.9.8zm-.3 3.7q-.1 0 0 0m-.7-.2.1.2h.5l.3-.8zm-1.3-.1h.5v-1.1zm-.9-3.7s0-.1 0 0m.7.6-.8-.7q0 .7.8.7m1.2 5.7h-.5v1.1zm-3.1-3.6-.3-.1-.3.7.2.1zm2.1-2.7q0-.1 0 0-.1-.1 0 0-.1-.1 0 0m.5-.1q0 .2 0 0m0 .1h-.5l.5 1.1zm-2.6.9-.4-.7-.2.2.5.6zm1.6 1.7-.4 1.1q.6-.1.4-1.1m1-6.3v1h.5zm0 10q-.1-.5-.5-.3v.5zm.8-9.6.4-.3-.6-.3zm-5.3 3.6-.4.3.6.3zm0 3 .1-.3-.3.1-.2.1q.1.3.4.1m-1.5 0 .2-.3-.1-.2-.1.2zm-.9-2.5h.5q-.4-.6-.5 0m-.6.2v-.2l-.3.2.1.2zm-.3 1.4.3.3-.1-.4zm5.8-2.2.1.6q.5-.5-.1-.6m0 3.2q.6-.1 0-.6zm1.4 3.8v-.5q-.4 0 0 .5m-4.6-6.5.2.2.1-.2v-.2h-.3zm.2 1.9-.2.2v.2h.3v-.2zm3.6-2.6-.2-.2zm-.1 3.7s.1 0 0 0q.2 0 0 0 .2 0 0 0m0 .2.1-.2q-.2.1-.1.2-.2 0 0 0m-.7-3.8.2.1-.1-.2zm.1 3.5.1-.2-.2.1zm-1.6-3.1.1.2.1-.1zm-.1 2.6.2-.1-.1-.1zm-.2-2.7.2.1zm.2.1s.1 0 0 0q.2 0 0 0m-.1 2.9.2-.3q-.2 0-.2.3m-1.5-3 .2.1zm.1 2.9.1-.2zm-.6-2.7-.2.1.1.1zm-1.1.2H56l.1.2zm-.3-.2-.2.2h.2zm-.9.6s0-.1 0 0m-.1 1.2s0 .1 0 0h.2zm9.2 4.8h.2l-.2-.2zm.2 0q.2 0 0 0 .2 0 0 0m-.4-6.7-.2-.1-.1-.1.1.1zm.1 2.6-.2.3-.1.1.1-.1q.2 0 .2-.3 0 .2 0 0m0 4.1q.2 0 0 0 .2 0 0 0 .2 0 0 0m0 .2.1-.2-.2.1zm-.3-7.3-.2-.2zm-.3-.4-.2.2h.2zm-.1.2q-.2 0 0 0m.2 3.8.2-.2zm-.1.2.1-.2h-.2zm-.9-4.2q0 .1 0 0l.1.2zm0 4.2.1-.2zm.1-.2q.1 0 0 0m48.9-8.5-.1.2zm-.4.5.3-.3v-.1h-.1zl-.3.3zm-.9 12.7q.2-.4-.3-.5 0 .4.3.5m0 .1q0-.2 0 0m.5 0h-.5q.1.4.5 0m82.7.2v.2h.7v-.3zm-146.3-6.7c.4.5.9.2 1.4.2l2.5-.3v-.2l-2.6-.4-.9-.2c-.7 1-1.7.3-2.5.4s-1.7 0-2.6 0q1.8.4 3.7.3zm2.8 1.4h.5l-.3-.7q-.3-.3-.5.1.4.2.3.6m-.6.1q.3.5.5-.1-.3-.2-.3-.6-.4-.2-.6.3zm.5-.1q.1 0 0 0 .1 0 0 0 .1 0 0 0m-.2-2.6.2-1.1-.8.8q0 .5.6.3m2.1-.3-.6.3.4.3zm-.3 2-.4.3.6.3zm-1.2-2-.5.3.3.3zm1.8.6-.1.4h.2zm.1 1.3v-.4H52zm-1-1.6q-.1 0 0 0m-.3 0s-.1 0 0 0q-.1 0 0 0-.1 0 0 0m0-.2-.1.2h.2zm0 2.4.1-.2h-.2zm.2-.2q.2 0 0 0m-.4-1.8.1-.2zm-.1 1.6.2.1zm.2.2s.1 0 0 0q.2 0 0 0m-.4-2.5-.1.2.2-.1zm-8.6.9.1-.2zm0-.1s.1 0 0 0q.2-.1 0 0m0 1.4s.1 0 0 0q.2 0 0 0m-.1-.1.2.1zm234.1 5.3s.1 0 0 0m0 0-.7.5q1 .1.7-.5M52.9 168.5h.6l.2-.9c-.5.1-.5.5-.8.9m-2.7 1.3.1-.2zm.1-.1q0-.1 0 0 0-.1 0 0m3.4 30.9-.3-1.1h-.6zm-3.7-2.4.2.1-.1-.2zm.2.1q0 .2 0 0m13.1-3.8-.2-.2v.5zm-.3-.1q0-.1 0 0 0-.1 0 0 0-.1 0 0 0-.1 0 0m.4-.8.2.1-.1-.2zm-.5 1.5.1-.2zm-.4-.5.1-.2zq0-.1 0 0m.5-21.5q0 .1 0 0 .1 0 0 0m-.2-.1.2.1-.1-.2z"/></svg>