<svg xmlns="http://www.w3.org/2000/svg" xml:space="preserve" viewBox="0 0 127.3 180.2"><path d="m122.6 175.9.1-.7-.1-.6z"/><path d="M122.8 170.3c-.1-1-.2-2.1-.3-1.5l.2 2.3c0 .8 0 1.5-.1 1.3l.1 1.8zc0-.4 0-.1 0 0"/><path d="M123 88.1v.5z"/><path d="M123.1 37.2v.6z"/><path d="M123.2 28.5v.5z"/><path d="M123 88.1v-1.4z"/><path d="M122.5 158.9v.7zq0 .2 0 0"/><path d="M123.1 110.5v.4l.1.3z"/><path d="M123.2 127.8q0-.5-.2-.7l.1.8z"/><path d="M122.9 155.1v.5z"/><path d="M123.2 98.2V98z"/><path d="M102.9 175.4q.2 0 0 0"/><path d="M122.8 175.9h-.3l-.1.1z"/><path d="M123.4 12.6c0 .5 0 .2 0 0"/><path d="M4.4 23.8c.1-1.7.1 2.7.2.2 0 .3-.2-2.2-.2-.2"/><path d="M122.5 158.5v-.7z"/><path d="M4.6 24v-.3z"/><path d="M94.6 3.7h.4z"/><path d="M121.9 3.9h-.7z"/><path d="M80.4 3.9h-1 .2q.2-.2.8 0"/><path d="M65.6 3.9h.8z"/><path d="m58 175.4.7.1c-.2 0 1.9-.1-.7-.1"/><path d="M122.6 158.9v-.4q-.1.3 0 .4-.1.2 0 0"/><path d="M79.8 4.8h-2.3z"/><path d="M5.3 123.2v.5z"/><path d="m70.5 4.8-1.3-.1h-.3z"/><path d="M74.1 175.3c-2.2 0-1 .1-1.5.2-2.7 0-1.2-.1-2.1-.2l-4.2.2q-.3 0-.1-.1c-1.8.1-5.2 0-7.3.2h-.3l.3.2h-2.2l1-.1h-1c-.9-.1 1.4 0 1.4-.2-2 0-4.4.2-6 .1-.3-.1 3.7 0 1.6-.2l2.4.1c-1.9-.2 1.5 0-.2-.2h-6.8c-.7.1.2.1-.5.2-4.5.1-3.6-.3-6.9-.2-.9.1-1.2.3-3.6.2l.8-.2c-3.1 0-1.8.2-5 .1l2-.1c-2.1-.1-1.5.1-3.1.1l-.3-.1-10.6.1-14.2-.2-1.7.3q-.8 0-.3-.1h-.3l-.1.1v-.5l.1.3c-.1-3-.2-8.7-.1-11.9v.6c0-2.5-.2-2.8-.1-5.1v.4c.1-5.4-.1-11.4.1-15.6-.2-.8.1-5.4-.2-5.7.1-3.1.2-2.2.2-6.6l-.2-3.2h.1l-.1-2 .1-1v-1.4l-.1 1.1v-3.4l.1-1.8-.1-5 .1 1.6v-2.9c0 .3-.1-.2-.1-.2v-6l.1.4v-12c0 1.5-.2 1.1-.2-.1l.1-.5c-.1-.8 0 1.3-.2-.3 0-1.6.2-1 .2-.2v-1.9l.1.4v-4.5l-.1-9.4-.2-2.4.1-8.3c-.1-2.1-.1-.6-.2-1.6.1-.2.1-3.2.2-1.6L4.9 56l-.1.8c0-.8 0-1.9.1-1.8v.2c-.2-5.1.3-11.8.1-15.9v.2l-.1-4.2c0-1.9.1 1.2.1-.3-.2-4.6 0-7.2-.1-10.9.3-2.9 0-10.3.2-14.2l-.1.2c-.1-1 0-1.2.1-2 .3.2.3 1.2.2.6V4.6l10.5.1 11 .1c3.2 0 1.8-.4 5.9-.2l-1.2.1 19.6-.1-1 .1h3l2-.1c1 0 .2.1.8.1H60h-.6c.9 0 4.1 0 3.2-.1h6.5c1.2-.1 4.1.1 4.5-.1-.2.2 4.2.1 5.7.1-.5.1 1.3.1.7.1 1.7 0 3.3 0 3-.1 3.2.2 6.4-.2 8.2.1l14.4-.2c-.2.2-5.1 0-4.9.2l11.2-.2c1.1 0-.6.1-1 .1h11.4v.2-.1h-.2.1s0 1 .1.8v-.7q0-.2.1 0v1l.1 2.1c-.2-1.3-.1 3.8-.4 1.8l.1 1q0 1.2-.1.2l.1 4.2-.1-.8c.1 1.3.2 2.5.1 4.6 0-.1-.1.1-.1-.5 0 3.6.2 6.1.1 10.1-.2-1.2-.1 1.3-.2 1.6v2.1l.1-.9.1 5.1-.1-1.4v3.5l.1-2c.1 1.9.2-.2.1 2.3l-.1 2.8.1 3.2c0 .4-.2-.3-.2-.1.1.9 0 4.4.2 5.5q0-.5-.1-.3l.1.8q0 1.2-.1.8c0 2.6.2-.8.1 2.3v-.6V62c-.2.8 0-2.5-.2-1.5 0 4.1.2 8.5.1 12.4v-.7c.2.5-.1 2.9 0 5l-.1-.5.1 9.7-.1-.5-.1 5.9c.1.5 0 1.5.1.9-.3 5.3.2 10.2-.1 14.9v-.9l.1 4 .1-1.4.1 2.6c-.1-1.8-.2 0-.2.8l.1.1c-.2 2.1.2.4.1 3.2v-.2l.1 3.2c-.1.5-.1-1.1-.1-1.2l.1 4.7-.1-2.4-.1 3v-.1l-.1 2.8v-.7c.3 2 .1 4.1.2 6.9-.2-2.7-.1-.4-.2-.6l-.1 1.5c.1 1.3-.1 2.2.1 4 0 .1 0 1.4-.1 1.1 0 1.7.1-.4.1-.3.1 2.6-.2 6.1 0 9.8l.3 6.8c-.1 1-.1-.8-.1-.8v4.4l-.1.5.1 2.4-.2-1.2.1 4.4c-.1.4-.1-.9-.1-1.4l.2 4.9v-1.1c0 .6-.1.3-.1-.1q-.1-2 .1-2.2v1.1c.2-1.1 0-4.3 0-6.4l.2.9-.1-2.2c0-.5.1-.8.2.3v-2.7.1l-.1-1.5c0 .3.1-.3.1.7V149v.2c-.1-3.8-.1-.4-.3-3.2l.3-1.9-.1-.4c0-.4 0-1.2.1-1-.1-1.4-.1.2-.1-.6.1-1.9-.1-5.1.1-5.6-.1-.7-.1 1.8-.1-.2.2-.6 0-2.3.1-4 .1.5.1 2.1.1.4-.2-1 0-3.3 0-4.8l-.1-5.5.1-6.8v.1l-.2-4.4.2 1.3V111l-.1-1.9.1.4-.1-7c-.1-.2-.3 2.2-.4-.7.1-.1.2-.2.2.5v-1.4l.1 1.1-.1-1.6.1-.6v1.2l.1-2.9-.1-.8c0-2.1.1-.7.1-2l-.1-1.9.1-1c-.1-1.1 0-5.1-.1-3.9v.3-11.2l-.1-6.2.1-1.2v-4.1c.1 1.6.1-.6.1 1.7V63c.1.8.1-1.6.1-2.6l-.1 1.5v-3.1l.1.5c.2-4.3-.3-7.8 0-11-.1-1.1-.1 2.3-.2 1.3l.2-4.7c.1-2.7-.2-2.5-.1-5.4 0 .4-.2.7-.2-1.4q.1-3 .2-1.2v.7c0 .6 0 1.5.1.7V38c0-1 0-3.7.1-3.1 0-1.5-.1-.6-.1.5v-6.6l-.1.4c.1-3.8-.1-1.7-.1-4.3.1-1.5.2.5.1-2.1 0-1.6.1-.3.2.3l.1-5.8v1.3-2l-.1.7.1-1.3c-.1-.8-.2.6-.2-.9 0-1-.1-3 .1-3.3 0 3.1.1-.3.1 2.3v-1.9.3c.1-3-.1-1.4-.1-4.4.1.4.1-.7.1-1.2 0 1.2-.1.6-.2-.5V3.8h-1.3 1.3v.3-.3h-2.8c-.1-.1 1.2 0 .8-.1h-5.6c-1 0-.1-.1-1-.2H109c.7.1.8.1-.9.2l4.1-.1-2.2.3h3.4c-1.3.1-1.1.1-.5.1h-5.3l.1-.2c-2.9-.1-5.2.1-9.1.1h1.2l-3.6.1c.1-.1-.7-.1-1.2-.2.1.1-2.8 0-3.2.2l-1.7-.1c-3.1-.2-3.6.1-6.5.1.9-.1-.5-.1 1.5-.2h-5.6c-.4.1-.5.2-1.6.2 0 0-1.7.1-.8.1-3.1-.2-8.5 0-11.2-.2l-6.7.1h.4c-2.7-.1-1.7.2-4.8.1-1.6-.1 1.6-.1.7-.1-.4-.3-3.7 0-5.8-.1h.5l-6.5.1-7.6.1q1.2-.1.6-.2c-1.1 0 .3.2-1.9.2l-2.5-.2h2.1-3.8l.1-.1c-3.2 0-3.3.2-6.7.2h.4c-1.9.2-1.6-.1-3.5 0l-.6-.2-6.6.2 5.5-.3-4.9.1h1.6l-6 .2-1.5-.1H4.5v2.2l-.1 1.3v13.8c.2-1.8 0 1.5.3 1.2v1.7l-.1 3.6c-.1.9-.1-1.1-.1-1 0 2.6-.1 1.1-.2 2.8.1-.4.1.9.1 2.4l.1-2.1c.1 3.6-.2 3.1-.1 6.8l-.1-1.2.1 8.7c0 4.5.2 10 .1 13.5l-.1-.3.1 2.5q0-.3-.1.1c-.1.4.1 2.2.1 3.3l-.1-.9c-.1 4.4.2 6.7.2 10.4-.2 0-.2 3.4-.3 5.2v-.1l.2 13.4c-.2 2.9-.1 9.9-.2 14.6 0-.7.1.1.2 1v2.9-.4c-.2.8-.1 3.1-.1 4.9l.2.3c-.3 4.6.1 12.2-.2 14.7l.1 3.6-.1-.1v8.5l-.1-.8c0 2.2.3 2.7.3 4.7l-.2.6V157l-.1-.8c0 1.8-.1 6.9.1 6.2-.2 0 0 3.9.1 5.9l-.1-.3c.1 1.7.2 1.8.2 4.2q0 .9-.1-.3v3.8l-.1-1v1.5l2-.1 4 .1 2.5-.1-.5.1h7.1l.4.1h-4.5c0 .1 2.1.1.4.3l6.6-.2h.3-.2 3l3.4.1c-.1-.1 1.3-.1 0-.2h-1.3.1-2.6 2.8l1.5-.2c1.4.2 4.2.2 4.6.3 3.2-.1 7.5 0 9.5-.3l1.4.1h-1.4c1.8-.1 5.4 0 5.8-.2 2.3.1-1.3.1 1.9.1h-.4c6.2.2 10-.4 16.9-.1l-.8-.1c7.8.1 16.1-.1 23.8.1l3.8-.1.5.1 2.3-.1c3.2-.1 5.6.3 9.7.1l-.5-.1h5.5v.1l3.6-.1c2.8 0-.4.3 3.7.3l3.8-.2-1.6-.1h1.4c.3-.2 1.3-.4-2.1-.5l-2.4.1-.8-.1h2-2.7l-1-.1-2.3.2c-.3-.1 1-.1-.5-.2-1.1.1 1 .2-.8.2-1.1-.1-.8-.2-2.1-.1l.6-.1-3.8.1c-1.2-.1-4 0-3.9-.2l-3.2.1c2-.2-4.1 0-3.6-.2-1.5.2-5.3.1-8 .2h.7l-2.8-.1c-.2.2-2.5.2-3.7.3-1.8-.2 1.1-.2.5-.3.1.1-3.1.1-2.5.2-1.4-.1-1.2 0-1.9-.2-.2.2-1.3 0-2.4.2-2-.1-.5-.2-2.7-.1zm-52.1.3h1.1zm-4.4 0h1.9l-.5.1zm9.3.8h-1 1.3z"/><path d="M28.1 176.3h.3-.6z"/><path d="M5.4 128.1v.4z"/><path d="M122.6 112.9v.3z"/><path d="M122.6 123.3v1.5z"/><path d="M122.5 131.3v.2z"/><path d="M122.3 4.6h-.4z"/><path d="m122.7 41.7-.1-1.2z"/><path d="M80 4.8h-.3z"/><path d="M122.6 38.7v1.8z"/><path d="M122.5 166.1v.4z"/><path d="M122.5 166.5v.4z"/><path d="M122.5 167.8v-.9z"/><path d="m122.5 152.2-.1 3v.1c0-.5.2-2.3.1-3.1"/><path d="M123 138.8v2.7c0-.5.1-1.1.1.1.1-3.4-.1.7-.1-2.8"/><path d="M123.1 130.4c0 1.4.1 0 0 0q0-1.5 0 0"/><path d="M123.1 69.8c0-1.1 0 0-.1-.1"/><path d="m122.6 58.2-.1 1.1.1.5z"/><path d="M123.3 51.4v.5V50z"/><path d="m68.3 3.8.3.1c.7 0 .9-.2-.3-.1"/><path d="M24.3 3.9h-2.5z"/><path d="M4.3 116.5v-.9 1.6z"/><path d="m125.5 178.7.1-.7-.1-.6z"/><path d="M125.8 172.8c-.1-1-.2-2.2-.3-1.5l.2 2.4-.1 1.4.1 1.8zc-.1-.4 0-.1 0 0"/><path d="M126 87.4v.6z"/><path d="M126.1 34.4v.6z"/><path d="M126.3 25.4v.5z"/><path d="M126 87.4V86z"/><path d="M125.5 161v.8z"/><path d="M126.1 110.7v.4l.1.4z"/><path d="M126.2 128.6q0-.5-.2-.7l.1.9z"/><path d="M125.9 157v.5z"/><path d="M126.2 97.9v-.2z"/><path d="M105.1 178.1q.2 0 0 0"/><path d="M125.8 178.7h-.3l-.1.1z"/><path d="M126.4 8.8q0 .2 0 0c0 .6 0 .3 0 0"/><path d="M1.4 21.9c.1-1.7.1 2.8.3.2-.1.2-.3-2.4-.3-.2"/><path d="M125.5 160.5v-.7z"/><path d="M1.6 22.1v-.3z"/><path d="m95.1.9.4.1z"/><path d="M123.5 1.1h-.7z"/><path d="M80.4 1.1h-1z"/><path d="M65 1.1h.8z"/><path d="m58.4 178.2.7.1c-.2-.1 2.1-.2-.7-.1"/><path d="m125.5 161-.1-.5zq0 .2 0 0"/><path d="M79.8 2h-2.4z"/><path d="M2.3 125.2v.6z"/><path d="M70.1 2h-1.7z"/><path d="M59.2 178.3q-.1 0 0 0-.1 0 0 0"/><path d="M75.2 178c-2.3 0-1.1.2-1.6.2-2.8 0-1.3-.1-2.2-.2l-4.3.2q-.3 0-.1-.1c-1.8.1-5.4 0-7.6.2h-.3l.3.2h-2.3l1-.1H57c-1-.1 1.5-.1 1.5-.2-2.1 0-4.6.2-6.2.1-.3-.1 3.8 0 1.6-.2l2.5.1c-1.9-.2 1.5 0-.2-.2h-7c-.7.1.2.1-.5.2-4.7.1-3.7-.4-7.2-.2-.9.1-1.2.3-3.7.2l.8-.2c-3.2 0-1.8.2-5.2.1l2-.1c-2.2-.1-1.5.1-3.2.1l-.3-.1-11 .1c-4.8.1-10.2 0-14.8-.1l-1.8.1c-.4 0-.8-.1-.3-.1-1.8 0-.1.1-1 .1h-.7l.1-.1h-.1v-2.3l-.1-3.2v-5.9.7c.1-2.6-.3-2.9-.1-5.3v.5c.1-5.6-.1-11.9.1-16.2-.2-.8.1-5.6-.2-6l.3-6.8-.2-3.3h.1l-.1-2 .2-1.1v-1.4l-.1 1.1v-3.5l.1-1.9-.1-5.2.1 1.7v-3c0 .3-.1-.2-.1-.2v-6.3l.1.4V96.3c0 1.6-.2 1.2-.2-.1l.1-.5c-.1-.8-.1 1.3-.2-.4 0-1.6.2-1.1.2-.2v-2l.1.5v-4.7l-.1-9.8-.2-2.5.1-8.6c-.1-2.2-.1-.6-.2-1.6.1-.2.1-3.3.2-1.7L2 55.2l-.1.8c0-.9 0-2 .1-1.8v.2c-.2-5.3.3-12.3.1-16.5v.2L2 33.7c0-2 .1 1.2.1-.3-.2-4.7 0-7.5-.1-11.4.3-3 0-10.7.2-14.8l.2.5c-.1-1.1 0-1.3.1-2-.1.1-.1 1.1-.2.4V1.9l10.9.1 11.4.1c3.3 0 1.9-.4 6.1-.2l-1.2.1c6.7-.2 13.8 0 20.4-.1l-1 .1H52l2.1-.1c1 0 .2.1.9.1h4.3-.6c.9 0 4.2 0 3.4-.1h6.7c1.2-.1 4.2.1 4.6-.1-.2.2 4.3.2 5.9.1-.5.1 1.3.1.7.1 1.8 0 3.4 0 3.1-.1 3.3.2 6.6-.2 8.5.1l15-.2c-.2.2-5.3 0-5.1.2l11.6-.2c1.2 0-.7.1-1.1.1l12.8-.1-.9.1h1.3-.4c-.6-.1.1-.1.5-.2V3l.1.9c-.2-1.3-.1 4-.4 1.8l.1 1.1q0 1.3-.1.2l.1 4.4-.1-.8c.1 1.3.2 2.6.1 4.8 0-.1-.1.1-.1-.5 0 3.7.2 6.4.1 10.5-.2-1.2-.1 1.4-.2 1.6v2.2l.1-.9.1 5.3-.1-1.4v3.6l.1-2.1c.1 2 .2-.2.2 2.4l-.1 2.9.1 3.4c-.1.4-.2-.3-.2-.1.1.9 0 4.5.2 5.7q0-.5-.1-.3l.1.8-.1.9c0 2.7.2-.9.1 2.3V51v9.2c-.2.9 0-2.6-.2-1.6l.2 12.9v-.8c.2.6-.1 3.1 0 5.1l-.1-.5.1 10-.1-.5-.1 6.2c.1.5 0 1.6.1.9-.3 5.5.2 10.6-.1 15.5l-.1-.9.1 4.2.1-1.4.1 2.7c-.1-1.9-.2 0-.2.8l.1.1c-.2 2.2.2.4.1 3.3l-.1-.2.1 3.3c-.1.5-.1-1.2-.1-1.3l.1 4.9-.1-2.5-.1 3.1v-.1l-.1 2.9v-.7c.3 2.1.1 4.3.2 7.2-.2-2.8-.1-.5-.2-.7l-.1 1.5c.1 1.3-.1 2.2.1 4.2 0 .1 0 1.4-.1 1.1 0 1.8.1-.4.1-.3.1 2.7-.2 6.3 0 10.2l.3 7.1c-.1 1-.2-.9-.2-.9v4.6l-.1.5c0 1.3.2.9.1 2.5l-.2-1.3.2 4.6c-.1.4-.1-.9-.2-1.5l.2 5.1v-1.1c0 .6-.1.3-.1-.1q-.1-2.2.1-2.3v1.1c.2-1.1 0-4.5 0-6.7l.2.9-.1-2.3c0-.5.1-.8.2.3v-2.8.1l-.1-1.6c0 .3.1-.3.1.7v-5.6.2c-.1-3.9-.1-.4-.3-3.3l.3-2-.1-.4c0-.4 0-1.2.1-1.1-.1-1.5-.1.3-.1-.6.1-1.9-.1-5.3.2-5.8-.1-.7-.1 1.9-.1-.2.2-.6 0-2.4.1-4.2.1.5.1 2.2.2.4-.2-1.1 0-3.4 0-4.9-.2-.1-.1-3.2-.1-5.8.1.2.1-4.7.1-7v.1c-.2-.5-.1-2.9-.2-4.6l.2 1.3v-1.6l-.1-2 .1.4-.1-7.2c-.1-.2-.3 2.2-.4-.7.1-.1.2-.2.2.6v-1.4l.1 1.2-.1-1.7.1-.6v1.3l.1-3-.1-.8c0-2.2.1-.8.1-2l-.1-2 .1-1c-.1-1.1 0-5.3-.1-4v.3-11.6l-.1-6.5.1-1.3v-4.3c.1 1.7.1-.6.1 1.7v-5c.1.8.1-1.6.1-2.7l-.1 1.5v-3.2l.1.6c.2-4.5-.3-8.1 0-11.5-.1-1.2-.1 2.4-.2 1.4l.2-4.8c.1-2.8-.2-2.6-.2-5.6-.1.4-.2.7-.2-1.5q0-3.1.3-1.2v.7c0 .7 0 1.5.1.7l-.1-.3c.1-1 0-3.9.1-3.2 0-1.6-.1-.7-.1.5l.1-6.8-.1.4c.1-4-.1-1.8-.1-4.5.1-1.5.2.6.1-2.2.1-1.7.1-.4.2.3l.1-6v1.3-2.1l-.1.7.1-1.4c-.1-.8-.2.6-.3-1 .1-1-.1-3.1.1-3.5 0 3.2.1-.4.2 2.4V8.1v.3c.1-3.1-.2-1.4-.1-4.6.1.4.1-.7.1-1.3 0 1.3-.1.6-.2-.6V.5h-2.6 1.2l-2.9.1c-.1-.1 1.3 0 .8-.1h-5.8l-1-.2h-5.3c.7.1.9.1-1 .2l4.3-.1-2.7.1h3.5c-1.3.1-1.2.1-.6.1-1.8-.2-3.5.1-5.5 0l.1-.2c-3.1-.1-5.4.1-9.4.1h1.3l-3.7.1c.5.5-.3.4-.9.4.1.1-2.9 0-3.3.2L90.5 1l-6.8.2c.9-.1-.5-.2 1.6-.2h-5.8l-1.7.1s-1.8.1-.8.1c-3.2-.3-8.9 0-11.7-.2l-7 .1h.4c-2.8-.1-1.7.2-4.9.2-1.6-.1 1.7-.1.7-.1-.4-.3-3.9 0-6-.1h.5l-6.7.1-7.9.2q1.3-.1.7-.2c-1.2 0 .3.2-2 .2l-2.7-.2h2.2c-1.1-.2-2.8 0-4 0l.1-.2c-3.4 0-3.4.2-7 .2l.4.1c-2 .2-1.7-.1-3.6 0l-.6-.2-6.9.2 5.7-.3-5.1.1h1.7H1.5v2.3l-.1 1.4v14.3c.3-1.9 0 1.5.3 1.2v1.8l-.2 3.7c-.1.9-.1-1.2-.1-1.1 0 2.7-.1 1.1-.2 2.9.1-.4.1.9.1 2.5l.1-2.1c.1 3.8-.2 3.3-.1 7.1l-.1-1.2.1 9c0 4.7.2 10.4.1 14l-.1-.4.1 2.6c0-.1-.1-.4-.1.1l.1 3.5-.1-1c-.1 4.5.2 7 .2 10.8-.2 0-.2 3.6-.3 5.4v-.1l.2 13.9c-.2 3-.1 10.3-.2 15.2 0-.7.1.1.2 1v3-.4c-.2.9-.1 3.2-.1 5.1l.2.3c-.3 4.8.1 12.6-.2 15.3l.1 3.8-.1-.1v8.8l-.1-.8c0 2.2.3 2.8.4 4.9l-.2.6v11.8l-.1-.8c0 1.8-.1 7.1.1 6.5-.2 0 0 4 .1 6.2l-.1-.3c.2 1.8.2 1.8.2 4.3q0 .9-.1-.3v3.3h1.2l-1.2.1h2.2l1.1-.1 4.1.1q.6-.2 2.6-.1l-.5.1h7.4l.4.1h-4.7c0 .1 2.2.1.4.3 1.7-.1 4.7-.3 6.9-.2h.3-.2 3.1l3.6.1c-.1-.1 1.3-.1 0-.2h-1.4.1-2.7 3l1.5-.2 4.7.4c3.3-.1 7.8 0 9.9-.3l1.4.1-1.5.1c1.9-.1 5.6 0 6-.2 2.4.1-1.3.1 1.9.1h-.4c6.4.2 10.4-.4 17.5-.1l-.8-.1c8.1.1 16.7-.1 24.7.1l3.9-.1.5.1 2.4-.1c3.4-.1 5.8.3 10.1.1l-.5-.1h5.7v.1l3.8-.1c2.9 0-.5.3 3.8.3l3.9-.2-1.7-.1h1.4c.3-.2 1.4-.4-2.2-.5l-2.5.1-.8-.1h2.1-2.8l-1-.1-2.4.2c-.3-.1 1.1-.2-.5-.2-1.1.1 1.1.2-.8.2-1.2-.1-.8-.2-2.2-.1q-.2-.1.6-.1l-3.9.1c-1.2-.1-4.2 0-4.1-.2l-3.3.2c2.1-.2-4.3 0-3.7-.3-1.5.2-5.5.1-8.3.2h.7l-3-.1c-.2.2-2.6.2-3.9.3-1.9-.2 1.1-.2.6-.3.1.1-3.3.1-2.6.2-1.4-.1-1.2 0-2-.2l-2.5.2c-2.1-.1-.5-.2-2.8-.1-.9-.4 1.1-.5 1.1-.5m-54.2.3h1.1zm-4.6 0h2l-.5.1zm9.6.9h-1.1 1.4z"/><path d="M27.3 179h.3-.7z"/><path d="M2.4 130.3v.4z"/><path d="M125.6 113.1v.3z"/><path d="M125.6 124v1.5z"/><path d="m125.5 132.3.1.2z"/><path d="M124.1 1.9h-.3z"/><path d="m125.6 39.2-.1-1.3z"/><path d="M80 2h-.3z"/><path d="M125.6 36.1v1.8z"/><path d="M125.5 168.4v.4z"/><path d="M125.5 168.9v.4z"/><path d="M125.5 170.3v-.9z"/><path d="m125.5 154-.1 3.1v.1c0-.5.2-2.4.1-3.2"/><path d="M126 140v2.8c0-.5.1-1.1.1.1.1-3.5-.1.8-.1-2.9"/><path d="M126.1 131.3c0 1.5.1 0 0 0q0-1.5 0 0"/><path d="m126.1 68.3.1.2c0-1.2 0 0-.1-.2"/><path d="M125.5 56.3v1.1l.1.6z"/><path d="M126.3 49.2v.5-2z"/><path d="m67.8 1 .4.1c.7 0 .9-.1-.4-.1"/><path d="M22.1 1.1h-2.6z"/><path d="M1.3 118.2v-1 1.8z"/><path d="M105 34.4q.5-.2.9-.6l-.3-.7-1.7.2h-1.8l-2.2-.2q-.2.5-.6.5c-1.3.3-2.2-1-2-2l-.2.2q-.4.5-.9.8t-1.1-.3q-.7 0-1.2-.6l-1 .2c-.8.2-2 0-2.4-.9l-1.2-.1-1.1-.2-1.4-.2-1.1-.1q-.6 1-1.6 1.2-1.2.3-2.4-.1-1.4-.5-2.7-1.3l-1-.2h-3.5q-1 1.3-1.7 0l-5.1-.1-1 .1h-1.9q-.5 0-1.1.3l-.3.3q-1.2 1.1-2.8 1h-1l.9-.9q-1.2.5-2.1-.3l-.4.1q-1.8.5-3.3 1.4-1.3.9-2.5 2.1l-1.4 1.3a17 17 0 0 1-7 3.1l-1.7.3-1.9.2h-2.6l-2.2-.1h-.2l-.7-.1-.7-.1-2-.2-3-.7a19 19 0 0 1-8.3-5q-.7-.8-1.2-1.8c-.5-1-.5-1.4-.7-2.1v-.2q.1-1 .5-1.9.4-1.2 1-1.7l1-1.2 1.6-1.3a20 20 0 0 1 8.1-3.6l3.4-.6 2.5-.2h4.6l2 .2 1.8.4q2.5.8 4.9 2.2 1.1.6 2 1.7l1.7 1.6a8 8 0 0 0 2.4 1.3l1.8.6q.4.2.7-.1.6-.5 1.4-.2h.4v.1h-.1l-.8-.8h1.4q1 0 2 .6l.9.7.5.2 1.7.1h6.8l.1-.1q.5-1 1.4-.2l.3.4 3.5-.1q.6 0 1.1-.3l1.1-.7q1-.6 2.3-.8.9-.1 1.6.1 1 .3 1.6 1.1l4.8-.6q.2-.5.8-.7l.8-.2q.9 0 1.8.3.3-.8 1.2-.6.2-.6.7-.5.6 0 .7.3l.6.6v.1h-.1v-.3q.1-1.1 1.1-1.6 1.3-.6 1.6.5l1.8-.2h2l1.9.1.3-.7-.9-.6c.5-.4.5-.4 1.5-.4q0-.2.2-.3t.4 0l.3.2a3 3 0 0 1 1 2q0 .4.4.6l1.9 1.5a5 5 0 0 1 1.2 3.1l-.1.7q0 .6-.4 1.2a6 6 0 0 1-2.9 2.6c-.2 1.1-.4 2.2-1.6 2.7l-.4-.5h-.6zm3.4-5.1q.1.6.7 1 0-.7-.4-1v-.2l.4.1v-.1q-.4-.2-.7-.1-.2-.2-.2-.5.3-.2.6 0l.8.5.4.1q-.3-.4-.8-.7h.4l.6.3.5.1-.8-.4q.6.1 1.2-.1v.1h-.1v-.1l.5-.4q-.1-.2-.5-.3v-.1h.1l-.1.1q-.5-.3-1.1-.1h-.1l.4-.3.5-.2h-.5l-.7.3-.4.1.7-.6q-.2-.2-.3 0l-.8.5h-.6l.1-.5q.4.1.9-.2c-.1-.2-.4.1-.4-.2q.3-.2.3-.6l.1-.4q-.6.4-.7 1l-.1.1-.1.1-.2-.1q.5-.4.4-1.1c-.4.3-.2.8-.5 1h-.1l.1.1q-.1.3-.4.2t-.3.2l-.3.1v.1h.2l-.1.2q-.2.3 0 .7l.1.2h-.2q0 .3.3.2.1.3.4.2t.3.2h-.1l.1.1.4 1 .1-.1q0-.6-.5-1 0-.2.2-.1l.1.1zm-52.7.4q.1 0 0 0 .1 0 0 0l.2-.2h.2v.1l-.1.1-.1.1zl.1-.1.1-.1.1-.1.1-.1.6-.3q.6.2 1-.2h.1v.1h-.7l.7-.4q-.8-.2-1.7.1h-.3q.2-.4.6-.4l-.8-.4v-.1l1.2.2h.3q.3-.2.7.1v-.2l-.7-.3h.7q-.4-.4-.8-.3t-.8-.2l-.3.1-.1-.1.1-.1h-.1l-.1-.1v-.1h.1v.1h-.2l.3.2.1.1q.2.3.7.4-.7 0-1.2-.4l-.7-.3-.2.3.2.1.5.2H55q-.9-.1-1.5.6c.4.7 1.1.6 1.8.7l-.6.2.2.4.7-.3q.4-.4.9-.3l-.5.3-.3.2q.2.5-.1.5.2 0 0 0m51.7-.1-.1-.1-.1-.1-.3-.2-.4-.3.3-.1-.8-.2.2-.3q.3-.3 0-.6l-.1-.1-.1-.2.7-.2-.4-.1.9-.5.1-.1.1-.1.1-.1.1-.1q.4-.4.5-.9.3-1 0-2-.1-.8-.5-1.4-.2-.4-.6-.7h-.2q-.1.2.1.3.7.4.9 1.2-.7-1.1-2-1.2l.7.7q.3.4.8.2.5.6.7 1.4.3 1.1-.2 2.2l-.1.4-.1.1-.1.1-.1.1-.1.1-.3.1q-.5.3-1.1.2l.5-.2q.6-.2 1-.7.4-.6.1-1.1t-.8-.5-.7.4q-.1.4.3.7l.4-.2-.1-.5q.4 0 .7.4v.4q-.3.7-1.1.8-1.2 0-2.2-.5-.7-.3-1.6-.2c.2.2-.1.5.3.7h-.3l-.2-.2v-.3q-.2.2 0 .3 0 .3.2.2.2.3.5.3l.5.1h-.7q-.4-.1-.8.1l-1.2 1.1 1.1 1q.5.4 1.1.2h.5l-.5.2q-.3 0-.5.3-.4 0-.3.5l.3-.5h.2l-.1.3v.4q.8.1 1.4-.2 1-.5 2-.6.8-.2 1.4.6.4.7-.5.9v-.4h-.3q-.3 0-.4.2t.1.6q.5.4 1.1.1.7-.7.1-1.4-.4-.6-1.1-.7l-.4-.1q.6-.2 1.1 0 .1.3.3.2l.1.1zl.1.1.1.1.2.4q.5 1.2.1 2.3l-.6 1.1c-.2.1-.6-.1-.7.3l-.1.1-.2.2-.4.3q1.1 0 2-1.2l-.4.8-.5.5-.1.3q.7-.2.9-.7.5-1 .5-2 .1-.8-.1-1.5 0-.5-.6-.9l-.1-.1zm-48.8-.3-1.1.4.2.1q.6 0 .9-.5l.1-.1h.1v.1zm-37 2.9q-.1 0 0 0l.1.2zm-.7-6.1 1-.8.4.1-.1.2-.6.6-.9 1a2 2 0 0 0-.6 2.2h.1v.1H20q0-1.8 1.5-2.8l1-.9.4.3v.1l-1.1.8q-1 .8-1.2 2-.1.4.3.9l.2-.7q.3-.9.8-1.6h.1l-.1.3-.7 1.5-.2.8.7.7.2-1q0-.7.3-1l.5-.8q-.6 1.4-.8 3l.7.4.1-.5q0-1 .3-1.9l.1-.2.1.2v.2q-.4 1-.4 2.1v.3l.8.3v-1.2q0-.9.3-1v.2l-.2 1.1v.8q0 .4.2.4l.6.2c0-.7-.3-1.4.1-2.1v1.1l.1 1.1.8.3q.2-.2 0-.4l-.2-1.3.1-.2h.1v.3l.1 1.2q0 .4.5.5l.4.1v-.4l-.3-.9.2-.3.5 1.7.8.1V33l-.3-.8v-.3l.1.2.2.7c.3.6.3.6 1 .6.1-.4-.4-.7-.2-1.2l.2.2.4 1 .8.1c.1-.4-.4-.6-.2-1.1q.4.5.6 1.1l.5 1 .9.1-.5-1.1.4.5.4.6h.9l-.6-1.3.1-.1.9 1.4h.8l-.2-.8.6 1 .2.4.5-.1-.4.2.3.5c.2-.2.5 0 .7-.3q-.5-.6-.6-1.3l.6.8.3.5.8-.2-.1-.3.3.3q0 .3.3.5l.8-.3-1-1.6v-.1l1.2 1.6.7-.3-.1-.4.2.2.3.1v.3l.3.4.3-.1.3-.1q-.4-.8-1-1.5l.1-.1 1.2 1.4q.4 0 .8-.3-.4-.3-.5-.7l.2.1.5.6.8-.3-.2-.4q.4.3.8.2l-.2.2.4.4.6-.3q-.2-.5-.6-.4l.1-.2-.4-.5c.3 0 .4 0 1.2.9q.6-.2.7-.6h.3l.4-.2-.4.4.5.4.5-.4.1-.3.4-.1.5-.5-.4-.4q.4 0 .6.2l.9-.8-.1.3-.5.6-.1.3-.2.1-.5.6.5.4.7-.6-.3-.4.5.2.5-.5-.1-.2.3.1.5-.7.2-.2-.1.3.5.3c.9-1.2 1.5-2.9 1.7-3.8q.1 1-.8 3.2l.2.2h.2q.5-.9.9-2.1.1.7-.1 1.4 0 .3.2.2l.4-.9.5.4.2-.2.1.3.8-.3q.4-.4.1-.3-.3 0-.2-.3.3.2.6 0l-.1.2q.3.3.5.1l.8-.4.1-.2h-.5l-.9.4.4-.5q0-.2-.3-.1l-1.1.4.7-.6-.2-.3-.7.5.4-.8-.4-.2q-.1.6-.6 1.4l.1-1.4V28l-.1-1.4q.5.6.6 1.4l.4-.2-.5-.7.1-.1.6.5.2-.3-.8-.7 1 .4.4.1.2-.1q-.1-.3-.6-.7l1.4.6q.3-.3-.1-.4l-2.1-1-.1.4h-.1l-.2-.4-.3-.4v-.1h.1v.3q.2.4-.1.8-.4-1.2-1.3-2.2l.1.2q.8 1 .6 2.5l-.1-.2-.1-.1q-.3-1.1-.9-2.1-.5-.9-1.3-1.8l-.6-.5q-.6-.6-1.4-.9H48q0-.2-.2-.1v-.1h.1l.2.1.6.5 1.7 1.7.1.4-.6-.6q-1-1-2.4-1.8-2.1-1.1-4.6-1.7L41 19q-.2-.2-.4 0h.4q.2.3.6.2 1.8.4 3.5 1.2v.6q-.7-.2-1.2-.6l.1-.1h-.1v.2l-.8-.2-.4-.3-.1.2c-.3-.3-.8 0-1-.5l-.1.2-2.4-.4-3.6-.2-1 .1-1 .1-1 .1-2.6.5q-2.3.6-4.4 1.6l-1.1.5-.2.2H24q.2.2.2 0l.6-.2.3.5-.5.3-.8.4q-.3.3-.7.2c0 .5-.5.5-.7.8l-.3-.1q0 .4-.3.6l-.5.5zq.1-.1.1.1l-.1.1h-.1zh.2m84.7 8.2.3-.1q-.2-.2-.3.1m.1-12.5s0-.1 0 0l-.2-.1v-.1h.1zm-43 4.3q-.2-.3-.6-.3l-.8-.3-1.1-.2v-.1h.1l.9.9q.6.6 1.4.2l-1.1-.3.2-.1-.3-.2q.4 0 .7.2.2.1.2-.1.2.3.4.3 0 .2.2.1v.1h-.1q.1-.2-.1-.2m40.3-1-.4-.6q.2 0 .2-.2-.1-.2.2-.3-.1.3.2.5l.1-.1.2.6.1-.9-.5.3v-.2q.2-.2-.1-.5l-.4-.5-.2.4q-.1.5.3.8l-.6-.1.6.8zl.2.1v.1h-.1q.1-.2-.1-.2m.4 5.6q-.2 0 0 0-.3 0-.3.2l-.4.2-.4.5h.4l-.2.3v.4l.2.4.1-.2.4-.5q.2-.2 0-.3 0-.2.2-.2l.2.1v.1h-.1V31l-.2.3v.2h-.2l-.3.4h.2v.2l-.3-.1.1-.5h-.2q0-.2.2-.3l.1-.3q.4.1.5-.1m-81.6-6.1q.3 0 .3-.2h.1v.1q-.3-.2-.4.1m18.6 13.2q-.2-.2-.3 0h-.4q.2.2.4 0zm61.1-8.2q-.1 0 0 0-.4.1-.2.5zm-78.7 2.5q-.1-.3-.4-.3l-.2-.1v.1h.2q0 .2.4.3M48.3 36q.2.2.2 0 .5 0 .4-.3l-.4.3zm60.4-11.1c-.1 0-.1.3-.2.1v.1l.1.1.4-.2v.1h-.1zM63 30.5q-.1-.1 0 0-.2 0 0 0-.4 0-.6.4l-.2-.2-.5.1.1-.3.9-.2q-1.3-.3-2 .8l-.4.4.7-.1 1.2-.3.1-.1zq-.1 0 0 0m-23.8 7q.2.2.3 0 .4 0 .7-.2-.4-.1-.7.2zm-17.2-5q.1.4.6.4 0 .2.3.2-.2-.3-.3-.2-.2-.3-.6-.4M57.6 27l1.1.5q-.3-.5-1-.6l-.2-.1v.1h.2zm47.4-1.8q.2.5.7.5l.2.1h-.1q-1 .1-1.6-.8-.1-.3-.5-.2.5 1 1.6 1 .3.1.5-.1h.2q.6.1.7-.6l-.4.3q-.7.3-.9-.5v-.5h.1v.1q-.3.2-.2.6l.1.3zq0-.6-.7-.8.1.6.4.9zm1.8-2.8c-.3 0-.6-.3-.8.1l1.1.4v.1h-.1q.1-.4-.2-.6m-29.6 4.5s0 .1 0 0l-2 .1q.8.4 1.6.1.2.1.4-.2m22.7-1.2q.2.1.2 0 .6 0 1-.4.3-.1.3-.6l-.7.5-.6.5zm.7 3.4.1.5.2-.3.2-.2-.5-.4zq-.2-.2-.5-.1 0 .3.3.3l-.3.4q.1.3.4.2.3-.5.2-.9zm-50.5 4.6.5-.5-.5-.4-.4.6.1.2q-.3 0-.4.2l-.3.4.1.2-.4.1-.5.5.3.3.7-.5-.1-.3.2.1.6-.6-.2-.3zm8.7-6.4c.6.6.4 1.8-.1 2.3l-.1.2q.7-.4.8-1 .3-1-.5-1.6v-.1zh.1zm37.5-3.2-.4-.2q-.2-.1-.5.2l1.6.9v.1h-.1zm.9 7s-.1 0 0 0l-.9.4-.8.6q.3.4.6.1zm7.8-.3q-.3.3-.4.9.7-.2.7-.8l.4-.3q-.3.6.2 1l-.1-.6q.1-.8.8-.5l.5.3-.1-.4-.2-.1-1.2-.1q-1 .1-1.4 1v.2q.3 0 .5-.4l.2-.3q.3-.5 1-.4h.3q-.7 0-.8.6zm-7.4 1q.2 0 0 0l.7-.4q.6-.2 1.1 0l2.4.9.3.1h.2l-.5-.3-1.9-.8q-.6-.3-1.3-.3-.6 0-1 .8m-15.7-4.9-.4-.1-1.3.2.7.3.1.1 1.7-.1q0-.6-.3-1.2l-.7.1.1.4h.4v.1zm19.4-3.6s0 .1 0 0l-1.6.2-.4.2q-.3.3-.7-.1.6 0 .8-.5-.3-.4-.7-.3l-.3.1q-.4.2-.4.8 0 .3.6.4t1.1-.1q.7-.1 1.6-.7m-2.6 2.6h-.2l-.9.1a2 2 0 0 1-1.3-.2l-2.7-.9-1.3-.2q-.7 0-1.2.3-.6.4-.1 1l.3.1v-.2q0-.7.7-.7t1.2.2l1.8.6q1.4.4 2.7.2l.7-.2zm-14.1-.1q.4.2.5.7l.1-.4-.2-.5-.4-.3q-1-.4-2.1-.3l-1.2.3q-1.2.4-2 1.2a5 5 0 0 1-3.3 1.1q-.8 0-1.3-.5l-.6-.7q-.1-.3-.5-.2-.3 0-.2.4.2.4.5.6l1.1.6.8.2q1.8 0 3.3-.9 1.3-.9 2.6-1.4 1-.4 2-.1.7.2.7 1l-.4-.4q-.5-.3-.7.2l.1.3.5.5c.4.3 1 0 1-.5zM85 30q0-1-.9-.8-.3 0-.7.3v.5q.3.3.6.1l.3-.3q0 .4-.3.7-.4.4-.8.3-1.5 0-2.8-.8c-1.3-.8-1.8-1.1-2.9-1.5l-1.1-.2h-.2q-.8-.1-1.7.3l-.8.4q-.5.3-.5.9l.3.2q.4-.1.5-.5.2-.6.9-.8l1.4-.2q1.1.1 2.1.7l1.2.8q1 .6 2.2 1l.6.1.6.1.6-.1q.6 0 1-.4t.4-.8l-.3.3q.4 0 .3-.3m8-1 .2.4 1.7.1q.2-.2-.1-.5c-.4-.1-.8.1-1.2-.2q.1-.2.4-.2h1.6c.2-.1.2.2.4.1h1.2l.5-.2h1.1l.1-.2.3.2 1-.1q-.3-.4-.7-.4h-3.2l-1.3.1-.6-.1-.4.1h-2.9q-.9.2-1.8 0h-.2q-.5.2-1 .1h-4.3l-.5-.1.4-.1h4.8l.5-.1h.3q.8.2 1.5 0h3.7l3.7-.1h2l.4-.4-4.8.1H91q.3-.3.5-.2h.7l4.9-.2 2-.2q.9-.2 1.8.1h.3l-.3-.4-.2-.4-.8.2q-1.7.3-3.3.2l-.5-.1h-5.7c.3-.2.7 0 .9-.3l-.4-.2-.3-.1q-.3.2-.5-.1c.1-.2.4.1.5-.3h-.4q-1 .1-1.9.4h.9v.1l-.7.1-.8.1-1.4.2h-.5l-.3.4c1.1-.3 2.1 0 3.1 0l-1.4.1q-1.3 0-2.6.4-.6.1-.9-.2l-.5-.5q-.3.4.1.6l-1.1.2-.6.1-.1.3q.3.2.6-.1h.1c.1.3.4.1.6.2q0 .2-.3.3l-.3.1.9.1v-.6h.1v.3q-.1.5.5.4l.1-.3.1.3c.4-.2.8.1 1.2 0l1.3-.1q.6.1 1.2-.1h2.5l1.2.1.1-.2.1.2h.8l.5.2-1.2.2v.3l.3.1h1.3q-.2 0-.2-.2m-20-1.8-.3-.1-4.8.1h-3.7l-2.8.1.2.8.8.1h.9l.9.1h.8l-.5.4h.6l.1-.4.1.3q.6.3 1.2.1l.1-.2c-.3-.2-.7.1-1.1-.2l.7-.1h4.3l.6.1 1.3-.1h.4q.6.2 1.3-.1zm18.2 3q-.6.6.1 1 .9.4 1.8.2 1.2-.2 2.3-.8l1.4-.4h1.7l-.4-.1h-.4l-.5-.1-.4.1-1 .1-1.4.4q-.9.4-1.9.6l-.8-.1q-.3 0-.3-.4v-.4zm-11.8-2q.1 0 0 0s0 .1 0 0l-1.1.1q.2.4.5.3l.8.2q1 .1 1.5-.6-.5-.7-1.4-.6l-1.5.4v.1zm-18.7-1.4q-.4-.5-1-.6h-.9q.8.8 1.1 1.8l1.2-.2zm32.4 3.3s-.1 0 0 0l-.2-.3h-1.4l-.1.1.9.2q-.6 0-.7.3l.2.3.6.1 1.6-.5.6-.2q.3-.1.3-.4l-1.7.2zm5.9 3.1h.3q.2-.1.1-.4l-.3-.3-.5-.2q.5-.2.9.1l.4.1q.7.2 1.5.1l-1.1-.4-1.6-.4a1 1 0 0 0-.8.4q0 1.1 1.1 1m3.1-9.6-2.6 1q-1 .5-1.9-.3.1.4.5.6.5.3 1 .2l1.4-.6 1.6-.7zm-10 2.6-.4.1 2.6-.2q-.8-.4-1.6-.5l-.6-.1q-.4 0-.6.3c.1.3.5.1.6.4m19.1 1.1c0-1.1-1.7-3.2-2.8-3.3q0 .3.4.4.8.6 1.5 1.5.2.6.7 1v.3zm-.3 1.3q0 .3-.2.5l-.4.8q-.5.9-1.3 1.5l-.4.4-.1.2c1.3-.4 2.9-2.6 2.7-3.5zm-4.8 3.5.2.2.4-.1-.4-.1q-.6-.4-1.1 0l-1.6.4q-.3 0-.4.2 1.6 0 2.9-.6m-2.5-8.4q.7 0 1.5.3.6.3 1.1-.1l.2-.1-.1-.1-.7-.1q-1.1-.4-2.2-.3l-.1.1q0 .4.3.3m-7.8 1.2-1.1-.4q-.3-.1-.6.2 1.3.6 3 .9zm-1.6 6.6q.5.4.8.1l.9-.4 1.1-.7q-1.5.4-2.8 1m-61 4.4c.3-.2.7 0 .9-.3q.4.2 1-.1l-.3-.5-1.9.4zm34.7-6.7h2v-.4h-2.1zm-5.1.1.8-.1.2-.2c-.2-.2-.5 0-.5-.3l.5-.1q.2-.3-.1-.4t-.9.1zm9.4-.4-.5-.1-.8.1-.8-.1v.5q1 .2 2-.1zm-41.9 6.3q0-.5-.4-.8h-1l.4.8zm37.5-6.6H70q0-.3-.3-.3h-1.9zm2.3-.1q.6.2 1.2.1h.9v-.2q-.4-.2-1-.1l-1.1-.1zm-41.6 4.7c.3.9.4.8 1.2.7q0-.4-.4-.7zm1.5.8.9.1-.4-.8h-.9zm-1.4.8-.4.1q0 .3.3.3l.5.1q0-1.1-1.1-.9.2.4.7.4m2.5-.3h-.8l.4.7h.8zm2.5.5q-.1-.4-.4-.6l-.8.1.4.7q.5 0 .8-.2m-2.2-.5v.1c.3.7.3.7 1.1.5l-.4-.6zm2.5.5.8-.2-.2-.5h-.8zm48.4-5.7q.3-.1.3-.5h-.7l-.5.7zm4.2.1h.8l.1-.1q.2-.6-.3-.5-.3-.1-.7.1zM40 35.7l-.4-.4-.7.3.2.5q.6-.1.9-.4m3.7-.5c-.4-.5-.4-.5-1.2-.1l.2.3.2.2zm-1.9.9-.5-.4-.6.2q0 .3.3.5zm5.2-.8.7-.5-.4-.5-.7.6zm-5.4.3.5.5.7-.4c-.5-.6-.6-.5-1.2-.1m4.6-.8-.2-.3-.2-.3-.7.4.5.4q.3.1.6-.2m-6.8 1.7q-.1 0 0 0l-.9.2.3.4 1-.2zM27.1 33l-.8-.1v.1q0 .6.6.5l.5.1zm1.3.6q-.2-.6-.9-.5l.1.3q0 .3.4.3l.6.1zM89.9 29h-1.1v.4h1.1zm-4.3.4h.6v-.5H85zm3 0V29h-1.1v.4zM91 29h-.8v.4h1.1q0-.4-.3-.4m-50.7 7.1-.7.3q.3.8 1.1.1zm55.6-6.8h.9v-.4q-.4-.2-.9.1zm-.8.1.1.4.3-.1.2-.8H95zm-56.9 6.9.8-.3-.3-.4q-.5 0-.8.3zm7-.9q0-.3-.4-.5l-.6.4.4.4zm-8.7 0 .3.5.7-.2-.3-.5zm6.8.4q0 .2 0 0l.3.4.9-.4c-.5-.4-.5-.4-1.2 0m-17.2-2.9-1-.3q0 .4.3.5l.7.2zm9.4 2.8.1.2.1.2.8-.2-.3-.4zm73.6-6.2.3.7.5-.8-.4-.2zm-33.7-.2-.3.2h2.3q-1-.3-2-.2m-40.7 7.1.4-.1.4-.1-.3-.4-.8.3zm-10.1-3.9-.6-.2q.3.7 1 .8.1-.4-.4-.6m35.3-3.9.1.2.2-.2.3.2.1-.2q.2.2.5.1v-.4l-.6.1h-.6zm41.5 2.3q-.4-.4-1.4-.6l.7.5.8.5zm-35.8-2.1v.3h1l.3-.2-.1-.1zm-33.1 6.7h-.2l-.3.1.2.4.7-.1q0-.5-.4-.4m1.1 1.1.8-.1-.1-.3-.9.1zm14.3-.9.4-.3q-.2-.5-.5-.2l-.4.3q.3.5.5.2m-2-.3c.3.3.3.3 1 0l-.2-.2-.2-.2zm64-8.8-.5-.8-.2.6.4.4q0-.2.3-.2m-78 9.4-.2-.5-.9.2c.3.5.7.2 1.1.3M27 35l1 .1q-.1-.4-.5-.4h-.6zm18.4 1.7-.8.4.3.3.9-.4zm5-2.6-.6.6.3.2.6-.6zm-8.1 2.3q.2.3.6.1l.5-.2c-.4-.4-.4-.4-1.1.1m-15-2.2-.6-.1q.1.3.5.4l.6.1q-.2-.4-.5-.4m24.5-1.4-.4-.2-.4.6.3.3zm-.9.6-.4.6.3.3.5-.6zm-18.2 3.4.6-.1-.2-.3h-.7q0 .5.3.4m13-.2.3.3.7-.4-.4-.3zm.9-.5q.2.4.5.2l.5-.3-.4-.3zm59.5-2.7.2.1.5-.1q.4 0 .3-.5zM90.2 30q.6.2 1.1-.3h-1.1zm-52.3 6.4q0-.2-.3-.4l-.6.2.2.3zm-14.1-3.7q.1-.4-.2-.4l-.6-.2q0 .3.8.6m74.4-3.5.7-.1-.2-.2-.8-.1q0 .6.3.4m-11.7.4v.5q.5.2.8-.3zm10.7-.3h.6v-.4h-.7zm-38 1.2.7-1q-.6.3-1 .8zm-28.6 5.2h-.9c.2.3.2.3 1 .3zm27.9-7.5q-.3.3.1.4v.2q.4-.1.4-.4t-.3-.3zm-21 8.8.2.2.8-.1-.3-.3zm-11.8-2.3q.1.3.5.3h.6q-.1-.5-1.1-.3m10.9 1.6-.8.3.4.2.7-.2q0-.3-.3-.3m7 1.2.2.2q.5 0 .9-.3c-.5-.2-.5-.2-1.1.1M28.7 36h.8c-.2-.3-.2-.4-.9-.2zM64 29.4h.4l.2-.5H64zm17 .5c.4.4.7 0 1-.2q-.5-.1-1 .2m-35.1 6-.3-.3q-.1.2-.6.3c.3.4.5.1.9 0m3.1-.2.9-.5-.3-.3q-.4.3-.6.8m-17.1.8q-.4-.2-.7.3l.9.1q.1-.4-.2-.4m10.3.3q-.1-.4-.4-.3l-.5.3c.4.4.6 0 .9 0m-16.6-2.7.9.2-.2-.2-.9-.2zm64.3-4.3q-.8-.2-1.1.1 1.2.2 1.1-.1m-1.2-.1h-1l-.1.2c.9.1.9.1 1.1-.2m-6-.3q.3.2.4-.1l.2-.4h-.5zm-15-.5h-.6v.3h.6zM45 36.3c-.4-.4-.6.1-.9.1q.5.2.9-.1m36.4-7.5-1.2.6q.8 0 1.2-.6m-53.5 6.9-.6-.1c.3.4.7.2 1 .3q-.1-.2-.4-.2m-3.5-2q.2.3.5.3l.5.1q-.5-.5-1-.4m12 3.6.2.1.9-.2c-.5-.3-.8.1-1.1.1m7 .5q0-.2-.3-.2l-.6.2-.1.2zm-17.8-3q-.5-.5-1-.3zm39.7-5.7v-.3h-.4q-.3.1-.1.4zm-25 8.1.9-.1q-.2-.3-.9.1m3.1-.3.5-.2q0-.2-.3-.1l-.7.3v.1zm23.5-8.5q0 .4.9.1-.4-.2-.9-.1m5.7.2h.4v-.2h-.7q0 .2.3.2m-15.8-2 .1-.1q0-.2-.4.2l.3.3.2-.1zm.2 3.3q-.3-.2-.5.1l.2.3zm4.7-1.2q.3.1.4-.2 0-.4-.4-.2zm-9.1 3.4-.2.8.4-.6zm46.6-3.2-.1.2h.8q-.4-.3-.7-.2m-76 4.4.9.4q-.5-.4-.9-.4m8 3.5c-.3-.3-.4-.3-1.1-.2zM73 28.9h-.5v.3h.4zm-19.7 3.3s.1 0 0 0l.4-.5-.3-.2zm11.1-3.9h-.6c.2.4.5.2.8.2zm-28.6 8.4-.9.2c.4-.1.7.1.9-.2m7 .4q-.6 0-.9.2.5.1.9-.2m38.8-10.5q0-.2-.3-.2t-.4.2zm-20.1 2.5q.5.2.4-.2-.3-.1-.4.2m29 1.2H90q.1.4.4.3zm-8.3-.2.3-.1.3-.3q-.3-.1-.6.4m4.1-.4h-.6l.4.3zm-45.5 7.9q.5.1.9-.2l-.1-.1zm61-6.4.3.3.3-.4zm-39.5-2.6q.2 0 .2-.2t-.2-.1l-.2.1zm46.4 2.1-.2.1.1.1.1.1q.2.3.3-.1zm-25.8-4.8.2.5.2-.5zM60 30q.3-.1.3-.5-.4.1-.3.5m21.4-1.6q0 .4.4.1-.2-.2-.4-.1m20.9-3.6-.2-.4-.2.4zm-.7 1.8-.4-.6q0 .4.4.6M61 29q-.2-.1-.3.1v.1q.3 0 .3-.2m1.6-.1-.2.1q-.3.2.1.3-.1-.2.1-.4m36.5.6.1.2h.5v-.1zm-26-1.2.2.4.2-.3zm-37.5 9q0 .2 0 0l.6.1v-.1zm47.1-6.9q.3.2.6 0v-.1zm25.7-3.2q.3.1.4-.1-.4-.2-.4.1m.3 1.6s.1 0 0 0l-.1-.2h-.3v.1zm-81.9 6.9.4.1q-.4-.3-.4-.1-.2 0 0 0m46.9-7.2-.1-.1h-.3zm-13.7.7s-.1-.1-.1 0l-.1.1v.2zm-.1 1.1q-.3 0-.3.3zm14.4-2-.2.1v.1l.2-.1q.1 0 0-.1m-50 6.1q-.1-.2-.4-.1zm77.6-9.4-.2.1.4.2zm0 6 .2-.4-.4.2zm-67.2 6s0-.1 0 0h-.4v.1zm66.9-11.4-.1-.1-.1.1zm.1 5-.1-.1-.1.1.1.2zm2.6 1.2-.3-.2q0 .3.3.2m-.1-7.5-.2-.1h-.2zm-2.1.7s0 .1 0 0l.2.2.1-.1zm1.8 6.2q0 .3.3.2zm-1.8-.3h.3l-.1-.1zm4.6 1.9-.1-.1-.1.1.1.1zm-.2-9.6-.1-.1-.1.1zm-45.7 6.4s-.1-.1 0 0h-.2v.2h.1zm13.8-1.3q0 .1 0 0l.3.1v-.1zm-13 1.1q0 .1 0 0h.3zm44.7-6.4q-.2-.1-.2.2zm-.1 9.8q0 .3.2.2zm.6-9.6.2.2v-.1zm.1 9.4v.2l.2-.1v-.1zm-33.4-3.7q-.3 0-.2.2zm-43.7 7.8q0-.2 0 0h-.2v.1zm72.9-5.9h-.2v.1zm0-5.6q-.1 0 0 0h-.1zq-.2 0 0 0m4.4-1.7s.1 0 0 0v-.2h-.1zm.2 9q-.1 0 0 .1-.2 0 0 0m-46.9-3.4h-.2l.1.1zm29.3 1.4s0-.1 0 0h-.2v.1zm17.7-6.2s0 .1 0 0v.2h.1zm0 7.2q0 .2 0 0v-.2h-.1zm-45.2-2.1q0 .2 0 0h.2zM82.4 26h-.2v.1zM42 38.1l-.2-.1v.1zm62.4-6.9s-.1 0 0 0q-.1 0 0 0-.1 0 0 0m-65.5 6.5q-.1 0 0 0-.1 0 0 0m44.2-7.6s0-.1 0 0m22.7-8.1s0-.1 0 0q0-.1 0 0m.2.8q-.1 0 0 0-.1.2 0 0 0 .2 0 0m-47.7 6.3q0 .2 0 0 0 .2 0 0m48.7-4.9s-.1-.1 0 0q-.1-.1 0 0-.1 0 0 0-.1 0 0 0m0 7.6s0-.1 0 0q0-.1 0 0m-50-1.6s0-.1 0 0m50.2-5.9s0-.1 0 0q-.1 0 0 0-.1 0 0 0m0 7.4q0-.1 0 0 0-.1 0 0s.1 0 0 0m.5-.4q-.1 0 0 0-.1 0 0 0m-55.5 1.8s0-.1 0 0q-.1 0 0 0-.1 0 0 0M103 22.9s-.1.1 0 0q0 .2 0 0 0 .2 0 0M42.2 38s-.1 0 0 0M104 24.6s-.1 0 0 0"/><path d="M39.3 47.2q1.3 0 2.6.3l1.2.1.6.1q.3 0 .5-.2.8-1.1 2.1-1.1 2-.1 3.6 1l1 .6.7.2h3.7q.3-.6.9-.6t.7.6h6l2.7-.1 1.3-1q.7-.5 1.6-.5h1.6l-.7.7v.1l.9-.2q.5 0 .9.3l.2.2q1.5-.2 2.7-.9l2.2-1.4.1-.1q.8-1 2-1.4l1.8-.4 1.5-.1.5.1h.2q.3-.2.7-.1h2.4l5.3.1 2.8.1 2.6.1 2.5.1 3.3.1 2.7.1 2 .1q1.7.1 3.3.5l1.1.4h-.5l-2.2.2h-.4q-4.6.2-9.3.2l-3.9.1-3.2.1-2.9.1-2.5.1q-1 .3-1.9.2l-.6.1q-.3 0-.4.6.5.4 1.1.3l3.3-.1 5-.1h5l3.4.1 2.1.1 2 .1 1.6.1 2.4.3 1.5.2.3.1-.9.2-1.3.1-1.9.2h-.4l-4.2.2-3 .1-4.4.2-3.8.1-3 .1-2.2.1-1.9.1-.4.1q-.5.3 0 .6l.2.1 1.7.1 3.3.1 3.1.1 4.4.1 3.8.1 2.9.1 2.5.1 2.1.1 2.8.3.6.2-2.6.5-1.5.1-2.2.2-1.9.1-2.7.1-3.6.1q-2.5.2-5.2.1l-4.8-.1-2.1-.1-.9.2q-.3.1-.2.4t.3.3l.5.1 2.6.1 2.8.1 2.7.1 3.7.1 6.7.1 4.5.1 1.9.1q1 0 1.9.3l-1.4.5-3 .4-2.5.1-3 .1-3 .1-2.6.1-2.4.1-3.4.1q-2.5.2-5 .1l-1.7.1-2.8-.1q-1.5-.1-2.8-.8l-.8-.6a8 8 0 0 0-2.8-1.8l-2-.7q-.4-.2-.8.1-.6.4-1.3.2l-.5-.1q.4.5 1 .7h-.9l-1.4-.1q-.9-.2-1.5-.8l-.2-.2q-.5-.5-1.4-.5l-3-.1h-5.1q0 .6-.6.7t-1-.6h-2.6l-1.3.1-.4.2-1.1.7q-.9.6-1.9.8-1.7.6-3.2-.5l-.3-.3-.3-.4-1.9.2-1.7.3-1.1.2q-.6.8-1.7.9-.8 0-1.7-.3-.3.6-1 .6l-.2.1q-.2.3-.6.3t-.8-.2l-.4-.3-.3-.3-.1.1v.4q-.1 1-1.2 1.4t-1.5-.5q-2.8.4-5.7.1l-.3.6q.3.5 1 .6-.8.7-1.6.4l-.1.2q-.2.3-.5.2l-.8-.7q-.5-.7-.6-1.8-1.2-.6-2.3-1.7a5 5 0 0 1-1.1-2.3 5 5 0 0 1 .2-2.1 4 4 0 0 1 1.4-2l1.7-1.2.4-1.5.5-.8q.3-.4.9-.3l.1.4q.9-.2 1.7.4-.6.1-1 .6l.2.3v.4q1.5-.3 2.8-.2l.9.1 2 .1q.4-.7 1.3-.6l.5.2q.9.6.9 1.6v.2l.3-.3.5-.5q.7-.4 1.2.3.8 0 1.2.6l1.2-.2q1-.2 2 .6zm-17.9 1.7-.1-.1q-.1-.6-.7-1 0 .6.3 1v.2h-.5q.4.3.8.2.3.2.2.6-1 .1-1.6-.7l-.2.2.7.5c-.5.1-.8-.4-1.4-.4l.6.3.3.2h-.1l-.5-.1-.5.2v-.1h.1v.1q-.4 0-.6.4.2.3.6.4t.5.1l.7-.2c-.2.4-.7.3-.9.7l1.4-.5-.7.5q.2.2.4 0l.9-.5h.5l-.1.5-.9.2c.1.3.3-.1.4.1l-.3 1.1.6-.8.3-.3.1-.1h.5v.1l-.1.1H22l-.1-.1v.1q-.4.3-.4.8l.1.3.2-.3.2-.8.1-.1.1-.1.1-.1h-.1l.2-.1.4-.2.1-.1h.1l-.1-.1v-.2q.4-.3.1-.5l-.2-.4h.2l-.1-.1h-.1q0-.3-.3-.2-.4.1-.4-.2l.1-.1h-.1l-.1-.1-.4-1.1-.2.3q0 .6.4.8 0 .2-.2.1zm.9-.5.1.1.1.1q.2.3.3.2 0 .2.2.1l.1.1.1.1-.4.1 1 .3q-.8.5-.1 1l.1.2-.4.1-.4.2h-.1v-.1h.5l-.9.5q-.5 0-.5.6l-.1.1a3 3 0 0 0-.5 1.6l.1 1.1.5 1.5q.2.5.6.6l.5.1-.8-.7q-.4-.3-.3-.7l.7.7q.5.5 1.2.3l-.7-.6c-.2-.4-.5-.1-.7-.2a3 3 0 0 1-.5-3.3l.2-.4.5-.6.8-.3q.3-.2.5.2-.6 0-1.1.4t-.5 1.1q0 1 1.2.8.5-.3.4-.8l-.2-.2-.3.1v.4q-.5 0-.6-.3-.1-.4.3-.9.8-.5 1.5-.3l1.8.6.7.2q.3.1.5-.2h.1v.1l-.1-.2.1-.2-.2-.2h.2l.3.5q0-.5-.3-.5l-.3-.2-.7-.3h.7q.7.2 1.1-.3l.9-.9-1.2-1q-.3-.4-.9-.1h-.7l.6-.2q.3 0 .5-.3l.1-.1q.2-.2 0-.3v.3l-.1.1h-.2l.1-.2-.1-.2v-.2l.2.1q0-.3-.3-.3l-.9.2-2 .7q-1 .2-1.7-.5-.3-.4-.1-.7.2-.4.6-.2-.2.2 0 .4l.3.1q.5-.2.2-.7-.6-.6-1.3-.1-.5.6-.2 1.3.3.5.9.7l.6.2v.1H23l-.2-.1-.3-.2-.1-.1zl-.1-.1v-.2q-.9-1.2-.4-2.5.1-.8.7-1.3v.1l.1-.1q.3.2.6-.1l.8-.8q-1 0-1.4.6l-.6.5q.2-.6.6-.9l.4-.4q-.6-.2-.8.3l-.4.9-.2 1.1q-.2 1 .2 2 .1.5.5.7zm51.6.1q0-.1 0 0l-.1.1-.1.1-.2-.1.1-.1.1-.1h.1v.1l-.1.1-.1.1q-.4.4-.9.2-.4 0-.7.3h-.1v-.1h.7l-.8.4 1.8-.1.4-.1q-.2.3-.6.4l.8.5L73 50h-1.1l.7.3-.7.1q.5.3.9.3t.9.2l.1.1.1.1.1.1v.1h-.1l-.1-.1v-.1h.2v.1h.1-.1l-.3-.2q-.2-.4-.7-.4.7 0 1.1.4.3.3.7.2l.1-.3-.6-.3q1.2.3 1.8-.7-.3-.4-.8-.5l-1-.1.7-.3-.3-.4-.7.4q-.3.3-.8.2l.3-.2.3-.2.1-.1q-.1-.2 0-.2m-2.9 0s.1 0 0 0l-.1.1q-.7.6-.5 1.5 0 .6.7 1.1v-.1q-1-1-.2-2.4v-.1zm0 2.1.1.1q.4.6 1.1.6l.1-.1q-.2 0-.1-.2l-.8-.3zq0 .1-.1 0M24 56.4q.2 0 0 0 .2 0 0 0 .2 0 0 0 0-.1 0 0 0-.1 0 0m1.6-9.6q.2 0 0 0 0-.1 0 0M55 50.1q0-.1-.2 0zq.2 0 0 0 .2 0 0 0 .2 0 0 0m11.8-2.4.2-.1.4-.1.1.1.6-.2h.1l-.4.2.1.1-1.1.3q1.5.3 2.6-1.3l-.5.1q-.8 0-1.4.4-.3 0-.5.3-.2 0-.2.2m-40.4 5.1q0 .2.2.1l.3.4v.2l-.1.5-.2.1q.2-.4-.1-.6l-.2.1-.1-.4-.1.8H26v-.1l.5-.2-.1.5.6.8a1 1 0 0 0-.1-1.2l.4.1q-.1-.5-.6-.8h-.2q.1-.4-.1-.3m-.7-6.4q-.1-.2-.3 0zq0 .2 0 0 .1.2 0 0 0 .2 0 0M79 44.9s.1 0 0 0q.2 0 0 0t-.2.3zm-56.1.5h.1l.1-.1-.1-.1zq0-.2 0 0h-.3l.2.2zm3.6 1.9h-.2v.1zq.3 0 .3-.2.4-.2.5-.7H27l.1-.6-.2-.6-.1.2c-.4.5-.4.5-.4 1l-.4-.2v-.1h.1l.2.7.1-.3q.4 0 .4-.5h.1l.1.6-.3.1.2.2zm1.8 1.2q-.1 0 0 0-.1.2 0 0 .3-.1.2-.5zm50.6 5.9-.4-.6q-.2.6.4.6 0 .3.4.2zM73 51.6h-.2v.1zq.3 0 .2-.3l-.2-.2-.4.1.2.2zM71 49l.6-.3.7-.2-.3-.1q-.7 0-1 .6m.1.5s.1 0 0 0q.1 0 0 0-.3 0-.3.3t.4.4q.3-.4-.1-.7m-48.4 5.8q-.2.2 0 .3l.4.2q.3.1.7-.1zq-.1-.2 0 0M22.6 45q0 .2 0 0 0 .2 0 0 0 .2 0 0l1.1-.4q-.5-.3-.9-.1l-.2.2-.1.1h.1zm1.8 7.2q.6.3.9.8l.4.3q0-1-1.3-1.1h-.5l-.6.1c-.4.2-.4.1-.3.5q.5-.5.9-.2l.3.4-.1.6q.5-.1.2-1l.3.2c.2.7.1.6.6.7q-.1-.6-.4-.8l-.1.1-.2-.1-.1-.3-.4-.2-.1-.2q.3.3.5.2M62 50q0-.2-.3-.1h-1.3l-.5-.1h-.1v.4h1.4q.4.1.8-.2.5.3.8-.1-.5-.1-.8.1m-37.6-2.4.2-.1h.2l.3-.8q-.7 0-.7.9h-.1v-.7l-.2-.2v-.1h.1l.1.3q.1.8-.7.9-.4 0-.6-.3-.1.6.4.6l1 .1q1 0 1.4-.9l-.1-.3-.5.6q-.5.7-1.4.5.4-.2.6-.5m43 4.6-.4-.1q0-.2-.4-.2l.4.2.2.2q1 .5 2.2.5v.1h-.1l-.6-.7c-.5-.5-1.1-.3-1.7-.4l.6.2.6.2-.2.1.2.2-.7-.2q0-.3-.1-.1m-29.8-4-.1-.2.6-.2-.2-.3q-.3-.2-.6-.1l-1.1.3-.8.4h.7l.7.1zs.1.1 0 0q.2.2 0 0M32 53.8q0-.3-.3-.4-.4-.4-1-.3-.8.1-1.1.4l-2.1.9v.2l2.8-1.1.3-.1q.9 0 1.4.4.1 0 0 0 .1 0 0 0 .1 0 0 0m-.7-1.6h-.2v.1zl.8-.1h.4l1.8.5q1.4.6 2.9.9.8.1 1.5-.4.3-.3.2-.6l-.3-.3h-.3v.3q-.2.6-.8.6-1.2 0-2.1-.5-1.7-.6-3.4-.6zm13.8-4.6-.2.8c0 .4.5.9 1 .6l.5-.5q.2-.2-.1-.5-.3-.4-.5-.1l-.4.3.1-.4.6-.5q1.2-.1 2.2.3l2.1 1.2 1.7.8 1.1.2q.7.1 1.3-.1l1.4-.7q.4-.2.4-.8L56 48l-.4.5q-.5.8-1.5 1h-1l-1.5-.4q-1-.5-1.9-1.2-1.1-.7-2.6-.9h-.9l-.9.2q-.8.4-.6 1.3l.3-.6q-.1-.3.1-.3m-.4 4.6-.2-.2v.2q.3.6.8.7 1.3.4 2.6 0 1.5-.5 2.7-1.4a5 5 0 0 1 3.5-1.1q1.1 0 1.5 1l.2.3q.2.2.4 0 .3-.1.1-.4l-.4-.5-1.2-.6-.5-.2-2.1.2q-1.6.6-3.1 1.6-1.2.7-2.5.8l-.8-.2q-.5-.2-.5-.9l.3.3h.6q.2-.2.1-.5L46 51l-.5-.2q-.8-.2-.9.6zM36.6 51v.3h1.6q0-.4-.2-.4h-1q.3-.4.8-.3h8.3l.1-.2q.2.3.6.2v-.5h.1v.2q0 .5.4.3l.5-.1-.8-.3.8-.2q.3.1.6-.2l-.2-.1-1.2-.1-.3-.1q.2-.3-.1-.5-.4 1-1.7.7l-1.3-.2-2-.1-.2-.1q1.3-.2 2.8-.2l-.3-.4-.9-.1-1.4-.2h-.5l-.5-.1v-.1h.9l-.8-.2-1.4-.2-.2.1.7.2a3 3 0 0 0-1.5.4h1.2l-1.8.2h-2.3q-.8-.1-1.7.1c-.9.2-1.2 0-1.8.1l-2-.2-.7-.2-.4.8h.2l1.2-.2.5.1 1.8.1 1.6.1 4.1.1h1l-.2.1-4.5.1-1.2-.1h-4.2l.5.5.9-.1H34l5.4.1h6.4l.7.2-.9.1h-3l-1.5-.1h-5.9q-2.1.1-4.2-.1h-.2l-.5.1q-.5 0-.8.5h1l.3-.1.2.1 1.3.1.5-.1h.1q.4.2.7.1h.7q.8-.2 1.5 0l.1.1-.1.1-1.1.1v.5l1.6-.1zm39-3.3-.6.6.2.3.6-.6q-.1.5-.5.8l.6.2q0-.7.4-1.3l-.1 1q-.1.5.1 1-.2.4-.1 1 .2.4 0 1l-.5-1.3-.4.2.4.7-.1.1-.6-.4-.3.3q.5.2.8.7l-1-.4h-.6l.2.3.3.2-.4-.1-.8-.4-.2.3 1.2.6.8-.4-.1.3-.5.2.9.5.1-.5.3.2q.4-.1.4-.5l.7 1.4q.2.5.7.9l.8.4q.4.3.8.2l-1.2-.8q-.6-.6-.9-1.3-.2-.4-.1-.7l.1-1.5-.1-.1-.1.2q-.3-.5-.1-.8t0-.6V49l.3-.1v-.7l.1.2q-.1.9.1 1.7v.2l-.1.5v1.8q0 .6.3 1l.1-.6-.1-1 .2-.2v1.7q0 .5.3.6l.1-1.2q.2.5.1.9l.4.3-.1-1.7v-.7l.1-.7v-1l.1.4v3.8q0 .3.3.2v-.2l.1-3.3.1-.3v4.1h.3l.1-.4h.1v.6l.5.2v-1.3l.1-.1c.3 0 0-.3.1-.3l-.1-.7.1-.6.1-.6v3.6h-.1l-.1-.6v.7l.5.2v-1.5l.2 1.5.3.1v-1.1.9l.2.2.3-.1h.1l.1.1.8.1.1-.3.6.1q.3 0 .5.2l.2-.2h2.1l1-.1 5.6-.1q3.7 0 7.3-.2h3l-.1-.2.5-.1-3.5-.1-3.7-.1-4-.1h-3.5l-.6-.1-.6.1-.7-.2h-2.6q-.7 0-1.4-.3h-.3l-.2-.4q-.1-.5 0-.8.3-.4.8-.6.3-.2.6-.1h2.4q.4-.2.7 0t.5 0 .7 0h1q.1-.1.3.1l.1.1h.6L90 52q.4-.2.8-.1h.6l.9.1h.3v.1h-.8L94 52l3.1-.1h.2q.4-.2.8 0h.4q.3-.3.8-.1h.7l4-.1 2.3-.2.1-.1-.3-.1-.4.1h-2.1l-.4-.1h-.3q-.1.2-.4.1l-.5-.1-.5-.1-.2.2h-.4l-.3-.2-.2.2q0-.4-.3-.2v.2q-.4.1-.6-.2h.3-.2l-.1.1h-.2v-.1h.1v.2h-1v-.1l.8-.2-.2-.1-4.6-.1-4.9-.1h-3.3q-.3-.2-.7 0-.2-.2-.3 0l-.4-.1-.1-.1-1.4-.2-.2.1-.3-.5q-.4-1 .6-1.2l.3-.1.3-.1 2-.1h4.2l.6-.1h1.9q.2.1.3-.1h.3q.5-.3 1.1-.2l.8.1.8-.1h.8l.8.1 5.6-.1 2.6-.1h2.4l-5.4-.2.2-.1-1-.1-3.6-.1h-5.3l-5.3.1-3.1.1q-.7.2-1.5-.3l.1.4-.1.4.3.1.3.1v.1h-.6q-.1.3.2.3l.2.1h-.5l-.2-2.1q-.1-.5.3-.8t.9-.3l1.9-.1h2.9v-.1l-.4-.1.3-.1q.3.2.6 0 .3.2.6 0c.3-.2.4.1.6 0h.7q.6.1 1.1-.1h.2l.8.1 2-.1 5-.2h2.1-.6v-.1l.7-.1q-.2-.3-.5-.2h-6l-6.6-.1h-2q-.8.1-1.5-.1h-.5l-1.6.1q-.5-.2-.9-.1h-.1l-.2.1-.2-.1q-.5 0-.8.3l-.2-.2q-.3 0-.3.4h-.1l-.1-.4-.2.3v1.4c-.2-.2.1-.5-.3-.6l.2-.1v-.8l-1.1.6-.1 1-.1-.3.1-.5-.5.3.1.3-.3-.1q.2-.2.2-.6-.6.4-1 .9v.2q-.5.4-.3.7l.1.8-.2.2v-.7l-.1-.2.2-.7q.6-1.3 1.9-1.9l-.6.1q-1 .3-1.4 1l-.7 1.4-.2.3v-1.2l-.4.6q0 .2-.3.3l-.1-.4-1.1.6-1.2.6q0 .3.2.2l.4-.1.9-.4v.1l-.6.5q.2.3.4.1.2-.6.7-.7m-20.1 2 .7.1 1.1-.1 3.8-.1h2.2q.4 0 .9.3h-.7q-.3-.1-.5.2h1.3l.1-.4.1.4q.4.1.6-.2c-.1-.2-.4 0-.4-.3H68q.3-.4.2-.9l-11.4.1zM38.3 48l.2-.1q.4-.1.3-.4 0-.4-.3-.6l-.8-.3a3 3 0 0 0-1.6.2l-2.2.8q-1.3.5-2.6.3h-.2l1.3.3.8-.1a5 5 0 0 0 2-.5q1.2-.5 2.5-.6.8.2.6 1m13.2 1.9-1.3-.5q-1-.3-1.7.6.4.4.9.6l.4.1 1.6-.5L50 50v-.1zm18.2-.4.5-.9.6-.8c-1-.5-2.2.3-2.1 1.7zm-34.8 2.1q0 .3.2.4l1.3.5 1.1.2q.4 0 .5-.4l-.3-.2q-.2.1-.3-.2l.8-.2-.8-.1h-.7v.4q-.4-.6-1-.5h-.5zm-4.5 3.6q.5.3 1.1-.1.3-.4.2-.7v-.1q-.6-.4-1.3-.2-.9.1-1.7.6l-.4.2h.4l1.2-.1.4-.2.5-.1.3.2q-.8-.2-.7.5m-2.3-9.8.6.2 1.4.5q.5.3 1.1.1.4-.1.4-.5t-.4-.7l-.7-.1-.2.2.1.3.5.3-.2.1-.4-.1-.4-.2-1.2-.2zm4 .8-.2.2q-.6.6-1.5.3l-1.1-.4-1.7-.6-.3.1.3.2 1.3.6 1.5.6q1 .3 1.7-1m15.8 1.9-.7-.1q-.3.5-.2 1.2.9-.1 1.6.1h.2l.7-.4q-.8-.2-1.6-.1h-.1l-.3-.2q.4-.2.4-.5m-26.7-2-.6.4q-1.6 1.1-2.1 3l.1.1.3-.2-.1-.2.5-.8.2-.3q.6-1 1.6-1.7.2 0 .1-.3m-2.7 4.7a6 6 0 0 0 3 3.5l-.2-.4q-1.5-1-2.2-2.5l-.2-.6zm8.1 4q-.2-.4-.4-.3-.7 0-1.4-.3c-.8-.3-.8-.3-1.5.1v.1l.3.1.3-.2.3.1q1 .6 2.4.4m-3.3-8.9q.6.6 1.2.2h.2q.7-.3 1.4-.3l.4-.2-.5-.1-1.2.1-.6.2c-.4.2-.4.2-.9.1m12.4 7.6c-1-.3-1.9-.9-3-.9l.6.3 1.7.8q.3.1.7-.2m-3-5.9q.8 0 1.5-.3l1.4-.6-.3-.1-.8.1q-.9.3-1.8.9m24.8 2.9q0 .5.3.4h1.6v-.4zm9.4.2.1-1h-1l-.1.3.6.2-.4.1-.3.1.2.3zm-7.1.2 1.9-.1v-.3h-.1l-1.5-.1q-.3-.1-.5.2zm-2.3-.7h2l.1-.3-.8-.1-.6.1-.7.1zm-23.1 3.9q-.8-.6-1.8-1l1 1q.3.4.8 0m-.2-8q-.3-.4-.5-.2l-.4.3-.7.9q1-.5 1.6-1m.3 5.7q.3-.5.2-.9h-.6c-.2.3.2.5 0 .8zm13-.6h.9l-.4-.5h-.8q0 .3.3.5m-6.4-.4v.4h1.1v-.5zm3.5 0s0-.1 0 0h-1.1v.4h.6zm-24 .9-.3-.4-.5.2q.2.5.6.8zm19.2-.4h1.1v-.4l-1.1.1zm-5.9-.4h-.7q-.4-.1-.3.4h.9zm-5.7 2.5 1.5-1q-.7.1-1.2.5-.3.2-.3.5m1.1-2.5c.1.2-.2.4 0 .5q0 .3.2.5l.3-.2-.3-.5q.3-.1.2-.4zm-1.1-4q.4 1 1.4.9zm24.1 1.8q1 .3 1.9.2l.4-.2zm-9.9 2.6h.8l.1-.4h-1v.2zm12.1-.1q-1.3-.5-2.1.1l1-.1zM38.6 51l-.1.3h1q.3 0 .2-.3zm-6.8-.1h-1v.3l.9.1zM20.4 48q-.5.4-.5.8l.3.1.3-.4zm21.8 3.6h-1.1q0 .3.2.3h.9zm-2.5.2c.3.2.3.2 1 .2l.1-.1v-.3q-.6 0-1.1.2m24.5-1.2-1.2-.1-.1.1.2.3zm-31.5.3h-.4l-.3.1v.3h.4q.2.1.3-.4m5.8.9q.6.3 1.2.2 0-.3-.3-.3zm31.4-.7q.2.5.7.9l.2-.2zm-7.8-.3h.5v-.4H62zm-13.4.8-1-.1.6.4q.3 0 .4-.3m-5.4 0h-.8v.3h.7zm3.2-.9q.2.6.6.5l-.2-.5zm19.3-.6v-.3h-.6v.3zm-.1.8v-.5h-.5l.1.4zm3.4-1 .1.3q.3.1.3-.2l.3.3v-.5zm-20.3-1.5q-.3-.3-.6-.2l-.2.3zm7.9 1.8h.6v-.3h-.5zm16.5-2q-.1-.3-.6-.2l.2.1-.2.2q.5.2.6-.1m-44.6 3 .4.5.1-.8zm28.6-.3v-.4h-.4q0 .5.4.4m-7.6.2q-.6 0-.9-.3l-.3-.1q.5.6 1.2.4m14.8-.6q.2.4.5.3v-.3zm-33.8.7v-.3h-.5l-.2.2h.4zm13 .3v.4q.3 0 .4-.3v-.1zm25-1.6v.3h.4v-.3zm-.6.3v-.5h-.3v.4zm-46.7-2.9v-.1c-.2.2-.3-.2-.5.1l.4.3zm55.1 6.2-.1-.7-.3.2zm-37.2-1.3q0 .5.6.2zm7.8-.8q-.1.1 0 0l.4.5q.1-.3-.2-.5 0 .1-.2 0m-19.4 2.2.4-.3h-.6zm40.1-3.2q.1.5.5.3l-.1-.3zm-21.3-2.7.3.5.1-.5zM67.1 50l.2.1q.3 0 .1-.2l-.2-.1zm42.2-2.1q-.4-.3-.5 0zm-18.2 4h1zM56.7 50q-.1 0 0 0l-.4.1v.2h.3zm-26.1 1.6H30q0 .3.6 0m-2.7-4.7-.3-.3-.2.3zM21.4 53q-.3-.4-.5.2zm48.3-1.6q0-.4-.3-.3zm-2.5-1 .2.4q.2-.3-.2-.4m1.5.1.1.3.2-.1q0-.3-.3-.2.1 0 0 0m-47.8.4q0 .1 0 0l.3.1q.3 0 0-.2zm27-.6h.5c-.2-.3-.3 0-.5 0m7.7 0v-.2l-.1-.1h-.1v.1zm-27.8 2.4v.2l.1.1h.1v-.2zm76.4 1.8h.5zM47 52.3l-.5-.1v.1zm-18.7-.5.2.4q.1-.4-.2-.4m27.5-1.7q.2.1 0 0h.3L56 50zm14 1.4q0 .4.4.4zm-48.9-2.1h.5zm6.4-2.2.2.1.1-.1-.1-.1zm.5.3.1-.2-.1-.1-.1.1zM69 50.9q-.1.3.2.3zm.5-.3-.1-.1-.1.1.1.1zm-46.3 4.6v-.4l-.2.2zm4.8-2.5.2.2v-.4zm41.7-2.1.1.1.1-.1zm-13.3.1.1-.1-.1-.1zm-33.9 3.8v.1l.2.1zm5.4-6.9q.2 0 0 0h.2v-.1zm12.4 4.8q0-.1 0 0-.2-.2-.2 0zm-12.7.7q0-.1 0 0l-.1-.2-.1.1q.1-.1.2.1m-2 .7q0 .2 0 0 .2.2.3 0v-.1zM24 44v-.2zm1.7 9.6s.1 0 0 0h.2q-.1-.1-.2 0 0-.1 0 0m-1.8 2.5q-.1 0 0 0 0 .2 0 0 0 .2 0 0m-.5-11v.2zq.2 0 0 0m-.6 8.8s-.1 0 0 0v.2zm-.2-8.2q0-.1 0 0-.1-.1-.2 0zm-.1 8.1v.2zm-.2-7.3s-.1 0 0 0q-.1.1 0 .2zm4.9 6.4s-.1 0 0 0q-.2 0 0 0-.2.2 0 0m63.6-.9q0-.1 0 0h-.2zm-64.7 1.1q.1 0 0 0 .1 0 0 0m80.3-1.8s.1 0 0 0m-.4-6.7q.1 0 0 0 .1-.1 0 0 0-.1 0 0m-.3-.1s0 .1 0 0q0 .2 0 0 0 .2 0 0m-.3.1s0-.1 0 0m-.3 0q0-.1 0 0m-79.8 8.7q.1 0 0 0 .1 0 0 0 .1 0 0 0 .1 0 0 0M67.5 51q-.1 0 0 0-.1 0 0 0m-43.3-7.2q0-.1 0 0m47 5.3q.2 0 0 0 .1 0 0 0 .2 0 0 0 .2 0 0 0m-47.5-5s.1 0 0 0q.2 0 0 0 .2 0 0 0m47.7 6.5q0-.2 0 0 0-.2 0 0m-47.7-5.5s-.1 0 0 0q-.1 0 0 0m.1 10.1q-.1 0 0 0-.1 0 0 0m-.2-10.8q0-.2 0 0-.1-.2 0 0-.1-.2 0 0m.1 11.6q-.1 0 0 0m-.2-.9s.1 0 0 0m53.6-5.2q0 .1 0 0 0 .1 0 0m.1-.3q-.1 0 0 0-.1 0 0 0-.1 0 0 0m-55-2.7s0-.1 0 0q-.2-.1 0 0-.2 0 0 0m0 6.6s0-.1 0 0m4.9-6.3q0 .2 0 0 0 .2 0 0m-5.9.6q-.2 0 0 0 0 .1 0 0 0 .2 0 0m5.5-2.6s0-.1 0 0q-.2 0 0 0m0 9.9s0-.1 0 0"/><path d="m36 67.5 1.3-.3 1.2.1q.6.2.9.8 1.2 0 2.4.3h.3l1.8.2q.3 0 .5-.2.8-1.2 2.2-1.1 2 0 3.7 1.1l.8.5q.4.3.8.2h3.6q.3-.4.8-.6.7-.2.8.5l1.5.1q.8-.2 1.4 0h1.6v-.3l.1-.4q.3-.5.8-.2l.4.4q.5-.1.7.4h1.2v-.5q0-.5.4-.5l.8.1a4 4 0 0 1 3-2.2l.6-.1q.5-.1.2-.5l-.1-.2q.7.2 1 .8 2-.2 4.1-.1h4.1q.4-.1.8.1h.2q.4-.2.8-.1H83l1.7.1.6-.1q.2-.1.4 0l1.2.1h5.9l2.7.2q.5-.1 1.1.1h.2l.3-.1 1.7.2h.2c.5-.2 1 .1 1.6 0l.2.1c.2-.3.6.1 1 0q.6.3 1.3.3l1.9.2 2.7.7 1.9 1q1.5 1 2 2.6a3 3 0 0 1-.7 3.2 3 3 0 0 1-1.6.8l-1.3.1h-2.3l-.9-.1q-.4.1-.9-.1h-.1l-2.4-.1-1.8-.1-1.5-.1-4.7-.1h-7.2q-2.1.2-4.2.1l-1.1-.1-2.7.1-2.6.1-1 .1-1 .1-1.5.2-1.1.1-.9.7.2-.3q.1-.3-.2-.4l-.8-.1a3 3 0 0 1-2.9-1.8l-.1-.3-.7.1q-.6 0-.6-.5v-.4h-1.2q-.2.6-.7.5l-.3.4q-.6.5-.9-.3l-.1-.4h-4.5q0 .5-.6.6-.6.2-1.1-.6h-2.2l-1.7.1-.3.1q-1 .7-2.2 1.2t-2.5.5q-1 0-1.8-.7l-.5-.6-1.5.1-1.9.3-1.3.2q-.4.8-1.5.8l-1.6-.2h-.3q-.3.7-1.1.6h-.1q-.1.3-.5.4-.6.1-.9-.2l-.7-.7q0 .6-.2 1.1-.4.6-1.1.9-1 .3-1.5-.6l-.2.1-1.6.1-1.6.1H26l-1.5-.1-.2.6c.4.5.4.5 1 .6q-.7.7-1.6.4v.2q-.2.3-.5.2-.6-.3-.8-.8-.5-.8-.6-1.8-1.4-.6-2.3-1.8-.8-.9-1-2.1l-.1-.7.1-.8q.3-1.3 1.2-2.2c.9-.9 1.2-1.1 2-1.4q0-1 .6-1.9l.7-.7q.6-.5.7.3 1-.3 1.6.4-.7.2-.9.6l.2.7 1-.1q.9-.2 1.8 0h.3l2.4.1.2.1q.3-.6 1-.6.9 0 1.3.6t.4 1.4l.7-.7q.8-.7 1.4.1.4 0 .9.7m-14.4 4.9.1-.1h.1l-.1-.1q.2-.3.3.1l-.1.1-.4.8.1.4.2-.3.2-.8.1-.1h.1l-.1-.1q0-.2.3-.2t.4-.2l.2-.1-.1-.1.1-.1q.3-.3 0-.7l-.1-.1.1-.1-.2-.1q0-.2-.4-.2t-.3-.2l.1-.1h-.1L22 70l-.4-1.1-.2.3q0 .5.4.8l.1.1q-.2.4-.3.1l.1-.1h-.1l-.1-.1-.1-.1q-.1-.6-.6-.9 0 .4.3.9v.2q-.2-.2-.3.1h.7q.3.2.2.6l-.3.1-.6-.3-.5-.3q-.2-.1-.2.1l.7.5-.5-.1-.6-.3q-.1-.1-.4 0l.9.5h-.3l-.4-.1q-.2 0-.3.2H19V71h.2v-.1l-.2.1q-.4.1-.6.4l.6.4q0 .1.2 0H19v-.1l.3.1q.2.3.3.1l.6-.2c-.3.4-.7.3-.9.7.5 0 .8-.6 1.3-.4l-.7.5.2.1.3-.2.9-.5.3.1-.2.6-.7.1-.1.1.4-.1v.2q-.3.3-.3 1 .6-.4.6-1zm6.2.4.1.4q.2-.3-.1-.4l-.1-.1-.8-.4h.6q.5.1.8-.2l1.2-1-.7-.7-.3-.1q-.4-.6-1.1-.4l-.7.1.3-.2q.4 0 .7-.3l.1-.1q.4-.1.2-.4l-.2.4-.1.1h-.2l.2-.3-.1-.1.1-.2v.1h-.1q0-.2-.4-.2l-.8.2-1.8.6q-1 .3-1.7-.5-.2-.4-.1-.7.2-.3.6-.2-.2.3 0 .4h.5q.3-.3.1-.6l-.3-.3h-.3q-.6 0-.9.5-.3.7.1 1.1.3.4.9.6l.6.1-.4.1-.7-.1-.2-.1-.1-.1-.1-.1-.1-.1-.1-.1-.1-.1-.2-.5-.2-1q0-1.4.9-2.3l.1.1v-.1q.3.2.6-.1l.7-.7-.3.1q-.7.1-1.2.7l-.4.4q0-.4.3-.7l.7-.7h-.5q-.5.3-.6.8l-.3 1q-.3 1.2.1 2.3 0 .5.4.7l.1.1.1.1.1.1.1.1.1.1.2.1.2.2.5.2h-.4l-.2-.1v.1h.2l.6.3c-.5.6-.6.5 0 1.1q-.4 0-.6.3h-.2v.1l.1-.1h.4l-.5.2-.2.2-.2.1-.1.1-.1.1-.1.1-.1.1-.3.4q-.4.8-.4 1.5 0 1.2.5 2.3l.5.7q.2.2.5.1l-.7-.7q-.4-.3-.3-.7l.1.1q.9 1.2 1.9 1l-.8-.7q-.2-.3-.6-.1l-.1-.1v.1l-.5-.6-.4-1.1q-.2-1.2.4-2.1l.1-.2.1-.1.1-.1.1-.1.1-.1.2-.1q.5-.2 1.1-.1-.9 0-1.4.7-.8 1.2.4 1.6 1 .3 1-.7 0-.3-.4-.3l-.2.1v.4q-.7 0-.6-.8.7-1 1.7-.7l1.5.5 1 .3q.5.2.9-.2h-.3V73q.2 0 .1-.2l-.2-.2h.2zm-4.9-5.5q-.2 0 0 0m1.4 10h-.1zq-.1 0 0 0m-.1-12.4q-.1 0 0 0 0-.1 0 0 .2-.2 0 0 0-.2 0 0m-1 11-.1-.2-.2.2zs0 .1 0 0l.2.2.1-.1-.1-.1zm-.1-9.6h-.4l.2.2zl.2.1q.1-.2-.1-.3zm1.2 8.3s-.1 0 0 0q-.1 0 0 0 .4-.3.1-.8l.1-.2.2.2q0 .6.6.8l-.2-.7q-.2-.2-.5-.2 0-.2-.2-.2-.2-.3-.5-.2v-.1h.1q-.3-.1-.7.1-.5 0-.3.6.3-.5.7-.3l.5.3q.2.2.1.7m-.1-7 .1.8-.6.4-.7-.3q-.2.4.1.5h.9l-.1-.2q.4 0 .5-.3.3 0 .2-.2l.2-.1.1.1v-.1q.4-.4.3-.7-.6.2-.6.9l-.2.2-.1-.2q.2-.4 0-.7zM86.8 74h1l.6-.5-.1.3v.3l-.2.1h.5l-.1-.3 1.1-.1q0 .3-.2.3H89h1.4l-.6-.1c.4-.3.7-.1 1-.2l.6-.6h-.9l-.4.1q-.1-.2-.4-.2h-1.1l.3-.1.3-.1 1-1.1q.2-.3.6-.5l-.3.6q.6 0 1.1-.2l.3.2.9-.1q.2-.4.9-.5l-.4.6q1 .2 1.5-.6l.2-.2-.4-.1v-.1h.6q.2-.3.6-.4l-.1.4h.7q-.1.3-.3.2-.5-.2-.9.3l-.7.7-.3.1-.2-.1-.6.1-.6.1-.3-.1q-.4.1-.9-.1-.3.5-.7.6l.5-.6h-1l.1.1-.8.7h1.9l.6-.2q.1-.3.4-.1l-.1.3h.8q.3 0 .5-.3.2.2-.1.3l.4.3q-.7 0-1.3.7h.9l.2-.1 1.1-1 .3-.3q-.4-.3-.1-.4l.4-.3.7-.6.3-.1q-.3.5-.8.9h1.1l.7-.6q-.4 0-.7-.2.6-.2 1 0l.8-.8.1-.3.4-.3.7-.7.2-.1-.1.4-.7.8-.8.7-.3.4-1 .9h1.1l.7-.6.7-.5c-.1.6-.7.7-.9 1.1h.9l.7-.8.7-.4-.1.2-1.6 1.4-.3.2.2-.4h-.9l-.6.6v.3q-.4 0-.9.4l-.2.1q.3-.5.8-.8.3-.1.5-.6c-.4-.1-.7.2-1.1 0l-.1.1-.7.7.7.1c-.3.3-.7.1-1.1.2l-.3.3-.3.3.7.2c-.3.3-.7 0-1.1.2h2.5c-.4-.2-.9.1-1.3-.2l.6-.4v.2h1.1l-.1-.1.6-.5c-.1-.2-.4.1-.4-.3h.5l.5-.2h.1l-.1.1.4.1.4.1-.3.1q-.9-.1-1.3.6l.4.2q-.2.3-.5.1l-.3.2 1.1-.1-.2-.2.3-.1q.3.1.4-.1.4-.2.6-.6l.7-.7 1.4-1.3-.1-.1.4-.3.7-.6-.2.4-.4.4-.9.9 1 .1 1-.9q.4-.6 1-1c0 .4-.6.6-.5 1q-.4 0-1.1.9h.5l-.4.1-.4-.1-1.8 1.8c0 .2.4 0 .3.2q-.7 0-.7.3l1 .1.2-.3.1-.1q.6-.4 1-.9l.8-.6-.1.4q.6 0 1.1-.2.2.3.6.4h-.8l-.7.7q-.4.3-.6.7h1.1l.4-.5-.9-.1q.6-.3 1.1-.1l.7-.5q-.2.6-.6.8l-.5.6h.8l.6-.6c-.1-.1-.4.2-.4-.2l1.1-.1-.9.9h1l.6-.6-.6-.1.1-.2h.4q.5 0 .8-.3l.2-.2h-1.1l-.4.4.1-.3.1-.3h-1.6l.3-.1q.4 0 .6-.3h.2v.2h2.2q.2-.3.6-.3l-.2.3c.7 0 .7 0 1.6-.3l-.2.3.2.2c-.6.1-.6.1-1.1.7h1.1l.2-.5c-.2-.2.2-.3.1-.5l-.1-.6-1.5.2-.2-.1-.9-.1q-.3.3-.5.3l.1-.3h-1q.2-.6.8-.8l-.3.6q.6.1 1.1-.1 0 .3.3.2l.9-.1.5-.5h.3l-.4.6.8-.1q-.2-.9-.7-1.6l-.7.7.5-.8-.5-.5q-.7.5-1.2 1.4l1 .1q-.4.5-.8.7l.3-.6q-.6 0-1.1.2l-.1-.1q-.4.1-1-.1l-.2.1-.2.1-.1-.1 2.3-2.2-.7-.4.1-.2h-.1q-.4.2-.7-.1l-.5-.1-.8-.2-.1-.4q-.3.3-.6.3l-1.4-.1-.9-.1q.3-.3.7-.1h1.1l-.5-.1-2.2-.3-2-.1h-.2l-2.5-.2q-.7-.2-1.5 0h-.2l-1.2-.1h-2.5l.2-.3h-.2q-.4.3-1 .2h-2.9l.1-.3-.7.2h-2.8l.1-.2q-.6 0-1.1.2h-3.8l-.5-.2q-.2.2-.5.1h-.3q-.6.2-1.2.1l-1.2-.1h-.2l-.5.1-.9.1h-.9q-.2-.4-.5 0l-.2.1-1 .1h-.4c.2-.4.5-.1.8-.3l-.9-.1q-.4 0-.7.4l.5-.1-.3.3-2.1.6q-1.7.6-2.2 2.2l-.1.3q.3-.5.7-.7.3-.4.8-.4l-.6.6q-.4.2-.4.6H66l-.2.2q-.1.4.1.9l.4-.3.3-.1q-.2.5-.6.7l.4.8 1.1-1.1-.1-.1.4-.3.7-.7.2-.1v.1l-.8 1-.9.9 1 .1.3-.4.6-.5.9-.9.3-.2-.2.3-.4.4v.3q-.3 0-.6.3t-.5.6l.7.1-.3.1c-.3.2-.5-.3-.8 0l-.5.6-.4.5.7.3.4-.4.7-.6h.1l-.1.3q.6.1 1.1-.2.2.3.6.4H70l-.6.2.1-.2-.8-.1-.6.5.7.2q.2-.3.6-.3l-.1.3q-.2 0 0 .2v-.2h1.1l.7-.5-.2.5q0 .2-.3.3h.7l-.2-.2c.3-.3.7 0 1.1-.3l-.1.4h.2l.1-.3h.3q.7.2 1.1-.6h-1.2l-.5.4.3-.5-1.6-.1.2-.1q.4 0 .6-.3l1.2-1.2.3-.1-.4.6 1.1-.1q0 .3.3.2l.8-.1q.4-.4.9-.5l-.4.7 1-.1.8-.8-.5-.1v-.1h.7l.3-.4.2-.1-.2.5h.6l.2.1h-.9l-1.2 1.1h-.7l-.8.1-.1-.1-1.1-.1-.7.7-.1-.1.5-.6h-1l.1.2-.9.6h2.3q.2-.3.6-.3l.1.1-.2.3q.8.1 1.3-.3h.1l-.1.3.2.3q-.7 0-1.2.6h1.1l1.1-1.2.3-.2-.3.4.4.3h-.5l-.6.6h1.1q.3-.2.5-.6l-.3-.1q1 0 1.4-.9h-.8l-.4.1-.4.2q0-.4.4-.7l.7-.7.5-.1-.8.9h1.2l.6-.6q-.4 0-.6-.2.4-.3 1-.1l.7-.7.2-.2q-.1-.1.1-.2.3 0 .5-.4l.8-.7q.1.3-.2.4l-.6.6-.1.3q-.7.4-1 .9t-1 .9h1.2l.5-.6.7-.6-.9 1.1q.9.2 1.5-.5l.3-.3q.2-.3.6-.3l-.1.1-1.7 1.6h-.2l.3-.4-.5.1-.4-.1-.8.7q.2.2-.2.3h-.1l-.7.6h1.1l.6-.6-.5-.1.4-.2q.3.1.6-.2h.1q0 .3.3.2l.6.1h-1.1l-.6.6.6.4.1-.3h.6l.6-.7.7-.6.7-.7q.5-.2.5-.6l.1-.1.3-.2.7-.7.2-.1q-.7 1-1.7 1.9l1 .1.3-.3q.7-.4 1.2-1.2.2-.3.6-.4l-.5.7v.2q-.7.3-1 .9l.5.1-.4.1-.4-.1-.7.9-1.1 1 .5.1-.1.2h-.1v-.1h.3q-.2-.2.1-.3l.2.2-.1.1.1-.1 1.8-1.4-.1.3q.6.1 1.1-.2l.2.2.2.1.2.1-.5.1-.5.2q-.3.1-.3.4.4-.1.2 0l-.2.2h.9l-.5-.1zm-29.9-2.9q.3.3.6.1v-.3q-.5-.1-.6.2l-.1-.2q-.3 0-.3.2.1.2.4 0M22.8 66s-.1 0 0 0q-.1 0 0 0l1-.3q-.5-.3-.9-.1-.2 0-.1.4m.1 10.2v.3c.2.3.4.1.6.2q.2.1.4-.2zq-.1 0 0 0-.1 0 0 0-.1 0 0 0m6.9-2.8q-.7 0-1.2.5-.2.1-.1.4zm-.1-4.6-.2-.2-.9-.6-.3-.2q.5 1 1.4 1 .2 0 0 0 .1 0 0 0 .2 0 0 0m3.2 5.4.9 1q.3.5.7-.1l-.8-.6zq0-.1 0 0-.1-.1 0 0-.1-.1 0 0m-.1-6.2s0 .1 0 0l.2-.1 1.4-.9q-.3-.6-.8-.1l-.1.1zm59.8 5.3q0-.1 0 0 0-.1 0 0 0-.1 0 0h-.5l-.2.1-.6.6.5.1v.1l-.7.1h.8q0-.3.2-.2zm8.2-.4-1 .9h1.1l.6-.6-.6-.1zl.9.1.8-.8h-1zm-73.9-4.7q-.2 0-.3.2zl.2-.1q.3-.3.4-.7h-.2l-.3.1q.4-.7.1-1.3l-.2.3c-.3.5-.3.5-.3.9l-.4-.2v-.1h.1l.1.6.1-.3.3-.1q.2-.1 0-.4v-.1l.2.1v-.2l.1.1v.6l-.1.1zM80 73.3h-.8q-.4 0-.6.3l-.4.4.6.1q.3.1.6-.1zl.3-.3.7-.7h-1.1l-.7.7.8.1zm-53.1.7.1.2-.2.1.3.1-.1.6h-.1q0-.4-.3-.4l-.1-.1q.1-.2-.1-.2l-.1.6h-.1v-.1l.4-.2c0 .5 0 .5.6 1.2q.3-.6 0-1.2l.4-.1-.5-.7q0 .3-.2.2-.1-.3-.5-.2zm6.2-.4a7 7 0 0 0 2.1 1.1q.3.2.6-.2l-1.5-.6q-.6-.4-1.2-.3l-.2-.1v.1zm-9.4-6.5q.3.4.8.1l.4-.1 1.5-.3.3-.2-1.1-.1-.9.2zq0-.1 0 0l-.1-.2-.1.1zm8.5 7.6v-.1q-.2-.5-.8-.6t-1 .1l-1.9.8-.7.3-.1.3 2-.8 1.1-.4q.8 0 1.4.4.1.1 0 0m34.4-1.4v.2q.4.7 1.2 1 .8.5 1.8.5.6 0 .7.5h.1q.3-.8-.5-.8-1 0-1.9-.4l.6-.1q-.2-.3-.5-.2-.9-.1-1.5-.7-.2 0 0 0-.2 0 0 0-.2 0 0 0m-.1-5.1 1.1-.8.2-.1 1.3-.4.7-.2q.7-.3.3-.9-.1.6-.9.6a4 4 0 0 0-2.3 1q-.3.3-.4.8m-35 5h-.4q.4.2.4 0a7 7 0 0 1 3.5.6l1.9.6c.9.2 1.1 0 1.6-.2l.3-.3v-.5q-.1-.3-.5-.2 0 .8-.6.9-1.2 0-2.3-.5a10 10 0 0 0-3.3-.6s-.4.1-.6.2m13.4 0-.2-.2v.3q.4.7 1 .8l1.4.1q.8 0 1.6-.4l2.1-1.2.6-.4q1.3-.8 2.8-.7 1.2 0 1.6 1 .2.6.7.3 0-.6-.3-.9l-1.5-.7q-1.1-.2-2.2.1-1.6.6-3 1.5-1.2.8-2.8.9-.5 0-.9-.4-.3-.3-.3-.8l.3.4h.6q.2-.2.1-.5l-.2-.2-.7-.3q-.7 0-.8.7zm.3-4.5-.1.8q.3.5.9.5.4-.2.6-.5.2-.4 0-.5-.2-.3-.5 0l-.4.4.1-.6.7-.5q1.2-.2 2.2.4l2.5 1.3q1.2.6 2.5.8l.7-.1q.7-.1 1.4-.6.6-.3.9-1-.5-.4-.8.2-.7 1.2-2.1 1.1l-.5-.1q-1.3-.2-2.4-1t-2.6-1.4q-1.3-.4-2.7.1-1 .3-.7 1.4l.2-.3q-.2-.3.1-.4m-15.8 1.6.4.4 1.5-.1 5.3.1.7.1h.7l3.9.1 1.6-.1h2.3l.9.1q-.4.3-.9.2h-4.1l-1.2-.1h-1l-9.1.1q-.6 0-.8.5h1l.3-.1.1.1h1.2q.4.3.7.1h3.2l.2.2-1.3.1v1l1.3.5q.8.4 1.6.3.3 0 .3-.3t-.2-.3l-.4-.1c.2-.3.6 0 .8-.4h-1.5l-.1.4-.2-.3-.8-.1q-.3.1-.9-.2l1.6-.2.2-.4h.1v.2l-.1.2h1.7v-.2c-.4-.3-.8-.1-1.2-.2q.4-.3.9-.3h.4l.3.1.9-.1H46l.3-.2q.2.2.5.1l.1-.4q0 .4.4.4.3.1.6-.1l-.7-.3.8-.2q.3.1.6-.2-.8-.3-1.6-.3l-.1-.6h-.1q-.4 1-1.7.7l-1.2-.2-2.1-.1h-.4l2.1-.2h.9l-.2-.3H44l-1-.2-1.7-.1-.3-.1v-.1l.8-.1-.7-.1-1.6-.3-.2.1.3.1.3.1q-.7 0-1.4.4h1l-1.5.2h-2.7l-.3-.1h-1.2l-1.5.1-1.4-.1-.6-.1q-.7 0-1.3-.3l-.4.8h.2l1.2-.2 1.6.2 2.7.1 4.9.1h.1-1.9l-1.8.1h-3.3zm26.2.3.5.1h.3q.5-.2.9-.1l2.8-.1h.1q.7.2 1.5-.1l-.4-.4.4-.1v-.3h-4.5q-.4 0-.5.3h3.9l-.9.2h-2.1l-.5-.1q-.3-.2-.6.1zM38.5 69l.2-.1q.6-.3.1-.8l-.3-.2-.9-.2q-1 0-2 .4l-1.7.6q-1 .4-2 .3l-.7-.1q.4.3.8.2 1 .2 2-.1l1.7-.6q.9-.4 1.9-.4t.9 1m10.2 1.9q.5.5 1.2.7h.3l1.5-.4-.8-.1-.7-.1h1.6l-1.3-.4q-1.1-.6-1.8.3m-17.5 4.6q-.8.1-.6.7.4.2.8 0 .6-.2.5-.6v-.3q-.6-.5-1.2-.2-1.2.3-2.2.8l1-.1q.6 0 1.1-.3.3-.4.6 0m-.1-8.8q-.1.2-.4.1l-.6-.3-1.2-.2h-.5l.4.2 1.4.5q.9.4 1.7-.1v-.6q-.4-.4-1-.4l-.3.2q0 .3.2.4zm76.9 4.2 1.5-1.5-.9-.3-1.7 1.7zm-42.8-2.3v4.2h.4v-4.3zm30 4.5q1 0 1.5-1l-.5.1h-.3q-.4-.2-.7.2l-.5.4v.1zh-.6l-.5.6h1l.6-.6zm-9.8-.9h-1l-.8.8-.8.8h1l.6-.6-.6-.1V73q.4-.2.8.1zm-38.3-2.1h1.2q.7.2 1.2-.3-.7-.3-1.5-.1l-.2-.2q.3-.2.2-.5l-.7-.1q-.3.5-.2 1.2m-19.4-3.4.3.2 2 .8q.6.3 1.3.3.9 0 1.1-.9h-.1l-.1.1q-.6.5-1.4.3l-.6-.2zm37.1 2.9h-.9q-.3 0-.3.3v1.8l.1.1q-.1-.3.2-.6.6.4.4-.2H64l-.2.1q0-.7.2-.6l.2.4q0-.6.4-.6-.2.5.1.5zm-29.2-.5 2.5.2q-.3 0-.4-.3h.2q.4 0 .4-.3 0-.4-.4-.3l-.9.1q-.8.1-1.4.6m-14 6.2-.2-.3-.6-.5a8 8 0 0 1-1.8-2.4v-.3l-.3-.1q.2 1.2 1 2.1a5 5 0 0 0 1.9 1.5m87.4-2.2-.7.7.5.1v.1h-.7l-.7.7c.9.2.9.1 1.6-.6l-.1-.1q.5-.2.9-.8zm-87.5-5.9c-1.2.4-2.7 2-2.8 3.4l.4-.1-.1-.2.3-.5q.6-1.3 1.9-2.2zm2.3 8q1.9.8 2.9.4l-.5-.2-.6-.1-1.2-.4q-.3-.2-.6.1l-.5.3.4.1zm11.9-7.6q-.5-.3-.8-.1-1 .4-1.9 1 1.4-.2 2.7-.9m26.5 1-.2.1v4.1l.1.1q.3-.2.2-.3-.1-.9.1-1.8l-.1-1.8zm.9 3.8.1-.2q-.1-.7.1-1.4l-.1-1.4-.1-.2q-.3.3-.2.7l.1.5-.1 1.3q-.2.3.2.7m4.1 0-.3.4.5.5.8-.8zm36.3.6-.7.7q1 .2 1.6-.6zM74 74l.5.1.5-.1.6-.7h-.8zm11.6-.1h1l.6-.6-.7-.1zm-44.4-1.6h1.1v-.5h-1.1zm67.5 2.2q.7 0 1.4-.3.2 0 .2-.3h-1zm-74.5-2.6v.5c.3 0 0 .3.1.4l.4.1q.3-.4.1-.9-.3-.3-.6-.1m13.4.3h.9l-.4-.5h-.8q0 .3.3.5m-5.1-.4q-.1.3.1.5l.9-.1v-.4zm-18.3-2.7q1.7-.2 1.6-1.2l-.7.7q-.4.4-.9.5m.3 4.1q.6.1.9.7.1.3.5.4 0-.4-.3-.7-.4-.5-1.1-.4m9.5-1.4h-.8q-.4 0-.3.4h.7q.5.3.4-.4m-13.4 1.5.2-.6-.3-.4-.5.2q.1.5.6.8m20.5-1.4q-.6-.1-1.2.1v.3h1zm3.2.3q.4-.3.3-.5h-.9l-.2.1v.4zm8-2.6q1.1.4 2.3.1zm50.2 4.4-.5.5h.7q.4 0 .5-.4zm-72.9-1 .4-.2-.3-.5q.3-.1.2-.4h-.4q-.2.6.1 1.1m23-.8 2.1-.1c-1-.3-.7-.2-1.8-.1zm-13.9.1h1.1V72h-1.1zm-18-2.8-.2-.6q-.4.4-.5.8l.4.1q.2 0 .3-.3m11.2 2.8v-.4H31v.3zm9.3.4q.6.2 1.1.1l.1-.1-.1-.2c-.8 0-.8 0-1.1.2m-9.1-.4h.8v-.4h-.6zm8.9.6c-.1-.2-.8-.4-1-.2v.2zm-2.3-.2q.5.2 1.2 0l-.3-.2zm4.7-.2h-.8v.3h.7zm5.5 0h-1.1l.6.3q.3.2.5-.3m51.6 1.6h-1l-.2.2c.4-.1.8.2 1.2-.2M30.8 72q-.3-.3-.8-.1v.3q.6 0 .8-.2m16.4.2-.2-.5-.4.1c.2.1.1.5.6.4m10.7-1c.3.2.4-.2.6-.2v.2q.4 0 .2-.3H58zm2-.4c-.4.2-.8-.2-.9.3q.3.2.5-.1h.1l.1.2zm-30.6 1.1q-.2 0-.5.3l.3.5zm18.9-2.5.7-.1q-.6-.5-.7.1m10.2 2.5h.4l-.1-.4h-.3zm-1.4-.4q0 .5.4.3v-.3zm2 .4.3-.2v-.3H59zm-31.1 2.8.2-.4h-.5l-.1.1q.3 0 .4.3m32.7-2.9q.1-.3-.2-.5l-.1.4v.1zm-12.1-.2q.4.6 1 .4zm12.4.2q.3 0 .3-.3-.2-.2-.3 0zm-30.8.8q0 .3.8 0zm-8.6 1.3-.3-.1-.3.2.2.2zm6-6h.6l-.4-.3zm34.3 3.3-.2-.3q-.2 0-.3.2v.1zm-14.7 1.2q.2.3.6.5-.1-.4-.6-.5m-7.6 1.1.4-.1q-.2-.3-.6-.3zm55.3.7V74l-.8.1zm-47.9-5.1.1-.5h-.4zm-3.1 3.8.5-.4h-.5zm-22.6-4.4.3-.3-.5-.1zm39.6 2.4q0 .4.3.2 0-.2-.3-.2m-.1 0h-.5l.1.4zm3.9.5v-.5q-.3.3-.1.5m20.6 2.7s0 .1 0 0h.8V74zm-56.9-4.4q.5-.3.3-.6zm30 2.3v-.4l-.2-.2q-.1.3.2.6m1.8-.8-.1.3q0 .3.2.3zm1.4.5q.3 0 .3-.3-.4 0-.3.3m3.4.1-.1-.2-.1.1zm-16.7-.6h.5c-.2-.2-.4.1-.5 0m-1.5 2h.7zm9.1-2v-.1l-.1-.2h-.1v.2zm-34.2.5-.4.1q.3.3.4-.1m6.5 2-.1.1.1.3.1-.1zm-7-3.4.6.1q-.3-.2-.6-.1m4.9-2.8q.1-.2 0 0 0-.2-.3-.2l-.1.1zm2.7 5.6q.2-.3-.2-.4zm-.5.5.2.2.2-.2-.2-.2zm56 .7s0-.1 0 0l-.3-.2v.1zm-27.5-2.5q0-.2 0 0l-.1-.3h-.1zq0-.1 0 0m2.9.1v-.6zm4.8-.2-.1-.1-.1.1zm-9-.6-.2-.2v.1zM28 68.4l.1-.1-.1-.1-.1.1zM56.3 71h-.4q.3.3.4 0m-28.6 2.8q-.2 0 0 0l.1.3h.1zm.1-5.7q-.2 0-.2.3zm.3.4.2.2v-.4zm-5.5-1.8.2-.1-.1-.1zm82.5.9h-.3zM60 70.9v.3h.1zm-34.3 3.9h.3v-.1zm57.4-.6q0 .2 0 0 .1.1.2 0zm-11.3 0s0 .1 0 0q.1.1.2 0zM23.6 66l-.1.2zm0 10.2q.2 0 0 0 .2-.1 0-.2.2.1 0 .2m-.8-.6h-.2zm-.4-8.1s0 .1 0 0v.1q.2 0 0-.1.2 0 0 0m.2 7.2q0-.1 0 0l-.2-.1zm70.3-.6.2.1v-.1zm-67.1.4q.1.1.2 0zm.1-6.7q.2 0 0 0 .2 0 0 0M70 74.3q.2 0 0 0M23.9 65q0 .2 0 0 0 .1 0 0m.1 12.1q0 .2 0 0 .2 0 0 0M23.8 66q.2 0 0 0m.1 10.2q0-.1 0 0m-.2-10.9q0-.1 0 0m7.4 7.3q.2 0 0 0 .2 0 0 0M22.9 75q0-.1 0 0 0-.1 0 0m-.2-7.7q-.1 0 0 0-.1 0 0 0-.1.2 0 0 0 .2 0 0m-.1 7.6q.1 0 0 0 .1 0 0 0 .1-.2 0 0 .1-.2 0 0m-.2-.5q-.1 0 0 0m4.9-6.2q-.2 0 0 0m0 5.8q0-.2 0 0 0-.2 0 0 0-.2 0 0m-6-5.2s.1 0 0 0m0 4.6s0 .1 0 0q.1 0 0 0 .1 0 0 0m5.6 2.7s0-.1 0 0q0-.2 0 0 0-.2 0 0"/><path d="M105 34.4q0-.1 0 0-.1-.1 0 0 0-.1 0 0"/><path d="M33.9 19.9H35l-.3-.5a16 16 0 0 0-4.3.7l.4.5.7-.2v-.3h.1l.2.3.9-.2-.1-.3c.3-.1.1.3.3.3l.9-.1zq-.2 0-.2-.3.3.2.2.3"/><path d="M40.9 20.3q.4.5 1.2.5l.2.2.7.2q.1-.6-.3-.7l-.6-.2-.1.2c-.2-.5-.8-.3-1.2-.6z"/><path d="m47.5 22.1.1-.2q.3.6.9.9v-.4l-1.9-1.3q-.2.4.1.6z"/><path d="m50.4 28.5-.3 1.2.3-.1q.3-.5.3-1.2l-.1-.2-.1-.2c.1-.4.1-.4-.1-.9v.4l-.1.7zq.1-.1 0 0"/><path d="M36.1 19.8q.3.3.6.2h.5v-.1l-.3-.5-.8-.1z"/><path d="m26 21.7-.9.4.5.5.8-.5z"/><path d="m36.1 19.8-.3-.4h-.9l.3.6h.9z"/><path d="M37.3 19.5c.2.7.7.6 1.2.6-.2-.7-.1-.7-1.2-.6"/><path d="M39.8 20.3q-.1-.4-.4-.6t-.9-.2l.1.4q0 .3.3.3z"/><path d="m29.6 21.1-.3-.4-1 .2.3.5z"/><path d="m40.9 20.3-.1-.2-.2-.2-.8-.1.1.5.1.2.7.1z"/><path d="m35.7 20.8.1.3 1.9.1q0-.3-.2-.3h-.9zq.2 0 0 0"/><path d="m28.5 21.4-.2-.2-.2-.3-.9.3.5.5z"/><path d="M46.5 21.6q0-.5-.3-.7l-.7-.3q-.2.6.4.7z"/><path d="m45.5 21.8-1-.6q-.2.4.2.6l.6.3z"/><path d="m51.7 28.7-.4.5v1.2z"/><path d="m30.2 20.3-.8.2c.4.5.3.5 1.1.3l-.1-.3z"/><path d="m27.4 21.8-.4-.5-.8.3.4.5z"/><path d="m44.3 21.6-.1-.5-.8-.4c-.1.6 0 .5.4.7q.2.3.5.2"/><path d="m24 25.3-.5-.2-.7.5c.4.4.4.4.8.1z"/><path d="m29.7 22.5.3.4.9-.2-.3-.5z"/><path d="m45.5 21.8.1.4 1 .6-.1-.5z"/><path d="M23.9 25.3q.5-.1.9-.5l-.3-.3-.8.5z"/><path d="m25.6 23.9.3.4.8-.4q-.3-.5-.8-.2 0 .2-.3.2"/><path d="M33.1 22.3h.9l-.2-.4H33q-.1.4.1.4"/><path d="m27.4 23.2-.8.3.3.4.9-.3z"/><path d="m24.7 24.4.4.3.7-.4q-.5-.5-1.1.1"/><path d="m29.9 21.5-.9.3q.3.5.7.2l.4-.1z"/><path d="m28.1 23.5.7-.2-.4-.4-.8.3z"/><path d="m49.3 26.5.2-.4-.7-1.1q-.2.4.1.8z"/><path d="M32.3 21.3q.5.2 1.1.1l-.2-.5-.9.2z"/><path d="m22.9 24.5.3.3.8-.5-.3-.3z"/><path d="M31.9 22.5c-.3-.5-.3-.5-1.1-.2l.3.4z"/><path d="m32.3 21.3-.3-.2-.8.1.3.4.8-.2z"/><path d="m37.2 21.9.2.4.9.1-.1-.4z"/><path d="m22.2 25.4.4-.1.5-.4-.4-.2-.6.5z"/><path d="M36.1 22.2c-.1-.6-.6-.4-.9-.4q-.1.3.1.4z"/><path d="M32.7 22.1h-.9l.3.4h.8z"/><path d="m28.6 22.8.4.4.6-.2q-.1-.5-.5-.4z"/><path d="m30.1 21.4.3.4.8-.2-.2-.3z"/><path d="m25.2 23.7.8-.4-.3-.3-.8.4z"/><path d="m25.9 22.8.4.3.7-.3-.2-.2h-.2l-.3.1z"/><path d="m34.8 21.9-.7.1q.2.7.9.2 0-.3-.2-.3"/><path d="M29.1 22.1q-.3-.5-.7-.2l-.4.2.3.3z"/><path d="M46.7 22.4v.4l.8.5q.2-.3 0-.4z"/><path d="m27 22.4.4.3.7-.3q0-.3-.4-.3z"/><path d="M25.1 23.7c-.5-.4-.8 0-1.1.2q.3.4.6.1z"/><path d="M36.2 21.9q.3.6.9.4 0-.5-.3-.4z"/><path d="m34.5 21.2-.2-.4-.8.1.3.3z"/><path d="M39.4 22.5v-.4l-.8-.1q-.1.3.1.4z"/><path d="M49.5 26.4q-.1.9.2 1.4l.2-.2z"/><path d="M47.7 24.3c0 .6.5.7.7 1.1.2-.7-.3-.8-.7-1.1"/><path d="m34.5 20.8.3.4.8-.1q0-.3-.3-.3z"/><path d="M40.4 22.6q0-.5-.8-.3c.2.4.2.4.8.3"/><path d="M42.6 23.2v-.3q-.3-.3-.8-.3-.2.3.1.4z"/><path d="M34.9 24c-.2-.5-.6-.2-1-.3.3.5.7.2 1 .3"/><path d="M47.7 23.1v.4l.8.6q-.1-.7-.8-1"/><path d="m30.9 24 .2.3.8-.1v-.3c-.4-.1-.7.2-1 .1"/><path d="M35.9 24v-.3h-.8q0 .4.8.3"/><path d="m28.8 24.5.3.3.8-.2-.2-.3z"/><path d="m40.5 22.3.2.4.7.1v-.3z"/><path d="M28.9 24.8q-.3-.3-1 .1l.2.2q.5 0 .8-.3"/><path d="m51.4 28.6.2-.3q.1-.6-.2-1.2z"/><path d="m26.2 25.9-.3-.3-.7.5.3.2z"/><path d="M27 25.4q.5 0 .8-.2-.1-.3-.8 0z"/><path d="M48.9 22.7q.2.6.8.9c-.1-.6-.6-.6-.8-.9"/><path d="M36 23.7c.2.5.6.2.9.3q0-.3-.2-.3z"/><path d="M49.4 25q-.1-.6-.6-1.1-.1.3 0 .4z"/><path d="M32 24q.4.3 1 .1l-.2-.3q-.4-.1-.8.2"/><path d="M27 25.4q-.5-.2-1 .2l.3.3z"/><path d="m24.4 26.6.2.2.7-.5-.3-.2z"/><path d="M30.9 24.3q-.6-.4-.9.1c.4.1.4.1.9-.1"/><path d="M33.9 24q-.3-.5-.9-.2.3.4.9.2"/><path d="M39 24.2c-.3-.5-.6-.3-1-.3v.1z"/><path d="M44.5 23.8q-.2-.4-.8-.5 0 .4.3.4z"/><path d="m46.3 33.8.4-.1.4.3-.2-.5.2-.3-.3.1q-.1.1-.2 0-.3-.1-.1.1z"/><path d="M43.5 23.5c0-.5-.4-.4-.7-.6q-.2.3.1.4z"/><path d="m23.7 27.2.2.2.5-.5-.2-.2z"/><path d="m47.7 24.3-.3-.3-.6-.4v.3l.6.4z"/><path d="m50 23.7-.1.1.8.9z"/><path d="M37.1 23.8c.4.3.4.3.8.3l-.1-.3z"/><path d="M45.6 24.3q-.2-.5-.8-.5-.2.2.8.5"/><path d="M39.1 23.9c.2.5.5.3.8.4v-.2z"/><path d="M39.4 34.6c-.3-.7-.4-.7-.7-.9v.2l.5.7z"/><path d="m38 21 .1.1.9.1v-.1z"/><path d="m46.5 24.7-.8-.5q.4.5.8.5"/><path d="m36.9 34.6-.1-.3-.3-.5-.2-.1z"/><path d="M40.2 24.3q.3.3.8.2-.5-.3-.8-.2"/><path d="m42.5 33.6-.1.2q.2.3.7.4z"/><path d="m50.4 29.6-.3.3v.3h.1q.3-.1.2-.6"/><path d="M46.6 23.7q-.4-.4-.9-.5.3.3.9.5"/><path d="M42 24.8c-.3-.4-.6-.2-.8-.3l.1.2z"/><path d="m39.2 21.2.8.3c-.2-.4-.5-.2-.8-.3"/><path d="m51.5 24.4-.3-.8q-.1.6.3.8"/><path d="M45.4 23.1q-.2-.4-.7-.3z"/><path d="M42.1 24.7q.1.2.4.2l.4.1q-.2-.2-.8-.3"/><path d="m49.7 29 .1-.9c-.2.2-.2.2-.1.9"/><path d="M41.5 34.3q0-.3-.5-.6.2.5.5.6"/><path d="m35.5 33.9-.2-.6q-.3.5.2.6"/><path d="m43.7 25.3-.5-.3.1.2z"/><path d="m44.5 25.6-.5-.3q.2.3.5.3"/><path d="M49.1 32.4q.3-.1.3-.4-.2 0-.3.4"/><path d="M34.1 33.5q0-.3-.4-.5z"/><path d="M31.2 32.7q0 .2.3.1v-.2q-.2-.1-.3.1"/><path d="m49.9 25.5-.2-.5q0 .5.2.5"/><path d="m22.1 27.5.3-.3q-.4 0-.3.3"/><path d="M51 25.3q0-.2-.2-.3 0 .3.2.3"/><path d="M47.3 25.2 47 25q0 .2.3.2"/><path d="M45.2 33.7q0-.2-.2-.2z"/><path d="M44 22.5q.1.2.4.1z"/><path d="m49.1 33-.1-.1v.1q0 .2.1 0 0 .2 0 0"/><path d="m47.3 25.2.2.2q0-.2-.2-.2"/><path d="m47 25-.2-.2q-.1.3.2.2"/><path d="M22.5 27.1v-.2z"/><path d="m50.1 25.7.1.2z"/><path d="m47.9 25.7.2.1v-.1z"/><path d="m50.1 25.8-.1-.2z"/><path d="M51.1 25.3v.2q.2-.2 0-.2"/><path d="M50.3 32.1q-.2 0-.1.2.2 0 .1-.2"/><path d="m51.6 24.6-.1-.2q-.1.2.1.2"/><path d="m45.3 25.9.1.1v-.1z"/><path d="m51.6 24.6.1.2z"/><path d="M45.1 25.8q0 .2.2.1z"/><path d="m45.1 25.8-.2-.1v.1z"/><path d="m50.3 32.1.1-.1h-.1z"/><path d="m44 22.5-.2-.1v.1z"/><path d="m43.7 34.5.2-.1z"/><path d="M51.7 24.8v.2q.2-.1 0-.2"/><path d="M40 35h.2v-.1z"/><path d="m49 32.5.1-.1z"/><path d="M36.9 34.6q.2 0 0 0"/><path d="m48.2 33.6.1.1z"/><path d="m47.8 25.5.1.1z"/><path d="M47.7 25.6q0-.1 0 0 0-.1 0 0 0-.1 0 0"/><path d="M47.1 33.1q.2 0 0 0 .2 0 0 0 .2 0 0 0"/><path d="m47.2 33.2-.1.1z"/><path d="m53.9 30.6.1-.1z"/><path d="M54 30.6q-.1 0 0 0-.1 0 0 0-.1 0 0 0"/><path d="M53.9 26.3s0-.1 0 0q0-.1 0 0"/><path d="M45.9 26.2s.1 0 0 0"/><path d="M45.2 33.7s0 .1 0 0q0 .2 0 0"/><path d="M49.4 31.9q.2 0 0 0 .2 0 0 0 .2 0 0 0"/><path d="M43.7 25.2q0 .2 0 0 0 .2 0 0 0 .2 0 0"/><path d="M90.4 27.3h.4z"/><path d="M93 29q0-.1 0 0 0-.1 0 0 0-.1 0 0"/><path d="m102.7 30 .1-.2.2.2.1-.3.2.1q0-.3.3-.1 0-.4.3-.1l.1-.2.2.1.2-.3.1.4.1-.4.2.2.2-.3.3.2.2-.4q-.8-.2-1.5.2l-1.4.8q.1-.1.1.1"/><path d="M103.3 26.2s-.1 0 0 0l-.2.1-.1-.3q0 .3-.3.2l.1.1 1.5.7q.5.2 1.4.1l-.2-.1-.1-.2v-.1l-.3.2q-.2-.1-.2-.3l-.3.3v-.5l-.3.4-.1-.3-.2.1-.1-.3-.1.1q-.1.3-.3-.1-.2.3-.2-.1"/><path d="m101.8 28.4-.2.1.4.3.1-.1z"/><path d="m102.5 27.2-.1-.1-.3.4z"/><path d="M101.4 27.7v-.5z"/><path d="M101.4 28.7q.2-.4-.2-.4z"/><path d="M102.1 27.1q-.2 0-.5.3.4 0 .5-.3"/><path d="M102.7 27.3v.3l.3-.4z"/><path d="m103 28.7-.2-.3h-.1v.1z"/><path d="m102.4 28.8-.2-.3q-.1.2.2.3"/><path d="M102.7 27.3q0-.2-.2-.1l-.1.4z"/><path d="M102.5 28.8h.2l-.1-.2-.2-.1z"/><path d="m105.6 27.6.3.1q-.1-.2-.3-.1"/><path d="m103.9 27.4-.2.2q.3 0 .2-.2"/><path d="M103.9 28.5q0-.2-.2-.2z"/><path d="M104.6 27.5q.1.2.2-.1z"/><path d="m104.6 28.4.2.1-.1-.2z"/><path d="m105 27.7.1-.2-.2.1z"/><path d="m105.1 28.5-.2-.1v.1z"/><path d="M105.6 28.3h.3q-.1-.2-.3 0"/><path d="m103.3 26.2.1-.1h-.1z"/><path d="M103.3 29.7v.2h.1z"/><path d="m103.3 27.3-.1.1h.1z"/><path d="M103.5 28.5v-.2q-.1.2 0 .2"/><path d="m102.7 26-.1.1.1.1z"/><path d="M103.3 28.6v-.2q-.3.2 0 .2"/><path d="M102.4 29.9v.2q.1-.2 0-.2.2 0 0 0"/><path d="M102.4 25.9v.2q.1-.1 0-.2"/><path d="M104.3 28.5v-.2q-.3.2 0 .2"/><path d="M104.6 27.5v-.3z"/><path d="M104.5 28.4s0 .1 0 0l.1.2zq.1 0 0 0"/><path d="M105.4 27.6v-.1l-.1-.1v.1z"/><path d="m105.4 28.3-.1.1v.1z"/><path d="m105.5 27.6-.1-.2z"/><path d="m104.3 27.4-.1.1zq-.1.2 0 0"/><path d="M104.3 28.5s0 .1 0 0q0 .2 0 0"/><path d="M104.5 28.4q-.1 0 0 0"/><path d="M105.4 27.6q0 .2 0 0"/><path d="M105.4 28.3s0-.1-.1 0"/><path d="M105.5 28.3s0 .1 0 0"/><path d="M102.7 26s.1 0 0 0q.1 0 0 0"/><path d="M102.7 30q.2 0 0 0 .2 0 0 0 .2 0 0 0"/><path d="M103.3 28.6q0 .2 0 0 0 .2 0 0 0 .2 0 0"/><path d="M103.5 27.4q0 .2 0 0l-.1.1z"/><path d="m103.6 27.3-.1.1z"/><path d="m103.5 28.5.1.1z"/><path d="M103.6 27.3s.1 0 0 0q.2 0 0 0"/><path d="M103.6 28.6q0 .2 0 0 .2.2 0 0 0 .2 0 0"/><path d="M103.9 27.4q.2 0 0 0 .2 0 0 0"/><path d="M103.9 28.5q.2.2 0 0 .2.2 0 0 .1 0 0 0"/><path d="m85 30.4-.1.1z"/><path d="m84.5 25.7.1.1z"/><path d="M56.7 29h.2v-.1z"/><path d="M56.1 29.6h.1q0-.2-.1 0 .2-.1 0 0"/><path d="M55.9 28.8s0 .1 0 0"/><path d="M110.5 27.8h-1.1q-.3.1-.7-.1h-.1l-1.2.3.2.1.7.1h.3q.7-.2 1.5-.1z"/><path d="m108.2 29.2.1.1.3.2v-.2l-.3-.3h-.2v.1z"/><path d="M107.9 28.4v.3l.2-.2v-.2z"/><path d="m107.9 27.5.2.1v-.2l-.2-.2z"/><path d="M107.9 28.4v-.2q-.2 0-.2.3z"/><path d="m107.9 27.5-.2-.3.1.3q0 .2.1 0"/><path d="M107.5 28.2v.3h.1z"/><path d="M108.1 27h-.3q.2.2.3 0"/><path d="M107.5 27.4v.2h.1z"/><path d="M106.9 27.6v.1l.1.1zq0 .2 0 0"/><path d="M107.3 27.5v.2z"/><path d="M107.3 28.4v-.2z"/><path d="m108.1 28.9-.1-.1h-.1z"/><path d="M106.9 28.1q.2 0 0 0 .2 0 0 0 .2 0 0 0"/><path d="m107.1 27.3-.1.1z"/><path d="m107 28.5.1.1z"/><path d="M107.1 27.2v.1q.1 0 0-.1.2 0 0 0"/><path d="M107.1 28.6v.1q.1 0 0-.1.1 0 0 0"/><path d="M107.8 26.6v.1h.1z"/><path d="M107.8 29.2v.1z"/><path d="M108.2 26.8v.1h.1z"/><path d="M106.4 22h.2l-.2-.3h-.1z"/><path d="m106.5 33.9-.1.1.1.2.2-.1.1-.2z"/><path d="M106.2 34.2q0 .2 0 0 0 .1 0 0 0 .2 0 0"/><path d="M81.9 26.9q0 .2 0 0 .2.2 0 0 0 .2 0 0"/><path d="M61.7 30.7h-.3q.2.2.3 0"/><path d="m61.4 25.9-.1-.1v.1z"/><path d="m62.3 26-.1-.1z"/><path d="M62.2 25.9v-.1s-.1 0 0 .1"/><path d="M102.8 23.9q.1 0 0 0v-.2zq0-.1 0 0"/><path d="M103 24s.1 0 0 0q.2 0 0 0"/><path d="M108.7 29.5v.2h.1z"/><path d="m108.3 26.6-.1.1v.1q.3 0 .4-.2v-.2z"/><path d="m108.7 26.4.1-.2h-.1z"/><path d="M56 27h-.1l.1.1z"/><path d="M91.2 51.3h2.6l-.2.2h-2.3z"/><path d="M81.9 48.4v-2.3l.1-.1z"/><path d="m77.7 51.3-.1-.1v-1.6l.1-.1q.2.9 0 1.8.2 0 0 0"/><path d="M79.7 50.6q.3.4.2.7-.1.4 0 .8.2.3-.2.6z"/><path d="m92.8 44.6-1.6.1v-.1z"/><path d="M81.4 53.8v-1.7q.5.9 0 1.7"/><path d="M78.3 50.5q.2.9 0 1.7-.2-.8 0-1.7"/><path d="M82.4 54.9v-2.3.3l.1.7v.6l.1.5z"/><path d="m97.2 44.7-1.2-.1q.4-.3 1.2.1"/><path d="m94.2 51.3 1.3-.1-.3.2z"/><path d="M95.3 44.6q-.7.2-1.3.1.7-.3 1.3-.1"/><path d="M85 54.1q-.7.2-1.3.1l-.1.2-.3-.2.5-.1z"/><path d="M85.9 48.2q0 .2 0 0l-2.1.1c.5-.1 1.5-.2 2.1-.1"/><path d="M83 51v.3c.2.2.5-.1.8.2l-.9.1z"/><path d="M89.6 51.3q.6-.2 1.1.1-.5.1-1.1-.1"/><path d="M80.5 48.4c0-.3-.4-.6.1-.9z"/><path d="M89.7 47.7q.4-.2 1-.1-.4.4-1 .1"/><path d="M81 53.5v-1.3q.3.7 0 1.3"/><path d="M91.7 54.7H90z"/><path d="M78.2 50.2v-1q.3.2.2.4 0 .4-.2.6"/><path d="M81.4 47.2q.3.5 0 1.1z"/><path d="M96.5 51.2q.6-.1 1.1.1-1 .2-1.1-.1"/><path d="M87.7 44.5h.7l.5.2h-1z"/><path d="M101 47.6q.6-.1 1.3.1h-.7z"/><path d="M81.9 48.8q.2.5.1.9a1 1 0 0 1-.1-.9"/><path d="M92.8 48.2h-.9q.4-.3.9-.2z"/><path d="m81.9 54.9.1-1.5h.1v1.1z"/><path d="M100 44.7c.4-.4.8 0 1.2 0h-.5l-.4-.1z"/><path d="m81.4 50.6-.1-.8.2.1v.7z"/><path d="M81.4 51.7v-.8l.2.2v.6z"/><path d="M81.9 44.9q-.2-.3 0-.4.2.3.5.1t.4.1z"/><path d="M83.5 54.7H85v.1z"/><path d="M83.7 47.8q.6-.2 1 0z"/><path d="M81.5 48.7v.9q-.3-.3-.2-.6z"/><path d="M103 54.6h-1.5l.1-.1h1.2z"/><path d="M97.2 47.6q.4-.1.8.1h-.8z"/><path d="m80.5 47.3-.1-1.2.2.2z"/><path d="M84.6 51.3h.8q-.5.4-.8 0"/><path d="m84.7 50.8-.1.1h-1.1v-.1z"/><path d="M88.2 51.4q-.3.2-.6-.1z"/><path d="M81.4 45.4v-.7q.3.4 0 .7"/><path d="M82.4 49.1v1.1z"/><path d="M82.4 51.5c.3.3 0 .7.1.9q-.2-.5-.1-.9"/><path d="M86 54.2h1z"/><path d="M81.4 46.8v-.7q.3.3 0 .7"/><path d="M82 51.9q-.2-.2-.1-.3v-.4q.2.4.1.7"/><path d="M77.6 46.2h.2v.6c-.3-.2-.1-.5-.2-.6"/><path d="M88.9 47.8h-.6q.2-.3.6 0"/><path d="M82.4 47.9v-.8q.3.3 0 .8"/><path d="M84.4 44.7q-.3.2-.6 0l.2-.2h.4z"/><path d="M86.9 51.4h-.5q.1-.3.5 0"/><path d="M86.8 48.3h.9z"/><path d="M80.6 50.1v.6h-.1l-.1-.3-.2.1z"/><path d="M79.7 49.9q.3.3.2.6l-.2-.2z"/><path d="m78.5 45.7-.2.4q-.3-.2-.1-.5z"/><path d="M78.1 46.3q.3.4.1.7z"/><path d="m95.3 54.7 1.1-.1z"/><path d="m87.8 45.1-1 .1z"/><path d="M90.7 48.2h.9z"/><path d="M88.9 51.4q.2-.3.6-.1l-.2.2z"/><path d="M80.6 49.1v.5h-.3v-.2z"/><path d="M82 45.8q-.3-.3 0-.7z"/><path d="M78.7 48.2v-.8q.1.4 0 .8"/><path d="M77.8 49.2q-.3-.2-.2-.6.3.3.2.6"/><path d="M86 47.7q-.2.3-.6 0z"/><path d="M85.8 44.6h.5q-.3.3-.5 0"/><path d="M95.9 44.6h-.5q.2-.3.5 0"/><path d="M96.4 47.7h-.5q.3-.3.5-.1z"/><path d="M98 44.7q.2-.3.4 0z"/><path d="M85.2 45.2h-.7z"/><path d="M81.9 53.3v-.5q.3.3.1.5z"/><path d="M89.3 48.2h.7z"/><path d="M86.2 45.2h-.7v-.1z"/><path d="M94.9 47.6h.7z"/><path d="M89.9 44.7h-.6v-.1z"/><path d="m83.4 47.9-.2-.1.1-.1.2.1z"/><path d="M81 47.3v-.6z"/><path d="M79.3 47.1v-.6z"/><path d="m78.3 49.1-.1-.3.1-.1.1.2z"/><path d="m94.8 51.7-.2.1h-.2l-.1-.1.2-.1h.3z"/><path d="M98.8 47.6h.3v.1h-.2z"/><path d="M81 50.3v-.5h.1z"/><path d="M96.5 54.6h.5v.1z"/><path d="M88 48.2h.5z"/><path d="m79.3 50-.2-.2.1-.1q.2 0 .1.3"/><path d="M82.4 48.5v-.6z"/><path d="M87.9 54.7h.5v.1z"/><path d="m96.2 51.4-.3-.1v-.1zq0-.1 0 0"/><path d="M96.9 47.6s0 .1 0 0l-.3.1v-.1z"/><path d="M91.1 47.7h.5z"/><path d="M86.2 54.8h-.5v-.1zq0-.1 0 0"/><path d="M81 48v.5h-.1z"/><path d="M82.4 46.3v.4z"/><path d="M93.7 51.8h.4v.1z"/><path d="M78.7 48.9v-.4.2q.1 0 0 .2.2 0 0 0"/><path d="m81.6 45.8-.1.1-.1-.1.1-.1z"/><path d="M81 51.6v.6z"/><path d="m83.7 44.8-.3-.1v-.1q.2 0 .3.2"/><path d="m78.4 47.6-.1.1-.1-.1.1-.1z"/><path d="M85.5 54.8h-.3v-.1zq-.1-.1 0 0"/><path d="M84.7 44.7h.3q-.1.2-.3 0"/><path d="M84.9 47.8h.2v.1z"/><path d="m85.9 51.3.1.2-.2-.1z"/><path d="M87.4 54.8h-.3v-.1zq0-.1 0 0"/><path d="m78.2 47.9.2.2q-.2.1-.2-.2"/><path d="M100.8 54.6h.3v.1z"/><path d="m100.4 47.6-.1.1q-.1-.1.1-.1"/><path d="m99.3 44.4.2.2q-.3.1-.2-.2"/><path d="M98.8 54.6h.3v.1z"/><path d="m98.3 47.7.2-.1-.1.2z"/><path d="M79.3 48.8q-.1 0 0 0l.1-.2v.1z"/><path d="M79.8 47.5v.2h-.1z"/><path d="M81 48.7v.3h-.1z"/><path d="M80.9 49.5v-.3h.1zq.2 0 0 0"/><path d="M81 50.5v.3h-.1z"/><path d="M99.7 54.7h-.3v-.1zq0-.1 0 0"/><path d="M82 52.2v.4h-.1v-.1z"/><path d="m82.1 50.4-.2.2v-.1z"/><path d="M82.3 48.9v-.3h.1zq.2 0 0 0"/><path d="M83.3 54.8h-.2v-.1z"/><path d="M77 47v.2h-.1z"/><path d="M77.8 47.8q0 .2 0 0"/><path d="M78.3 52.5s-.1 0 0 0"/><path d="M100.5 54.6h.2z"/><path d="M99.9 47.6s.1 0 0 0v.2z"/><path d="M82.5 51.3q-.1 0 0 0 0-.1 0 0 0-.1 0 0"/><path d="m83 51 .2-.1v.1q-.1-.2-.2 0"/><path d="M81.8 50.2q.2-.1 0 0h.2zq.2 0 0 0"/><path d="M82.4 45.8q0-.1 0 0v-.2zq0-.1 0 0"/><path d="M78.7 46.4v-.2q.1 0 0 .2"/><path d="M78.7 46.8v-.2q.1.1 0 .2"/><path d="M86.1 48.2h.2q-.1.1-.2 0"/><path d="M86.3 47.7q0 .2 0 0-.1.2 0 0-.1 0 0 0"/><path d="M78.8 49.1v.2q-.1 0 0-.2"/><path d="M86.5 54.7h.2q-.2.1-.2 0"/><path d="M86.8 54.7h.2z"/><path d="M81 51.1v.2z"/><path d="M97.2 54.6h.2q-.2.2-.2 0"/><path d="M97.7 44.7h-.2q.2-.1.2 0 0-.1 0 0"/><path d="M87.2 44.7v-.2z"/><path d="M97.9 51.4v-.2q.1.1 0 .2"/><path d="M87.7 47.8s-.1-.1 0 0v-.1z"/><path d="M98.6 54.7h-.2q.1-.1.2 0"/><path d="M99 44.6v-.2z"/><path d="M99.6 47.5v.2z"/><path d="M80.9 46.4v-.2q.1.2 0 .2"/><path d="M90.8 44.5h.2v.1zq0 .2 0 0"/><path d="M98.7 44.6s-.1 0 0 0"/><path d="M94.5 47.8q0-.1 0 0 0-.1 0 0 0-.1 0 0"/><path d="M93.7 44.7q0-.1 0 0 0-.1 0 0"/><path d="M93.3 44.7q.2-.1 0 0 .2-.1 0 0 .2 0 0 0 .2 0 0 0"/><path d="M93 44.7q0-.1 0 0 .1 0 0 0 .2 0 0 0"/><path d="M93 47.7s.1 0 0 0q.2 0 0 0 .2.2 0 0"/><path d="M83.2 44.7s0 .1 0 0q-.1 0 0 0"/><path d="M74.7 52q0 .2 0 0"/><path d="M75.6 47.7q.1 0 0 0"/><path d="M75.8 51.9s0 .1 0 0"/><path d="M77.7 47.4q0-.1 0 0 0-.2 0 0 0-.1 0 0"/><path d="M84.1 51.5q0-.1 0 0 0-.1 0 0"/><path d="M77.8 48.4q-.1 0 0 0-.1 0 0 0"/><path d="M77.7 47.4s.1 0 0 0q.2 0 0 0"/><path d="M79.4 49.4q-.1 0 0 0-.1 0 0 0-.1 0 0 0"/><path d="M79.7 46.5q.2 0 0 0 .2 0 0 0"/><path d="M84.7 44.7s0-.1 0 0q0-.1 0 0 0-.1 0 0"/><path d="M79.7 46.2q.2 0 0 0"/><path d="M79.8 45.5q0 .2 0 0-.1 0 0 0-.1 0 0 0"/><path d="M80.5 48.8q-.1 0 0 0-.1 0 0 0-.1 0 0 0"/><path d="M80.6 49.8s-.1 0 0 0q-.1 0 0 0"/><path d="M87.3 47.7q.2 0 0 0 .2 0 0 0"/><path d="M87.6 44.7q-.1 0 0 0"/><path d="M89.2 47.8s0-.1 0 0"/><path d="M81 47.7q0-.1 0 0 0-.1 0 0 0-.1 0 0 0-.1 0 0"/><path d="M41.4 49h-.2z"/><path d="M36.7 51s0-.1 0 0q0-.1 0 0"/><path d="M30.8 50.5s0-.1 0 0q.2-.1 0 0"/><path d="m26.9 48.4-2 1q-.5.2-.8-.1l.3-.1-.1-.3h.1l.3.4.1-.5.2.4.1-.5.3.4.1-.5.3.4.1-.5.3.3.1-.4.3.2.1-.4zh.1l-.1-.3h.1q-.2.2-.1.3"/><path d="M26.7 51.7q-.2 0-.3.2l-.1-.3-.3.2-.1-.3-.3.2-.1-.4-.2.2-.1-.4-.2.4-.1-.5-.3.4-.1-.5-.3.1-.3-.2.2-.1q.7-.1 1.3.2z"/><path d="M27.5 49.3q.1-.2.2-.1.2.1.3.4c-.2 0-.3-.4-.5-.3"/><path d="m28.3 49.8-.2-.5q.4.2.2.5"/><path d="M27.7 50.9q0-.2.3-.3 0 .4-.3.3"/><path d="m24.3 50.5-.2.1-.2-.2.1-.1z"/><path d="m27.5 49.3.1.3h-.1l-.3-.3z"/><path d="M28.3 50.3q.2.3-.1.5z"/><path d="m25.1 50.6-.3.1.2-.4z"/><path d="M26.9 48.4V48l.2.4z"/><path d="m26.4 50.8.2-.2h.1z"/><path d="m27 50.6-.2.2h-.1q0-.2.3-.2-.2 0 0 0"/><path d="m27.1 50.8.1-.4q.1.4-.1.4"/><path d="M27 51.8h.2l-.1.2-.1.1z"/><path d="m25.7 50.7.1-.2h.1l-.1.3z"/><path d="M26.9 49.4v.4l-.2-.4z"/><path d="m26.1 50.8.2-.3q0 .2-.2.3"/><path d="m26.4 49.4.3.2q-.4 0-.3-.2"/><path d="m27.4 50.8.2-.3q0 .4-.2.3"/><path d="m26.7 51.7.2.1-.2.1q.2 0 0-.2"/><path d="m27.4 52.2-.2.1.1-.2z"/><path d="m25.7 49.5.3.2q-.4.1-.3-.2"/><path d="m25.4 50.7.2-.1.1.1z"/><path d="m25.1 49.6.1-.1.1.2z"/><path d="M24.3 49.8v-.3l.2.2z"/><path d="M24.7 49.6v.2z"/><path d="M24.8 50.6q-.1 0 0 0-.2 0 0 0-.1-.1 0 0-.1-.1 0 0"/><path d="M24.4 51.2v.2h-.1z"/><path d="M23.3 49.2h.2q-.2.2-.2 0"/><path d="M26.2 49.5q.2 0 0 .2z"/><path d="m27.7 50.9-.2.1v-.1q.2.1.2 0"/><path d="M26.7 51.9v.2h-.1z"/><path d="M25 49.6h.1v.2H25z"/><path d="M26.4 49.4s-.1 0 0 0q-.2 0 0 0"/><path d="M26.2 49.5q-.1 0 0 0-.1 0 0 0"/><path d="M25.5 49.6q0 .2 0 0 .2.2 0 0 0 .2 0 0"/><path d="M25.5 49.6q-.2 0 0 0"/><path d="M25.2 50.6s.1 0 0 0"/><path d="M25.2 50.6q0 .2 0 0-.1.2 0 0h-.1z"/><path d="M25 49.6q-.1 0 0 0-.1 0 0 0"/><path d="m24.3 50.5.1.1z"/><path d="M24.2 49.8h.1z"/><path d="M24.2 49.8h-.1q0-.1.1 0 0-.1 0 0"/><path d="M24.1 49.8q-.1 0 0 0"/><path d="M23.8 50.4s0-.1 0 0q0-.1 0 0"/><path d="M27.4 48.1q-.1 0 0 0-.1 0 0 0h-.1z"/><path d="M27.4 48.4s0 .1 0 0q-.1.2 0 0"/><path d="M27.4 50.8q0 .2 0 0-.1.2 0 0 0 .1 0 0"/><path d="M27.3 48.1q-.1 0 0 0-.1-.1 0 0"/><path d="M27.2 49.5q0 .2 0 0"/><path d="m27.1 49.4.1.1z"/><path d="M27 49.4h.1z"/><path d="M27.1 50.8q0 .1 0 0-.1.2 0 0-.1.2 0 0"/><path d="M26.7 49.4s0-.1 0 0"/><path d="m44.7 52.2.4.3q-.4 0-.4-.3"/><path d="M45.2 47.5q.1 0 0 0"/><path d="m45.1 47.6.1-.1z"/><path d="m73.8 49.4.2-.1v.1z"/><path d="m73.1 49.2-.2.1v-.1z"/><path d="m73.6 50.9.1-.1z"/><path d="m22.4 50.1-.8.2h-1.7l-.9-.1h1.4q1-.4 2-.1"/><path d="m21.3 48.8.1.1.1.1v.1h-.2l-.3-.3v-.2z"/><path d="M21.8 50.5v.3l-.2-.2v-.2z"/><path d="m22.1 49.7-.1.1q-.2.1-.2 0l.2-.2q0-.2.1.1"/><path d="m21.7 51.2-.1.1h-.2l.1-.2z"/><path d="m21.5 49.7.2-.2v.3z"/><path d="m22.8 50.8-.1.1h-.3l.5-.2z"/><path d="m22.3 49.8.2-.1-.1.2z"/><path d="m21.8 50.6.1-.1.1.2z"/><path d="M18.8 50.6v-.1h.3v.1z"/><path d="M22.7 50.1v-.2h.1z"/><path d="m22.8 50.4-.1-.1h.1z"/><path d="M22.5 50.5h-.2z"/><path d="m22.1 49.7.1.2h-.1z"/><path d="M22.2 50.5s-.1 0 0 0v-.2z"/><path d="M21.5 49.1h.2q0 .2-.2 0"/><path d="M19.9 49.8h.2v.1z"/><path d="M22.7 49.4v.1q-.2 0 0-.1-.1.2 0 0"/><path d="M22 50.7s.1 0 0 0q.2 0 0 0"/><path d="M21.9 48.9h.1v.1z"/><path d="M21.9 48.8v.1h-.1z"/><path d="M18.8 49.9s0 .1 0 0q0 .1 0 0"/><path d="M18.8 50.5q0-.1 0 0 0-.2 0 0 0-.1 0 0"/><path d="M23.4 56.4h-.2q0-.2.2 0 0-.1 0 0"/><path d="m23.2 56-.1.1V56q0 .2.1 0"/><path d="M22 55.6s0-.1 0 0"/><path d="M23.2 44.3h-.3l.4-.4z"/><path d="M21.9 44.6v.2h-.1z"/><path d="M22.6 44.4h-.1s.1-.1.1 0"/><path d="M68.3 52.3h.2q-.2.1-.2 0"/><path d="M67.4 52.2s.1 0 0 0q.2 0 0 0"/><path d="M26.9 54q0 .2 0 0 0 .2 0 0 0 .2 0 0"/><path d="M26.8 54.3s.1 0 0 0"/><path d="M26.8 46.2V46l.1.1z"/><path d="M27 46.4q0 .2 0 0 0 .2 0 0"/><path d="M26.8 46q0-.2 0 0"/><path d="M26.7 46.2s-.1 0 0 0q-.1-.1 0 0"/><path d="M21.2 51.4v.2l-.2.1z"/><path d="m21.4 51.3-.1.1z"/><path d="M22.6 44.9v-.1s.1.1 0 .1"/><path d="M21.8 51.4h.1v.1z"/><path d="M73.7 51v-.1z"/><path d="m74.4 72 .3-.6q-.6-.1-1.1.2l-.1-.1q-.5.1-1.1-.1l-.3.1.1-.2 1.7-1.7.5-.3-.1.3-1.5 1.5-.3.2 1.1.1 1.7-1.7h.1l-.1.2-1 1.1-.2.3h1.1z"/><path d="m91.4 71.8.4-.6q-.7-.1-1.2.2l-.1-.1q-.4.1-1-.1l-.3.1q0-.2.2-.3l1.4-1.3.5-.5.2-.1v.1l-1.7 1.7-.1.1.8.1q.3 0 .5-.2l.8-.9.3-.2-1 1.2h1.1q-.1.6-.8.8"/><path d="M76.9 70.9q0-.2.3-.5-.8-.4-1.4.3l-.6.6q0-.4.3-.6l.4-.5 1.1-.9h.1l-.1.2-.6.5h1.1l.9-.7.1.1-.6.7-.8.7z"/><path d="m92.3 71.1.1-.3.6-.7 1.1-.9c0 .2 0 .2-.7.8h1.2l.9-.7q-.7 1-1.5 1.4l.3-.5q-.3-.2-.6-.1-.3 0-.6.3-.2.4-.8.7"/><path d="m91 67.1-.3.1h-3.3q.2-.4.5-.3h2.6z"/><path d="m83 67-.4.2h-4l.3-.1z"/><path d="m101.9 68.2.4-.2 1.2.1 1.4.2-.4.2h-.7l-1.6-.1h-.3z"/><path d="m78.1 67.6.3-.1h4l-.1.2h-4z"/><path d="m94.8 67.8-1 .1h-1.2l-1.1-.1h-1.2l.3-.2.3.1h3.8z"/><path d="M78.4 70.7q0-.3.2-.4l1.6-1.5.2.2-.5.5-.5.5v.2q-.6.1-.8.5z"/><path d="M87.2 66.9q-.5.5-.8.3l-1-.1h-1.6l.2-.1z"/><path d="M95.6 70.6q.1-.4.4-.6l1-.9.3-.2q.1-.1.3.1-.7.5-1.1 1.2c-.4-.2-.6.2-.9.4"/><path d="m107.8 69.2-.5-.1-1 .8-.2.3q-.2.5-.8.8l.1-.3.6-.5-.1-.3q.4 0 .6-.3l1-.9.2-.1-.2.3z"/><path d="m74.7 67.6-.3.2H74l-1.9.1c0-.3.4-.1.5-.3zq-.1 0 0 .1"/><path d="m88.1 71.1.1-.3.6-.6-.3-.1q.8-.2 1.2-.7l.7-.5-.1.2-.7.6-.7.5q-.1.4-.5.7 0 .2-.3.2"/><path d="m105.9 68.7-1-.2.3-.2.7.1 1 .3q-.2.3-.4.2-.4-.3-.7.2l-.4.5-.3.1z"/><path d="M73.3 68.9q-.4.8-1.3 1.3l-.3.3c0 .3-.6.7-1 .9l.9-1.1-.2-.1.1-.1.5-.2z"/><path d="M75.1 67.2q-.1.3-.4.2h-1.2l-.8.1h-.2q.8-.6 2.6-.3"/><path d="M97.4 67.7q-.3.5-.7.3-.5-.2-.9 0H95q.2-.3.4-.2z"/><path d="M86.8 67.7q1.6-.3 3.4-.1-.1.3-.3.2-1-.2-2.1-.1z"/><path d="m83.3 70.3.1-.3 1.2-1.2q.1.2 0 .4l-.7.7v.3q-.3-.1-.6.1"/><path d="M100.4 70.1a5 5 0 0 1 1.5-1.4l-.1.2-.8.8v.2z"/><path d="m80.2 70.4-.3-.4h.6l.6-.6.2.1v.1l-.5.5z"/><path d="m97.9 67.3-2.1.1v-.2l.3-.1z"/><path d="m91.2 67.1.6-.1 1.5.1c-.6.3-.9.3-2.1 0"/><path d="M98.3 69.3v.3l-.3.4-.7.3v-.2L97 70l.1-.1q.6.1 1-.4z"/><path d="M86.4 67.6q-.4.2-1 0h-2.1c.4-.1 2.4-.2 3.1 0"/><path d="M100.3 68.2q.1-.3.4-.3l1 .1c-.3.3-.4.3-1.4.2"/><path d="M78.3 67.2h-2.8l.2-.1.7-.1 1 .1z"/><path d="M72.3 67.4q-.8.3-1.8.2l.3-.2z"/><path d="m99.2 67.8-.3.2h-1.5l.2-.2z"/><path d="M98.1 67.5q.3-.4 1.6-.2l-.2.1z"/><path d="M86.6 70h-.2a3 3 0 0 1 1.1-1.1l-.4.5z"/><path d="M103.8 69.9h-.2q.1-.5 1-1.1 0 .3-.3.5z"/><path d="M70.2 68.2q0-.2.4-.2l1.2-.2q0 .2-.4.3z"/><path d="M69.5 70.1h-.2v-.2l.9-.8q0 .3-.2.4z"/><path d="M101.2 67.6v-.2a2 2 0 0 1 1.3.1z"/><path d="M68.7 68.7q.4-.5 1.1-.5-.6.4-1.1.5"/><path d="m88.1 69.6.9-.8q-.2.5-.7.9z"/><path d="M76.9 70.8v.4q-.1.2-.5.1l-.1-.1c.2 0 .3-.4.6-.4"/><path d="m71 69.7.2-.3.7-.6h.2q-.6.8-1.1.9"/><path d="m77.9 67.4-.1.2-.2.1-1.2-.1z"/><path d="M94 70.7v.5q-.4.1-.6-.1z"/><path d="m99.2 68.1.3-.2.6.1c-.2.2-.2.2-.9.1"/><path d="M102.7 69.3q0-.5.6-.6l-.1.3z"/><path d="M68.5 69.6q0-.5.6-.6l-.1.3z"/><path d="m75.6 69.6.5-.7q-.1.4-.5.7"/><path d="M85.5 69.5q.1-.4.6-.5-.2.3-.6.5"/><path d="m93.3 68.9-.4.5q-.1-.4.4-.5"/><path d="M107.1 72q0 .4-.5.5.1-.4.5-.5"/><path d="M85.1 69.8q0 .4-.4.6.1-.5.4-.6"/><path d="M100.9 67.4q-.4.2-.9 0z"/><path d="M101.9 70.3q-.2-.3.3-.6 0 .3-.3.6"/><path d="m70.3 67.7-.7.3q.2-.3.6-.4z"/><path d="M67.9 70q0 .4-.4.5.1-.4.4-.5"/><path d="M71.7 72.2h.7q-.4.2-.7 0"/><path d="m92.2 69.8.4-.4q0 .4-.4.4"/><path d="M103 73.1h-.5q.5-.5.5 0"/><path d="M88.8 72.1h.7z"/><path d="m85.7 73.3-.2-.2.2-.1.2.1z"/><path d="M68.8 73.3h-.4q.2-.3.4 0"/><path d="m102 74-.1-.2.2.1z"/><path d="M106 72h.6v.1z"/><path d="m102.1 73 .3-.1v.1zq.2 0 0 0"/><path d="m85.1 73 .4.1q-.5.2-.4-.1"/><path d="M88.2 72.2h-.4v-.1h.2z"/><path d="M70.7 72.2h.4q-.1.1-.4 0 0 .2 0 0"/><path d="M85.2 69.8v-.2l.1-.1.1.1-.1.1z"/><path d="M105.8 71.8q-.1 0 0 0"/><path d="M105.4 72h-.4v-.1z"/><path d="M67.9 73.4q.2-.4.3 0z"/><path d="m103.2 70.2.2-.4q.1.4-.2.4"/><path d="M106.8 69.9h.3v.1z"/><path d="M105.8 71.8q0-.2.2-.2z"/><path d="m105 69.9-.1.2zq-.1 0 0 0"/><path d="M104.8 71.5q.1.1 0 .1"/><path d="m104.1 72.2.2-.2q.1.3-.2.2"/><path d="M87.1 72.3q-.2-.3.1-.2z"/><path d="m87.6 71.6.2-.1v.1z"/><path d="M87.7 70.2q0-.2.2-.2z"/><path d="m88.6 72 .1-.2q.2.1-.1.2"/><path d="M100.5 71.1h-.3q.2-.2.3 0"/><path d="M89.7 70h.3v.1z"/><path d="M93.8 73.1h.3v.1z"/><path d="M93.1 70.1h-.3q.2-.3.3 0"/><path d="m66.9 70.8.2.1v.1z"/><path d="M67.4 70.5q.1.3-.2.2z"/><path d="M70.1 72.3h-.2z"/><path d="m70.4 71.7.2-.1-.1.2z"/><path d="m71.8 71.9-.2.2q-.1-.2.2-.2"/><path d="M72.8 70.2h-.3v-.1z"/><path d="M75.9 70.2h-.3q.1-.2.3 0"/><path d="M81.2 71.2h.3q-.1.2-.3 0"/><path d="M83 71.2h.3v.1z"/><path d="M106 71.1q-.1-.1 0 0 0-.1 0 0 0-.1 0 0 0-.1 0 0"/><path d="M78.3 70.1h.2q0 .1-.2 0"/><path d="M104.3 69.9q.2 0 0 0h.2zq.1 0 0 0"/><path d="M103.8 69.9h.3q-.3.2-.3 0"/><path d="M103 71h.2q-.1.1-.2 0"/><path d="M102.7 71h.3q-.3.2-.3 0"/><path d="M101.7 70.2v.2q-.1 0 0-.2-.1 0 0 0"/><path d="M101.3 70.8q0-.1 0 0-.1-.1 0-.2z"/><path d="M82.6 70.1s0-.1 0 0q.1 0 0 0"/><path d="M83.3 70.2q0 .1.1 0"/><path d="M70.6 70.3v-.2q.1.2 0 .2.2 0 0 0"/><path d="M70.3 70.2h-.2z"/><path d="M69.5 70.1h.2q-.2.3-.2 0"/><path d="M68.8 71.3h.2z"/><path d="M68.4 71.3h.2q-.1.1-.2 0"/><path d="M68.2 69.9q-.1 0 0 0-.1-.1 0-.2z"/><path d="M71.3 72.3v-.2q.1.1 0 .2"/><path d="M86 71.2q.1 0 0 .1"/><path d="M91.7 69q-.1 0 0 0-.1-.1 0 0 0-.1 0 0 0-.1 0 0"/><path d="M98.4 71h.3l-.1.1z"/><path d="M88.6 72v.3q-.3-.3 0-.3"/><path d="M107.8 69.2q.2 0 0 0 .2 0 0 0 .2 0 0 0"/><path d="M105.3 71s-.1 0 0 0"/><path d="M99.8 70s-.1 0 0 0q-.1 0 0 0 0-.1 0 0"/><path d="M95.6 70q-.1 0 0 0-.1 0 0 0"/><path d="M93.9 72.3s-.1 0 0 0q-.1 0 0 0-.1 0 0 0"/><path d="M70.2 68.1q-.1.2 0 0-.1.2 0 0-.1.2 0 0"/><path d="M70.4 72s-.1 0 0 0q-.1 0 0 0 0-.1 0 0"/><path d="M72 71.4q0 .2 0 0 0 .2 0 0 0 .2 0 0"/><path d="M74.5 69.1s0-.1 0 0q0-.1 0 0"/><path d="M85.6 71.2s0-.1 0 0q.2-.1 0 0 .2 0 0 0"/><path d="M87.3 70.1s0-.1 0 0"/><path d="M87.4 71.8s.1 0 0 0q.2 0 0 0"/><path d="M87.8 71.1q.2 0 0 0 .2.2 0 0 0 .2 0 0"/><path d="M88.1 71.1s0 .1 0 0"/><path d="M88.9 71.1q-.1 0 0 0"/><path d="M89.2 71.3s0 .1 0 0q0 .2 0 0"/><path d="m26.9 72.7-.3.3-.1-.4-.3.2-.1-.3-.3.3v-.5l-.3.4-.1-.5-.3.4-.1-.5-.3.4-.1-.5-.4.4.1-.3-.3-.1q.4-.3 1-.1.8.2 1.2.5z"/><path d="M26.9 69.5q-.8.6-1.7.9h-.8l-.2-.1.3-.1-.1-.3.4.3.1-.5.3.4.1-.5.3.4.1-.5.3.4.1-.5.3.4.1-.4.3.2.1-.4q-.4.2 0 .3"/><path d="m27.7 71.9.5-.3q-.1.4-.4.4z"/><path d="m27.7 70.2.2-.1q.3 0 .4.4z"/><path d="M28.4 70.2q.2.2.1.6z"/><path d="M28.5 71.3q.2.4-.2.6z"/><path d="m26.9 69.5-.1-.5.3.4z"/><path d="M24.2 71.5q.2-.2.4 0-.1.2-.4 0"/><path d="m27.7 70.2.1.3h-.1l-.3-.3z"/><path d="M27.7 71.9h-.2v-.1l.4-.2q-.2.1-.2.3"/><path d="m26.9 71.8.2-.4v.4z"/><path d="m26.6 70.4.3.3q-.4-.1-.3-.3"/><path d="M27.1 72.8h.2l-.2.4z"/><path d="m26.1 71.4-.1.3h-.1l.1-.3z"/><path d="M27.1 70.3v.4l-.2-.4q.1.1.2 0"/><path d="m26 70.5.2.3h-.1q-.2-.1-.1-.3-.2 0 0 0"/><path d="m26.6 71.8.1-.4q.1.3-.1.4"/><path d="M27.1 69.4V69l.2.4q-.1-.1-.2 0"/><path d="m27.1 72.8-.2.1v-.2q.2-.1.2.1"/><path d="m27.5 69-.1.1-.1-.2z"/><path d="m25.2 70.6.1-.1.1.2z"/><path d="M25.2 71.6q.2 0 0 0l.2-.1v.1q-.1.1-.2 0"/><path d="M24.8 71.6q0-.1 0 0h.1z"/><path d="M24.5 70.7q0-.2.2 0z"/><path d="M24.2 70.7s.1.1 0 0l-.1.2z"/><path d="m24.3 71.5-.1-.1zq-.2 0 0 .1"/><path d="M26.3 70.5q.2 0 0 .2z"/><path d="M26.4 71.7v-.2q.2.1 0 .2"/><path d="M26.9 72.9v.2q-.2-.2 0-.2"/><path d="M25.1 70.6h.1v.2z"/><path d="M25.3 71.6h-.1v-.1l.1-.1q-.2 0 0 .2-.2 0 0 0"/><path d="M26.6 70.4q-.1-.1 0 0-.1-.1 0 0"/><path d="M26.6 71.8s-.1 0 0 0q-.1 0 0 0"/><path d="M26.3 70.5s0-.1 0 0q0-.1 0 0 0-.1 0 0"/><path d="M25.7 70.6s0 .1 0 0"/><path d="M25.7 71.6q0-.1 0 0 0-.1 0 0"/><path d="M25.7 70.6s-.1 0 0 0q-.1-.1 0 0"/><path d="m25.7 71.6-.1.1z"/><path d="M25.1 70.6q0-.1 0 0"/><path d="M24.9 70.6q0 .2 0 0-.1.2 0 0-.1 0 0 0"/><path d="M24.4 70.7h.1z"/><path d="M24.3 70.7h.1z"/><path d="M27.6 73.1h-.1s0-.1.1 0q-.2 0 0 0"/><path d="M27.3 70.5q.2 0 0 0 .2 0 0 0"/><path d="m27.3 71.7.1-.1zq.2 0 0 0"/><path d="M27.5 73.1q-.2 0 0 0-.1.2 0 0-.1 0 0 0"/><path d="m27.3 70.5-.1-.1z"/><path d="m27.3 71.7-.1.1z"/><path d="M27.2 70.3h-.1z"/><path d="M27.2 71.8h-.1z"/><path d="M26.9 70.3s-.1 0 0 0q-.1 0 0 0"/><path d="M26.9 71.8s-.1 0 0 0"/><path d="M45.4 68.5q0-.1 0 0 0-.1 0 0 0-.1 0 0"/><path d="m45.3 68.6.1-.1z"/><path d="m45.2 68.7.1-.1z"/><path d="M44.9 73.2q.2 0 .1.2-.2 0-.1-.2"/><path d="M45 73.4h.2q-.2.2-.2 0"/><path d="M76.9 73.3h-.3v-.1z"/><path d="m22.5 71.1-1 .1q-.3.1-.5-.1h-.4l-1.4-.1h1c.3 0 .7.2 1-.2l.3.1z"/><path d="m21.5 69.7.1.1.1.1v.1h-.2l-.3-.3v-.2z"/><path d="m21.6 72.4-.1.1-.3.2v-.2l.3-.3h.2v.1z"/><path d="m21.9 71.5.2-.1.1.3H22q.1-.2-.1-.2"/><path d="M22 71.7q0 .2-.2 0l-.1-.1q0-.2.2-.1z"/><path d="M21.9 70.7q-.2.1-.2-.1l.3-.3z"/><path d="m22.5 70.7.2-.1-.1.2z"/><path d="m22.5 71.5.1-.1.1.2z"/><path d="m21.9 70.7.2-.1-.1.2z"/><path d="M22.8 71v-.2q.2.2 0 .2.2 0 0 0"/><path d="M22.9 71.2v.2z"/><path d="m22.8 70.5.1.1z"/><path d="m22.9 71.6-.1.1z"/><path d="M22.4 70.7s.1 0 0 0h.1z"/><path d="M22.5 71.5s-.1 0 0 0q-.1 0 0 0h-.1z"/><path d="m22.4 70.7-.1.1zq-.2 0 0 0"/><path d="m22.4 71.5-.1-.1z"/><path d="M22 70h.1v.1z"/><path d="M22.1 72.4h.1v.1z"/><path d="M19 70.8q-.1.2 0 0-.1.2 0 0-.1.2 0 0"/><path d="M19 71.4q-.1 0 0 0-.2 0 0 0"/><path d="M107.9 72.5q0 .2-.3.2z"/><path d="M23.3 65.2h-.2q0-.2.3-.3z"/><path d="M22.8 65.3h-.1z"/><path d="M22.1 65.6q0 .2 0 0 0 .2 0 0 0 .2 0 0"/><path d="m23.4 77 .1.4-.3-.4z"/><path d="M22.8 76.9h.1z"/><path d="M22.2 76.6q0-.1 0 0-.1-.1 0 0 0-.1 0 0"/><path d="m27 75 .1.1-.1.1z"/><path d="M27.3 74.8q-.1-.1 0 0-.1-.1 0 0-.1-.1 0 0"/><path d="M27 75.2s0 .1 0 0q0 .2 0 0"/><path d="m26.9 75-.1.1z"/><path d="M27 66.9s-.1 0 0 0q-.1 0 0 0"/><path d="M22 69.8h-.1z"/><path d="M25 68.3h-.1s0-.1.1 0q0-.1 0 0"/><path d="M21.9 72.4h.1v.1z"/></svg>