<?xml version="1.0" encoding="utf-8"?>
<!-- Generator: Adobe Illustrator 25.2.3, SVG Export Plug-In . SVG Version: 6.00 Build 0)  -->
<svg version="1.1" id="Layer_1" xmlns="http://www.w3.org/2000/svg" xmlns:xlink="http://www.w3.org/1999/xlink" x="0px" y="0px"
	 viewBox="0 0 299.8 69.3" style="enable-background:new 0 0 299.8 69.3;" xml:space="preserve">
<style type="text/css">
	.st0{fill:#202020;}
</style>
<g>
	<path class="st0" d="M60,14.2c-0.4,0.1-0.1,0.3,0.9,0.1l0.7-0.4L60,14.2z"/>
	<path class="st0" d="M67.1,13.9c1.2-0.3,2.6-0.8,1.8-1c-1.2,0.5-1.5,0.4-2.8,0.9c-1,0.2-1.8,0.1-1.7,0c-0.4,0.1-1.6,0.1-2.2,0.4
		c1.4,0.1,3.1-0.1,4.9-0.6C67.6,13.7,67.2,13.9,67.1,13.9z"/>
	<path class="st0" d="M170.1,7.8l-0.7,0C169.6,7.8,169.9,7.8,170.1,7.8z"/>
	<path class="st0" d="M234,9.9c-0.5,0-0.7,0-0.7,0C233.7,10,234.1,10,234,9.9z"/>
	<path class="st0" d="M244.8,11.1c-0.2,0-0.4-0.1-0.6-0.1C244.5,11.1,244.7,11.2,244.8,11.1z"/>
	<path class="st0" d="M170.1,7.8l1.7,0.1C172,7.8,171,7.9,170.1,7.8z"/>
	<path class="st0" d="M81.2,11.5c-0.4,0.1-0.6,0.1-0.9,0.2C80.6,11.6,80.9,11.6,81.2,11.5C81.2,11.5,81.2,11.5,81.2,11.5z"/>
	<path class="st0" d="M142,8.7l-0.5,0c-0.2,0-0.3,0.1-0.4,0.2L142,8.7z"/>
	<path class="st0" d="M120.4,9.9c0.5,0,0.6-0.3,0.8-0.4c-0.3,0.1-0.6,0.2-1.1,0.3C120.1,9.7,120.2,9.8,120.4,9.9z"/>
	<path class="st0" d="M86.1,12.1l-0.6,0.1C85.7,12.2,86,12.2,86.1,12.1z"/>
	<path class="st0" d="M157.4,8.3c0,0,0.1,0.1,0.2,0.1C157.6,8.4,157.5,8.4,157.4,8.3z"/>
	<path class="st0" d="M137.4,1C137.3,1,137.4,1,137.4,1C137.5,1,137.5,1,137.4,1z"/>
	<path class="st0" d="M162.3,4.1l-0.3,0c0,0-0.1,0.1-0.1,0.1L162.3,4.1z"/>
	<path class="st0" d="M264.5,14C264.5,14,264.5,14,264.5,14C263.9,14,264.2,14,264.5,14z"/>
	<path class="st0" d="M158.4,61.3c2.1,0-3.3,0.7-0.2,0.6C157.9,61.8,161,61.2,158.4,61.3z"/>
	<path class="st0" d="M81.8,11.5c0.3,0,0.6-0.1,0.9-0.1C82.2,11.4,82,11.4,81.8,11.5z"/>
	<path class="st0" d="M158.2,61.9L158.2,61.9l0.3,0C158.4,61.9,158.3,61.9,158.2,61.9z"/>
	<path class="st0" d="M291.9,31.8c0.1,0,0.3,0,0.5-0.1C292.3,31.7,292.2,31.7,291.9,31.8z"/>
	<path class="st0" d="M276,16l0.8,0.2C276.5,16.1,276.3,16,276,16z"/>
	<path class="st0" d="M275.3,38c-0.4,0.1-0.6,0.1-1.2,0.4c0.1,0,0.1,0,0.2,0C274.5,38.2,274.8,38.1,275.3,38z"/>
	<path class="st0" d="M257.6,43.3c0.1,0,0.2,0,0.3,0c0.2-0.1,0.4-0.1,0.6-0.2L257.6,43.3z"/>
	<path class="st0" d="M81,4.1c0.4,0,0.7,0.1,0.9,0.1C81.5,4.1,84.2,3.7,81,4.1z"/>
	<path class="st0" d="M81.2,11.7c0.1-0.1,0.3-0.1,0.5-0.2C81.5,11.5,81.3,11.5,81.2,11.7C81.1,11.6,81.1,11.6,81.2,11.7z"/>
	<path class="st0" d="M275.3,40.3c-0.9,0.3-1.9,0.6-2.8,0.8C273.3,41,274.3,40.7,275.3,40.3z"/>
	<path class="st0" d="M33.9,64l-0.7-0.1C33.5,63.9,33.7,64,33.9,64z"/>
	<path class="st0" d="M264.1,43.8c-0.5,0-1.1,0.1-1.7,0.3c-0.1,0.1-0.2,0.1-0.3,0.2L264.1,43.8z"/>
	<path class="st0" d="M81.8,4.3C81.8,4.3,81.8,4.3,81.8,4.3C81.8,4.3,81.8,4.3,81.8,4.3z"/>
	<path class="st0" d="M101.1,1.5c-2.8,0.2-1.3,0.5-1.9,0.7c-3.3,0.4-1.6-0.1-2.7-0.2c-2.1,0.3-3.7,0.8-5.2,0.9c-0.1,0-0.4,0-0.1-0.2
		c-2.2,0.5-6.5,0.8-9.1,1.5c-0.2,0-0.3,0-0.3,0c0.4,0.1,0.5,0.3,0.5,0.4c-1.2,0.2-2.3,0.6-2.8,0.4c0.8-0.1,0.8-0.2,1.2-0.3l-1.3,0.3
		c-1.2-0.2,1.8-0.4,1.7-0.6c-2.5,0.5-5.5,1.2-7.4,1.4c-0.5-0.3,4.5-0.9,1.9-0.7c1-0.1,2-0.2,3-0.3c-2.4-0.2,1.8-0.2-0.4-0.5
		c-4,0.5-4.4,0.9-8.4,1.4C69,6.1,70.2,6,69.3,6.3c-5.5,1.4-4.6,0-8.6,1.2c-1,0.4-1.3,1-4.3,1.3l0.9-0.6c-3.8,0.8-2.1,1-6.1,1.7
		c0.7-0.3,3-0.8,2.4-0.7c-2.6,0.3-1.8,0.6-3.7,1.1l-0.5-0.2c-4,1-8.4,2.4-12.8,3.8c0.2-0.2,0.9-0.5-0.1-0.3
		c-5.5,1.8-11.8,3.9-17,6.1c-0.6,0.4-1.2,0.8-1.8,1.2c-0.5,0.2-0.9,0.3-0.4,0c-2,0.9,0,0.2-0.9,0.8c-1.1,0.6-1.5,0.6-0.9,0.2
		c-1.7,1-4,2.5-6.3,4c-2.3,1.6-4.6,3.4-6,5c0.2-0.2,0.3-0.5,0.5-0.7c-1.2,1.2-1.5,2.2-1.8,3.1c-0.3,0.9-0.5,1.7-0.9,3.3
		c0-0.2,0-0.4,0-0.6c-0.4,1.8-0.1,3.8,0.6,5.6c0.7,1.7,1.6,3.3,2.6,4.7c2,2.9,4.2,5.3,6.2,7.1c0.3,0.1,0.7,0.4,1.3,0.8
		c0.6,0.4,1.3,0.9,1.9,1.4c1.4,0.9,2.7,1.7,3.1,1.6c1.7,1,2.3,1.5,3.1,1.9c0.8,0.4,1.8,1,4.3,2.1c1.4,0.6,2.2,0.4,4,0.9l0,0.3
		c0.8,0.1,1.7,0.3,2.5,0.4c0.4,0.2,0.8,0.5,1.2,0.7l1.7,0.3c-0.7-0.2-1.4-0.5-1.3-0.5c2.6,0.5,6.3,1.6,6.4,1.8
		c2.1,0.3,4.2,0.5,6.3,0.7c-0.2,0.1-1.2,0-2.1,0c3.4,0.2,0.6,0.4,3.7,0.5c-0.4-0.1,0.2-0.2,0.3-0.2c1.5,0.4,5,0.7,7.6,0.9l-0.5,0.2
		c4.7,0.5,9.8,0.7,15.1,1c-1.9-0.2-1.4-0.5,0.1-0.5l0.6,0.4c1-0.2-1.6-0.2,0.4-0.3c2,0.1,1.3,0.4,0.2,0.5l2.4,0
		c0.1,0.1-0.4,0.1-0.6,0.2c1-0.1,4.1,0.5,5.5,0.2l0.1,0.1c2.6,0.1,4.5,0,6.3,0c1.8,0,3.4,0,5.6-0.1c0.1-0.3,1.8-0.2,3-0.5
		c3.1,0,6.6,0.2,10.4,0c2.6-0.2,0.8-0.3,2-0.5c0.2,0.3,4,0.1,2,0.3c4.5-0.3,5.8-0.3,11.5-0.9c-0.6-0.1-1.3-0.1-1-0.2
		c1-0.1,2.4,0,2.2,0.1l-0.3,0c6.4-0.8,14.9-0.4,19.9-1.4l-0.3,0.1l5.3-0.8c2.4-0.2-1.4,0.3,0.4,0.3c5.7-1,9-0.9,13.7-1.7
		c3.7,0.3,12.9-1.6,17.8-1.8l-0.3-0.1c1.2-0.3,1.5-0.1,2.5-0.2c-0.2-0.1-1.4,0-0.6-0.2c10.7-1.7,22.1-3,33-4.8
		c4-0.7,2.1-1.3,7.2-1.9l-1.4,0.6c8-1.9,16.4-3.3,24.1-5.5c-0.4,0.2-0.4,0.3-1.2,0.5c1.7-0.2,6.1-1.5,6.1-1.7c1.2-0.3,0.3,0.1,1.1,0
		c1.7-0.3,4-1.3,5-1.3c0.2,0-0.4,0.2-0.7,0.3c1-0.4,5-1.3,3.9-1.3c2.9-0.6,5.5-1.7,7.9-2.1c0.7-0.4,2-0.7,3.1-1
		c1.1-0.3,2.1-0.6,2.3-0.9c-0.1,0.5,5.1-1.2,6.9-2c-0.6,0.3,1.6-0.4,1,0c2.1-0.7,3.9-1.4,3.5-1.5c4-0.7,7.4-3,9.8-3.1
		c0.7-0.3,1.5-0.6,2.2-0.9c0.8-0.3,1.5-0.6,2.2-1c1.5-0.8,2.9-1.7,4-3c1.1-1.3,1.7-3.3,1.2-5c-0.4-1.8-1.7-3-2.9-3.9
		c0.2-0.1,1.7,0.9,2.6,2.6c0.4,0.8,0.6,1.8,0.6,2.5c0,0.7,0,1.1,0.1,1.1c0.2-1.8-0.4-3.4-1.2-4.4c-0.8-1.1-1.8-1.8-2.8-2.4
		c-1-0.6-2-1.1-3.1-1.5c-1.1-0.4-2.2-0.9-3.5-1.4c-1.3-0.6,0.8,0.1,1.3,0.2c-5.2-1.9-10.1-3.6-14.9-4.5c0,0,0.5,0,1,0.1
		c-0.9-0.2-2.2-0.6-2.1-0.4c0.3,0,0.6,0.1,0.9,0.2c0.7,0.3-0.3,0.2-1.4,0.1c-1.2-0.1-2.5-0.3-2.6-0.3c1.7-0.3-4.7-1.1-2-1.3
		c-0.6-0.1-1.4-0.1-1.3,0c-0.9-0.2-1.2-0.4-0.2-0.3c-3.4-0.5-2.3-0.1-5.3-0.6c0-0.1,0.7,0,1-0.1c-1.6,0-3.2-0.1-5.8-0.6
		c0.2,0-0.1-0.2,0.7,0c-4.5-0.6-7.7-0.5-12.7-1.1c1.5-0.3-1.7-0.3-1.9-0.7l-2.7-0.1l1.1,0.3c-2.3-0.2-4.4-0.1-6.4-0.3l1.7,0
		l-4.4-0.2l2.5,0.3c-2.4,0,0.2,0.5-2.9,0.2c0.6,0-2.3-0.1-3.5-0.4l0,0c-1.2,0.1-2.4,0.1-4.1-0.1c-0.4-0.1,0.4-0.4,0.1-0.5
		c-1.2,0.2-5.5-0.2-6.9,0.1c0.5-0.1,0.5-0.2,0.4-0.3l-1,0.2c-1.1-0.1-1.2-0.2-1.1-0.3c-3.3-0.2,1,0.5-2.8,0.1c0.3,0,0.2-0.1,0.8-0.1
		c-3.9-0.3-7.5-0.1-11.1-0.4c-1-0.4,3.1,0,1.9-0.3c-5.1-0.1-10.7,0.2-15.6,0l0.9,0.1c-0.7,0.5-3.7-0.3-6.2-0.1
		c0.6,0,0.8-0.3,0.6-0.2c-1.7-0.1-3.4,0-5.4,0c-2,0.1-4.1,0.2-6.7,0.3l0.6-0.1c-2-0.1-5.3-0.1-7.5-0.1c-0.6,0.1-1.9,0.1-1.1,0.3
		c-6.7-0.7-12.8,0.7-18.7,0.2c0.7,0,1.7-0.2,1.1-0.2l-5.1,0.3c0.4,0.2,0.7,0.1,1.7,0.3C142.7,7.8,141.3,8,140,8c2.3-0.2,0-0.4-1-0.5
		c0.2,0.1-0.2,0.2-0.1,0.2c-2.7-0.3-0.4,0.5-4,0.4L135,8c-1.3,0.1-2.6,0.4-4,0.4c-0.6-0.2,1.4-0.2,1.5-0.4c-2,0.1-4,0.7-5.9,0.5
		c0.9-0.1,2.1-0.2,3-0.3c-2-0.2-2.3-0.1-3.8-0.1l0.1,0l-3.5,0.1l0.9,0c-2.5,0.9-5.2,0.5-8.6,1.1c3.3-0.6,0.5-0.3,0.8-0.6
		c-0.9,0-2.2,0-1.9-0.1c-1.6,0.4-2.7,0-5,0.5C108.7,9,107,9.3,107.4,9c-2.1,0.2,0.5,0.1,0.3,0.3c-3.2,0.6-7.7,0.2-12.3,1.1
		c-4,0.5-4.7,1-8.5,1.5c-1.3,0,1-0.5,1-0.5c-2.1,0.1-3.6,0.2-5.5,0.5c0.4-0.1,0-0.2-0.6-0.2c-1.5,0.2-1,0.5-3,0.6
		c0.3-0.1,0.8-0.4,1.5-0.6c-1.8,0.3-3.6,0.7-5.4,1c-0.5-0.1,1.1-0.4,1.8-0.6c-2.1,0.3-5.4,0.8-6.1,1.1l1.4-0.1
		c-0.8,0.1-0.4-0.2,0.1-0.3c1.8-0.4,2.6-0.2,2.7-0.1l-1.3,0.2c1.4,0.4,5.4-0.7,8-1l-1.1,0.5l2.7-0.6c0.6,0,1,0.2-0.3,0.4
		c2,0,1.7-0.3,3.4-0.3c0.2,0,0.1,0-0.1,0.1l1.9-0.3c-0.4,0.1,0.3,0.3-0.8,0.3c3.4-0.1,5.4-0.9,6.7-0.7l-0.3,0.1
		c4.7-0.6,0.4-0.3,3.9-1l2.4,0.5l0.4-0.3c0.5,0,1.4-0.1,1.3,0c1.8-0.4-0.3-0.1,0.7-0.4c2.4,0.1,6.4-0.6,7-0.2c0.8-0.3-2.2,0,0.2-0.4
		c0.7,0.5,2.9-0.3,5-0.2C114,9.9,112,10,114.2,10c1.3-0.5,4.2-0.2,6-0.4c0.1-0.4,3.9-0.4,6.9-0.7c-0.2,0.1,5.7-0.1,8.5-0.1l-0.1,0.1
		c0.5-0.4,3.4-0.4,5.5-0.6c-0.1,0.2-0.5,0.3-1.6,0.5l2-0.1c0.5-0.1,1.1-0.2,2.4-0.3l-0.5,0.3c2.6-0.1,5.3-0.5,8.7-0.4
		c0.2-0.3-2.7-0.6,0.9-0.9c0.1,0.1,0.3,0.4-0.7,0.4c0.3,0,1.1-0.1,1.7-0.1L152.5,8c1.6,0.1,0.8-0.2,2-0.2c0,0.2,0.9,0.1,0.7,0.3
		c-0.3,0-1.1-0.1-1.6,0c1.4,0,3.1,0.1,3.7,0.2c-0.1-0.1,0-0.3,1-0.3c2.6-0.1,0.9,0.2,2.5,0.3c0.6-0.1,2.3,0,2.4-0.3
		c0.8,0,0.9,0.1,1.2,0.2c1.4-0.2,6.4-0.1,4.9-0.4l-0.4,0c0.1,0,0.1,0,0.2,0c0,0,0,0,0,0l0,0c4.5-0.3,9.3,0.1,13.8,0.1l0,0.1
		c2.7-0.1,5.9,0,7.8-0.2c0.8,0,1.9,0.2,1.5,0.3c2,0,2.3-0.1,5.2,0.1c-2,0.1,0.7,0.2-2.1,0.1c2.6,0.1,3.2,0.3,6.1,0.1
		c-1,0.2,2,0.4,3.2,0.4l-1.8-0.2c1.4,0,2.6,0.1,3.9,0.1l-0.7,0.3c5.4,0.6,9.8-0.3,13.8,0.6c1.4-0.2-2.9-0.3-1.6-0.5
		c2.5,0.2,5,0.8,5.8,0.8c3.4,0.4,3.2-0.3,6.7,0c-0.4-0.1-0.9-0.5,1.8-0.4c2.5,0.2,3,0.7,1.4,0.7c-0.6,0-0.9-0.1-0.9-0.1
		c-0.8,0-1.9,0-0.9,0.2l0.3-0.1c1.2,0.2,4.6,0.4,3.8,0.6c1.9,0,0.8-0.1-0.6-0.3c3.2,0.4,5,0.4,8.2,0.8c-0.5-0.1-1-0.3-0.5-0.2
		c4.8,0.6,2.1,0,5.4,0.2c1.8,0.4-0.7,0.4,2.6,0.6c2,0.4,0.4,0.4-0.4,0.4c3,0.1,5.5,0.8,7.2,1.1l-1.6-0.1c0.9,0.1,1.7,0.2,2.5,0.3
		l-0.9-0.4c0.9,0.2,1.7,0.3,1.6,0.4c1,0-0.7-0.5,1.2-0.4c1.2,0.3,3.7,0.5,4.1,0.9c-3.8-0.8,0.4,0.4-2.9-0.1c0.6,0.1,1.4,0.2,2.3,0.4
		c0.1,0.1-0.1,0-0.4,0c3.6,0.9,1.7,0,5.5,0.7c-0.5,0.1,0.8,0.5,1.4,0.6c-1.5-0.3-0.7-0.5,0.8-0.3c2.4,0.7,2.6,0.5,3.9,0.9l-1.4-0.4
		c0.5,0,1.7,0.3,3.4,0.7c0.1,0.2-1.5-0.3-1-0.1c1.9,0.2,4,1.5,6.6,2.1c1.1,0.5,0,0.3,1,0.8c2.9,0.8,2.9,1.3,5.9,2.3
		c-0.8-0.5-0.9-0.6,1.2,0.1c-1.5-0.6-3.2-1.2-4.8-1.7c1.1,0.3,2.1,0.6,3.2,0.9c-1.4-0.6-3.1-1.1-4-1.4c1.5,0.3,1.4,0.3,0.7-0.1
		c0.9,0.5,1.9,0.9,3,1.2c1,0.3,2.1,0.7,3.1,1.4l-0.3,0.5c1.5,0.9,2.7,1.8,3.6,3c0.8,1.1,1,3-0.4,4.5c0.3-0.3,0.6-0.7,0.8-1
		c0,0.3-0.3,0.9-0.9,1.4c-0.5,0.6-1.3,1.1-1.9,1.5c0-0.2-0.8,0.2-1.4,0.3c0.1,0.1-0.7,0.4-1.5,0.8c-0.8,0.3-1.8,0.7-1.9,1l-2.1,0.5
		c-3.7,1.2-4,2-7.6,3.1c1-0.6-0.7-0.2,1.7-1.1c-1.2,0.4-2.3,0.7-2.2,0.8c-0.7,0.1-3.2,1.3-4.3,1.5c-0.5,0.2-0.6,0.5-1.9,0.9
		c-0.2,0,0-0.1,0-0.1c0,0.1-2.1,0.8-0.8,0.6c-1.9,0.3-4.5,1.1-7,1.8c-2.5,0.7-5,1.5-6.6,1.7c-2.6,0.8-5.8,1.7-8.1,2.3
		c0.1-0.1,0-0.1,0.4-0.2c-3.3,0.7-1.9,1.1-5.7,1.8c-2,0.2,2-0.7,0.7-0.5c-0.7-0.5-4.5,1.2-7.1,1.4l0.6-0.2c-2,0.2-4.7,1.3-7.9,2
		c0,0,0.1-0.1,0-0.1c-2.1,0.8-6.2,1.8-9.3,2.5c0.9-0.4,1.4-0.4,0.7-0.5c-1.4,0.3,0.5,0.3-2.3,0.9c-0.9,0-2.9,0.3-3.2,0.1l2.6-0.5
		c-1.4-0.1-3.4,0.7-4.7,0.9l0.1-0.2c-4,0.8-4,1.2-8.2,1.9l0.5,0c-2.3,0.8-2,0.2-4.3,0.8l-0.8-0.3c-1.5,0.3-5.4,1.3-8.1,1.8
		c1.5-0.5,4.8-1.2,6.7-1.7c-1.5,0.2-5.2,0.9-6,1.2c0.6-0.1,1.4-0.4,2-0.4c-1.8,0.6-4.3,1.1-7.4,1.6c0.4-0.8-8,1-10.3,0.7
		c-5.4,1-10.8,1.3-17.1,2.1c2.3,0.3-1.9,0.2-1.4,0.8c-1.5,0.2-2,0.3-2.2,0.2l-4.5,0.1c-1.1-0.1,1.4-0.3,1.2-0.4
		c-3.2,0.3-1.4-0.1-3.5,0c0.5,0.2-1.1,0.4-2.9,0.5l2.6,0c-4.5,0.8-4-0.1-8.5,0.7l1.4-0.3c-2.3,0.4-8.6,0.8-10.9,1.5
		c-0.4,0-1-0.1,0-0.3c-5.6,0.4-12.4,1.5-16.8,1.5l0.4-0.2c-1,0.1-1.8,0.4-3.1,0.3c0.1-0.1,0.4-0.2-0.1-0.2c-0.6,0.1-2.8,0.4-4.2,0.4
		l1.2-0.2c-5.5,0.1-8.4,0.8-13,1c0-0.5-4.3-0.5-6.5-0.5l0.1-0.1c-3.2,0-5.9,0.1-8.6,0.2c-2.7,0.1-5.2,0.2-8.2,0.2
		c-1.8-0.3-4.9-0.5-8.3-0.7c-1.7-0.1-3.4-0.3-5.1-0.4c-1.7-0.1-3.3-0.3-4.8-0.5c0.9,0.2-0.2,0.3-1.2,0.3c-1.4-0.2-3.8-0.1-3.6-0.5
		l0.5,0.1c-1-0.5-3.8-0.7-6-1L45.3,64c-2.8-0.8-6.6-1.3-9.9-1.9c-3.4-0.7-6.4-1.4-7.8-2.3c-0.7-0.2-1.4-0.3-2.2-0.6
		c-0.7-0.2-1.5-0.5-2.1-0.7l0.2-0.2c-0.9-0.4-1.6-0.7-2.3-1.1c-0.7-0.3-1.4-0.7-2-1c-1.4-0.7-2.8-1.5-4.7-2.8
		c0.3,0.1,0.6,0.3,0.9,0.4c-1.1-0.8-1.8-1.1-2.6-1.4c-0.8-0.3-1.5-0.7-2.4-1.5c-0.1-0.3-0.2-0.5-0.2-0.8c-0.8-0.8-1.6-1.6-2.3-2.5
		l-1.1-1.4c-0.3-0.5-0.6-1-0.9-1.4c-1.3-1.9-2.3-3.9-2.9-5.9c0.1,0.1,0.2,0.2,0.4,0.8c-0.1-0.5-0.3-1.2-0.3-1.9
		c0-0.8,0.1-1.6,0.4-2.3C3.7,34,4.4,32.9,4,33.1c0.2,0.1,0.8-0.8,1.7-1.9c1-1.1,2.3-2.3,3.3-3.1l-0.2,0.5c1.5-1.5,1.6-1.6,4.1-3.2
		c0.6-0.3,0.7-0.1-0.2,0.3c2.1-1,1.5-1.2,4.1-2.4l-0.9,0.7c2.2-1.1,2-1.1,3.1-1.9c0.7-0.4,1.7-0.8,2.7-1.2c1-0.3,1.8-0.6,2-0.5
		c0.2-0.3,1.4-1,2.8-1.4c0.2,0-0.3,0.3-0.5,0.4c3.9-1.3,5.6-2.4,8.3-3c0.1,0.1,0.3,0.1,0.5,0c-3.1,1-5.5,1.9-5.3,1.8
		c0.1,0.2,2.6-0.6,0.7,0.4c1.9-0.9,5.2-2.4,7.7-3c0.1,0,0.2,0,0.3,0l-0.2,0.1c0.6-0.1,1.1-0.3,1.5-0.5c0.8-0.2,1.3-0.3,2.1-0.5
		c0.3,0.1,2.9-0.7,4.2-1c-0.2-0.2,1.5-0.6-0.1-0.5c0.2,0-0.2,0.1-1.1,0.3c-0.2,0.1-0.4,0.1-0.5,0.2c0,0,0.1,0,0.1,0
		c-0.8,0.2-1.9,0.5-3.1,0.9c1-0.4,2-0.8,3.4-1c0.6-0.3,1.3-0.7,1.7-0.9c1.8-0.1,5.2-0.6,5.8-0.5c3.8-1.1,9.2-2.1,11.5-3.1
		c1.1-0.3,1.3-0.1,1.7-0.1c-0.6,0.2-1.4,0.3-1.7,0.4c2.2-0.5,6.6-1.3,7.1-1.7c2.9-0.3-1.5,0.6,2.3-0.1l-0.5,0.2
		c7.7-0.7,12.3-2.8,20.9-3c-0.6,0-0.9,0-1,0c9.8-0.7,20.1-2,29.8-1.6c2.7,0.1,3-0.2,4.7-0.4l0.6,0.3l2.9-0.3c4.1-0.2,7,0.9,12.2,0.6
		l-0.7-0.2c1.8,0.1,5.9,0.2,5.5,0.4c0.2,0,0.6-0.2,1.3,0l0,0.2l4.5,0.1c3.5,0.4-0.6,0.5,4.5,1.1c1.9,0.1,5.4,0.1,4.7-0.1
		c-0.8-0.1-1.9-0.3-2-0.5l1.7,0.1c0.4-0.4,1.8-0.8-2.5-1.5l-3,0l-0.9-0.3l2.5,0.2c-1.4-0.3-2.3-0.3-3.4-0.2
		c-0.2-0.1-0.6-0.3-1.2-0.3l-3,0.2c-0.3-0.2,1.3-0.3-0.6-0.5c-1.4,0.1,1.3,0.5-1,0.5c-1.4-0.3-1-0.4-2.7-0.4
		c-0.2-0.1,0.1-0.2,0.8-0.2c-1.5,0.1-4-0.2-4.8,0.1c-1.5-0.4-5.1-0.1-4.9-0.6c-0.5,0.1-2.6,0.3-4,0.2c2.5-0.5-5.2-0.1-4.5-0.6
		c-1.9,0.4-6.7,0.2-10,0.6c0.2,0,0.5-0.1,0.8-0.1c-1.9,0-2.4-0.1-3.6-0.2c-0.2,0.4-3.1,0.6-4.7,0.9c-2.3-0.3,1.4-0.5,0.6-0.9
		c0.1,0.3-3.9,0.5-3.1,0.8c-1.7-0.1-1.5,0-2.4-0.3c-0.3,0.5-1.6,0.2-3,0.6c-2.5,0-0.7-0.4-3.4,0C98.7,1.9,101.1,1.5,101.1,1.5z
		 M36.6,14L36.6,14c0.5-0.2,1-0.3,1.3-0.4C37.7,13.7,37.3,13.8,36.6,14z M31.4,15.7c0.6-0.2,1.4-0.5,2.3-0.7c0.2,0,0,0.2-0.5,0.4
		C33.4,15.1,32.2,15.5,31.4,15.7z M43.1,14.2c-0.8,0.3-1.1,0.3-1.3,0.3c0.4-0.1,0.9-0.3,1.5-0.4c0,0,0.1,0,0.1-0.1
		C43.3,14,43.2,14.1,43.1,14.2z"/>
	<path class="st0" d="M44.5,13.4c0.1,0,0.2-0.1,0.3-0.1c-0.2,0-0.3,0-0.5,0.1c-0.1,0.1-0.2,0.1-0.3,0.2
		C44.2,13.5,44.3,13.5,44.5,13.4z"/>
	<path class="st0" d="M169.3,7.8l0.1,0c-0.1,0-0.2,0-0.2,0C169.3,7.8,169.3,7.8,169.3,7.8z"/>
	<polygon class="st0" points="27.8,62.5 27.8,62.4 27.4,62.3 	"/>
	<path class="st0" d="M139,7.6c-0.1,0-0.2,0-0.4-0.1C138.6,7.5,138.8,7.5,139,7.6z"/>
	<path class="st0" d="M125.9,8.1l-1.9,0C124.8,8.1,125.4,8.1,125.9,8.1z"/>
	<path class="st0" d="M115.8,8.6c-0.1,0.1-0.2,0.1-0.2,0.1l0,0L115.8,8.6z"/>
	<path class="st0" d="M275.8,14c0.1,0,0.3,0.1,0.4,0.1C277.1,14.2,276.5,14.1,275.8,14z"/>
	<path class="st0" d="M228.4,8.5c0.5,0,1,0,1.5,0C229.1,8.4,228.4,8.4,228.4,8.5z"/>
	<path class="st0" d="M275.6,40.3C275.6,40.2,275.6,40.2,275.6,40.3c-0.1,0-0.2,0.1-0.3,0.1L275.6,40.3z"/>
	<path class="st0" d="M232.1,8.6c-0.8-0.1-1.6-0.1-2.2-0.1C230.6,8.6,231.4,8.6,232.1,8.6z"/>
	<path class="st0" d="M72.3,12.5l-0.5,0c0,0,0,0-0.1,0.1L72.3,12.5z"/>
	<path class="st0" d="M71.7,12.6l-0.5,0.1C71.4,12.6,71.6,12.6,71.7,12.6z"/>
	<path class="st0" d="M70.1,12.9l1.1-0.2C70.8,12.7,70.3,12.8,70.1,12.9z"/>
	<path class="st0" d="M85.5,11.2l0.1-0.1C85.6,11.1,85.6,11.1,85.5,11.2z"/>
	<path class="st0" d="M89.6,10.7c-1,0.1-2.4,0-3.8,0.2L85.7,11C86.3,10.8,88.7,11,89.6,10.7z"/>
	<path class="st0" d="M106.5,10.5l-3.4,0.2c0.6,0.1,1.4,0.1-0.1,0.3C107.3,11,102.1,10.8,106.5,10.5z"/>
	<path class="st0" d="M117.1,9.9c-1.8,0.2,0,0.2-0.1,0.2C118.1,10,118.4,9.9,117.1,9.9z"/>
	<path class="st0" d="M193.1,8.2l-0.2,0.3C194.3,8.4,192.9,8.3,193.1,8.2z"/>
	<polygon class="st0" points="207.7,7.3 206.3,7.1 205.7,7.3 	"/>
	<polygon class="st0" points="216.2,9.5 215.6,9.5 217.9,9.5 	"/>
	<path class="st0" d="M260.7,42.2l0.5,0.2C262.1,42,262.2,41.6,260.7,42.2z"/>
	<path class="st0" d="M207.1,54.7c-0.6-0.1-2.2,0.1-3.1,0.4C205.2,54.9,206.4,54.8,207.1,54.7z"/>
	<polygon class="st0" points="42.7,63.2 43.8,63.2 41.7,63 	"/>
</g>
</svg>
