<svg xmlns="http://www.w3.org/2000/svg" xml:space="preserve" id="Layer_1" x="0" y="0" viewBox="0 0 299.8 69.3"><style>.st0{fill:#202020}</style><path d="M60 14.2q-.6.3.9.1l.7-.4z" class="st0"/><path d="M67.1 13.9c1.2-.3 2.6-.8 1.8-1-1.2.5-1.5.4-2.8.9q-1.7.2-1.7 0c-.4.1-1.6.1-2.2.4q2.1.2 4.9-.6c.5.1.1.3 0 .3" class="st0"/><path d="M170.1 7.8h-.7z" class="st0"/><path d="M234 9.9h-.7z" class="st0"/><path d="m244.8 11.1-.6-.1q.5.2.6.1" class="st0"/><path d="m170.1 7.8 1.7.1c.2-.1-.8 0-1.7-.1" class="st0"/><path d="m81.2 11.5-.9.2z" class="st0"/><path d="M142 8.7h-.5l-.4.2z" class="st0"/><path d="M120.4 9.9q.6-.1.8-.4l-1.1.3z" class="st0"/><path d="m86.1 12.1-.6.1z" class="st0"/><path d="m157.4 8.3.2.1z" class="st0"/><path d="M137.4 1q.2 0 0 0" class="st0"/><path d="M162.3 4.1h-.3l-.1.1z" class="st0"/><path d="M264.5 14c-.6 0-.3 0 0 0" class="st0"/><path d="M158.4 61.3c2.1 0-3.3.7-.2.6-.3-.1 2.8-.7.2-.6" class="st0"/><path d="m81.8 11.5.9-.1z" class="st0"/><path d="M158.2 61.9h.3z" class="st0"/><path d="m291.9 31.8.5-.1z" class="st0"/><path d="m276 16 .8.2z" class="st0"/><path d="m275.3 38-1.2.4h.2q.3-.3 1-.4" class="st0"/><path d="M257.6 43.3h.3l.6-.2z" class="st0"/><path d="m81 4.1.9.1c-.4-.1 2.3-.5-.9-.1" class="st0"/><path d="m81.2 11.7.5-.2q-.3 0-.5.2-.1-.1 0 0" class="st0"/><path d="m33.9 64-.7-.1z" class="st0"/><path d="m264.1 43.8-1.7.3-.3.2z" class="st0"/><path d="M101.1 1.5c-2.8.2-1.3.5-1.9.7-3.3.4-1.6-.1-2.7-.2l-5.2.9c-.1 0-.4 0-.1-.2-2.2.5-6.5.8-9.1 1.5h-.3q.5.2.5.4-2 .5-2.8.4l1.2-.3-1.3.3c-1.2-.2 1.8-.4 1.7-.6-2.5.5-5.5 1.2-7.4 1.4-.5-.3 4.5-.9 1.9-.7l3-.3c-2.4-.2 1.8-.2-.4-.5-4 .5-4.4.9-8.4 1.4-.8.4.4.3-.5.6-5.5 1.4-4.6 0-8.6 1.2-1 .4-1.3 1-4.3 1.3l.9-.6c-3.8.8-2.1 1-6.1 1.7l2.4-.7c-2.6.3-1.8.6-3.7 1.1l-.5-.2q-6.1 1.6-12.8 3.8c.2-.2.9-.5-.1-.3-5.5 1.8-11.8 3.9-17 6.1l-1.8 1.2c-.5.2-.9.3-.4 0-2 .9 0 .2-.9.8q-1.7.8-.9.2l-6.3 4a35 35 0 0 0-6 5l.5-.7c-1.2 1.2-1.5 2.2-1.8 3.1L1 36.6V36q-.5 2.8.6 5.6 1 2.6 2.6 4.7 3.1 4.4 6.2 7.1l1.3.8 1.9 1.4q2.3 1.6 3.1 1.6l3.1 1.9c.8.4 1.8 1 4.3 2.1 1.4.6 2.2.4 4 .9v.3l2.5.4 1.2.7 1.7.3-1.3-.5a35 35 0 0 1 6.4 1.8l6.3.7h-2.1c3.4.2.6.4 3.7.5-.4-.1.2-.2.3-.2 1.5.4 5 .7 7.6.9l-.5.2q7.1.7 15.1 1c-1.9-.2-1.4-.5.1-.5l.6.4c1-.2-1.6-.2.4-.3 2 .1 1.3.4.2.5h2.4c.1.1-.4.1-.6.2 1-.1 4.1.5 5.5.2l.1.1H84l5.6-.1c.1-.3 1.8-.2 3-.5q4.7.2 10.4 0c2.6-.2.8-.3 2-.5.2.3 4 .1 2 .3 4.5-.3 5.8-.3 11.5-.9-.6-.1-1.3-.1-1-.2 1-.1 2.4 0 2.2.1h-.3c6.4-.8 14.9-.4 19.9-1.4l-.3.1 5.3-.8c2.4-.2-1.4.3.4.3 5.7-1 9-.9 13.7-1.7 3.7.3 12.9-1.6 17.8-1.8l-.3-.1c1.2-.3 1.5-.1 2.5-.2-.2-.1-1.4 0-.6-.2 10.7-1.7 22.1-3 33-4.8 4-.7 2.1-1.3 7.2-1.9l-1.4.6c8-1.9 16.4-3.3 24.1-5.5-.4.2-.4.3-1.2.5 1.7-.2 6.1-1.5 6.1-1.7 1.2-.3.3.1 1.1 0 1.7-.3 4-1.3 5-1.3l-.7.3c1-.4 5-1.3 3.9-1.3 2.9-.6 5.5-1.7 7.9-2.1q1.3-.6 3.1-1c1.8-.4 2.1-.6 2.3-.9-.1.5 5.1-1.2 6.9-2-.6.3 1.6-.4 1 0 2.1-.7 3.9-1.4 3.5-1.5 4-.7 7.4-3 9.8-3.1l2.2-.9 2.2-1q2.3-1.1 4-3c1.7-1.9 1.7-3.3 1.2-5s-1.7-3-2.9-3.9c.2-.1 1.7.9 2.6 2.6q.6 1.3.6 2.5c0 1.2 0 1.1.1 1.1a6 6 0 0 0-1.2-4.4q-1.2-1.6-2.8-2.4c-1.6-.8-2-1.1-3.1-1.5l-3.5-1.4c-1.3-.6.8.1 1.3.2a96 96 0 0 0-13.9-4.4c-.9-.2-2.2-.6-2.1-.4l.9.2c.7.3-.3.2-1.4.1l-2.6-.3c1.7-.3-4.7-1.1-2-1.3h-1.3q-1.5-.4-.2-.3c-3.4-.5-2.3-.1-5.3-.6l1-.1c-1.6 0-3.2-.1-5.8-.6.2 0-.1-.2.7 0-4.5-.6-7.7-.5-12.7-1.1 1.5-.3-1.7-.3-1.9-.7l-2.7-.1 1.1.3-6.4-.3h1.7l-4.4-.2 2.5.3c-2.4 0 .2.5-2.9.2.6 0-2.3-.1-3.5-.4q-1.7.2-4.1-.1c-.4-.1.4-.4.1-.5-1.2.2-5.5-.2-6.9.1q.7-.2.4-.3l-1 .2q-1.4-.1-1.1-.3c-3.3-.2 1 .5-2.8.1l.8-.1c-3.9-.3-7.5-.1-11.1-.4-1-.4 3.1 0 1.9-.3-5.1-.1-10.7.2-15.6 0l.9.1c-.7.5-3.7-.3-6.2-.1l.6-.2h-5.4l-6.7.3.6-.1-7.5-.1c-.6.1-1.9.1-1.1.3-6.7-.7-12.8.7-18.7.2.7 0 1.7-.2 1.1-.2l-5.1.3c.4.2.7.1 1.7.3L140 8c2.3-.2 0-.4-1-.5.2.1-.2.2-.1.2-2.7-.3-.4.5-4 .4l.1-.1-4 .4c-.6-.2 1.4-.2 1.5-.4-2 .1-4 .7-5.9.5l3-.3c-2-.2-2.3-.1-3.8-.1h.1l-3.5.1h.9c-2.5.9-5.2.5-8.6 1.1 3.3-.6.5-.3.8-.6-.9 0-2.2 0-1.9-.1-1.6.4-2.7 0-5 .5.1-.1-1.6.2-1.2-.1-2.1.2.5.1.3.3-3.2.6-7.7.2-12.3 1.1-4 .5-4.7 1-8.5 1.5-1.3 0 1-.5 1-.5-2.1.1-3.6.2-5.5.5q.5-.2-.6-.2c-1.5.2-1 .5-3 .6l1.5-.6-5.4 1c-.5-.1 1.1-.4 1.8-.6-2.1.3-5.4.8-6.1 1.1l1.4-.1c-.8.1-.4-.2.1-.3q2.6-.4 2.7-.1l-1.3.2c1.4.4 5.4-.7 8-1l-1.1.5 2.7-.6c.6 0 1 .2-.3.4 2 0 1.7-.3 3.4-.3q.3 0-.1.1l1.9-.3c-.4.1.3.3-.8.3 3.4-.1 5.4-.9 6.7-.7l-.3.1c4.7-.6.4-.3 3.9-1l2.4.5.4-.3h1.3c1.8-.4-.3-.1.7-.4 2.4.1 6.4-.6 7-.2.8-.3-2.2 0 .2-.4.7.5 2.9-.3 5-.2-.5.5-2.5.6-.3.6 1.3-.5 4.2-.2 6-.4.1-.4 3.9-.4 6.9-.7l8.5-.1-.1.1c.5-.4 3.4-.4 5.5-.6q0 .3-1.6.5l2-.1 2.4-.3-.5.3c2.6-.1 5.3-.5 8.7-.4.2-.3-2.7-.6.9-.9.1.1.3.4-.7.4l1.7-.1-1.4.3c1.6.1.8-.2 2-.2 0 .2.9.1.7.3h-1.6l3.7.2q-.3-.2 1-.3c2.6-.1.9.2 2.5.3.6-.1 2.3 0 2.4-.3.8 0 .9.1 1.2.2 1.4-.2 6.4-.1 4.9-.4h-.4.2c4.5-.3 9.3.1 13.8.1V8c2.7-.1 5.9 0 7.8-.2.8 0 1.9.2 1.5.3 2 0 2.3-.1 5.2.1-2 .1.7.2-2.1.1 2.6.1 3.2.3 6.1.1-1 .2 2 .4 3.2.4l-1.8-.2 3.9.1-.7.3c5.4.6 9.8-.3 13.8.6 1.4-.2-2.9-.3-1.6-.5 2.5.2 5 .8 5.8.8 3.4.4 3.2-.3 6.7 0-.4-.1-.9-.5 1.8-.4 2.5.2 3 .7 1.4.7l-.9-.1c-.8 0-1.9 0-.9.2l.3-.1c1.2.2 4.6.4 3.8.6 1.9 0 .8-.1-.6-.3l8.2.8-.5-.2c4.8.6 2.1 0 5.4.2 1.8.4-.7.4 2.6.6 2 .4.4.4-.4.4 3 .1 5.5.8 7.2 1.1l-1.6-.1 2.5.3-.9-.4 1.6.4c1 0-.7-.5 1.2-.4 1.2.3 3.7.5 4.1.9-3.8-.8.4.4-2.9-.1l2.3.4h-.4c3.6.9 1.7 0 5.5.7-.5.1.8.5 1.4.6-1.5-.3-.7-.5.8-.3 2.4.7 2.6.5 3.9.9l-1.4-.4q.8 0 3.4.7c.1.2-1.5-.3-1-.1 1.9.2 4 1.5 6.6 2.1 1.1.5 0 .3 1 .8 2.9.8 2.9 1.3 5.9 2.3-.8-.5-.9-.6 1.2.1l-4.8-1.7 3.2.9c-1.4-.6-3.1-1.1-4-1.4 1.5.3 1.4.3.7-.1q1.4.8 3 1.2t3.1 1.4l-.3.5a12 12 0 0 1 3.6 3c.8 1.1 1 3-.4 4.5l.8-1q0 .5-.9 1.4t-1.9 1.5c0-.2-.8.2-1.4.3.1.1-.7.4-1.5.8-.8.3-1.8.7-1.9 1l-2.1.5c-3.7 1.2-4 2-7.6 3.1 1-.6-.7-.2 1.7-1.1-1.2.4-2.3.7-2.2.8-.7.1-3.2 1.3-4.3 1.5-.5.2-.6.5-1.9.9q-.1 0 0-.1c0 .1-2.1.8-.8.6-1.9.3-4.5 1.1-7 1.8s-5 1.5-6.6 1.7l-8.1 2.3.4-.2c-3.3.7-1.9 1.1-5.7 1.8-2 .2 2-.7.7-.5-.7-.5-4.5 1.2-7.1 1.4l.6-.2c-2 .2-4.7 1.3-7.9 2v-.1c-2.1.8-6.2 1.8-9.3 2.5q1.6-.5.7-.5c-1.4.3.5.3-2.3.9-.9 0-2.9.3-3.2.1l2.6-.5c-1.4-.1-3.4.7-4.7.9l.1-.2c-4 .8-4 1.2-8.2 1.9h.5c-2.3.8-2 .2-4.3.8l-.8-.3-8.1 1.8c1.5-.5 4.8-1.2 6.7-1.7-1.5.2-5.2.9-6 1.2l2-.4q-2.7.9-7.4 1.6c.4-.8-8 1-10.3.7-5.4 1-10.8 1.3-17.1 2.1 2.3.3-1.9.2-1.4.8q-2 .3-2.2.2l-4.5.1c-1.1-.1 1.4-.3 1.2-.4-3.2.3-1.4-.1-3.5 0 .5.2-1.1.4-2.9.5h2.6c-4.5.8-4-.1-8.5.7l1.4-.3c-2.3.4-8.6.8-10.9 1.5-.4 0-1-.1 0-.3-5.6.4-12.4 1.5-16.8 1.5l.4-.2q-1.3.3-3.1.3c.1-.1.4-.2-.1-.2-.6.1-2.8.4-4.2.4l1.2-.2c-5.5.1-8.4.8-13 1 0-.5-4.3-.5-6.5-.5l.1-.1-8.6.2-8.2.2c-1.8-.3-4.9-.5-8.3-.7l-5.1-.4-4.8-.5c.9.2-.2.3-1.2.3-1.4-.2-3.8-.1-3.6-.5l.5.1c-1-.5-3.8-.7-6-1l-.3.3c-2.8-.8-6.6-1.3-9.9-1.9-3.4-.7-6.4-1.4-7.8-2.3l-2.2-.6-2.1-.7.2-.2-2.3-1.1-2-1-4.7-2.8.9.4q-1.5-1-2.6-1.4a6 6 0 0 1-2.4-1.5l-.2-.8-2.3-2.5-1.1-1.4-.9-1.4A22 22 0 0 1 3 38.9l.4.8-.3-1.9q0-1.2.4-2.3c.2-1.5.9-2.6.5-2.4q.3 0 1.7-1.9 1.7-1.8 3.3-3.1l-.2.5c1.5-1.5 1.6-1.6 4.1-3.2q1-.4-.2.3c2.1-1 1.5-1.2 4.1-2.4l-.9.7c2.2-1.1 2-1.1 3.1-1.9l2.7-1.2q1.6-.6 2-.5.5-.6 2.8-1.4c.2 0-.3.3-.5.4 3.9-1.3 5.6-2.4 8.3-3h.5l-5.3 1.8c.1.2 2.6-.6.7.4 1.9-.9 5.2-2.4 7.7-3h.3l-.2.1 1.5-.5 2.1-.5c.3.1 2.9-.7 4.2-1-.2-.2 1.5-.6-.1-.5l-1.1.3-.5.2h.1l.3-.1 1.7-.9c1.8-.1 5.2-.6 5.8-.5 3.8-1.1 9.2-2.1 11.5-3.1 1.1-.3 1.3-.1 1.7-.1l-1.7.4c2.2-.5 6.6-1.3 7.1-1.7 2.9-.3-1.5.6 2.3-.1l-.5.2c7.7-.7 12.3-2.8 20.9-3h-1c9.8-.7 20.1-2 29.8-1.6 2.7.1 3-.2 4.7-.4l.6.3 2.9-.3c4.1-.2 7 .9 12.2.6l-.7-.2c1.8.1 5.9.2 5.5.4h1.3v.2l4.5.1c3.5.4-.6.5 4.5 1.1 1.9.1 5.4.1 4.7-.1-.8-.1-1.9-.3-2-.5l1.7.1c.4-.4 1.8-.8-2.5-1.5h-3l-.9-.3 2.5.2q-2-.4-3.4-.2-.3-.2-1.2-.3l-3 .2c-.3-.2 1.3-.3-.6-.5-1.4.1 1.3.5-1 .5-1.4-.3-1-.4-2.7-.4q-.3-.2.8-.2c-1.5.1-4-.2-4.8.1-1.5-.4-5.1-.1-4.9-.6-.5.1-2.6.3-4 .2 2.5-.5-5.2-.1-4.5-.6-1.9.4-6.7.2-10 .6l.8-.1c-1.9 0-2.4-.1-3.6-.2-.2.4-3.1.6-4.7.9-2.3-.3 1.4-.5.6-.9.1.3-3.9.5-3.1.8-1.7-.1-1.5 0-2.4-.3-.3.5-1.6.2-3 .6-2.5 0-.7-.4-3.4 0-1.3-.6 1.1-1 1.1-1M36.6 14l1.3-.4zm-5.2 1.7 2.3-.7q.3 0-.5.4c.2-.3-1 .1-1.8.3m11.7-1.5q-1.1.4-1.3.3l1.5-.4.1-.1z" class="st0"/><path d="m44.5 13.4.3-.1-.5.1-.3.2z" class="st0"/><path d="M27.8 62.5v-.1l-.4-.1z" class="st0"/><path d="m139 7.6-.4-.1z" class="st0"/><path d="M125.9 8.1H124z" class="st0"/><path d="m115.8 8.6-.2.1z" class="st0"/><path d="m275.8 14 .4.1c.9.1.3 0-.4-.1" class="st0"/><path d="M228.4 8.5h1.5z" class="st0"/><path d="M275.6 40.3q0-.1 0 0l-.3.1z" class="st0"/><path d="m232.1 8.6-2.2-.1z" class="st0"/><path d="M72.3 12.5h-.5l-.1.1z" class="st0"/><path d="m71.7 12.6-.5.1z" class="st0"/><path d="m70.1 12.9 1.1-.2z" class="st0"/><path d="m89.6 10.7-3.8.2-.1.1c.6-.2 3 0 3.9-.3" class="st0"/><path d="m106.5 10.5-3.4.2c.6.1 1.4.1-.1.3 4.3 0-.9-.2 3.5-.5" class="st0"/><path d="M117.1 9.9c-1.8.2 0 .2-.1.2 1.1-.1 1.4-.2.1-.2" class="st0"/><path d="m193.1 8.2-.2.3c1.4-.1 0-.2.2-.3" class="st0"/><path d="m207.7 7.3-1.4-.2-.6.2z" class="st0"/><path d="M216.2 9.5h-.6 2.3z" class="st0"/><path d="m260.7 42.2.5.2c.9-.4 1-.8-.5-.2" class="st0"/><path d="M207.1 54.7a9 9 0 0 0-3.1.4z" class="st0"/><path d="M42.7 63.2h1.1l-2.1-.2z" class="st0"/></svg>