<svg xmlns="http://www.w3.org/2000/svg" xml:space="preserve" viewBox="0 0 127.1 180.2"><path d="m122.6 175.9.1-.7-.1-.6z"/><path d="M122.8 170.3c-.1-1-.2-2.1-.3-1.5l.2 2.3c0 .8 0 1.5-.1 1.3l.1 1.8zc0-.4 0-.1 0 0"/><path d="M123 88.1v.5z"/><path d="M123.1 37.2v.6z"/><path d="M123.3 28.5v.5z"/><path d="M123 88.1v-1.4z"/><path d="M122.5 158.9v.7zq0 .2 0 0"/><path d="M123.1 110.5v.4l.1.3z"/><path d="M123.2 127.8q0-.5-.2-.7l.1.8z"/><path d="M123 155.1v.5z"/><path d="M123.2 98.2V98z"/><path d="M102.9 175.4q.2 0 0 0"/><path d="M122.8 175.9h-.3l-.1.1z"/><path d="M123.4 12.6c0 .5 0 .2 0 0"/><path d="M4.4 23.8c.1-1.7.1 2.7.2.2 0 .3-.2-2.2-.2-.2"/><path d="M122.5 158.5v-.7z"/><path d="M4.6 24v-.3z"/><path d="M94.6 3.7h.4z"/><path d="M121.9 3.9h-.7z"/><path d="M80.4 3.9h-1 .2q.2-.2.8 0"/><path d="M65.6 3.9h.8z"/><path d="m58 175.4.7.1c-.2 0 1.9-.1-.7-.1"/><path d="M122.6 158.9v-.4q-.1.3 0 .4-.1.2 0 0"/><path d="M79.8 4.8h-2.3z"/><path d="M5.3 123.2v.5z"/><path d="m70.5 4.8-1.3-.1h-.3z"/><path d="M74.2 175.3c-2.2 0-1 .1-1.5.2-2.7 0-1.2-.1-2.1-.2l-4.2.2q-.3 0-.1-.1c-1.8.1-5.2 0-7.3.2h-.3l.3.2h-2.2l1-.1h-1c-.9-.1 1.4 0 1.4-.2-2 0-4.4.2-6 .1-.3-.1 3.7 0 1.6-.2l2.4.1c-1.9-.2 1.5 0-.2-.2h-6.8c-.7.1.2.1-.5.2-4.5.1-3.6-.3-6.9-.2-.9.1-1.2.3-3.6.2l.8-.2c-3.1 0-1.8.2-5 .1l2-.1c-2.1-.1-1.5.1-3.1.1l-.3-.1-10.6.1-14.2-.2-1.8.3q-.8 0-.3-.1h-.3l-.1.1v-.5l.1.3c-.1-3-.2-8.7-.1-11.9v.6c0-2.5-.2-2.8-.1-5.1v.4c.1-5.4-.1-11.4.1-15.6-.2-.8.1-5.4-.2-5.7.1-3.1.2-2.2.2-6.6l-.2-3.2h.1l-.1-2 .1-1v-1.4l-.1 1.1v-3.4l.1-1.8-.1-5 .1 1.6v-2.9c0 .3-.1-.2-.1-.2v-6l.1.4v-12c0 1.5-.2 1.1-.2-.1l.1-.5c-.1-.8 0 1.3-.2-.3 0-1.6.2-1 .2-.2v-1.9l.1.4v-4.5l-.1-9.4-.2-2.4.1-8.3c-.1-2.1-.1-.6-.2-1.6.1-.2.1-3.2.2-1.6L4.9 56l-.1.8c0-.8 0-1.9.1-1.8v.2c-.2-5.1.3-11.8.1-15.9v.2l-.1-4.2c0-1.9.1 1.2.1-.3-.2-4.6 0-7.2-.1-10.9.3-2.9 0-10.3.2-14.2l-.1.2c-.1-1 0-1.2.1-2 .3.2.3 1.2.2.6V4.6l10.5.1 11 .1c3.2 0 1.8-.4 5.9-.2l-1.2.1 19.6-.1-1 .1h3l2-.1c1 0 .2.1.8.1H60h-.6c.9 0 4.1 0 3.2-.1h6.5c1.2-.1 4.1.1 4.5-.1-.2.2 4.2.1 5.7.1-.5.1 1.3.1.7.1 1.7 0 3.3 0 3-.1 3.2.2 6.4-.2 8.2.1l14.4-.2c-.2.2-5.1 0-4.9.2l11.2-.2c1.1 0-.6.1-1 .1h11.4v.2-.1h-.2.1s0 1 .1.8v-.7q0-.2.1 0v1l.1 2.1c-.2-1.3-.1 3.8-.4 1.8l.1 1q0 1.2-.1.2l.1 4.2-.1-.8c.1 1.3.2 2.5.1 4.6 0-.1-.1.1-.1-.5 0 3.6.2 6.1.1 10.1-.2-1.2-.1 1.3-.2 1.6v2.1l.1-.9.1 5.1-.1-1.4v3.5l.1-2c.1 1.9.2-.2.1 2.3l-.1 2.8.1 3.2c0 .4-.2-.3-.2-.1.1.9 0 4.4.2 5.5q0-.5-.1-.3l.1.8q0 1.2-.1.8c0 2.6.2-.8.1 2.3v-.6V62c-.2.8 0-2.5-.2-1.5 0 4.1.2 8.5.1 12.4v-.7c.2.5-.1 2.9 0 5l-.1-.5.1 9.7-.1-.5-.1 5.9c.1.5 0 1.5.1.9-.3 5.3.2 10.2-.1 14.9v-.9l.1 4 .1-1.4.1 2.6c-.1-1.8-.2 0-.2.8l.1.1c-.2 2.1.2.4.1 3.2v-.2l.1 3.2c-.1.5-.1-1.1-.1-1.2l.1 4.7-.1-2.4-.1 3v-.1l-.1 2.8v-.7q.2 2.8.2 6.9c-.2-2.7-.1-.4-.2-.6l-.1 1.5c.1 1.3-.1 2.2.1 4 0 .1 0 1.4-.1 1.1 0 1.7.1-.4.1-.3.1 2.6-.2 6.1 0 9.8l.3 6.8c-.1 1-.1-.8-.1-.8v4.4l-.1.5.1 2.4-.2-1.2.1 4.4c-.1.4-.1-.9-.1-1.4l.2 4.9v-1.1c0 .6-.1.3-.1-.1q-.1-2 .1-2.2v1.1c.2-1.1 0-4.3 0-6.4l.2.9-.1-2.2c0-.5.1-.8.2.3v-2.7.1l-.1-1.5c0 .3.1-.3.1.7V149v.2c-.1-3.8-.1-.4-.3-3.2l.3-1.9-.1-.4c0-.4 0-1.2.1-1-.1-1.4-.1.2-.1-.6.1-1.9-.1-5.1.1-5.6-.1-.7-.1 1.8-.1-.2.2-.6 0-2.3.1-4 .1.5.1 2.1.1.4-.2-1 0-3.3 0-4.8l-.1-5.5.1-6.8v.1l-.2-4.4.2 1.3V111l-.1-1.9.1.4-.1-7c-.1-.2-.3 2.2-.4-.7.1-.1.2-.2.2.5v-1.4l.1 1.1-.1-1.6.1-.6v1.2l.1-2.9-.1-.8c0-2.1.1-.7.1-2l-.1-1.9.1-1c-.1-1.1 0-5.1-.1-3.9v.3-11.2l-.1-6.2.1-1.2v-4.1c.1 1.6.1-.6.1 1.7V63c.1.8.1-1.6.1-2.6l-.1 1.5v-3.1l.1.5c.2-4.3-.3-7.8 0-11-.1-1.1-.1 2.3-.2 1.3l.2-4.7c.1-2.7-.2-2.5-.1-5.4 0 .4-.2.7-.2-1.4q.1-3 .2-1.2v.7c0 .6 0 1.5.1.7V38c0-1 0-3.7.1-3.1 0-1.5-.1-.6-.1.5v-6.6l-.1.4c.1-3.8-.1-1.7-.1-4.3.1-1.5.2.5.1-2.1 0-1.6.1-.3.2.3l.1-5.8v1.3-2l-.1.7.1-1.3c-.1-.8-.2.6-.2-.9 0-1-.1-3 .1-3.3 0 3.1.1-.3.1 2.3v-1.9.3c.1-3-.1-1.4-.1-4.4.1.4.1-.7.1-1.2 0 1.2-.1.6-.2-.5V3.8h-1.3 1.3v.3-.3h-2.8c-.1-.1 1.2 0 .8-.1h-5.6c-1 0-.1-.1-1-.2H109c.7.1.8.1-.9.2l4.1-.1-2.2.3h3.4c-1.3.1-1.1.1-.5.1h-5.3l.1-.2c-2.9-.1-5.2.1-9.1.1h1.2l-3.6.1c.1-.1-.7-.1-1.2-.2.1.1-2.8 0-3.2.2l-1.7-.1c-3.1-.2-3.5.1-6.5.1.9-.1-.5-.1 1.5-.2h-5.6c-.4.1-.5.2-1.6.2 0 0-1.7.1-.8.1-3.1-.2-8.5 0-11.2-.2l-6.7.1h.4c-2.7-.1-1.7.2-4.8.1-1.6-.1 1.6-.1.7-.1-.4-.3-3.7 0-5.8-.1h.5l-6.5.1-7.6.1q1.2-.1.6-.2c-1.1 0 .3.2-1.9.2l-2.5-.2h2.1-3.8l.1-.1c-3.2 0-3.3.2-6.7.2h.4c-1.9.2-1.6-.1-3.5 0l-.6-.2-6.6.2 5.5-.3-4.9.1h1.6l-6 .2-1.5-.1H4.5v2.2l-.1 1.3v13.8c.2-1.8 0 1.5.3 1.2v1.7l-.1 3.6c-.1.9-.1-1.1-.1-1 0 2.6-.1 1.1-.2 2.8.1-.4.1.9.1 2.4l.1-2.1c.1 3.6-.2 3.1-.1 6.8l-.1-1.2.1 8.7c0 4.5.2 10 .1 13.5l-.1-.3.1 2.5q0-.3-.1.1c-.1.4.1 2.2.1 3.3l-.1-.9c-.1 4.4.2 6.7.2 10.4-.2 0-.2 3.4-.3 5.2v-.1l.2 13.4c-.2 2.9-.1 9.9-.2 14.6 0-.7.1.1.2 1v2.9-.4c-.2.8-.1 3.1-.1 4.9l.2.3c-.3 4.6.1 12.2-.2 14.7l.1 3.6-.1-.1v8.5l-.1-.8c0 2.2.3 2.7.3 4.7l-.2.6V157l-.1-.8c0 1.8-.1 6.9.1 6.2-.2 0 0 3.9.1 5.9l-.1-.3c.1 1.7.2 1.8.2 4.2q0 .9-.1-.3v3.8l-.1-1v1.5l2-.1 4 .1 2.5-.1-.5.1h7.1l.4.1h-4.5c0 .1 2.1.1.4.3l6.6-.2h.3-.2 3l3.4.1c-.1-.1 1.3-.1 0-.2h-1.3.1-2.6 2.8l1.5-.2c1.4.2 4.2.2 4.6.3 3.2-.1 7.5 0 9.5-.3l1.4.1h-1.4c1.8-.1 5.4 0 5.8-.2 2.3.1-1.3.1 1.9.1h-.4c6.2.2 10-.4 16.9-.1l-.8-.1c7.8.1 16.1-.1 23.8.1l3.8-.1.5.1 2.3-.1c3.2-.1 5.6.3 9.7.1l-.5-.1h5.5v.1l3.6-.1c2.8 0-.4.3 3.7.3l3.8-.2-1.6-.1h1.4c.3-.2 1.3-.4-2.1-.5l-2.4.1-.8-.1h2-2.7l-1-.1-2.3.2c-.3-.1 1-.1-.5-.2-1.1.1 1 .2-.8.2-1.1-.1-.8-.2-2.1-.1l.6-.1-3.8.1c-1.2-.1-4 0-3.9-.2l-3.2.1c2-.2-4.1 0-3.6-.2-1.5.2-5.3.1-8 .2h.7l-2.8-.1c-.2.2-2.5.2-3.7.3-1.8-.2 1.1-.2.5-.3.1.1-3.1.1-2.5.2-1.4-.1-1.2 0-1.9-.2-.2.2-1.3 0-2.4.2-2-.1-.5-.2-2.7-.1zm-52.2.3h1.1zm-4.4 0h1.9l-.5.1zm9.3.8h-1 1.3z"/><path d="M28.1 176.3h.3-.6z"/><path d="m5.4 128.1.1.4z"/><path d="M122.6 112.9v.3z"/><path d="M122.6 123.3v1.5z"/><path d="M122.5 131.3v.2z"/><path d="M122.3 4.6h-.4z"/><path d="m122.7 41.7-.1-1.2z"/><path d="M80 4.8h-.3z"/><path d="M122.6 38.7v1.8z"/><path d="M122.5 166.1v.4z"/><path d="M122.5 166.5v.4z"/><path d="M122.5 167.8v-.9z"/><path d="m122.5 152.2-.1 3v.1c0-.5.2-2.3.1-3.1"/><path d="M123 138.8v2.7c0-.5.1-1.1.1.1.1-3.4-.1.7-.1-2.8"/><path d="M123.1 130.4c0 1.4.1 0 0 0q0-1.5 0 0"/><path d="M123.1 69.8c0-1.1 0 0-.1-.1"/><path d="m122.6 58.2-.1 1.1.1.5z"/><path d="M123.3 51.4v.5V50z"/><path d="m68.3 3.8.3.1q1.3-.1-.3-.1"/><path d="M24.3 3.9h-2.5z"/><path d="M4.3 116.5v-.9 1.6z"/><path d="m125.5 178.7.1-.7-.1-.6z"/><path d="M125.8 172.8c-.1-1-.2-2.2-.3-1.5l.2 2.4-.1 1.4.1 1.8zc-.1-.4 0-.1 0 0"/><path d="M126 87.4v.6z"/><path d="M126.1 34.4v.6z"/><path d="M126.3 25.4v.5z"/><path d="M126 87.4V86z"/><path d="M125.5 161v.8z"/><path d="M126.1 110.7v.4l.1.4z"/><path d="M126.2 128.6q0-.5-.2-.7l.1.9z"/><path d="M126 157v.5z"/><path d="M126.2 97.9v-.2z"/><path d="M105.1 178.1q.2 0 0 0"/><path d="M125.8 178.7h-.3l-.1.1z"/><path d="M126.4 8.8q0 .2 0 0c0 .6 0 .3 0 0"/><path d="M1.4 21.9c.1-1.7.1 2.8.3.2-.1.2-.3-2.4-.3-.2"/><path d="M125.5 160.5v-.7z"/><path d="M1.6 22.1v-.3z"/><path d="m95.1.9.4.1z"/><path d="M123.5 1.1h-.7z"/><path d="M80.4 1.1h-1z"/><path d="M65 1.1h.8z"/><path d="m58.4 178.2.7.1c-.2-.1 2.1-.2-.7-.1"/><path d="m125.5 161-.1-.5zq0 .2 0 0"/><path d="M79.8 2h-2.4z"/><path d="M2.3 125.2v.6z"/><path d="M70.1 2h-1.7z"/><path d="M75.2 178c-2.3 0-1.1.2-1.6.2-2.8 0-1.3-.1-2.2-.2l-4.3.2q-.3 0-.1-.1c-1.8.1-5.4 0-7.6.2h-.3l.3.2h-2.3l1-.1H57c-1-.1 1.5-.1 1.5-.2-2.1 0-4.6.2-6.2.1-.3-.1 3.8 0 1.6-.2l2.5.1c-1.9-.2 1.5 0-.2-.2h-7c-.7.1.2.1-.5.2-4.7.1-3.7-.4-7.2-.2-.9.1-1.2.3-3.7.2l.8-.2c-3.2 0-1.8.2-5.2.1l2-.1c-2.2-.1-1.5.1-3.2.1l-.3-.1-11 .1c-4.8.1-10.2 0-14.8-.1l-1.8.1c-.4 0-.8-.1-.3-.1-1.8 0-.1.1-1 .1h-.7l.1-.1h-.1v-2.3l-.1-3.2v-5.9.7c.1-2.6-.3-2.9-.1-5.3v.5c.1-5.6-.1-11.9.1-16.2-.2-.8.1-5.6-.2-6l.3-6.8-.2-3.3h.1l-.1-2 .2-1.1v-1.4l-.1 1.1v-3.5l.1-1.9-.1-5.2.1 1.7v-3c0 .3-.1-.2-.1-.2v-6.3l.1.4V96.3c0 1.6-.2 1.2-.2-.1l.1-.5c-.1-.8-.1 1.3-.2-.4 0-1.6.2-1.1.2-.2v-2l.1.5v-4.7l-.1-9.8-.2-2.5.1-8.6c-.1-2.2-.1-.6-.2-1.6.1-.2.1-3.3.2-1.7L2 55.2l-.1.8c0-.9 0-2 .1-1.8v.2c-.2-5.3.3-12.3.1-16.5v.2L2 33.7c0-2 .1 1.2.1-.3-.2-4.7 0-7.5-.1-11.4.3-3 0-10.7.2-14.8l.2.5c-.1-1.1 0-1.3.1-2-.1.1-.1 1.1-.1.4V1.9l10.8.1 11.4.1c3.3 0 1.9-.4 6.1-.2l-1.2.1c6.7-.2 13.8 0 20.4-.1l-1 .1h3.2l2.1-.1c1 0 .2.1.9.1h4.3-.6c.9 0 4.2 0 3.4-.1h6.7c1.1-.1 4.1.1 4.5-.1-.2.2 4.3.2 5.9.1-.5.1 1.4.1.7.1 1.8 0 3.4 0 3.1-.1 3.3.2 6.6-.2 8.5.1l15-.2c-.2.2-5.3 0-5.1.2l11.6-.2c1.2 0-.7.1-1.1.1l12.8-.1-.9.1h1.3-.4c-.6-.1.1-.1.5-.2V3l.1.9c-.2-1.3-.1 4-.4 1.8l.1 1.1q0 1.3-.1.2l.1 4.4-.1-.8c.1 1.3.2 2.6.1 4.8 0-.1-.1.1-.1-.5 0 3.7.2 6.4.1 10.5-.2-1.2-.1 1.4-.2 1.6v2.2l.1-.9.1 5.3-.1-1.4v3.6l.1-2.1c.1 2 .2-.2.2 2.4l-.1 2.9.1 3.4c-.1.4-.2-.3-.2-.1.1.9 0 4.5.2 5.7q0-.5-.1-.3l.1.8-.1.9c0 2.7.2-.9.1 2.3V51v9.2c-.2.9 0-2.6-.2-1.6l.2 12.9v-.8c.2.6-.1 3.1 0 5.1l-.1-.5.1 10-.1-.5-.1 6.2c.1.5 0 1.6.1.9-.3 5.5.2 10.6-.1 15.5l-.1-.9.1 4.2.1-1.4.1 2.7c-.1-1.9-.2 0-.2.8l.1.1c-.2 2.2.2.4.1 3.3l-.1-.2.1 3.3c-.1.5-.1-1.2-.1-1.3l.1 4.9-.1-2.5-.1 3.1v-.1l-.1 2.9v-.7c.3 2.1.1 4.3.2 7.2-.2-2.8-.1-.5-.2-.7l-.1 1.5c.1 1.3-.1 2.2.1 4.2 0 .1 0 1.4-.1 1.1 0 1.8.1-.4.1-.3.1 2.7-.2 6.3 0 10.2l.3 7.1c-.1 1-.2-.9-.2-.9v4.6l-.1.5c0 1.3.2.9.1 2.5l-.2-1.3.2 4.6c-.1.4-.1-.9-.2-1.5l.2 5.1v-1.1c0 .6-.1.3-.1-.1q-.1-2.2.1-2.3v1.1c.2-1.1 0-4.5 0-6.7l.2.9-.1-2.3c0-.5.1-.8.2.3v-2.8.1l-.1-1.6c0 .3.1-.3.1.7v-5.6.2c-.1-3.9-.1-.4-.3-3.3l.3-2-.1-.4c0-.4 0-1.2.1-1.1-.1-1.5-.1.3-.1-.6.1-1.9-.1-5.3.2-5.8-.1-.7-.1 1.9-.1-.2.2-.6 0-2.4.1-4.2.1.5.1 2.2.2.4-.2-1.1 0-3.4 0-4.9-.2-.1-.1-3.2-.1-5.8.1.2.1-4.7.1-7v.1c-.2-.5-.1-2.9-.2-4.6l.2 1.3v-1.6l-.1-2 .1.4-.1-7.2c-.1-.2-.3 2.2-.4-.7.1-.1.2-.2.2.6v-1.4l.1 1.2-.1-1.7.1-.6v1.3l.1-3-.1-.8c0-2.2.1-.8.1-2l-.1-2 .1-1c-.1-1.1 0-5.3-.1-4v.3-11.6l-.1-6.5.1-1.3v-4.3c.1 1.7.1-.6.1 1.7v-5c.1.8.1-1.6.1-2.7l-.1 1.5v-3.2l.1.6c.2-4.5-.3-8.1 0-11.5-.1-1.2-.1 2.4-.2 1.4l.2-4.8c.1-2.8-.2-2.6-.2-5.6-.1.4-.2.7-.2-1.5q0-3.1.3-1.2v.7c0 .7 0 1.5.1.7l-.1-.3c.1-1 0-3.9.1-3.2 0-1.6-.1-.7-.1.5l.1-6.8-.1.4c.1-4-.1-1.8-.1-4.5.1-1.5.2.6.1-2.2.1-1.7.1-.4.2.3l.1-6v1.3-2.1l-.1.7.1-1.4c-.1-.8-.2.6-.3-1 .1-1-.1-3.1.1-3.5 0 3.2.1-.4.2 2.4V8.1v.3c.1-3.1-.2-1.4-.1-4.6.1.4.1-.7.1-1.3 0 1.3-.1.6-.2-.6V.5h-2.6 1.2l-2.9.1c-.1-.1 1.3 0 .8-.1h-5.8l-1-.2h-5.3c.7.1.9.1-1 .2l4.3-.1-2.7.1h3.5c-1.3.1-1.2.1-.6.1-1.8-.2-3.5.1-5.5 0l.1-.2c-3.1-.1-5.4.1-9.4.1h1.3l-3.7.1c.5.5-.3.4-.9.4.1.1-2.9 0-3.3.2L90.5 1l-6.8.2c.9-.1-.5-.2 1.6-.2h-5.8l-1.7.1s-1.8.1-.8.1c-3.2-.3-8.9 0-11.7-.2l-7 .1h.4c-2.8-.1-1.7.2-4.9.2-1.6-.1 1.7-.1.7-.1-.4-.3-3.9 0-6-.1h.5l-6.7.1-7.9.2q1.3-.1.7-.2c-1.2 0 .3.2-2 .2l-2.7-.2h2.2c-1.1-.2-2.8 0-4 0l.1-.2c-3.4 0-3.4.2-7 .2l.4.1c-2 .2-1.7-.1-3.6 0l-.6-.2-6.9.2 5.7-.3-5.1.1h1.7H1.5v2.3l-.1 1.4v14.3c.3-1.9 0 1.5.3 1.2v1.8l-.2 3.7c-.1.9-.1-1.2-.1-1.1 0 2.7-.1 1.1-.2 2.9.1-.4.1.9.1 2.5l.1-2.1c.1 3.8-.2 3.3-.1 7.1l-.1-1.2.1 9c0 4.7.2 10.4.1 14l-.1-.4.1 2.6c0-.1-.1-.4-.1.1l.1 3.5-.1-1c-.1 4.5.2 7 .2 10.8-.2 0-.2 3.6-.3 5.4v-.1l.2 13.9c-.2 3-.1 10.3-.2 15.2 0-.7.1.1.2 1v3-.4c-.2.9-.1 3.2-.1 5.1l.2.3c-.3 4.8.1 12.6-.2 15.3l.1 3.8-.1-.1v8.8l-.1-.8c0 2.2.3 2.8.4 4.9l-.2.6v11.8l-.1-.8c0 1.8-.1 7.1.1 6.5-.2 0 0 4 .1 6.2l-.1-.3c.2 1.8.2 1.8.2 4.3q0 .9-.1-.3v3.3h1.2l-1.2.1h2.2l1.1-.1 4.1.1q.6-.2 2.6-.1l-.5.1h7.4l.4.1h-4.7c0 .1 2.2.1.4.3 1.7-.1 4.7-.3 6.9-.2h.3-.2 3.1l3.6.1c-.1-.1 1.3-.1 0-.2h-1.4.1-2.7 3l1.5-.2 4.7.4c3.3-.1 7.8 0 9.9-.3l1.4.1-1.5.1c1.9-.1 5.6 0 6-.2 2.4.1-1.3.1 1.9.1h-.4c6.4.2 10.4-.4 17.5-.1l-.8-.1c8.1.1 16.7-.1 24.7.1l3.9-.1.5.1 2.4-.1c3.4-.1 5.8.3 10.1.1l-.5-.1h5.7v.1l3.8-.1c2.9 0-.5.3 3.8.3l3.9-.2-1.7-.1h1.4c.3-.2 1.4-.4-2.2-.5l-2.5.1-.8-.1h2.1-2.8l-1-.1-2.4.2c-.3-.1 1.1-.2-.5-.2-1.1.1 1.1.2-.8.2-1.2-.1-.8-.2-2.2-.1q-.2-.1.6-.1l-3.9.1c-1.2-.1-4.2 0-4.1-.2l-3.3.2c2.1-.2-4.3 0-3.7-.3-1.5.2-5.5.1-8.3.2h.7l-3-.1c-.2.2-2.6.2-3.9.3-1.9-.2 1.1-.2.6-.3.1.1-3.3.1-2.6.2-1.4-.1-1.2 0-2-.2l-2.5.2c-2.1-.1-.5-.2-2.8-.1-.9-.4 1.1-.5 1.1-.5m-54.2.3h1.1zm-4.6 0h2l-.5.1zm9.7.9H25h1.4z"/><path d="M27.3 179h.3-.7z"/><path d="M2.4 130.3v.4z"/><path d="M125.6 113.1v.3z"/><path d="M125.6 124v1.5z"/><path d="m125.5 132.3.1.2z"/><path d="M124.1 1.9h-.3z"/><path d="m125.7 39.2-.1-1.3z"/><path d="M80 2h-.3z"/><path d="M125.6 36.1v1.8z"/><path d="M125.5 168.4v.4z"/><path d="M125.5 168.9v.4z"/><path d="M125.5 170.3v-.9z"/><path d="m125.5 154-.1 3.1v.1c0-.5.2-2.4.1-3.2"/><path d="M126 140v2.8c0-.5.1-1.1.1.1.2-3.5-.1.8-.1-2.9"/><path d="M126.1 131.3c0 1.5.1 0 0 0q0-1.5 0 0"/><path d="m126.1 68.3.1.2c0-1.2 0 0-.1-.2"/><path d="M125.5 56.3v1.1l.1.6z"/><path d="M126.3 49.2v.5-2z"/><path d="m67.8 1 .4.1c.7 0 .9-.1-.4-.1"/><path d="M22.1 1.1h-2.6z"/><path d="M1.3 118.2v-1 1.8z"/><path d="M91.1 83.7q0-.8-.6-1.3v.9l-.7.2.1.1zm-1.8 0-.3-1.9-.3-.1v2zM29.8 53.9l-1.3-.9.3 1.2-.7-.5-1-.2c-.6-.2-.3.6-.7.7-1.1-.8-2.5-1-3.5-2l-.3-.1c-1.1 0-2.3-.1-3.2.9l.6.6.4.5-.2.2-1.9-1.4 2.2-1.2-.7-1h.7l.9 1 .5-.2q1.1.3 1.1-.6l-.1-1.9-.3-.1c0-.4.7-.7.1-1.2q-.2-.5-.1-1.1c.8-.5 1.3 0 2 .2q.6-.7-.1-1.2-.6-.3-.9-.2c-.6.8-.8-.6-1.4.3.5-1.2.9-.7 1.4-.7h1.6q.3.8.2 1.4l-.3 1.4-.6.1c-.2-.5-.3-.9-1.1-.6l1.1.6 1 1.1-.8 2.5-1.1-.7-.1.4c0 1 0 1 1.1 1.4l1.4.7 1.3-.8q.3-.2.8-.2 1.8.1 3.6-.4 2.7-.6 5.4-1.6 1.8-.5 3.4-1.2c.6-.2 1-.7 2.1-1.5-.8-.4-.2-.7.5-.9.3.7 1.3.4 1.6 1.1.6-.5 1.6-.5 1.9-1.4.4.7.8-.1 1.1-.1.5-.1.4-.7.6-1.1s.7-.6 1-.9l.1.3.2-.3q1.6-.5 2.5-1.6l1.3-1.4c.5-.4.4-1.2 1.2-1.4v.8l3-2.5 2.1-1.4h.6c1 .7 1.8.1 2.6-.5v.6l1.8.3 1.5-.1q.8-.2 1.8 0l-1.1-.9-.8.3v-3.2q-1-.4-.7-.7c.5-.7.2-1.4.4-2.2l.3-.1c.1.3-.2.7.4.7q-.1.8.5 1.4l1.2 1.3c.8-.5 2-.6 2.2-1.9l-2-3-.8.4v-.5c.4-1 .4-1.2-.4-2.4.2-.9 1.3-1.5.7-2.6l.2-.3c.8-.6.6-1.3.4-2.1l-1.7 1.4c-.2-.7.5-1 .9-1.4 1-1 1-1 .9-2.7q.1-.8.5-1.6.2-.4.9-.4.3 0 1.1-.7h-1.7c.2-.4.1-.8.9-.4.7.3 1.7-.3 2.7-.5.1-1 1-.6 1.6-1l-1.4-.2v-.2l1.1-.2c-.5-.8-.7-.8-1.8-.6v-.2l.3-.4q-.9-.5-1.9-.5l-.6-.2q-1-.9-2.2-.3l-1 .1.8-.6h-2.2L64.6 12l-.3.1.3.2c-.4.6-1.3.5-1.7 1.2L61.4 15l-1.1 1.2q-.1-.9.6-1.5l.6-.8.1.1.2-.2s-.1-.1-.2.1q0-.2-.1 0-.6.1-.9.5l-3.1 3.1-.7.5q0-.5.3-.8l3.4-3.4q.7-.6 1.6-.8.8-.2 1.2-.6l2.6-2.7q2.1.8 4.2.2.5 0 1.1.6.8.7 1.8 1.2.6.4 1 0c.1-.1.6.5.9.6q1 .1 1.7-.5v-.9c-.4 0-.9-.4-1 .3h-.7q-.3-1.6-1.3-1l-1.6.6c.2-1.1 1.2-1.1 1.7-1.4.9-.4 1.2.7 1.9 1.1l1-.8q1 .2.5 1c-.2.4-.1 1 .7.8v2.3q.8-.7 1.5-1l.7-.1c.2 1 .2 1 1.2.8h.5c1.7-.1 1.8 0 1.9 1.8-.7-.1-.1-.9-.4-1q-.6 0-.9-.2c-.7-.6-.8 0-1.2.3q1.1.3.4.8l-.1-.2-.2.1.2.2.4.7c0 1.6 0 1.7.9 2.8q.2-1 .6-1.3c.8-.2.5-.7.6-1.2l.7.4 1.7-1.2-1.4-1.7.6.1 1.1 1.1.2.1.4-.4-1.4-2.5q-.5-.7-1.4-1.2-.8-.3-1.4 0v.9l-1-.7c-.6 0-.7 1.1-1.6.5l.9-.6q-.7-.9-1.5-.4l-1.4.5c.3-.9 1.2-1 1.7-1.5 1.2.7 2.3 1.2 3.6.5q.6-.2 1.2.3.9.5 1.3 1.5.6 1.2 1.4 2.3a9 9 0 0 1 4.2-1h2.1q.8 0 1.2.4.7 1 1.9 1.1c0 .8 1 .5 1.2.9.4 1.2 1.5 2 1.5 3.3l.3.9q.8 1.9-.1 3.8-1 1.7-1.7 3.4c.5 0 1-.3 1.3-.1q.6.3.9 1.2c.3.9 1.4.8 2.1 1.4q.8.6 1.2-.2l1.5 1.4c.8-.3 1 .9 1.9.7q.4 0 .7.5.6.9 1.6 1.3l1.5 1.1.7.4c1.1.2 1.1.2 1.3 1.4l1 .2q-.3 1-.2 2.1l.7-1.2.2.3q.2 1-.4 2-.5.6-.3 1.3v4.5c0 .5-.4 1.2.6 1.3q.3.8-.2 1.4-.7.7-.3 1.7.4 1.3.1 2.6c-.3 1.3-.2 1.5-.3 2.2v2.1c-.1.7.2 1.5-.3 2.2-.4.6.3 1.5-.4 2.1v.3c.2 2.2-.3 4.3-.4 6.5l-1-.4.4 3.9-.8-.6-.4-1.1v-1.2c-1.1 1.1-1.9 1.9-1.1 3.4q.1.5 0 .8.6 0 .9.3l.2.6c-.1 2.6.6 5.1.4 7.7l.2 1.9h-3.9l.1-.1-.1-.1-.2.1v.1h-2.2v-1.6l-.4-3.2c-.7 1.8.5 3.3 0 4.8h-2.3l-.1-.3q-.2-.5-.7-.6l-.6.2-.2-.7-.4 1c-.1-1.6-.1-1.6-.9-2.7v3.2h-.2c-.3-1.5-.8-2.5-1.4-2.1l.2 2.1h-.3v-2c-.7-.4-.3-1.2-.3-1.7q.1-1.9-1.1-3.9v2.1l-.3-.5-.1-1.2c-.8-1.1-.7-2.5-1.1-3.6l-1 .5c.1.7-.3 1.6.4 2.3-.3.7.4 1.3 0 2-.3.7.1 1.5-.3 2.3l-.1-1.4c-.1-1.1.1-2.2-.3-3.3q-.5-1.5.3-2.9l-.8-.9c.4-.5.5-1 .5-2.4l-.4.4.1.3-.1.2h-.7V71q0 .4-.2.6c-.9.7-.5 1.5-.1 2.3l-.8.4v.9h-.7v1.3c.1.7-.8.3-.7.7 0 .3-.6.5-.1 1q.2.5.1 1.4l-.2.3-.2-1.5h-.2l-.1 1-1.1.2c.7.5.3 1.1.4 1.7-.8 0 0-1-.8-1.1q-.5.3-.6 1.9l.1-.1c.8.2 0 1.1.2 1.2l.2.1h-.6v-1 1h-.8l-.4-.6-.6.6h-7.5c-.5-2.7 0-5.4-.2-8.1q-.1-1 .7-2v2.6h.3q0-1.4.3-2.8l.7-3.2-1.1 1c-.6 1-2 1.2-2.4 2.4l-1.7.5q-2.2-2.1-3-4.7c-.6.7.2 1.6-.5 2.3l.1.2 1.9 4.2.7.8v2.7l.2 4.1h-1.3q0-1.7-.6-3.2l-.1-1q.2-3-.8-6-.1.2-.6.3v-.7l.4-.3-.3-.4q-.1-1.2-1-1.8 0 1 1 1.8v.7q-.7-.5-1-1.1t-.6-.3l-.1.6a7 7 0 0 1-2.7-3.2q-1.3.5-2.7.7-1 0-1.5-.3c-.4-.5-1.1-.7-1-1.5l1.6 1.4.5-.5-.7-.9q1.3.5 2.5-.2l.1-.1c.6 0 1.2-.4 1.7.3q-1.5.2-3.1.8-.2.1-.1.4l.4.2 1.2-.6c.5 0 1.1-.6 1.6-.1q.3 1.7 1.7 2.6 1-.4.8-1.1l1.1-.9v-2.6q0-.2-.3-.5v-.3l2.7-4.3h.2v.4l.1.3.2-.3v-.3l.3-.1H73c.1-.3-.2-.7.4-.7l.1.3.2-.3.8.2.7.1a7 7 0 0 0-1.8 4l.5-.5h.9q0 1.2-1.1 1.1-.6 0 0 .7c-.2 1.1-.9 2.1-1.3 3l.9 1.6 1.2 1.6q.6.8 1.1.2l2.6-2.6c1.2-1.3 2.2-2.7 2-4.7v-1.1l.7.4q.2.6.7.2v-.2c-.1-.4.3-.9-.4-1.1l.3-1.2c-.2-.5-1 .2-1.1-.6l.6-.1-.3-.5v-.2c.6 0 1.3.1 1.5-1l-1-.4c-.4-.1-.9.2-1.3-.3q-.3-.3-1-.4v.7h-.4l-.1-.3-.2.3c-.3 0-.7-.2-.7.4l-.3.3V59l.4-.3-.4-.4c.8-.9.8-.9 1.6-.4l1.2.7.1-.2-.8-.8h1q-.8-.7-1.1-.7l-1.1.2V56c-.8.1-1.3.9-2.1.8l1.8-1.7c-.1-.8.3-1.8-.5-2.8 1.2 0 .6-1.2 1.3-1.5-.1.7.5 1.2.4 2-.1.6.7 1.2.2 1.9l-.7-1.7q-.1 1.5.2 2.9.2.4.8.6l2.4.8c-.4.7-1.4-.3-1.5.9l3.4.4q.5 0 .6.5l.5.3q1.7.4 2.9 1.5c.4.5.5-.3.8-.1-.1.6.2 1.2-.3 1.6l-.3.9q-.2.8-.1 1.1.6.3.8.9.3 0 .5-.3l.3-.5.1 1.1h.3l.3-1-.7-.1c-.1-.8.4-1.4.6-2.3l.3 1.6q.3-1-.1-2c-.2-.5.2-1.2.4-2 .5.9 0 1.7.5 2.5.4.6-.1 1.5.3 2.3q.6-1 .5-3 .2-.8-.5-1.4-.5-.5-.1-1.1.6-1.5-.5-2.2l-1.1-.7q0 1.5-.3 2.7c-.2 1.2 0 1.2-.8 2.3l.3-2v-2.3q0-.6-.2-1-.6-1.1-.7-2.2 0 1.8-1.1 3.2l-.3-.3-.8 1.1c-.4-1.2.4-1.8.9-2.2.9-.8-.1-1.9.7-2.6q.3-.4-.4-.9l-.3-.3-1.6-1.6h-1.9c-.3.4.3 1.1-.5 1.4v-1q-1.1-.4-1.2.5l-.8-1h-.5l-.1 1.6-.4-1-1.3.4q.5-.9 1.5-1.3c.7-.5 1.4.2 2.1.2q.1-.7-.1-.9-.7-1-.7-2.2 0-.8-.9-.8h-1.6l.5-.3h1.8q-.7-1-1.6-.5-.6.4-1.4 0v-.9l.9.7c.5-.7 1.4 0 2-.5q-.5-1.3-1.5-2.3-.5-1.5-1.8-2c.2-1.7 1.8-2.7 1.8-4.5-1.4.3-2.4-.9-3.8-.7-.3-.4-1.1-.3-1.2-1.1l3.2.9q1.4.2 2.7.1c.1-.5.8-.2.9-.8q.5-1.1 1.4-2c-.6-.8-.3-1.9-1.1-2.5l.3-.6-.6-.5.6-.1q.9-.6.8.5c-.6.1-.4.5-.3.8l.5 1.3.4-.3.5.7-.3.4-.1-.2-.2.1.2.2c.3.7-.4.8-.6 1.3l1.4 1 1 .2.8-.3a9 9 0 0 0 6.9-3.6l.1.7q.4 0 .7-.3t.3-.8h.4l.4.3.6-.6c-.7-.5 0-1.4-.5-1.9h-.5c.2-.8 1.1 0 1.5-.6h-2.1c-1.8 1.8-1.8 1.8-2 2.8q-.9-.7-1.2-1.4l-.7-2q-.2-1 .3-2.3l.2-.4-.4-1-.8.3c-1.7-1.5-5-3.4-6.1-3.5l-.1.3v.5q.3.6-.4 1.6l-.4-.7-.5-.7-.4.4-.9-.9.5-.5-.7.1q0 .3-.6.1c-1.3-.8-2.3.3-3.5.3l-.2.3-.9-.9-.5.2q1.2.6.7 1.2l-2 2.4-.1.4.9.5q-.7.5-.9 1c-.1.3-.6.7-.1 1.1-.9 1.1-.6 2.7-1.6 3.6l-.6-.5.7 2.1 1.5-1v2.2c.4.4 1-.1 1.1.5-.5 0-.3.4-.4.6-.4.7-.3 1.6-1.1 2l-1.4.5c-.9.3-1.9.8-2.9.7l-1.1.2q-1.6.5-2.9 0l-2.3-.2v1.4c-.3-.1-.6.2-.7-.3q-.3-1.1-1.4-.7l.7 1c-.7.2-.9-.7-1.6-.7-1.1 1.1-2.8 1.7-3.6 3.2l-.2.3-3.1 2.4-2.9 1.9.4.7-4.4 1.8.3 1.2c-.6-.1-.9-1.2-1.8-.5l.4.9h-.6l.2 1.4-1.6-2c-.1.3-.8 0-.9.6s-.8.3-1.2.5q-1.5.8-3.2 1.2a63 63 0 0 1-7.3 1.5zm42.1-21.8q1.1.3.7-.7zm-.2.7.5.1.2-.3-.5-.1zm14.2 16.1-.5-1q-.5.9.1 1.2zm1.4 1.8-.1-.2-.1.1zM82 59.2h-1.1v.2H82zM70.5 70.3l-.1-.5-.3.2.1.5zm.8-2.5q-.1-.3.1-.6c1-1 .7-2.4 1.2-3.5-2.1 2.1-1.9 2.1-1.6 5 0-.1.9-.3.3-.9m7.4 9.3-.2-.1-.1.1zm3.6-10.8-.2-2c-.3 1.5-.3 1.5.2 2m1.1 3.1c.4-2.9.4-6.7 0-7.9zm.6 6.2h-.3l.1 1.3h.2zm4-3.6.5 3.2.4-.3c.3-.2 0-.3 0-.5q-.3-1.2-.9-2.4m0-.6-.1-.9h-.2q0 .6.3.9m0-2.9.1.9h.2v-.9zm-.1-1.9h-.2v1.3h.3zm-.5-3.3q.5-.1.9-1.3h-.9zm-.1 5.6.2-.1-.1-.1zM85.6 71l.1.2.1-.1zm-.1 1.1.3.2.1-.5-.2-.1zm.1.6v.7h.2v-.7zm-.5 2.8v-2.7c-.1-.9.2-1.8-.2-2.8-.3-.9-.1-1.9-.2-2.8l-.1-.6q-.3 2.4-.2 4.8.1 2.1.7 4.1m.3 2.5q0-.7-.2-1.3-.1.7.2 1.3m.1-15.2-.1-.1-.1.2.1.1zm.3 18.6-.1-.1-.2.1.1.1zm0-6.6.3-.2-.5-.2-.1.3zm.4 2.4-.1-.2-.1.1.1.2zm0-1.1L86 76l-.1.5.3.2zm0-8.4.1.3.3-.1-.2-.5zm.3.7h-.2v4.2h.2zm.6 14.1-.4-.5q-.2 1.4.4.5m.5-3.3-.8.5c1 .4.8-.1.8-.5m-.1-1.5.1-.2-.1-.1-.1.2zm.2-1.5-.6-.3.4.4zm.2-.1q.1 0 0 0-.2-.1 0 0m.4.8q.1-.2-.4-.5l.1 1q.4-.3.3-.5m.5 1.7-.2-.5-.2.3.1.3zm.1-3.1q-.5 1.3.3 2.5c.6-.9-.3-1.6-.3-2.5m1.2-8-.2-.1-.1.5.3.2zm.7 6.3h-.3l.1 1h.2zm21.6-29 .2.3.2-.5-.3-.1zm-.7 21.4q.5-1.4 0-2.7zm-.8-13.5.2.3.2-.5-.3-.1zm-3.2-2.4q-.5 1 0 2zm0 30.3v2.1c.2-.6.5-1.2 0-2.1m.3-9.2h-.3v2.3l.3.1zm1 11.6-.1-.2-.1.1.1.2zm.1-30.9-.6.5.1 1.5.3 2.8h.2zm-.6 14.9v1.1h.2V67zm.4-29.8h.3l-.1-1h-.2zm-.2 13.4h-.2v1.1h.2zm-.6-16.2.2.3.2-.5-.3-.1zm0 35.1h.2v-.7h-.2zm.4 8.4.2-.4-.3-.4v-1.2l-.1-1.3c-.2.8-.4 1.6.2 3.3m-.8-23.6.2-.1-.1-.1zm-.3-5 .1.5.2-.1-.1-.5zm-.1 29.7.1.1.2-.1-.1-.1zm-.3-3.5-.1-1h-.2v.9zm-.6-42.6.5.1.2-.3-.5-.1zm.4 32 .1.2.1-.1zm-.6 3.2.1 1.3h.2v-1.3zm0 3.7c.3.8-.4 1.8.7 2.4v-2.5zm-1-37.7V32c-.2.6-.5 1.1 0 2.1m-.4 33.8.1.5.2-.1-.1-.5zm0 3.3h.7V71h-.7zM103 57.3l-.4-.7q-.6.9.4.7m-.1 1.2-.2.3.1.3.3-.1zm.5 8.1-.5-3.8c-.4 2.2-.3 2.5.5 3.8m-.2 1.8-.1.2.1.1zm.5 14.5-.5-.2-.1.3.3.1zm.3-4.8h-.2l.2.9zm.3 3.5q0-.8-.3-1.7v.6l.1 1.1zm.2-20.3-.3.1.1.2zm0-1.1v1.1-.1c.4-.4.4-.4 0-1m.3-3.7q-.5 0-.6.3-.2.8.6 1.2zm-.4-1.3v-1.4h-.2v1.4zm.1-7.2-.1-1.3h-.2V48zm-.4-5.6.1 1h.2v-.9zm-.3 2 .2 2c.3-1.5.3-1.5-.2-2m-.7 27.2q.4.9.3 1.8v1.8l.5 2.1c.6-2.3-.5-4.3-.2-6.2-.8-.3-.8.2-.6.5m-.7-30q.6 1.1.3 2.2a7 7 0 0 0 .5 3.2l.2-.3q0-1-.3-2.2-.3-1.1 0-2.5.1-.8-.7-1.1zm-12.9-1.8c-.3.1-.7-.2-.7.4.3-.1.7.1.7-.4q.4.2.7-.4-.6-.2-.7.4m1-.6a4 4 0 0 0 1.9-.5l-.1-.4zm.3-1.6.1-.2-.1-.1-.1.2zm.3.8.5-.2-.3-.2-.3.1zm.7-1.2.2-.3-.3.1zm-1.5 3q-1.3.3-2.2 1.7l-.2.2 1.8-.9 1.5-.7 1.7-.9c-1.2-.6-1.8.4-2.6.6m2.9 2q-.7.3-1.3.8-1.4 1.3-3 2.2l-.1.5.6.1 1.5-1.2 2-1.3zm-.1 1 .5-.2.1-.2q0-.5-.6.4m-2.2 1.6-1.3 1.4-.2.9 1.7-1.7c.3-.3.8-.4 1.3-1.2zm-1.8-.7q-.9-.1-.6.7.5-.3.6-.7m.6-.7-.2.2zm-.1.2q0 .1 0 0l.2-.1zm2.1-1.2v-.2l-.3.1.1.2zl1.2-.7c-.9-.3-1 .2-1.2.7m-3.5-1.6.2-.3-.3.1zm.3-3.1.1.2.5-.1-.2-.3zm.5-.8.1-.2-.1-.1-.1.2zm-.5 1.6s-.1 0 0 0l.1.2.2-.2zm-.4-3.3.3.3q.3-.2 1-.2l.1-.7-1.2.2zm-.4.8.1.7c.5-.5 1.2-.4 1.5-1.2zm.6.9-.1.2.1.1zm-.7 1.9.4.2.4-.3q-.4 0-.1-.1zm.1 3.5-.3.1.1.2zm0 1.3 5-3h-.6q-2.3.9-4.1 2.4-.2.1-.3.6m.3 1.6h-.3l.1.9h.2zm.8 8q.1-1.2-.7-.7zm.5-4.1.5-.5c-.5-.1-.1-1.3-1.1-.7zm.2 5.9-.2-.1-.1.1.2.1zm2-2.6c-.2.9-.9 1.7-.5 2.7.9-.8.6-1.8.5-2.7m2.3-7.1c.1-.6.7-1.2.2-2-.6 1.3-1.7 2.2-2.1 3.5-1.2.9-1.5 2.5-2.7 3.1l1.2 3.8.6-1.2c.1-1.5.9-2.9 1.3-4.3.2-.9.4-2.2 1.5-2.9m-.5 10.9-.2.1.1 1.1.5-.5zm-.6-5.9-.2-.1-.1.1.2.1zm1 7.3-.7.1c.3.9-.4 2 .7 2.8zm.7 5-.5-1.6c-.2 2-.2 2 .1 2zm-.2 2.5h.3l-.1-1.3h-.2zm.9 4.2-.5-1.2-.3.1.5 2.7h.3q.1-.9 0-1.6m-.6-16.8.2-.1-.1-.1zm.2-1 .1-.1-.2-.1-.1.1zm.1 3.6v1.1l.1 1.4q.5-1.2-.1-2.5m-.3-.5.3.2-.1-.2zm.1-.9.2-.1-.1-.5-.3.2zm.7 10.1.5-.6c-.5-.5-.2-1.1-.2-1.7V58q-.7.7-.7.9c-.1 1.6.4 3.2.4 4.9m.3 2.4h.3l-.1-.9h-.2zm.2 3 .2.2.1-.1v-.5l-.5-.1zm.4.7H96v1.3h.3zm.3 1.8c-.9.2-.9.3 0 2.9zm.4-5.2-.1-.2-.1.1.1.2zm-.2-4.2q-.1-1.5 0-3.2l-.7.1c.7 1 .3 2 .3 2.9q0 1.5.6 3zm.1-21.8.2-.1-.1-1-.4.4zM97 43l.2.3.2-.5-.3-.1zm.2-.7.1-.1-.1-.2-.1.1zm.2 26.9v2.1q.5-.8 0-2.1M98 66l-.3-.4v-3.1q0-.3-.3-.4v-1.4l-.1-1.4q-.5 1.5.1 2.8v3.1l.5 1.3zm.3 4.3H98l.1 1.3h.2zm.1-27.6h-.5l.3 1.8h.2zm-.5-.4.1-.1-.1-.2-.1.1zm.8 34.9-.1-.2-.1.1.1.2zm-.1-3.1v-1.4h-.2v1.4zm.8.2-.1-.5-.3.2.1.5zm0-10.5q-.2-.7-.6-.3l.4 3.1h.2zM99 41.5l.7 1.8c.1-1.1.1-1.1-.7-1.8m1.1 35.9h-.2v1.4h.2zm.1-5.9-.2-.1-.1.1.2.1zm0-26.3-.1-1h-.2v2h.3zm.7 10.2-.1-.1-.2.1.1.1zm.4-6.5-.1-.5-.3.2.1.5zm.4 27.4-.1 1.3v3.7l.2.3.1.1.3.3c.4-1.9-.2-3.8-.5-5.7m.2-5.7c-.2.5-.5 1.1 0 2.1zm-.3-31.5c-1.5.9-1.5.9-1.1 2.5.2-.4.2-1.1.5-1.2q.9-.3.6-1.3m-1-8.4.1.1.2-.1-.1-.1zm-1.7 7c-.6.5-.6 1.6-1.5 1.5V41c.8-.3 1.6-.8 2.5 0q-.3-1.6 1.1-2c-.4-1.4-1.5-.7-2.1-1.3m-1-.1.1-.2-.1-.1-.1.2zm1-1.1h.2v-.9h-.3zm-.7-13.9h.2v-.7h-.2zm-3 8.2c-.8 0-1 1.1-1.9.8l-.5.4q-.7 1.6-2.9 2.3l1.4.4-.6.4-.1.5 1.2-.2q-.6.5-.8 1.1l1.8-.4-.3.4-.3.4h1.3l-1.4.9 1.6.6.1.4-.8.9 1.3 2.2q0-.7.7-1.2c.5-.3.6-1.2 1.1-1.6q1.5-1.6 2.1-3.6c.4-1.1 1.4-2.1.8-3.5-1-.3-.3.8-.7 1l-.5-.3c-.1.7-.1 1.5-1.2 1.4v-1.5l.5.4.7-1.8.6.5v-1l.3-.9-.7-.2.7-.7-.1-.6-.5.1-.5.9-.7-.4-.4.4c-.6.4-.4 1.6-1.3 1.5m.4-3 .1 1.8c.8-1.2.8-1.2-.1-1.8m-12.5-8.6.2.1.1-.1-.2-.1zm-7.4-1.8c-1-.4-.8 0-.8.5zm2.7.1-.5-.8c-.3 1 .1.9.5.8m2.5 1.3-.1-.1-.1.2.1.1zM79.1 15l1.2 1.9-.8-.2h-.3v.8l1.8.6.2.2-.1-.2.2.1-.2-.2-.1.1-.1-.1c0-.3.2-.7-.4-.7l-.3-.3c.7-1.1.6-1.2-1.1-2m-3-1.1.1.1.1-.2-.1-.1zm-.8.6.6 1.3-1 .1.1 1 1-.4q.3 1.1.6.7c.1-.8.7-.6 1.2-.7q.4 0 .4-.4c.2-.7.4 0 .5 0h.7q-.4-.5-.7-.6c-.6.1-.9-.4-1.3-.6-.5-.3-1.2.1-1.6-.4q-.2-.2-.5 0m0-.7q.1-1.2-.7-.7zm-4 12.2-.1-.2-.1.1.1.2zm3-7.5q0 .2 0 0l.2-.1zm.1-.2-.2.2.1.1zm-.9-3 .3.1.3-.2-.5-.2zm-1.8.7h.7v-.2h-.7zm-.7 3.5-1.4.3v.2h2.1v.7q1.5-.7 2.5-2.1h-.7l.2-.4q.4-.5-.2-.7c.2-.5 1.2-.6.7-1.3q-1 0-1.6.4c-.5.3-1.1.1-1.5.7q-.6.5-1.3.7v1.2zm-.6 2c.2-.3.8-.4.4-1.1l-1.6.5c.1.9 1 0 1.2.6m-.5 3.6-.2 1.1v-.1.2l-.2.6.4-.4-.1-.3.2-.2c.3-.3.3-.3-.1-.9m0 8.1.1.1.1-.2-.1-.1zm-3.6-.8-.2.1.1.1zm-5 4.9.1.2.1-.1-.1-.2zM42 48.5l.9-.3.6-.3q0-.6-.9-.5l-.4.4q-.5.3-.2.7m-17.7 1.6c.1-.9.3-1.6-.8-2-.5 1.1.3 1.4.8 2M94.8 83l-.1.6h1q-.4-.6-.4-1.1l-.6-2.6-.2 1.8-.6-.4c-.4.9.6 1.1.9 1.7m3.2-3.6v-.6zM33.7 56.8c-2.1 0-4.2.6-6.3.4-.4 0-1.1.1-1.2.4-.7 1.1-2 .4-2.8 1-1-.3-1.4.5-1.9 1h-2.3l-1.4-2.5-.9.7c-.9-.4-.4-1.3-.6-2.1l-2.1 1.5-1.3-1.2v-1.1l-1.4 1.4c-1-1.2-1-1.3-.1-2.8L9.6 52l.3-1.6c-.8-.3-1 1.4-1.9.5q-.2-.5 0-.9v-.7q0-.6.4-1.3.4-.3 1.1-.4c-.8-1.1-.2-2 .6-2.8q1.2-1.4 2.3-3 .8-1 1.8-1.9h1.6l.1 1.2.9-1.2h3.3l.1.7c-1.3-.3-1.5.5-1.9 1.5q1-.6 1.9-1.5c.3-.1.8.1 1.2-.4q.3.7.8 1.1.5 0 1.3-.3l.5.9q-1 .2-.6 1.2h1.4l-.1 1.4-.6-.8c-.3-.6-.5-.3-.9.1l-1.1-1.4c.3.3.3.3.9-.3q-.4 0-.9.3-.3.2-1.2 0v1.9q-1.5-.7-3-.4c.5 1.3 1.5 1.5 2.7 1.8l-1.5.7v1.3c-.4 0-.6-.7-1.2-.1q-.5.3-1.8.5c.3-.6-.1-1.1.3-1.6q.5-.5-.2-1l-1.1.8v-.5c.6-.7 0-.6-.4-.6.1-.8.9 0 1.1-.6v-.7q.7-.5 1-.5c.6.4 1-.1 1.5-.1h1.8l.3-.1.1-1.1 1.1-.7-.6-.5c-1.5.8-1.5.8-1.4 2.1l-.8-.8c-.6.2-1 .8-1.5.1.1-.9 1.6-1.1.9-2.3q-.5 0-.9.2l-1.1 1.5-.5.5-.7-2.4q-1.2.8-2.1 1.8c1.2.4 2.1.8 2.2 2.2l-1.4.4.1-.3q.5-.4-.2-.4h-.7l.8-.9q-1.3-.7-2.1.5l-.1.6.7.1-1 1.2q-.1.2.1.6l.5-.2q.2-1 1.1-.8c.1.4-.7.5-.3 1 .4.3.6-.1.8-.3h.5l-.7 1q.9.3 1.8-.2V48l-.5-.4c-.6-.8-.6-.8-1.5-.4h-.5q.1-.7-.6-1l-.5.5.3.6-.7-.3-.5-2.2c-1.2 1.3-1.3 1.9-.2 3.3H8.5L8 50.3l1.9-1.2v2.5q0 .8.8.3v-2.4l1.5 1.3.8-1.2h-1.5l-.5-1.2.7-.9.7-.1c-.1.6-1.2.9-.7 1.6l2.5.7-1 .6c-.7.4-.5 1.1-.5 1.7q.3 1.1 1.7.6c.1.1-.5.2-.3.7l.4.2q.7-.4-.1-.9-.2-.4.1-.9l-.3-1 3 1-.8-1.8c1.3.3 2-.7 2.7-1.1l-.3-1 .7.4 1-1.1c1.1.4.7 1.1.9 1.8h1l-1.8 1.8h-.3v-.5c-.7-.5-.3-1.1.2-1.2 1-.2.4-.7.6-1.3l-1.4 1.4v1.6h-.5c-.5.9-1.7 1.3-1.7 2.5-.8-.4-1-1.3-2.1-1.5.2.8-.3 1.5.4 2.1-.7-.1-1 .9-2 1.2q.2 0 .2.4c0 .4-.2.4-.4 1l2.1-1.2 1.2.4.1 1.3 1.3-1.6.1 1.2 1.6.6-.9-2 1.1-.3q.8 0 1-.7c.5.2.5.8 1.1.9v.5c-.7-.6-1.2-.1-1.9.2l.5.7c-.2.4-.9.5-.6 1.2l1-.7.1.6.5-.3h.2q.5.7 1.4.7a4 4 0 0 0 2.4-.7q.7-.6 1.1-.6.5.4 1 0 .6-.2 1.3-.2v-1.3c.8.2 0 1.1.5 1.4q.9-.5.4-1.3-.3-.6-.2-1.2c1 .6.5 1.7.9 2.6 1-.5 1.8-1 2.8-.5h.5c.7-.5 1.4-.3 2.2-.4l2.2-.3c1.2-.2 2.2-.9 3.4-.8l.4-.4.6-.3c1.5-.1 2.7-1.1 4.2-1.1l.4-.3q.7-.9 1.7-1 1.8-.5 3.5-1.5l2-1.1c1.2-.8 2.6-1.3 3.1-2.8q.9.6 1.8.2.5-.3 1-.1.8.1.7 1-1-.4-2.1-.2c.2.4.7.3.8.8.2.7.7-.4 1.1-.2l.7.8-.1.1.2.2s.1-.1-.1-.2q.2 0 0-.1l.1-.4q1.2.4 1.6 1.7l-1.2-.3c-.7-.3-.5.6-1.1.8q-.7-.4-1.5-1.2-.6-.6-1.2-.2v5.7l2.5-.6 2.5-.9q-.5 1-1.6 1.1-1.5.5-3.1.7l-.7.5c.8.6-.3 1.2-.1 1.8.1.4.6.9 0 1.3l.1.3h.5l1.3-1.3h1.3q0 .3-.3.4c-1.4.7-2.2 2-3.4 3l1.2.5 2.4-2.2v.7l-.8.9q-1 .3-1.3 1.4l-.5 1.9-2.2.1c.8.6.4 1.4.5 2.1l-.3.1.1.2.2-.2.9.3.9-.3c.3-.1.4.5.8.1q.7-.3 1.6 0v1c-.5 0-.3.4-.4.7q-.8-.6-1.4.1l-.4.2c0-.3.2-.8-.4-.7l-1.4.3-1.3.1-.4.2c0-.5-.4-.3-.7-.4l.5-.4 1.1-.5q-.4-1.6-1.7-2.1l-.2.4.3.6c-.6.5-.6.5-2 .6l-.1.5c-.4 0-.7-.5-1.3.1s-1.4 1.1-2.2 1.4c-1.1.4-1.4 1.4-1.8 2.3l-.3 1.3-.3 1.4-.6-.3v.7l-.7.9q-.4 1.4-.4 2.8v4.8q0 .4-.3.8v-3.1h-.3l-.2 1-.7-.3-.3.2-.4 1.4v1.4h-.4l-.2-.9-.3.9h-2.4q0-.2.3-.3 0-1.4.7-2.6.2-.5-.2-1.2l-.7 2.3c-.4-1.8.5-3.1 1.3-4.4l-.1 1.1v-.1q-.2.3 0 .4t.2.1l-.1-.2c.6-.8.5-1.5.9-2s.7-1 .6-1.7q0-.4.3-.6 1.4-1.5 1.9-3.7.6-1.5 1.6-3 1 0 2-.6l3.9-1.8v-1.9q-.1-.8.5-1.4.3-.2.2-.8V58q1.5-1.7 3.4-2.7c.4-.2.9-.7.2-1.2l-.3-.9-.6 1.4-.1.1-1.4-.1c-1-.3-1-.3-1.5.6l-.7 1q-1-.8-1.8-1.7l-1.7-1.7q-.8.4-1.5 1-.9.8-2.1.9c-1.2.1-1.7.5-2.5.8-.7.2-1.6 0-2 .8h-.5c-.6-.5-1.1-.1-1.7 0s-1.2 0-1.8.3q-1.2.4-2.5.2m26.1 9.8v.2h.9v-.3zm-2.9.6h.7V67h-.7zm-.7-10.5.2.1.1-.1-.2-.1zm-.3 2.5q.2.4.7.5h1c.1-1.6.1-1.6-.7-2.5l-.8 1.4zM54 64.8q-.7 0-.7-.6.2-.5-.4-.5c-.6 0-.3.5-.3.7q.3.5.4 1.3.2.4.7 0zm2.1.5a5 5 0 0 0-2.9-2.7c.5 1.7 2.1 1.8 2.9 2.7m-.2-4.5q-1-.1-1-2l.5 1.2v-2.7c-.8-.3-.5.5-.8.6l-1.1.6c1.3 1.2-.2 2.5.2 3.6l2 1c.7.4 1.3.9 2.2.5v-.9c-1.4.1-2.3-1-3.8-1.3q1.6-.6 2.4.4c.8 1 1.1.5 1.9.3-.9-.5-1.4-1.4-2.5-1.3m-1.4-10.9c-.4.7-.7 1.4-1.9 2.7l-.3 1.2.8-.4c.3-.6.3-1.3 1.1-1.6l-.7 2.1h2.1c.2-.4-.1-1 .5-1.2s-.1-1.1 1.5-.8l-.4-.4-.3.1-.2-.1c0-.8.7-1.4.9-2.1l.2-1.3-.8.5-2.1 2.2.3-1.2zm-5.3 2.5 2.6 2.7.7-.9c-.4-.1-.7-.1-.2-1.2l-1 1 .7-1.2q.5-.2.7-.8.1-.5.8-1.2c-1.7.5-3.2.7-4.3 1.6m-4.1 1.5h.7v-.2h-.7zm-27.8-9.4c-.1-.4-.4-.2-.7-.3l-.3.1.1.2.7.4zm-5.4 8.2h.7v-.2h-.7zm-.6-1 .3-.1-.2-.5-.2.3zm1.4 1.6c-1 .3-1 .3-1.3 1.4q.9-.4 1.3-1.4m.9 1.7q0 .2 0 0 .2 0 0 0l.4-.4q0-.4-.6-1.2c0 .8-.8 1.2.2 1.6m5.7 2.1h-.2v.7h.2zm.7 1-.1-.2-.1.1.1.2zm1.1.6h-1v.2zm.7-.3-.2.2zm17.6 25.4.3-1.1q.1-.7-.5-.5l-.4 1.5v.2zm-1-42.7q-1.2-.7-1.1-2 2.2-2 4.2-4.2l1.6-1.8 1.5-1.9c.4-.6 1.2-.7 1.6-1.5q.7-1 1.7-1.8l1.6-1.6 2-2q1.9-2.7 4.2-4.9l1-1.2c-.8-.1-1.2.9-1.9 1q-.8.1-1.2.9l-3.8 4.1-.5.5q-2 2.7-4.2 5.2c-2.6 3-5.8 5.5-8.2 8.6l-.9-.3-.2.2 1.6 2.6-1.1.4v.5c.7.2 1 1.1 1.8 1l-.6-.8-.1-.5h.6l.4.2zm10.3 42.6h.7l-.1-.6-.3-2 .1-1h.7v-1h-1.1v3.7zm-.9 0q-.2-1-.6-1.8l.1 1.8zM53 33.1l-.3.1v.7q.4-.1.5-.4.6-1.3 1.8-2.1c.9-.9 2.2-1.3 2.7-2.7q.4-.7 1.1-1.3l-.5-.3q-1 1.4-2.2 2.7l-1.2.9-2.2 2zm3.3 4.1.3-.1q1.5-2.2 3.3-4.2l-.3-.2.3-.1v-.7q-.4.1-.5.4-1.5 2.6-3.8 4.6c.2 0 .6-.2.7.3m8.8 46.3v-1.6c0-.5.2-1-.2-1.5l-.5 3.1zM57 71.4q-.8.8-.8 1.9c.8-.1.8-.9 1.1-1.4q1.2-1.7 1.7-3.6c-1.1.7-1.3 2.1-2 3.1m5.4-42.7.6-.8.8-.5.4-1.6-.7.7q-.7 1.4-2.2 1.6l.7.3-.3 1zm-15.9 51-.3-1.1v-1.1l-.1-1c-.3 1-.2 2.1-.6 3.1-.1.3-.4.9.3 1.2q-.2-.8.7-1.1M42 45.3q-.4.8-.9 1l-.5-.2.6 1.7c.6-1.3 1.5-1.9 1.6-3.1q-.6.2-.8.6m3.8 38.5h.5l-.2-2.9h-.2zq0-.1 0 0M51 34.1l.3-.1v-.7q-1.2 1-1.8 2.5c1 0 1.3-.8 1.8-1.4zm3.5 43.1.5.1.6-3.2c-.8 1.1-1.6 1.9-1.1 3.1m5.4-52.7q-.8.4-.8 1.3h.5l1.6-2.1c-.6-.3-.9.4-1.3.8m6.7 50.8q0 .8.3 1.4l.5 1.2.2-.1-.5-3.2zM38 42.9l-.8 1.3 1.6-.2q0-1-.8-1.1m8.2-4.9q1 .1.8.9 1-.3 1.1-1.4zm1 43.9q.1-1.1-.1-2.1h-.6q-.1 1.1.7 2.1m.8-44.4c.6-.5 1.4-.8 1.4-1.8-.6.5-1.4.8-1.4 1.8m-4.6.7L42 39.6c1.3-.2 1.3-.2 1.4-1.4M53.3 69l-.7.9c.6-.1 1.2 0 1.4-.6-.2 0-.6.3-.7-.3m-8.5-27.2q1-.3 1.1-1.4-1 .3-1.1 1.4M46.2 74v1.1l.1 1.1h.2v-2.1zm20.5-51.5q-1 .3-1.1 1.4 1-.2 1.1-1.4m-5.1 6.8q-1 .3-1.1 1.4 1-.3 1.1-1.4m-8.2 1.1 1.1-1.1q-1 0-1.1 1.1m8.6-6.1-1.1 1.1q1 0 1.1-1.1M50 81.9v-1.8q-.4.9 0 1.8M39.4 42.2h-.7q-.2.8.7 1.1zm12.9-10.4q.9-.2.7-1.1-.7.3-.7 1.1m-7.8 10.4q-.9.2-.7 1.1.7-.3.7-1.1M69.1 73q-.2.8.7 1.1 0-1-.7-1.1m-15-46.6q.9-.2.7-1.1-.7.3-.7 1.1m15.7 47.7q-.2.8.7 1.1 0-1-.7-1.1m-24-35.9-1.3.1v.2h1.3zm2.1 36.9-.3.3.4.4.5-.4zm3-44.4q.9-.2.7-1.1-.7.3-.7 1.1m14-6q-.9.2-.7 1.1.7-.3.7-1.1M43 44.3q.9-.2.7-1.1-.7.3-.7 1.1m11.5-15q.9.2 1.1-.7-1-.2-1.1.7m13.1 50.3-.5.5c1.2 0 .8-.6.6-1zM54.4 68.7l.4-.7q-.8-.2-1.1.7zm3-41.5q-.9-.2-1.1.7.8 0 1.1-.7m4.3-4.3v.4q.9.2 1.1-.7zm-7.3 45.8-.4.7q.9.2 1.1-.7zm-1.3-40.5q.9-.2.7-1.1-.9.3-.7 1.1m-1.5 12.6q-.9.2-.7 1.1.9-.3.7-1.1m.4-8.6q-.9.2-.7 1.1.7-.3.7-1.1m5.5 49.4-.3.3c-.1.6.4.4.7.4 0-.3.2-.8-.4-.7m7-69.4v.4c.4-.1.9.3 1.1-.4zM50.1 82.3l.1 1h.2v-.9zm5.4-3.6-.1-1.1h-.2v1zm9.7-.3q.5-.9-.4-.7zm-9.8.3.1 1.1h.2v-1zm10.5-58.9q-.9-.4-.7 1zm-.8 2h-1v.7zM41.2 40.4l.7-.7q-.8-.2-.7.7m-2.1.3c.4-.1.9.3 1.1-.4-.4.2-.9-.3-1.1.4m1 3.1-.7-1q-.2 1.4.7 1m16.5 38.5-.1.3.2.3.2-.5zm9.7-70.5c.3-.1.7.2.7-.4-.2.1-.6-.1-.7.4m12.2-.3c-.3.1-.7-.2-.7.4.3-.1.7.1.7-.4m-12.9.7c.3-.1.7.2.7-.4-.2.1-.6-.2-.7.4m6.4 1 .4-.3-.8.1q.3.3.4.2m-6 .8c.3-.1.7.2.7-.4-.3.1-.7-.2-.7.4m-2 61.8.3.4-.1-.8zm-4.1-58.6c.5 0 .3-.4.4-.7-.6 0-.4.4-.4.7m-12.4 59-.2.3.1.3.3-.1zm17.2.4-.3-.4.1.8q.3-.3.2-.4m-5.2-59.1c-.5 0-.3.4-.4.7.6 0 .4-.4.4-.7m1.1 13.3c-.5 0-.3.4-.4.7.5-.1.3-.5.4-.7m-12 46.3-.2-.1-.1.5.3.2zm9.9-57.8c.5 0 .3-.4.4-.7-.6 0-.4.4-.4.7m-11 58-.2.3.1.3.3-.1zm10.2-56.9c.5 0 .3-.4.4-.7-.5 0-.3.4-.4.7m-.7 1c.5 0 .3-.4.4-.7-.6.1-.3.5-.4.7m-3.2 12.9c.5 0 .3-.4.4-.7-.6 0-.4.4-.4.7m9.3-11.2.2.5.2-.9zm-7.5.3.2.5.3-.9zm6.4.9c.3-.1.7.2.7-.4-.2.1-.7-.1-.7.4m1.1 46.9-.1.3.2.3.2-.5zm-3.9-45.5c-.3.1-.7-.2-.7.4.2-.1.6.2.7-.4m9.5 46.6c.1.3-.2.7.4.7-.1-.3.1-.7-.4-.7M53.8 27.2c.5 0 .3-.4.4-.7-.6 0-.4.4-.4.7m11.8 45.4v.7h.2v-.7zM55.8 74c.5 0 .3-.4.4-.7-.6 0-.3.5-.4.7M44.1 45c-.5 0-.3.4-.4.7.6 0 .3-.4.4-.7m1.1-1.4c-.5 0-.3.4-.4.7.5 0 .3-.4.4-.7m4.3.4v-.7c-.5 0-.3.4-.4.7zm-4-.8c.5 0 .3-.4.4-.7-.6.1-.3.5-.4.7m4-2.5c-.5 0-.3.4-.4.7.5 0 .3-.4.4-.7m-10.4 0c-.3.1-.7-.2-.7.4.2-.1.7.2.7-.4m8.9-1c-.5 0-.3.4-.4.7.6 0 .4-.5.4-.7m-1.4-.4c-.5 0-.3.4-.4.7.6 0 .4-.4.4-.7m2.5-.7c.5 0 .3-.4.4-.7-.6 0-.3.4-.4.7m1.4-2.1c-.5 0-.3.4-.4.7.6-.1.4-.5.4-.7m1.8.1-.2-.5-.2.9zm0-.5c.5 0 .3-.4.4-.7-.5 0-.3.4-.4.7m-.7-.7c.5 0 .3-.4.4-.7-.6 0-.3.4-.4.7m13.7 36.2-.1.2.1.1zm2.1.7-.1.2.1.1zM55.8 74l-.4.4zm10.2.1-.1.2.1.1zm.5 1-.1-.3-.2.1zm4.1 0-.2.2.2.2.1-.1zm-22.1 3.2-.1.1.1.2.1-.1zm18.4.2.2-.1-.1-.1zm-1.4.4-.2-.1-.1.1.2.1zM56 80.1l-.1.2.1.1.1-.2zm.2 1.6.1.1.2-.1-.1-.1zM50.5 57l.1.1.2-.1-.1-.1zm-6.3 25.6.1-.1-.1-.2-.1.1zm13.9-.3-.2.2.2.2.1-.1zM78.9 9.2l.1.1.2-.1-.1-.1zm-4 2.3-.3.1.1.2.2-.2zm.9 0-.2.2.2.2.1-.1zm-12.7.5-.2-.1-.1.1.2.1zm4.5 1-.2.1.1.1.2-.1q0-.2-.1-.1m-.9.4.2.2.2-.2-.1-.1zm-.7.6-.4.4zm-.4.3-.3.1.1.2.2-.2zm-9.1.3-.1.2.1.1.1-.2zm12.3 1.5.4-.4zm-3.9.2-.2-.1-.1.1.2.1zm3.9-.2-.4.4zm-.7.7.4-.4zm0 0-.4.4zm-8.6.7.4-.4zm8.3-.3-.3.1.1.2.2-.2zm-12.1.4.1.2.1-.1-.1-.2zm11.3.5.2.2.2-.2-.1-.1zm-8.2.5.4-.4zm7.9 0 .4-.4zm0 0-.4.4zm1.1.2.2.2.2-.2-.1-.1zM43.4 46.1l-.4.4zm.3-.4-.4.4zm-3.5 0 .4.4zm6.7-.1-.2-.1-.1.1.2.1zm-6.7.1-.1-.3-.2.1.2.2zM66.3 19l-.3.1.1.2.2-.2zm1.5 0-.4.4zm-9.7.7.4-.4zM44.1 45l.4-.4zm-4.3-.2-.2-.1-.1.1.2.1zM67 19.7l.4-.4zm0 0-.4.4zm-.3.3-.4.4zm-15.9.4-.1.2.1.1.1-.2zm6.9 0-.4.4zM44.4 44.7l.4-.4zm20.8-24.3-.4.4zM42.7 44.7l.4-.4zm5-.6-.2-.1-.1.1.2.1zM66 20.8l.4-.4zM38.9 43.9l-.2.2.2.2.1-.1zm23.7-23.1-.2.1.1.1zm1.9.3.4-.4zm1.1 0 .4-.4zm-1.4.4.4-.4zm1.4-.4-.3.1.1.2zm-8.6.3-.3.1.1.2.2-.2zm7.2.1-.3.1.3.2zm-19 22.1.4-.4zM62 22l-.2-.1-.1.1.2.1zM49.8 42.9l-.4.4zM63.1 22l.2.2.2-.2-.1-.1zM50.2 42.5l-.4.4zm-1.8 0-.3.1.1.2.2-.2zm7.9-20.1.2.2.2-.2-.1-.1q-.2-.1-.3.1m6.8-.2-.4.4zm-6.8.3-.3.1.1.2.2-.2zm5.4.4-.1-.3-.2.1zM50.2 42.5l.4-.4zm-1.8-.1.2.2.2-.2-.1-.1zm15.8-19.9-.3.1.1.2.2-.2zm-2.5.7-.4.4zM45.9 42.5l.4-.4zM62.7 24l.4-.4zm-7.1-.1-.3.1.1.2.2-.2zm10 .1-.4.4zM50.9 41.8l-.4.4zm-4.7.4.4-.4zm-1.4-.4-.4.4zm-5 0-.4.4zm25.1-17.1.4-.4zM38.7 42.2l-.4-.4zm10.4-.7-.3.1.1.2.2-.2zm-2.5.2.2.2.2-.2-.1-.1q-.2-.1-.3.1m-6.8.1.4-.4zm.4-.4.4-.4zm-4 0-.1-.3-.2.1zm18.7-16.2.2.2.2-.2-.1-.1zm6 .2-.4.4zM47.3 40.7l-.3.1.1.2.2-.2zm-6.4 0-.4.4zm11.1-.3-.4.4zm-5.2-14.3.1-.2-.1-.1-.1.2zm2.7 14.5.2.2.2-.2-.1-.1zm-1.8-.2-.4.4zm12.9-14.7-.4.4zm-2.2.4-.3.1.1.2.2-.2zm1.8 0-.3.1.1.2.2-.2zm-2.8.9.2.2.2-.2-.1-.1zm1.7 0 .2.2.2-.2-.1-.1zm-6.8 13-.4.4zm-6.4.4.4-.4zm-5.7-.2.2.2.2-.2-.1-.1zm18.6-12.7.4-.4zm-2.9.7.4-.4zM52.3 40l.4-.4zM60 28.6l-.1.1.1.2.1-.1zm-6.9-.4-.4.4zm2.8 0-.4.4zm5 .2-.2-.1-.1.1.2.1zm-8.2.2-.4.4zm0 11.1.4-.4zM52 29.3l.4-.4zm-1.8 10.1.1.2.1-.1-.1-.2zm8.2-10.2.2.2.2-.2-.1-.1q-.2-.1-.3.1m-10 10.1-.4.4zm3.2-9.6.4-.4zm6.8-.4-.3.1.1.2zm-5.4 10 .4-.4zm-4.2-.3-.4.4zm4.6-8.6-.4.4zm-6.8 8.9.4-.4zm4-8.2.4-.4zm2.8 7.9.4-.4zm-2.7-.4-.1.2.1.1.1-.2zm-1.9.4.4-.4zm-4.7-.2-.2-.1-.1.1.2.1zm6.5-7.7-.4.4zm3.5 7.2-.4.4zm1.4 30-.4.4zm-5.3-36.9-.4.4zm9.7.4.4-.4zm-10.1 0-.3.1.1.2.2-.2zm4.3 6.5.4-.4zm-1.8-6.5-.4.4zm-8.9 6.4.4-.4zm11.1-.3.4-.4zm-13.6 2.8.4-.4zm10.4-3 .1.1.2-.1-.1-.1zm-1.5-.2-.4.4zm-5.7 0-.4.4zm4.7-4.8.2.2.2-.2-.1-.1zm6 4.8.4-.4zm-5 0 .4-.4zm-5.7 0 .4-.4zm11.1-.3.4-.4zM53.3 69l.4-.4zm-8.5-32.2-.4.4zm0 0 .4-.4zm4-3.9-.4.4zm1.7 3.6.4-.4zm-5.3-.2.2.2.2-.2-.1-.1zm7.5-3.4-.4.4h.4zm-1.8 3.2.4-.4zm.7-.7-.4.4zm-5.3 0-.3.1.1.2.2-.2zm6.8-.4-.4.4zm-6.5 0-.4.4zm7.9-1.9.2.2.2-.2-.1-.1zm-1.1 1.6-.4.4zm-6.8.3.4-.4zm6.8-.3.4-.4zm-1.1-.4-.4.4zm-4.3-.7.4-.4zm4.3-.4-.4.4zm-5 1.1-.4.4zm6.8-.7.4-.4zm-1.8.7.4-.4zm-1 0 .4-.4h-.4zm-3.3-.7-.4.4zm3.6.4.4-.4zm-3.9-.1-.4.4zm17.6 35.9-.1.2.1.1.1-.2zm2.4-14.3-1.1.9q-.5.6-1.2.5l-.5.1-2.2 2 .3.2-.3.1q-.2.9-1.1.7l-.3.4c-.6.8-.6.8.3 1.8q-.2-1.2.7-1.7l2.2-1.9 5.7-4 2.5-1.6-.1-.2-.9.3-.3-.7q-1.1.4-1.9 1.2h.3l.3.2q-.2.3-.3.2h-.3l-.4.4-.4.4c0 .5-.4.3-.7.4zm-3.2-2.4-3.8 2.4c-.7.4-1.7.7-2 1.8l1.3-.5c.5-.6.8.1 1.2.1q2-2.4 5-3.2l.4-.9-1.1.5-.4-.3zm3.6 5.5-.1-.3a33 33 0 0 0-5.4 4.5l.4.2 1.8-1.3q1.3-1.1 2.7-2c.4-.2.6-.8 1.2-.6l.7-1.1-1.1.4zm5.5-15.3c-1.3-.2-2.5.5-3.9.4l.3.6q.8-.6 1.6-.3.9 0 1.6-.4l1 .2 2.4.6c-.8-.8-1.9-.9-3-1.1m-7.7 11.1.4.4q1.9-1 3.2-2.7c-.6-.4-.8.2-1.1.4q-.8 1-2.2 1.2zm.6-13.6h-3.7q-.2-.2-.6.7 2.6-.7 5.3-.1-.6-.5-1-.6m6.9 13.6 2.3-1.7c-1.5-.3-2.1.8-3.2 1.2zm1.8-12q-2-.4-3.9-.1c-.5.7-.8-.1-1.1-.1l.4 1.1c1.3-.8 1.3-.8 2.5-.8h2.1zm-7.5 27.3c.4.5.9.4 1.4.5v-.7q-.8.2-1.4-.5l-1.1-1v.7zm10.5-23.5-.7-1.4q-.3-.5-.9-.4l1.1 1.9q.4.4.9.6l.5-.6zM69.4 41c-.4-.4-.6-1-1.4-.9l2.1 2.2c.3-.7-.3-1-.7-1.3m7.2 14q-1.2.3-1.4 1.6c.5-.5 1.5-.4 1.4-1.6M64.5 39.7h2.8q-1.1-.7-2.8 0m-2.1.7 1.7-.5-.8-.2-.9-.3zm6.2 3.3q.5-1.2-.7-1.6zm7.9 10.6.1-.6-1.1.1c.4.2.5.9 1 .5m-15-13.8q.5-1.2-.7-1.6zm17.3 1.8 1.1.8v-.8zm-16.5 16q-.8-.2-1.1.7h.7zm14.7-15q.2.9 1.1.7-.3-.7-1.1-.7M74.9 34q.2-.9-.7-.7-.3.9.7.7M73 55.5h-.7l-.4.7q1 0 1.1-.7m-3.9-1.1V54c-.3 0-.6-.2-.7.3l.3.4zm-5.5 2.5-1 .7q1.4.2 1-.7m11.6-14.3c.2.7.7.2 1.1.4-.2-.7-.7-.3-1.1-.4m-8.6 8.7q-.9-.4-.7 1zm4.3 5.6c.3-.1.7.2.7-.4h-.7zm-6.4 5.7v.7h.2v-.7zm1.4-8.2c-.3.1-.7-.2-.7.4h.7zm-2.5 1.4c.3-.1.7.2.7-.4-.3.1-.7-.1-.7.4m8.2-1h.7v-.4c-.3.1-.7-.2-.7.4m1.4.7c.3-.1.7.2.7-.4-.2.1-.6-.2-.7.4m.1 1.8-.4.4h.7zm-3.3 0v.4c.3-.1.7.2.7-.4zm-7.2 2.1V59h-.7v.4zm8.3.7c-.3.1-.7-.2-.7.4.2-.1.6.2.7-.4m3.9-5.7c.3-.1.7.2.7-.4-.2.1-.7-.1-.7.4m-6.1 2.5c-.3.1-.7-.2-.7.4.3-.1.7.1.7-.4m-6.4-.4c.3-.1.7.2.7-.4-.3.1-.7-.1-.7.4m-1.1.4v.4c.3-.1.7.2.7-.4zm10 1.8c.3-.1.7.2.7-.4-.2.1-.6-.1-.7.4m-6.8-3.6c.3-.1.7.2.7-.4-.2.1-.6-.1-.7.4m1.8 3.6c.3-.1.7.2.7-.4-.2.1-.6-.2-.7.4m-2.8-5.8c.3-.1.7.2.7-.4-.3.1-.7-.1-.7.4m4.6 7.2c-.3.1-.7-.2-.7.4.3-.1.7.1.7-.4m-3.5-7.9-.4.3.8-.1zm1 .4c.5 0 .3-.4.4-.7-.6 0-.3.4-.4.7m-18.9-.7-.3-.4.1.8zm-.7-2.2-.3-.4.1.8zm23.9 17-.2-.5-.2.9zM76.3 43c0 .5.4.3.7.4 0-.6-.5-.4-.7-.4m2-.8.5-.2-.9-.3zm-6.1-2.1-.5.1.1.2.5-.1zm-4.1 0c0-.5-.4-.3-.7-.4 0 .6.4.3.7.4m-6.5 27.5c0 .5.4.3.7.4-.1-.6-.5-.3-.7-.4m8.6-28.2c0-.5-.4-.3-.7-.4 0 .5.4.3.7.4M69 39l.5-.2-.9-.2zm-7-.4c.1.3-.2.7.4.7-.1-.2.1-.6-.4-.7m12.1 21.2c.5 0 .3-.4.4-.7-.6 0-.4.4-.4.7m-5.4-.4c.3-.1.7.2.7-.4h-.7zm-2.8-.4.4-.4zm9.3-.7-.4.4zm-5.4.2.2.2.2-.2-.1-.1zm5.4-.2.4-.4zm-8.6 2.9.4-.4zm5.3-2.9.4-.4zm-3.5 0-.1-.3-.2.3zm-1.5 0 .4-.4zm-4.2-.3-.4.4zm13.2-.4-.4.4zm-2.4 0-.2.2.2.2.1-.1q.1-.2-.1-.3m-.8 0-.4.4zm-1.5 0-.3.1.1.2.2-.2zm-1.4 0h-.4v.4zm-4.5 4.3-.1.2.1.1.1-.2zm2.4-4.3-.4.4zm-4.7 0-.4.4zm13.2-.3-.4.4zm-6 3.2-.4.4zm1-3 .2.2.2-.2-.1-.1q-.1-.1-.3.1m-1.8-.2-.3.1.3.2zm-1.7.3.4-.4zm2.8-.3.4-.4zm-.7 0v-.4l-.4.4zm4.2-.7-.2.1.1.1.2-.1zm-4.9 4.9.4-.4zm.7-4.8.2.2.2-.2-.1-.1zm-1.1.2.4-.4zm-4.3-.4-.3.1.1.2.2-.2zm-2.5.4.4-.4zm12.6-.5.1.1.2-.1-.1-.1zm-2.9.1.4-.4zm-1-.2.3.2v-.4zm-1.5.1.2.2.2-.2-.1-.1zm0 4.1-.3.1.1.2.2-.2zm-4.7-4 .4-.4zm6.5-.3.4-.4zm-.7-.4-.3.1.1.2.2-.2zm-5 0-.4.4zm-1.8 0-.4.4zm7.8-.1.2.2.2-.2-.1-.1zm-1 .1.4-.4zm-4.7-.3-.4.4zm1.8 5-.4.4zm6.4-.4-.4.4h.4zM72 55.2l.3.2V55q-.1.3-.3.2m-1.5.1.2.2.2-.2-.1-.1zm-2.8-.2-.3.1.3.2zm-1.8 0-.4.4zm-1.8.4.4-.4zm9.6-.5.2.2.2-.3-.1-.1zm-1.1 0-.3-.2v.4zm-3.5 5.3.2.2.2-.2-.1-.1zm2.5-5.5-.3.1.1.2.2-.2zm-3.6.3-.1-.3-.2.3zm-1.8-.4h-.4v.4zm8.6-.3-.3.1.1.2.2-.2zm-2.1-.4-.4.4zm-3.2 0v-.4l-.4.4zm3.2 7.6h.4v-.4zm-7.5-8.7.4-.4zm-.8 7.2-.3.1.1.2.2-.2zm-18.2-8.6-.1-.3-.2.1zm-2.3-.4-.2.2.2.2.1-.1zm1.4-.3-.2.2.2.2.1-.1zm.8-.3-.2.1.1.1.2-.1zm28 9.3-.4.4zm-29.3-9.4.4.4zm0 0-.4-.4zm-.4-.4-.4-.4zm22.2 11.2-.4.4zm4.6-1.4-.4.4zm7.2-15.4L78 44zm-9 16.8.4-.4zm-1.7-19.3.4.4zm0 0-.4-.4zm.3 18.2.4-.4zm-3.2-.4-.4.4zm-3.2.4v-.4h-.4zm-.4 7.2.4.4zM71 39.8l.1.2.1-.1-.1-.2zm-.6-.4-.2.2.2.2.1-.1zm.8 20.2.2.2.2-.2-.1-.1zm-10.6-21 .4.4zm9.9 20.8-.3.1.1.2zm-2.1.4.4-.4zm-3.6-.2.2.2.2-.2-.1-.1zm6.1-.6-.4.4zm-8.8 2.5-.1.2.1.1.1-.2zm3.8-2.5-.3.1.1.2zm.3 2.5-.3.1.1.2zm3.2 7.4.2.2.2-.2-.1-.1zm0 .2-.4.4zm5.4-10.4-.4.4zm-2.3.3.1-.2-.1-.1zm-1.3-.3-.4.4zm-2.1 2.8-.3.1.1.2zm.7-2.8-.4.4zm22.1 21.9v1.9l.3.3v-1.7q0-.3.3-.4l-.3-1.1q-.2-.6-.7-.2c.3.3.8.7-.1.9l-.3.3zm-1.3 1.1c.9-.1.5-.7.6-1.2h-1.1V82l.3.3zm2.7-.8c0-.5-.4-.3-.7-.4.1.6.5.4.7.4m.4.4-.4-.4zm-1.3 1.4-.2.2.2.2.1-.1zM79.2 30.1l-1.3.4-.5.2c-.7 0-.7-.1-1.6.7l1.1.3 1.1.7q.5.3 1.1.2l2.1-.2c1.1-.2.2-1.2 1-1.6q-1.4-1.6-3-.7m1.7.8-.2.3-2.6.5q.5-.8.7-.8l2.1-.3zm1.5-8.4q.3 1.5-1.3 1.5-.3 0-.6.6l.5.1h.5c.9-.3.9-.3 1.2.8.7-.2 1 .5 1.4.9.1.1-.5.5-.1.9l.6.8-1.2 1 1 .5q.2-1.2 1.2-1.8l-1.2-.8c1.1-.3 1.9.7 3.1.6q-.7-.9-1.2-1c-1.6-.2-2.4-1.6-3.6-2.3v-2.1zM76 26.9l-1.3.4-.2.4.3.3c.4.2.8-.6 1.3 0l1.6-1q-1-.2-1.7-.1m1.6-2.3c-1.3.3-2.3-.4-3.3.9 1.1-.3 2.3.4 3.3-.9m3 2c-.2.8.7.5.9 1l1.2-1.5zm-.2 1.7-.5.5.5.6.6-.6zm2.4-2.9-1.1.1.7.6c.5 0 .3-.4.4-.7m-3.2 1.2.8-1.1c-.7.3-.7.3-.8 1.1m-.3 2.1-.4.4.3.3.6-.3zm-4.1-2.5 1.1-.1v-.2h-1zm6.5 2.5-.7-1v1zm-1.8-1.5.3.4-.1-.8zm-5.7-1.4.4-.4zm0 0-.3.1.1.2zm1 .3-.3.1.1.2zm5.2 1.5-.2.2.2.2.1-.1zm2.7 1.4.1.3.2-.3zm11.4-.1c-.5-.4 0-.6 0-.9q-.5 0-.9.3-.7 1-.5 2.2l1.1-.4.4-.4zm-30.7.4q1 0 1.4-1.1-1 .2-1.4 1.1m-1.1 6.8q1-.3 1.1-1.4-1 .3-1.1 1.4m-2.1-3.9q.9.2 1.1-.7-1-.2-1.1.7m-4.3 5q-.9.2-.7 1.1.7-.3.7-1.1m-1.1 1.4q-.9.2-.7 1.1.7-.2.7-1.1M67 29.7c.5 0 .3-.4.4-.7-.6 0-.3.4-.4.7m-1.1-.1.2.5.2-.9zm.8.8c.5 0 .3-.4.4-.7-.6 0-.4.4-.4.7m-2.2-3.2.4-.3-.8.1zm2.5-3 .2.2.2-.2-.1-.1zm0 .1-.4.4zm-.7.7.4-.4zm0 0-.3.1.1.2.2-.2zm-.5.8-.2.1.1.1.2-.1zm1.2.3-.3.1.1.2.2-.2zm-2.1.6.2.2.2-.2-.1-.1zm1 .7.2.2.2-.2-.1-.1zm0 .2-.4.4zm-.7.7.4-.4zm-1.8 1.4.4-.4zm-.3.3.4-.4zm-.4.4.4-.4zm0 0-.4.4zm4 0-.4.4zm-4.3.4-.4.4zm-6.9 7.5-.4.4zm6.1-6.8.4-.4zm-1.4 1 .4-.4zm0 0h-.4v.4zm3.6 2.2.4-.4zm.3-.5.2.2.2-.2-.1-.1zm.4-.7.1.1.2-.1-.1-.1zM82 53.6l-.4.4-.3-.5-.2-.6c-.3.7-.9-.5-1.2.2.3.5 1.1.5 1.2 1.2h2.5l.5-.7q0-1.2 1.1-1.8l-1-.8-.5 1.6-.7 1.1q-.2.4-.5.3l-.1-.7zm-2 1.9-.1.1c0 .9.7.4 1.1.4zm2.7-3.2c-.7.2-.2.7-.4 1.1.7-.2.3-.8.4-1.1m1.4 1.4.7 1v-1zm1.4-1.1q.3-.2.3-.4c-.1-.4-.4-.2-.7-.3zm-3.1 5.6.3.1.3-.2-.5-.2zm-1-2-.5.2.9.3zm3.8-2.8c.5 0 .3-.4.4-.7-.6 0-.4.4-.4.7M83 51.6c-.5 0-.3.4-.4.7.6-.1.4-.5.4-.7m-1.6 0-.1.3.2.3.2-.5zm3.8 1.8-.4.4zm-4.7 8.5q-.5-.7-1.4-.7.4 1 1.4.7m-3.6-.3q-.7.5-.7 1.4 1-.4.7-1.4m.4-1.1c-.7.2-.2.7-.4 1.1.7-.2.3-.8.4-1.1m-1.8 3.2-.7.7q.9.2.7-.7m5.4 1.1c.7-.2.2-.7.4-1.1-.8.2-.3.7-.4 1.1m-1.8-3.6c-.1-.3.2-.7-.4-.7.1.3-.1.7.4.7m-.4-.7v-.7h-.4c.1.3-.1.7.4.7m-2.8 2.9.4-.4zm-.4.3.4-.4zM73.7 66l.2.2.2-.2-.1-.1zm22.9 16.8.7.4c-.7-1.8-.1-3.6-.7-5.2zm-5-5.8.1 1.4q.5-1.5-.1-2.9zm3.2.8.1 1.3h.2v-1.3zm-72.4-25h-2.1l-.2.2.8.8zm-.3 3.3q-.3-.3-.5.3c.5 0 .3.4.4.7q.6-.4.1-1m2.5.2q1 .5.8-.4zM29 55c-.1-.3.2-.7-.4-.7.1.3-.1.7.4.7m-5.5 1.1-.5.2.9.2zm-2 .3-.4.4zm1.5-.3-.4-.4zm-.7-.8.4.4zm71.6-19.7q.3-.3.2-.7-.5-.6 0-1.2.3-.6.8-1c.5-.4.7-.3.8-.8-1 .2-2 .3-2.5 1.4q.5 0 .3.6-.6 1-.7 2.3zm1.5-.8.5.2q-.1-.4.4-.6c.5-.1.1-.3 0-.5q-.2-.4-.2-.9h-.2l-.2 1.2-.5-1-.2 1.2-1.1-.4.6 1.3zm-4.1 0q1 0 1.4-1.1-1 0-1.4 1.1m5.8-4.5.2.5.2-.9zm-.8 1.3c-.3.1-.7-.2-.7.4.3-.1.7.1.7-.4m.7-.8-.4.4zm-.7.8.4-.4zm-3.6 2.1.4-.4zm-8.5-20.4q0-1-1.1-1.1zm-.7 2.1c.1.4-.3.9.4 1.1-.2-.3.3-.9-.4-1.1m-3.6-3 .2.5.2-.9zm4.3.9.4.4zm.7.7-.4-.4zM72 19.7q.8.2 1.1-.7-.8-.2-1.1.7m1.5-2.1-.4.4zm-.4.3-.3.1.1.2.2-.2zm-1.2.7-.1.1.1.2.1-.1zm1.2.4.4-.4zm-1.9 0-.2.1.1.1zm.8.7-.4.4zm3.5 40.8q.5 0 .9-.3l.9-.7v-.7zm4-2.5-.1-.3-.2.1zm-4 2.5-.4.4zm.5-44.2.2.2.2-.2-.1-.1zm3.1 43.5c.5.6.8 1.4 1.8 1.4-.5-.6-.8-1.4-1.8-1.4M94.8 30l-.3-.2v.4zM14.1 45.7c.3-.1.7.2.7-.4-.3.1-.7-.2-.7.4m-.4-1.1c-.3 0-.7-.2-.7.4.3-.1.7.1.7-.4m41.1 6.2q-.9.2-.7 1.1.8-.3.7-1.1M13 43.9c-.3.1-.7-.2-.7.4.2-.1.7.1.7-.4m48.9 15.5-.4.4z"/></svg>