<svg xmlns="http://www.w3.org/2000/svg" xml:space="preserve" viewBox="0 0 321.4 420.9"><path d="m7.8 409.1.3 1.5q0 3-.3 1.7zm.8-10.6c-.2-2.4-.4-5.2-.8-3.6.3 2.4.2 3 .6 5.5 0 2.1-.1 3.6-.2 3.2.1.7-.1 3.2.1 4.3q.4-4.1.1-9.6c0-.7.1 0 .2.2m1-200.4v1.3zm.5-124.2.1 1.4zm.4-21.2v1.2zm-.9 145.4.1-3.3c-.1-.3-.1 1.6-.1 3.3M7.8 370.8l.1 1.8zq0 .2 0 0m1.9-118v1l.1.8zm0 42q-.1-1.3-.4-1.6l.2 2.1zM9 361.4v1.2zm.9-138.7.1-.4zm47.4 191.1q0-.2 0 0-.4 0 0 0m-48.7-1.6h.7l.1-.2zM11 13.9v.2zm299.8 43c.3-4 .3 6.6.6.5-.1.6-.4-5.5-.6-.5M7.8 369.7V368zM311.5 57.4v-.6zM93.3 9.7l-.9-.1zm-66.6-.6h1.6zm101.2.2h2.4zm36 .1-.7-.1h-1.1zm2.8 404.5-1.7-.3c.6.2-4.7.3 1.7.3M8 370.8l-.1-1.1zq0 .3.1-.1M129.4 7l5.7.1zm183.2 292.3v1.3zM152.1 7.1l3.2.2.7-.1zm-22.6 406.8c-5.4.1-1.7-.1-6.6-.3-2.8.3-5.3-.1-5.9.4-1.7-.3-1.3-.2-4.6-.5 1.5.3-6.4.3-6.2.6-1.4-.4 5.7-.4 1.3-.9-3 .2-8.6.3-9.1.7l-6.9-.3 1.6-.1c-6.4.3-15.8 0-19.4.4 1.3-.6-13.6-.1-8.7-.6-2.7 0-6.9.3-7.8.4.3-.5-6.6-.1-9.5-.4-1.5.3-6.3.2-9.2.3q2.1 0 1.5-.3c-3.3.2-2.4 0-5.2-.2-4.4.1.8.4-1.9.6-3.8-.1-.6-.3-1.3-.5l-5.7.4q-1.8 0-2.4-.3c-2 .1-3.7.3-6.5.1h4.9l-1.9-.2-5.8.3c-8.3-.4-5.7-.8-5.1-1.3l3.4-.1c-.1-.2-2.4-.3-3.9-.3-1.4-.1 5.5-.5 9.2-.6 10 .1 2.1.6 8.9.7l8.8-.3.1.2 2.6-.1c-.6.2 7.2.1 10.8.1l-1.3-.2c10-.5 15.8.6 23.7.3l5.6-.3 1.2.3c3.3-.2 3.8-.4 9.2-.3 18.8.6 39 0 58 .4l-2-.1c16.7.8 26.1-.7 41.2-.1l-1 .1c7.7 0-1 .1 4.5.3 1.1-.4 9.7-.3 14.1-.4l-3.5.1c.8.1 1.2.3 3.4.3 4.9-.5 15.4-.5 23.2-.6.9.3 7.6.5 11.1.9l3.6-.5q4 .2 6.9-.1h-6.3.2-3.3c-3.1-.2.2-.2 0-.5 2.5 0 7.8-.1 8.4.2l4.1.1h3.1-.5l.7.1c5 .1 12-.3 16.1-.5-4.1.4 1 .4 1 .7l-10.9-.1q.8 0 .9.2c5.5.3 9.3-.2 17.3 0-.5 0-1.5.1-1.2.2a29 29 0 0 0 6.1-.3c.7.3 6.7.5 9.7.4 2.6-.2 2.2-.3 7-.3l-2.1.2c5.6.2 4.6-.3 9.2-.1q-2.7 0-.6.2l3.3-.1h1.3l-.1-.6v-.8l-.2-2.7.3.8c-.2-5-.5-14.4-.1-14.5-.6 1.6-.3-10.8-.3-15.2 0 1.5.1 1.8.2 1.9-.4-9.1 0-18.4 0-27.6l.4-1.5c0-4.9-.9-6.3-.8-11.5l.2 1.9.1-20.7.3.1c-.1-2.7-.1-6.1-.3-8.8.7-6.2-.3-24.5.5-35.8l-.5-.7c0-4.3-.1-9.9.3-11.9v1c.4.4 0-4.3.1-7 0-2-.3-4.1-.4-2.3.3-11.5.1-28.5.6-35.7-.2-11.5-.6-20.2-.5-32.6l.1.1c.1-4.2.3-12.6.7-12.6-.1-9-.7-14.7-.5-25.3l.2 2.3c.1-2.7-.1-7-.2-8.1 0-.9.1-.3.2-.1.2-2.6-.1-4.1-.1-6.1l.2.8c.3-8.5-.3-21.9-.1-32.9 0 2 .2.9.3.1-.5-4.5-.3-16.8-.5-21.4l.2 2.8c-.3-8.9.6-7.7.2-16.6l-.3 5.1c.1-3.6 0-6.7-.2-5.8.2-4.2.4-.5.5-6.8.1-.3.1 4.6.3 2.5l.4-8.8V53c-.6.8 0-7.3-.6-2.9 0-12.4.4-22.9.2-33.6l.2-3.2.1-3.7-7.9-.1c-2.4-.1-4-.2-3.6-.4l-10.6.3c-1.6.2-8.8.2-11.9.2 4-.2 10.4-.3 13.5-.6l-16.2.4-1.4-.4c-4.6.3-3.9-.3-8.5.1l.9.1c-8.5 0-8.6.4-16.4.4l.3-.2c-2.7-.1-6.7.3-9.4-.1h5.1c-.5-.3-4.4-.4-6.2-.6-5.4.1-1.9.5-4.6.5-1.2-.3-.3-.1 1.6-.4-6.1.1-14.3.2-18.6.5-.3 0 0-.1 0-.1-6.3-.1-11.9.4-15.8.2h1.2c-5.1-.4-13.1.3-14.2-.3-2.4-.1 5.4 0 1.6-.3-7.5-.2-5 .6-11.6.3l.9-.1-16.4.1c-6.5-.6-19.9.1-27.3-.6 2.4.2-1.9.3-1.9.4 0 0 .3-.1 0-.1-2.7 0-3.1.2-4.1.3-2.2-.2-7.5.2-8.9.1l-4.6.1c4.9-.1 1.6-.3 3.7-.5-7.3-.1-8.3.6-15.9.5l-4.2-.3c-.8.4-7.8.2-7.7.4-1.3-.1-3.2-.2-2.9-.4-3 .1-7.5-.1-8.8.1l3 .1c-9.3-.2-14.9.4-22.1.1l.1-.6c-4.8-.3-8.9.3-13-.1 1.4.2 1.8.1-1.3.3l8.2-.1-6.4.3 10-.2c-4.3.2-4 .2-2.2.4-6.1.2-6.6-.3-12.4-.1-2.1-.1.1-.3-2.3-.4-5.2.5-9.9-.1-13.6.2-1.2-.1 2.1 0 1.8-.2q-5 0-6.7.2l2.9.1c-2.5 0-2.9.2-7.7.1-2.8.1-4.3.4-1.3.4-1.2 0-3.9-.1-3-.3l-3.5.1q-.3 0-.4.2l.2.3-.1 4c0-.5 0-1-.1-.7v4.5c0-6.4-.5 2-.4-5.6-.3.8-.1 5.7-.2 8.1.2 3.7.5.4.6 2.3l-.2 3.3.4-1.8v4.9-3.1c-.1 3.3-.5 8.4-.2 14.2-.1-1.5-.3-4.6-.4-.7.1 6.4-.1 1.5-.3 5.1 0 6.3.4 1.1.3 10.5 0 1 .1.1.2-.9-.1 6.4 0 9.9-.2 16.1.1-2.7.2-4.8.3-1.1-.2-1.6-.2 5.1-.3 7.5l.1.6c-.1 1.9-.2-.1-.2-1.7l.1-1.7c-.1-3.1-.6-1.9-.6 2.9.1 5.2.4 4.3.6 3.5-.1 6.9.6 6.5.3 13.1 0 1.5-.5 6.5-.6 11.4.3 2.5.2-6 .5-3.2-.7 8 .4 16.4-.1 26.9l-.3-1.3v7.6l.2-3.6c.1 2.4 0 8.2-.3 6.3.3 5.5.1 6.7 0 11.8 0-5.4 0-.1-.1-4.1-.2 5.7-.1 6.1 0 10.1-.1-.7-.3 1.4-.3 3 .2 3.7.1 10 .3 15.2h-.1c.1 8.7-.4 18.1-.1 26.8v.4-.7c.3-3 .2 6.8.3 9.4-.1.6-.2.9-.2 2.4.3.1.2 3.4.3 4.6-.1 3-.4-.4-.4 4.8 0 2 .2 2.2.3 2-.2 1.1-.3 4.4-.3 7.1v-3c-.2-.3-.1 1.5-.3 1.4 0 2.4.3 1 .2 4l-.2-2.8c-.1 1.2 0 2.7.1 3.3-.1-1.8-.3-1.6-.4-1.3.2 7 .7 1.4.9 1.7-.2 6.6.1 11.8.1 17l-.3-1c0 2.5.1 3.7.2 4.6v3.9q-.1-3.1-.4-3.1c.1 4.1 0 9.8.4 10.8l-.1-.2c-.2 5.5-.3 16.9-.4 16.5.1 5.9-.1 13.3.3 13.5.1 3.5-.5 9.1 0 11.6-.3 4.2-.1.2-.4-1.1-.3 4.2.4 8.4-.2 9.8.2 4.9.1-1.1.4.5-.5 1-.1 9-.4 13.6.2 2 .1-2.1.3 1.4-.6-.5-.6 1.4-.6 2.3l.3.9-.8 4.6c.4 6.9.5-1.4.7 7.8v-.6c-.3 2.5.2 6.5 0 13.1.1-2.3-.1-.9-.2-1.6l.1 3.7q0-.6-.1-.1c-.2 3.2.1 2.8-.1 6.6-.1-2.6-.3-1.8-.4-.7l.3 5.4-.4-2.2c0 5.3.6 13.1 0 15.7l-.1-2.6q-.3.2-.2 5.3c0 1.1.3 1.8.3.3l-.1 2.6c-.3-1.3-.3-7.8-.4-11.9.1 1.3.2 4.5.4 3.5L8 372.6l.4 3c.2-4-.2-3-.2-6 .1-1.1.2-1.9.3-1.2-.1-3.7-.1-6.7 0-10.7 0 0 .2 4.5.4 2-.2-7.3-.5-8.7-.7-16.6-.5-9.1.3-17.7 0-24-.1-.3-.2 4.7-.3.6.3.7.2-2.5.3-2.7-.4-4.5.1-6.6-.1-9.7.1.7.2-1.9.3-3.6.3.5.1-4.9.6 1.6-.5-6.7.1-11.8-.6-16.8l-.1 1.7.2-6.7v.3c.1-2.9 0-3.4.3-7.3l.1 5.8c.1-3.4-.4-7.3-.4-11.3.2.2.1 4.1.4 3l-.2-7.9.1.4c.3-7-.6-2.7-.2-7.9-.1.2-.2-.5-.2-.2.1-1.9.4-6.4.5-1.9l-.2-6.4c-.2 2.1-.1 2.6-.3 3.3l-.1-9.8.1 2.2c.7-11.5-.5-23.3.3-36.3-.2 1.5-.2-.9-.3-2.2.1-4.2 0-10.6.2-14.5l.1 1.2c-.1-10-.4-16.9-.3-23.6l.2 1.2c-.2-4.9.6-10.7 0-12.1v1.8c.1-9.7-.3-20.3-.3-30.3.3-2.3 0 5.8.4 3.7v-21.5l.1 1.5c.2-7.5-.3.8-.3-5.5.2.3.2 0 .3-2.1l-.3-1.9q0-.6.3.7c-.2-2.5.1-10.9-.2-13.1.1-.6.4 1 .5.1.1-3.4 0-5.7-.1-7.9.2-2.4.2-8.1.3-6.9.1-6-.2-1-.4-5.5l-.2 4.8-.1-8.5.2 3.4-.1-12.4-.2 2.1-.1-5.2c.4-.5.1-6.6.5-3.8.2-9.6-.3-15.8-.3-24.6 0 1.5.1.9.1 1.2.1-5.1-.1-8.2-.3-11.3l.3 1.9c0-6.1-.2-3.6-.3-10.4q.1 1.4.2 1.2l.1-.5V9.1q-.2 0-.2-2l2.4-.1c-2.1.2-2 .3-1.4.4l1.5.1 1.6.1c2.1.1 4.4.1 2.9.4.3-.2 10.7-.5 7.7-.8l-1.8.1c-.2-.2 2.3-.1 4.1-.1l-2 .1 30-.1c-.9.1-5.2.2-2.5.3 10.4 0 16.6-.4 27.2-.5.5.5-11.5 0-11.9.5Q83 7.4 101.5 7c4.4.7 12.2-.3 19.9.3-.7-.2 3.1-.3 7.3-.3-1.4.2 3 .2 1.8.3 3.7-.2 14.3-.3 13.9.2 1-.5 7.9 0 10.9-.3 4.6.2 9.9-.1 15.8.1-2-.3 5.8-.1 7.9-.2l-1.5.1c1.7.3 6.7-.2 10 0 1.5.1-.4.3 2 .3l4.9-.3 7.3.1c-1.5 0-1.5.1-2.5.2 15.5-.3 32 .2 47.9-.2l-2.8.3c9.9.5 6.5-.5 14.3-.5l26.9.4 13.4.2 14.5.1V20c.1 1.5.1-.9.3-1.1 0 1.8-.3 2.3-.2 4.8l.2-.6c-.5 9.6.3 27.6-.5 34.7.3 9.1-.3 15.6.2 26.7-.2 3.5-.3-4.1-.4.7l.3 10.3v-.6c.5 9.9-.7 26.2-.3 38.7v-.5c-.1-.3-.3 2.3-.3 4.3.1.7.1-.7.3-1.9.2 11.1.2 13.5.2 22.3-.2-3.8-.2 3.5-.4 3.9.2 2.3.3-1.3.4 3.8q0 11-.3 20.1c.2 2.5.2 5.7.5 5.9l.1 23-.1.3c.4 2.7-.2 8.8 0 10.7-.1-.3-.2-1.4-.3-1.1l.1 4.6c-.1-2.2-.4-3.4-.5.4.2 3.9.2-1.1.4.8l-.3 1.2c0 3 .4 3.8.5.2v29.2l-.2-1c.1 5 .1 11.8-.1 14.7.1.1.2 1.4.3.6.3 6-.4.6-.1 7.1l-.2-3.9.2 12.2-.3 4.5.1 5.6.1 3.3-.4 2.5.3 4.8-.3.1c.1 3.5.5 4.9.4 7.8-.2 10.7-.3 8.5-.7 16 .6.9-.1 12 .4 14-.5 10.1-.2 24.7-.4 38l-.1-1.1c-.3 5.7.4 6.4.3 12.5l-.1-1.5-.2 7.4v9.5l-4.6.1-3.4.1-5.9.2q2.1-.2-1.6-.3c-2 .1 2 .4-2.2.3 1-.1.2-.2-.7-.2l-4.1.3c-10.8-.2-23.5-.5-34.8-.3-2.1-.1-.6-.2-.1-.3l-25.8.3-.8-.4c-3.9 0-2.4.5-7.6.2-1.1-.1 3.4 0 4.8-.2-7.9-.3-4.7.3-12.2.3l2-.4c-5.8-.3-6.6.2-8.7.4-8.1.5-5.8-.8-16.8-.5-1.7.2.6.3-1.2.5-7.8-.1-8.7.2-16.5 0-4.2-.6 4 0-.6-.6l5.9.1c-5.1-.3 4.6-.1 3.8-.4-3.8-.1-9.6.2-14.6.3 0-.3 5.8 0 3.5-.4l-2.6.1c.7-.1.8-.2 2.3-.2-.9-.3-3 0-5.5 0q-.3.2.8.5l-.7-.1c-5 .4-13.5.1-17.7.4.7-.1.1-.1-.1-.2-3 0-6.1.3-10.2.4-2.2-.2 1.3-.6-5.2-.5-1.2.2 1.7.6-3.7.6-.2.2 4.6.1 2-.1m122.5-.2h2.6zm9.8-.3q-1.7 0-1.1.2h4.6c-1.6 0-4.1-.1-3.5-.2m-19.8-1.7h3.2l-2.5-.1zm-2.4.3h-.7l1 .1.6-.1zM9.5 199.6v-.2.5zm303.3 111.6v.9zM8.4 258.5l-.1.8zm-.2 29 .1-3.6zm-.1 16 .1.4zM25.4 7.1h.8zM8.9 85l-.1-3zM128.7 7h.6zM8.8 77.7V82zM7.7 388.3v1zm.1 1v1zm.1 3.3-.1-2.2zm0-30.2-.1-.3zm0-7.9-.2 7.3.1.2c-.1-1.1.3-5.7.1-7.5m1.4-32.8-.1 6.6c.1-1.2.3-2.7.3.3.4-8.3-.3 1.7-.2-6.9m.2-20.5c0 3.5.2 0 .2.1 0-2.2-.1-2.7-.2-.1m.4-147.8.3.4c-.1-2.7-.2 0-.3-.4m-1.3-28.2-.2 2.7.2 1.3zm1.9-16.7v1.2l-.1-4.6zm147-98.8-.8-.3c-1.9 0-2.3.4.8.3m107.1-.1c1.2.2 4.2.3 6 .1zm45.6 273.2-.1-2.2.1 4.1zM1.7 417.3q.2 1.3.3-1.8l-.4-1.5zm.7-14.2c-.2-2.5-.5-5.4-.8-3.7.3 2.5.2 3.1.6 5.7 0 2.1-.1 3.7-.3 3.3.1.7-.1 3.3.1 4.4q.4-4.3.1-9.9c.1-.7.2 0 .3.2m1-206.8v1.3zm.5-128.1.1 1.4c0-.9 0-1.7-.1-1.4m.5-21.9v1.3zm-1 150 .1-3.4c-.1-.3 0 1.7-.1 3.4M1.6 374.6l.1 1.9v-1.7zm2-121.8v1l.1.9zm-.1 43.3q-.1-1.3-.4-1.7l.2 2.1q.1.2.2-.4m-.6 70v-1.2zm.8-144.4.1-.4zm48.9 197.2q0-.2 0 0-.4 0 0 0m-50.2-1.7h.7l.2-.2zm2.5-411v.2zM317 53.4c.3-4.2.3 6.8.6.5-.1.6-.4-5.7-.6-.5M1.6 373.4v-1.8zm316-319.5v-.6zM92.5 4.6l-.9-.1zM23.8 4h1.7zm104.4.3h2.5zm37.2.1-.7-.1h-1.2zm.1 414.6-1.7-.3c.6.2-4.9.3 1.7.3M1.8 374.6l-.1-1.1zM129.7 1.9l5.9.1zm189.2 301.6v1.4zM153.2 2l3.3.2.7-.1zm-26 417c-5.5.1-1.8-.1-6.8-.4-2.9.3-5.5-.1-6.1.4-1.8-.4-1.3-.2-4.8-.5 1.5.3-6.6.3-6.3.6-1.4-.4 5.9-.5 1.3-.9-3.1.3-8.9.3-9.4.8-2.4-.1-3.5-.3-7.2-.3l1.7-.1c-6.6.3-16.3 0-20 .5 1.3-.6-14-.1-9-.7-2.7 0-7.1.3-8 .4.3-.5-6.8-.1-9.8-.4-1.5.3-6.5.2-9.5.3q2 0 1.6-.3c-3.4.2-2.5 0-5.4-.2-4.6.1.8.4-1.9.6-3.9-.1-.6-.3-1.3-.5l-5.9.5q-1.8 0-2.5-.3c-2 .1-3.8.3-6.7.1h5l-1.9-.2-6 .3c-8.6-.4-5.9-.9-5.3-1.4l3.5-.1a17 17 0 0 0-4.1-.3c-1.4-.1 5.6-.5 9.5-.6 10.3.1 2.1.6 9.2.7l9.1-.3.1.2 2.7-.1c-.6.2 7.4.1 11.1.1l-1.3-.2c10.3-.5 16.3.6 24.4.3l5.7-.4 1.2.3c3.4-.2 4-.4 9.5-.3 19.4.6 40.2 0 59.8.4l-2-.1c17.2.9 26.9-.8 42.5-.1l-1.1.1c7.9 0-1.1.1 4.7.3 1.1-.4 10-.3 14.6-.4l-3.6.1c.9.1 1.2.3 3.5.3 5-.6 15.9-.5 23.9-.6 1 .3 7.9.5 11.5.9l3.7-.5q4.2.3 7.1-.1h-6.5.2-3.3c-3.2-.3.2-.2 0-.5 2.6 0 8.1-.1 8.7.2l4.3.1h3.2-.5l.7.1c5.1.1 12.4-.3 16.6-.5-4.2.4 1.1.4 1.1.7l-11.3-.1 1 .2c5.6.3 9.6-.2 17.9 0-.5 0-1.6.1-1.2.2a29 29 0 0 0 6.2-.3c.7.3 6.9.5 10 .4 2.7-.2 2.3-.3 7.2-.3l-2.2.2c5.8.2 4.7-.3 9.5-.1q-2.9 0-.6.2l5-.1 1.6-.1.7-.1-.1-.5-.1-.2v-.6l.1.4.1.2-.1-4.3-.1-4.9c-.1-3.1 0-5.5.2-5.6-.6 1.6-.3-11.2-.3-15.7 0 1.5.1 1.8.2 2-.4-9.4 0-19 0-28.5l.5-1.5c0-5-.9-6.4-.9-11.9l.2 2 .1-21.3.3.2c-.1-2.8-.1-6.3-.3-9.1.8-6.4-.3-25.3.5-36.9l-.6-.7c0-4.5-.1-10.2.4-12.3v1c.4.4 0-4.5.1-7.2 0-2.1-.3-4.2-.4-2.4.3-11.8.1-29.5.6-36.8-.2-11.9-.6-20.8-.5-33.7l.1.2c.1-4.3.3-13 .7-13-.1-9.2-.7-15.1-.5-26.1l.2 2.4c.1-2.8-.1-7.3-.2-8.4 0-1 .1-.3.2-.1.2-2.6-.1-4.2-.1-6.3l.2.9c.3-8.8-.3-22.6-.2-33.9 0 2.1.2 1 .3.1-.5-4.6-.4-17.3-.5-22.1l.2 2.9c-.3-9.2.6-8 .2-17.1l-.3 5.2c.1-3.7 0-6.9-.2-6 .2-4.3.4-.5.5-7.1.1-.3.1 4.7.3 2.6l.4-9v-4.4c-.7.8 0-7.5-.7-3 0-12.8.4-23.6.2-34.6l.2-3.3.1-3.8-8.1-.1c-2.5-.1-4.1-.2-3.7-.4l-11 .4c-1.6.2-9.1.2-12.2.2 4.1-.2 10.7-.3 13.9-.6l-16.7.4-1.4-.4c-4.8.3-4-.4-8.8.1l.9.1c-8.7-.1-8.8.4-17 .4l.4-.2c-2.8-.1-6.9.3-9.7-.1h5.3c-.5-.3-4.6-.4-6.4-.6-5.6.1-2 .5-4.8.5-1.2-.3-.3-.1 1.7-.4-6.3.1-14.7.2-19.2.5-.3 0 0-.1 0-.1-6.5-.1-12.3.4-16.3.2h1.3c-5.2-.4-13.5.4-14.6-.3-2.5-.1 5.6 0 1.7-.3-7.8-.2-5.1.6-12 .4l1-.1-17 .1c-6.7-.6-20.5.1-28.2-.6 2.5.2-1.9.3-1.9.4 0 0 .3-.1 0-.1-2.8 0-3.1.2-4.2.3-2.3-.2-7.8.2-9.2.1l-4.8.1c5-.2 1.6-.3 3.9-.5-7.5-.1-8.6.6-16.4.5l-4.3-.3c-.9.4-8.1.2-7.9.4-1.3-.1-3.3-.2-3-.4-3.1.1-7.8-.1-9.1.1l3.1.1c-9.8-.6-15.6 0-23-.3l.2-.6c-5-.3-9.2.3-13.4-.1 1.5.2 1.8.2-1.3.4l8.5-.1-6.8.3 10.3-.2c-4.4.2-4.1.2-2.3.4-6.3.2-6.8-.3-12.8-.1-2.2-.1.1-.3-2.4-.5-5.3.2-10.2-.5-14-.2-1.2-.1 2.2 0 1.9-.2q-5.3 0-6.9.2l3 .1c-2.6 0-3 .2-8 .1-2.9.1-4.5.4-1.4.5-1.3 0-4-.1-3-.3a41 41 0 0 0-6.3.5l-.1.1v1.5c0-.5 0-1.1-.1-.8v4.7c0-3.3-.1-2.8-.3-2.4q-.2.4-.2 0v-3l-.1.3-.1.8v7.1c.2 3.8.5.4.6 2.3l-.2 3.4.3-1.8v5l-.1-3.2c0 3.4-.4 8.6-.2 14.6-.1-1.6-.3-4.8-.4-.7.1 6.6-.1 1.5-.3 5.3 0 6.5.5 1.1.3 10.8 0 1 .1.1.2-1-.1 6.6 0 10.2-.2 16.6.1-2.8.2-4.9.3-1.2-.2-1.6-.2 5.2-.3 7.7l.1.6c-.1 2-.2-.1-.2-1.8l.1-1.7c-.1-3.1-.6-2-.6 3 .1 5.3.5 4.5.6 3.6-.2 7.1.6 6.7.4 13.5 0 1.6-.5 6.8-.6 11.7.3 2.6.2-6.2.5-3.3-.7 8.2.4 17-.1 27.8l-.4-1.4v7.8l.2-3.7c.1 2.5 0 8.4-.3 6.5.3 5.7.1 6.9 0 12.2 0-5.6 0-.1-.1-4.2-.2 5.9-.1 6.3 0 10.4-.1-.7-.3 1.5-.3 3 .2 3.8.2 10.3.3 15.7h-.1c.1 8.9-.4 18.6-.1 27.6v.4-.7c.3-3.1.2 7 .4 9.7-.1.6-.2.9-.2 2.4.3.1.2 3.5.3 4.8-.1 3.1-.4-.4-.4 4.9 0 2.1.2 2.3.3 2.1a64 64 0 0 0-.3 7.3v-3.1c-.2-.4-.1 1.5-.3 1.5 0 2.5.3 1 .2 4.1l-.6-2.8.1 3.5c-.1-1.9-.3-1.6-.5-1.4.2 7.2.7 1.4.9 1.8-.2 6.8.1 12.2.1 17.5l-.3-1c0 2.6.1 3.8.2 4.8v4c-.1-2.3-.2-3.1-.4-3.2.1 4.2 0 10.1.4 11.2l-.1-.2c-.2 5.6-.3 17.4-.4 17.1.1 6.1-.1 13.8.3 13.9.1 3.6-.5 9.4 0 12-.3 4.3-.1.2-.4-1.1-.3 4.3.4 8.7-.2 10.1.2 5 .1-1.2.4.5-.5 1.1-.1 9.3-.4 14 .2 2.1.1-2.1.4 1.5-.1-.4-.2 1.6-.2 2.5l.3.9-.8 4.8c.4 7.1.6-1.4.7 8v-.6c-.3 2.6.2 6.7 0 13.6.1-2.3-.2-1-.2-1.7l.1 3.8q0-.6-.1-.1c-.3 3.3.1 2.9-.1 6.8-.1-2.7-.3-1.9-.4-.7l.4 5.6-.4-2.3c0 5.4.6 13.5 0 16.2l-.1-2.7q-.3.1-.2 5.5c0 1.1.3 1.9.3.3l-.1 2.7c-.3-1.3-.4-8.1-.4-12.3.1 1.3.2 4.6.4 3.6l-.4-11 .4 3.1c.2-4.1-.2-3.1-.2-6.2.1-1.2.2-2 .3-1.2v-11s.2 4.6.4 2.1c-.2-7.5-.5-9-.7-17.1-.5-9.4.3-18.2 0-24.8-.1-.4-.2 4.9-.3.6.3.7.2-2.5.3-2.8-.4-4.6.1-6.8-.2-10 .1.8.2-1.9.3-3.7.3.5.1-5.1.6 1.6-.5-6.9.2-12.2-.6-17.3l-.1 1.8.2-6.9v.3c.1-3 0-3.5.3-7.5l.1 6c.3-3.7-.2-7.7-.2-11.8.2.2.1 4.3.4 3.1l-.2-8.1.1.4c.3-7.2-.6-2.8-.2-8.1-.1.2-.2-.5-.2-.2.1-2 .4-6.6.5-2l-.2-6.6c-.2 2.1-.1 2.7-.4 3.5L2 243.3l.1 2.3c.7-11.9-.5-24 .3-37.4-.2 1.5-.2-1-.3-2.3.1-4.3 0-10.9.2-14.9l.1 1.3C2.2 182 2 174.8 2.1 168l.2 1.3c-.3-5 .6-11.1 0-12.5v1.9c.1-10-.3-21-.3-31.3.3-2.4 0 5.9.4 3.8.2-7.1-.1-14.4 0-22.2l.1 1.6c.2-7.7-.3.9-.3-5.7.2.4.2 0 .3-2.1l-.3-1.9q.1-.6.3.7c-.4-2.9-.1-11.6-.4-13.9.1-.6.4 1 .5.1.1-3.5 0-5.8-.1-8.2.5-2.4.5-8.3.5-7.1.1-6.2-.2-1-.4-5.7l-.2 5V63l.2 3.5-.1-12.8-.2 2.1-.1-5.3c.4-.5.1-6.8.6-3.9.2-9.9-.3-16.3-.3-25.4 0 1.6.1 1 .1 1.3.1-5.3-.1-8.4-.3-11.6l.3 1.9-.1-4.9-.1-1.7-.1-1.3V2h1.8l-1.7.1q0 .2 0 0l2.6.1C4.8 2.1 6.3 2 7.6 2c-5.2.8 7.7.3 4.5 1 .3-.2 11.1-.5 8-.8l-1.9.1c-.2-.4 2.3-.3 4.2-.3l-2.1.1 31-.1c-1 .1-5.4.2-2.6.3C59.7 2.4 66 2 77 1.9c.5.5-11.9 0-12.3.5q17.1-.1 36.3-.5c4.5.8 12.6-.3 20.5.3-.8-.3 3.2-.3 7.5-.3-1.5.2 3.1.2 1.8.4 3.8-.2 14.7-.3 14.3.2 1-.5 8.1 0 11.3-.3 4.8.2 10.3-.1 16.3.1-2.1-.3 6-.1 8.2-.2l-1.6.1c1.8.3 6.9-.2 10.3 0 1.5.1-.4.3 2.1.3l5-.3 7.5.1c-1.6 0-1.6.1-2.5.2 16-.3 33.1.2 49.4-.2l-2.9.3c10.3.4 6.8-.6 14.9-.6l27.7.4 13.9.2 15 .1v12.6c.1 1.6.1-.9.3-1.2 0 1.9-.3 2.4-.2 5l.2-.6c-.5 9.9.3 28.5-.5 35.8.3 9.4-.3 16.1.2 27.5-.2 3.6-.3-4.2-.4.7l.3 10.6v-.6c.5 10.2-.7 27.1-.3 39.9v-.5c-.1-.3-.3 2.4-.3 4.4.1.7.1-.7.3-1.9l.2 23c-.2-3.9-.2 3.6-.5 4 .2 2.4.3-1.4.4 3.9q0 11.4-.4 20.8c.2 2.5.2 5.9.5 6l.1 23.7-.1.3c.4 2.8-.2 9.1 0 11-.1-.3-.2-1.4-.3-1.1l.1 4.8c-.1-2.2-.5-3.5-.5.4.3 4.1.2-1.1.4.9l-.4 1.2c0 3.1.4 3.9.5.2v30.1l-.2-1c.1 5.2.1 12.1-.2 15.2.1.1.2 1.4.3.6.3 6.2-.4.7-.1 7.4-.1-1.7-.1-3.8-.3-4.1l.2 12.6-.3 4.6c-.1 2.6-.2 5.8-.1 8.5.1.2.2-1.3.3-2.7l.1 3.4-.4 2.6.3 4.9-.3.1c.1 3.6.5 5.1.4 8-.2 11-.3 8.8-.7 16.6.6.9-.1 12.4.4 14.4-.5 10.4-.2 25.5-.4 39.2l-.1-1.1c-.3 5.8.5 6.7.3 12.9l-.1-1.6-.2 6.4v8.4h-5.4l-4.3.1-7.4.2q2.2-.2-1.7-.3c-2.1.1 2 .4-2.3.3 1.1-.1.2-.2-.8-.2l-4.3.3c-11.2-.2-24.3-.5-35.9-.3-2.1-.1-.6-.2-.1-.3l-26.6.3-.8-.4c-4.1 0-2.5.6-7.8.2-1.2-.1 3.5 0 4.9-.2-8.1-.3-4.8.3-12.6.3l2-.4c-6-.3-6.8.2-9 .4-8.4.5-5.9-.8-17.3-.5-1.8.2.6.3-1.2.5-8-.1-9 .2-17 0-4.3-.6 4.1 0-.6-.6l6.1.2c-5.3-.3 4.8-.1 4-.4-3.9-.1-9.9.2-15.1.3 0-.3 6 0 3.6-.4l-2.6.1c.7-.1.9-.2 2.4-.2-.9-.3-3.1 0-5.6 0q-.3.2.8.5l-.7-.1c-5.2.4-13.9.1-18.3.4.7-.1.1-.1-.1-.2-3.1 0-6.3.3-10.5.4-2.3-.2 1.3-.6-5.4-.5-1.2.2 1.8.6-3.8.6.1.3 5 .2 2.4 0m126.3-.2h2.7zm10.1-.3q-1.7 0-1.1.2h4.8c-1.7 0-4.3-.1-3.7-.2m-20.3-1.7h3.3l-2.6-.1zm-2.5.2h-.7l1 .1.6-.1zM3.4 197.9v-.2.5zM319 315.8v1zM2.2 258.6l-.1.8zm-.1 26.3-.1 3.7zm-.2 20.2.1.4zM22.4 2h.8zM2.8 79.6l-.1-3.1c-.1 1.8-.1 3.1.1 3.1M129.1 1.9h.6zM1.5 392.6v1.1zm0 1.1v1.1zm.2 3.3-.1-2.3zm0-31.2-.1-.3zm0-8.1-.2 7.6.1.3c-.1-1.3.3-6 .1-7.9m1.4-33.9-.1 6.8c.1-1.2.3-2.8.3.3.4-8.5-.2 1.9-.2-7.1m.3-21.1c0 3.7.2 0 .2.2-.1-2.3-.1-2.9-.2-.2m.3-152.5.3.4c0-2.8-.1 0-.3-.4m-1.3-29.1-.2 2.7.2 1.3zm2-17.2v1.2l-.1-4.7zM158.8 4.6l-.9-.3c-1.9.1-2.3.4.9.3m110.5 0c1.2.2 4.3.3 6.2.1-2.4 0-4.9-.2-6.2-.1m47 281.8-.1-2.2.1 4.2zm-86.8-69.9c-.3-1.2-.4-2.5-1.5-3.3v2.4l-1.8.6.3.4zm-4.5 0-.8-4.9-.7-.3v5.2zM72.9 140.6l-3.4-2.2.7 3.1-1.7-1.3q-1.2-.4-2.5-.6c-1.6-.5-.8 1.6-1.7 1.7-2.9-2-6.5-2.6-8.9-5.1q-.3-.2-.8-.2c-2.9-.1-5.9-.4-8.1 2.3l1.6 1.6 1 1.3-.5.5-4.8-3.7 5.5-3.1-1.8-2.5h1.8q1 1.4 2.3 2.6c.1.1.8-.6 1.2-.5q2.9.8 2.9-1.5l-.1-4.9-.7-.3c0-1 1.8-1.7.3-3-.6-.5-.3-1.9-.4-2.9 1.9-1.4 3.4.1 5 .5q1.4-1.9-.2-3.1c-.7-.4-2.1-.8-2.3-.6-1.5 2-2-1.6-3.6.6 1.2-3 2.4-1.7 3.5-1.7h4q.5 2 .6 3.6c.1 1.6-.4 2.2-.7 3.7l-1.6.2c-.4-1.2-.8-2.4-2.9-1.7l2.9 1.7 2.4 2.8-2 6.3-2.8-1.8-.3.9c.1 2.6.1 2.5 2.8 3.5l3.7 1.9 3.4-2.1q1-.6 2-.6c3.2.6 6.2-.6 9.2-1.1 4.7-.8 9.2-2.6 13.8-4.1q4.5-1.3 8.8-3.1c1.4-.6 2.6-1.8 5.4-3.9-2.1-1.1-.5-1.8 1.2-2.4.7 1.9 3.2 1 4 2.8 1.5-1.4 4-1.3 4.8-3.6 1.1 1.7 1.9-.2 2.8-.3 1.3-.2 1-1.9 1.4-2.9s1.7-1.5 2.6-2.3l.3.8.6-.8a12 12 0 0 0 6.4-4q1.5-2 3.4-3.5c1.9-1.5 1-3.1 3-3.5v2q4-3.5 7.6-6.3 2.6-1.9 5.3-3.5c.4-.2 1.2-.3 1.5-.1 2.6 1.7 4.6.2 6.6-1.2v1.6q2.6.6 4.6.7 1.8 0 3.7-.3c1.3-.4 2.9-.1 4.7-.1l-2.7-2.3-2.1.7v-8.2c-1.7-.9-2.1-1.2-1.7-1.7 1.3-1.7.6-3.7 1.1-5.5 0-.2.5-.2.7-.3.1.7-.5 1.7.9 1.8 0 1.4 0 2.6 1.2 3.6s2.1 2.3 3 3.4c1.9-1.3 5.1-1.6 5.6-4.9l-5.1-7.7-2 1.1v-1.3c1-2.6 1-3-.9-6 .5-2.2 3.4-3.8 1.9-6.7q0-.3.5-.7c2-1.5 1.5-3.4 1-5.4l-4.3 3.6c-.4-1.9 1.3-2.6 2.3-3.6 2.5-2.6 2.4-2.6 2.4-6.9 0-1.3.7-2.7 1.2-4q.6-1.1 2.3-1.1c.7 0 1.3-.8 2.7-1.7H174c.5-.9.3-2.1 2.3-1.1 2.2 1.1 4.8-.3 7.3-.7.3-2.6 2.7-1.5 4.1-2.5l-3.6-.4v-.5l2.9-.6c-1.3-2-1.7-2.1-4.7-1.5v-.4l.9-1c-1.5-.9-3-1.7-4.9-1.4q-.9 0-1.5-.5c-1.7-1.9-3.5-1.6-5.6-.7q-1.2.3-2.6.3l2-1.6H165l-2.8 3.4-.8.3.8.6c-1.1 1.5-3.3 1.3-4.5 3q-1.7 2.1-3.8 3.9l-2.7 3.1q-.5-2.3 1.5-3.8.6-.6 1.4-1.9l.3.3.4-.5q0-.2-.5.1 0-.3-.3 0-1.5.4-2.4 1.3l-7.9 7.9-1.7 1.3q.1-1.2.7-2 4.3-4.5 8.8-8.7 1.8-1.6 4.1-2c2.3-.4 2.2-.8 3-1.6l6.7-6.8c3.6.9 7.1 1.9 10.8.4.6-.3 2 .8 2.8 1.6 1.4 1.4 3.1 2.1 4.7 3 1.1.6 1.7.9 2.7 0 .1-.1 1.4 1.3 2.3 1.6 1.7.5 3.1-.5 4.4-1.2v-2.2c-1-.1-2.2-1-2.6.7h-1.8c-.7-2.7-1.3-3.2-3.4-2.5q-1.9.6-4 1.6c.5-2.8 2.9-2.8 4.4-3.5 2.2-1.1 3 1.8 4.9 2.7l2.5-2q2.5.4 1.2 2.6c-.6 1.1-.2 2.5 1.7 2V39q2.1-1.7 3.8-2.7.8-.3 1.7-.3c.6 2.6.6 2.6 3.1 1.9l1.3-.1c4.2-.3 4.7.1 4.7 4.6-1.9-.2-.2-2.2-1.1-2.6-.9-.2-1.9 0-2.3-.4-1.7-1.6-2 .1-3 .8 2 .9 2 .9.9 2.1l-.2-.5-.6.1q.2.3.6.5 1 1 1.1 1.9c0 4.1 0 4.4 2.4 7.2.5-1.2.8-3.1 1.6-3.3 2-.6 1.4-1.9 1.5-3.1l1.9 1 4.4-3.2-3.5-4.2q1 0 1.6.3l2.9 2.8.6.4 1.1-1.1-3.5-6.4a8 8 0 0 0-3.6-3 4 4 0 0 0-3.7-.1V34l-2.6-1.8c-1.6 0-1.8 2.8-4.2 1.2l2.3-1.6c-1.2-1.3-2.2-2-3.9-.9q-1.6.9-3.5 1.3c.7-2.3 3-2.5 4.4-3.8 3 1.8 5.8 3 9.1 1.2.7-.4 2.3.2 3.2.9q2.2 1.5 3.4 3.9c.9 2.1 2.4 3.9 3.7 5.9q5-2.6 10.6-2.6l5.5.1c1.1.1 2.7.2 3.2 1 1.3 1.7 2.6 2.8 4.8 2.7.1 2.1 2.7 1.3 3 2.3 1 3 3.7 5.1 3.8 8.5q.1 1.2.8 2.4 2 4.7-.2 9.6c-1.3 3-3.4 5.5-4.4 8.8 1.2-.1 2.6-.6 3.4-.2a5 5 0 0 1 2.3 3.1c.7 2.3 3.6 2.1 5.3 3.5q1.8 1.3 3.1-.4l3.9 3.6c2.2-.9 2.7 2.3 4.7 1.9.5-.1 1.5.6 1.7 1.2.8 1.8 2.6 2.4 4 3.4l3.9 2.7q.9.7 1.9.9c2.8.6 2.8.6 3.4 3.5l2.5.5q-.9 2.4-.6 5.5l1.9-3 .4.7c.1 1.8.3 3.7-1 5.1-1 1.1-.9 2.2-.9 3.3v11.4c0 1.2-1.1 3.2 1.5 3.4.3 1.3.8 2.6-.4 3.7-1.5 1.3-1.2 2.7-.8 4.4.5 2.1 1 4.7.3 6.6-.7 2-.6 3.8-.7 5.6s.1 3.7-.1 5.5c-.2 1.9.6 3.7-.7 5.6-1 1.4.7 3.9-1 5.5v.9c.5 5.5-.8 11-1.1 16.7l-2.6-1.1 1.1 10.1c-1.1-.8-1.8-1-2-1.4l-.9-2.8v-3.2c-2.8 2.7-4.9 5-2.8 8.6.4.7.1 1.7 0 2.1q1.5.3 2.2.6.6.6.5 1.6c-.3 6.6 1.5 13.1 1 19.7q0 2.4.6 4.9h-10.1l.2-.1-.3-.3-.6.3.1.1h-5.6c-.1-1.4.2-2.8.1-4.1l-1.1-8.2c-1.9 4.7 1.2 8.5 0 12.3h-5.9l-.3-.7a4 4 0 0 0-1.8-1.6c-.4-.2-1.1.4-1.6.6l-.6-1.8-1.1 2.4c-.3-4.1-.3-4.1-2.3-7v8.1h-.4c-.7-3.7-2-6.5-3.6-5.5l.4 5.5h-.9v-5.1c-1.8-1.1-.9-3-.8-4.4.1-3.4-.8-6.4-2.8-10.1v5.3q-.6-.6-.9-1.2c-.2-1 .2-2.3-.3-3.1-2-2.8-1.8-6.3-2.8-9.3l-2.5 1.2c.3 1.9-.7 4 .9 5.8-.7 1.7.9 3.3.1 5.2-.7 1.7.2 3.9-.7 5.8q-.3-1.8-.3-3.5c-.2-2.8.2-5.5-.7-8.4-.7-2.2-.8-5 .9-7.4l-2.1-2.3c1-1.3 1.3-2.6 1.2-6.1l-1 .9q0 .5.3.9l-.3.4h-1.8v3.9c0 .5-.1 1.3-.5 1.6-2.4 1.9-1.2 3.9-.2 5.9l-2 .9v2.3h-1.8q-.2 2 0 3.4c.3 1.7-2 .7-1.8 1.9.1.9-1.6 1.3-.2 2.5.6.5.2 2.3.1 3.5q0 .3-.6.8l-.5-3.8h-.5l-.4 2.5-2.7.5c1.7 1.2.9 2.9 1.1 4.3-2 0 .1-2.6-2.1-2.8-.9.9-1.4 2-1.7 4.7l.1-.1c2.1.6 0 2.7.6 3.2l.5.2h-1.4q.2-1.7.1-2.4l-.1 2.4h-2q-.3-.8-.9-1.4l-1.5 1.4-13 .1H196c-1.4-6.9-.1-13.8-.6-20.7q-.1-2.5 1.8-5.2v6.7h.7q.2-3.5.7-7.1c.5-3.6 1-4.7 1.8-8.1-1.4 1.3-2.2 1.9-2.7 2.7-1.5 2.5-5.1 3-6.1 6l-4.5 1.2a25 25 0 0 1-7.6-12c-1.4 1.7.6 4.2-1.3 5.8l.4.6 5 10.7q.5.9 1.8 1.9v6.9l.4 10.4h-3.2q-.3-4.2-1.6-8.3-.3-1.3-.2-2.6.6-7.7-2.2-15.2l-1.5.8v-1.9l.9-.7-.9-1q-.2-3-2.6-4.5.1 2.8 2.6 4.5v1.7c-.9-.9-2.1-1.7-2.6-2.7q-.7-1.4-1.6-.7c-.3.2-.3 1.1-.4 1.6a17 17 0 0 1-6.8-8.2c-2.3.4-4.3 1.9-6.8 1.9-1.8 0-3.2.1-3.9-.7-1-1.2-2.9-1.8-2.6-3.9l4.2 3.6 1.2-1.2-1.7-2.4q3.3 1.2 6.3-.4l.3-.3c1.5-.1 3.1-1 4.3.7-2.8-.1-5.2 1.3-7.8 1.9-.2.1-.4.8-.3 1.1s.8.6 1 .5c1-.5 1.9-1.5 2.9-1.6 1.4-.1 2.8-1.5 4.2-.2.2 3.2 2.4 4.8 4.4 6.6q2.3-1 2-2.9l2.7-2.2v-6.7c0-.4-.6-.8-.9-1.2v-.9l6.9-11h.4v.9q0 .4.3.8l.6-.8q.2-.4 0-.9l.8-.3-.8-.6c.1-.7-.4-1.8.9-1.8l.3.8.6-.8 2 .6 1.7.3q-3.9 4-4.5 10.3 1-1 1.4-1.2h2.2q.2 2.9-2.8 2.8-1.7-.1.1 1.8c-.6 2.9-2.3 5.3-3.4 7.8q1 2.3 2.2 4.2 1.4 2.2 3 4.2c1.6 2 1.8 1.6 2.9.6q3.5-3.3 6.7-6.7c3.1-3.4 5.7-7 5.1-12v-2.7l1.8 1.1c.3 1.3 1 1.1 1.8.5v-.4c-.3-.9.9-2.4-.9-2.8l.9-3.1c-.5-1.4-2.5.4-2.7-1.5l1.6-.2-.7-1.2v-.4c1.6 0 3.3.2 3.7-2.5q-1.2-.7-2.5-1.1c-1.1-.3-2.3.4-3.3-.7q-.9-.7-2.4-1v1.7h-.9l-.3-.8-.6.8c-.8.1-1.9-.4-1.9 1.1 0 .2-.6.5-.9.7V155l.9-.7-.9-1.1c2-2.3 2.1-2.3 4.1-.9l3 1.8.4-.6-2-2.1h2.6c-1.5-1-2.1-1.7-2.8-1.8-.8-.1-1.7.4-2.8.6v-2.7c-2.1.4-3.4 2.2-5.3 2l4.6-4.3c-.3-2 .7-4.5-1.4-7.3 3 0 1.4-3 3.3-3.9-.2 1.8 1.3 3.2 1 5.1-.2 1.6 1.7 3.1.4 4.9l-1.8-4.3q-.4 4 .5 7.4c.1.6 1.2 1.2 2 1.5l6.2 2.1c-.9 1.7-3.7-.8-3.7 2.3l8.7 1.1c.9.1 1.4.2 1.4 1.2 0 .2.9.5 1.4.7 2.8.8 5.5 1.8 7.4 4 1.1 1.3 1.4-.7 2.1-.3-.2 1.4.5 2.9-.9 4.2-.5.5-.6 1.6-.7 2.4-.2 1-.6 2.6-.1 2.9.9.7 1.8 1.1 2.1 2.3q.8-.2 1.4-.6c.6-.4.6-.8.9-1.2l.3 2.8.7.1.7-2.5-1.7-.3c-.2-1.9.9-3.5 1.5-6l.7 4c.4-1.8.7-3.3-.2-5.1-.5-1.2.6-3.1 1.1-5.2 1.2 2.3-.1 4.5 1.2 6.5 1 1.5-.2 3.9.8 5.8q.4-4.5.3-9c0-1.3.2-2.7-1.2-3.6-1-.7-.7-1.7-.3-2.8 1-2.8.6-4.2-1.2-5.6l-2.7-1.9q-.2 3.7-.8 6.9c-.5 3.1 0 3.2-2 5.9q.6-2.5.9-5.1.2-3 0-5.9c0-.9.1-2-.4-2.5-1.4-1.7-1.3-3.7-1.9-5.7a14 14 0 0 1-2.8 8.2l-.7-.7-2.1 2.9c-.9-3 1.1-4.5 2.4-5.6 2.3-2-.2-4.8 1.9-6.7.7-.6-.3-1.6-1-2.2l-.6-.6-4.1-4.1h-4.9c-.9 1.1.7 2.9-1.2 3.5v-2.4c-1.9-1-2.7.1-3.1 1.4l-1.9-2.5h-1.3l-.3 4.1-1.1-2.4-3.3.9c.7-1.7 2.3-2.4 3.7-3.3 1.9-1.2 3.5.6 5.4.6q0-1.6-.2-2.4a8 8 0 0 1-1.7-5.6q0-2-2.3-2.1h-4q.5-.6 1.2-.9h4.7c-1.3-1.7-2.3-2.5-4-1.4q-1.7 1-3.6.1v-2.4l2.4 1.7c1.3-1.8 3.5 0 5.1-1.4q-1.4-3.3-3.8-5.8c-.9-2.3-2.2-4.3-4.5-5 .4-4.3 4.6-6.8 4.6-11.5-3.5.8-6.2-2.3-9.6-1.8-.9-1.1-2.9-.9-3.2-2.7l8.1 2.4c2.4.6 4.7.2 7 .4.3-1.2 1.9-.5 2.4-2.1.5-1.9 2.4-3.5 3.6-5.1-1.6-2-.6-4.8-2.8-6.4-.1-.1.5-1.1.6-1.5l-1.6-1.3q.8 0 1.6-.3c1.8-.8 1.8-.9 2 1.2-1.5.1-1 1.3-.9 2q.4 1.8 1.3 3.4l1-.9q.7.7 1.3 1.7 0 .3-.9 1l-.2-.6-.6.2q.2.3.6.5c.7 1.7-1 2.2-1.6 3.4l3.5 2.5q1.1.5 2.4.4c.7 0 1.3-.7 2-.7 7.3-.4 12.9-3.7 17.6-9.1l.3 1.7q1-.2 1.8-.6.5-.9.7-1.9h.9l1.1.9q.8-.6 1.5-1.4c-1.8-1.3 0-3.5-1.2-4.9h-1.4c.6-2.1 2.8 0 3.7-1.6h-5.3c-4.6 4.6-4.6 4.6-5.2 7.2-1.2-1.3-2.8-2.3-3.1-3.7q-.7-2.7-1.7-5.2c-1-2.5.4-3.9.7-5.9.1-.4.7-.8.6-1.1a7 7 0 0 0-1.1-2.5c-.1-.2-1.2.4-1.9.7a43 43 0 0 0-15.5-8.8l-.3.8v1.3c.3 1.4.1 2.2-1 4.1l-.9-1.9-1.3-1.8-1 .9-2.2-2.3 1.2-1.3q-1.3 0-1.8.2-.7 1-1.9.4c-3.2-1.9-6 .7-9 .7l-.4.9-2.4-2.4-1.4.6q3 1.6 1.9 3l-5.1 6.1q-.2.4-.2.9l2.3 1.3c-.9 1-2 1.6-2.2 2.5s-1.5 1.8-.2 2.8c-2.3 2.7-1.5 6.8-4.2 9.3l-1.6-1.2 1.8 5.3 4-2.6v5.5c1 1 2.6-.3 2.8 1.4-1.3 0-.6 1.1-.9 1.6-.9 1.7-.7 4.2-2.8 5.2q-1.7.8-3.5 1.4c-2.4.9-4.7 2.1-7.5 1.8q-1.5 0-2.9.5c-2.5.5-5.3.9-7.5.1s-4-.3-5.9-.5v3.5c-.6-.1-1.6.4-1.8-.7q-.8-2.8-3.6-1.8l1.8 2.5c-1.9.6-2.3-1.7-4-1.9-2.9 2.7-7 4.2-9.2 8.1q-.2.4-.6.6l-8 6.1-7.3 5 1 1.8-11.2 4.5.9 3.1c-1.5-.3-2.3-3.1-4.7-1.3l1 2.2h-1.5l.6 3.7-4.1-5.1c-.3.8-2.2-.1-2.3 1.6s-1.9.6-3 1.2a33 33 0 0 1-8.3 3.1c-6.3 1.5-12.5 3.1-18.6 3.8q-.2.2.2 1.6m107.8-55.8c2.1.5 2.2-.2 1.7-1.7zm-.6 1.8 1.2.3.5-.7-1.3-.2q-.3.2-.4.6m36.2 41.1L215 125c-.5 1.5-1 2.4.2 3.1q.6 0 1.1-.4m3.6 4.7-.3-.6-.3.3.3.6zm-13.7 21.5h-2.7v.5h2.7zm-29.3 28.5-.2-1.3-.7.4.3 1.2zm2.1-6.3c-.2-.2 0-1.2.4-1.5 2.6-2.5 1.7-6.1 3-8.9-5.4 5.4-4.8 5.4-4.2 12.7.1-.5 2.3-.9.8-2.3m18.9 23.7-.6-.3-.3.3.6.3zm9.3-27.7c-.1-1.8.2-3.3-.5-5.1-.9 3.9-.9 3.9.5 5.1m2.8 7.9c1.1-7.5 1-17.1 0-20.3zm1.5 15.9h-.8l.2 3.4h.6zm10.1-9.2 1.2 8.2 1-.8c.8-.6 0-.8-.1-1.3-.5-2.1-.8-4.1-2.1-6.1m.1-1.4-.3-2.3-.6.1c.1.7.1 1.4.9 2.2m0-7.6.3 2.4h.5v-2.4zm-.2-4.7h-.6v3.3h.8zm-1.4-8.5c.7-.1 1.7-1.6 2.3-3.4h-2.3zm-.2 14.3.3.3.6-.3-.3-.3zm-4.5 5.4.3.6.3-.3-.3-.6zm-.1 2.8.7.5.2-1.3-.6-.3zm.2 1.4v1.8h.5v-1.8zm-1.1 7.3v-6.8c-.2-2.3.4-4.6-.4-7.1-.7-2.2-.3-4.7-.4-7.1q0-.8-.3-1.7a64 64 0 0 0 1.1 22.7m.6 6.3q.1-1.6-.5-3.3-.4 1.8.5 3.3m.2-38.8-.3-.3-.3.6.3.3zm.9 47.6-.3-.3-.6.3.3.3zm.1-16.9.8-.6-1.2-.5-.3.8zm.8 6.1-.3-.6-.3.3.3.6zm.1-2.9-.6-.3-.3 1.2.7.5zm.1-21.4q0 .3.3.7l.8-.3-.5-1.2q-.4.3-.6.8m.5 1.9-.4.1v10.6l.4-.1zm1.7 35.9q-.2-.5-1.1-1.2c-.3 2.5-.3 2.7 1.1 1.2m1.2-8.5-1.9 1.2c2.4 1.1 2.1 0 1.9-1.2m-.3-3.8.3-.6-.3-.3-.3.6zm.7-3.8-1.5-.9.9 1zm.5-.2.2-.1c-.5-.1-.9-.2-.2.1m1.1 1.9q.2-.4-1-1.3l.3 2.5q.7-.6.7-1.2m1.1 4.4-.5-1.2-.6.8q0 .3.3.7zm.3-7.7c-1.1 2.3-.4 4.4.8 6.4 1.6-2.5-.9-4.3-.8-6.4m3.2-20.6-.6-.3-.3 1.2.7.5zm1.6 16.2h-.8l.3 2.5h.5zm55.2-74.1.6.8.5-1.2-.8-.3q-.3.2-.3.7m-1.9 54.7c.6-2.3 1.1-4.7 0-7zm-1.8-34.6.6.8.5-1.2-.8-.3q-.3.2-.3.7m-8.4-6.3c-.6 1.7-1.1 3.5 0 5.2zm.1 77.6v5.3c.5-1.4 1.2-2.9 0-5.3m.7-23.7h-.8v5.8l.7.4zm2.6 29.8-.3-.6-.3.3.3.6zm.2-78.9q-1.4.8-1.6 1.2l.3 3.9.8 7.2h.4zm-1.5 38v2.7h.5v-2.7zm1-76h.8l-.3-2.5h-.5zm-.4 34h-.5v2.7h.5zm-1.5-41.1.6.8.5-1.2-.8-.3q-.3.3-.3.7m0 89.5h.5v-1.8h-.5zm.9 21.4.6-1.1-.9-1.1v-3.1l-.2-3.2c-.5 2.1-1 4.2.5 8.5m-2-60.2.3.3.6-.3-.3-.3zm-.8-12.8.3 1.2.6-.3-.2-1.3zm-.2 75.8.3.3.6-.3-.3-.3zm-.9-8.8-.3-2.5h-.5v2.4zm-1.4-108.9 1.2.3.5-.7-1.3-.2q-.3.2-.4.6m1 81.7-.3.3.3.6.3-.3zm-1.4 8.3.2 3.4h.6v-3.3zm-.2 9.3c.7 2.1-1 4.6 1.8 6.1v-6.5zm-2.5-96.2v-5.3c-.5 1.4-1.1 2.8 0 5.3m-.9 86.3.3 1.2.6-.3-.2-1.3zm-.1 8.5h1.8v-.5h-1.8zm-4.7-35.6-1-1.8c-.6 1.3-.8 2.3 1 1.8m-.1 3-.6.8q0 .3.3.7l.8-.3zm1.2 20.8-1.3-9.7c-.9 5.7-.8 6.3 1.3 9.7m-.5 4.7-.3.6.3.3.3-.6zm1.2 36.8-1.2-.5-.3.8.7.3zm.8-12.1h-.4q-.1 1.2.4 2.4zm.9 9q.2-2.2-.7-4.3v1.5l.2 2.8zm.4-52q-.3 0-.7.3l.1.6zm.1-2.7-.1 2.7.1-.2c.8-1 .8-1 0-2.5m.7-9.4c-.7.3-1.6.4-1.6.7q-.6 2 1.6 3.1zm-1-3.4v-3.7h-.5v3.7zm.3-18.5-.2-3.4h-.6v3.3zm-1-14.2.3 2.4h.5v-2.4zm-.9 5.1c.1 1.8-.2 3.3.5 5.1.9-3.9.9-3.9-.5-5.1m-1.9 69.5c.9 1.5.8 3.1.8 4.6s-.2 3 0 4.5.7 3 1.3 5.3c1.4-6-1.2-10.9-.4-15.9-2-.7-2.1.8-1.7 1.5m-1.7-76.7c1.3 1.7.9 3.7.8 5.6q-.3 4.2 1.4 8.1l.4-.7c-.1-1.9 0-3.7-.7-5.6s-.2-4.2-.1-6.3c0-1.3-.2-2.3-1.8-2.8zm-32.9-4.6c-.7.1-1.7-.5-1.8.9.7-.1 1.8.4 1.8-.9.6-.1 1.5.3 1.7-.9-.6 0-1.6-.4-1.7.9m2.6-1.4c1.8.1 4.4-.7 4.7-1.2l-.2-.9q-2.3.8-4.5 2.1m.7-4.1.3-.6-.3-.3-.3.6zm.9 2 1.2-.5-.8-.6q-.3 0-.7.3zm1.7-3q.3-.1.5-.8-.3 0-.7.3zm-4 7.6a9 9 0 0 0-5.6 4.4l-.5.5 4.6-2.4 3.8-1.8 4.3-2.2c-2.8-1.5-4.5.9-6.6 1.5m7.4 5.1q-1.7.8-3.2 1.9a35 35 0 0 1-7.6 5.7c-.2.1-.2.8-.3 1.2.5.1 1.3.4 1.5.2l3.9-3.1q2.4-2 5.1-3.3zm0 2.5 1.2-.5.3-.6c-.3-.3-.7-.7-1.5 1.1m-5.6 4.2q-1.8 1.5-3.2 3.6-.3.6-.5 2.3l4.3-4.3c.7-.8 2.1-.9 3.4-3.1q-2.5.5-4 1.5m-4.6-1.9c-1.5 0-2.2.3-1.6 1.7q1.3-.6 1.6-1.7m1.4-1.8-.5.4.1.1zm-.3.6.2.2.4-.5s-.1-.2-.6.3m5.3-3v-.4q-.3 0-.7.3l.1.6.8-.5 2.8-1.8c-2.1-.8-2.5.4-3 1.8m-8.7-4.2q.3-.1.5-.8-.3 0-.7.3zm.7-7.8.3.6 1.3-.2-.4-.7zm1.2-2.1.3-.6-.3-.3-.3.6zm-1.4 4.1.4.4.4-.5zm-.8-8.5q.2.5.9.7c.7.2 1.4-.7 2.5-.5l.2-1.8-3.1.6c-.3 0-.6.7-.5 1m-1 2.1.3 1.7c1.2-1.2 3-.9 3.8-3.1-1.5.2-2.7 1.2-4.1 1.4m1.4 2.3-.3.6.3.3.3-.6zm-1.8 4.8 1.1.6 1.1-.9c-.5.1-.9.1-.2-.4zm.4 8.9q-.4 0-.7.3l.1.6q.3-.2.6-.9m-.1 3.3 12.9-7.7h-1.5c-4 1.2-7.1 3.8-10.6 6q-.6.6-.8 1.7m.8 4.1-.8.1.3 2.4h.5zm1.9 20.4c0-2-.2-2.7-1.9-1.8q.8.6 1.9 1.8m1.4-10.5 1.3-1.3c-1.1-.3-.4-3.3-2.9-1.9zm.4 15.1-.6-.3-.3.3.6.3zm5.2-6.6c-.6 2.3-2.4 4.4-1.2 7 2.1-2.1 1.4-4.6 1.2-7m5.9-18c.2-1.6 1.8-3.1.5-5.1-1.5 3.3-4.3 5.6-5.4 9.1-3.1 2.2-3.8 6.3-6.9 7.9l3 9.8c.6-1.2 1.4-2.1 1.4-3 .2-3.9 2.2-7.3 3.3-10.9.8-2.8 1.2-6 4.1-7.8m-1.3 27.7-.6.3.3 2.7 1.2-1.2zm-1.5-14.9-.6-.3-.3.3.6.3zm2.5 18.6-1.9.3c.8 2.4-1.1 5.2 1.8 7.1zm1.8 12.7-1.2-4.1c-.4 5-.4 5 .2 5.1zm-.6 6.4h.8l-.2-3.3h-.6zm2.5 10.7q-.4-1.6-1.2-3.2l-.7.2 1.3 6.9h.7q.1-2-.1-3.9m-1.7-43 .3.3.6-.3-.3-.3zm.6-2.4.3-.3-.6-.3-.3.3q.5.1.6.3m.3 9.2v2.8l.2 3.7q1.2-3.3-.2-6.5m-.8-1.4q.1.3.8.5 0-.4-.3-.6zm.3-2.3.6-.3-.2-1.3-.7.4q0 .6.3 1.2m1.8 25.9 1.2-1.6c-1.3-1.3-.6-2.9-.6-4.3v-9q-1.7 1.8-1.8 2.2c-.2 4.2 1 8.3 1.2 12.7m.7 6.1h.8l-.3-2.4h-.5zm.6 7.8.6.6.3-.3q.1-.7-.1-1.2c-.2-.5-.8-.2-1.2-.3zm.8 1.6h-.6v3.3h.8zm1 4.6c-2.2.4-2.2.7 0 7.4zm.9-13.3-.3-.6-.3.3.3.6q.2 0 .3-.3m-.6-10.7c-.5-2.6-.1-5.3-.1-8.3l-1.8.3c1.7 2.5.7 5.1.8 7.5.1 2.6.3 5.2 1.5 7.6.5-2.3 0-4.6-.4-7.1m.4-55.5.6-.3-.4-2.7-.9.9zm.5 6.2.6.8.5-1.2-.8-.3zm.5-1.8.3-.3-.3-.6-.3.3zm.4 68.6v5.2c.5-1.3 1.2-2.8 0-5.2m1.7-8.1-.9-1.1v-8c0-.4-.6-.8-.9-1.1v-3.6l-.2-3.7q-1.3 3.7.2 7.3v8c0 .4.6.8 1.2 3.3zm.7 11h-.8l.2 3.3h.6zm.2-70.4-1.3-.1.9 4.5.4-.1zm-1.2-1.1.3-.3-.3-.6-.3.3zm1.9 89.3-.3-.6-.3.3.3.6zm-.1-7.9v-3.7h-.5v3.7zm2.1.4-.2-1.3-.7.4.3 1.2zm0-26.9c-.1-1.4-1-1.2-1.5-.7l.9 7.9.6-.1q.2-3.6 0-7.1m-1.2-56.9 1.8 4.6c.4-2.8.4-2.8-1.8-4.6m2.8 91.6h-.5v3.7h.5zm.2-15.1-.6-.3-.3.3.6.3zm.2-67.2q0-1.4-.3-2.6l-.5.1v5.2h.8zm1.8 26.1-.3-.3-.6.3.3.3zm.9-16.5-.2-1.3-.7.4.3 1.2zm1.1 69.9q-.4 1.7-.4 3.4v9.5l.4.7.3.3.8.8c1.2-5-.4-9.8-1.1-14.7m.5-14.4c-.5 1.4-1.2 2.9 0 5.2zm-.8-80.6c-3.9 2.4-3.9 2.4-2.9 6.4.4-1.1.6-2.7 1.3-3.1 1.6-.6 2.1-1.4 1.6-3.3m-2.5-21.4.3.3.6-.3-.3-.3q-.3 0-.6.3m-4.3 17.9c-1.6 1.3-1.5 4-3.9 3.7v4.5c2.1-.8 4-1.9 6.3-.1-.4-2.6-.1-4.7 2.9-5-1.1-3.4-4-1.5-5.3-3.1M247 99l.3-.6-.3-.3-.3.6q.2 0 .3.3m2.6-2.9h.5v-2.4h-.8zm-1.8-35.5h.5v-1.8h-.5zm-7.7 20.9c-2-.1-2.6 2.7-4.8 2-.3-.1-1.1.6-1.3 1.1-1.1 3.2-3.9 4.4-7.4 5.9l3.5 1.1-1.5 1.1q-.3.7-.3 1.3l3-.6c-.9 1.1-1.8 1.6-2.1 2.7l4.5-.9-.7.9-.9.9h3.3l-3.5 2.3 4.2 1.6q.2.2.3.9l-1.9 2.3 3.3 5.5q0-2 1.9-3c1.3-.8 1.5-3.1 2.7-4.2 2.7-2.6 4-6 5.3-9.2 1.1-2.8 3.6-5.4 2.2-8.9-2.7-.8-.9 1.9-1.9 2.5l-1.3-.7c-.4 1.8-.4 3.8-3 3.6v-3.9l1.4 1.1 1.7-4.6 1.5 1.3v-2.5q.2-1.1.7-2.2l-1.7-.5q1.1-.9 1.7-1.8c.2-.3-.2-1-.3-1.5q-.7 0-1.2.4l-1.3 2.3-1.8-1-1.1 1c-1.5.9-1 3.8-3.2 3.7m1-7.7.3 4.5c2.1-2.9 2.1-2.9-.3-4.5m-31.9-22 .6.3.3-.3-.6-.3zm-18.9-4.6c-2.4-1-2.1 0-1.9 1.2zm6.9.3-1.2-1.9c-1 2.4.1 2.1 1.2 1.9m6.4 3.2-.3-.3-.3.6.3.3zM199 41l3 4.8-2-.6h-.7v2.1q2 .5 4.6 1.5l-.1.1.5.4-.2-.5.5.2-.4-.5-.2.2-.2-.2c-.1-.8.4-1.9-1.1-1.9-.2 0-.5-.6-.7-.9 1.4-2.2 1.2-2.7-3-4.7m-7.8-2.8.3.3.3-.6-.3-.3zm-1.9 1.5 1.6 3.3-2.7.2.1 2.6 2.6-1c.3 1.9 1.3 2.5 1.5 1.8.3-2.1 1.7-1.5 2.9-1.7a2 2 0 0 0 1.1-.9c.5-1.7.9 0 1.4 0l1.7-.1c-.8-.7-1.3-1.6-1.7-1.6-1.6.3-2.4-.9-3.4-1.7-1.2-.8-3 .3-4.1-1.1-.1-.2-.8.1-1 .2m-.1-1.7c0-2-.2-2.7-1.9-1.8zm-10.3 31.2-.3-.6-.3.3.3.6zm7.7-19 .2.2.4-.5q0-.3-.6.3m.3-.7-.5.4.2.2zm-2.2-7.7.7.3.8-.6-1.2-.5zm-4.7 1.9h1.8v-.5H180zm-1.7 8.9-3.7.8.1.6h5.4v1.8q3.8-1.6 6.4-5.5h-1.8l.6-1c.5-.8.7-1.5-.6-1.7.4-1.2 3.1-1.5 1.7-3.3-1.5.3-3.1.2-4.2.9-1.2.8-2.8.3-3.9 1.8-.7 1-2.4 1.3-3.4 1.9V52zm-1.5 5.1c.5-.8 2-1.1.9-2.9l-4.1 1.3c.3 2.3 2.6 0 3.2 1.6m-1.3 9.1c0 .8 0 1.4-.5 2.9l-.1-.2-.1.6-.6 1.6 1-.9q0-.5-.3-.9l.4-.5c1.1-1.1 1.1-1.1.2-2.6m0 20.7.3.3.3-.6-.3-.3zm-9.3-2-.3-.3-.6.3.3.3zm-12.6 12.6.3.6.3-.3-.3-.6zm-49.4 28.6 2.3-.7 1.4-.8c-.3-.7-.5-1.4-2.2-1.3q0 .3-.9.9-1.3.7-.6 1.9M59 130.8c.4-2.3.8-4.2-2.1-5-1.1 2.5.8 3.4 2.1 5m180.1 84.1-.4 1.6h2.5a8 8 0 0 1-1.1-2.9c-.3-2-1-3.9-1.6-6.7l-.6 4.5-1.6-.9c-.5 2.2 2 2.6 2.8 4.4m8.1-9.3v-1.4zM82.9 147.9c-5.4 0-10.6 1.4-16.1.9-1.1-.1-2.7.2-3.2.9-1.8 2.7-5.1.9-7.2 2.7-2.4-.7-3.5 1.3-5 2.6h-5.9l-3.6-6.5-2.4 1.8c-2.4-1-.9-3.2-1.6-5.4l-5.4 3.8-3.4-3.1-.1-2.7-3.6 3.5c-2.5-3.2-2.5-3.3-.2-7.1l-4.5-3.9.7-4.1c-2-.7-2.6 3.5-4.9 1.3q.4-.8.6-2v-1.8q.1-1.8 1-3.2 1-.7 2.8-1.1c-2-2.9-.5-5 1.5-7.2q3.3-3.6 5.9-7.5c1.3-1.9 3.2-3.3 4.7-4.8h4.1l.3 3 2.3-3h8.5q-.1.9.4 1.9c-3.3-.9-4 1.2-5 3.8 2.1-.9 3.1-2.6 5-3.8.8-.2 2 .2 2.9-1.1.7 1 1.1 2.4 1.9 2.7.9.3 2.1-.4 3.4-.7l1.3 2.3q-2.4.3-1.6 3.1H60l-.2 3.6c-.9-1.1-1.4-1.4-1.6-1.9-.7-1.4-1.3-.8-2.3.2l-2.8-3.6c.9.9.9.9 2.2-.9-.8 0-1.5 0-2.2.9-.5.6-1.6.3-3-.1v4.9q-3.9-1.9-7.6-.9c1.3 3.2 3.9 3.9 6.8 4.7l-3.8 1.8v3.3c-1 0-1.6-1.7-3.1-.3-.9.8-2.6.8-4.5 1.3.7-1.5-.4-2.7.8-4 .7-.7.7-1.9-.5-2.7l-2.9 2q-.2-.8 0-1.2c1.6-1.8.1-1.5-.9-1.5.2-1.9 2.3-.1 2.8-1.5v-1.7c.9-.4 2.2-1.5 2.6-1.2 1.4 1.1 2.6-.2 3.9-.1q2.2.2 4.5 0 .4 0 .8-.4l.2-2.7 2.8-1.8-1.4-1.4c-3.7 2.2-3.7 2.2-3.6 5.4l-2.2-2c-1.4.4-2.6 2-4 .4.2-2.2 4-2.8 2.3-5.9-.7.2-1.8.1-2.3.6q-1.5 1.8-2.8 3.8-.5.7-1.3 1.4l-1.8-6.2c-2.3 1.4-3.5 3.1-5.2 4.7 3 1 5.4 2.1 5.5 5.6l-3.6 1.1q0-.4.3-.7 1.2-1.2-.4-1.1h-1.7l2.1-2.2c-2.4-1.2-4-.5-5.3 1.2q-.4.7-.4 1.5l1.7.3q-1.3 1.4-2.5 3-.1.6.2 1.5c.5-.2 1.3-.3 1.4-.6q.5-2.3 2.8-2.1c.2.9-1.9 1.4-.7 2.5.9.8 1.4-.3 2.1-.6h1.3l-1.8 2.4c1.6.8 3.1.2 4.5-.6v4.8l-1.3-1.1c-1.4-1.9-1.4-1.9-3.8-1q-.6.2-1.4 0 .3-1.9-1.5-2.6l-1.2 1.1.8 1.6c-.7-.2-1.6-.4-1.8-.9q-.8-2.7-1.3-5.7c-3.1 3.3-3.2 4.8-.5 8.3h-4.6l-1.2 5.6 4.8-3v6.3q0 2 2 .7v-6l3.7 3.3 2-3.1h-3.8l-1.3-3q1.1-1.2 1.9-2.4l1.8-.1c-.3 1.5-3.1 2.3-1.7 4.2l6.4 1.7-2.5 1.5c-1.8 1.1-1.4 2.9-1.2 4.5s2.1 2.6 4.3 1.5c.3.3-1.2.4-.7 1.7.1.3.7.6 1 .5 1.5-.4.7-1.5-.3-2.2-.4-.5.1-1.5.1-2.4q-.1-1.2-.9-2.6c2.7.7 4.8 2.2 7.7 2.7l-2.1-4.7c3.4.8 5-1.7 7-2.7l-.7-2.6 1.8.9 2.6-2.8c2.8.9 1.7 2.9 2.2 4.7H54q-2.2 2.3-4.6 4.5h-.9q.2-1 0-1.3c-1.7-1.4-.7-2.8.5-3.1 2.5-.5 1-1.8 1.4-3.3l-3.7 3.6v4.1c-.5 0-1.2-.2-1.3 0-1.3 2.3-4.3 3.3-4.3 6.4-2-1-2.7-3.4-5.4-3.8.5 1.9-.7 3.7 1.1 5.3-1.9-.2-2.5 2.3-5.1 3q.6.2.4.9c-.1.6-.5 1.1-1.1 2.6l5.3-3.2 3 1 .3 3.2 3.3-4.1.2 3 4 1.6-2.2-5.1q1.5-.6 2.9-.7 2 0 2.6-1.9c1.2.5 1.3 2.1 2.7 2.4v1.2c-1.8-1.6-3.2-.2-4.9.6l1.2 1.7c-.5 1-2.4 1.4-1.5 3.1l2.5-1.8.2 1.6 1.2-.7h.4q1.2 1.9 3.5 1.8 3.3 0 6.1-1.8c.9-.7 2.3-1.9 2.7-1.6 1.1.6 1.5.8 2.7 0 .8-.6 2.2-.4 3.3-.5v-3.4c2.1.6 0 2.8 1.4 3.6 1.2-.9 2-2.1 1-3.4-.8-1-.4-2-.6-3 2.6 1.5 1.3 4.4 2.2 6.7 2.5-1.2 4.7-2.5 7.3-1.2q.7.3 1.3 0c1.7-1.2 3.7-.7 5.6-.9s3.7-.5 5.6-.9c2.9-.5 5.6-2.2 8.8-2 .3 0 .6-.7 1-.9q.7-.6 1.5-.7c3.8-.1 6.9-2.8 10.7-2.8q.6-.1 1-.7c1-1.7 2.8-2 4.4-2.5 3.1-1.1 6.1-2.1 8.9-3.9l5.2-2.9c3-2 6.6-3.2 7.8-7.1q2.3 1.6 4.5.4 1.2-.6 2.5-.4 2.1.2 1.8 2.5a8 8 0 0 0-5.4-.5c.5 1.1 1.7.6 2.1 2.1.5 1.8 1.8-1 2.9-.4l1.7 2-.3.3.5.4q.2 0-.1-.5.3 0 0-.3 0-.8.3-.9 2.9 1 4 4.4-1.8-.3-3.1-.8c-1.9-.7-1.3 1.6-2.8 2l-3.9-2.9q-1.5-1.6-3.1-.5v14.5l6.3-1.6 6.4-2.2c-.7 1.9-2.4 2.3-4 2.7-2.6.6-5.1 1.8-7.8 1.9-.6 0-1.2.8-1.7 1.2 2 1.6-.7 3-.2 4.6.3 1 1.6 2.2.1 3.3-.1 0 .1.7.3.7q.8.2 1.2 0l3.4-3.4h3.3q-.2.7-.7 1.1c-3.5 1.9-5.7 5.1-8.6 7.6l3 1.4 6.2-5.5v1.8c-.7.8-1.2 2-2.1 2.4-1.6.8-3 1.5-3.4 3.5l-1.2 4.9-5.5.2c2.1 1.6 1 3.5 1.2 5.3q-.3 0-.7.3l.1.6q.3-.2.5-.6c.8.1 1.6.6 2.3.6.8 0 1.5-.6 2.3-.8s.9 1.2 2.1.3c.9-.7 2.7-.1 4.2-.1v2.6c-1.4.1-.8 1.1-.9 1.8-1.3-.9-2.4-1.3-3.5.3q-.4.4-1 .6c-.1-.8.4-2-1.1-1.8l-3.6.9-3.4.3q-.6.2-1.1.6c-.1-1.4-1.1-.8-1.8-.9l1.2-.9 2.7-1.2c-1-2.4-1.8-4.6-4.3-5.3q-.4.6-.4.9l.7 1.5c-1.6 1.3-1.6 1.3-5.2 1.5l-.3 1.3c-1 .1-1.9-1.3-3.2.2a17 17 0 0 1-5.7 3.7c-2.8 1.1-3.6 3.6-4.6 5.9q-.5 1.6-.7 3.3c-.2 1.7-.4 2.2-.7 3.5l-1.6-.9v1.9c-.6.7-1.5 1.4-1.7 2.2q-.8 3.6-1 7.3-.2 6.2-.1 12.2.1 1-.8 2V208l-.7-.1-.6 2.4-1.7-.9-.8.5q-.7 1.8-.9 3.7l-.1 3.5h-.9c-.2-.6.2-1.5-.5-2.2l-.7 2.2h-6q.1-.6.8-.8 0-3.5 1.9-6.5c.5-.7.1-2-.4-3.1l-1.9 5.9c-1.1-4.7 1.2-7.9 3.3-11.3q0 1-.3 2.9l-.1-.3q-.3 1-.1 1.1.4.6.5.2l-.2-.6c1.6-2 1.4-3.8 2.2-5s1.8-2.6 1.7-4.4q0-.8.7-1.5c2.6-2.6 3.8-5.9 4.9-9.4.9-2.6 2.6-5 4.1-7.7 1.7.2 3.3-.6 5-1.4l10-4.6v-4.9c0-1.4-.1-2.7 1.2-3.6.4-.3.6-1.3.6-2v-8.6c2.7-2.6 5.1-5.4 8.7-6.9 1.1-.5 2.3-1.7.6-3.2-.4-.3 0-1.4-.8-2.3l-1.6 3.5-.4.2q-1.8 0-3.5-.3c-2.6-.7-2.6-.7-3.9 1.6l-1.7 2.6c-1.9-1.2-3.1-2.9-4.6-4.3l-4.3-4.3c-1.3.8-2.9 1.4-3.9 2.5-1.6 1.7-3.3 2.1-5.5 2.4-2.1.3-4.3 1.4-6.4 2.1-1.7.6-4 0-5.1 2.1-.1.2-1 .3-1.3.1-1.5-1.2-2.8-.3-4.3 0s-3.1.1-4.7.8c-.7.4-3.2-.2-5.5-.2m66.8 25.1v.5h2.4l-.1-.8zm-7.4 1.3h1.8v-.5h-1.8zm-1.8-26.7.6.3.3-.3-.6-.3zm-.8 6.4q.6 1 1.7 1.3 1.2.2 2.6.1c.2-4 .2-4-1.7-6.4l-2.1 3.5c-.2.5-.7 1.2-.5 1.5m-4.8 14.3c-1.1-.2-2.1-.2-1.8-1.6q.3-1.4-1.1-1.4c-1.1.2-.8 1.2-.7 1.8.3 1.1 1.1 1.9.9 3.2-.1.6 1.3.7 1.7 0q.6-.8 1-2m5.4 1.4a14 14 0 0 0-7.4-7c1.1 4.4 5.2 4.6 7.4 7m-.7-11.7c-1.6.1-2.5-2-2.5-5.1l1.3 3.2v-7c-2-.9-1.3 1.2-2.1 1.6l-2.8 1.5c3.4 3.1-.5 6.3.6 9.2l5.1 2.4c1.8 1 3.4 2.2 5.6 1.3v-2.3c-3.6.2-5.8-2.6-9.6-3.3 2.8-1.2 4.7-.2 6.2 1.1s2.8 1.4 4.8.7c-2.4-1.1-3.7-3.4-6.6-3.3m-3.6-27.7c-1 1.7-1.8 3.6-4.9 7l-.8 2.9q1.7-.6 2-1c.7-1.5.9-3.3 2.8-4l-1.9 5.3h5.3c.5-1-.3-2.6 1.3-3.1s-.2-2.8 3.9-2l-.9-1q-.5 0-.9.3l-.4-.3c-.1-2.2 1.8-3.5 2.3-5.4l.6-3.4-2.1 1.2-5.3 5.7.7-2.9q-1.3.2-1.7.7m-13.5 6.3 6.7 6.8 1.7-2.3c-1.1-.2-1.8-.3-.5-3.1l-2.6 2.5 1.8-3.1c.4-.9 1.7-.9 1.8-2.2.1-.9 1.1-1.7 2-3.1-4.1 1.8-8 2.4-10.9 4.5m-10.3 3.8h1.8v-.5h-1.8zM41 116.5c-.2-1.1-1.1-.6-1.8-.7l-.8.3.3.6 1.8.9q.5-.6.5-1.1m-13.7 21h1.8v-.5h-1.8zm-1.5-2.7.8-.3-.5-1.2-.6.8q0 .3.3.7m3.5 4.2c-2.7.8-2.7.8-3.4 3.5a5 5 0 0 0 3.4-3.5m2.4 4.3q-.1.2.2 0zl.2-.1q.5-.3.7-1c.1-.8-.8-1.8-1.4-3.1-.1 2.1-2.2 3.3.5 4.2m14.5 5.4h-.5v1.8h.5zm1.9 2.5-.3-.6-.3.3.3.6zm2.7 1.4h-2.5v.4q1.2.3 2.5-.4m1.9-.8s-.1-.1-.5.5q.4-.2.5-.5m44.8 65.1q.3-1.5.8-2.8c.4-1.2-.4-1.6-1.4-1.2l-1.1 3.8-.1.4zm-2.6-109.2c-2.3-.9-2.5-3-2.8-5 3.6-3.6 7.4-6.9 10.6-10.8l4-4.7q2-2.3 3.8-4.8c1-1.6 3.1-1.8 4-3.7.9-1.8 2.9-3.1 4.4-4.6l4.2-4.2c1.7-1.7 3.8-3.2 5.1-5.2q4.8-6.8 10.7-12.4l2.6-3c-2.2-.2-3 2.3-4.9 2.5-1.6.1-2.2 1.1-3.2 2.2q-4.7 5.4-9.6 10.6l-1.3 1.3c-3.1 4.8-7.1 8.9-10.8 13.2-6.7 7.7-14.8 14.1-20.9 22.1l-2.3-.8-.5.6 4 6.7-2.8.9v1.2c1.7.4 2.5 2.7 4.5 2.4l-1.6-2.1q-.2-.5-.2-1.2l1.5-.1q.6.2 1.1.6.5-.8.4-1.7m26.5 108.9h1.7l-.2-1.6-.9-5 .1-2.5h1.7v-2.7h-2.7q-.2 4.8 0 9.5zm-2.3 0c-.4-1.6-.4-3.4-1.6-4.7q0 2.4.4 4.7zm13.2-129.2-.8.3v1.8q1-.3 1.4-1c.9-2.3 2.8-3.7 4.5-5.3 2.4-2.2 5.7-3.3 6.9-6.8.4-1.3 1.8-2.2 2.8-3.3l-1.2-.7-5.6 7q-1.4 1.2-3.1 2.2l-5.7 5.2zm8.3 10.4q.5 0 .8-.3c2.3-4 5.5-7.1 8.4-10.6l-.8-.6.8-.3v-1.8q-1 .3-1.4 1c-2.4 4.6-6 8.2-9.6 11.8.7 0 1.7-.6 1.8.8m22.6 118.4v-4.1c-.1-1.2.5-2.5-.6-3.9l-1.2 8zm-20.8-31.1c-.9 1.3-2.3 2.9-2 4.9 1.9-.3 2.1-2.3 2.9-3.5 1.9-2.9 3.7-5.9 4.5-9.3-3 1.9-3.6 5.3-5.4 7.9M156.2 76l1.5-2c.6-.6 1.8-.7 2.1-1.3q.7-2 1-4.1-1 .7-1.8 1.7a7 7 0 0 1-5.7 4.2l1.8.8-.7 2.5zm-40.5 130.5-.9-2.8V201l-.3-2.5c-.8 2.6-.4 5.3-1.5 7.8-.3.7-1 2.4.8 3q-.2-2.3 1.9-2.8m-11.6-88a5 5 0 0 1-2.4 2.7l-1.4-.6 1.4 4.2c1.4-3.2 3.9-4.9 4.1-7.9-.5.5-1.5.9-1.7 1.6m9.7 98.2h1.3l-.6-7.5h-.6v7.3zm13.3-126.9.8-.3v-1.8c-2.4 1.5-3.3 4.1-4.6 6.4 2.5 0 3.4-2 4.6-3.6zm9 110.1c.1.2.8.1 1.2.2l1.5-8.1c-2 2.9-4 4.8-2.7 7.9m13.8-134.6c-.9.9-2.3 1.5-1.9 3.2h1.3l4.2-5.4c-1.9-.4-2.5 1.3-3.6 2.2m17 129.8.8 3.7 1.3 3.1.5-.2-1.2-8.1c-.5.6-1.4 1.1-1.4 1.5M94 112.3l-2.2 3.4 4-.6q.4-2.3-1.8-2.8m20.8-12.4c1.2.6 2.6.7 2 2.3 1.5-.8 2.9-1.6 2.7-3.6zm2.7 112c-.1-1.8.3-3.7-.2-5.5h-1.6q-.2 3.2 1.8 5.5m2.1-113.3c1.6-1.2 3.7-2.1 3.7-4.6-1.7 1.3-3.7 2.1-3.7 4.6m-11.9 1.8L104 104c3.6-.6 3.6-.6 3.7-3.6m25.4 78.7-1.8 2.4c1.5-.2 3 .1 3.6-1.5-.6-.1-1.7.5-1.8-.9m-21.7-69.5c1.5-.8 2.9-1.6 2.7-3.6-1.4.7-2.9 1.6-2.7 3.6m3.4 82.2v2.7l.2 2.8h.4v-5.4zm52.4-131.4c-1.5.8-2.9 1.6-2.7 3.6 1.4-.8 2.8-1.6 2.7-3.6m-12.8 17.3c-1.5.8-2.9 1.6-2.7 3.6 1.4-.7 2.8-1.6 2.7-3.6m-21 2.7 2.7-2.7c-2 .2-2.5.7-2.7 2.7m21.9-15.5-2.7 2.7c2-.1 2.5-.6 2.7-2.7m-30.7 147v-4.5q-1.4 2.3 0 4.5M97.7 110.5h-1.8q-.3 2.2 1.8 2.7zM130.6 84q2.1-.6 1.8-2.7-2 .6-1.8 2.7m-20.1 26.5q-2.1.6-1.8 2.7 2-.5 1.8-2.7m62.8 78.7q-.3 2.2 1.8 2.7.2-2-1.8-2.7M135.2 70.4q2.1-.6 1.8-2.7-2 .5-1.8 2.7M175.1 192q-.3 2.2 1.8 2.7.3-2.2-1.8-2.7m-61.2-91.6-3.3.2v.6h3.3q.1-.3 0-.8m5.3 94.2c-.2 0-.7.7-.7.8q.5.6 1.1.9.2 0 1.2-1.1zM127 81.3q2.1-.6 1.8-2.7-2.1.5-1.8 2.7m35.6-15.4q-2.1.6-1.8 2.7 2.1-.6 1.8-2.7M106.8 116q2.1-.6 1.8-2.7-2.1.5-1.8 2.7m29.3-38.3q2.2.3 2.7-1.8-2.1-.4-2.7 1.8m33.5 128.4q-.3.5-1.3 1.4c3.1.1 1.9-1.5 1.6-2.7q0 .7-.3 1.3m-33.7-27.9.9-1.8q-2.2-.3-2.7 1.8zm7.5-106q-2.2-.3-2.7 1.8 2.2.3 2.7-1.8m11-10.9v.9q2.2.3 2.7-1.8zm-18.5 116.9-.9 1.8q2.2.3 2.7-1.8zm-3.4-103.3q2.1-.6 1.8-2.7-2.2.5-1.8 2.7m-3.8 32q-2.1.6-1.8 2.7 2.1-.5 1.8-2.7m1-21.9q-2.1.6-1.8 2.7 2-.6 1.8-2.7m14.2 126.1q-.5.2-.8.8c-.1 1.5 1.1.9 1.8 1-.1-.7.5-1.9-1-1.8m17.9-177.2v.9c.9-.3 2.3.9 2.7-.9zm-37 179.2.3 2.4h.5v-2.4zm13.8-9.3-.3-2.7-.6.1.1 2.7zm24.9-.8c.6-1.3.8-2.3-1-1.8zm-25.1.8.3 2.7.6-.1-.1-2.7zm26.9-150.5c-1.8-.7-1.8.4-1.7 2.6.8-1.2 1.3-1.8 1.7-2.6m-2 5.2h-2.5v1.8zm-61.1 47.4 1.8-1.8q-2.1-.4-1.8 1.8m-5.4.9c.9-.3 2.3.9 2.7-.9-.9.3-2.3-.8-2.7.9m2.6 8-1.7-2.7c-.1 2.3 0 3.4 1.7 2.7m42.2 98.3-.3.7.6.8.5-1.2zM166.4 33c.7-.1 1.7.5 1.8-.9-.7.1-1.8-.5-1.8.9m31-.9c-.7.1-1.7-.5-1.8.9.7-.1 1.7.5 1.8-.9m-32.9 1.8c.7-.1 1.7.5 1.8-.9-.6.1-1.7-.5-1.8.9m16.3 2.7 1.1-.9-2.2.3q1 .7 1.1.6m-15.4 1.8c.7-.1 1.7.5 1.8-.9-.6.2-1.7-.4-1.8.9m-4.9 158 .9 1.1-.3-2.2q-.7.9-.6 1.1M149.9 46.6c1.4-.1.8-1.1.9-1.8-1.4.1-.8 1.1-.9 1.8m-31.7 150.9-.6.8q0 .4.3.7l.8-.3zm44.1 1-.9-1.1.3 2.2zM149 47.5c-1.4.1-.8 1.1-.9 1.8 1.3 0 .7-1.1.9-1.8m2.6 33.9c-1.4.1-.8 1.1-.9 1.8 1.4-.1.8-1.1.9-1.8m-30.4 118.2-.6-.3-.3 1.2.7.5zm25-147.5c1.4-.1.8-1.1.9-1.8-1.3.1-.7 1.1-.9 1.8m-28.1 148.1-.6.8q0 .3.3.7l.8-.3zm26.3-145.4c1.4-.1.8-1.1.9-1.8-1.4.1-.8 1.2-.9 1.8m-1.9 2.8c1.4-.1.8-1.1.9-1.8-1.3 0-.7 1.1-.9 1.8m-8.3 32.9c1.4-.1.8-1.1.9-1.8-1.3 0-.7 1.1-.9 1.8m23.9-28.7.4 1.3.6-2.2zm-19.2.9.4 1.3.6-2.3zm16.4 2.2c.7-.1 1.7.5 1.8-.9-.6.1-1.7-.4-1.8.9m2.8 119.9-.3.7.6.8.5-1.2zM148 68.6c-.7.1-1.7-.5-1.8.9.7-.2 1.7.4 1.8-.9m24.4 118.8c.1.7-.5 1.7.9 1.8-.2-.7.4-1.7-.9-1.8M134.3 72.2c1.4-.1.8-1.1.9-1.8-1.4 0-.8 1.1-.9 1.8m30.1 116.1v1.8h.5v-1.8zm-24.9 3.6c1.4-.1.8-1.1.9-1.8-1.4 0-.8 1.1-.9 1.8m-30-74.1c-1.4.1-.8 1.1-.9 1.8 1.4 0 .8-1.1.9-1.8m2.8-3.6c-1.4.1-.8 1.1-.9 1.8 1.3-.1.7-1.2.9-1.8m10.9.9v-1.8c-1.4.1-.8 1.1-.9 1.8zm-10-1.9c1.4-.1.8-1.1.9-1.8-1.4.1-.8 1.2-.9 1.8m10-6.3c-1.4.1-.8 1.1-.9 1.8 1.4-.1.8-1.1.9-1.8m-26.4-.1c-.7.1-1.7-.5-1.8.9.6-.1 1.7.5 1.8-.9m22.8-2.7c-1.4.1-.8 1.1-.9 1.8 1.4 0 .8-1.1.9-1.8m-3.6-.9c-1.4.1-.8 1.1-.9 1.8 1.3 0 .7-1.1.9-1.8m6.3-1.8c1.4-.1.8-1.1.9-1.8-1.3 0-.7 1.1-.9 1.8m3.7-5.5c-1.4.1-.8 1.1-.9 1.8 1.4 0 .8-1.1.9-1.8m4.6.4-.4-1.3-.6 2.2zm0-1.3c1.4-.1.8-1.1.9-1.8-1.4.1-.8 1.1-.9 1.8m-1.8-1.8c1.4-.1.8-1.1.9-1.8-1.4 0-.8 1.1-.9 1.8m34.9 92.4-.3.6.3.3.3-.6zm5.5 1.8-.3.6.3.3.3-.6zm-29.7 4.5-.9.9zm26 .1-.3.6.3.3.3-.6zm1.4 2.7q0-.3-.3-.7l-.6.1.4.5zm10.4 0-.4.4.5.4.3-.3zm-56.6 8.1-.3.3.3.6.3-.3zm47.1.6.3.3.6-.3-.3-.3zm-3.7.9-.6-.3-.3.3.6.3zm-24.2 3.1-.3.6.3.3.3-.6zm.4 4.1.3.3.6-.3-.3-.3zm-14.4-63 .3.3.6-.3-.3-.3q-.3 0-.6.3m-16.2 65.2.3-.3-.3-.6-.3.3zm35.6-.8-.4.4.5.4.3-.3zm53-186.7.3.3.6-.3-.3-.3zm-10 5.9q-.4 0-.7.3l.1.6.5-.4zm2.2 0-.4.4.5.4.3-.3zm-32.4 1.3-.6-.3-.3.3.6.3zm11.6 2.5-.6.3.3.3.6-.3zm-2.4 1.2.4.4.4-.5-.3-.3zm-1.9 1.3-.9.9q.5-.3.9-.9m-.9 1q-.3 0-.7.3l.1.6.5-.4zm-23.3.8-.3.6.3.3.3-.6zm31.5 3.7.9-.9zm-10 .5-.6-.3-.3.3.6.3zm10-.5-.9.9q.5-.3.9-.9m-1.8 1.9.9-.9zm0 0-.9.9zM149 47.5l.9-.9zm21-.8q-.3 0-.7.3l.1.6.5-.4zm-30.9 1.1.3.6.3-.3-.3-.6zm29 1.2.4.4.4-.5-.3-.3zm-21 1.3.9-.9zm20.1 0 .9-.9zm0 0-.9.9zm2.8.5.4.4.4-.5-.3-.3zm-62.3 69.7-.9.9zm.9-.9-.9.9zm-9.1 0 .9.9zm17.3-.4-.6-.3-.3.3.6.3zm-17.3.4q0-.3-.3-.7l-.6.1.4.5zm66.8-68.4q-.3 0-.7.3l.1.6.5-.4zm3.7 0-.9.9q.5-.3.9-.9M145.3 53l.9-.9zm-35.8 64.8.9-.9zm-10.9-.5-.6-.3-.3.3.6.3zm69.5-64.2.9-.9zm0 0-.9.9zm-.9.9-.9.9zm-40.6.8-.3.6.3.3.3-.6zm17.8 0-.9.9zm-34 62.1.9-.9zm53.2-62-.9.9zm-57.7 62 .9-.9zm12.8-1.4-.6-.3-.3.3.6.3zm46.7-59.7.9-.9zM96.2 115l-.4.4.5.4.3-.3zm60.7-59-.6.3.3.3.6-.3zm4.8.7.9-.9zm2.8 0 .9-.9zm-3.7.9.9-.9zm3.7-.9q-.3 0-.7.3l.1.6.5-.4zm-22 .9q-.3 0-.7.3l.1.6.5-.4zm18.3 0-.8.3.8.6zm-48.5 56.6.9-.9zm43-55.2-.6-.3-.3.3.6.3zm-31.2 53.4-.9.9zm34-53.4.4.4.4-.5-.3-.3zm-33 52.4-.9.9q.5-.3.9-.9m-4.6 0q-.3 0-.7.3l.1.6.5-.4zm20.2-51.5.4.4.4-.5-.3-.3zm17.4-.5-.9.9zm-17.4.9q-.3 0-.7.3l.1.6.5-.4zm13.7 1q0-.4-.3-.7l-.6.1.4.5zm-29.3 50.1.9-.9zm-4.6-.4.4.4.4-.5-.3-.3zm40.3-50.6q-.3 0-.7.3l.1.6.5-.4zm-6.4 1.8-.9.9zm-40.3 49.2.9-.9zm43-47.4.9-.9zm-18.2 0q-.3 0-.7.3l.1.6.5-.4zm25.6 0-.9.9q.3-.5.9-.9m-37.6 45.6-.9.9zm-11.9.9.9-.9zm-3.6-.9-.9.9zm-12.8 0-.9.9zm64-43.7.9-.9zm-66.8 44.6-.9-.9zm26.5-1.8q-.3 0-.7.3l.1.6.5-.4zm-6.4.5.4.4.4-.5-.3-.3zm-17.3.4.9-.9zm.9-1 .9-.9zm-10 0q0-.4-.3-.7l-.6.1.4.5zM137 67.2l.4.4.4-.5-.3-.3zm15.6.5-.9.9zm-34.8 39.2q-.4 0-.7.3l.1.6.5-.4zm-16.5-.1-.9.9zm28.3-.8-.9.9zm-13.1-36.6.3-.6-.3-.3-.3.6zm6.7 37.1.4.4.4-.5-.3-.3zm-4.5-.6-.9.9q.5-.3.9-.9m33-37.3-.9.9zm-5.5.9q-.3 0-.7.3l.1.6.5-.4zm4.5 0q-.3 0-.7.3l.1.6.5-.4zm-7.3 2.3.4.4.4-.5-.3-.3zm4.6 0 .4.4.4-.5-.3-.3zm-17.4 33.3-.9.9zm-16.5.8.9-.9zm-14.6-.4.4.4.4-.5-.3-.3zm47.6-32.4.9-.9zm-7.3 1.8.9-.9zm-9.2 30.2.9-.9zm19.7-29.2-.3.3.3.6.3-.3zm-17.8-1-.9.9zm7.3 0-.9.9zm12.7.5-.6-.3-.3.3.6.3zm-21 .4-.9.9zm0 28.4.9-.9zm-1.8-26.5.9-.9zm-4.4 25.8.3.6.3-.3-.3-.6q-.4.2-.3.3m20.9-26.2.4.4.4-.5-.3-.3zm-25.7 25.9-.9.9zm8.3-24.6.9-.9zm17.4-.9q-.3 0-.7.3l.1.6.5-.4zm-13.8 25.5.9-.9zm-11-.9-.9.9zm12-21.9-.9.9zM116 103.2l.9-.9zm10-21 .9-.9q-.3.5-.9.9m7.3 20.1.9-.9zm-6.8-.9-.3.6.3.3.3-.6zm-5.1.9.9-.9zm-11.8-.5-.6-.3-.3.3.6.3zM126 82.2l-.9.9zm9.1 18.3-.9.9zm3.5 76.8-.9.9zm-13.5-94.2-.9.9zm24.7 1 .9-.9zm-25.6-.1q-.4 0-.7.3l.1.6.5-.4zm10.9 16.5.9-.9zM130.6 84l-.9.9q.5-.3.9-.9m-22.9 16.4.9-.9zm28.4-.8.9-.9zm-34.8 7.2.9-.9zm26.5-7.7.3.3.6-.3-.3-.3zm-3.6-.4-.9.9zm-14.6-.1-.9.9zm11.9-12.2.4.4.4-.5-.3-.3zM137 98.7l.9-.9zm-12.8 0 .9-.9zm-14.6-.1.9-.9zm28.3-.8.9-.9zm-4.8 81.3.9-.9zm-21.7-82.3-.9.9zm0 0 .9-.9zm10.1-10-.9.9zm4.5 9.1.9-.9zm-13.7-.4.4.4.4-.5-.3-.3zm19.2-8.7-.9.9h.9zm-4.6 8.2.9-.9zm1.9-1.8-.9.9zm-13.7-.1q-.4 0-.7.3l.1.6.5-.4zm17.3-.8-.9.9zm-16.4-.1-.9.9zm20.1-4.9.4.4.4-.5-.3-.3zm-2.8 4.1-.9.9zm-17.3.8.9-.9zm17.3-.8.9-.9zm-2.7-1-.9.9zm-11-1.8.9-.9zm11-.9-.9.9zm-12.8 2.7-.9.9zm17.4-1.8.9-.9zm-4.6 1.8.9-.9zm-2.7 0 .9-.9h-.9zm-8.3-1.8-.9.9zm9.2.9.9-.9zm-10.1 0-.9.9zm45 91.5-.3.6.3.3.3-.6zm6-36.5q-1.5 1.1-2.8 2.4-1.2 1.5-3.1 1.3-.7-.2-1.2.3l-5.7 5.2.8.6-.8.3q-.6 2.1-2.7 1.8l-.7 1.1c-1.6 2.1-1.6 2 .7 4.6-.7-2.2.6-3.2 1.8-4.3q2.7-2.5 5.7-4.9c4.6-3.7 9.7-6.7 14.5-10.1q3.1-2.1 6.4-4l-.2-.6-2.2.7-.9-1.8c-1.8.9-3.6 1.5-5 2.9h.9l.8.6-.8.3h-.9l-.9.9-.9.9c-.1 1.4-1.1.8-1.8.9q-.6.3-1 .9m-8-6.1c-3.3 1.9-6.3 4.3-9.6 6.2-1.7 1-4.3 1.7-5 4.6q2.1-.5 3.2-1.4c1.3-1.6 2 .3 3 .3q5.1-6 12.8-8.2l1.1-2.2q-1.8 1-2.7 1.3c-.3.1-.7-.6-1.1-.9q-1 0-1.7.3m9.2 14.1-.3-.8q-7.4 5-13.8 11.5.8.4 1.1.3 2.4-1.5 4.6-3.3a38 38 0 0 1 7-5.1c1-.6 1.5-2 3-1.6l1.8-2.7-2.7.9zm14.1-39.1c-3.4-.6-6.4 1.2-10 1.1l.7 1.6c1.2-1.2 2.7-.9 4.1-.8 1.6.2 2.7-.9 4.1-.9l2.5.6 6.2 1.4c-2.1-2.2-4.9-2.5-7.6-3m-19.8 28.3.9.9q4.7-2.7 8.2-6.9c-1.6-1-2 .4-2.7 1-1.6 1.5-3.1 3.1-5.5 3.2zm1.6-34.7q-4.7-.2-9.5-.1c-.6 0-.6.1-1.6 1.8q6.6-2 13.5-.3c-.9-.4-1.6-1.3-2.4-1.4m17.7 34.9 5.8-4.4c-3.7-.9-5.3 2.1-8.2 3zm4.5-30.7c-3.3-.9-6.6-.6-9.9-.2-1.2 1.7-1.9-.3-2.9-.3l.9 2.9c3.4-1.9 3.4-1.9 6.4-1.9h5.5zm-19.2 69.6c1 1.3 2.2 1.1 3.5 1.2v-1.8c-1.3 0-2.5.2-3.5-1.2q-1.2-1.4-2.9-2.5v1.8q1.6 1.1 2.9 2.5m26.9-60-1.8-3.6q-.8-1.3-2.3-.9 1.3 2.5 2.8 4.8 1 1 2.3 1.5c.2.1.8-1.1 1.3-1.6zm-22.4-13.4c-1-1-1.7-2.6-3.6-2.3l5.5 5.5c.4-1.6-1-2.3-1.9-3.2m18.1 35.9c-2 .7-3.3 1.6-3.7 4.2 1.7-1.4 4.1-1.2 3.7-4.2m-30.8-39.2h7.2q-2.8-1.6-7.2 0m-5.3 2 4.4-1.4q-1.2-.5-2.2-.5l-2.2-.8zm15.8 8.4q1.3-3.1-1.7-4.1zm20.2 27q.3-.4.2-1.6l-2.7.2c.9.7 1.2 2.3 2.5 1.4m-38.4-35.2c.9-2.2.3-3.3-1.7-4.1zm44.2 4.4 2.7 2.1v-2.1zm-42.1 41q-2.2-.3-2.7 1.8h1.8zm37.6-38.3q.6 2.1 2.7 1.8-.6-2-2.7-1.8m-5.5-23.7q.4-2.2-1.8-1.8-.5 2.1 1.8 1.8m-4.7 54.8h-1.8l-.9 1.8q2.2.3 2.7-1.8m-10-2.8v-.9c-.6.1-1.6-.4-1.8.7 0 .3.6.8.9 1.1zm-14 6.4-2.7 1.7c2.4.2 3.5.1 2.7-1.7m29.6-36.5c.4 1.8 1.8.6 2.7.9-.4-1.7-1.8-.5-2.7-.9m-22 22.1c-1.8-.7-1.8.4-1.7 2.6zm10.9 14.4c.7-.1 1.7.5 1.8-.9h-1.8zm-16.2 14.6v1.8h.5v-1.8zm3.5-21c-.7.1-1.7-.5-1.8.9h1.8zm-6.4 3.6c.7-.1 1.7.5 1.8-.9-.7.2-1.7-.4-1.8.9m21-2.7h1.8v-.9c-.7.2-1.7-.4-1.8.9m3.6 1.9c.7-.1 1.7.5 1.8-.9-.6.1-1.7-.5-1.8.9m.2 4.6-1.1.9h1.8zm-8.4-.1v.9c.7-.1 1.7.5 1.8-.9zm-18.3 5.5v-.9h-1.8v.9zm21 1.8c-.7.1-1.7-.5-1.8.9.7-.1 1.7.5 1.8-.9m10.1-14.5c.7-.1 1.7.5 1.8-.9-.7.1-1.7-.5-1.8.9m-15.5 6.3c-.7.1-1.7-.5-1.8.9.6-.1 1.7.5 1.8-.9m-16.5-.9c.7-.1 1.7.5 1.8-.9-.6.1-1.7-.5-1.8.9m-2.7.9v.9c.7-.1 1.7.5 1.8-.9zm25.5 4.6c.7-.1 1.7.5 1.8-.9-.6.1-1.7-.5-1.8.9m-17.3-9.2c.7-.1 1.7.5 1.8-.9-.6.1-1.7-.5-1.8.9m4.6 9.2c.7-.1 1.7.5 1.8-.9-.7.1-1.8-.5-1.8.9m-7.3-14.7c.7-.1 1.7.5 1.8-.9-.7.2-1.7-.4-1.8.9m11.8 18.3c-.7.1-1.7-.5-1.8.9.7-.1 1.7.5 1.8-.9m-8.9-20.1-1.1.9 2.2-.3zm2.6.9c1.4-.1.8-1.1.9-1.8-1.4.1-.8 1.1-.9 1.8m-48.5-1.8-.9-1.1.3 2.2q.7-.9.6-1.1m-1.8-5.4-.9-1.1.3 2.2q.7-1 .6-1.1m61.1 43.3-.4-1.3-.6 2.2zm16.6-60.7c.1 1.4 1.1.8 1.8.9 0-1.3-1.1-.7-1.8-.9m5.1-1.8 1.3-.4-2.3-.6zm-15.6-5.5-1.2.3.3.6 1.3-.2zm-10.5 0c-.1-1.4-1.1-.8-1.8-.9.1 1.3 1.2.7 1.8.9m-16.6 70.3c.1 1.4 1.1.8 1.8.9 0-1.4-1.1-.8-1.8-.9m22.1-72.2c-.1-1.4-1.1-.8-1.8-.9.1 1.4 1.1.8 1.8.9m-3.1-.9 1.3-.4-2.2-.6zm-17.9-.9c.1.7-.5 1.7.9 1.8-.1-.7.5-1.7-.9-1.8m30.9 54c1.4-.1.8-1.1.9-1.8-1.3 0-.7 1.1-.9 1.8m-13.7-1c.7-.1 1.7.5 1.8-.9h-1.8zm-7.3-.9.9-.9q-.3.5-.9.9m23.8-1.8-.9.9zm-13.7.5.4.4.4-.5-.3-.3zm13.7-.5.9-.9zm-21.9 7.3.9-.9zm13.7-7.3.9-.9zm-9.2 0-.3-.8-.6.8zm-3.6 0 .9-.9zm-11-1-.9.9zm33.8-.8-.9.9zm-6 0-.4.4.5.4.3-.3zm-2.2 0-.9.9zm-3.6 0q-.3 0-.7.3l.1.6.5-.4zm-3.7-.1h-.9v.9zm-11.4 11-.3.6.3.3.3-.6zm5.9-11-.9.9zm-11.9 0-.9.9zm33.8-.8-.9.9zm-15.5 8.2-.9.9zm2.8-7.8.4.4.4-.5-.3-.3zm-4.6-.5-.8.3.8.6zm-4.6.9.9-.9zm7.3-.9.9-.9zm-1.8 0v-.9l-.9.9zm10.7-1.6-.6.3.3.3.6-.3zM173.3 160l.9-.9q-.3.5-.9.9m1.9-12.3.4.4.4-.5-.3-.3zm-2.7.4.9-.9zm-11-.9q-.3 0-.7.3l.1.6.5-.4zm-6.4.9.9-.9zm32-1.3.3.3.6-.3-.3-.3zm-7.3.4.9-.9zm-2.6-.6.8.6v-.9zm-3.8.2.4.4.4-.5-.3-.3zm0 10.5q-.3 0-.7.3l.1.6.5-.4zm-11.9-10.1.9-.9zm16.4-.9.9-.9zm-1.8-.9q-.3 0-.7.3l.1.6.5-.4zm-12.8-.1-.9.9zm-4.5 0-.9.9zm20.1-.3.4.4.4-.5-.3-.3zm-2.8.4.9-.9zm-11.8-1-.9.9q.3-.5.9-.9m4.5 12.8-.9.9zm16.4-.8-.9.9h.9zm-4.3-12.5.8.6v-.9zm-3.9.2.4.4.4-.5-.3-.3zm-7.3-.6-.8.3.8.6zm-4.5 0-.9.9zm-4.6.9.9-.9zm24.7-1.2.4.4.4-.5-.3-.3zm-2.9.1-.8-.6v.9zm-9 13.5.4.4.4-.5-.3-.3zm6.4-14.2q-.3 0-.7.3l.1.6.5-.4zm-9.2.9-.3-.8-.6.8zm-4.5-.9h-.9v.9zm21.9-.8q-.4 0-.7.3l.1.6.5-.4zm-5.5-1-.9.9zm-8.2 0v-.9l-.9.9zm8.2 19.2h.9v-.9zm-19.1-22 .9-.9zm-1.9 18.3q-.3 0-.7.3l.1.6.5-.4zm-46.5-22q0-.3-.3-.7l-.6.1.4.5zm-6-1-.4.4.5.4.3-.3zm3.6-.9-.4.4.5.4.3-.3zm2.1-.7-.6.3.3.3.6-.3zm71.4 23.8-.9.9zm-74.8-24 .9.9zm0 0-.9-.9zm-.9-.9-.9-.9zm56.6 28.5-.9.9zm11.8-3.7-.9.9zm18.4-39.2-.9-.9zm-22.9 42.9.9-.9zm-4.5-49.4.9.9zm0 0-.9-.9zm.8 46.6.9-.9zm-8.2-.9-.9.9zm-8.2.9v-.9h-.9zm-1 18.3.9.9zm25-70 .3.6.3-.3-.3-.6zm-1.6-1.3-.4.4.5.4.3-.3zm2.2 51.7.4.4.4-.5-.3-.3zm-27.2-53.5.9.9zm25.4 53q-.3 0-.7.3l.1.6.5-.4zm-5.5.9.9-.9zm-9.1-.4.4.4.4-.5-.3-.3zm15.5-1.4-.9.9zm-22.4 6.3-.3.6.3.3.3-.6q-.2 0-.3-.3m9.6-6.3q-.3 0-.7.3l.1.6.5-.4zm.9 6.4q-.3 0-.7.3l.1.6.5-.4zm8.2 18.8.4.4.4-.5-.3-.3zm0 .4-.9.9zm13.8-26.5-.9.9zm-6 .9.3-.6-.3-.3-.3.6zm-3.2-.9-.9.9zm-5.5 7.3q-.3 0-.7.3l.1.6.5-.4zm1.9-7.3-.9.9zm56.5 55.9v4.8c0 .3.6.5.9.7q-.1-2.2.1-4.4c0-.4.6-.7.9-1.1l-.9-2.7c-.3-1.4-1-1.1-1.8-.5.8.9 2.1 1.8-.2 2.3q-.4.3-.7.9zm-3.4 2.9c2.2-.2 1.4-1.8 1.5-3h-2.7v3.9c0 .3.6.5.9.7zm7-2c-.1-1.4-1.1-.8-1.8-.9.1 1.3 1.1.7 1.8.9m.9.9-.9-.9zM233 214l-.4.4.5.4.3-.3zM199.1 79.6q-1.5.7-3.2 1l-1.3.4c-1.8-.1-1.8-.1-4.1 1.7q1.7.3 2.9.8c1 .5 1.8 1.4 2.9 1.9q1.4.6 2.9.6 2.7.2 5.3-.4c1.7-.6.5-3.1 2.4-4.2-2.6-2.3-4.9-3.6-7.8-1.8m4.6 2.1q0 .5-.4.7l-6.7 1.2c1-1.3 1.3-2 1.7-2.1q2.4-.5 5.3-.8zm3.7-21.4c.2 2.4-.3 4.1-3.3 4-.4 0-.9.8-1.5 1.4l1.2.3 1.3-.1c2.4-.8 2.4-.8 3.1 1.9 1.9-.4 2.6 1.2 3.5 2.3.2.2-1.4 1.4-.2 2.4q.8.8 1.6 2l-3 2.4 2.6 1.2a5 5 0 0 1 3.1-4.5l-3.1-2c2.8-.7 4.9 1.7 8 1.6-1.4-1.2-2.1-2.5-3.1-2.6-4.1-.6-6.2-4.1-9.3-5.8v-5.3c-.3.3-.9.6-.9.8M191 71.4q-1.7.2-3.2.9-.5.3-.5 1.1.2.4.9.7c1.1.6 2.2-1.4 3.3-.1l4-2.6zm4.2-5.7c-3.2.7-5.9-.9-8.5 2.3 2.9-.8 5.8.9 8.5-2.3m7.7 5.2c-.6 2.1 1.8 1.3 2.3 2.4l3.1-3.7zm-.6 4.2-1.4 1.4 1.3 1.4 1.6-1.5zm6-7.3-2.8.2 1.9 1.6c1.3-.1.7-1.1.9-1.8m-8 3 2-2.8c-1.9.8-1.9.8-2 2.8m-.9 5.2q-.6.3-1.1.9c-.1.1.4.8.7.8q.6 0 1.6-.7zm-10.3-6.3 2.7-.3-.1-.6-2.7.1zm16.4 6.3-1.8-2.5V76zm-4.5-3.8.9 1.1-.3-2.2q-.7 1-.6 1.1m-14.6-3.5.9-.9zm0 0q-.3 0-.7.3l.1.6.5-.4zm2.7.9q-.3 0-.7.3l.1.6.5-.4zm13.2 3.7-.4.4.5.4.3-.3zm6.9 3.6.3.8.6-.8zm29.1-.2c-1.4-1 0-1.6.1-2.4q-1.3-.2-2.3.9a7 7 0 0 0-1.4 5.5l2.7-.9.9-.9c.1-.8.4-2 0-2.2m-78.4 1c2 .1 2.9-1.3 3.7-2.7-2.1-.2-2.9 1.3-3.7 2.7m-2.8 17.4c1.5-.8 2.9-1.6 2.7-3.6-1.5.7-2.9 1.6-2.7 3.6M151.6 85q2.2.3 2.7-1.8-2.1-.3-2.7 1.8m-11 12.8q-2.1.6-1.8 2.7 2.1-.5 1.8-2.7m-2.7 3.6q-2.1.6-1.8 2.7 2-.5 1.8-2.7m30.2-22.7c1.4-.1.8-1.1.9-1.8-1.4 0-.8 1.1-.9 1.8m-2.7-.4.4 1.3.6-2.2q-1.1.8-1 .9m1.7 2.2c1.4-.1.8-1.1.9-1.8-1.3 0-.7 1.1-.9 1.8m-5.6-8.3 1.1-.9-2.2.3q1 .7 1.1.6m6.6-7.7.4.4.4-.5-.3-.3zm0 .5-.9.9zm-1.8 1.8.9-.9zm0 0q-.3 0-.7.3l.1.6.5-.4zm-1.2 2-.6.3.3.3.6-.3zm3 .7q-.3 0-.7.3l.1.6.5-.4zm-5.5 1.4.4.4.4-.5-.3-.3zm2.7 1.9.4.4.4-.5-.3-.3zm0 .4-.9.9zm-1.8 1.8.9-.9zm-4.6 3.6.9-.9zm-.9.9.9-.9zm-.9 1 .9-.9zm0 0-.9.9zm10 0-.9.9zm-10.9.9-.9.9zm-17.4 19.1-.9.9zm15.6-17.3.9-.9zm-3.7 2.7.9-.9zm0 0h-.9v.9zm9.1 5.5.9-.9zm.9-1.3.4.4.4-.5-.3-.3zm1-1.9.3.3.6-.3-.3-.3zm44.6 51.6-1 1.1-.8-1.2-.5-1.4c-.8 1.9-2.3-1.4-3.1.4.8 1.3 2.9 1.3 3.1 3h6.4l1.4-1.7c.3-1.9.7-3.7 2.8-4.6l-2.5-1.9q-.5 2.2-1.2 4-.7 1.5-1.8 2.9-.6.4-1.5.4l-.3-1.7zm-5.2 4.9-.3.3c-.1 2.4 1.8.9 2.9 1.1zm7-8.4c-1.8.4-.6 1.8-.9 2.7 1.8-.4.6-1.8.9-2.7m3.7 3.7 1.8 2.5V140zm3.6-2.7c.3-.4.9-.8.9-1.1-.1-1.1-1.1-.6-1.8-.7zm-8.1 14.2.7.3.8-.6-1.2-.5zm-2.5-5.1-1.3.4 2.3.6zm9.7-7.3c1.4-.1.8-1.1.9-1.8-1.4 0-.8 1.1-.9 1.8m-5.5-4.6c-1.4.1-.8 1.1-.9 1.8 1.4-.1.8-1.1.9-1.8m-4.2.2-.3.7.6.8.5-1.2zm9.7 4.4-.9.9zM202.6 161q-1.4-1.9-3.6-1.8c.4 2 2 1.8 3.6 1.8m-9.2-1a4 4 0 0 0-1.8 3.7c2-.5 1.9-2.1 1.8-3.7m1-2.7c-1.8.4-.6 1.8-.9 2.7 1.7-.4.5-1.8.9-2.7m-4.6 8.2-1.8 1.8q2.1.5 1.8-1.8m13.7 2.8c1.8-.4.6-1.8.9-2.7-1.8.4-.6 1.8-.9 2.7m-4.6-9.2c-.1-.7.5-1.7-.9-1.8.2.7-.4 1.8.9 1.8m-.9-1.8v-1.8h-.9c.1.7-.5 1.7.9 1.8m-7.3 7.3.9-.9zm-.9.9.9-.9zm-4.6 6 .4.4.4-.5-.3-.3zm58.4 42.8q.2.4 1.7 1.1c-1.7-4.7-.2-9.1-1.7-13.3zm-12.8-15 .2 3.7q1.3-3.7-.2-7.3zm8.2 2.2.2 3.3h.6v-3.3q-.5-.2-.8 0M54.2 137.8h-5.3q-.3.1-.6.5l2.1 2.2zm-.9 8.3c-.3-.4-1.4-.3-1.4.8 1.4.1.8 1.1.9 1.8 1.6-.5 1.1-1.7.5-2.6m6.4.4q2.7 1.2 2.1-1.1zm11.4-3.2c-.1-.7.5-1.7-.9-1.8.1.7-.5 1.7.9 1.8M56.9 146l-1.3.4 2.2.6zm-5 .9-.9.9zm3.7-.9-.9-.9zm-1.9-1.8.9.9zm183-50.5c.4-.3.7-1.5.5-1.7q-1.2-1.6-.1-3.1c.6-.9 1.1-2.2 2-2.6q1.6-.6 2.1-1.9c-2.6.4-5.2.9-6.4 3.6 1.1 0 1.1.9.8 1.5a11 11 0 0 0-1.7 5.8zm4-2q.5 0 1.3.4c0-.8.1-1.3 1.1-1.5 1.4-.2.4-.6 0-1.2s-.3-1.6-.4-2.4h-.4l-.6 3-1.2-2.5-.4 3-2.7-1.1 1.6 3.3q.8-.6 1.7-1m-10.6-.1c2 .1 2.9-1.3 3.7-2.7-2-.2-2.9 1.2-3.7 2.7m14.7-11.3.4 1.3.6-2.2zm-1.9 3.1c-.7.1-1.7-.5-1.8.9.7-.1 1.8.5 1.8-.9m1.9-1.8-.9.9zm-1.9 1.8.9-.9zm-9.1 5.5.9-.9zM212 36.7c-.2-2-.7-2.6-2.7-2.7zm-1.8 5.5c.3.9-.9 2.3.9 2.7-.4-.8.8-2.3-.9-2.7m-9.1-7.7.4 1.3.6-2.2zm10.9 2.2.9.9zm1.8 1.9-.9-.9zm-32.9 14.5q2.2.3 2.7-1.8-2.1-.3-2.7 1.8m3.7-5.5-.9.9zm-.9.9q-.4 0-.7.3l.1.6.5-.4zm-3.2 1.9-.3.3.3.6.3-.3zm3.2.9.9-.9zm-4.9.1-.6.3.3.3.6-.3zm2.1 1.7-.9.9zm8.9 104.2q1.3.2 2.3-.9 1-1 2.3-1.9v-1.8zm10.1-6.4q0-.3-.3-.7l-.6.1.4.5zm-10.1 6.4-.9.9zM191 44.5l.4.4.4-.5-.3-.3zm7.9 111c1.2 1.6 2.1 3.7 4.6 3.7-1.2-1.7-2.1-3.7-4.6-3.7m40.2-76.1-.8-.6v.9zm-206.3 40c.7-.1 1.7.5 1.8-.9-.7.2-1.7-.4-1.8.9m-.9-2.7c-.7.1-1.7-.5-1.8.9.7-.1 1.7.5 1.8-.9m105 15.8q-2.1.6-1.8 2.7 2-.5 1.8-2.7M30.1 114.9c-.7.1-1.7-.5-1.8.9.6-.2 1.7.4 1.8-.9m125 39.6-.9.9z"/></svg>