<?xml version="1.0" encoding="utf-8"?>
<!-- Generator: Adobe Illustrator 25.2.3, SVG Export Plug-In . SVG Version: 6.00 Build 0)  -->
<svg version="1.1" id="Layer_1" xmlns="http://www.w3.org/2000/svg" xmlns:xlink="http://www.w3.org/1999/xlink" x="0px" y="0px"
	 viewBox="0 0 59.9 53.5" style="enable-background:new 0 0 59.9 53.5;" xml:space="preserve">
<style type="text/css">
	.st0{fill:#1E8C50;}
</style>
<g>
	<path class="st0" d="M23.4,7.2C23,6.6,22.5,5.9,23,5c0.1-0.1,0-0.4,0-0.6c0.9-0.5,2.4-0.4,2.7,0.3c-0.2,0.3-0.3,0.5-0.4,0.7
		C25.2,5.7,25.1,5.9,25,6c0.4,0.8,0.7,1.5,1,2.2c0,0,0,0,0,0.1c0.2,0.2,0.5,0.6,0.5,0.6c-0.3,0.3-0.6,0.5-0.9,0.8
		c-0.6,0.6-1.3,1.1-1.9,1.7c-0.4,0.5-0.3,1,0.2,1.4c0.4,0.3,0.7,0.7,0.9,1.3c0.1,0.5,0.4,0.9,0.7,1.4c0.3,0.5,0,0.7-0.3,0.9
		c-0.9,0.5-1.8,0.9-2.7,1.5c-0.2,0.1-0.2,0.4-0.3,0.6c1.5,0.2,3,0.4,4.4,0.7c1.2,0.3,2.3,0.8,3.4,1.2c0.2,0.1,0.5,0.1,0.8,0.2
		c1.4,0.4,2.7,1.1,3.9,2c0.4,0.3,0.7,0.5,1.1,0.7c0.1,0.1,0.4-0.1,0.6-0.2c0.9-0.3,1.8-0.8,2.7-1c0.6-0.1,1.3,0.1,1.9,0.1
		c1,0.1,1.8,0,2.7-0.5c0.6-0.3,1.3-0.6,1.9-0.8c0.6-0.2,1-0.5,1-1.2c0-0.9,0.6-1.5,1.1-2.1c0.6-0.7,1.2-1.4,2-1.8
		c0.9-0.5,1.9-0.3,3.1-0.2c-0.2,0.3-0.2,0.7-0.1,0.8c-1.4,0.5-2.7,0.9-3.1,2.6c0.3,0.3,0.3,0.6-0.1,0.9c-0.1,0.1-0.2,0.3-0.3,0.5
		c-0.4,1-1.1,1.6-2.1,2c-1,0.4-1.9,1-2.9,1.4c-0.5,0.2-1,0.3-1.5,0.5c-0.1,0-0.2,0.1-0.2,0c-0.8-0.2-2.1-0.6-2-0.6
		c-0.1-0.4-2.3,0.3-3.2,1.1c0.7,0.8,1.5,1.5,2.1,2.4c0.5,0.6,0.8,1.4,1.3,2c1.1,1.4,0.9,2.8,0.6,4.4c0,0.1-0.2,0.2-0.2,0.3
		c-0.2,0.4-0.4,0.8-0.5,1.2c0,1-0.2,1.9-0.8,2.7c-0.2,0.3-0.6,0.4-0.9,0.6c-0.9,0.4-1.7,0.9-2.6,1.3c-0.2,0.1-0.4,0.3-0.7,0.3
		c-1.5,0.1-4.6,1.9-4.9,2.1c-0.5,0.2-1,0.3-1.5,0.5c-1,0.3-2.1,0.5-3,1c-0.7,0.4-2.6,1.4-2.9,1.5c-0.9,0.5-1.9,0.9-2.9,1.3
		c-0.2,0.1-0.4,0.2-0.6,0.3c-0.1,0.1-0.3,0.2-0.4,0.2c-0.7-0.3-1.8,0.6-1.9,0.7c0.1,1-7.9,4.4-9.5,5.4c-0.1,0.1-0.3,0.1-0.5,0.1
		C6,52.2,5.5,51.2,5.2,50c-0.1-0.3,0.3-0.7,0.5-1c0.1-0.2,0.3-0.5,0.3-0.8c-0.2-1.6,1.4-6.2,1.7-7.1c0.2-0.8,0.4-1.7,0.6-2.5
		c0-0.2,0.4-2,0.5-2.5c0.2-0.8,0.6-1.6,0.8-2.4c0.3-0.9,0.5-1.8,0.7-2.8c0.4-2,0.9-3.9,1.2-5.9c0.3-1.4,0.4-2.9,0.6-4.3
		c0-0.2,0-0.4,0-0.6c-0.1-0.4-0.3-0.8,0.2-1c0.5-0.3,4.1-0.4,4.8-0.7c0.2-0.1,0.4-0.1,0.6-0.2c0.2-0.1,0.4-0.2,0.6-0.2
		c1,0.4,1.5-0.2,2-1c0.3-0.4,0.9-0.6,1.3-0.9c0.4-0.2,0.9-0.4,1.3-0.6c0.4-0.2,0.4-0.5,0.1-0.9c-0.3-0.5-0.7-0.9-1-1.4
		c-0.4-0.7-0.8-1.3-1.1-2c-0.1-0.2,0.1-0.5,0.2-0.7c0.3-0.3,0.7-0.6,1-0.8c0.1-0.1,0.2-0.1,0.2-0.2C22.2,8.6,23.5,7.6,23.4,7.2z
		 M19.3,22.6c0.4-0.5,0.7-1.1,1.5-0.6c0,0,0.3-0.2,0.3-0.3c0-0.5-0.5-1-1-1c-1.4-0.1-2.7,0.5-4,1c-0.8,0.3-1.1,1.4-0.6,2.2
		c0.6,1,1.2,2,1.8,3c0.6,0.8,1.3,1.6,1.9,2.3c0.4,0.4,0.8,0.6,1.4,0.3c0.5-0.3,1.1-0.4,1.6-0.7c0.7-0.4,1.3-0.8,0.9-1.9
		c-0.1-0.4,0.1-1.1,0.4-1.3c0.8-0.7,1.9-0.6,2.9-0.7c0.1,0,0.2,0.2,0.2,0.3c0.1,0.6-0.4,0.7-0.8,0.9c-0.8,0.4-0.8,0.4-0.4,1.1
		c0.3,0.5,0.3,1-0.1,1.4c-1,0.8-1.8,2.1-3.2,2.3c-0.1,0-0.1,0.1-0.2,0.1c0.9,1,2.1,1.5,3.3,1.9c1.7,0.6,3.5,1.1,5.4,1.1
		c1.3,0,2.6,0,3.8-0.1c0.9-0.1,1.7-0.4,2.6-0.7c0.4-0.1,0.9-0.5,0.9-0.8c0.1-0.8,0.3-1.7,0-2.4c-0.4-1.2-1-2.3-1.6-3.4
		c-0.2-0.3-0.5-0.5-0.8-0.8c-0.5,0.4-0.9,0.8-1.2,1.2c-0.4,0.4-0.6,1-1,1.4c-0.5,0.5-1.1,1-1.7,1.5c-0.8,0.7-1,0.7-1.8-0.1
		c-0.1-0.1-0.3-0.3-0.4-0.5c-0.1-0.2-0.3-0.5-0.2-0.6c0.2-0.3,0.4-0.5,0.7-0.6c0.7-0.4,1.4-0.6,2.1-1c0.9-0.6,1.6-1.4,2.5-2.1
		c0-0.1-0.1-0.2-0.1-0.3c-1-0.7-1.9-1.4-3.1-1.8c-0.4-0.1-0.7-0.3-1-0.4c-1.1-0.3-2.1-0.6-3.2-0.9c-1.1-0.3-2.2-0.5-3.4-0.7
		c-0.3-0.1-0.7-0.2-1.1-0.3c0.1,0.7,0.6,1.2,0.1,1.8c-0.3,0.4-0.5,0.8-0.8,1.2c-0.9,0.9-1.3,0.8-1.9,0C19.8,23.3,19.6,23,19.3,22.6z
		 M14.1,25.5c-0.2,1.1-0.3,1.9-0.6,2.8c-0.2,0.7,0.1,1.4-0.5,2.1c-0.2,0.3-0.4,1,0.3,1.5c0.5,0.4,0.8,1.2,1,1.8
		c0.4,1.3,0.9,2.5,2,3.3c1.4,1.1,2.9,2.1,4.7,2.6c0.5,0.2,1,0.5,1.6,0.6c1.7,0.3,4,0,5.4,0.1c1.3,0,7.2-3.6,7.5-4.3
		c-0.3,0-0.6-0.1-0.9-0.1c-0.2,0-0.5,0-0.7,0c-1.2,0-2.4,0-3.6-0.1c-1.3-0.2-2.5-0.4-3.8-0.8c-0.9-0.3-1.8-0.9-2.7-1.2
		c-2.1-0.6-3.8-1.8-5.3-3.1c-1.2-1.1-2.2-2.4-3.2-3.7C14.8,26.5,14.5,26,14.1,25.5z M10.9,38.6c-0.1,0-0.2,0-0.2,0
		c-0.2,0.8-0.4,1.6-0.6,2.3c-0.1,0.4-0.4,0.9-0.3,1.3c0.1,0.6,0.3,1.2,0.7,1.6c0.7,0.9,1.5,1.6,2.4,2.4c0.2,0.2,0.7,0.2,1,0.1
		c0.6-0.2,1.2-0.6,1.9-0.9c0.5-0.3,1-0.5,1.6-0.8c-0.1-0.1-0.2-0.2-0.2-0.2c-2.2-1-3.8-2.5-5-4.5C11.7,39.5,11.2,39.1,10.9,38.6z
		 M11.8,33.8c-0.1,0.7-0.2,1.3-0.4,1.9c-0.2,0.7-0.5,1.4,0.3,2.1c0.9,0.7,1.5,1.7,2.2,2.5c1.2,1.4,2.5,2.6,4.5,2.9
		c1.2,0.2,2.3,0,3.4-0.4c0.1,0,0.2-0.3,0.3-0.4c-0.1-0.1-0.3-0.1-0.5-0.2c-0.1,0-0.3,0-0.4,0c-0.4-0.1-0.7-0.3-1-0.4
		c-0.9-0.4-1.9-0.8-2.8-1.3c-0.8-0.5-1.5-1.1-2.2-1.6c-1-0.8-1.9-1.6-2.4-2.8C12.7,35.2,12.2,34.5,11.8,33.8z M12,47.6
		c-1-0.9-1.9-1.6-2.9-2.4C9,45.6,9,45.9,8.9,46.3c-0.3,0.9,0.4,1.9-0.4,2.7c0,0,0,0.1,0.1,0.2C9.7,48.7,10.8,48.2,12,47.6z"/>
	<path class="st0" d="M38.3,9.9c-0.5,0.4-0.4,1.5,0.1,1.9c0.9,0.9,0.5,1.7-0.5,2.1c-0.6,0.2-1.2,0.3-1.8,0.5
		c-0.2,0.1-0.4,0.3-0.5,0.5c-0.2,0.3-0.4,0.5-0.8,0.3c-1-0.5-1.9-1-2.5-2c-0.2-0.3,0.1-0.9,0.7-1.1c0.5-0.2,1-0.3,1.5-0.5
		c0.2-0.1,0.4-0.3,0.4-0.4c-0.1-0.7-0.3-1.4-0.4-1.9c0.1-0.4,0.2-0.7,0.3-1c0.1-0.2,0.2-0.4,0.3-0.4c0.8,0.2,1-0.5,1.4-0.9
		c0.1-0.1,0.1-0.1,0.1-0.2l0,0c0.9-0.7,3.2-1.9,3.5-2.2c0.2,0.3,0.4,2.1,0.6,2c0,0,0.1,0.1,0.1,0.1c-0.2,0.2-0.3,0.4-0.5,0.7
		C39.6,8.3,39.2,9.2,38.3,9.9z"/>
	<path class="st0" d="M55.4,28.4c-0.3-0.1-0.5-0.1-0.7-0.3c-1-1-2.2-0.9-3.5-0.9c-0.4,0-0.7-0.1-1.1,0c-0.3,0-0.5,0.2-0.6,0.3
		c-0.9,0.2-1.7,0.4-2.4,0.5c-0.3,0-0.8,0.1-1-0.1c-0.7-0.6-1.2-1.2-1.8-1.8c-0.1-0.1-0.3-0.3-0.4-0.5c0.3-0.4,0.2-1.1,0.9-1.1
		c0.3,0,0.7,0.1,1,0.1c0.5,0,0.9-0.2,1.3-0.1c0.9,0.1,1.7,0.2,2.6,0.3c0.5,0,1.1,0.3,1.5-0.2c0,0,0.2-0.1,0.2,0
		c0.8,0.7,2.1,0.6,2.6,1.8c0.3,0.7,0.8,1.2,1.2,1.8C55.4,28.2,55.4,28.2,55.4,28.4z"/>
	<path class="st0" d="M41.5,13.3c1-0.8,1.8-1.5,2.7-2.3c0.1-0.1,0.2-0.2,0.4-0.2c1.4-0.1,2.8-0.2,4.2-0.3c0,0.1,0.1,0.2,0.1,0.2
		c-0.2,0.1-1.3,1.4-1.8,1.7c-0.2,0.1-0.4,0.3-0.5,0.5C46,13.5,45.3,14,45.1,15c-0.2,0.8-1.4,0.7-2,0c-0.2-0.3-0.4-0.6-0.6-0.8
		C42.1,13.9,41.9,13.6,41.5,13.3z"/>
	<path class="st0" d="M11.5,8.9c0,0,0-0.1,0-0.1c-0.4-0.8,0.2-0.9,0.7-1.1c0.2-0.1,0.4-0.1,0.6,0c0.9,0.5,1.8,1.1,2.7,1.7
		c0.2,0.1,0.5,0.1,0.7,0.3c0.9,0.8,1.7,1.7,1.7,2.9c0,0.3-0.3,0.5-0.5,1c-0.5-0.4-1-0.7-1.5-1.2c-0.5-0.5-0.9-1-1.3-1.5
		C13.7,9.6,13.1,9.4,11.5,8.9z"/>
	<path class="st0" d="M32.5,1.6c0.1,0.1,0.3,0.2,0.5,0.2c0.3,0.2,0.7,0.5,1.1,0.3c0.6-0.3,1.1-0.1,1.3,0.6c0.2,0.5,0.5,1,0.2,1.6
		c-0.2,0.4-0.4,0.5-0.8,0.2c-0.2-0.2-0.4-0.3-0.5-0.3c-0.4,0.2-0.8,0.4-1.1,0.6c-0.2,0.1-0.4,0.3-0.6,0.4c-0.2,0.1-0.3,0.3-0.5,0.3
		c-1,0.1-1.1,0-0.8-1c0.2-0.6,0.3-1.3,0.5-1.9C32,2.4,32.3,2.1,32.5,1.6z"/>
	<path class="st0" d="M44.2,31.4c0.1,0,0.3-0.4,0.2-0.6c1.6-0.4,2.6,0.5,3.6,1.5c0.3,0.3,0.5,0.6,0.8,0.9c0.4,0.3,0.4,0.7,0.1,1
		c-0.2,0.2-0.5,0.3-0.8,0.3c-1.7,0.1-2.5-1.1-3.5-2.1C44.4,32.1,44.4,31.7,44.2,31.4z"/>
	<path class="st0" d="M49,6.6c-0.1,0.2-0.3,0.5-0.6,0.7c-0.2,0.1-0.5-0.1-0.7-0.1c-0.2,0-0.3-0.2-0.5-0.2c-0.7,0.1-1.1-0.4-1.2-0.8
		c-0.2-0.7-0.3-1.4,0.3-2c0.1-0.1,0.4-0.1,0.6,0c0.5,0.2,0.9,0.4,1.4,0.6C48.9,5.1,48.9,5.8,49,6.6z"/>
	<path class="st0" d="M11.3,13.9c0.7,0,1.3,0.8,1,1.5c0,0.1-0.1,0.2-0.1,0.3c-0.1,0.1-0.2,0.3-0.2,0.4c-0.1-0.1-0.3-0.2-0.4-0.3
		c-0.2-0.1-0.4-0.2-0.6-0.4c-0.2-0.2-0.5-0.5-0.5-0.8C10.5,14,10.7,13.9,11.3,13.9z"/>
</g>
</svg>
