<svg xmlns="http://www.w3.org/2000/svg" xml:space="preserve" viewBox="0 0 319.7 420.7"><path d="M310.4 398.7q.3 5.4-.1 9.6c-.2-1.1 0-3.6-.1-4.3.1.3.3-1.2.2-3.2-.4-2.6-.2-3.1-.6-5.5.3-1.6.6 1.2.8 3.6-.1-.2-.1-.9-.2-.2m1.2-198.9v-1.3zm.5-125.5.1 1.4q0-1.5-.1-1.4m.5-21.2v1.2zm-1 145.4.1-3.3c-.1-.3 0 1.6-.1 3.3m-1.8 172.7.1 1.8v-1.7zm2-118v1l.1.8zm-.1 42q-.1-1.2-.4-1.6l.2 2.1zm-.6 66.6v1.2zm.8-138.7.1-.4zm-50 188.1q.5 0 0 0M313 14.3v.2zM7.7 55.8c.3-4 .3 6.6.6.5-.1.6-.4-5.5-.6-.5m302.2 314.4v-1.7zM228.8 7.3l-.9-.1zm65.7.5h-1.6q.9-.1 1.6 0m-101.9-.3h.7zm0 0h-1.7zm-35.3-.1.7.1h1.1zm-4.8 403.7 1.7.3c-.6-.3 4.7-.3-1.7-.3M310 371.2l-.1-1.1v1.2q0 .3.1-.1M191.8 9.8l-5.7-.1zM9.5 299.5v-1.3zM169.1 9.8l-3.9-.1zm141.6 19.4v-.5zM299.9 9.6l-1.8.1h-.3l-2 .1c1.9-.1 4.3 0 4.1-.2m10.5 380.6v-.7zM313 26.3c-.1 3.3-.5 8.4-.2 14.2-.1-1.5-.3-4.6-.4-.7.1 6.4-.1 1.5-.3 5.1 0 6.3.4 1.1.3 10.5 0 1 .1.1.2-.9l-.1 14.9c.1-2.1.1-3.1.2 0-.2-1.6-.2 5.1-.3 7.5l.1.6c-.1 1.9-.2-.1-.2-1.7l.1-1.7c-.1-3.1-.6-1.9-.6 2.9.1 5.2.4 4.3.6 3.5-.1 6.9.6 6.5.3 13.1 0 1.5-.5 6.5-.6 11.4.3 2.5.2-6 .5-3.2-.7 8 .4 16.4-.1 26.9l-.3-1.3v7.6l.2-3.6c.1 2.4 0 8.2-.3 6.3.3 5.5.1 6.7 0 11.8 0-5.4 0-.1-.1-4.1-.2 5.7-.1 6.1 0 10.1-.1-.7-.3 1.4-.3 3 .2 3.7.1 10 .3 15.2h-.1c.1 8.7-.4 18.1-.1 26.8v.4-.7c.3-3 .2 6.8.3 9.4-.1.6-.2.9-.2 2.4.3.1.2 3.4.3 4.6-.1 3-.4-.4-.4 4.8 0 2 .2 2.2.3 2-.2 1.1-.3 4.4-.3 7.1v-3c-.2-.3-.1 1.5-.3 1.4 0 2.4.3 1 .2 4l-.2-2.8c-.1 1.2 0 2.7.1 3.3-.1-1.8-.3-1.6-.4-1.3.2 7 .7 1.4.9 1.7-.2 6.6.1 11.8.1 17l-.3-1c0 2.5.1 3.7.2 4.6v3.9q-.1-3.1-.4-3.1c.1 4.1 0 9.8.4 10.8l-.1-.2c-.2 5.5-.3 16.9-.4 16.5.1 5.9-.1 13.3.3 13.5.1 3.5-.5 9.1 0 11.6-.3 4.2-.1.2-.4-1.1-.3 4.2.4 8.4-.2 9.8.2 4.9.1-1.1.4.5-.5 1-.1 9-.4 13.6.2 2 .1-2.1.3 1.4-.1-.3-.2 1.5-.2 2.5l.3.9-.8 4.6c.4 6.9.5-1.4.7 7.8v-.6c-.3 2.5.2 6.5 0 13.1.1-2.3-.2-.9-.2-1.6l.1 3.7q0-.6-.1-.1c-.2 3.2.1 2.8-.1 6.6-.1-2.6-.3-1.8-.4-.7l.3 5.4-.4-2.2c0 5.3.6 13.1 0 15.7l-.1-2.6q-.3.2-.2 5.3 0 1.5.3 1l-.1 2c-.3-1.3-.3-7.8-.4-11.9.1 1.3.2 4.5.4 3.5l-.3-10.7.4 3c.2-4-.2-3-.2-6 .1-1.1.2-1.9.3-1.2-.1-3.7-.1-6.7 0-10.7 0 0 .2 4.5.4 2-.2-7.3-.5-8.7-.7-16.6-.5-9.1.3-17.7 0-24-.1-.3-.2 4.7-.3.6.3.7.2-2.5.3-2.7-.4-4.5.1-6.6-.1-9.7.1.7.2-1.9.3-3.6.3.5.1-4.9.6 1.6-.5-6.7.1-11.8-.6-16.8l-.1 1.7.2-6.7v.3c.1-2.9 0-3.4.3-7.3l.1 5.8c.3-3.6-.2-7.5-.2-11.4.2.2.1 4.1.4 3l-.2-7.9.1.4c.3-7-.6-2.7-.2-7.9-.1.2-.2-.5-.2-.2.1-1.9.4-6.4.5-1.9l-.2-6.4c-.2 2.1-.1 2.6-.3 3.3l-.1-9.8.1 2.2c.7-11.5-.5-23.3.3-36.3-.2 1.5-.2-.9-.3-2.2.1-4.2 0-10.6.2-14.5l.1 1.2c-.1-10-.4-16.9-.3-23.6l.2 1.2c-.2-4.9.6-10.7 0-12.1v1.8c.1-9.7-.3-20.3-.3-30.3.3-2.3 0 5.8.4 3.7v-21.5l.1 1.5c.2-7.5-.3.8-.3-5.5.2.3.2 0 .3-2.1l-.3-1.9q0-.6.3.7c-.3-2.8-.1-11.2-.4-13.4.1-.6.4 1 .5.1.1-3.4 0-5.7-.1-7.9.2-2.4.2-8.1.3-6.9.1-6-.2-1-.4-5.5l-.2 4.8-.1-8.5.2 3.4-.1-12.4-.2 2.1-.1-5.2c.4-.5.1-6.6.5-3.8.2-9.4-.3-15.6-.3-24.1 0 .9.1.5.1.8.1-5.1-.1-8.2-.3-11.3l.3 1.9c0-6-.2-3.7-.3-10.3q.1 1.3.2 1l.1-.5V10q-.2 0-.2-.3l-.5.1q.8-.3.6-.4l-.5-.1h-1.4c-2-.1-4.3-.1-3-.4-1.1.2-9.6.4-7.9.7l-30 .1c.9-.1 5.2-.2 2.5-.3-10.5-.1-16.7.2-27.3.4-.5-.5 11.5 0 11.9-.5l-35.2.4c-4.4-.7-12.2.3-19.9-.3.7.2-3.1.3-7.3.3 1.4-.2-3-.2-1.8-.3-3.7.2-14.3.3-13.9-.2-1 .5-7.9 0-10.9.3-4.6-.2-9.9.1-15.8-.1 1.8.3-4.3.2-7.1.2q.9 0 .7-.1c-1.7-.3-6.7.2-10 0-1.5-.1.4-.3-2-.3l-4.9.3-7.3-.1c1.5 0 1.5-.1 2.5-.2-15.5.3-32-.2-47.9.2l2.8-.3c-9.9-.5-6.5.5-14.3.5l-26.9-.4L22.7 9l-12.1-.1v9.8c.1 1.5.1-.9.3-1.1 0 1.8-.3 2.3-.2 4.8l.2-.6c-.9 9.8-.1 27.8-.9 34.9.3 9.1-.3 15.6.2 26.7-.2 3.5-.3-4.1-.4.7l.3 10.3v-.6c.5 9.9-.7 26.2-.3 38.7v-.5c-.1-.3-.3 2.3-.3 4.3.1.7.1-.7.3-1.9.2 11.1.2 13.5.2 22.3-.2-3.8-.2 3.5-.4 3.9.2 2.3.3-1.3.4 3.8q0 11-.3 20.1c.2 2.5.2 5.7.5 5.9l.1 23-.1.3c.4 2.7-.2 8.8 0 10.7-.1-.3-.2-1.4-.3-1.1l.1 4.6c-.1-2.2-.4-3.4-.5.4.2 3.9.2-1.1.4.8l-.3 1.2c0 3 .4 3.8.5.2v29.2l-.2-1c.1 5 .1 11.8-.1 14.7.1.1.2 1.4.3.6.3 5.5-.3 1.4-.1 5.8l-.2-2.6.2 12.2-.3 4.5.1 5.6.1 3.3-.4 2.5.3 4.8-.3.1c.1 3.5.5 4.9.4 7.8-.2 10.7-.3 8.5-.7 16 .6.9-.1 12 .4 14-.5 10.1-.2 24.7-.4 38l-.1-1.1c-.3 5.7.4 6.4.3 12.5l-.1-1.5q-.4 3.3-.3 7.5v7.5h2.6l3.4-.1 5.9-.2q-2.1.2 1.6.3c2-.1-2-.4 2.2-.3-1 .1-.2.2.7.2l4.1-.3c10.8.2 23.5.5 34.8.3 2.1.1.6.2.1.3l25.8-.3.8.4c3.9 0 2.4-.5 7.6-.2 1.1.1-3.4 0-4.8.2 7.9.3 4.7-.3 12.2-.3l-2 .4c5.8.3 6.6-.2 8.7-.4 8.1-.5 5.8.8 16.8.5 1.7-.2-.6-.3 1.2-.5 7.8.1 8.7-.2 16.5 0 4.2.6-4 0 .6.6l-5.9-.1c5.1.3-4.6.1-3.8.4 3.8.1 9.6-.2 14.6-.3 0 .3-5.8 0-3.5.4l2.6-.1c-.7.1-.8.2-2.3.2.9.3 3 0 5.5 0q.3-.2-.8-.5l.7.1c5-.4 13.5-.1 17.7-.4-.7.1-.1.1.1.2 3 0 6.1-.3 10.2-.4 2.2.2-1.3.6 5.2.5 1.2-.2-1.7-.6 3.7-.6 0 0-4.8.2-2.2.3 5.4-.1 1.7.1 6.6.3 2.8-.3 5.3.1 5.9-.4 1.7.3 1.3.2 4.6.5-1.5-.3 6.4-.3 6.2-.6 1.4.4-5.7.4-1.3.9 3-.2 8.6-.3 9.1-.7 2.3.1 3.4.3 6.9.3l-1.6.1c6.4-.3 15.8 0 19.4-.4-1.3.6 13.6.1 8.7.6 2.7 0 6.9-.3 7.8-.4-.3.5 6.6.1 9.5.4 1.5-.3 6.3-.2 9.2-.3q-2.1 0-1.5.3c3.3-.2 2.4 0 5.2.2 4.4-.1-.8-.4 1.9-.6 3.8.1.6.3 1.3.5l5.7-.4q1.8 0 2.4.3c2-.1 3.7-.3 6.5-.1h-4.9l1.9.2 5.8-.3q3.9.1 5.1.4l-.1-2.3.3 1.5v.9c1.2.2.4.5 0 .8v.1h.5l-.5.1q0 .3-.1 0h-.2l.1-.2-3.4.1c.1.2 2.4.3 3.9.3 1.4.1-5.5.5-9.2.6-10-.1-2.1-.6-8.9-.7l-8.8.3-.1-.2-2.6.1c.6-.2-7.2-.1-10.8-.1l1.3.2c-10 .5-15.8-.6-23.7-.3l-5.6.3-1.1-.5c-3.3.2-3.8.4-9.2.3-18.8-.6-39 0-58-.4l2 .1c-16.7-.8-26.1.7-41.2.1l1-.1c-7.7 0 1-.1-4.5-.3-1.1.4-9.7.3-14.1.4l3.5-.1c-.8-.1-1.2-.3-3.4-.3-4.9.5-15.4.5-23.2.6-.9-.3-7.6-.5-11.1-.9l-3.6.5q-4-.2-6.9.1h6.3-.2 3.3c3.1.2-.2.2 0 .5-2.5 0-7.8.1-8.4-.2l-4.1-.1h-3.1.5l-.7-.1c-5-.1-12 .3-16.1.5 4-.4-1-.4-1-.7l10-.1c-5.5-.3-9.3.2-17.3 0 .5 0 1.5-.1 1.2-.2a29 29 0 0 0-6.1.3c-.7-.3-6.7-.5-9.7-.4-2.6.2-2.2.3-7 .3l2.1-.2c-5.6-.2-4.6.3-9.2.1q2.7 0 .6-.2l-3.3.1-2.9.1-.1-1.5v-1.4l-.2-2.7.3.8c-.2-4.7-.5-13.3-.2-14.3-.5.7-.2-11.1-.2-15.3 0 1.5.1 1.8.2 1.9-.4-9.1 0-18.4 0-27.6l.4-1.5c0-4.9-.9-6.3-.8-11.5l.2 1.9.1-20.7.3.1c-.1-2.7-.1-6.1-.3-8.8.7-6.2-.3-24.5.5-35.8l-.5-.7c0-4.3-.1-9.9.3-11.9v1c.4.4 0-4.3.1-7 0-2-.3-4.1-.4-2.3.3-11.5.1-28.5.6-35.7-.1-11.6-.5-20.2-.4-32.7l.1.1c.1-4.2.3-12.6.7-12.6-.1-9-.7-14.7-.5-25.3l.2 2.3c.1-2.7-.1-7-.2-8.1 0-.9.1-.3.2-.1.2-2.6-.1-4.1-.1-6.1l.2.8c.3-8.5-.3-21.9-.1-32.9 0 2 .2.9.3.1-.5-4.5-.3-16.8-.5-21.4l.2 2.8c-.4-8.8.4-7.6.1-16.4l-.3 5.1c.1-3.6 0-6.7-.2-5.8.2-4.2.4-.5.5-6.8.1-.3.1 4.6.3 2.5l.4-8.8v-.6.6-4.2c-.6.8 0-7.3-.6-2.9 0-12.4.4-22.9.2-33.6l.1-3.3.1-2.2V7h5.4a52 52 0 0 1 7.7.5l10.6-.3c1.7-.2 8.9-.2 12-.2-4 .2-10.4.3-13.5.6l16.2-.4 1.4.4c4.6-.3 3.9.3 8.5-.1l-.9-.1c8.4.1 8.5-.3 16.4-.4l-.3.2c2.7.1 6.7-.3 9.4.1H76c.5.3 4.4.4 6.2.6 5.4-.1 1.9-.5 4.6-.5 1.2.3.3.1-1.6.4 6.1-.1 14.3-.2 18.6-.5.3 0 0 .1 0 .1 6.3.1 11.9-.4 15.8-.2h-1.2c5.1.4 13.1-.3 14.2.3 2.4.1-5.4 0-1.6.3 7.5.2 5-.6 11.6-.3l-.9.1 16.4-.1c6.5.6 19.9-.1 27.3.6-2.2-.2 1.3-.3 1.8-.3q-.2 0 .1.1c2.7 0 3.1-.2 4.1-.3 2.2.2 7.5-.2 8.9-.1l4.6-.1c-4.9.1-1.6.3-3.7.5 7.3.1 8.3-.6 15.9-.5l4.2.3c.8-.4 7.8-.2 7.7-.4 1.3.1 3.2.2 2.9.4 3-.1 7.5.1 8.8-.1l-3-.1c9.3.2 14.9-.4 22.1-.1l-.4.6c4.8.3 8.9-.3 13 .1-1.4-.2-1.8-.1 1.3-.3l-8.2.1 6.4-.3-10 .2c4.3-.2 4-.2 2.2-.4 6.1-.2 6.6.3 12.4.1 2.1.1-.1.3 2.3.4 5.2-.2 9.9.5 13.6.2 1.2.1-2.1 0-1.8.2q5 0 6.7-.2l-2.9-.1c2.5 0 2.9-.2 7.7-.1 2.8-.1 4.3-.4 1.3-.4 1.2 0 3.9.1 3 .3l3.5-.1 2.9-.2.2 3-.1 4c0-.5 0-1-.1-.7v3.1c-.1-3.5-.5 2.7-.3-4.1-.3.8-.1 5.7-.2 8.1.2 3.7.5.4.6 2.3l-.2 3.3.3-1.7v4.9zm-239 387 2.5.1.7-.1zm-9.4-2h2.6zm-10.7 0 3.5.2q1.7 0 1.1-.2zM143 9.7h-.8zm44.1-2s.1 0 0 0m125.8 8.9V18zM9.7 279.9l.1 1.3zM79.6 413h.7l-1-.1-.6.1zm232-213.2v.5zM9.6 310.1v1zm300.8-51.2-.1.8zm-.1 25.4-.1 3.6zm-.2 19.6.1.4zM295.8 9.7h-.8c-1.7.1-.5.1.8 0M311 85.4l-.1-3q-.2 2.7.1 3M192.4 9.8h-.6zm118.5 68.3v4.3zm-1.1 311.5v.1-1.1zm0 1.2v-1zm.1 2.2-.1-2.2zm0-30.5.1.3zm.1-7.6-.2 7.3.1.2c-.2-1.1.2-5.7.1-7.5m1.3-26.2c.1-1.2.3-2.7.3.3.4-8.3-.3 1.7-.2-6.9zm.5-26.9c-.1-2.2-.1-2.8-.2-.1 0 3.5.1-.1.2.1m.1-148 .3.4c0-2.7-.1 0-.3-.4m-1.3-28.2-.2 2.7.2 1.3zm2-16.7v1.2l-.1-4.6zM163.7 7.2l.8.3c1.9-.1 2.2-.4-.8-.3m-107.2 0c-1.2-.2-4.2-.3-6-.1 2.4.1 4.8.2 6 .1M7.1 281.7l-.1-2.1.1 4.1zm309.7 121.8c-.2-2.5-.5-5.4-.8-3.7.3 2.5.2 3.1.6 5.7 0 2.1-.1 3.7-.3 3.3.1.7-.1 3.3.1 4.4q.4-4.3.1-9.9c.1-.7.2.1.3.2m1-205.4v-1.3zm.5-129.5.1 1.4q0-1.5-.1-1.4m.5-21.9V48zm-1 150 .1-3.4c-.1-.2 0 1.8-.1 3.4M316 375l.1 1.9v-1.7zm2-121.8v1l.1.9zm-.1 43.4q-.1-1.3-.4-1.7l.2 2.1zm-.7 69.1v-.4zm.1.8v-.8zm.8-144.3.1-.4zm-51.6 194s.1.1 0 0q.5 0 0 0M319.3 6.7v.2zM1.5 52.3c.3-4.2.3 6.8.6.5-.1.6-.4-5.7-.6-.5M316 373.9v-1.8zM229.6 2.2l-.9-.1zm67.8.5h-1.7zm-105.2-.3h-1.8zm0 0h.7zm-36.4-.1.7.1h1.2zm-2.1 413.8 1.7.3c-.6-.2 4.9-.3-1.7-.3M316.2 375l-.1-1.1v1.2q0 .3.1-.1M191.5 4.8l-5.9-.1zM3.4 303.7v-1.4zm164.7-299-4-.1zm148.7 17.4v-.5zM303 4.5l-1.9.1h-.3l-2.1.1c2 0 4.5.1 4.3-.2m13.6 390.1v-.7zm-130-392s.1 0 0 0M46.7 418q-.2 0 0 0M319.4 22.2l-.1-3.2c-.1 3.4-.5 8.6-.2 14.6-.1-1.6-.3-4.8-.4-.7.1 6.6-.1 1.5-.3 5.3 0 6.5.5 1.1.3 10.8 0 1 .1.1.2-1l-.1 15.4c.1-2.1.1-3.3.2 0-.2-1.6-.2 5.2-.3 7.7l.1.6c-.1 2-.2-.1-.2-1.8l.1-1.7c-.1-3.1-.6-2-.6 3 .1 5.3.5 4.5.6 3.6-.2 7.1.6 6.7.4 13.5 0 1.6-.5 6.8-.6 11.7.3 2.6.2-6.2.5-3.3-.7 8.2.4 17-.1 27.8l-.4-1.4v7.8l.2-3.7c.1 2.5 0 8.4-.3 6.5.3 5.7.1 6.9 0 12.2 0-5.6 0-.1-.1-4.2-.2 5.9-.1 6.3 0 10.4-.1-.7-.3 1.5-.3 3 .2 3.8.2 10.3.3 15.7h-.1c.1 8.9-.4 18.6-.1 27.6v.4-.7c.3-3.1.2 7 .4 9.7-.1.6-.2.9-.2 2.4.3.1.2 3.5.3 4.8-.1 3.1-.4-.4-.4 4.9 0 2.1.2 2.3.3 2.1a64 64 0 0 0-.3 7.3v-3.1c-.2-.4-.1 1.5-.3 1.5 0 2.5.3 1 .2 4.1l-.2-2.9.1 3.5c-.1-1.9-.3-1.6-.5-1.4.2 7.2.7 1.4.9 1.8-.2 6.8.1 12.2.1 17.5l-.3-1c0 2.6.1 3.8.2 4.8v4c-.1-2.3-.2-3.1-.4-3.2.1 4.2 0 10.1.4 11.2l-.1-.2c-.2 5.6-.3 17.4-.4 17.1.1 6.1-.1 13.8.3 13.9.1 3.6-.5 9.4 0 12-.3 4.3-.1.2-.4-1.1-.3 4.3.4 8.7-.2 10.1.2 5 .1-1.2.4.5-.5 1.1-.1 9.3-.4 14 .2 2.1.1-2.1.4 1.5-.1-.4-.2 1.6-.2 2.5l.3.9-.8 4.8c.4 7.1.6-1.4.7 8v-.6c-.3 2.6.2 6.7 0 13.6.1-2.3-.2-1-.2-1.7l.1 3.8q0-.6-.1-.1c-.3 3.3.1 2.9-.1 6.8-.1-2.7-.3-1.9-.4-.7l.4 5.6-.4-2.3c0 5.4.6 13.5 0 16.2l-.1-2.7q-.3.1-.2 5.5c0 .9.2 1.5.3 1l-.1 2.1c-.3-1.3-.4-8.1-.4-12.3.1 1.3.2 4.6.4 3.6l-.4-11 .4 3.1c.2-4.1-.2-3.1-.2-6.2.1-1.2.2-2 .3-1.2v-11s.2 4.6.4 2.1c-.2-7.5-.5-9-.7-17.1-.5-9.4.3-18.2 0-24.8-.1-.4-.2 4.9-.3.6.3.7.2-2.5.3-2.8-.4-4.6.1-6.8-.2-10 .1.8.2-1.9.3-3.7.3.5.1-5.1.6 1.6-.5-6.9.2-12.2-.6-17.3l-.1 1.8.2-6.9v.3c.1-3 0-3.5.3-7.5l.1 6c.3-3.7-.2-7.7-.2-11.8.2.2.1 4.3.4 3.1l-.2-8.1.1.4c.3-7.2-.6-2.8-.2-8.1-.1.2-.2-.5-.2-.2.1-2 .4-6.6.5-2l-.2-6.6c-.2 2.1-.1 2.7-.4 3.5l-.1-10.1.1 2.3c.7-11.9-.5-24 .3-37.4-.2 1.5-.2-1-.3-2.3.1-4.3 0-10.9.2-14.9l.1 1.3c-.2-10.3-.4-17.5-.3-24.3l.2 1.3c-.3-5 .6-11.1 0-12.5v1.9c.1-10-.3-21-.3-31.3.3-2.4 0 5.9.4 3.8.2-7.1-.1-14.4 0-22.2l.1 1.6c.2-7.7-.3.9-.3-5.7.2.4.2 0 .3-2.1l-.3-1.9q.2-.6.3.7c-.4-2.9-.1-11.6-.4-13.9.1-.6.4 1 .5.1.1-3.5 0-5.8-.1-8.2.2-2.4.2-8.4.3-7.1.1-6.2-.2-1-.4-5.7l-.2 5-.1-8.8.2 3.5-.1-12.8-.2 2.1-.1-5.3c.4-.5.1-6.8.6-3.9.2-9.8-.3-16.1-.3-24.9 0 .9.1.5.1.8.1-5.3-.1-8.4-.3-11.6l.3 1.9-.1-4.9-.1-1.7-.1-1.3V5h-.4l.5-.2-.7-.1c.4.1-1.3.2-2.5.3 5.1-.8-7.4-.4-4.6-.9-1.1.2-9.9.5-8.2.8l-31 .1c1-.1 5.4-.2 2.6-.3-10.9-.1-17.2.3-28.2.4-.5-.5 11.9 0 12.3-.5q-17.2.1-36.3.5c-4.5-.8-12.6.3-20.5-.3.8.3-3.2.3-7.5.3 1.5-.2-3.1-.2-1.8-.4-3.8.2-14.7.3-14.3-.2-1 .5-8.1 0-11.3.3-4.8-.2-10.3.1-16.3-.1 1.9.3-4.4.2-7.3.2q.9 0 .7-.1c-1.8-.3-6.9.2-10.3 0-1.5-.1.4-.3-2.1-.3l-5 .3-7.5-.1c1.6 0 1.6-.1 2.5-.2-16 .3-33.1-.2-49.4.2l2.9-.3c-10.2-.5-6.7.6-14.8.5l-28.2-.6-13.9-.2L4.1 4v10.2c.1 1.6.1-.9.3-1.2 0 1.9-.3 2.4-.2 5l.2-.6c-.5 9.9.3 28.5-.5 35.8.3 9.4-.3 16.1.1 27.5-.2 3.6-.3-4.2-.4.7L3.9 92v-.6c.5 10.2-.7 27.1-.3 39.9v-.5c-.1-.3-.3 2.4-.3 4.4.1.7.1-.7.3-1.9l.2 23c-.2-3.9-.2 3.6-.5 4 .2 2.4.3-1.4.4 3.9q0 11.4-.4 20.8c.2 2.5.2 5.9.5 6l.1 23.7-.1.3c.4 2.8-.2 9.1 0 11-.1-.3-.2-1.4-.3-1.1l.1 4.8c-.1-2.2-.5-3.5-.5.4.3 4.1.2-1.1.4.9l-.4 1.2c0 3.1.4 3.9.5.2v30.1l-.2-1c.1 5.2.1 12.1-.2 15.2.1.1.2 1.4.3.6.3 5.7-.3 1.4-.1 6l-.2-2.7.2 12.6-.3 4.6c-.1 2.6-.2 5.8-.1 8.5.1.2.2-1.3.3-2.7l.1 3.4-.4 2.6.3 4.9-.3.1c.1 3.6.5 5.1.4 8-.2 11-.3 8.8-.7 16.6.6.9-.1 12.4.4 14.4-.5 10.4-.2 25.5-.4 39.2l-.1-1.1c-.3 5.8.5 6.7.3 12.9l.1-1.4-.2 6.4v6.4l7.8-.1 7.4-.2q-2.2.2 1.7.3c2.1-.1-2-.4 2.3-.3-1.1.1-.2.2.8.2l4.3-.3c11.2.2 24.3.5 35.9.3 2.1.1.6.2.1.3l26.6-.3.8.4c4.1 0 2.5-.6 7.8-.2 1.2.1-3.5 0-4.9.2 8.1.3 4.8-.3 12.6-.3l-2 .4c6 .3 6.8-.2 9-.4 8.4-.5 5.9.8 17.3.5 1.8-.2-.6-.3 1.2-.5 8 .1 9-.2 17 0 4.3.6-4.1 0 .6.6l-6.1-.2c5.3.3-4.8.1-4 .4 3.9.1 9.9-.2 15.1-.3 0 .3-6 0-3.6.4l2.6-.1c-.7.1-.9.2-2.4.2.9.3 3.1 0 5.6 0q.3-.2-.8-.5l.7.1c5.2-.4 13.9-.1 18.3-.4-.7.1-.1.1.1.2 3.1 0 6.3-.3 10.5-.4 2.3.2-1.3.6 5.4.5 1.2-.2-1.8-.6 3.8-.6 0 0-4.9.2-2.3.3 5.5-.1 1.8.1 6.8.3 2.9-.3 5.5.1 6.1-.4 1.8.4 1.3.2 4.8.5-1.5-.3 6.6-.3 6.3-.6 1.4.4-5.9.5-1.3.9 3.1-.3 8.9-.3 9.4-.8 2.4.1 3.5.3 7.2.3l-1.7.1c6.6-.3 16.3 0 20-.5-1.3.6 14 .1 9 .7 2.7 0 7.1-.3 8-.4-.3.5 6.8.1 9.8.4 1.5-.3 6.5-.2 9.5-.3q-2 0-1.6.3c3.4-.2 2.5 0 5.4.2 4.6-.1-.8-.4 1.9-.6 3.9.1.6.3 1.3.5l5.9-.5q1.8 0 2.5.3c2-.1 3.8-.3 6.7-.1h-5l1.9.2 6-.3q4 .2 5.2.4l-.1-2.4.4 1.5v.9c1.2.3.4.5 0 .8v.1h.5l-.5.1q0 .3-.1 0h-.2l.1-.2-3.5.1c.1.2 2.5.3 4.1.3 1.4.1-5.6.5-9.5.6-10.3-.1-2.1-.6-9.2-.7l-9.1.3-.1-.2-2.7.1c.6-.2-7.4-.1-11.1-.1l1.3.2c-10.3.5-16.3-.6-24.4-.3l-5.7.4-1.2-.3c-3.4.2-4 .4-9.5.3-19.4-.6-40.2 0-59.8-.4l2 .1c-17.2-.9-26.9.8-42.5.1l1.1-.1c-7.9 0 1.1-.1-4.7-.3-1.1.4-10 .3-14.6.4l3.6-.1c-.9-.1-1.2-.3-3.5-.3-5 .6-15.9.5-23.9.6-1-.3-7.9-.5-11.5-.9l-3.7.5q-4.2-.2-7.1.1h6.5-.2 3.3c3.2.3-.2.2 0 .5-2.6 0-8.1.1-8.7-.2l-4.3-.1h-3.2.5l-.7-.1c-5.1-.1-12.4.3-16.6.5 4.2-.4-1-.4-1.1-.7l10.3-.1c-5.6-.3-9.6.2-17.9 0 .5 0 1.6-.1 1.2-.2a29 29 0 0 0-6.2.3c-.7-.3-6.9-.5-10-.4-2.7.2-2.3.3-7.2.3l2.2-.2c-5.8-.2-4.7.3-9.5.1q2.8 0 .6-.2l-5 .1-4.3.2-.1-1.5-.1-1v-.8l.1.4.1.6-.1-4.6-.1-4.9.1-5.5c-.5.7-.2-11.5-.2-15.8 0 1.5.1 1.8.2 2-.4-9.4 0-19 0-28.5l.5-1.5c0-5-.9-6.5-.9-11.9l.2 2 .1-21.3.3.2c-.1-2.8-.1-6.3-.3-9.1.8-6.4-.3-25.3.5-36.9l-.6-.7c0-4.5-.1-10.2.4-12.3v1c.4.4 0-4.5.1-7.2 0-2.1-.3-4.2-.4-2.4.3-11.8.1-29.5.6-36.8-.2-11.9-.6-20.8-.5-33.7l.1.2c.1-4.3.3-13 .7-13-.1-9.2-.7-15.1-.5-26.1l.2 2.4c.1-2.8-.1-7.3-.2-8.4 0-1 .1-.3.2-.1.2-2.6-.1-4.2-.1-6.3l.2.9c.3-8.8-.3-22.6-.2-33.9 0 2.1.2 1 .3.1-.3-4.7-.1-17.4-.2-22.1l.2 2.9c-.3-9.2.6-8 .2-17.1l-.3 5.2c.1-3.7 0-6.9-.2-6 .2-4.3.4-.5.5-7.1.1-.2 0 4.8.2 2.6l.4-9v-.6.6-4.4c-.7.8 0-7.5-.7-3 0-12.8.4-23.6.2-34.6l.3-3.3.1-2.2V2h5.6a55 55 0 0 1 7.9.5l11-.4c1.6-.2 9.1-.2 12.2-.2-4.1.2-10.7.3-13.9.6l16.7-.4 1.5.4c4.8-.3 4 .4 8.8-.1l-.9-.1c8.7.1 8.8-.4 17-.4l-.4.2c2.8.1 6.9-.3 9.7.1h-5.3c.5.3 4.6.4 6.4.6 5.6-.1 2-.5 4.8-.5 1.2.3.3.1-1.7.4 6.3-.1 14.7-.2 19.2-.5.3 0 0 .1 0 .1 6.5.1 12.3-.4 16.3-.2h-1.3c5.2.4 13.5-.4 14.6.3 2.5.1-5.6 0-1.7.3 7.8.2 5.1-.6 12-.4l-1 .1 17-.1c6.7.7 20.5 0 28.2.7-2.3-.2 1.3-.3 1.9-.3q-.2 0 .1.1c2.8 0 3.1-.2 4.2-.3 2.3.2 7.8-.2 9.2-.1l4.8-.1c-5 .2-1.6.3-3.9.5 7.5.1 8.6-.6 16.4-.5l4.3.3c.9-.4 8.1-.2 7.9-.4 1.3.1 3.3.2 3 .4 3.1-.1 7.8.1 9.1-.1l-3.1-.1c9.6.2 15.4-.4 22.8-.1l-.2.6c4.9.3 9.1-.3 13.4.1-1.5-.2-1.8-.2 1.3-.4l-8.5.1 6.6-.4-10.3.2c4.4-.2 4.1-.2 2.3-.4 6.3-.2 6.8.3 12.8.1 2.2.1-.1.3 2.4.5 5.3-.2 10.2.5 14 .2 1.2.1-2.2 0-1.9.2q5.3 0 6.9-.2l-3-.1c2.6 0 3-.2 8-.1 2.9-.1 4.5-.4 1.4-.5 1.3 0 4 .1 3 .3 3.1 0 4.3-.1 5.1-.2l1.2-.2 3.3-.1v4.7c0-.5 0-1.1-.1-.8v3.2c0-1.6-.1-1.2-.2-.9q-.1.4-.1-.1V4.6l-.1.8-.1.8v7.1c.2 3.8.5.4.6 2.3L319 19l.3-1.8zM72.7 418.4l2.6.1.7-.1zm-9.8-2.1h2.7zm-11 0 3.6.2q1.7 0 1.1-.2zM141.1 4.6h-.8q.3.1.8 0M3.5 283.5l.1 1.3zM319.1 9.1v1.5zm-240.7 409h.7l-1-.1-.6.1zm239.4-220v.4zM3.5 314.7v1zm313.1-55.6-.1.8zm-.2 27.5v-1.2zm0 0v1zm0 1v1.5zm-.1 17.9.1.4zM298.8 4.7h-.8c-1.8.1-.6 0 .8 0m18.4 75.4-.1-3.1q-.2 2.8.1 3.1M192.1 4.8h-.6zM317 72.6V77zM315.9 394v.1-1.1zm.1 1.2v-1.1zm0 2.3-.1-2.3zm0-31.5.1.3zm.1-7.8-.2 7.6.1.3c-.2-1.4.3-6.1.1-7.9m1.4-33.9-.1 6.8c.1-1.2.3-2.8.3.3.4-8.6-.2 1.8-.2-7.1m.3-21.1c0 3.7.2 0 .2.2-.1-2.4-.1-3-.2-.2m.3-152.5.3.4c0-2.9-.1-.1-.3-.4m-1.3-29.2-.2 2.7.2 1.3zm2-17.2v1.2l-.1-4.7zM162.4 2.1l.9.3c1.9-.1 2.3-.4-.9-.3m-110.5 0c-1.2-.1-4.3-.2-6.2-.1 2.4 0 4.9.2 6.2.1M.8 285.3l-.1-2.2.1 4.2zM186.2 40.9l.2-.3c-.1-3.1-4.5-4.3-6.6-2.3q-2 1.8-4.5 1.1a9 9 0 0 0-4.5 0q-.7-.9-1.4-1.5c-2.4-1.5-5-2.1-7.7-1q-1.2.6-2.5 1-1.8.4-3.5 0-2.4-.5-4.7-1.4-1.5-.4-2.9.1a7 7 0 0 0-4.9 5.1q-1 3.3-.2 6.6c-1.3.1-5.6-.5-7-.9-2.5-.7-5-1.5-7.6-.8s-4.9 1.8-5.7 4.7l-.7 1.3c-2.9 1.5-5.6 3.2-6.5 6.5l-3.4.6-8.6 1.4-7.3 1.2-6.4 1-7.1 1.2-6.6 1-6.8 1.2-6.7 1-7.5 1.3-6.4 1.1-6.8 1.2-6 1q-2.1.5-2.4 2.7v1.1c.2 4.7-.1 9.3.3 14 .4 5.3 0 10.6.5 15.8.4 4.4 0 8.9.4 13.3.4 5.1 0 10.3.5 15.4.4 4.4.1 8.9.4 13.3.4 5.9.1 11.8.5 17.7l.1 8q0 2.8 2.4 4l1.9 1.1q13 6.5 25.8 13.4 3 1.6 6.3 3l11.5 5.8 13.8 7.1c2.3 1.2 4.6 2.5 7.2 3.1q1.5.5 3.1.2l7.6-1.7 19.3-4.8 22.8-5.5 20-4.9 9.6-2.3 11.7-2.6 20.6-5.1 11.7-2.8 8.9-2.2 21.5-5.2 10.4-2.4 11.1-2.7q1.8-.3 3.1-1.8v-35.2c-.1-11 .4-22.1-.3-33.1-.4-5.8.2-11.6-.4-17.4-.4-3.4-.3-6.8-.6-10.2q0-3-3-4.3l-15.6-5.5-14.1-5q-.8-.2-1.4-.8-.9-.9-2.1-1.2l-4.9-1.6-10.7-3.2-3.2-1.1c-5.5-1.7-10.6-4.4-16.4-5.1q-2.4-.2-4.7-.1-1.6.1-3.1.4l-2.1-2.2q-1.6-1.6-3.3-2.9c-2.4-1.6-5.1-1.1-7.7-.6q-3.1.8-5.5 2.7l-.8-.7zm12 24.2-.5-.4-.5-.5-.5-.5-.5-.5-.5-.5-.9-.5-.8-.1.1-.3.6.4.9.5.5.5.5.5.5.5.5.5zl.4.5.3.2-.3-.2zm-36.5 27.7.9.5h1.9c3.2-2.5 4.7-5.7 5.4-9.4l.4-2.6q.6-5.2-2.7-9.4l-.8-.1.1-.3.7.4h.9l-.3-.8c7.1 1.8 6.6 2.1 9.2 7.1.4-1.4-.7-2.4-.7-3.6l-.4-.2.3.2 1 .4-.4-1.2 6.2-1.9 1.3.6c2.7 5.3 2.3 10.5.1 15.7l-.5.9a6 6 0 0 1-2 3.6l-3.4.3 2.2-1.2-.3-.4c-1.5.6-3 .2-4.6-.3l1.1-.4c-1-.3-1-.3-1.6-.1q-2.3 1.4-4.8 2.3c-2.7.9-5.5 1.7-8.3.1zl-.4-.5-.4-.5-.5-.5-.4-.7.2-.1.1.8.5.5.5.4zM185.9 66c.4-1.4 1.8-1.2 2.7-1.8l.5-.5.2-.3-.2.3-.5.5.1.9 1.5-1.2 2.2 1.1 1.2-.7.5-.5.2-.3-.2.3-.5.5-.4 1.7.9-.3.2-.4-.2.3.1.9 2-1.8a6 6 0 0 1-3.2 3.4l-.4-.6-2.1 1.1-.5.4-.2.3.2-.3.4-.5.4-1.4-.9.4-.4.5-.2.3.2-.3.5-.4.5-2.1-2.1 2.4-.3-.2 1.1-2.1-1.6 1-.5.5-.5.4-.2.4.2-.3.5-.5.5-.5-.1-.8-1.3.8-.2.4.2-.3q.3-.4-.3-.7l-.5.4-.5.5-.5.5-.2.4.2-.3.5-.5.5-.5zm-9.3-.6.2-.3.2-.3-.2.3zm7 1q.3-1.5 1.8-2.3l.5-.5.5-.5c1-1.7 2.9-2.1 4.5-2.6 1.1-.3 2.3-.8 3.5-.2l1.6.1c1.4-.9 2.9-.3 4.3-.4q.6.1 1.1.4l.9.5q.6-.1 1.1.1c1.1.7 2.4.6 3.5 1.3v-.5l-.5-.5-.3-.2.3.2.5.5.9.1.1-.1-1-1.3q-.2-.1-.1 0v.1h.9v-.5l-.5-.5-.5-.5-.4-.2.3.2.5.5.5.5h.5v-.9l-.4-.5-.4-.2.3.2.5.5.8-.1-.4-.9-.4-.5-.8-.1.1-.3.7.4.5.4q1.8.1 2.6 1.6 2.6 3.3 4.1 7.2c.9 2.2.2 4.2-.6 6.2l-.5-.8-1 1.7c-.9.4-1.9.5-2.1 1-.4.8-1.2.5-1.8.9v.5l.8.1-.1.3-.7-.4h-.5l-.2.3.2-.3.5-.5v-1.4l-1.4 1.4-.9.9-.4.9-.3-.2.8-.7.5-2-.3-.1-.4.6-.7-.8-.5.5.4.7-.3.1-.1-.8c-.6.7-1.5 1-2 1.8l-.8-2.6h-.3l-.1 1.7.3.2-.3-.2h-.5l-.1.8-.3-.1.4-.7c.2-2.3-.6-4.4-1.4-6.5l-.4-1.3-.5-.5-.5-.9-.3-.2.3.2.4.9h.5a8 8 0 0 0-5.6-6.4l-.6-.1-.4-.2-4 .5-3.4 1.7-.5.5-.5.5c.2 1.2-.7 1.7-1.5 2.3l-.5.4-.5.5-.5.5q0 1-.9 1.4l-.5.5-.5.5-.5.5-.5.5-.5.5-.2.3.2-.3.5-.5.5-.5.5-.5.5-.5.5-.5q0-1 .9-1.4l.5-.5.5-.5zm-38.2-1.9c-.9.1-1.3-.7-1.8-1.2l-3.7-3.2-.8-.2 3.8 3.7 2.7 3q-1.6-.7-2.9-2l-2.5-2.3q-.5-.4-1.2-.5l3.8 4.4q-.6.3-1.2-.3l-3.1-3-1.3-.7 3.2 3.7.4.2-.3-.2c-1 .1-1.4-.8-2-1.3-1-.8-1.7-1.9-3-2.3l.4.9 1.4 1.8q1 0 1.4.9l.3.2-.3-.2q-1 0-1.4-.9l-2.4-1.3-.2.2 1.7 2.1.8.1-.1.3-.6-.4q-1.6-.5-2.8-1.7c-1.2-1.2-1.7-1.7-3.1-1.5l.4.9.9.5.3.2-.3-.2-.9-.4-4.1-1q-3-.9-5.9 0l-1.3.1-.9.4-4.6 3.2-.5.9v3.1l.6 2.6.4-1.5c.7.7 1 1.7 2.1 1.7l-1.7-2.2 1.2.4v-.9l-.3-.2.4-.2.5-.9v-.5q-.9-.4 0-.9l.1-1.3.8.8.1-1.2 1.3 1.2-.5-2 .3-.1 1.5 2.6.4.2-.3-.2-1.4-.5v.9l.4.2-.4-.2-1.4-.9.9 1.9.3.2-.3-.2h-.9l-.2.4-.2-.4h-.5v.9l.9.5q.2.1.1 0v-.1h-.9c.6 1.3 2.1 1.3 3.1 2.1-1.3.5-2-.9-3.1-.8l2.3 1.9-2.3-.5 1.4 1.4.8.1-.1.3-.7-.4-2.2-.4.3.9.8.1-.1.3-.7-.4a5.3 5.3 0 0 1-3.4-6.4q.2-.7.6-1.3l.5-.9q.4-1.6 1.8-2.7l2.3-2V60l-1.3 1.2V58l1.8-1q4.6-5.2 11.5-3.7 5.4 1.3 9.8 4.8l8.6 6.9 1.5 1.7.9.5.5.5.3.2-.3-.2-.5-.5-.9-.4-1-.4-6.3-5.3-1.3-.7 2.7 2.9zl.4.5.4.5q1 0 1.4.9.3.1.1 0v-.1q-1 0-1.4-.9l-.5-.5zm32.5-.9.2-.3.2-.4-.2.3zm-5.3 5.7-.3-.2-.5-.4q-.7-.2-.9.5l.3.2-.3-.2c-.3-.1-.7-.5-1-.4-1.7.4-3.3-.4-4.9-.1l-.5.8-.8-.2-1.7 1.1.2.6-4.2-1.5-.1.3.8.6c-1.8-.1-3.2-.3-4.1-2.1l2.5-.2v-.8h4.3l-.1-.3 3.6-1.3-.2-.5c1.4-.2 2.6-.9 4.1-.6s2.9.8 3.5 2.3q1.7.4 2.3 2.1l-.9-.3-.3.3-.1-.3c-.5 0-.9-1-1.4 0l.4.5zm1.7-7.1.2-.3.2-.4-.2.3zm12.2 9.4-.2.3v.5l.8.1-.1.3-.6-.4-.3-.1.3-.3zM144 73.1l-1.4 1.8-.5.5-.5.9-.2.4.2-.4.5-.9.5-.5-.4-.6a8 8 0 0 0-2.2 4l.3.2q.2-.2 0 0 .2-.1 0 0l-.9 1.8q.2.1.1 0v-.1q-1.1.8-1 2.1v2.8c-.8-1.3-.8-1.3-1-3.8l-.3 1.5q0 .6-.4 1.4l-.7-3.4h-.2l-.2 2.8h-.2l-.5-3.9c-1 .2 0 1.5-1.1 1.8-.6-1-.1-2 .1-3-.8.7-.8.7-1.1 3.8l-.6-2.1.2-2.3c-1.4.9-.4 2.4-1.2 3.7l-.2-4.8c-.8 1.5-.8 1.5-1 4l-.5-2.8c-.1-1.1.2-1.6.2-2.4l-.5.8-.4.6-.1 2.2c-.1-.7-.7-1.5.1-2.2l-.1-.7c-1.2.1-.7 1.2-1.1 1.9l-.4-1.2c-1 1-.7 2.3-.8 3.5l1.1 1.4.4-.7c.5.1.4 1.5 1.5.8.2-.1.9.5 1.6.9l-.8.2q-3.6-1-7.3-.9a4 4 0 0 1-3.1-1.4l1.2.3q2.1.8 4.2.5l.2-.4-.5-.9-1.3-2.6-.3 2.8-.9-3.2h-.2l-.2 2.8-1.1-3.2-.4 2.2-.4-2.3-.4 2.1-.6-1.5-.3 2.3c-.7-1.7-.2-3.3.3-4.7a16 16 0 0 1 7.4-9.2h.2l.9-.5c.8-.9 1.8-.5 2.7-.2l4.1 1.6-1.3 1.1.2.3 2.9-1.2-.3 1q.7.5 1.3-.1.9-1 2.1-.4l-1.6.9.1.3 2.6-.4.1-.8q4.4-.6 9.2 1.2-.8.3-1.2.2l-2.7-.1-1.8 1.3.1.3 1.3-.5q.6-.4.8.3l.8.1v.2l-.8.1-1.8 1.4-.5.5q.4.6 0 .7m13.6.3-.3-.2-.5-.5-.9-.5q-1 0-1.4-.9l-.9-.5-.8-.1.1-.3.7.4.9.5q1 0 1.4.9l.9.5.5.5zM195.2 59l.2-.3.5-.5 5.3-4.2.2-.4-.3-.2.3-.2.2-.3.2.4h.5l.5-.5.5-.5.5-.5.1-.8.3.1-.4.6-.5.5-.5.5-.5.5v.5h.9l.5-.5.5-.5.4-.5.2-.4-.2.3-.5.4-.5.5v.5l1.4-.5.5-.5.5-.5.1-.8.3.1-.4.7-.5.5-.5.5.4.5c1.4-.6 1.8-1.9 2.4-3.1v2.2h.5l.1-.8.3.1-.4.7v.9l.9-.4.1-.3.3.3.9-.3-.4 1.7 1.3-.8-.4 1.7 1.4-1.3v-.6l.2-.7c.2.5.5 1-.2 1.3l-.6 2.2 1.1-.4.5-.9.1-1.4q.7 1-.2 1.4l-.4.9.1.9 1.3-.8.1-.8.2.1-.4.7c.1 1.4-.8 2.4-1.5 3.7l-2.1-2q-1.9-1.8-4.4-1.7-1.2.1-2.3.7l-3.5 2h-1.8l-1.6.3-1-.7-.5.5zm-41.6 15.5h.9V74l-.4-.2.3.2.5.5h.9l-.9-1.4-.5-.5-.9-.5-.5-.5-.8-.1.1-.2.7.4.5.5.9.5.5.5q1.5.3 2.3 1.8l3.5 2.3c-2.8-.1-5.4-1.3-8-1.9-2.7-.6-5.4-.8-8.2-1.5q.5-.3 1-.3 1.8.3 3.5 0l.2-.3.2.3 1.8.5.2-.3.2.3 1.4.5v-.5l-.4-.2.3.2zm39.8-18.6.2-.3.5-.4.5-.5.5-.5.5-.5.2-.3-.2.3-.5.5-.5.5-.5.5-.5.5zM79.5 146.5l.2-.3.2-.3-.2.3zm-1.3 0 .2-.3.2-.3-.2.3zM197.1 55l.2-.3.5-.5.9-.5.2-.3-.2.3-.9.4-.5.5zM80.6 142.2q-.2 0 0 0l.2-.4zm116-89.1.2-.3.5-.5.5-.5.2-.3-.2.3-.5.5-.5.5zm4.9 24.4-.2.3-.2.3.2-.3zm12.7-26.2.3.2.3.2-.3-.2zm-85.4.3.2-.3q.2-.2 0 0h-.1q.1.2-.1.3m70.1-.3.2-.3.2-.3-.2.3zm-66.6-.9-.5-.5q-1 0-1.4-.9a10 10 0 0 0-4.1-.5l-.9.5-.5.5-.5.5-.5.5-.2.4.2-.3.5-.5.5-.5.5-.5.9-.5c2-1.4 4.2-1.1 6.4-.6q2.5.5 4.2 2.3l.8-.4 2.1 1.8.1-.9-.4-.2.3.2.9.4v-.9l-.5-.5-.4-.2.3.2.5.5.8.1.1-.1-.4-.7q2.4-.4 4 1.2l.5.5q3.1 1.4 4.1 4.7l.6 2.8L152 65l.4.2-.3-.2-.9-.9-1.4-1.4v.9l.3.2-.3-.2-.4-.9-.5-.9-.9-.5-.2.3-.3-.3-.5-.9-.9-1.2-1-1.1v.9l.4.2-.3-.2-.5-.9-.5-.9-.5-.5-.9-.5-.1.1v.9l.5.9.3.2-.3-.2-.5-.9-1.4-.9-.3.3-.1-.3-1.3-1.2-.1 1.3.3.2-.3-.2-4.4-2.6a10 10 0 0 0-5.5-5.7l.4 1q1 0 1.4.9.7.1.9.4l.4.5.5.5.5.9.3.2-.3-.2-.4-.9-.5-.5zm13.1-9.6-.1.8-.3-.1zl.5-.4.2-.3.2.3.4.9 1.4-.4q.2-.2 0-.1h-.1c-.4.7-1.2 1.3-.9 2.3h.5l.1-.8.3.1-.4.7v3.5h-.4v-3.5q-.3.3-.4.7l-.2 2.2c-.7-1.8 0-3.2.1-4.7h-.5l-.5.9v4.9h-.4v-4.5l.4-.4c0-.4-.1-.8.5-.9v-.9h-.5zm-50.8 78.5.2-.3.2-.4-.2.3zm28.8-51.5-.1.2-.6-.4-.9-.5q-1.8 0-1.8-2.5l1.8 2.5.9.5zM91 159.4l1.3 1.4.9.9.1-.1c-.4-1.9-1.8-3.2-2.8-4.8s-1.6-2.9-2.5-5l3 2.9-1.4-2.9-2.6-4.1q-.9-1.5-1.4-3.4l1 .4q.2-1-.9-1.4l-.2.4.2-.3-.9-2-.5-1.6-.4-.9q-.2-.2-.1 0v.1l.5.9 1.1 1 7.6 11 2.1 2.5q-.5-1.2-1.2-2.3l-4.5-6.9-3.8-6.8q-1-.3-.9-1.4l-.3-.2.3.2q.9.3.9 1.4l2.2 1.9q-.6-2.2-1.7-3.9l-.8-1.7c1.5.7 1.7 1.9 2.5 2.6l1 1.1-1-2.2-1.6-2.6.6-.7 1.1 1.4 8.9 13.1.7.5-.7-1.8-8.9-13.2q-.3-.5 0-1.3l3 3.6.2-.1q0-.5-.3-1l-1.8-3.3q-.3-.5.2-1.2l2.6 3.7.8.7c-.1-1.5-1.2-2.3-1.9-3.5l-1.2-1.8.8-.6.4.3 7.1 10.6q.5.6 1.2 1l-.4-1-6.9-10.2-.9-1.5.6-.8 1.3.8-.5-2.4 1.5.6-.4-1.5.6-.7.5.4L98 129l1.1 1q0-.5-.3-1l-4.2-6.2q0-1.2.9-1.4l.6-1.6.8.3c0-.8 0-1.5.9-1.8l.4-2 2.1 2.5c.3-1.4-.8-2-1.2-3l.5-1.1.9.3c-.3-1.8-.3-1.8 1-2.3l.5-1.8.9-.5.6 1.9c1.2-.2 1.2-1 1.1-1.7l-.7-4.4.3-.7.1-.1c.1-.5-.3-1.1.4-1.3l-.4-.8.8-.6v-.5c-1.6.1-2.1 1.5-3 2.4l-2 2.6-.2.4-.2-.4-6.4 9.4L83.2 133l-4.8 7.8q-.7 1.2-1.2 2.6l.1.1 1.9-2.7 9.6-15.4.7-.5.5-.9.5-.9q.1-.3 0-.1h-.1l-.5.9-.5.9-.8 2.5-4.6 8.8-.5.9-.3.3-.1-.3c-1.3 1.1-1.9 2.6-2.7 4l-4.7 7.9q-.2.4-.6.7-2.5.6-4.3-1.5l1.6-.9-1.6-1.3v-7.4l.4-.7-.4-3.8-.1-5.9c-.6-7.7-.1-15.4-.5-23.1l-.3-9.5c0-1.8-.1-3.6.6-5.4L90 97.5l4.4 6.4q.5.7 1.3 1.2l.1-.1-1.6-2.7c-.8-1.4-2.1-2.5-2.5-4.1l-.4-.2.3.2 1.9.5 1.7.4c-1.5-1.5-3.5-1.8-5.3-2.7l-11.8-4.8-4.4-1.7q-1-.4-1.9-1.2l1.1.1 13.8 5.3 7.7 3 1.3.2q-2.2-1.2-4.5-2.2l-10.1-4-.8-.6q-3.4-.5-6.4-2.3l-.8-.1.1-.3.7.4q3.4.5 6.4 2.3l5.3 1.5 5.7 1.9 1.3.2-2.5-1.4-12.5-4.9-1.3-.8 21.2-3.6 20.7-3.6q1.3 2.7 4 3.2 1.5.2 3.1.2c3.5-.3 6.4 1 9.3 2.7 2.3 1.3 4.6 2.4 7.3 2.4l2.6.6 3 .6-2.1-1.3 2.8-.8 5.7 2.4-6.7 1.4-12 2.2-9.5 1.4-8.2 1.3c-4.3.4-8.2 1.8-12.2 3.2h1.1c2-.8 4.2-.9 6.3-1.2l11.4-2.2 8.1-1.5 9.2-1.7 6.6-1 7.8-1.3 1.3.7-7.2 1.5-6.4 1-.2.3c2 .2 4-.4 6-.7l5.1-.7-17.4 10.6-15.1 8.9-8 5q-1.3.8-2.5 1.8l.1.1c2.6-.7 4.7-2.3 7-3.6l15.2-9.1 13.3-7.9 10.7-6.2 1-.5 3.7 2.2-4.3 2.4-14.2 8.6-6.7 4.1-.7.8 2.5-1 18.5-10.8 5.8-3.6h6.9q.2-.2 0-.1h-.1l-5.7 3.5-11.2 6.9-11.3 7.3-.9.9 1.5-.5 16.6-9.4 11.7-7.2 3-1.8h6.5l-15.5 9.4-13 8.1-3.3 2-.7.8 5-2.5 8.4-4.8 16.6-9.6 14.1-8.7.6 3.9-1 .7-14.3 8.5-9.4 5.8-14.5 9.1-.9.9 1.2-.4 13.4-7.9 11.5-6.6 13-7.6.9-.3v4.2l-10.5 6.4-7.9 4.8-11.7 7.2-8.3 5-10.6 6.4-16.2 9.7-8.3 5-6 4c.7.6 1.3 0 1.8-.3l10.4-6.2 12.9-7.8 16.4-9.9 12.7-7.6 13.5-8.1 11.5-7c.4 1.3.1 2.5.2 3.9l-7.6 4.7-9.8 6-12.6 7.9q-.3.2-.5.7l1.7-.6 6.6-3.8 12.7-7.6 6.7-4 2.7-1.6v4.5l-9 5.7-14.7 9.2-.4.5.1.1q2.5-1.2 4.9-2.6l13.7-8.1 3.6-2.2 1.7-.8v4q-1.8 1.7-4.4 3l-13.8 8.8-.4.5.1.1 4.8-2.5 13.5-8c.8 1 .8 1 .7 3.9l-12.2 7.9-10.3 6.4c-.8.5-2 .6-2.5 1.8 1.9-.3 3.4-1.6 5-2.5l11.4-6.7 7-4.1 1.6-.7v4.2l-9 5.7-13 8.4-.2.4.1.1 3-1.5 19.1-11.3q.3 2 .2 4.1l-3.2 2.1-12 7.6-16.3 10.4-.9.9 2.8-1.4 20.1-12 9.4-5.6v4l-8.2 5-26 16.5-13.3 8.4-.7.8.1.1 3.6-1.8 18.3-11.1 16.9-10.2 8.6-5.4.9-.4.3 3.9q-2.2 1.9-4.9 3.2l-14.2 8.7-8 5-12.3 7.9-7.9 5.1-12.1 7.8-.9.9v.1q.7-.1 1.2-.5l8.1-4.9 13.1-7.9 12.3-7.6 17.6-11 6.2-4.1 1.9-1.1v4.2l-8.2 5.3-10.3 6.5-15.3 9.9-4.5 2.9-.7.8 1.2-.4 13.3-8 14-8.5 10.5-6.6v4.2l-12.8 8.3-12.6 8.3-.9.9q1.3-.3 2.5-1l20.9-12.8 2.9-1.6c.4 1.5.1 2.9.2 4.3l-8.7 5.8-.9.9q.6 0 1-.3l8.3-4.9.5 3.2q.2 1.5-.8 2.6l.8.1v4.9l-7.8 5.1-6.8 4.4-.3.5c1.5-.1 2.6-1.2 3.7-1.9q5.5-3.3 11.2-7.2v5.6q-2.8 2-5.7 3.8-2.3 1.2-4.8 1.7-4.7 1.3-9.5 2.4l-1.4.1-.2.3-.2-.3c-4.6 1.7-9.4 2.6-14.1 4l-.9.1-.7.4-.1-.3.8-.1 1.7-1.3q3.7-1.8 7.1-4.2l2.2-2.2q-1.1.2-2.1.6-4 2-7.6 4.7l-1.4 1c-1.5 2-3.8 2.5-6.1 3.1l-8.4 2.1-1.8.2-3.9 1.3-20.5 5.4c-.5.1-1.3-.3-1.6.5 1.9.3 3.7-.6 5.5-1q8.5-1.8 16.9-4l17.8-4.3 12.4-2.9 12.3-3 1.6-.1.7-.4.1.3-.8.1q-.7.6-1.5.8l-20.8 5-14.3 3.5-16.1 3.7-11.7 2.8-8.2 2q-2.2.5-4.2-.4l-7.7-3.8q-.6-.5-1-1.2-1 .4-1.8-.2l-8.1-4.3-11.2-5.7c-.8-.4-1.8-.7-2-2.1l1.6.8c1.4 1.1 3.1 1.6 4.7 2.5l4.6 2.4 11.9 6.3.5.4 2.1 1q1.1.8 2.4.9l.1-.1q-.4-.5-1-.9l-11.9-6.6q-.6-.4-1.4-.6c-1.5-.5-1.9-2-3-2.8v.9l.4.2-.3-.2-2.3-.9-6.4-3.2-2.2-1.3V185l-.3-6.7 2.1 2.4.1-.1-2.2-4.3v-7.8l.8.4-.9-2.4c-.7-2.7-.3-5.5-.3-8.2l.3-.2c-.7-1.8-.3-3.6-.1-5.6l1.4 1.1.1-.1.4-.9-.8-.1.1-.3.6.4 2.8 2.8.2-.1-1.2-2.2.5-.7.8.4.1-.1c.1-.5-.3-1.1.4-1.3l.3-.3.1.3.5-.9c-.4-.5-.4-.5.3-1.3l.2.8.8.5.2-.2c-.1-.7-.6-1.3.1-2l.7.3v-1.9l1.3.5q-.3-.6-.4-1.3c-.1-.7.2-.9.4-1.6 1.7 2.7 2.3 5.5 3.2 8.1l4.4 12.6 2.8 8 2.9 9.2.1 1.4q.2.2.1 0v-.1l-1.4-1.6q.1 1.5.9 2.3c1.7 2.2 2.5 4.7 3.2 7.3s1.6 5.1 2.5 7.6l.6.8-.2-1.3-2.4-7.6-.1-1.1q-.9-.4 0-.9-1-2-1.8-4.3-2.5-8.3-5.2-16.4l-5.9-16.2-2.6-7.6q-.3-.7-.1-1.8l2.3 5.8 2.1 5.9 6.5 17.7 2.6 8.1 2.4 7.2.3 1.5 2.7 7.7 3.7 10.6q.1 1.2 1.3 1.8 1-.3.9-1.3c-.1-3.9.4-7.9-.3-11.8v-.7l-.5-14.5q.1-1-.4-2.1l-.1 25.2c-1.1-2.2-2.2-3.8-2.3-5.8l-.3-.2.3.2 1.4 1.5q-.3-1.7-1-2.4c-1-1.5-2.1-3.1-2.1-5.1q-.2-.2-.1 0v.1l.9.5.1-.1q-1-2.2-2.1-4a4 4 0 0 1-.6-2.3l-.4-.7.3-.1.1.8 1 .4c-.7-2.5-2.9-4-3.1-6.7l2.2 1.8q-1.2-3-3-5.6-1-1.2-1.5-3.3l2.8 2.9-1.4-3q-1-2-2.4-3.8-1-1.3-1.1-2.8l-.4-.7.3-.1.1.8 1.4 1.4.9.9-.9-2-3.1-5.2q-1-.7-1.1-1.8l-.4-.9-.3-.2.3.2zm-47.3-2.8c0 1.5-1 2.6-1.4 4l-.5 1.9.9-1.4 4.5-9.3.6-1.1 1 1-.6-2.2 4.3-10.3q.3-.7.2-1.3l-1 1.6-1.3 2-.5.9-.5.9-.5.9-.5.9-.5.9c-.1.5.2 1.1-.5 1.4l-.5.9-.5.9-.1.8-.3-.1.4-.7.5-.9.5-.9.5-1.4.5-.9.5-.9.5-.9.5-.9.5-.9.6-2.1 1.6-3.2.1 1.7.4.2c.8.6 0 1.7.6 2.4s.8 1.6.9 2.5c.2 1.1.4 2.5 2.1 2.5.4 0 .8.6 1.3.9q-.2 1 .6 1.6l.6-.4q.5.5-.2.8.6 2 .4 4.2v4.5l-.4.9q.6 1.8.5 3.7l.2 6.1-.6-.3c1 3.2 1.1 4.3.8 9.9l-.7-.4-.1.1 1 2.5v3.2c0 1.9.2 2.4.4 3.8l-10.3-5.2-6.1-3.1-2.7-1.6q-.9-.5-.8-1.5l-.4-.2.3.2L44 177l5.1 3 .3-.2 3.3 1.3c-.4-1-1.5-1.2-2.3-1.6a9 9 0 0 1-3.7-3.4c-1-1.8-1.9-3.7-3.6-5 .4 1.8 1.6 3.1 2.5 4.6l.7 1.3.4.2-.3-.2-6.4-2.9-1.1-2-.5 1 .7 2.2.4.2-.3-.2c-1.9-1-2-2.7-1.6-4.4q.5-2 1.3-4l4.1-9.2zl.5-.9.5-.9c.1-.5-.3-1.1.5-1.4l.5-.9.5-.9.1-.8.3.1-.4.7-.5.9-.5.9-.5 1.4-.5.9zm33.3-8.2q.2 0 0 0l-.5 1c0 1.2-1 1.6-1.8 2.4l-1.8-1.1c-.5-.1-1.1.2-1.4-.5l-.4-.2.4.2c.5.1 1.1-.3 1.4.5h2l1.7-1.4zq.1-.1 0 0m108.7-86.2.2-.3V61l-1 1-.9.8-.1.8h-.2l-.1-.8-1.2 1.4-.2-.9h-.5l-.1.8-.3-.1.4-.7-.1-.9-.8.4-.5.9-.5.9q-.1.2 0 .1h.1l.5-.9.4-.9v-1.4h-.5l-.5.9-.5.9-.2.4.2-.3.5-.9.5-.9.3-.3.1.3.5-.9-.3-.1.3-.3v-.9l-.9.9-.9.9-.5.9q-.2.2 0 .1h.1l.5-.9 2.4-4.4.4-1-.9.5-.5.5-.5.9q-.2.3 0 .1h.1V57l-1 1-.9.8-.5.9q-.2.2 0 .1h.1l.5-.9V58l-1.4 1.3-.3.3-.1-.3h-.5l-.2.4.2-.3.4-1.2c0-.9 1.4-.7 1.2-1.8-.1-.6.6-1.3 1-2l1.4-2q.5-1 1.2-1.9c3-3.9 6.3-7.5 10.9-9.5l4.4-1.5q4.6.8 6.4 4.5l.6.3-.1.4-2.5.3v.2l2.8.2v.2l-1.9.2v.2l2.8.8c.4.9 1 1.7 2.4 1.1l-.8-1.2-.4-.2.4.2c1.2.1 2.1.9 3.1 1.5l-.4.8 1.5.1q-1 .6-1.5-.1h-5.1q-1.3 0-2.6.6-4.6 1.9-8.2 5.3l-7 6.7-.5.9q-.2-.6-.2-.3m-94.1 58.5q.2 0 0 0l-.5.9-.2.4.2-.3zq.2-.2 0 0m88.1-62.4-.2.3-.5.9q-.2.2 0 .1h.1l.5-.9zM154 84.1l1.4-.5.7-.4.1.3-.8.1zl-.9.4-.7.4-.1-.3.8-.1zm-58.5 33.8.2-.3.1-.8.3.1-.4.7zm56-32.8.1.3-.8.1-.7.4-.1-.3.8-.1zm24.6-22.5.2-.3.5-.9q.2-.2 0-.1h-.1l-.4.9zm11.5 14.2q1-.7 1.4.1l1.5.1q-1 .6-1.4-.2zm-10.2-8.9-.2.3-.7.8c-.3-1 .4-.7.7-.8zM45.2 108.4l1.8 3.2.9.5-.1-.7c-1.7-1.4-1.9-3.5-2.6-5.4l-3.5-10.8-2.5-6.9-.5-.4-.1 1.3h-.2l-.1-1.3-.6-.8-2.2-6.8-.5-3.1-.6-.4c-.4-1 .1-1.9.7-2.9l4.4-1 10.6-1.8 9.5-1.4L69 68l9.5-1.4 8.6-1.4 4.4-.8 7-1.3 6.6-1 6.8-1.2 3.6-.5q-.2.7-.5.7l-4.4.9-13 2.2-11.9 1.9-8.3 1.6-6.4 1-5.9 1-.2.4 5.1-.5 7.5-1.3 6.8-1.2 6.2-1 7.5-1.3 6.6-1 6.8-1.2 3.1-.4c-3.9 6.1-4 6.5-3.2 9.7l-4.5.9-9.4 1.7-9.5 1.4-9.5 1.7-8.6 1.4c-2.6.5-5.4.6-7.7 2.1l-1.4.8-7.6-2.4-1.3-.2 1.7.9 6.4 2.4-1.1 1.8-5.1-1.9-11.5-4.1q.3.5.7.8l15.5 6.4v3.2l-.8.1q.9 1.6.9 3.6v6.4l-4-6-.9-.9-.1.1.9 2 4.1 6.1v8.3l-2.5-3.8-2.4-3.2-.1.1 1.4 2.5 3.7 5.7.5 8.5-1-.4c1.5 3.2.7 6.6.8 10l-.4.5q.3.6.4 1.3v7.7l-.9-.4 1.3 2.9v2.6c-.8.7-2-.3-2.6.8l2.6 1.1q-1.7.4-2.6-1c-1-.4-1.1-1.4-1.3-2.2l-7.2-21.6-3.1-10.2q.2-.1.1-1c-.7-.3-.3-.9-.4-1.4l-.4-.7.3-.1.1.8c.7.3.3.9.4 1.4m101.4-21.9 1.4-.1q.4-.8 1.4-.1l-1.5.1q-.2.7-1.3.1m-86.7 3.3c-.7-.3-.4-.9-.4-1.3.1-2.2.6-4.2 2.6-5.6l1-.3q.2-.2 0-.1H63l-.9 1.3c1.6-.2 2.8-1.4 4.5-1.2l-2.3 1.7c1.6.3 2.8-1 4.4-.8l-1.9 1.7 2.5-.4q.4-.8 1.4-.1l-1.5.1-1.4 1.9c1.1-.1 1.9-1.1 3.1-.9l-.8 1.3.7.1q-1.2 1.4-1.9 2.9c-.4 1.1-.2 2.4-.6 3.6l-.1-1.9q0-1.1-.4-2.2-.4 1.7-.5 3.4l-.1 22q.1 1-.4 2l.1-28.5c-1.1 1-1 2-1 3l-.1 15.9q-.2 4.8.1 9.5l.4 13.3.3 4.7q0 2.1-.6 4.2l-.1-1.3v-5.5q-.6-22-.4-44l-.1-.7-.8.3-.6 13.9h-.2v-3.6q-.2-5 .5-9.8.1-.3.4-.4l-.1-.9c-1.1.8-1.2 2-1.7 3v-3.7a8 8 0 0 0-1.4 4.4q.1 6-.4 12l-.1-1.7v-5q0-4.3-.7-8.8 0 1.2-.4 2.5c.9.5 0 .9 0 1.4l.4.7-.3.1-.1-.8c-.9-.5-.1-1 0-1.4m79.3-2.9.6.5c-.6.2-1.1.4-1.3-.3l-.9-.4q-2.8-.8-5-2.8l-.8-.1.1-.3.7.4.7-.3c.6.6 1.7.5 2.1 1.4 1.2-.1 1.7.8 2.2 1.6l.9.5q.3.1.7-.2m-42-10.7c-.8.8-1.8.3-2.7.4q-.3.3-.7.4h-2c-.8.9-1.8.3-2.7.4q-2.4 1-5 .9l-.6.4h-2.1c-.6.8-1.5.3-2.3.4l-.7.4-2.5.1c-.8.9-1.7.3-2.6 0h2.6l.7-.4 2.5-.1c.6-.8 1.5-.3 2.3-.4l.6-.4 2.1-.1q2.4-1 5-.9c.8-.8 1.8-.3 2.7-.4.8-.8 1.8-.3 2.7-.4.7-.7 1.8-.1 2.7-.3.7-.8 1.5-.3 2.3-.4.6-.9 1.4-.2 2.1-.1l-2.2.1c-.6.8-1.5.3-2.2.4m-.8 3.8 1.7-.1c.6-.8 1.5-.3 2.3-.4.6-.8 1.5-.3 2.3-.4.6-.9 1.4-.2 2.1 0h-2.2c-.6.8-1.5.3-2.3.4-.6.8-1.5.2-2.3.4-.4.7-1 .4-1.6.1m1.8.9 1.7-.1c.6-.8 1.5-.3 2.3-.5.6-.8 1.5-.3 2.3-.4l.7-.4 2-.1c.6-.7 1.4-.3 2.1-.1l-2.1.1c-.8.8-1.8.3-2.7.4-.6.8-1.5.3-2.3.4-.6.8-1.5.3-2.3.4-.5 1-1.1.4-1.7.3m89.1-6.2q1.1 0 1.8.8l1.4.5c1.2 0 2.4.2 3.5-.4l-2.2-.3 1.3-.5-2.2-.9.9-.5h2.2l2-.1-1.5-1-1.5-.1q1-.7 1.4.2l5.1 1-.5 1.3.4.2-.4.2-1.2.7 1.3.4-2.1.4 2.3.6-2.4.3-.9 1.2h-3.6l.2-.6-2.1-.5 2.9-.2c-1.1-.8-1.1-.7-2.1-.9q-.5-.1-.9-.4c-.5-.1-1.1.3-1.4-.5-.6-.1-1.3 0-1.7-.9m-19.8-11.6.2-.3.1-2.2c.2.7.6 1.5-.1 2.1zm38-5.8q.2 0 0 0-.6.8-1.7.9c.3-.9 1-.8 1.7-.9M96.6 78H94c-.8.9-1.7.2-2.5.5V78h2.6c.7-.8 1.6-.3 2.5 0m120.5-20.3.2-.3c.8-.8 1.7-.3 2.6 0h-2.6zm-90.5-8.1-.2.3q0 1-1.2 2.1 0-1.7 1.2-2zm94.8-2.2 3.4 1q3.9 1.3 7.8 3.1h-1.3l-9.6-3.7zh-1.8l.8.6 9.2 3.8q-6.4 1.2-12.6 2-1-4.4-5.4-6.1c1-.5 1.6-.2 2.3 0l2 .3 1.8.2q-1.2-.8-2.3-1.1c-1.7-.2-3.4-1.2-5.3-.4l-2.5-1.3a20 20 0 0 1 9 .3l-.8.6 1.4.2q.7-.9 1.3 0 1.8 0 2.9.9m3.5 10.4-2.2.1c-.9 1-2 .1-3 .5v-.5h3.1c.6-.7 1.3-.3 2.1-.1M81.8 81.3l1.7-.1q2.3-1.1 4.8-.5l-4.9.5c-.4.7-1 .4-1.6.1m-.8-.7-1.5-.2 1.7-.1c1.6-1 3.4-.9 5.3-.6l-5.3.5zm82.7-5.2q-.9-.5-1.1-1.6c0-.7-.1-1.4.8-1.8l.1 2.3.9.8 1.3.5q-1.1.6-1.3-.5zM190.1 187q-.2 0 0 0l3.6-2.4v1.7zq-.2.1 0 0M108.4 77l-2.1.1c-.6.8-1.6.4-2.5.7q-2 .6-4.1.6 3.2-1.3 6.6-1.2c.6-1 1.4-.2 2.1-.2m37.6 9.8c-1.1.4-3.4.6-4.2.4-.9-.3-1.9-.5-2-1.8l-.4-.7.3-.1.1.8q3 1.9 6.2 1.4m37 104.7-.1-.3.8-.1c.8-.8 2-.8 3-1l5.6-1.2.2-.3-.2.3q-.1.3-.4.4c-2.7.7-5.4 1.7-8.2 1.8zm5.1-107.8-.3-.9c1.2-.1 2 .7 3 1.1l-.9.6 2.2.1c-1.4.1-2.8 1.1-4.7.6l2.4-.4-2.3-.5q.5-.3.6-.6m-2.5 8.1.2-.3.9-2.9a17 17 0 0 1 5.7-.9 45 45 0 0 1-6.6 3.8zm-60.7-26.9.8.8-1.1 1.1c-1.4-.6-2.9-1.1-3.2-3q3.4-.7 7 .6l-1.1.7zm117.3 112.5.2-.3c1.2-1.6 3.3-1.5 4.9-2.2q2-.8 4.2-1.3l5-1.1.2-.3-.2.3q-1.4 1.8-3.5 2.2-4.6 1.3-9.3 2.3l-1.4.1q.1.1-.1.3m-3-121.2 2.1-.1 2.1-.9h-4.2v-.3l1.5-.3v-.2l-3.3-.2V54l1.9-.4-5.4-.8c1.1-.7 1.1-.7 2.6-.7l10.6 3.9q-1.7 1-3.6.4l-2.2-.2c-.6.7-1.3.2-2.1 0m-84.3 31.5-2-1.2.7-.4 4.3 1.3v2.3l-.9.3h-.9l-6.2-2.2c.7-.3 1.3-.9 2.2-.5zM257 173.5q-.2 0 0 0c2.2-1.9 4.9-2.5 7.6-3.1l5.8-1.3c-1 1.6-1.2 1.7-2.9 2.1l-6.1 1.4c-1.5.4-2.9 1-4.4.9q-.2.2 0 0m-195.1-3.4c-.1-4.5-1.3-8.9-.4-13.4v4.2c0 .4-.2.9.5 1.1v-18h.4v9.7q.1 3 .5 6l.4 3.1v11.1q0 .7-.3 1.5l-.5-11.9c0-.5.4-1.2-.4-1.6zm102.5-88.6.5 2.6.8-.8.3 1.2 1.3-3.3h1.2c.5 1.7-1 3-.9 4.6l-.7-.2-.8 2.9-.7-.7.2 1.9-.8-.7-1 .9.8 1.2-.4.2q-2-1-1.3-3.2.4-1.2.2-2.4l-.8 1.3v3.5h-.4V87l-1.2 2.4-.4-1.2-.3 1.8-.3-.2q-.4-2.6 1.2-4.7l2.4-3.1.2-.4-.2.4v.9q.3-.7 1.1-1.4m59.2 0 4.1-1.1q3.7-.7 7.5-1l-26.9 16.5-.2-2.2v-2.1l1.5-1.1 12.5-7.9.5-.7-4.6 2.3-9 5.2-.8.6c-.3-.8-.1-1.7-.2-2.4v-2.1c1.2-1.5 2.9-1.7 4.5-2.1l7.2-1.6 2.9-.3q.6-.8 1 0m-70.3-1 .1.3-.8.1v.5l1.3.1v.2l-1.3.1-.9.9c3.7-.2 6.7-2.6 10.1-3.3l.2.5-9.3 3.8q-4.8 1.9-9.9 2.2c.9-.7 2.1-.5 3-1.3l-2.3-.1 3.2-1.3-.1-.3-2.2.4 1.9-1.4h-1.4l-.7.4-.1-.3.8-.1 1.5-1.3-2 .4-.7.4-.1-.3.8-.1.4-.9-.9-.5-.8-.1v-.2l.8-.1c-.3-.7-.9-.4-1.4-.5l-.2.3.2-.3-.8-.8.8-.6q.8-.9 1.8-.9l.7-.4.1.3-.8.1 2.6 1.4.6.5c.5.2 1.1-.3 1.4.5l.3.3-.3.1.9.5q.2-.2 0-.1h-.1q1 1.5 2.8 1.4zm48.6 2.6-.9-1.5 5.5 2.2.2.5-.2 10.7c-.3-3.2.1-6.5-1-10-.4 2.2-.2 4-.3 5.8q0 2.9-.2 5.6l-.8-8.8h-.3v7.9h-.2l-1.1-10.6h-.3l-.6 3q0 1.5-.3 3.1l-.8-5.7h-.3l-.7 4.6-.7-4.2h-.2l-.8 4.1-.8-4.2h-.3l-.1 1.8v16.1c0 1.2.4 2.4.3 3.6q-.2 3.3-.7 6.5l-.6-5.9-.4-4a7 7 0 0 1 0-2.5c.6-2.7.4-5.4.3-8.1a52 52 0 0 0-1-7.8c-.6 1.5-.3 3-.3 4.5v9.3q0 2.3-.3 4.5l-.1-1.5v-7l-.5-11.6-1.8-1.6q-.2-.1-.1 0v.1l2.4.7q.6.3.8-.3l-.4-.2.3.2 2.9 1-.9-1.2.3-.2 2.3.8v-.5l-.4-.2.4.2zm-28.2-28.2-.2-1.5h-.2l-.3 1.7-.5-1.3-.4 1.1-.2-.2q0-.6-.4-1.3l-.2 2.1-.6-.7-.4 1.2-.5-1.5-.4 2.8-.3-2h-.2l-.3 1.5h-.2l-.1-2.4h-.3l-.3 1.9c-.3-1.1-.4-3.6-.2-4.5l.8-3.5.5-3.5c.1-1.3.2-2.5 1.4-3.3l.5-.5q.6-.6 1.2-.8 2.3-.1 4.7.3l-2.8.5c-.7.2-1.7.2-1.7 1.4l1.9-.5 2.2-.5c.5-.9 1.4-.1 2-.6 1.4-1.2 2.6-2.5 4.6-3 .7.6 2 .1 2.5 1.4l.3.2-.3-.2c-2.7-.7-3.5-.5-5.2 1.4l-1.4 6.3q-.5 2 .1 3.7l-3 5.4.4-3.3-.4-.1-.9 3.5-.1-2.8c-1.2.2-.4 1.2-1.1 1.6m-12.3-16.3q1.8-1.7 4.1-1.2c2.3.5 3.3.7 4.1 2.7a13 13 0 0 0-2.7 6.1q-.5 3.2-.8 7.2l-.5-2.2-.3 2.2-.1.1-.1-.2q0-.9-.4-1.8l-.8 5.2h-.1l-.1-2.9h-.3l-.2 2.8h-.2l-.2-2.4h-.2l-.8 4.7h-.2l-.2-1.9h-.3l-.2 3.8h-.3V57h-.4v3.2c-.6-1.2-.4-2.5-.9-3.7l-.8 6.1h-.2v-7.3c-.7 1.7-.4 3.4-.9 5.1v-6h-.4l-.2 3.3h-.1l-.8-4.7h-.2l-.1 2.4h-.3l-.2-2.8h-.3l-.1 1.5q0 .9-.3 1.8l-.3-3.3h-.3v3.3h-.3l-.1-1.9-1-9.1-.4-.2v2.5h-.2l-.6-2.3q-.2-1.4-.8-2.8l-1.2-2.4-.8-.1.1-.3.6.4h.9l-1.9-1.7 1.7-.6 3.3 2.7-.4-1.6c2.9.9 5.1 3.7 8.7 3.5l-2.8-1.4-.8-.1v-.2l.8-.1q1.5-1 2.8-1.6m78.4 44.1-14 8.1-14.9 8.9-2.3 1.2-.2-4.6c10.2-5.7 20.7-11.3 29.9-17.7l22.6-3.7a876 876 0 0 1-52.3 31.8v-3.8l12.7-7.9 19.6-12.3q.7-.5 1.3-1.2l-.1-.1zM45.6 146.2l-.1 1.4-2.1-2 .6 2.1q.4.9.5 1.8l-2-2.4c.1 1.8 1.4 2.8 1.3 4.3l-.9-.3v2.1l-.7-.1L41 157c-1.1-1.1-.9-2.3-.9-3.4s-.7-2.2.2-2.9q-.4-1.8-.5-3.3l-.1-6.1q0-4.4-.5-8.8c-.3-2-.1-3.9-.4-5.8q-.4-3.6-.4-7.2-.1-1.2-.8-2.3l.5 6.4-1.1-.1 1.1 1.6v8.2l.3.2-.3-.2-.4.6c.9 1.2.7 2.6.8 3.9q0 5 .5 9.9c.3 2.2-.1 4.4.4 6.6l.6 3.4.6-.2.1.8c.9.6.2.9-.3 1.3l-.1-.9-.9-.4.9 2.5-1.2 2.4-1-.9v-1.8q-.1-8.6-.5-17.2c-.3-3.5 0-6.9-.4-10.4s-.1-6.9-.4-10.4 0-6.9-.4-10.4c-.4-3.4 0-6.8-.4-10.1-.4-3.9-.1-7.8-.5-11.7q-.3-4-.2-8.1 1.4 5.7 3.7 11.2.4.6-.2.9l1.8 4.2.4 1.7.4.7-.2.1-.1-.8-.9-.4 1.2 3.3v1.7a14 14 0 0 1 2.1 6.1c.8.5.6 1.5 1 2.2l2.5 5.4.4.7-.3.1-.1-.8-.9-.4c.1 1.4 1.1 2.2 1.7 3.3q1.5 2.2 1.9 4.9l.3.2-.3.2 2 5.1q.2.6.2 1.3l.3.2-.3.2-.1 2-2.1-2.5 1 2.2.5 1.8-1.4-.3.7 1.8-1.2.4.3 1.3-.6.6-1.6-1.8 1 2.2q.6.7 0 1.4l-1.8-1.9c-.1 1.5 1.1 2.3 1.2 3.8l-1.9-1.8-.3.1 1.3 3q-1 0-1.3.4m183.5-33.3-10.3 6-8.5 5.1-1.2.4v-3.7l4.7-3.1 8.8-5.5 11.7-7.6q.9-.7 1.6-1.5-1 .3-1.8.8l-13.9 8.4-11.1 6.6v-4l10.2-6.7 11.3-7.4.8-.8-.1-.1-3 1.5-14.2 8.6-4.9 2.8-.6-3.5 15.2-9.7 20.1-12.3 13.8-8.5 3.5-2L266 74l10.4-2.1a4 4 0 0 0-2.4-.2l-4.4.8q-1.3 0-2.6-.3c-3.1 1.4-6.6 1.7-10 2.2l-11 2-6.4 1.1-5.7 1.1-6.6 1.1-6.8 1.2q-1.9.4-3.8.5a48 48 0 0 0-8.5.9q-.5.2-1.1-.3l8.3-1.4 4.8-.9 5-.9q.3-.1.4-.4l-5.1.5-7.5 1.3-3.6.6-3.4-1.7c1.4-1.2 3.3-.6 4.8-1.5q2.2-1.2 4.4-1.9c2.3-3.1 1.3-6.2.6-9.5l1.1.1c0-1-.9-.9-1.4-1.2q-.9-.5-.7-1.7l1.3-.5 11.6-2.1 6.2-1 9.7-1.7q1.3-.2 2.6.3l19.1 7.1q.6.2 1.3.2-1.7-1-3.5-1.8l-12.7-5-1-.2c.8-1 1.7-.8 2.6-.5l5.1 1.7 16.2 5.8 8 2.9 1.6.9.1 1.2c.5 10.7.1 21.3.5 32 .3 11.5 0 23 .4 34.5.4 9.5.1 19 .3 28.6v1.1q-1.3 1-2.8.8l-.2.3.2-.3-.2-1.2q2.5-.7 2.5-3.5.2-5.8-.1-11.6c-.6-7.3.1-14.7-.4-22-.4-5.7 0-11.5-.4-17.2-.4-4.5 0-9.1-.4-13.6-.4-4.1 0-8.2-.4-12.2-.4-3.9-.2-7.8-.4-11.8q0-.3-.5-.6v4.9l-.4 2.2.4.7v21.9l-1.3.8a153 153 0 0 0-18.2 11.2l-3.2 2.1-1.5 1.3.1.1 5.4-2.8 13.2-8.1q2.6-1.7 5.3-3.8l.2 1.4v5.2c.5 7.5.1 15.1.5 22.6.3 5.5 0 11 .4 16.5q.4 6 .3 11.9v2.2c-1.4 1.4-3.2 1.3-5 1.8l.9-1.3-1.5.5a15 15 0 0 1-5.7 2.4l-6 1.5-1.4.1-.7.4-.1-.3.8-.1 2-1.7 11.5-7.6 1-1.1q-1 .2-1.6.6-7.4 4.5-14.5 9.4c-2.4 1.7-5.1 2.2-7.8 3.1l-3.7.9h-1.7l5.9-3.9 22.9-15 2.9-2.3c-1.7.3-3 1.4-4.3 2.3l-22.3 14.3-6.7 4.4q-1.2 1-3.1 1.2-3.2.6-6.5 1.5-1.1.3-2.2.2l-.7.4-.1-.3.8-.1 8.2-5.4 10.2-6.5 21-13.9c1-.7 2.4-.9 3-2.3l-1.8.7-12.3 7.8-21.2 13.5-9.2 6.1q-2.3 1.3-4.7 1.8l-8.2 2.1q-.4 0-.9-.4l-4.8 1.7q-1.7.5-3.6.8-1-.8-.6-2.3l11-6.7q6.5-4.1 12.8-8.7 3.9-2.9 7.9-5.5l.5-.7c-1.7.3-2.9 1.4-4.3 2.3l-15.3 9.5-10 6.9-2.6 1.9q-.2-2.3-.1-4.5l1.1-1 24.1-15.4 12.8-8 24.6-16.2c1-.7 2.4-1 3-2.3l-3.2 1.6-24.3 15.4-16 10.1-21 13.5-1.1.5v-4.8l2.6-1.8 16.6-10.4 23.3-14.9 11.7-7.6 12-7.9q2.1-1.4 4.1-3.2l-1.3.4-14.2 8.6-18.1 11.3-10.8 7-18.7 12.1-7 4.4c-.7-1.2-.7-1.2-.6-4.1l5.6-3.6 13.2-8.2 7.1-4.4 6.8-4.8 5.7-3.6.7-.8-1.2.4a826 826 0 0 0-37.9 23.4v-4.1l4.8-3.3 9.8-6.3 11.6-7.3 11.8-7.8.2-.4-4.1 2.1-17.2 10.6-13 8.1-3.7 2.3-.5-3.9 5.2-3.3 18.5-12c.9-.6 2.1-.9 2.7-2l-.1-.1-4.1 2.2-21.4 13.2-.7.4v-4.6l11.6-7.4 5.3-3.3q.7-.5 1.2-1.3l-4.5 2.5-13.7 8.4v-4.8l5.6-3.4 13.6-8.4 20.6-12.9 9.5-6.1 4.7-3 .7-.8v-.1q-1 .2-1.7.6L240.5 117l-21.8 13.5-8.9 5.5-.4-.3-.2-4.1 9.6-6.3.9-.9-4.3 2.3-6.1 3.5v-4.3l8.1-5.1 15.5-10 1-.9-.1-.1zm-28.8 20.5h.2l.6 6q.9 5.3.3 10.6c-.5 5.3-.3 10.5-.8 15.8v-2.3q-.2-6-.9-11.9v12.3h-.4v-2q-.2-6.7-.9-13.5l-1.1 13.7h-.3v-2.3q-.2-5.2-.8-10.5v10h-.4l-.1-1.5-.1-10-.4-7.9.2-1.6.7 6.9c.8-3.7-.1-7.5 1.1-11.5l.8 10.6h.3v-16h.3l1.3 12.8h.3zm6.8-4.9h.4v2.1q-.2 6.6.1 13.2.3 6.1.3 12.2.1 1.1-.4 2.2v-6.8c-1.5 1.2-.8 2.6-1 3.7q0 1.8-.2 3.5l-1.2-9.3h-.3v10.1h-.4v-3q-.2-4.7-.9-9.4v9.3l-.3.1q-.4-.5-.5-1.1l-.5-10.4.1-10.5.2-1 1.2 9.2h.3v-9.2h.4a41 41 0 0 0 1 9.7v-7.5c1 .3.8.9.9 1.5l.6 7.4h.4q-.3-8-.2-16m-4.3-21.7h.2l.4-6.7.5-.4v5.7c1.3-2.3 1-4.4 1.3-6.4l.4 2.6.2 2.7-.1 15.2-.2.7-.8-7.8c-1.2 1.2-.5 2.6-1 4l-.8-8.5c-.6.7-.3 1.4-.3 2.1v4.3q.1 1-.4 2l-.4-3.5q-.2-2-.9-3.9v5.9c-1.4-5.1-.8-10.3-.7-15.5l.8 6h.3l.1-3.9.6-4.3zm3.9 70.3.9 2.9.4-2h.2v4.1l-.5-1.4c-.8 1.3-.8 1.3-.3 2.3l.8-.1v1l-.7-.2-1 1.6-1.1-.5-.8.9c-.9-.3-1.7.6-2.7.1-.1-.1-.6.5-.9.7s-.8-.6-1.1.2q-.3.2-1.2.2l-.7.9-.6-1.6-.9 1.4v-10.7h.3l.1 2.7v3q-.2 1.4.4 2.7c1.2-2.1-.2-4.6 1.4-7v7.6c1.4-.4.7-1.5 1.2-2.1l.9.6.5-.7.5 1.3 1.3-1.9.4 2 1.3-2.6-1.1-2.1-.9 1.3-.3-.3q.2-2.4.7-4.9l.3 2.9c1.1-1.5 1.1-2.8 1.6-4.2l.1 2.2.4 2.4q0 1-.3 1.7c-.2.9-.4 1.8.6 2.5 1.3-2 .1-4.6.8-6.9m-137.8-14c1.4-2.3.4-4.6 1.1-6.7v14.2h-.3v-4.7c-.7 4.1-.5 8.3-.7 12.4-.5-2.1-.1-4.2-.5-6.3s-.1-4.1-.1-6.4q-1.2 1.3-1 2.4c.7 2.9.2 5.9.3 8.8q.1 2.3-.3 4.7l-.1-.9c-.2-3.8-.1-7.7-.6-11.5-.6-4.3-.2-8.6-.3-12.9l.2-2.2.4 4.9.4 5.3.8-3.9h.3zm.4-18.7q.2-4.4 0-8.6c-.7-7.4-.2-14.8-.4-22.2q0-1.1.3-2.2l.1 1.9q-.1 7.3.1 14.5.3 12.3.4 24.7v2.7l-.4-.1zm125.5 41.5c.3-3.7-.1-7.5 0-11.2v-11.3q-.1-1.5.4-3.1v8.3l.4 17.4q0 2-1.1 3.6-.3.4-.8.6 1.2-2 1.1-4.3M63.8 152q0-.3.4-.7v2.1q.7 9.9.4 19.9v2.2q-1-11.7-.8-23.5m143.3-36.3q0 .3-.4.6v-2.1c-.7-5.2-.3-10.4-.4-15.5v-1.6l.5.1zM63.8 131.5q.2 2.9-.3 5.9l-.1-1.9-.4-17.2v-2.5l.4.1zm3.8-10.9.1-.2c.3 7 .9 13.9.5 20.9l-.1.2q-.9-10.5-.5-20.9m-2.4 40.1v-4.2c.9 2.3.9 4.2.9 6.3v10.8l-.4.1zm133.3-64.9v2.1l.4 12.9-.2 2c-.8-2-.9-11.7-.2-17m72.6 74.6c2.9-2.4 6-3.2 9.5-3.7-2.6 2.7-6.1 2.7-9.5 3.7m-44.5 10.1.3.4-15.7 3.7-.7-.3q8.1-2.1 16.1-3.8m.6 0c4.8-1.8 9.6-2.4 14.1-3.8a45 45 0 0 1-14.1 3.8M200.8 73.2l-5.6-2.3c1.9-1.1 1.9-1.1 5.1.3zM62.7 94.1h.2v14.1l-.2.1zm-.3 41.2-.1 1.1c-.2-4.1-1.1-8.2-.3-12.3zm35-57.6c2.1-1.1 6.9-1.9 9.4-1.7zm97.3 39.5h-.2v-11h.2zm1.7 55.9h-.2v-10.6h.2zM68.6 95h.2v10.5l-.2.1zm-8.5 8.7h-.2V93.1h.2zm148.3-22.8-2.4.4-3.3-1.4c2.1-.6 3.8.5 5.7 1m-53.2 4.5 1.3-.7 2.6 1-.9.9zm-3.3-37.5h.2v6l-.2.1zm-91.4 77.6h-.2v-5.9l.2-.1zm3 63.6c-.9-1.4-.9-1.4 0-3.2zm1.4-60h.2v5.9l-.2.1zm1.9 61c-.9-1-.9-1-.6-4.4zm19.1-108c1.4-.5 2.8-1.3 4.6-.7zm2 1-.1-.3 1.8-.5 2.2-.1.1.3zm70.7 1.7-1.2-.7 2-.6-.1 1.4zm-53.2 119.3c1 1.4 1 1.4.7 3.5zm-40.1-14.5c-1.1-1.2-.5-2.3-.4-3.3zM148.5 47a5 5 0 0 1 0-3.2zm-45.9 60.8-.7 1.3-.8-1.6.3-.3zm-41.1 14.1h-.2v-3.2l.2-.1zm6.6 65.9v2.7l-.8-.9zm33.1-78.3-.4 1.6-1-1.8q.8.3 1.4.2m-4.8-30.7v-.2h2.3l.1.2zm3.6 34-1.6-.8.7-.8zM127.9 50l.3.2-1.1 1.4-.4-.4zm-67 97.3-.1-2.4h.1zM152.4 57h.2l.1 1.8-.3.1zm48.8 122.4h.2v1.9h-.2zm-37.3-116h-.1v-1.9h.1zM149.1 47h.3v1.9h-.2zm1.9 3.1h.2V52h-.2zm-53.6 63.7.8-.9.2 1.8zM71.8 84.2V84h1.4v.2zm21-3.4v.2h-1.5v-.2zm128-21.4v.2l-1.4.1v-.3zM106.5 80.8v-.2h1.4v.1zm-34-.4v.2l-1.5.1v-.3zm150-23.8v.2h-1.4v-.2zm-5.4-.1v-.2h1.5v.2zM110.7 80v.2l-1.4.1V80zm-20.1-.1v.2h-1.5v-.2zm22.7-.4v.2h-1.5v-.2zm53.9-4.2c-.8-.5-.8-.5-.2-1.2zm-62.5-.5v-.2h1.5v.2zm40.2-31h-.2l-.1-1.4h.3zM69.5 191h-.2l-.1-1.4h.4zm34.2-116.1v.3l-1.4.1V75zm3.3 3.3v.2l-1.5.1v-.3zm43.4-28h-.3v-1.5h.2zm48.5 19.3-.2-.3.4-.3.4.5zM222 59.2v-.3h1.5v.2zm-28.1 11.3-.2-.3 1.1-.6.1.3zm-45.6-.1v-.2h1.5v.2zm77.9-11.9v.2h-1.5v-.2zm-8.8.1v-.2l1.5-.1v.3zm-14.5-.2.8.7-1.2.1-.2-.3zm-91.4 20.2v.2l-1 .1v-.2zm111-18.5v-.2l1-.1v.3zM87.4 79.3v-.2l1-.1v.2zm6.7-.1V79l1-.1v.3zm149-22.5v.2H242v-.2zM94.2 80.6v-.2h1v.2zm2.7.7v.2l-1 .1v-.3zm-2.2.5v.2h-1l.1-.3zm-26.9.7v-.2l1-.1v.2zm17.4-.3v.2l-1 .1v-.3zm49.1 1.2h-.2l-.1-1 .4.1zm-48.3 0v-.2l1-.1v.3zM215.5 54h.2l.1 1h-.2zM200 181.4h-.2v-1h.2zM150.5 70.3v-.2h1l-.1.3zm-42.2 5.1v.2l-1 .1v-.2zm117.9-16v.2h-1l.1-.3zm-7.7-4.1v.2h-1l.1-.3zm19 .3v-.2l1-.1v.2zm-107-4.1.2-.2.6.5-.3.3zm-21.2 26.2v.2h-1v-.2zm94.1 1v-.3l.9-.1v.3zm1.3-33.3.5-.1v.1zM144 47.9v-.6h.1zm-1.2 34.7v-.2h.6v.1zm-40.4-1.2v.2h-.5v-.1zm-5.7 34h.2l-.1.7h-.2zM72.4 86.7v.2h-.6v-.1zm132.9-35.4h-.2v-.5h.1zM44 105l.2.5H44zm15.9 0 .2.5H60zm10.2-21.7.4-.2v.1zm141.6-30.2h-.2v-.5h.2zM79.2 85.6v-.2h.5v.1zm63.7-4.2v.2h-.6v-.1zm-77.4.1.6-.1v.1zm16 3.6.5-.2v.2zm154.7-30.7-.6.1v-.1zM84.6 84.5l-.5.2v-.2zm-21.8 7.4-.1-.6h.1zm143.8 4.4h-.2v-.6h.1zM39.7 91.8h-.2v-.6h.1zM86.9 84v.2h-.6v-.1zm118.8-25.6v.2h-.6v-.1zm-166.4 32h-.2l-.1-.5h.1zm49.9-6.6v-.2h.5v.1zm131.1-23.3-.1-.1.6-.1v.2zM84.2 83.8v-.2l.5-.1v.1q-.2.3-.5.2M68.3 81l.5-.1v.1zm59.7-.8-.1-.6h.1zm77.2-2 .5-.1v.2h-.4m-95.5-1.6.6-.1v.1zm-28.9 67.1h.2v.5H81zm26.6-69.4.5-.2v.2zm2.3-.4v-.2h.5v.1zm89.6 105h.2l.1.5h-.2zm-137.2 8.3-.1-.6h.2zm113.3-95.7h.2zM43.2 102.3v-.2zm.6 1.3-.2-.1.1-.1zm58.9 1v.2zM73.8 86.3h-.2zm65-.2.1-.2zm-67-.6h.2zm71.6-2.1h-.2zm-51.5-.1h.2zm65-.3h.2zm9.1-.5-.1.2zm-8.1-.1h-.2zm-57.7-.5h-.2zm-20 0H80zm-16.1-.1h.2zm90.6-.7h-.2zm29.6-38v-.2zm-78.7 38h-.2zm58.1-.3v-.2zm-11.8-.5v-.2zm-8.6 0h.2zm7.7-.4-.1-.1.1-.1zm-36-.7h.2zm-25-.5h.2zm34.4-27.2h-.2l.1-.2zM149.8 78h-.2zm-1.6-.6h.2zm-65.5 61 .1-.1s.1.1 0 .2m127.9-86.2.1-.1.1.1-.1.1zm-128.3 87h-.2zm-.5.9v-.2zm133.5-87.5-.1-.2.1-.1zm-74.1 24.9h-.3l.1-.1zM81.4 143v-.2zm-1.4.4v-.2zm-.5.8v.2zM118 75.8v-.2zm-39 69.3v-.2zM220.8 55h-.2zM59.4 146.8v.2zm18.3.5v.2zM40 92.6v.2zm200.4-35.3v-.2zm-79.2 16.6h-.3l.1-.1zm-119.4 83v-.2zm151.7-83.8v-.3zm-49.1-13.8h-.2zq0-.1 0 0m43.5 12.8h-.2zm-10.3-11.8h-.2zq0-.1 0 0m-1.9 11.2v.2l-.1-.1zm-15.6-.4h.2zm15.1-10.2-.1-.1.1-.1zq0-.1-.1 0m3.3-.1.1-.2zm-4.2 10 .1-.2zm-15.1 0 .2-.1.1.1zm-11.8-1.1h.2zm45.9-8h.2zm-22.6.9.1-.2zm-.6.9v-.2zm8.7.8-.1.2zm3.2.6v-.2l.1.1zM40.5 94v.2zm-1.9 70.5h-.2l.1-.1zm113-34-1.1.3-7.7 4.2q-7.5 4.1-14.6 8.9l-11.9 7.3q-4 2.2-7.6 5.2c1.8.1 3-1.1 4.4-1.9q8.7-5.3 17.6-10.4c8.9-5.1 11.7-7.2 17.5-10.9 1.2-.9 2.6-1.5 3.4-2.7m-5.2 33.2q-2.2 1-4.2 2.2l-4.4 3.1-8 4.6c-2.2 1.2-4 2.9-6.3 3.9-3.2 1.3-5.6 3.8-8.5 5.8l.6.2q3.3-1.4 6.4-3.2l8.7-5.9c2.7-1.6 5.1-3.6 8-4.9l3.2-1.6c1.9-1.1 3.9-2.2 5.4-4.2zm17.9-22.8-2 .9-9 5.5-19.3 11.9-2 1.7 1.5-.5 6.2-3.6 7.2-4.2 14.1-9.1q1.7-1.1 3.3-2.6M140.8 95h-2l-8.3 1.3-10.1 1.8q-5 .8-9.9 1.9c-1.5.3-3.1.5-4.2 1.8l1.9-.5c1.6-.4 3.1-1.1 4.9-.8l-2.6 1.6c-.8.6-1.9.8-2.4 1.9q.5 0 .9-.2 2.8-1.5 5.4-3.2.8-.6 1.8-.8l6.6-1.3 3.5-.5.7-.4.1.3-.8.1-.9.9-3.5 2.4q3.9-1 7-3.4 1-.9 2.3-1.2l6.4-1c1-.1 2.2.1 3.2-.7m-29.7 48.1q1-.2 1.7-.6l13.1-7.5q6-3.6 11.8-7.4c1.2-.8 2.7-1.4 3.5-2.6l-1.5.5-8.6 4.9a294 294 0 0 0-19.3 11.9zm-5.1 19.5c-.1-4.1.2-8.3-.3-12.4q-.5-6.3-.6-12.6l-.6-4.2q-.4 1.2-.3 2.2c0 6.6-.2 13.3.4 19.9q.4 4.3.6 8.8l.1.1c.9-.4.7-1.2.7-1.8m25.5 23.3a45 45 0 0 0-10.4 5.6l-6.5 4.4-1.7 1.3q1.3.1 2.3-.7 4.6-2.3 9-5 3.9-2.3 7.3-5.6m1.4-19.5c-1.6.2-2.7 1.2-4 1.9q-9 5-17.6 10.8l-1.1 1.1q2.6-.9 4.7-2.2l15.5-9.9c.8-.5 2-.6 2.5-1.7m10.8 30.4 3.4-1.6q5.8-2.8 10.9-6.6l2.1-1.9a1 1 0 0 0-.9 0c-4.7 2-8.7 5-12.8 7.8zm44.9-22.6-8.8 5.4c-3.9 2.5-8 4.7-11.5 7.8l1.7-.5q9.5-5.6 18.7-11.9l2-1.7zm-57.9-48.8-2.8 1.3q-4 2.4-8 4.5c-2.9 1.5-5.4 3.6-8.5 5.6l1.4-.1q3.2-1.6 6.3-3.4l11.2-7.1zm.1-23.2q-2 .8-3.8 1.8l-17.1 10.2-.5.7q1.3-.3 2.5-1 7.7-4.4 15.2-9c1.2-.7 2.7-1.3 3.7-2.7m-5.2 80.9c-5.5 1.6-9.3 5.5-13.6 8.4 3.8-.9 12-5.9 13.6-8.4m5.1-63.6-4 2-13.6 8.1q-1 .7-2 1.7l1.2-.4 15.9-9.6q1.3-.8 2.5-1.8m17.6 37.1c-4.5 1.4-7.9 4-11.3 6.9a22 22 0 0 0 11.3-6.9m30.5 18.1-.9.2q-6.2 3.4-12 7.4l-2 1.7q1.3-.2 2.4-.8l9.6-6.2zM114.7 159l1.8-.7 9.3-5.7 4.9-3.5-.1-.1q-2.3 1-4.5 2.3l-10.5 6.7q-.5.4-.9 1m24.9 34.2q-.6 0-1 .3l-6.6 3.8q-1.7 1.2-3.6 2.2-1.5.6-2.5 2.5l2.6-.7q.8-1.2 1.9-1.8 2-1 3.9-2.2c1.8-1.4 3.8-2.4 5.3-4.1m-15.4 3.6-1.3.2a19 19 0 0 0-6.6 4.2l-.7.9q2.8-.9 5.1-2.2a10 10 0 0 0 3.5-3.1m41.9-50.8-4 1.8q-3.9 2-7.3 4.8c.9.6 1.6-.1 2.1-.4l9.1-5.8zM132 160.9l-.7.1q-4 2-7.9 4.2c-1.3.8-2.7 1.5-3.9 3.1q2.9-1 4.8-2.2l7.2-4.5zm-6.7-43.7q-1.8.8-3.5 1.8l-9.8 5.8-.3.5 1.5-.5 9.4-5.6q1.3-.8 2.7-2m33 39.6A29 29 0 0 0 148 163q2-.3 3.6-1.5c2.4-1.4 4.8-2.7 6.7-4.7m-31.8 25.9q.7 0 1.3-.3 3-1.6 5.7-3.9v-.6l-4.9 2.8q-1.2 1-2.1 2m14.1 3.7q-2.8.7-5.1 2.5l-2.2 2c1.4.2 2.3-.8 3.4-1.5 1.4-.8 2.9-1.5 3.9-3m.2-90.1q-.8 0-1.5.3l-4.9 3.1-1.2.9q3.2-.8 5.8-2.7zm-35 69.6-.7 3.8v1.6l.4 3.3v2.9c.7-3.8 1.1-7.7.3-11.6m18.3 30.9c2.1-.7 4.4-1 5.7-3.5h-1.4a9 9 0 0 0-4.3 3.5m-9.3-91.5q-4.2 1.5-7.5 4.5 4.3-1.4 7.6-4.3zm10 53.2-2.5 1.3q-1.2.6-2.3 1.4c-1.1.8-1.8.7-2.1 2 2.8-1.1 4.9-2.8 7.1-4.3zm-32.2-47.8q-.2-.9-.6-1.6l-3.1-4.1-1.7-2 .2.8 4.1 5.9q.3.7 1.1 1m10.9 13 .6 1.6c1.1-2.3.6-4.5-.2-6.6zm43.4 58.6c-1.9.5-3.7 1.2-5 3.1 2.3-.2 3.3-.9 5-3.1M100 201.7l-.2-.8-3-4.8q-.5-.7-1.2-1.2l-.1.1c.5 1.9 1.9 3.3 2.9 4.9zm14.4-30.1q2.8-.7 5.4-3.1c-2.5.4-4 1.6-5.4 3.1m-36-61.8c-.3-1.6-1.5-2.7-2.3-4l-1.7-2c.6 2 2.1 3.4 3.1 5.1q.3.7.9.9m11.4 6.8q-1-2.3-2.6-4.1l-1.6-1.8q.4 1 .9 1.7c1.1 1.5 1.7 3.3 3.3 4.2m-7.4 67.8a7 7 0 0 0-2.7-4.1c.6 1.5 1.1 3.2 2.7 4.1m-9-52.8q.8 2.2 2.6 3.9a7 7 0 0 0-2.6-3.9m30.7-15.1c.3-1.3.6-2.4-.7-3.7.1 1.5-.4 2.6.7 3.7m36.4 83.1c.8-.6 1.7-1.1 2.4-2.4-1.4.5-2.4.8-2.9 2zm-63.6-33.4q.4 2 2 3.1c-.4-1.2-.8-2.3-2-3.1m30-74.3c-1.8-.1-3.1-1.1-5.1-.2 1.9-.2 3.2.9 5.1.2m-30.7 4.7a6 6 0 0 0-2.2-3.2l-.1.1c.5 1.2 1 2.5 2.3 3.1m38.3 68.8q-1.5 0-2.6 1.2c1.6 0 1.6 0 2.6-1.2m-27.4-42.8q-.1-1.8-1.8-2.7 0 1.7 1.8 2.7m31.7-30.7c-1.2-.3-2.2-1-3.6-.4 1.3.2 2.3 1.1 3.6.4m-3.5-5.9c1.4.5 2.6 1.1 4 .5-1.3.1-2.5-1-4-.5m-1.3 7.4c-1-.6-1.7-1.1-3-.4 1.2-.1 1.8.8 3 .4m59.8 35.7q-1.5.2-2.2 1.4 1.5-.1 2.3-1.3zm-5.4-2.7q-1.5.2-2.2 1.4 1.5 0 2.3-1.3zm-30.9 24.9q1.5 0 2.3-1.4-1.6.2-2.3 1.4M148 115q-1.5.1-2.2 1.4 1.4-.2 2.2-1.4m-52.4 79.9q-.2-1.5-1.4-2.2 0 1.5 1.3 2.3zm45.5-45.8q1.5 0 2.3-1.4-1.5.1-2.3 1.4m-10.4 0q1.5-.2 2.2-1.4-1.5.1-2.3 1.3zm25.9-15.4q1.5 0 2.3-1.4-1.5 0-2.3 1.4m-12 56.3q1.5 0 2.3-1.4-1.5.2-2.3 1.4m-2.2-17.3q1.5-.1 2.3-1.3l-.1-.1q-1.4.2-2.2 1.4m-11.7-53.2q1.5-.2 2.2-1.4-1.4.1-2.2 1.4M100 205.9c.4.9 1.3 1 2.1 1.2q-.7-1.2-2.1-1.2m55.2-65.4q1.5 0 2.3-1.4-1.5.2-2.3 1.4m13.2 4.1q1.5-.1 2.3-1.3l-.1-.1q-1.4.2-2.2 1.4M140.8 95h2.1l.6-.4h-2.1q-.3 0-.6.4m-31.9-4.6-.6-.4h-2.1q.3.4.6.4zm-35 31.6-1.4-1.4q0 1.4 1.4 1.4M73 92.1q-.1 1 .9 1.4l.1-.1q0-1-1-1.3m.4 20q0 1 .9 1.4.1-1-.9-1.4m60 13.8q-1-.2-1.1.9l.6-.2zm-15.5-41.8h-1.4v.3l1.4-.1zm-24.5 28q.2-1-.9-1.4 0 1.2.9 1.4m43.2-1.7q-1.1 0-1.3.9 1 .2 1.3-.9m15 8.3q-1 0-1.4.9 1 0 1.4-.9m-36.7-13.3q1 0 1.3-1-1-.1-1.4.8zm-36.5 24q-.1 1 .9 1.4 0-1-.9-1.4m11.4-12.7c0 .6.1 1.1 1.1 1zm81.8 13.8q-1.1 0-1.3.9 1 .2 1.3-.9m-87.8 26.6q.2-1-1.1-1.1zm22.4-67.2c-.4-.9-1.1-.4-1.7-.1zm6.6 117.3c.6-.2 1.4.5 1.8-.4-.6.1-1.4-.4-1.8.4m-40-53.7.6 1.2.4-.2-.9-1.1zm7.4-21.4q0-1-.9-1.4-.1 1 .9 1.4m57.3 19.3q-1 0-1.4.9 1 0 1.4-.9m-56.4-17.9q.2-1-.9-1.4 0 1 .9 1.4m8.9 62.8q0-1-.9-1.4 0 1 .9 1.4m49.7-46.3q1 .2 1.4-.9-1-.2-1.4.9m-36.9 42.7c0 .6.1 1.1 1.1 1zm40.5-1.8q-1-.1-1.4.9 1 0 1.4-.9m1.3-.9q-1 0-1.4.9 1 .1 1.4-.9m-47.2-41.9c0 .6.1 1.1 1.1 1.1zm50.9 39.7q-1 0-1.4.9 1 0 1.4-.9m-57.8-.6q0-1-.9-1.4 0 1 .9 1.4m-12.7 0q0-1-.9-1.4 0 1 .9 1.4m55-2.2q-1 0-1.3.9 1 .1 1.3-.9m19.1.5q1 .2 1.4-.9-1-.2-1.4.9m-75 .3q.1-1-.9-1.4-.2 1 .9 1.4m77.8-2.1q-1-.2-1.4.9 1 0 1.4-.9m.9-.5q1 0 1.4-.9-1 0-1.4.9m12.8-38.6q-1.1 0-1.3.9 1 .2 1.3-.9m-92.9 38.9q0-1-.9-1.4 0 1 .9 1.4m77.9-48q-1-.2-1.4.9 1 0 1.4-.9m-79.7 45.3q0 1 .9 1.4.1-1.2-.9-1.4m20.2-35.4-.7-.9-.3.2.7 1.1q0-.3.3-.4m56.8-8.1q1 0 1.4-.9-1-.2-1.4.9m2.1 41.4q1 .2 1.4-.9-1-.2-1.4.9m7-40.9q1 .2 1.4-.9-1-.2-1.4.9M167 176q-1 0-1.4.9 1 0 1.4-.9m-24.6-3.3q-1 0-1.4.9 1 .2 1.4-.9m16-34q1 .2 1.4-.9-1-.2-1.4.9m6 2.3q1 0 1.3-.9-1.1-.2-1.3.9m19.4 30.5q-1 0-1.4.9 1 0 1.4-.9m-28.6-31q-1 0-1.4.9 1 0 1.4-.9m6.9-16.4q-1.1 0-1.3.9 1 .1 1.3-.9m-88.8 46.2q0-1-.9-1.4-.1 1 .9 1.4m52-53.1q1 0 1.3-.9-1 0-1.3.9m6.8 7.3q-1 0-1.4.9 1 .1 1.4-.9m-47 44.5q0-1-.9-1.4 0 1 .9 1.4m-.9-1.4q0-1-.9-1.4-.1 1 .9 1.4m54.6-23.5q1 .2 1.4-.9-1-.2-1.4.9M96 165.8q0-1-.9-1.4 0 1 .9 1.4m-14.5-2.3q0 1 .9 1.4 0-1-.9-1.4m12.7-.4q0 1 .9 1.3.2-1-.9-1.3m-17.3-19.7q-.9.4-.9 1.4 1-.3.9-1.4m16.4 18.3q0 1 .9 1.4.2-1-.9-1.4m45.6-41.3c-.6 0-1.1 0-1.1 1.1zm-63.7-5.6q-.1 1 .9 1.4.1-1-.9-1.4m37.2 45.6q-1 0-1.4.9 1 0 1.4-.9m-37.2-45.6q0-1-.9-1.4 0 1 .9 1.4m38.1 45.1q1 .2 1.4-.9-1 0-1.4.9M91 177.8l-.6-1-.3.2.6 1zM147.6 90q.4.9 1.4.1zm-34.8 117.2-1.5.1q1 .8 1.5-.1M96.6 99.9c-.2-.8-.9-.4-1.3-.5.2.8.9.4 1.3.5m8.2 2.7.7.8.2-.4zM99.3 124c.1.5.1 1.1.9.6zm-20.1 26.4c.1.4.2 1 1.1.5l-.9-.7zm22.2 50.9c-.1-.5.3-1.1-.4-1.4.1.5-.4 1.1.4 1.4M73.9 103l.4.9zm10.9 16.4-.1-.8-.3.1zm10.4 1.8.1.8.3-.1zm14.2-6.3-.8.1.1.3zM98 118.5l.1.8.3-.1zm18.2-14.1.8-.1-.1-.3zm11.3 11.4.8-.1-.1-.3zm15 8.3.8-.1-.1-.3zm-46.8-18.7.2.8.3-.1q-.2-.5-.5-.7m31.9 10.5-.9.4q.5.2.9-.4m-51.5.3.4.9q0-.4-.4-.9m68.7.6.9-.5zm-33.2 2.6-.8.2.1.3zm38.7.1-.9.5zm-16-2.3.8-.1-.1-.3zm-55.9-7.4.1.8.3-.1zm14.2-15.4.7.4.1-.3zm-6.9 16.3-.4-.9zm20.4.2h-.7v.2h.7zm35.1 14.1.9-.4zM109 90.3l.7.4.1-.3zm26.3 21-.8.1.1.3zM96.6 98.1q-.2-.7-.9-.5c.1.6.6.4.9.5m36.8 25.5.9-.4zM96.7 98l.7.4.1-.3zm1.4.8h.6v-.2zq0-.1 0 0m34.9 19.3.9-.5c-.4.1-.8 0-.9.5m0 5.9-.9.5zM96.7 99.9l.7.4.1-.3zm-11 .9.5.9zm-12.3 1.8-.1-.8-.3.1zm79.2 15.6q-.7-.2-.9.5.3-.3.9-.5m-21.9-16 .8-.1-.1-.3zm-43.6.8-.5-.9q-.2.7.5.9m73.6 22-.9.4zm-66.9 1.2q.2-.7-.4-.9zm65.1-.2.9-.5zm-66.4 1.1.1.8.3-.1zm-15 .9.5.9zm88.2.2-.8.1.1.3zm-13.2 1.8-.9.5zm-41.4 1.3-.9.4zm45.5 2.4-.9.4zm-3.2 1.8.8-.1-.1-.3zm-69.7-.1h-.2l-.1.8h.5zm79.3.6c-.4 0-.8-.1-.9.5q.3-.4.9-.5m-79.6.2-.5.9h.5zm77.7.7.9-.4q-.5 0-.9.4m-89.5 1.5.1.8.3-.1zm86.8.3-.9.5zm8.6.4q.7.2.9-.4-.3.3-.9.4m-.4.5-.9.5zm-67.8.3.1.8.3-.1zm46.4.6.9-.5zm-.9.4q.7.2.9-.4zm8.7.9.9-.5zm-.5.5-.9.4zm-41.4.8-.8.1.1.3zm27.8 1-.8.1.1.3zm-63.3 1.6c.6-.1.5-.5.5-.9q-.7.3-.5.9m11.4-.4.1.8.3-.1zm79.1.7.9-.4zm-21.4.8.8-.1-.1-.3zm-63.2.3.1.8.3-.1zm62.8.2-.9.5zm-9.1 5.4.9-.5zm-.5.5-.9.4zm-39.5 1.2.5.9q0-.6-.5-.9m-4.1.5.1.8.3-.1zm68.6 1q.7.2.9-.4zm-63.6-.1.4.9zm63.2.6-.9.4zm-75.5.7.5.9q0-.6-.5-.9m29.5 2.8-.9.5q.7.2.9-.5m-3.1 1.9.9-.5zm-29.2.8.5.9zm1.9 3.2-.4-.9q0 .4.4.9m50.4.1.9-.4zm-36.8.3.1.8.3-.1zm-22.8 5q.2-.7-.4-.9zm1 1.4-.5-.9zm118.2-.7-.9.5zm-1.4.9-.9.5zm-50.4.9-.9.5q.5 0 .9-.5m38.6.5-.9.5zm-40 .3-.9.4q.5 0 .9-.4m25 2.9.9-.5zm-11.9 1.3-.9.4zm-73.2 1.6-.4-.9zm78.7 1.1-.9.5zm-58.2.3.1.8.3-.1zm54.6 2 .9-.4zm-78.7.7-.5-.9zm6.3 0 .1.8.3-.1zm7.3 1.4-.1-.8-.3.1zm62.3-.3-.9.4zm-3.6 2.3.8-.1-.1-.3zM98.7 189h-.5v.9zm42.3 3.3.9-.5zm-52.3 2.1-.1-.8-.3.1zm1.4 1.9q-.2.7.5.9zm.8 1.3.4.9q0-.5-.4-.9m10.5 3.7.5.9zm-1.4.4.4.9q0-.5-.4-.9m1.9.5.1.8.3-.1zm-.5 1.8-.5-.9zm39.4-107.7.3-.2-.1-.1zM101 90.9v.2zq.1 0 0 0m-24.8 5.7.4.2zm28.5 3.5h-.2zq0 .1 0 0m-18.9.6-.4-.2zm.4 1 .5.5zm18.6.5.2-.4zm1.4-.5-.2.4zm-32.8.9.5.5q-.2-.4-.5-.5m31 1.4.4.2zm3.6 0-.2.4zm-4.1 1.4.3.3.1-.1zm-4.2 1.4-.3.3h.5q-.2 0-.2-.3m-14.9 2.6-.4-.2zm0 0 .5.5zM73 111.6l-.4-.2zm0 0 .5.5zm60.5.6.2-.4zm-40.1-.1.4.2zm40 .1-.2.4zm7.8 1.4-.2.4zm-40.9 1.3q.2.1 0 0 0 .2 0 0m44.5 1.9-.5.5zm-68.2.3.5.5zm57.3.6.5-.5zm10.4-.5-.2.4zm-67.3.4.4.2zm21 .9-.5-.4zm-13.2.9.4.5zm11.8.5.4.2zm42.3.5.2-.4zm10.4-.4-.2.4zM87 122.6l.4.2zm47.4.6.2-.4zm-35 .7-.3-.3-.1.1zm33.6.2.5-.5zm9.5 0-.5.5zm-30.9 1.3q-.2.2 0 0-.2 0 0 0m21.8.5q.2-.2 0 0 .3-.2 0 0m-23.1.1h.3l-.1-.1zm48.6-.1-.2.4zm-65.1.3.4.2zM77.5 128l-.4-.2zm88.2.2.4-.5zm-1.5.7-.1-.1-.1.1zm-86.3 0 .5.5zm74.6 1.1.2-.4zm-53.6-.1q.2.1 0 0 0 .2 0 0m-25.5 1.7-.4-.2zm96.8-.2-.2.4zm-69.5.8-.4-.2zm9.5-.5-.2.4zm48.7.6.2-.4zm-58.2-.1q.2 0 0 0 0 .2 0 0m-19.6 1.3.4.2zm11.4.5.4.2zm63.2.1-.2.4zm8.3 1.2h.2l-.1-.1zm-1 .7.2-.4zm-12.3 1.3-.2.4zm-79.6.7.5.5zm17.7.5.4.2zm58.5.7v.2zm19.3.4.5-.5zm-20.5.4.2-.4zm-1.8.9-.2.4zm8.6.9-.5.4q.4 0 .5-.4m-12.7 1.4.2-.4zm11.4-.5-.2.4zm-65.1 2.2.4.5q0-.3-.4-.5m-10.9.8-.2.4zm58.5 1.2v.2l.1-.1zm10.2.4.5-.5zm-11.4.4q.2-.2 0 0 .3-.2 0 0m-52.3 1.2-.4-.5zm0 0 .4.2zm-2.2.9-.5.5zm-1.2 1.8.2-.4h-.5zM77 153l-.4-.5-.1.1zm57.7.2.5-.5zM77 153l.4.2zm56.8.6q-.2.2 0 0-.2.2 0 0m-37.7 2.2-.5-.5zm63.2.6.5-.5zm-50.5-.1-.2.4zm-12.3.4.4.2zm-25 1.3.4.2zm12.7.1.4.2zm41.6.2v.2l.2-.1zm-15.7 3.4-.2.4zm-29 .9-.4-.2zm53.2 2.9.2-.4zm-57.8.2-.4-.2zm0 0 .4.5zm6.8.5-.5-.5zm13.2 0-.5-.5zm36.4.2.5-.4q-.3 0-.5.4M96 169l-.5-.4zm-10.9 0 .4.2zm10.9 0 .4.2zm-22.3 2.2.5.5zm108.7 1.2-.2.4zm9.6 0-.5.5zm-117.4.2.4.2zm105.1 1.6.2-.4zm-39.6-.1-.5.5zm-1.3.9-.2.4zm-40.5.8.4.2zm65.9 2 .5-.5zm0 0-.2.4zm-85 1.6-.4-.2zm72.7-.3-.5.5zm-.4.5-.2.4zm6.8 1.8.2-.4zm-11.4.9.2-.4zm10.5-.4-.5.5zm-31 .8-.3.2.1.1zm14.2 3.7q0-.3 0 0 .2-.2 0 0m10.4-.5-.2.4zm-73.2 1.3.4.2zm12.7 0 .4.2zm77.8.1-.5.5zm-35.1 3.6-.2.4zm-39 1.7-.4-.2zm46.8-.3-.2.4zm-1.4.9.2-.4zm-57.6.5h.3l-.1-.1zm.8 1.2q-.3-.2 0 0-.2-.3 0 0m6.3 0-.5-.5zm54.6 1.9-.2.4zm-53.2.4.5.5zm22.3 0-.2.4zm-21.4 1.4.4.2zm9.1 4.1.5.5zm2.1 1-.1.1.1.1zm-1.2.3.4.2zM73 92.1l-.4-.2zm30 115.2v.2zq0 .2 0 0m169.5-62.1-1.6.7-13.3 8.4-21.8 13.8-13.7 9.1q-.6.5-1 1.2l1-.4 9.3-5.9 20.7-13 15.5-10 5-3.7zm-24.3-25.5 12.8-8c3.9-2.5 7.7-5.2 11.9-7.2q2-1 3.8-2.3 1.6-1 3-2.3.3-.3.8-1.4l-2 .9a56 56 0 0 0-8.4 5.2q-4.6 3-9.4 5.8l-11.7 7.2-4.2 2.9c1.9.4 2.7-.4 3.4-.8m-17.3-42.3q1.5.2 2.9 0 4.2-.8 8.4-1.3l12.8-2.2 9-1.7 10.5-2q-1.2-.3-2.4-.2l-1.5.3-7.5 1c-2.9.4-5.7 1.6-8.8.8H253v.2l1.6.3c-2.5.8-5 .6-7.4 1.5-1.8.7-3.9.7-5.9 1q-3.8.5-7.4 1.5c-1.1.3-2.3-.1-3 .8m15 13.7 1.5-.5 6.5-4c4-2.3 7.8-5 12-7q4.2-2 7.8-4.9c.6-.5 1.4-.7 1.7-1.7h-.9l-6.6 3.8-3.9 2.6q-7.6 4.2-14.7 9c-1.4.8-2.8 1.3-3.4 2.7m11.5-.9 8.3-4.5c3.1-1.6 5.7-4 9-5.5 1.8-.8 3.3-2.3 5-3.4l.6-1.1-3 1.2c-2.3.9-4.1 2.5-6.1 3.8q-3.6 2-7.1 4.2l-7.5 5.2q.7.2.8.1m-.3 35.1 2.2-1q8.1-4.4 15.8-9.5 2.9-2 5.6-4.2-2.9.7-5.1 2.1-9 5.4-17.4 11.4-.6.5-1.1 1.2m-7.7 29.1 5.3-2.9 22.9-14.8 1.4-1.3q-1 .2-1.6.6l-17.9 11.4zm11.3-25.5q.5 0 1-.3l9.3-5.3 7.9-5.5.5-1A85 85 0 0 0 263 127zm-26.8-1a16 16 0 0 0 8.3-4.8q-1.1-.3-2.1.2a20 20 0 0 0-6.2 4.6m39.2-30.3c-1.4-.2-2.5.6-3.4 1.4a23 23 0 0 1-4.5 3.2l-.7.8v.1h.4q3-1.4 5.9-3c.9-.7 2.3-1 2.3-2.5m7.8-16.4h-.9l-3.5 2-1.4 1.2-1.4 1.1.3.4 4.8-2.8zm-7.8 16.4q1 0 1.7-.4l4.2-2.9q-1.7.2-3.2 1-1.7.6-2.7 2.3m-43.7-26.3c-2.3-.4-4.5-1.5-6.9-.9 2.3.1 4.5 1.4 6.9.9m3.3 27.6q3-1 5.4-3.2-3.2.8-5.4 3.2m8.5 30.4c-2 .5-3.5 1.9-5.1 3.1l.1.1a12 12 0 0 0 5-3.2m1.7 28.7q2.3-.5 4.1-2.3a8 8 0 0 0-4.1 2.3m1.1-60.1q1.9-.3 3.2-1.8-1.9.3-3.2 1.8m31.3 45.6a4 4 0 0 0-2.8 1.7l.1.1q1.7-.4 2.7-1.8m-23.1-44.6q-1.5 0-2.3 1.3 1.5 0 2.3-1.3m-14.6 9q-1.5 0-2.3 1.3 1.6.1 2.3-1.3m9.4 47.8q1.5-.1 2.3-1.3l-.1-.1q-1.3.2-2.2 1.4m20.7-66.3q-1.5 0-2.3 1.4 1.5-.2 2.3-1.4m-10.6 29.9q-1.5.3-2.2 1.4 1.5-.1 2.4-1.3zm-21.3-16.4q1.5 0 2.3-1.4-1.5.2-2.3 1.4m13.7-8.1q-1.5 0-2.3 1.4 1.4-.2 2.3-1.4m-23.7-16.5h2.2c-.7-.3-1.5-.8-2.2 0m5.1-.8h-2.2c.8.3 1.5.8 2.2 0m12.6 50.5q1 0 1.4-.9-1-.2-1.4.9m-.9-17.3q-1-.1-1.4.9 1 0 1.4-.9m-.5 18.2q1 0 1.4-.9-1-.2-1.4.9m.5-18.2q1 0 1.4-.9-1 0-1.4.9m-7.3-1.4q-1 0-1.4.9l.1.1q1.1 0 1.3-1m15.5-15.4q-1 0-1.4.9 1.1 0 1.4-.9m-3.6 14.1q1 0 1.4-.9-1.2-.1-1.4.9m-9.6-.1q1 0 1.4-.9-1 0-1.4.9m11.8-1.3q1 0 1.4-.9-1-.2-1.4.9M269 94.4q1 .2 1.4-.9-1-.1-1.4.9m-18.2 11.3q1 .1 1.4-.9-1-.1-1.4.9m-2.3 25q1.1 0 1.3-.9-1 0-1.3.9m5-26.8q-1 0-1.4.9 1.2 0 1.4-.9m2.3-1.4q-1-.1-1.4.9 1 .1 1.4-.9m13.2-8.1q-1-.2-1.4.9 1 0 1.4-.9m-30.9 7.2q1 0 1.4-.9-1-.2-1.4.9m11.8-1.4q-1-.2-1.1 1.1zm-21 30.9q1 0 1.4-.9-1 0-1.4.9m48.7-.8q-1-.2-1.4.9 1 .2 1.4-.9m-45-31.5q-1 0-1.4.9l.1.1q1 0 1.3-1m32.8-2.2q1 .1 1.4-.9-1 0-1.4.9m13.6 38.7q1 .2 1.1-1.1zm-56.9-11.9q1 0 1.4-.9-1-.2-1.4.9m-1 55q-1 0-1.4.9 1 0 1.4-.9m34.7-81.8q-1 0-1.4.9 1.2.2 1.4-.9m9.6-5.9q-1 0-1.4.9 1 .1 1.4-.9m-44.2 33.1q-1 0-1.4.9 1 .2 1.4-.9m41.5-31.3q1 0 1.4-.9-1.1 0-1.4.9m12.6 51q1.1 0 1.3-.9-1 0-1.3.9m-4-50.5q1 0 1.4-.9-1 0-1.4.9m-35.5 21.8.9-.5zm34.6-21.3.9-.4zm-45.5 28.1.9-.4q-.6 0-.9.4m28.6-17.7.9-.4zm-12.3 1.8-.9.4zm-17.7 16.8.9-.5zm16.4-15.9-.9.5zm9.5 0c-.4 0-.8-.1-.9.5zm-3.1 1.8.9-.5zm-1.4.9-.9.5zm-.4-17.3-.9.4q.5 0 .9-.4m-4.6 2.8.9-.5zm0-.1-.9.5zm-1.8 1 .9-.4q-.4 0-.9.4m28.6 0 .9-.4zm6.4-4.1c.4 0 .8.1.9-.5zm-16.4 4.5-.9.5zm-11.8-4.5.9-.5zm29.1-.4.9-.5zm-8.6 5.4-.9.5c.3 0 .8.1.9-.5M253.6 98l.9-.5zm10.4-.5-.9.4q.5 0 .9-.4m-22.8 14.1-.9.5zM244 98l-.9.5q.7 0 .9-.5m19.1 0-.9.5c.4-.1.8.1.9-.5m-41.9 25.8.9-.4zm31-24.9.9-.5zM240.3 112l-.9.5q.7.2.9-.5m27.4-22.6.9-.4zm-26 9.9.9-.5zm-.9.4c.4 0 .8.1.9-.5zm-2.7 13.7.9-.5zm2.3-13.2-.9.5zM269.9 88l-.9.5zm-14.1 14.5.9-.4zm-19.1 11.8.9-.5zm20.4 11-.9.4zm-11.4 1.3-.9.5zm-13.1 2.3.9-.5zm-.9.4.9-.4q-.6.1-.9.4m9.5 0 .9-.5zm-10 .5q-.7-.2-.9.4zm47.3.1-.9.5zm-49.6 1.2-.9.4zm21.8 4.2.9-.5zm-.4.4q-.7-.2-.9.4zm26.3 6.9.9-.4zm-34.4-49.2-.9.5zm38.1 52.8-.9.5zm-29.5-52.3.9-.4zm27.2 53.7.9-.4zm-15.3-55-.8.1.1.3zm18 59.1.8-.2-.1-.3-.8.3zm-2.3 7.3.8-.1-.1-.3zm-34.8-66.5-.9.5c.3-.1.8.1.9-.5m23.2-26.8.7.4.1-.3zm5.9 26.4.5-.5zm-27.8-.5-.5.5zm11.9 4.6.2-.4zm7.7.9-.5.5zm10.5-6.3.2-.4zM253.5 98l-.5.5zm-10.4.4-.5.5zm18.7.5.5-.5zm6.8-10 .5-.5zm-6.9 10-.2.4zm-9.9-5.5.2-.4zm-11 6.3-.5.5zm15.9 2.4q.2-.3 0 0 .3-.2 0 0M270 88l.2-.4zm-27.4 16.8.2-.3zm0 0-.2.4zm-1.3.9.2-.4zm-1 .4-.5.5zm5.9 2.3q0 .2 0 0-.2.2 0 0m-1.3.9.2-.4zM239 113l.5-.5zm-1.4.9.5-.5zm-2.3 1.3.5-.5zm0 0-.2.4zm6.9-21.8.5-.5zm-16.4 27.7.2-.4zm29.1-.4-.2.4zm-30.5 1.3.5-.5zm24.1 2.8.2-.4zm0 0-.2.4zm-1 .7-.1-.1-.1.1.1.1zm-1.3.7.2-.4zm10-.5-.2.4zm-10.4.9.5-.5zm-12.3 1.8.4-.5zm18.3.2h.3l-.1-.1zm-.8.4-.1.1.1.1zm9.7-.1-.2.4zm18.3.5.2-.4zm-47.8.4.5-.5zm18.7 0q0-.2 0 0 .2-.2 0 0m28.6.1.5-.5zm-25.1 3.8-.1-.1-.1.1.1.1zm-1.3.7.2-.4zm0-.1-.5.5zm-1.8 1.4.5-.5zm28.4 5.7-.1.1.1.1zm-1.1.8.2-.4zm2.7 4.1.2-.4zm-1.4.9.5-.5zm-37.6-53.4-.5.5zm37.1 71.1.2-.4zm-10-98.6v.2l.1-.1zM56.1 139.8l-.2-1.3-1.8-5.9-.2-1.8-1.9-4.4c-.4-1-.4-2.2-1.4-2.9l.9 4.1q1.4 4.9 3.2 9.6c.4.8.3 2 1.4 2.6m-9-38.7c-.9-2-1.8-4-3.6-5.5l-.1.1 2.5 4.4q.5.6 1.2 1M48 112c.6 2 2.2 4.3 3.8 5.3l-2.1-3.3zm4.1-22.2q.3 1.8 1.8 2.7l.1-.1a6 6 0 0 0-1.9-2.6m-2.2-9.6q-.8-1.1-2.3-.9.8 1.1 2.3.9m-3.7-1.4q-.8-1.2-2.3-.9 1 1.1 2.3.9m19.2-8.6h-2.6c1.5.6 1.5.6 2.6 0m-9.7 44.1q0-1-.9-1.4 0 1 .9 1.4m-.9-1.3q0-1-.9-1.4 0 1 .9 1.4m-5.4-17.8q0 1 .9 1.4 0-1-.9-1.4m.9-8.2q0-1-.9-1.4-.1 1 .9 1.4m-1.8 6.8q0-1-.9-1.4-.2 1.2.9 1.4m1.8-6.8q-.1 1 .9 1.4.1-1-.9-1.4m3.7 15q0-1-.9-1.4l-.1.1q0 1 1 1.3m-1.9-2.7q0 1 .9 1.4l.1-.1q-.1-1-1-1.3m-.9-10.9q-.1 1 .9 1.4 0-1-.9-1.4m6.3 47.7q.1-1-.9-1.4-.2 1.2.9 1.4m-10.9-45c0-.6 0-1.1-1.1-1.1zm10.8 45.1q-.1 1 .9 1.4.1-1.2-.9-1.4m-8.9-42.4q-.1 1 .9 1.4 0-1-.9-1.4m-5.9.5q-.2 1 .9 1.4l.1-.1q-.1-1-1-1.3m15.8 24.1q0-1-.9-1.4-.1 1 .9 1.4m-7.2-20.5q0-1-.9-1.4-.1 1.2.9 1.4m6.3 19.2q0-1-.9-1.4-.1 1 .9 1.4M51.2 98q0 1 .9 1.4l.1-.1q-.1-1.1-1-1.3m-3.6-18.7c-.3-.8-.9-.4-1.4-.4.3.7.9.3 1.4.4m4.5.5q-.4-.9-1.4-.1zm-.9.9c-.2-.8-.9-.4-1.4-.5.3.7.9.4 1.4.5m1.4.4c-.2-.8-.9-.4-1.4-.5.3.8.9.4 1.4.5m0 0c.2.8.9.3 1.4.5-.3-.8-1-.4-1.4-.5m-14.1 5.4v1.4h.5c-.2-.5.2-1.1-.5-1.4m17.6 53.3.1 1.5q.8-1.1-.1-1.5M43.9 77.9c-.2-.8-.9-.3-1.4-.5.4.8 1 .4 1.4.5m12.2 37.3-.4-.9zm1-27.3-.4-.9zM48 83.8l-.4-.9zm6-2.2.7.4.1-.3zm-15.5 4.9-.1-.8-.3.1zm12.2 36.9-.1-.8-.3.1zm-3.2-30.9-.5-.9c.1.3 0 .8.5.9m1.4-7.3-.4-.9zm9.1 4.1-.4-.9zm-1.4 35.9-.4-.9zm-9.5-24.1.1.8.3-.1zm10.4 25.5-.5-.9zm.4.9-.4-.9zm.9 1.4c0-.4.1-.8-.5-.9.1.3 0 .8.5.9m-3.6 3.6.5.9zm.9 1.4q-.2.7.4.9zm-14-40.5.5.9zM62 70.8l-.5.1v.2l.5-.1zM47.1 91.5l-.5-.5zm10-3.5.5.5zm-.4-1-.4-.2zm-2.8 24.6-.4-.2zm-6.9 0-.2.4zm1.5-27.3-.5-.5zm8.1 31.4-.5-.5zm-9-32.8-.4-.2zm8.1 41-.3-.2zm.4.4-.5-.5zm-14-30.9-.4-.2zm7.3-7.8-.5-.5zm7.2 39.6.5.5zm1.8 2.8-.5-.5zm-3.2 4.5-.4-.2zm.4.9.5.5zm-13-54.6-.4-.2zm0-1.4-.4-.2zm13.9 104.7-1.3-2.5c-1.5-2.2-2.6-4.7-4.5-6.6l-.1.1 2.3 4q1.6 2.5 3.6 5m2.7-5.1q-1-2.8-3.2-5c.5 2 1.9 3.5 3.1 5.1zm-3.6-27.7a6 6 0 0 0-2.3-3.6 6 6 0 0 0 2.3 3.6m-5 23.6a8 8 0 0 0-2.3-3.6 7 7 0 0 0 2.3 3.6m5.5-19.9q0 1.4 1.4 2.3-.2-1.5-1.4-2.3m-8.7 5.4a3 3 0 0 0 1.3 2.3c-.4-1.5-.4-1.5-1.3-2.3m11.8-.4q0-1-.9-1.4 0 1 .9 1.4m-.9-1.4q.1-1-.9-1.4 0 1 .9 1.4M56 153q0-1-.9-1.4 0 1 .9 1.4m1.3 30.5q.1-1-.9-1.4l-.1.1q.1 1 1 1.3M56 172.1q0-1-.9-1.4-.1 1 .9 1.4m-.9-1.4q.1-1-.9-1.4 0 1 .9 1.4m-6.8-1.4q0-1-.9-1.4-.2 1.1.9 1.4m-1.8-2.7q0 1 .9 1.4 0-1-.9-1.4m12.7.9q0-1-.9-1.4-.1 1.2.9 1.4m-1.8-2.7q0 1 .9 1.4 0-1-.9-1.4m0 0q0-1-.9-1.4-.1 1 .9 1.4m-4.1-19.1c-.1-.4.1-1.1-.9-.6zM46.9 158l-.1-.8-.3.1zm8.7 4.1-.4-.9zm-13.7.4-.5.9zm14.1 0 .5.9c0-.3.1-.8-.5-.9m-14.5.9-.4.7.3.1zm4.5 2.3.5.9zm6.4.5.5.9zm.4.9.5.9zm1.4 2.2-.5-.9zm-11.4 1.4-.1-.8-.3.1zm10 10.5.9.4zm.9.4.7.4.1-.3zm3.6 1.8.5.9c0-.3.1-.8-.5-.9m1.5-35.4.5.5zm-3.2 1.3.4.2zm-.9 1.8-.4-.2zm.5.5-.5-.5zm-8.3 6.4.5.4zm6.7.7-.1-.1-.1.1.1.1zm.6 1.1-.4-.2zm0 0q.2.1 0 0 .2.2 0 0m.9 1.3q-.2 0 0 0-.2-.1 0 0m.5 1 .5.5zm-9.6 3.6-.4-.2zm6.4.4-.4-.2zm.9 1.9.5.5zm-10.5 2.7.5.5zm15 13.7.4.2zm-16.5-64.2-1.2-2.1-1.6-2.1c.5 2 1.2 3.1 2.8 4.2m-2.4-12.7q.5 1.9 2 3.1c-.5-1.2-.7-2.5-2-3.1m3 42.3q-.2-1.6-1.7-2.6.3 1.8 1.7 2.6m6.5-18.2q0-1-.9-1.4-.1 1 .9 1.4m-8.6-31.9q0-1-.9-1.4 0 1 .9 1.4m8.6 31.9q-.1 1 .9 1.4 0-1-.9-1.4m-10-34.2q.2-1-.9-1.3 0 1.2.9 1.3m5.9 37.4q0-1-.9-1.4-.1 1 .9 1.4m0 0q0 1 .9 1.4 0-1.2-.9-1.4m1.3 11.3q0-1-.9-1.4l-.1.1q0 1 1 1.3m1.4-7.2q.1-1-.9-1.4-.1 1 .9 1.4m-2.2-22.3q-.1 1 .9 1.4 0-1.1-.9-1.4m-1 26.8q0-1-1-1.3 0 1 1 1.3m1 1.3q0-1-.9-1.3l-.1.1q0 1 .9 1.4zm-5.9-37.3-.2-.8-.3.1zm0-9.1-.5-.9zm9.9 27.8-.1-.8-.3.1zm-3.1 1.4-.5-.9zm1.3 1.8.5.9zm-4.1 3.2-.5-.9zm0 0 .5.9zm2.7 4.1.4.9zm-3.2 14.1-.4-.9zm-4.7-57.6h.2zm4.6 16.5v-.2l-.2.1zm2.5 7-.4-.2zm0 9.5-.4-.2zm-.1 0 .5.5zm4.1 0 .5.5v-.5zm-3.2 1.4.4.2zm1 1.3-.4-.2zm.4.5-.5-.5zm-4.5 2.3-.4-.2zm7.9-.4v.2zq.1.2 0 0m.5 1v.3l.1-.1zm.3.9.3.3v-.5zm-6 3 .5.5zm-2.3 5.9-.4-.2zm.4 3.7-.4-.2zm-.4 5.4-.5-.5zm-3.7 7.3-.4-.2zm.9.5.5-.5zm-1.6-64.6-.4-.2zm203.8-12.7q1.5-.2 2.2-1.4a3 3 0 0 0-2.3 1.3zm4.5-2.7q-1 0-1.4.9 1 0 1.4-.9m-2.3 1.3.9-.4zm3.2-1.8-.9.5zm0 0 .2-.4zm-44.5-35.1c-1.2.1-2.2-1-3.6-.2 1.3.5 2.4 1.2 3.6.2m-1.8-1.2c-1.1-1.1-2.3-.6-3.4-.4 1.1-.1 2.1 1.1 3.4.4m-3.9-1.7 2.8.7c-1.4-1.2-1.4-1.2-2.8-.7m-15.2 15.1q.8-.3 1.4-1.4-1.6.3-1.4 1.4m1.7 6.4-.5.9h.5zm-2.8-6.7h-.2l-.1.8h.5zm.1 3.9.4-.7-.3-.1zm2.2.3v-.6h-.2v.6zm.5 2.5.4-.7-.3-.1q.1.4-.1.8M203.9 47l-.1.1.1.1.1-.1zm4.4.6h.3l-.1-.1zm-28.1 7.1v.2l.1-.1zm.2 1.7h.5v-.5zm3.1-.2-.1-.1-.1.1.1.1zm-4.9 1.1q.2-.2 0 0 .2-.1 0 0m-1.7 1.1-.2.3h.5zm10.5.1h.2zq0-.1 0 0m-2.2 1.2-.1.1.1.1.1-.1zm-3.5.6-.4-.2v.5zm1.7.3-.1.1.1.1.1-.1zm2.7 0-.2.4h.5zm-4.2 1h.2zm.4 1.6q0-.2 0 0 .1 0 0 0m-13.8 30q4.1-1.6 3.9-4.6zm2.2-19.4-1-.7 1.5 5c.9-1.6-.2-2.9-.5-4.3m14.2 13.1-.9.9-.1.8-.3-.1.4-.7-.2-1.5-1.2 2.3.1.8 1.8-.3.5-.9zm-10.1.3-2.2 3.9q2.3-1 2.2-3.9m2.4 1.5.5.6q1.8-1.6 1.2-3.5zm-1.8-8.2v2.1c1.1-2.2 1.1-2.8.6-4.5-.5.7.3 1.8-.6 2.4m4.4 8.2q1.1-1.5.9-3.8-1.1 2.3-.9 3.8m-4.9-8.2-.9.9-.4 2.3q1.6-1.4 1.3-3.2m5.5 8.9.5.1c.3-1.1 1.2-2.1.6-3.7zm-6.4-8-.1-1.3-1.3 1.8.1 1.3zm1.3 8.6 1.8-1.4v-1.2c-.4 1.1-1.8 1.4-1.8 2.6m6.4-.4.9-.9-.1-2.1h-.3zm1.4-13.4.7 2.5q.7-1.5-.7-2.5m-4.7-2.1.9 2q.5-1.4-.9-2m2.9 1.4.1 1.7c.3-.6.7-1.2-.1-1.7m-10 4.8.2 1h.2v-1zm1.3 1.6-.1-1.3c-.2.5-.6 1 .1 1.3m2.3-1.4h.5l-.1-.8h-.2zm6.4-5-.1-.8-.3.1zm-6 14.5-.2.4zm6.4-.4-.2.4zm-13.1-17.7.4.2zm-41.9 10.3v-1.4c-.7-.8-.5-1.8-.9-2.7l-.5.6v2.1l.5.9zm19.6-13.1q-2-1.3-3.3.8zm-19.4-1.9 1.5-.4 1.3-.6-.1-.3H128l-.9.5zm4.5-1c-.9.2-1.7.4-2.6 1.6l2.8-1zm9.4 2.8 2.6-.5-.1-.4-2.5.5zm-7-1.6q-1.7-.6-2.5.6c1 .4 1.5-.3 2.5-.6m10.6 4.5-.4.9h.5l.5-.5zm-8.2 6.5-.1-.5-.1.1zq-.1-.1.1-.1m-2.7-2-.2-.3-.1.6zm1.4 3.6.2-.4zm-9.1-1.9.2-.4zm-1.2-1.6h.3l-.1-.1zm-1.3-.1v.2zq.1 0 0 0m6.6-.5.2-.4zm-3.4-.4v.3l.1-.1zm17.2-2.7.3.3v-.5zm2.7-2.2.3.3v-.5zm-5.6-1.6-.2.4zm19.7-29h-1.8v.5c.5-.3 1.3.4 1.8-.5m-8.7 4.5-.1-1.7c-.3.6-.7 1.3.1 1.7m8.2 9.8.1 1h.2v-1zm3.4-15.7.6-.1v-.2l-.6.1zm2 0 .3-.3-.6-.1zm-3.1.5-.9-.5zm-1.8.9.8-.1-.1-.3zm-6.1 1.2v-.7h-.2v.7zm1.1-.3.1.8.3-.1zm4.8 11.6-.1-.5-.1.1zm1.4 1.7-.2-.3-.1.6zm5.6-15.1-.4-.2zm-5 0 .4.2zm5 0q.2.1 0 0 .2.2 0 0m-17.3.4.4.2zm5.5 1.4-.4-.2zm41.1 20.4h1.2l1.4.6v-.5l-.5-.5c-.8-.7-1.8-.4-2.7-.5q.2.7.6.9m2-.3.5.5 1.8.4-.4-.9c-.7-.1-1.3-1.1-1.9 0m4 .8-.3-.8h-.9q.2 1 1.2.8m5 .2 1 .8q.1-.9-.8-1zm-7.2-1h.9v-.5zm9.1 13.7.4-.7-.3-.1zm-4.4-.8.1.5h.2l-.1-.5zm5.4-.2.3.3.1-.6zm2.3-1.2v.7h.2v-.7zm-4.3-12.2-.3-.2v.5zm6.2 10.4.1-.1zm-6.8-9.8.3-.3h-.5zm2.4-.1-.1-.1-.1.1zm-11.2 1.1.4.2zm7.7.5.4.2zm1.8.5.4.2zm-7.9 5.2-.3-.3v.5zm-75.6-7.7c2.1.9 4-.2 6.1-.3l-.9-.2-1.1-.3 2.8-.2c-1.6-.4-3-1.3-4.9-.5l1.6.4v.2l-2 .2 1 .7zm-2.3 1.3h2.9c-1.7-.6-1.7-.5-2.9 0m11-4.5h-1v.3l.9.1zm.2 1.8q-.4-.9-1.4-.1zm-15.4 3.6h.9q-.4-.9-.9 0m11.8.1-.7-.4-.1.3zm-12.7 0v.2l.8.1v-.5q-.3.3-.8.2m19-4.5h-.7v.2h.7q-.2 0 0-.2m-2.6.8.7.4.1-.3zm5.8.1.9.4q-.3-.3-.9-.4m-4.7-3.2v.3l.2-.1zm-16.6 1.3.3-.1-.3-.3zm18.4-.3-.2.1.1.1zm-18.4.7V57l-.3.1zm0 0 .4.2zM140 59l-.4-.2zm-.9.9-.4-.2zm1.8-.4.4.5zm-1.8 2.3-.4-.2zm-3.7.4-.4-.2zm1.8 0-.4-.2zM172.4 191q1 0 1.4-.9-1 0-1.4.9m3.6-2.2q1 0 1.4-.9-1-.2-1.4.9m1.4-1q1 0 1.4-.9-1 0-1.4.9m-1.4.9-.9.5zm-2.3 1.4.9-.5zm1.4-.9-.5.5zm-2.7 1.8-.5.5h.5zm3.5-149.6v1.4c.6-.5 1.9.3 1.8-1.2zm-5.8 2q.6-1 .8-1.7c.1-.2-.3-.6-.4-.8l-.5.5zm8.4-.8.6-1-.4-.2-.5 1zm-3.6.5.6-1-.3-.2-.7 1zm-3.1-.8-.4.7.3.1zm4.7 7.9v.7h.2v-.7zm-4.5 1.3v.6h.2zm3.3-.3-.1.1.1.1zm-5.1 1.6-.1.1.1.1.1-.1zm4.3.4.2-.4zm29.1 32.6v1h.3l.1-1zm-4.1-3 .4.2zm23.2-.8.9-.5h-.9zM143 50.4l1.2 1.3q.4-1.3-1.2-1.3m2.9 1.8v-.9l-.5-.5c-.6.7-.6.8.5 1.4m-3.7-1.3c.1.5.2 1.1 1.2 1l-1-1.1zm7.3 10.9v.9h.5q.1-.7-.5-.9m-3.6-4.8.1.6h.2l-.1-.6zm-1 .2v.9h.5zm2.7 2.4h-.2l-.1.8h.5zm.1.8v.9h.5c-.1-.3.1-.8-.5-.9m1.7.6h-.2l-.1.8h.5zm-14.9-10.6-.4-.2zm.5.4-.5-.5zm7.3 0-.5-.4-.1.1.4.5zm-7.3.1q.2 0 0 0 0 .2 0 0m5.9.4.4.2zm5 .9.3.2zm-7.1 1 .1.2.1-.1zm3.4 2.2-.4-.2zm.5.5-.4-.5zm-1.2.1-.2.3h.5zm1.2-.1.4.5.1-.1zm1.6.5-.2.4h.5zm.7.8-.5-.5v.5zm3.4 1.5.1-.1zM70.3 87l-.2.4zm149.3-39.6-.9-.9h-1.4q.9 1.1 2.3.9m-1.9.9.7.4.1-.3zm-44.3 20.1-.3.3h.5zm-8.5.2-.4-.2zm7.3-1.8q-.2.4 0 0-.2.2 0 0m-20.8 14.6v.3l1.2.1v-.5zm-5.1.4.8-.1-.1-.3zm1.9-3.1v.2l.8.1v-.5zm-2.4 5.8.2-.4zm4.5-1.5-.1.1.1.1zm-6-3.8-.3-.2v.5zm3.3-1.1-.2.4zm-5-.9q.3.2 0 0 .2.3 0 0m2.3 2.8.2-.4zm62-25.9.8-.3v-.9q-.9.1-.8 1.2m-5.5-.8v.5h.5v-.5zm8 .3.2-.3h-.5zm-7.3.4.2-.3h-.5zm1.2 0 .3-.3h-.5zm4.7.1.2-.4h-.5zm2 .6-.2.4zm.9.9-.2.4zm-47 32.2-.3-.3-.1.8zM162 86h-.2l-.1.8h.5zm2.9-1.9-.4.7.3.1zm.5 3.7-.4-.2zm-2.3-5.1-.2.4zm35.6-7.9.3.3v-.5zm-7.8-7.4.2-.4zM157.2 75h-.9q.5 1 .9 0m-2.3 0 .4.2zm.9-.5.5.5zm-.9.5v-.5h-.5zm-1.5-.2.2-.3h-.5zm-2-.4.3-.3h-.5zm-2.1-.5.2-.3h-.5zm5.6 13.8.7.4.1-.3zm-30-22.8-.7-.4-.1.3zm63.2 18.8.4.2zm-71.4-12-.5-.5zm0-1.3v-.5h-.5v.5zm0-2.8v.9h.5zm1 1.4-.5-.5v.5z"/></svg>