<svg xmlns="http://www.w3.org/2000/svg" xml:space="preserve" viewBox="0 0 127.1 165.5"><path d="m122.1 161.7.1-.7-.1-.6z"/><path d="M122.4 156.3c-.1-.9-.2-2-.3-1.4l.2 2.2-.1 1.3.1 1.7zc-.1-.3 0 0 0 0"/><path d="M122.6 78.2v.5z"/><path d="M122.7 29.7v.5z"/><path d="M122.8 21.5v.5z"/><path d="M122.6 78.2v-1.3z"/><path d="M122.1 145.5v.7zq0 .2 0 0"/><path d="M122.7 99.5v.4l.1.3z"/><path d="M122.7 115.9q0-.5-.2-.6l.1.8z"/><path d="M122.5 141.9v.5z"/><path d="M103.4 161.2q.2 0 0 0"/><path d="M122.4 161.7h-.3l-.1.1z"/><path d="M123 6.3q0 .2 0 0 0 .6 0 0"/><path d="M3.9 22.8c.1-1.5.2 2.6.3.2-.1.2-.2-2.1-.3-.2"/><path d="M122.1 145.1v-.7z"/><path d="M4.2 23v-.2z"/><path d="M89.7 3.6h.4q0 .2-.4 0"/><path d="M115.7 3.8h-.6z"/><path d="M76.3 3.8h-.9z"/><path d="M62.2 3.8h.7z"/><path d="m60.8 161.2.6.1c-.2-.1 1.9-.1-.6-.1"/><path d="M122.1 145.5v-.4zq0 .2 0 0"/><path d="M75.7 4.7h-2.2z"/><path d="M4.9 117.4v.5z"/><path d="m66.8 4.7-1.3-.1h-.3z"/><path d="M76.1 161c-2.1 0-1 .1-1.4.2-2.5 0-1.2-.1-2-.2l-4 .2q-.3 0 0-.1c-1.7.1-5 0-6.9.2h-.3l.3.2h-2.1l.9-.1h-1c-.9-.1 1.4 0 1.4-.2-1.9 0-4.2.2-5.7.1-.3-.1 3.5 0 1.5-.2l2.3.1c-1.8-.2 1.4 0-.2-.2-3 0-3.4.1-6.4 0-.7.1.2.1-.5.2-4.3.1-3.4-.3-6.6-.2-.8.1-1.1.3-3.4.2l.8-.2c-2.9 0-1.7.2-4.8.1l1.9-.1c-2-.1-1.4.1-2.9.1l-.3-.1-10 .1-13.6-.2-1.6.1q-.7 0-.3-.1c-1.6 0-.1.1-.9.1q-1.4 0-.6-.1L5 161v-3l.1-2.9v.6c0-2.4-.2-2.7-.1-4.9v.4c.1-5.2-.1-10.9.1-14.8-.2-.7.1-5.1-.2-5.4.1-2.9.2-2.1.2-6.3l-.2-3H5l-.1-1.9.1-1v-1.3l-.1 1v-3.2l.1-1.7-.1-4.8.1 1.5v-2.8c0 .3-.1-.2-.1-.2v-5.8l.1.4V90.5c0 1.4-.2 1.1-.2-.1l.1-.5c-.1-.7 0 1.2-.2-.3 0-1.5.2-1 .2-.1v-1.8l.1.4v-4.3l-.1-9c-.1.5 0-.8-.1-1.8l.1-7.8c-.1-2-.1-.6-.2-1.5.1-.1.1-3 .2-1.5l-.1-8.7-.1.7c0-.8 0-1.8.1-1.7v.2c-.2-4.9.3-11.2.1-15.1v.2l-.1-4c0-1.8.1 1.1.1-.3-.2-4.3 0-6.8-.1-10.4.3-2.8 0-9.8.2-13.5l-.1.3L5 8c-.1.1-.1 1-.1.4V4.6l10 .1 10.5.1c3.1 0 1.7-.4 5.6-.2l-1.1.1 18.7-.1-1 .1h2.8l1.9-.1c.9 0 .2.1.8.1H57h-.6c.8 0 3.9 0 3.1-.1h6.1c1.2-.1 3.9.1 4.3-.1-.2.2 4 .1 5.4.1-.5.1 1.2.1.7.1 1.6 0 3.1 0 2.9-.1 3 .2 6.1-.2 7.8.1l13.7-.2c-.2.2-4.8 0-4.6.2l10.7-.2c1.1 0-.6.1-1 .1l11.7-.1h-.8c.7 0 1.7 0 1.6-.1h-.7c-1.2-.1 2.9-.3 3-.3-.6.1.3.1 1.1.2h.7l-.2.2h.2q0 .2.1.1v.5l-.1-.4.1 4-.1-.7c.1 1.2.2 2.4.1 4.4 0-.1-.1.1-.1-.5 0 3.4.2 5.8.1 9.6-.2-1.1-.1 1.3-.2 1.5v2l.1-.8.1 4.9-.1-1.3v3.3l.1-1.9c.1 1.8.2-.2.1 2.2l-.1 2.7.1 3.1c0 .3-.2-.3-.2-.1.1.9 0 4.1.2 5.2q0-.5-.1-.3l.1.7q0 1-.1.8c0 2.5.2-.8.1 2.1V45v8.4c-.2.8 0-2.4-.2-1.4 0 3.9.2 8.1.1 11.8v-.7c.2.5-.1 2.8 0 4.7l-.1-.5.1 9.2-.1-.5-.1 5.6c.1.5 0 1.4.1.9-.3 5.1.2 9.7-.1 14.2v-.9l.1 3.8.1-1.3.1 2.5c-.1-1.7-.2 0-.2.8l.1.1c-.2 2 .2.3.1 3.1v-.1l.1 3.1c-.1.5-.1-1.1-.1-1.2l.1 4.5-.1-2.3-.1 2.8v-.1l-.1 2.6v-.7q.2 2.7.2 6.6c-.2-2.5-.1-.4-.2-.6l-.1 1.4c.1 1.2-.1 2.1.1 3.8 0 .1 0 1.3-.1 1 0 1.6.1-.4.1-.2.1 2.5-.2 5.8 0 9.4l.3 6.5c-.1 1-.1-.8-.1-.8v4.2l-.1.5.1 2.3-.2-1.2.1 4.2c-.1.4-.1-.9-.1-1.4l.2 4.7v-1q0 .7-.1-.1-.1-2 .1-2.1v1c.2-1 0-4.1 0-6.1l.2.9-.1-2.1c0-.4.1-.8.2.3V142v.1l-.1-1.4c0 .3.1-.2.1.6v-5.1.2c-.1-3.6-.1-.3-.3-3l.3-1.8-.1-.4c0-.4 0-1.1.1-1-.1-1.4-.1.2-.1-.6.1-1.8-.1-4.9.1-5.3-.1-.6-.1 1.7-.1-.2.2-.5 0-2.2.1-3.8.1.5.1 2 .1.4-.2-1 0-3.2 0-4.5l-.1-5.3.1-6.4v.1l-.2-4.2.2 1.2v-1.5l-.1-1.8.1.4-.1-6.6c-.1-.1-.3 2.1-.4-.7.1-.1.2-.2.2.5v-1.3l.1 1.1-.1-1.6.1-.6v1.2l.1-2.8-.1-.8c0-2 .1-.7.1-1.9l-.1-1.8.1-.9c-.1-1 0-4.8-.1-3.7v.3-10.6l-.1-5.9.1-1.2v-3.9c.1 1.5.1-.5.1 1.6v-4.6c.1.7.1-1.5.1-2.5l-.1 1.4v-3l.1.5c.2-4.1-.3-7.4 0-10.5-.1-1.1-.1 2.2-.2 1.3l.2-4.4c.1-2.6-.2-2.4-.1-5.1 0 .3-.2.7-.2-1.3q.1-2.9.2-1.1v.7c0 .6 0 1.4.1.7V31c0-.9 0-3.5.1-2.9 0-1.4-.1-.6-.1.4v-6.3l-.1.4c.1-3.7-.1-1.6-.1-4.1.1-1.4.2.5.1-2 0-1.5.1-.3.2.3l.1-5.5v1.2-1.9l-.1.7.1-1.3c-.1-.7-.2.6-.2-.9 0-.9-.1-2.8.1-3.2 0 2.9.1-.3.1 2.2V6.3v.3-1.5l-.1-1.2-1.1.1h-1.4c.4-.1-.7-.1-1.2-.1 1.2 0 .6.1-.5.2h-3 1.1l-2.6.1c-.1-.1 1.2 0 .7-.1h-5.3c-.9 0-.1-.1-.9-.2h-4.8c.7.1.8.1-.9.2l3.9-.1-2.5.1h3.2c-1.2.1-1.1.1-.5.1h-5.1l.1-.2c-2.8-.1-5 .1-8.6.1h1.2l-3.4.1c.1-.1-.6-.1-1.1-.2.1.1-2.7 0-3 .2l-1.6-.1-6.2.2c.9-.1-.4-.1 1.5-.2h-5.3l-1.6.1s-1.7.1-.7.1c-3-.5-8.2-.3-10.7-.5l-6.4.1h.4c-2.6-.1-1.6.2-4.5.1-1.5-.1 1.6-.1.6-.1-.4-.3-3.5 0-5.5-.1h.5l-6.2.1-7.3.1q1.2-.1.6-.2c-1 .1.3.2-1.8.2l-2.4-.2h2-3.6l.1-.1c-3.1 0-3.1.2-6.4.2h.3c-1.8.2-1.5-.1-3.3 0l-.5-.2-6.3.2 5.2-.1-4.6.1h1.5L9.2 4l-1.4-.2H4.1v2.1L4 7.2v13.1c.2-1.7 0 1.4.3 1.1v1.7L4 26.4c-.1.8-.1-1.1-.1-1 0 2.5-.1 1-.2 2.7.1-.3.1.9.1 2.3l.1-2c.1 3.5-.2 3-.1 6.5l-.1-1.1.1 8.2c0 4.3.2 9.5.1 12.8l-.1-.3L4 57q0-.3-.1 0l.1 3.2-.1-.9c-.1 4.2.2 6.4.2 9.9-.2 0-.2 3.3-.3 4.9V74L4 86.7c-.2 2.8-.1 9.4-.2 13.9 0-.7.1.1.2.9v2.7-.4c-.2.8-.1 3-.1 4.6l.2.3c-.3 4.4.1 11.6-.2 14l.1 3.4-.1-.1v8.1l-.1-.7c0 2.1.3 2.6.3 4.5l-.1.7v10.8l-.1-.7c0 1.7-.1 6.5.1 5.9-.2 0 0 3.7.1 5.6l-.1-.3.1 1.1v1.1l2.4-.1h-.2 3.6H9l2.7-.1 3.8.1 2.4-.1-.5.1h6.7l.4.1h-4.3c0 .1 2 .1.4.3l6.3-.2h.3-.2 2.8l3.3.1c-.1-.1 1.2-.1 0-.2h-1.2.1-2.5 2.7l1.4-.2c1.4.2 4 .2 4.3.3 3-.1 7.1 0 9-.3l1.3.1h-1.4c1.7-.1 5.1 0 5.5-.2 2.2.1-1.2.1 1.8.1h-.4c5.9.2 9.5-.4 16.1-.1l-.8-.1c7.4.1 15.3-.1 22.6.1l3.6-.1.5.1 2.2-.1c3.1-.1 5.3.3 9.2.1l-.5-.1h5.2v.1l3.4-.1c2.7 0-.4.3 3.5.3l3.6-.2-1.5-.1h1.3c.2-.2 1.3-.4-2-.5l-2.3.1-.7-.1h1.9-2.5l-.9-.1-2.2.2c-.3-.1 1-.1-.5-.2-1 .1 1 .2-.7.2-1.1-.1-.8-.2-2-.1l.6-.1-3.6.1c-1.1-.1-3.8 0-3.7-.2l-3 .1c1.9-.2-3.9 0-3.4-.2-1.4.2-5.1.1-7.6.2h.6l-2.7-.1c-.2.2-2.4.2-3.5.3-1.7-.2 1-.2.5-.3.1.1-3 .1-2.4.2-1.3-.1-1.1 0-1.8-.2l-2.3.2c-1.9-.1-.5-.2-2.6-.1-1.1 0 .8-.1.8-.1m-49.6.4h1zm-4.2 0h1.8l-.4.1zm8.8.8h-1 1.3z"/><path d="M32.3 162h.3-.6z"/><path d="M4.9 122v.4z"/><path d="M122.2 101.7v.3z"/><path d="M122.2 111.6v1.4z"/><path d="M116.2 4.6h-.3z"/><path d="m122.2 34.1-.1-1.2z"/><path d="M75.9 4.7h-.2z"/><path d="M122.2 31.2v1.7z"/><path d="M122.1 152.3v.4z"/><path d="M122.1 152.8v.4z"/><path d="M122.1 154v-.9z"/><path d="m122.1 139.2-.1 2.9v.1c0-.6.2-2.3.1-3"/><path d="M122.6 126.4v2.6c0-.4.1-1 .1.1.1-3.3-.1.6-.1-2.7"/><path d="M122.7 118.4c0 1.4 0 0 0 0q0-1.3 0 0"/><path d="m122.7 60.8.1.1c0-1.1-.1 0-.1-.1"/><path d="M122.1 49.7v1.1l.1.5z"/><path d="M122.9 43.2v.5l-.1-1.8z"/><path d="m64.7 3.7.3.1q1.3 0-.3-.1"/><path d="M22.9 3.8h-2.4z"/><path d="M3.9 110.9v-.8 1.6z"/><path d="m125.1 164.4.1-.7-.1-.6z"/><path d="M125.4 158.8c-.1-1-.2-2.1-.3-1.5l.2 2.2q0 1.4-.1 1.3l.1 1.7zc-.1-.3-.1 0 0 0"/><path d="M125.6 77.4v.5z"/><path d="M125.7 27v.6z"/><path d="M125.8 18.4v.5z"/><path d="M125.6 77.4v-1.3z"/><path d="M125 147.6v.7z"/><path d="M125.7 99.7v.4l.1.3z"/><path d="M125.7 116.7q0-.5-.2-.7l.1.8q.1.2.1-.1"/><path d="M125.5 143.8v.5z"/><path d="M125.7 87.4v-.2z"/><path d="M105.6 163.9q.2 0 0 0"/><path d="M125.4 164.5h-.3l-.1.1z"/><path d="M126 2.6s0 .1 0 0q0 .6 0 0"/><path d="M.9 20.9c.1-1.6.1 2.7.3.2-.1.2-.2-2.3-.3-.2"/><path d="M125.1 147.2v-.7z"/><path d="M1.2 21.1v-.3z"/><path d="m90.3.9.4.1z"/><path d="M117.4 1.1h-.7z"/><path d="M76.3 1.1h-1 .2q.1-.2.8 0"/><path d="M61.6 1.1h.8z"/><path d="m61.2 163.9.7.1c-.3 0 1.9-.1-.7-.1"/><path d="m125.1 147.6-.1-.4zq0 .2 0 0"/><path d="M75.7 2h-2.3z"/><path d="M1.9 119.3v.5z"/><path d="m66.5 2-1.3-.1h-.3z"/><path d="M77.2 163.8c-2.2 0-1 .2-1.5.2-2.6 0-1.2-.1-2.1-.2l-4.1.2q-.3 0-.1-.1c-1.7.1-5.2 0-7.2.2h-.3l.3.2H60l.9-.1h-1c-.9-.1 1.4-.1 1.4-.2-2 0-4.4.2-5.9.1-.3-.1 3.6 0 1.6-.2l2.4.1c-1.8-.2 1.5 0-.2-.2h-6.7c-.7.1.2.1-.5.2-4.5.1-3.5-.4-6.8-.2-.9.1-1.2.3-3.5.2l.8-.2c-3.1 0-1.7.2-5 .1l1.9-.1c-2.1-.1-1.5.1-3.1.1l-.3-.1-10.5.2-14.1-.2-1.7.2q-.7 0-.3-.1c-1.7 0-.1.1-.9.1q-1.5 0-.7-.1l-2.9.1-3.1.1v-2.5l.1-2.5v.6c.1-2.5-.3-2.8-.1-5.1v.4c.1-5.4-.1-11.3.1-15.4-.2-.8.1-5.3-.2-5.7l.3-6.5-.2-3.2h.1l-.1-1.9.2-1V120l-.1 1.1v-3.3L2 116l-.1-5 .1 1.6v-2.9c0 .3-.1-.2-.1-.2v-6l.1.4V92c0 1.5-.2 1.1-.2-.1l.1-.5c-.1-.8-.1 1.3-.2-.3 0-1.5.2-1 .2-.2V89l.1.4V85l-.1-9.3-.2-2.4.1-8.2c-.1-2.1-.1-.6-.2-1.5.1-.2.1-3.1.2-1.6l-.1-9.1-.1.8c0-.8 0-1.9.1-1.7v.2c-.2-5.1.3-11.7.1-15.7v.2l-.1-4.2c0-1.9.1 1.2.1-.3-.2-4.5 0-7.1-.1-10.8.5-3.1.1-10.4.3-14.3v.3c-.1-1 0-1.2.1-2-.1.1-.1 1.1-.2.5v-4l10.4.1 10.9.1c3.2 0 1.8-.4 5.8-.2l-1.1.1 19.4-.1-1 .1h3l2-.1c1 0 .2.1.8.1h4.1-.6c.9 0 4 0 3.2-.1h6.4c1.2-.1 4 .1 4.4-.1-.2.2 4.1.2 5.6.1-.5.1 1.3.1.7.1 1.7 0 3.3 0 3-.1 3.1.2 6.3-.2 8.1.1l14.3-.2c-.2.2-5 0-4.8.2l11.1-.2c1.1 0-.6.1-1 .1l12.2-.1-.8.1c.8 0 1.8 0 1.7-.1h-.7c-1.2-.1 3-.3 3.1-.3-1.3.2 3.8.1 1.8.4l1-.1h.3l-.2.1h.1v3.3l-.1-.8q.2 1.6.1 4.6c0-.1-.1.1-.1-.5 0 3.6.2 6.1.1 10-.2-1.2-.1 1.3-.2 1.5v2.1l.1-.8.1 5.1-.1-1.4v3.5l.1-2c.1 1.9.2-.2.2 2.3l-.1 2.8.1 3.2c-.1.4-.2-.3-.2-.1.1.9 0 4.3.2 5.5q0-.5-.1-.3l.1.8q0 1.2-.1.8c0 2.6.2-.8.1 2.2v-.6 8.7c-.2.8 0-2.5-.2-1.5l.2 12.3v-.7c.2.5-.1 2.9 0 4.9l-.1-.5.1 9.6-.1-.5-.1 5.9c.1.5 0 1.5.1.9-.3 5.3.2 10.1-.1 14.7l-.1-.9.1 4 .1-1.4.1 2.6c-.1-1.8-.2 0-.2.8l.1.1c-.2 2.1.2.3.1 3.2l-.1-.2.1 3.2c-.1.5-.1-1.1-.1-1.2l.1 4.6-.1-2.4-.1 3v-.1l-.1 2.7v-.7c.3 2 .1 4.1.2 6.8-.2-2.6-.1-.4-.2-.6l-.1 1.4c.1 1.3-.1 2.1.1 4 0 .1 0 1.4-.1 1.1 0 1.7.1-.4.1-.3.1 2.6-.2 6 0 9.8l.3 6.7c-.1 1-.2-.8-.2-.8v4.3l-.1.5c0 1.2.2.8.1 2.4l-.2-1.2.2 4.3c-.1.4-.1-.9-.2-1.4l.2 4.8v-1.1c0 .6-.1.3-.1-.1q-.1-2.1.1-2.1v1.1c.2-1.1 0-4.3 0-6.4l.2.9-.1-2.2c0-.5.1-.8.2.3v-2.7.1l-.1-1.5c0 .3.1-.2.1.7v-5.3.2c-.1-3.7-.1-.4-.3-3.2l.3-1.9-.1-.4c0-.4 0-1.1.1-1-.1-1.4-.1.2-.1-.6.1-1.8-.1-5.1.2-5.5-.1-.7-.1 1.8-.1-.2.2-.6 0-2.3.1-4 .1.5.1 2.1.2.4-.2-1 0-3.3 0-4.7-.2-.1-.1-3.1-.1-5.5.1.2.1-4.5.1-6.7v.1c-.2-.4-.1-2.7-.2-4.4l.2 1.3V100l-.1-1.9.1.4-.1-6.9c-.1-.2-.3 2.1-.4-.7.1-.1.2-.2.2.5V90l.1 1.1-.1-1.6.1-.6v1.2l.1-2.9-.1-.8c0-2.1.1-.7.1-1.9l-.1-1.9.1-1c-.1-1.1 0-5-.1-3.8v.3V67l-.1-6.2.1-1.2v-4.1c.1 1.6.1-.6.1 1.7v-4.8c.1.8.1-1.6.1-2.6l-.1 1.5v-3.1l.1.5c.2-4.3-.3-7.7 0-10.9-.1-1.1-.1 2.3-.2 1.3l.2-4.6c.1-2.7-.2-2.5-.2-5.3-.1.4-.2.7-.2-1.4q0-3 .3-1.2v.7c0 .6 0 1.5.1.7l-.1-.3c.1-1 0-3.7.1-3 0-1.5-.1-.6-.1.5l.1-6.5-.1.4c.1-3.8-.1-1.7-.1-4.3.1-1.5.2.5.1-2.1.1-1.6.1-.3.2.3l.1-5.8v1.2-2l-.1.7.1-1.3c-.1-.8-.2.6-.3-.9V1.5v1.4q0 .2.1 0c0-.1.1-.3.1 1V2.1v.3V.6h-1.3l-.5.1-2 .1c.4-.1-.7-.1-1.2-.1 1.2 0 .6.1-.5.2h-3.1 1.2l-2.7.1c-.1-.1 1.2 0 .7-.1h-5.5c-1-.1-.1-.1-.9-.2h-5c.7.1.8.1-.9.2l4.1-.1-2.6.1h3.3c-1.2.1-1.1.1-.5.1-1.7-.2-3.3.1-5.3 0l.1-.2c-2.9-.1-5.2.1-9 .1h1.2l-3.6.1-1.1-.1c.1.1-2.8 0-3.1.2L85.9 1l-6.4.2c.8-.1-.5-.2 1.4-.2h-5.5l-1.7.1s-1.7.1-.8.1c-3-.3-8.5 0-11.1-.2l-6.7.1h.4c-2.6-.1-1.5.2-4.6.2-1.6-.1 1.6-.1.7-.1-.4-.3-3.7 0-5.7-.1h.5l-6.4.1-7.6.2q1.3-.1.7-.2c-1.1 0 .3.2-1.9.2l-2.5-.2h2.1c-1.1-.2-2.7 0-3.8 0V1c-3.2 0-3.2.2-6.7.2l.4.1c-1.9.2-1.6-.1-3.4 0l-.6-.2-6.6.2c1.3-.2 3.9-.2 5.5-.3l-4.8.1h1.6H1.1v2.2L1 4.6v13.6c.3-1.8 0 1.5.3 1.2v1.7L1 24.6c-.1.8-.1-1.1-.1-1 0 2.6-.1 1.1-.2 2.8.1-.3.1.9.1 2.4l.1-2.1c.1 3.6-.2 3.1-.1 6.7l-.1-1.1.1 8.6c0 4.4.2 9.9.1 13.3l-.1-.3.1 2.5q0-.3-.1 0l.1 3.3-.1-.9c-.1 4.3.2 6.7.2 10.3-.2 0-.2 3.4-.3 5.1v-.1l.2 13.3c-.2 2.9-.1 9.8-.2 14.5 0-.7.1.1.2.9v2.9-.4c-.2.8-.1 3.1-.1 4.8l.2.3c-.3 4.6.1 12-.2 14.5l.1 3.6-.1-.1v8.4l-.1-.8c0 2.1.3 2.7.4 4.7l-.2.6q-.2 5.6 0 11.2l-.1-.8c0 1.8-.1 6.8.1 6.2l-.1 2.2.1 3.7-.1-.4.1 1.3 1.7-.1 2-.1q.9 0-.3.1H8l-.8.1 2.8-.1 4 .1q.6-.2 2.5-.1l-.5.1h7l.4.1H19c0 .1 2.1.1.4.3 1.7-.1 4.5-.3 6.5-.2h.3-.2 3l3.4.1c-.1-.1 1.3-.1 0-.2h-1.3.1-2.6 2.8l1.4-.2 4.5.4c3.2-.1 7.4 0 9.4-.3l1.4.1-1.4.1c1.8-.1 5.3 0 5.7-.2 2.3.1-1.3.1 1.8.1h-.4c6.1.2 9.9-.4 16.7-.1l-.8-.1c7.7.1 15.9-.1 23.6.1l3.7-.1.5.1 2.3-.1c3.2-.1 5.6.3 9.6.1l-.5-.1h5.4v.1l3.6-.1c2.8 0-.4.3 3.6.3l3.7-.2-1.6-.1h1.4c.2-.2 1.3-.4-2.1-.5l-2.4.1-.8-.1h2-2.6l-1-.1-2.3.2c-.3-.1 1-.2-.5-.2-1.1.1 1 .2-.8.2-1.1-.1-.8-.2-2.1-.1q-.2-.1.6-.1l-3.7.1c-1.2-.1-4 0-3.9-.2l-3.2.2c2-.2-4.1 0-3.5-.3-1.5.2-5.3.1-7.9.2h.7l-2.8-.1c-.2.2-2.5.2-3.7.3-1.8-.2 1.1-.2.5-.3.1.1-3.1.1-2.5.2-1.4-.1-1.2 0-1.9-.2-.2.2-1.3 0-2.4.2-2-.1-.5-.2-2.7-.1-.8-.2 1.2-.2 1.2-.2m-51.7.3h1.1zm-4.4 0H23l-.4.1zm9.2.8h-1 1.3z"/><path d="M31.6 164.8h.3-.6z"/><path d="M2 124.2h-.1l.1.3z"/><path d="M125.2 102v.3z"/><path d="M125.1 112.3v1.5z"/><path d="m125.1 120.3.1.2z"/><path d="M117.9 1.8h-.3z"/><path d="m125.2 31.5-.1-1.2z"/><path d="M75.9 2h-.3z"/><path d="M125.2 28.5v1.7z"/><path d="M125 154.7v.4z"/><path d="M125 155.1v.4q.1-.2 0-.4"/><path d="M125.1 156.4v-.9z"/><path d="m125.1 141-.1 3v.1z"/><path d="M125.6 127.6v2.7c0-.5.1-1.1.1.1.1-3.3-.1.7-.1-2.8"/><path d="M125.7 119.3c0 1.5 0 0 0 0q0-1.4 0 0"/><path d="m125.7 59.3.1.1c0-1.1-.1 0-.1-.1"/><path d="m125.1 47.8-.1 1.1.1.5z"/><path d="M125.9 41.1v.4-1.8z"/><path d="m64.2.9.3.1c.8.1 1-.1-.3-.1"/><path d="M20.7 1.1 18.3 1z"/><path d="m.9 112.6-.1-.9.1 1.7z"/><path d="m71.5 16.8.3.3q.9-.7 2.1-1c1-.2 2-.4 2.9.2l1.3 1.1.8.9 1.2-.2h1.8c2.2.3 4.2 1.3 6.3 1.9l1.2.4 4.1 1.2 1.9.6q.5.1.8.5l.5.3 5.4 1.9 6 2.1q1.1.5 1.2 1.6l.2 3.9c.2 2.2 0 4.4.2 6.7q.3 6.3.1 12.6v13.4q-.5.6-1.2.7l-4.2 1-4 .9-8.2 2-3.4.8-4.5 1.1-7.9 2-4.5 1-3.6.9-7.6 1.9-8.7 2.1-7.4 1.9-2.9.7q-.6.1-1.2-.1-1.5-.4-2.7-1.2l-5.3-2.7-4.4-2.2-2.4-1.1-9.8-5.1-.7-.4q-.9-.5-.9-1.5v-3l-.2-6.7-.2-5.1-.2-5.9-.2-5.1-.2-6q-.2-2.7-.1-5.4v-.4q.1-.8.9-1l2.3-.4 2.6-.5 2.4-.4 2.9-.5 2.5-.4 2.6-.5 2.5-.4 2.7-.5 2.4-.4 2.8-.5 3.3-.6 1.3-.2q.6-1.8 2.5-2.5l.3-.5q.6-1.5 2.2-1.8c1.6-.3 2 0 2.9.3.6.2 2.2.4 2.7.3q-.3-1.2.1-2.5a3 3 0 0 1 1.9-2h1.1l1.8.5h1.4l1-.4q1.5-.6 2.9.4l.5.6q.8-.3 1.7 0 1 .3 1.7-.4c.7-.9 2.3-.4 2.4.8l-.1.1zm4.6 9.5.1.1zl-.2-.2-.2-.2-.2-.2-.2-.2-.2-.2-.2-.2-.3-.2-.2-.2v.1h.3l.3.2.2.2.2.2.2.2.2.2.2.2zM61.9 36.6l-.2-.2-.2-.2v-.3h-.1l.2.3.2.2zl.2.2.3.2c1.1.6 2.1.3 3.2 0l1.8-.9h.6l-.4.1q.9.4 1.8.1l.1.1-.8.5 1.3-.1q.6-.5.8-1.4l.2-.3q1.4-3 0-6l-.5-.2-2.4.7.2.5-.4-.2-.1-.1.1.1c0 .5.4.8.3 1.4-1-1.9-.8-2-3.5-2.7l.1.3h-.4l-.3-.2v.1h.3q1.3 1.5 1 3.6l-.2 1a6 6 0 0 1-2.1 3.6h-.7l-.3-.2zm9.2-9.9-.2.2-.2.2-.1.1.1-.1.2-.2zl.2-.2q.3 0 .2.4l-.1.1.1-.1.5-.3v.3l-.2.2-.2.2-.1.1.1-.1.2-.2.2-.2.6-.4-.4.8.1.1.8-.9-.2.8-.2.2-.1.1.1-.1.2-.2.4-.2-.2.5-.2.2-.1.1.1-.1.2-.2.8-.4.2.2q.9-.4 1.2-1.3l-.7.7v-.4l.1-.1-.1.1-.3.1.1-.6.2-.2.1-.1-.1.1-.2.2-.5.3-.9-.4-.6.5V26l.2-.2.1-.1-.1.1-.2.2q-.7.1-1 .7zm-3.3-.5-.1.1zm2.5.7-.2.2-.2.2q-.4.2-.3.5l-.2.2-.2.2-.2.2-.2.2-.2.2-.1.1.1-.1.2-.2.2-.2.2-.2.2-.2.2-.2q.4-.2.3-.5l.2-.2zl.2-.2q.5-.2.7-.9l.2-.2.2-.2 1.3-.7 1.5-.2.2.1.2.1q1.8.6 2.1 2.4h-.2l-.2-.3-.1-.1.1.1.2.3.2.2.2.5q.5 1.2.5 2.5l-.2.3h.1v-.3h.2l.1.1-.1-.1.1-.6h.1l.3 1 .8-.7v.3h.1l-.2-.3.2-.2.3.3.2-.2.1.1-.2.8-.3.3.1.1.2-.3.3-.3.5-.5v.5l-.2.2-.1.1.1-.1h.2l.3.2v-.1h-.3v-.2q.4 0 .7-.3t.8-.4l.4-.6.2.3q.6-1.1.2-2.4-.6-1.5-1.6-2.7-.3-.5-1-.6l-.2-.2-.3-.1v.1h.3l.2.2.1.3h-.3l-.2-.2-.1-.1.1.1.2.2v.4h-.2l-.2-.2-.2-.2-.1-.1.1.1.2.2.2.2v.2h-.4s-.1-.1 0 0l.4.5V25h-.3l-.2-.2-.1-.1.1.1.2.2v.2l-1.3-.5h-.4l-.3-.2-.4-.2q-.8-.2-1.6.2h-.6q-.7-.2-1.3.1-1 .1-1.7 1l-.2.2-.2.2q-.5.2-.7.9-.3-.2-.3 0M56 26.2l.2.2q.2.4.5.3-.2-.4-.5-.3zl-.2-.2-.5-.6-1-1.1.5.3 2.4 2 .4.1.3.2.2.1.1.1-.1-.1-.2-.1-.3-.2-.6-.6-3.3-2.6a9 9 0 0 0-3.7-1.8q-2.6-.5-4.4 1.4l-.7.4v1.2l.5-.5v.7l-.9.7q-.5.4-.7 1l-.2.3-.2.5q-.3 1.7 1.3 2.4l.3.2v-.1h-.3l-.1-.3.8.2.3.2v-.1h-.3l-.5-.5.9.2-.9-.7c.4 0 .7.5 1.2.3q-.7-.3-1.2-.8h.4s.1.1 0 0l-.3-.2v-.4h.2l.1.1.1-.1h.4l.1.1-.1-.1-.3-.7.5.4.1.1-.1-.1v-.4l.5.2.1.1-.1-.1-.6-1-.1.1.2.8-.5-.5v.5l-.3-.3v.5q-.3.1 0 .3v.2l-.2.3-.1.1.1.1v.4l-.5-.2.6.9q-.5-.1-.8-.6l-.2.6-.2-1v-1.2l.2-.3 1.7-1.2.4-.2h.5q1.1-.3 2.3 0l1.6.4.3.2.1.1-.1-.1-.3-.2-.2-.3q.7 0 1.2.6.4.4 1.1.6l.2.2V27h-.3l-.6-.8.1-.1.9.5q.2.4.5.3l.1.1-.1-.1q-.2-.4-.5-.3l-.5-.7-.2-.3 1.2.9q.3.4.8.5l.1.1-.1-.1-1.2-1.4q.3 0 .5.3l1.2 1.1q.3.2.5.1l-1.5-1.7.4.2.9.9 1.1.8-1-1.1-1.4-1.4.3.1 1.4 1.2q.2.4.7.4zm12.3-.7.1-.1zl-.1.1zm-2.2 2.2-.2-.2c.2-.4.3 0 .5 0l.1.1.1-.1.4.1q-.2-.7-.9-.8-.5-.8-1.3-.9t-1.6.2l.1.2-1.4.5v.1h-1.6v.3l-.9.1c.3.7.9.7 1.6.8l-.3-.2v-.1l1.6.6-.1-.2.6-.4.3.1.2-.3c.6-.1 1.2.2 1.9 0l.4.2.1.1-.1-.1q0-.2.4-.2zl.1.1zm.8-2.8.1-.1zl-.1.1zm4.6 3.9-.1.1.1.1.2.2.1-.1h-.3zl.1-.1zm-16 .3.2-.2.7-.5.3-.1v-.1h-.3q-.2-.3-.3-.1l-.5.2v-.1l.7-.5h1l.5-.1a6 6 0 0 0-3.5-.4v.3l-1 .2v-.1l.6-.3q-.5-.2-.8.2-.2.2-.5.1l.1-.4-1.1.5-.1-.1.5-.4-1.6-.6q-.5-.2-1 .1l-.3.2H49a6 6 0 0 0-2.8 3.5q-.4.8-.1 1.8l.1-.9.2.6.2-.8.2.9.2-.8.4 1.2.1-1.1h.1l.3 1.2.1-1.1.5 1 .2.3-.1.1-1.6-.2-.5-.1q.5.5 1.2.5 1.4 0 2.8.3l.3-.1q-.4-.4-.6-.3c-.4.3-.4-.3-.6-.3l-.2.3-.4-.5q-.1-.8.3-1.4l.2.4c.2-.3 0-.7.4-.7v.3q-.3.3-.1.8V31l.2-.2.2-.3-.1.9.2 1.1c.1-.9.1-.9.4-1.5l.1 1.8c.3-.5-.1-1.1.4-1.4l-.1.9.2.8c.1-1.2.1-1.2.4-1.4q-.3.6-.1 1.2c.4-.1 0-.6.4-.7l.2 1.5h.1l.1-1.1h.1l.3 1.3.1-.5.1-.6c.1.9.1.9.4 1.5v-1.1q0-.5.4-.8l.4-.7-.1-.1q.2-.9.8-1.5l.2.2-.2.2-.2.3-.1.1.1-.1.2-.3.2-.2.5-.7q-.3-.5-.1-.5m4.9.2-.2-.2-.3-.2q-.2-.5-.5-.3l-.3-.2-.3-.2v.1h.3l.3.2q.2.3.5.3l.3.2q0 .2.2.3l.1.1zm14.5-5.6.2-.2.4.3.6-.1h.7l1.3-.8.9-.3q1 0 1.7.6l.8.8q.5-.7.6-1.4l.1-.3h-.1v.3l-.5.3v-.3l.2-.4q.3-.2.1-.5l-.1.5-.2.3-.4.2.2-.9q.3-.2.1-.5l-.1.3v.2l-.5.5.1-.7-.5.3.1-.6-.3.1-.1-.1-.1.1-.4.2v-.4l.2-.2h-.1v.3h-.2v-.8q-.2.7-.9 1.2l-.1-.2.2-.2.2-.2.2-.3h-.1v.3l-.2.2-.2.2-.5.2v-.2l.2-.2.2-.2.1-.1-.1.1-.2.2-.2.2-.2.2h-.4v-.2l.2-.2.2-.2.2-.2.2-.2h-.1v.3l-.2.2-.2.2-.2.2h-.2l-.1-.1-.1.1-.1.1.1.1-.1.1-2 1.6zm-16.1 5.9-.1-.1zv.2l-.5-.2-.1-.1-.1.1-.7-.2-.1-.1-.1.1h-1.4l-.4.1 3.1.6c1 .2 2 .7 3.1.7l-1.4-.9q-.2-.5-.9-.7l-.2-.2-.3-.2-.2-.2-.2-.1v.1h.3l.2.2.3.2.2.2.3.5h-.4l-.2-.2-.1-.1.1.1v.2h-.4q.2 0 .1-.1m15.4-7.1.2-.2.2-.2.2-.2.2-.2.1-.1-.1.1-.2.2-.2.2-.2.2zM30.9 57.2l.1-.1zl-.1.1zm-.6 0 .1-.1zl-.1.1zm45.3-35 .2-.2.3-.2.1-.1-.1.1-.3.2zl-.1.1zM31.2 55.6l.1-.1zq0 .2 0 0 0 .2 0 0m44.2-34.1.2-.2.2-.2.1-.1-.1.1-.2.2zl-.1.1zm1.8 9.5-.1.1zl.1-.1zm5-10.1.1.1zl-.1-.1zm-32.6 0s.1 0 0 0l-.1.1zm26.7-.1.1-.1zm-25.3 0 .2.2.2.3.1.1-.1-.1-.2-.3zl-.2-.2-.2-.2q-.2-.4-.5-.3l-.1-.4q1.6.7 2.1 2.2l1.7 1 .1.1-.1-.1v-.5l.5.5.1.1.1-.1.5.3.2.3.1.1-.1-.1-.2-.3v-.3l.3.2.2.2.2.3.2.3.1.1-.1-.1v-.4l.4.4.3.4.2.3.1.1.1-.1.4.2.2.3.2.3.1.1-.1-.1V25l.5.5.3.3.1.1-.1-.1-.6-2.3-.2-1.1q-.4-1.2-1.6-1.8l-.2-.2q-.6-.6-1.5-.5l.2.3-.1.1h-.3l-.2-.2-.1-.1.1.1.2.2v.4l-.4-.2-.1-.1.1.1v.4l-.8-.7-.3.1q-.6-.7-1.6-.9-1.3-.4-2.4.2l-.3.2-.2.2-.2.2-.2.2-.1.1.1-.1.2-.2.2-.2.2-.2.3-.2 1.6.2q.2.4.5.3l.2.2q-.3.5-.1.5m5-4h.2v.4q-.2 0-.2.3l-.2.2v1.7h.2v-1.9l.2-.4h.2q-.2.8-.1 1.8l.1-.8.2-.3v1.3h.2v-1.3l.2-.3h-.1v.3h-.2q0-.5.3-.9l-.5.2-.2-.3-.1-.1zl-.2.2-.2.3h.1V17zm-19.4 30 .1-.1zl-.1.1zm10.6-19.6-.3-.2-.7-.9q0 .9.7.9zl.3.1v-.1zM35 61.9l-.1-.1zl.2.3.2.7 1.2 2 .3.8-.4-.3-.5-.5v-.3h-.1l.2.3.4 1.1.9 1.4.6 1.1-1.1-1.1q.2.8.6 1.2l1.2 2.1-.8-.7c.1 1 .9 1.6 1.2 2.6l-.4-.2-.1-.3h-.1l.2.3.2.9.8 1.5-.3-.2q.1 1.1.8 1.9.3.4.4.9l-.5-.6-.1-.1.1.1q0 1.1.9 2.2v-9.6q.3.4.2.8l.2 5.5v.3q.3 2.3.1 4.5 0 .3-.4.5-.4-.2-.5-.7l-1.4-4-1-2.9-.1-.6-.9-2.8-1-3.1-2.5-6.7-.8-2.3-.9-2.2v.7l1 2.9 2.3 6.2 2 6.3.7 1.6q-.3.2 0 .3v.4l.9 2.9.1.5-.2-.3-1-2.9q-.4-1.5-1.2-2.8-.3-.2-.3-.9l.5.6v-.5l-1.1-3.5-1.1-3-1.7-4.8q-.4-1.6-1.2-3.1l-.2.6.1.5-.5-.2v.7l-.3-.1q-.3.3-.1.8l-.1.1-.3-.2-.1-.3q-.3.3-.1.5l-.1.4-.1-.1-.1.1q-.3.2-.2.5l-.3-.1-.2.3.5.9-.1.1-1.1-1.1-.2-.2v.1h.3l-.2.3h-.1l-.5-.4q-.2 1 0 2.1l-.1.1q-.2 1.6.1 3.1l.4.9-.3-.1v3l.9 1.6-.8-.9.1 2.5v2l.9.5 2.5 1.2.9.4.1.1-.1-.1v-.4q.5.6 1.2 1.1l.5.2 4.5 2.5.4.3q-.5 0-.9-.3l-.8-.4-.2-.2-4.6-2.4-1.8-.9-1.8-.9q-.1-.2-.6-.3.3.6.8.8l4.3 2.1 3.1 1.6q.3.3.7.1.1.3.4.4l2.9 1.5q.8.3 1.6.2l3.1-.8 4.5-1.1 6.1-1.4 5.5-1.3 7.9-1.9.6-.3h.3V74l-.3.1h-.6l-4.7 1.2-4.7 1.1-6.8 1.7-6.5 1.5c-.7.1-1.4.5-2.1.4.1-.3.4-.1.6-.2l7.8-2.1 1.5-.5.7-.1 3.2-.8q1.3-.2 2.3-1.2l.5-.4q1.4-1 2.9-1.8l.8-.2-.8.8q-1.4 1.3-2.8 2l-.7.5H60v.1l.3-.2h.3l5.4-1.5.1.1.1-.1h.5l3.6-.9 1.8-.7 2.2-1.5v-2.1L70 71.9q-.6.6-1.4.7l.1-.2 2.6-1.7 3-1.9v-1.9H74q.4-.4.3-1l-.2-1.2-3.1 1.9-.4.1.3-.3 3.3-2.2-.1-1.6-1.1.6-8 4.9-.9.4.3-.3 4.8-3.2 4.9-3.2v-1.6l-4 2.5-5.3 3.3-5.1 3-.5.2.3-.3 1.7-1.1L67 64l3.9-2.5 3.1-2v-1.6l-.7.4-2.4 1.6-6.7 4.2-4.7 2.9-5 3-3.1 1.9-.5.2q.1-.2.4-.3l4.6-3 3-2 4.7-3 3.1-1.9 5.4-3.3q1-.5 1.9-1.2l-.1-1.5-.3.1-3.3 2.1-6.4 3.9-7 4.2-1.4.7.3-.3 5.1-3.2 9.9-6.3 3.1-1.9v-1.5l-3.6 2.1-7.6 4.6-1.1.5.3-.3 6.2-4 4.6-2.9 1.2-.8-.1-1.6-7.3 4.3-1.1.6.1-.1 5-3.2 3.4-2.2v-1.6l-.6.3-2.6 1.6-4.3 2.6q-.9.6-1.9 1 .4-.5.9-.7l3.9-2.5 4.6-3c0-1.1 0-1.1-.3-1.5L68.5 50l-1.8.9.2-.2 5.3-3.4q1-.5 1.7-1.2v-1.5l-.6.3-1.4.8-5.2 3.1-1.9 1 .2-.2 5.6-3.5 3.4-2.2v-1.7l-1 .6-2.6 1.5-4.8 2.9-2.5 1.5-.6.2.2-.3 4.8-3 3.7-2.3 2.9-1.8q.1-.7-.1-1.5l-4.4 2.7-5.1 3.1-4.9 2.9-6.2 3.8-4.9 3-4 2.4q-.3.4-.7.1l2.3-1.5 3.2-1.9 6.2-3.7 4-2.5 3.2-1.9 4.5-2.7 3-1.8 4-2.4V38l-.3.1-5 2.9-4.4 2.5-5.1 3-.5.2.3-.3 5.5-3.5 3.6-2.2 5.5-3.3.4-.3-.2-1.5-5.4 3.3-6.3 3.7-3.2 1.8-1.9 1 .3-.3 1.2-.8 4.9-3.1 5.9-3.6H67l-1.1.7-4.5 2.8-6.3 3.6-.6.2.3-.3 4.3-2.8 4.3-2.7 2.2-1.3h-2.7l-2.2 1.4-7 4.1-.9.4.3-.3 2.6-1.6 5.4-3.3 1.6-.9-1.4-.8-.4.2-4.1 2.4-5.1 3-5.8 3.5L43 47l1-.7 3.1-1.9 5.7-3.4 6.6-4.1-2 .3-2.3.3.1-.1 2.4-.4 2.7-.6-.5-.3-3 .5-2.5.4-3.5.7q-1.6.2-3.1.6l-4.3.9q-1.2 0-2.4.5h-.4q2.2-.9 4.7-1.2l3.1-.5 3.6-.5 4.6-.9 2.5-.6-2.2-.9-1.1.3.8.5-1.2-.2-1-.2q-1.5 0-2.8-.9a6 6 0 0 0-3.6-1l-1.2-.1q-1-.2-1.5-1.2l-7.9 1.4-8.1 1.4.5.3 4.8 1.8.9.5-.5-.1-2.2-.7-2-.6q-1.1-.7-2.4-.9l-.3-.1v.1h.3q1.1.7 2.4.9l.3.2L35 38l1.7.9-.5-.1-2.9-1.1-5.3-2h-.4l.7.5 1.7.6 4.5 1.8q1.2.3 2 1l-.7-.2-.7-.2-.1-.1.1.1q.4.9 1 1.6l.6 1-.5-.5-1.7-2.4-7.5-2.8.1 1.9.1 3.6c.2 2.9-.1 5.9.2 8.8v2.3l.2 1.4-.2.3v2.8l.6.5-.6.3q.6.8 1.6.6l.2-.3 1.8-3q.3-.8 1-1.5l.1.1.1-.1.2-.3 2.1-4.4.2-.3.2-.3-.2.3-.2.3-.3.2-3.7 5.9-.7 1 .5-1 1.8-3 3.8-6.3 2.4-3.6.1.1.1-.1.8-1c.3-.3.6-.9 1.2-.9v.2l-.3.2.1.3q-.2.2-.2.5l-.1.3.3 1.7q.1.5-.4.7l-.2-.7-.4.2-.2.7c-.5.2-.5.2-.4.9l-.3-.1-.2.4q.5.5.5 1.1l-.8-1-.2.8q-.5.2-.3.7l-.3-.1-.2.6q-.4.1-.3.5l1.6 2.4.1.4-.4-.4-1.4-2-.2-.2-.2.3.2.6-.6-.2.2.9-.5-.3-.2.3.4.6 2.7 4.3-.4-.4-2.7-4-.2-.1-.3.2.5.7q.5.6.7 1.3l-.3-.3-1-1.4-.1.5.7 1.3.1.4h-.1L34 51.8v.5l3.4 5 .3.7-.3-.2-3.4-5-.4-.5-.2.3.6 1 .4.8-.4-.4q-.3-.5-.9-1l.3.7q.4.6.7 1.5l-.9-.7q0-.4-.4-.5l-.1-.1.1.1q0 .4.3.5l1.4 2.6 1.7 2.6.5.9-.8-.9q-1.4-2.5-2.9-4.5l-.4-.4-.2-.3.2.4.2.6.3.8-.1.1.1-.1q.4.2.4.5l-.4-.2.5 1.3 1 1.6.6 1.1-1.1-1.1q.4 1.1 1 1.9c.6.8.9 1.1 1.1 1.8l-.3-.4-.5-.5zm-17.7-1 .2-.3.2-.5.2-.3.2-.3.1-.3h-.1v.3l-.2.3-.2.3q-.3.2-.2.5zl-.2.4-.3.4-1.6 3.5-.5 1.5q-.3 1 .6 1.7l.1.1-.1-.1-.3-.8.2-.4.4.8 2.4 1.1.1.1-.1-.1-.3-.5q-.6-.8-1-1.7.9.8 1.4 1.9.6.9 1.4 1.3.5.2.9.6l-1.3-.5-.1.1-1.9-1.1-1.4-.7-.1-.1.1.1q0 .4.3.6l1 .6 2.3 1.2 3.9 2-.1-1.4v-1.2l-.4-.9.3.1c.1-2.1.1-2.5-.3-3.8l.2.1-.1-2.3q0-.8-.2-1.4l.2-.3v-1.7l-.2-1.6q.3-.2.1-.3l-.2.1q-.3-.2-.2-.6l-.5-.3c-.7 0-.7-.5-.8-.9q0-.5-.3-.9c-.2-.3.1-.7-.2-.9l-.1-.1V54l-.6 1.2-.2.8-.2.3-.2.3-.2.3-.2.3-.2.3-.2.5-.2.3-.2.3-.2.3h.1v-.3l.2-.3.2-.3q.3-.2.2-.5l.2-.3.2-.3.2-.3.2-.3.2-.3.5-.8.4-.6-.1.5-1.6 3.9.2.8-.4-.4-.2.4-1.7 3.5-.4.5.2-.7.5-1.5zm12.5-2.8-.2.3-.6.5h-.8q-.2-.2-.5-.2l-.1-.1.1.1q.2.3.5.2.4 0 .7.4.6-.4.7-.9zq0-.2 0 0 0-.2 0 0m41.5-33.2.2-.3 2.6-2.6q1.4-1.4 3.1-2l1-.2h1.9q.2.4.6.1h-.6l.1-.3q-.5-.4-1.2-.6l-.1-.1.1.1.3.5q-.7.2-.9-.4l-1.1-.3v-.1l.7-.1v-.1l-1.1-.1v-.1l.9-.1.1-.2-.2-.1a3 3 0 0 0-2.4-1.7l-1.7.6q-2.5 1.3-4.2 3.6l-.5.7-.5.8-.4.7c.1.4-.5.4-.4.7l-.2.5-.1.1.1-.1h.2l.1.1.1-.1.5-.5v.4l-.2.3.2-.3.3-.3.4-.4v.4s-.1.1 0 0l.2-.3.2-.2.3-.2-.1.4-.9 1.7-.2.3.2-.3.3-.3.4-.3v.4l-.1.1.1.1-.2.4-.1-.1-.1.1-.2.3-.2.3-.1.1.1-.1.2-.3.2-.3h.2v.5l-.2.3-.2.3.2-.3.2-.3.3-.1v.3l-.2.3h.1v-.3h.2l.1.4.5-.5v.3h.1v-.3l.3-.3.4-.4q.4-.5.3-.2 0 .3-.1.1zM35.4 47.5l-.2.3-.1.1.1-.1zm33.5-23.8-.2.3zl.1-.1zm-10.1 9.9h-.3v.1zl.3-.2.5-.2.3-.1V33l-.2.2-.5.2zM36.9 46.3l.2-.2H37zl-.1.1zm21-12.3h-.3v.1zl.3-.1v-.1zm9.7-8.9.2-.3zl-.1.1zm4.9 5.6q.2.4.5.1zq-.1-.3-.6 0zM68 27.4q-.3-.2-.3.3zl.1-.1zM17.5 42.3V42h-.1zc.1.2-.1.4.2.5v.6l1.2 3.9 2.8 8.2q0 .5.5.8.3.6 1 .4l-1-.4c.2-.4.7 0 1-.3v-1l-.5-1.1.3.1v-3l-.2-.5.2-.2c-.1-1.3.2-2.6-.3-3.8l.4.1-.2-3.2-1.4-2.2-.5-1 .9 1.2 1 1.4v-3.2l-1.6-2.3-.4-.8.3.4 1.5 2.3v-2.5q0-.8-.3-1.4h.3v-1.2l-5.9-2.4-.3-.3 4.4 1.6 1.9.7.4-.7-2.5-.9-.6-.4.5.1 2.9.9.5-.3c.9-.6 1.9-.6 2.9-.8l3.3-.6 3.6-.6 3.6-.6 5.3-1c-.3-1.2-.3-1.4 1.2-3.7l-1.2.1-2.6.5-2.5.4-2.9.5-2.4.4-2.6.5-2.8.5-2 .2.1-.1 2.3-.4 2.4-.4 3.2-.6 4.5-.7 5-.9 1.7-.4.2-.3-1.4.2-2.6.5-2.5.4-2.7.5-1.7.3-3.3.6-3.6.6-3.6.7-3.6.6-4 .7-1.7.4q-.5.5-.3 1.1l.2.2.2 1.2.9 2.6.2.3v.5h.1v-.5l.2.2 1 2.6 1.3 4.1q.2 1.2 1 2v.2l-.3-.2-.7-1.2q.4-.6.1-.7m39.4-8h.6q-.5-.3-.6 0l-.5.1q.3.3.5-.1m-33.7 1.9v.3h.1zc0-.2.3-.3 0-.5l.3-1 .3 3.3v2.6l.1-4.6q0-.9.5-1.7v1.4q.1-.6.7-1.1v.3l-.2.2q-.2 1.8-.2 3.8v1.4h.1L25 35l.3-.1v.3l.2 16.8v2.6l.2-1.6-.1-1.8q0-2.6-.2-5.1v-9.7q-.1-.6.4-1.1v10.9l.1-.8V37l.2-1.3.2.9v.7l.2-1.4.7-1.1h-.3l.3-.5c-.5-.1-.8.3-1.2.3l.5-.7h.6q-.4-.2-.5.1l-1 .2.7-.7c-.6-.1-1.1.4-1.7.3l.9-.7c-.6-.1-1.1.4-1.7.5l.3-.5-.4.1q-1 .8-1 2.1-.1.3.1.5c.4.1.1.2.4.4m30-1.5-.3-.2q-.2-.5-.9-.6c-.2-.4-.6-.3-.8-.5l-.3.1-.3-.2v.1h.3a5 5 0 0 0 1.9 1zq.2.3.5.1l-.2-.2zm-14.9-4.4h.8q-.3-.3-.8 0l-.9.2c-.3.1-.7-.2-1 .2-.3.1-.7-.1-1 .2-.3.1-.7-.1-1 .2q-1 0-1.9.3h-.8l-.2.2c-.3.1-.6-.1-.9.2h-1l-.3.2h-1q.5.3 1 0h.9l.3-.1q.5 0 .9-.2h.8l.2-.2q1 0 1.9-.3c.3-.1.7.2 1-.2h.8l.3-.2q.5.1 1-.2c.3-.2.7 0 .9-.3m-.5 1.6q.5 0 .9-.2c.3-.1.6.1.9-.2h.8q-.5-.3-.8 0c-.3.1-.6-.1-.9.2-.3.1-.7-.1-.9.2l-.6.1q.3.1.6-.1m.7.3q.5 0 .9-.2.5 0 .9-.2l1-.2h.8q-.5-.2-.8.1h-.8l-.3.2-.9.2q-.4-.2-.8.1l-.6.1q.3.2.6-.1m34-2.1q.2.3.5.2l.3.2q.4 0 .8.3l-1.1.1.8.2-.1.2h1.4l.3-.5.9-.1-.9-.2.8-.1-.5-.2.5-.3.1-.1-.1-.1.2-.5-1.9-.4q-.2-.3-.5-.1h.6l.6.4h-1.7l-.4.2.8.3-.5.2.8.1q-.6.2-1.4.1 0 .4-.3.1l-.7-.3q.4.4.7.3m-8.2-4.8q.3-.3.1-.8zl-.1.1zm14.5-2.1q-.5-.2-.6.3.3 0 .6-.3m-42.6 8h-1v.2c.4-.2.7.1 1-.2h1q-.5-.3-1 0m47.1-8h1q-.6-.3-1 0l-.1.1zm-34.7-2.8q-.5.1-.5.8.5-.4.5-.8l.1-.1zM83.8 19q-.2-.3-.5 0l-.5-.1.3-.2a8 8 0 0 0-3.4-.1l.9.5c.7-.3 1.3.1 2 .2l.9.4-.7-.1-.8-.1q-.4-.2-.9 0 1.7.6 2.1 2.3L88 21l-3.5-1.4-.3-.2h.7l.1.1 3.7 1.4h.5l-3-1.2-1.3-.4q-.6-.3-1.1-.3m1.5 4.4h-1.2v.2c.5-.2.9.1 1.2-.2l.8-.1q-.3-.2-.8.1m-53.1 9 1.9-.2q-1-.3-1.9.2l-.6.1q.4.2.6-.1m-.8-.4 2-.2q-1-.2-2 .2l-.6.1.6.1q-.1 0 0-.2m31.7-2q.1.4.5.2zl-.3-.3-.1-.9q-.4.3-.3.7.1.5.4.6zM73 72.7l1.4-.2v-.7zM40.9 30.8q-1.3 0-2.5.5l1.6-.2c.3-.1.7.1.9-.3h.8c-.2 0-.5-.3-.8 0M53.8 34v-.3h-.1zq.1.7.8.7c.3.1 1.2 0 1.6-.1q-1.4 0-2.4-.6m16.8 40.2q1.6-.1 3.1-.7l.2-.2.1-.1-.1.1-2.1.5q-.7 0-1.2.4l-.3.1v.1zm1.6-40.9-.2.3.9.2-.9.1c.7.2 1.2-.2 1.8-.2l-.8-.1.3-.2-1.1-.4q-.2.1 0 .3m-.9 2.9 2.5-1.4c-.5-.1-1.6.1-2.2.3zl-.1.1zM48 26.2l.9.1.4-.3a5 5 0 0 0-2.7-.2q.3 1 1.2 1.1l.4-.4q0-.3-.2-.3m45 42.6h.5l3.5-.9q.8-.1 1.3-.8l.1-.1-.1.1-1.9.4-1.6.5c-.6.3-1.3.2-1.8.8l-.1.1zm-.5-46.1.8.1q.7.2 1.4-.2l-4-1.5c-.6 0-.6 0-1 .3l2.1.3-.7.2v.1l1.3.1v.1l-.6.1v.1h1.6zh-.8q.3.3.8 0m-33 12.1-1.1-.2q-.5 0-.8.2l2.4.8h.3l.4-.1v-.9l-1.6-.5-.3.2zm39 32.6q.8 0 1.7-.3l2.3-.6q.7-.1 1.1-.8l-2.2.5q-1.6.3-2.9 1.2 0 .1 0 0 0 .2 0 0m-74.4-4.1q.3.2.2.6l.2 4.5.1-.6v-4.2l-.1-1.2-.2-2.3v-3.7h-.2zl-.2-.4v-1.6c-.3 1.7.1 3.4.2 5.1zm38.5-30.4v-.3l.1-.1-.1.1-.9 1.2q-.6.8-.4 1.8l.1.1.1-.7.2.4.5-.9v1.3h.2v-1.3l.3-.5q.1.4-.1.9-.3.8.5 1.2l.1-.1-.3-.4.4-.3.3.3-.1-.7.3.3.3-1.1.2.1c0-.6.6-1.1.3-1.8h-.5l-.5 1.3-.1-.5-.3.3-.2-1zm22.7-.5-1.1.1-2.7.6q-1 .1-1.7.8v.8q-.1.4.1.9l.3-.2 3.4-2 1.7-.9-.2.3-4.8 3-.6.4v.8l.1.9L90 31.6l-2.9.4-1.6.4q.1-.3-.2 0m-26.7-.2q-.6 0-1.1-.5l-.4-.2.1-.1-.1-.1q-.2-.2-.5-.2l-.2-.2-1-.5h.3v-.1l-.3.2-.7.3-.3.2.3.3-.1.1.1-.1q.3-.1.5.2h-.3v.1h.3l.3.2-.2.4H55v.1l.3-.2.8-.2-.6.5h-.3v.1l.3-.2h.5l-.7.5.8-.1v.1l-1.2.5.9.1-1.1.5q1.9-.2 3.8-.8l3.6-1.4-.1-.2c-1.3.3-2.4 1.2-3.8 1.3l.3-.3h.5v-.1h-.5zl.3-.1V32zm17.9.5-.1-.1zv.2l-.9-.3-.1.1.3.5-1.1-.4-.1-.1.1.1q0 .3-.3.1l-.9-.3s-.1-.1 0 0l.7.6.2 4.4v3.3l.1-1.7v-3.5q-.1-1 .1-1.7l.4 3q.1 1.6-.1 3.1v1l.1 1.5.2 2.3.3-2.5-.1-1.4v-6.9h.1l.3 1.6.3-1.6h.1l.3 1.6.3-1.8h.1l.3 2.2.1-1.2.2-1.1h.1l.4 4h.1v-3h.1l.3 3.4.1-2.2q-.1-1 .1-2.2c.4 1.3.2 2.6.4 3.8v-4.1l-.1-.2-2.1-.8.3.6zM67 21.6v1.1l.3-1.3h.1l-.1 1.2 1.1-2.1q-.3-.7-.1-1.4l.5-2.4c.6-.7 1-.8 2-.5l.1.1-.1-.1c-.2-.5-.7-.3-1-.5q-1 .4-1.7 1.2c-.2.2-.6-.1-.8.2l-.8.2-.7.2c0-.5.4-.4.6-.5l1.1-.2-1.8-.1q-.3 0-.4.3l-.2.2q-.6.5-.5 1.3c.1.8-.1.9-.2 1.3l-.3 1.3.1 1.7.1-.7h.1l.1.9h.1l.1-.6h.1l.1.8.2-1.1.2.6.2-.5.2.3.1-.8.2.5.1.1.1-.4.2.5.1-.6h.1l.1.6c.2-.3-.1-.7.3-.8m-6.1-5h-.3v.1l.3.1 1.1.5c-1.4.1-2.2-1-3.3-1.3l.2.6-1.3-1-.7.2.7.7h-.3l-.2-.2v.1l.3.1.4.9.3 1.1.2.9h.1v-.9l.1.1.4 3.5v.7h.1v-1.3h.1l.1 1.3.1-.7v-.6h.1l.1 1.1h.1l.1-.9h.1l.3 1.8h.1l.1-1.3h.2v2.3q.1-1 .4-1.9v2.8h.1l.3-2.3.3 1.4v-1.2h.2v1.4h.1l.1-1.4h.1l.1.7h.1l.3-1.8h.1l.1.9h.1L63 22h.1l.1 1.1h.1l.3-2 .1.7v.1h.1l.1-.8.2.8q0-1.5.3-2.7.2-1.4 1-2.3-.6-1-1.6-1c-1 0-1.1.1-1.6.5q-.9-.1-1.3.2m31.9 15.8-.4.5-7.5 4.7-4.9 3V42c1.9-.8 18.5-11 19.9-12.2l-8.6 1.5q-5.4 3.6-11.4 6.8l.1 1.7.9-.5 5.7-3.4 5.3-3.1zM17.9 57.2l.3-.2-.5-1.1.1-.1.7.7c0-.6-.5-.9-.5-1.4l.7.7q.2-.3 0-.5l-.4-.8.6.7.2-.2-.1-.5.5-.2-.3-.7.5.1-.2-.7-.4-.8.8.9v-.8l.1-.1-.1-.1-.1-.5-.8-1.9.1-.1-.1-.1q-.2-1-.7-1.9-.4-.5-.7-1.3l.4.2v.3h.1l-.2-.3-1-2.1q0-.5-.4-.8a6 6 0 0 0-.8-2.3v-.6l-.4-1.3.4.2v.3h.1l-.1-.2-.2-.6-.7-1.6q.2-.2.1-.3-1-2-1.4-4.3l.1 3.1q0 2.3.2 4.5 0 2 .2 3.9c.2 1.9 0 2.6.2 4l.2 4 .2 4q.3 3.3.2 6.6v.7l.4.4.5-.9-.3-.9.4.2v.3q.5-.2.1-.5V62l-.2.1-.2-1.3-.1-2.5q-.2-1.8-.2-3.8 0-.7-.3-1.5l.1-.2.1.1-.1-.1v-3.1l-.4-.6h.4l-.2-2.5q.3.5.3.9l.2 2.7.2 2.2q.3 1.6.2 3.4v2.3l.2 1.3c-.3.3 0 .7-.1 1.1q-.1.6.3 1.3l.4-1.5.3.1v-.8l.3.1c0-.6-.5-.9-.5-1.6l.8.9-.2-.7L17 57l.8.7zm71.8-13.9-.3.4-5.9 3.8-3.1 2v1.6l2.3-1.4 1.6-.9q-.1.2-.4.3l-3.7 2.4.1 1.6.1.1 3.4-2.1 8.3-5.2 8.4-5.3.6-.2-.3.3-1.8 1.2-3.6 2.3-7.8 4.9-5.2 3.2-2.1 1.3v1.8l5.2-3.2 1.7-.9-.5.5-2 1.3-4.4 2.8v1.8l.3-.1 8.1-5.1 1.6-.9v.1q-.4.5-1 .7l-7 4.6-2 1.3.2 1.5 1.4-.9 4.9-3.1 6.6-4L95 51l-.1.1-4.5 3-4.4 2.8-3.7 2.4-1.8 1.3v1.6l8.4-5.3 6-3.6.5-.2-.3.3-2.2 1.4-2.6 1.8-2.7 1.7-5 3.1-2.1 1.4c-.1 1.1-.1 1.1.2 1.5l2.7-1.7 7.1-4.6 4.1-2.7 6.9-4.3 5.4-3.3.5-.2q-.7.8-1.6 1.2l-4.6 3-4.5 2.9-8.9 5.7-6.3 4-1 .7v1.8l.4-.2 8-5.2 6.1-3.9 9.3-5.9 1.2-.6q-.4.6-1.1.9L95 58.1l-4.9 3.1-9.2 5.9-.4.4.1 1.7 1-.7 3.8-2.7 5.8-3.6q.7-.6 1.6-.9l-.2.3-3 2.1-4.9 3.3-4.2 2.6q-.1.5.2.9l1.4-.3 1.8-.7.3.1 3.1-.8a4 4 0 0 0 1.8-.7l3.5-2.3 8.1-5.2 4.7-3 .7-.3q-.4.6-1.1.9l-8 5.3-3.9 2.5-3.1 2.1h-.3v.1l.3-.2.9-.1q1.2-.4 2.5-.6.7-.1 1.2-.5l2.6-1.7 8.5-5.5q.7-.6 1.6-.9l-1.1.9-8.7 5.8-2.2 1.5h.6l1.4-.3q1.6-.3 3-1.2l5.5-3.6.6-.2-.4.4-4.4 2.9-.8.6h-.3v.1l.3-.2h.5l2.3-.6a6 6 0 0 0 2.2-.9l.6-.2-.3.5c.7-.2 1.4-.1 1.9-.7v-.8l-.1-4.5-.2-6.3c-.2-2.9 0-5.8-.2-8.6v-2l-.1-.5-2 1.5-5 3.1-2 1.1-.1-.1.6-.5 1.2-.8q3.3-2.5 6.9-4.3l.5-.3v-8.3l-.1-.3.2-.8v-1.9l.2.2q0 2.3.2 4.5c.2 2.2 0 3.1.2 4.7s0 3.4.2 5.2l.2 6.6c.2 2.8-.1 5.6.2 8.4v4.4q0 1.1-1 1.3l.1.4-.1.1.1-.1q.5 0 1.1-.3v-.4l-.1-10.9-.2-13.1-.2-12.2v-.5l-.6-.3-3.1-1.1-6.2-2.2-1.9-.6q-.5-.3-1 .2l.4.1 4.8 1.9 1.3.7-.5-.1-7.3-2.7q-.4-.2-1-.1l-3.7.7-2.4.4-4.4.8-.5.2q0 .4.3.7.4 0 .5.5l-.4-.1c.3 1.2.7 2.4-.2 3.6l-1.7.7c-.6.4-1.3.1-1.8.6l1.3.6 1.4-.2 2.8-.5 2-.2-.2.2-1.9.4-1.8.4-3.1.6.4.1 3.2-.4 1.4-.2 2.6-.5 2.5-.4 2.2-.4 2.4-.4 4.2-.8q2-.1 3.8-.9.5.2 1 .1l1.7-.3q.4-.1.9.1l-4 .8-1.8 1-1.3.8-5.3 3.2-7.7 4.7-5.8 3.7.2 1.3 1.9-1.1 5.4-3.3 1.1-.6-.3.3-4.3 2.8-3.9 2.6v1.5l4.2-2.5 5.3-3.2.7-.3-.6.6-4.4 2.9L82 46l-1.8 1.2v1.4l.5-.2 3.2-2 3.9-2.3zM76.9 55.2l-.5-4.9h-.1v6.1h-.1l-.3-4.1c-.5 1.6-.1 3-.4 4.4l-.3-2.7-.1.6.1 3V62h.1v-3.8q.3 2 .3 4v.9h.1l.4-5.2q.3 2.5.3 5.2v.8h.2v-4.7q.3 2.2.3 4.5v.9l.3-6q.2-2-.1-4v-2.4H77zm2.5 1.3-.2-2.8q0-.4-.3-.6V56q-.3-1.2-.3-2.4v-1.3h-.2v3.5h-.1l-.5-3.5-.1.4v4l.2 4 .2.4h.1v-3.5q.3 1.8.3 3.6v1.2h.2v-3.9h.1l.5 3.5.1-1.3c0-.4-.2-1 .4-1.4v2.6l.1-.9-.1-4.7v-5.8h-.2zm-1.9-18.1-.2 1.6v1.5h-.1l-.3-2.3c-.1 2-.3 4 .3 5.9v-2.3q.3.8.3 1.5l.2 1.3.1-.8v-1.7q-.1-.4.1-.8l.3 3.2c.2-.5-.1-1.1.4-1.5l.3 3 .1-.3v-5.8l-.1-1-.2-1q0 1.1-.5 2.4v-2.2l-.2.2-.2 2.6h-.1zM79 71.6q-.5-.4-.2-.9l.1-.7-.2-.9v-.8l-.6 1.6-.1-1.2-.3 1.9.1.1.3-.5.4.8-.5 1-.2-.8-.5.7-.2-.5-.2.3-.3-.2c-.2.2.1.7-.4.8v-2.9c-.6.9-.1 1.9-.5 2.7l-.2-1V69h-.1v4.1l.3-.5.2.6.2-.3.5-.1c.1-.3.3 0 .4-.1l.4-.3c.4.2.7-.1 1 0l.3-.4.4.2.4-.6.3.1v-.4h-.3c-.2-.4-.2-.4.1-.9l.2.5v-1.6h-.1l-.2.8-.4-1.1c0 .8.4 1.7-.1 2.6m-52.3-9-.3 1.5-.1-2-.2-1.9-.1.9.1 4.9q.2 2.1.2 4.4v.3l.1-1.8q.1-1.6-.1-3.4-.2-.4.4-.9V67l.2 2.4q0-2.4.3-4.7v1.8h.1v-5.4c-.3.8.1 1.7-.4 2.6zm.2-2h.2v-1l-.2-9.4V44l-.1.9c.1 2.8-.1 5.6.2 8.5v3.3zm47.5 13.3.3-.2q.4-.5.4-1.4l-.2-6.6v-3.2l-.2 1.2v8.6q.1.8-.3 1.6m-49.3-5.5v-.9q.1-3.8-.2-7.6v-.8l-.1.2q0 4.6.3 9.1m54.2-30h-.2v.6q-.1 3 .2 5.9v.8l.1-.2zm-54.7 7.3v.9l.2 6.5v.7l.1-2.2zm1.8 9.7s.1 0 0 0q.2-4-.2-8v.1q-.1 4 .2 7.9m-.9 12.3h.1v-4.1q0-1.1-.3-2.4v1.6zm50.7-23.4.1-.8-.2-4.9v-.8c-.2 2.1-.2 5.8.1 6.5m31.3 20.6a7 7 0 0 0-3.6 1.4c1.3-.4 2.6-.4 3.6-1.4m-26.7 6.8.3.1 6-1.4-.1-.2q-3.1.6-6.2 1.5m11.8-3c-1.7.6-3.6.8-5.4 1.5.9 0 4.5-.9 5.4-1.5M76.8 28.5c-1.2-.5-1.2-.5-1.9-.1l2.2.9zM24.3 42.7s.1 0 0 0l.1-5.4h-.1zm-.3 6.1c-.3 1.6.1 3.1.1 4.7v-.4q.1-2.2-.1-4.3m17.1-18.4c-.9-.1-2.8.2-3.6.6zm33.6 11.4-.1 4.2h.1zm.7 21.5-.1 4h.1zM26.6 41.7l.1-4h-.1zM23.3 37l-.1 4h.1zm54.4-5.2 1.3.5.9-.2c-.7-.1-1.4-.6-2.2-.3m-16.9 2.6.3-.3-1-.4-.5.3zm-2.5-12.5s.1 0 0 0l.1-2.3h-.1zM23.5 47q0 .2 0 0l-.1 2.3h.1zm1.2 25.3c-.3.7-.3.7 0 1.2zm.5-19.3.1-2.3h-.1zm.5 19.3c-.1 1.3-.1 1.3.2 1.7zm9.2-39.8q-1-.1-1.7.3zm.6.4-.1-.1-.8.1-.7.2v.1q.8-.3 1.6-.3m25.7.9v-.5l-.7.2.4.3zM41 80.6c.1-.8.1-.8-.3-1.3zm-15.8-8.1c0 .4-.3.8.1 1.3zM57 18.1q-.2.6 0 1.2zM39.1 42.3l-.1.1.3.6.3-.5zm-15.2 4.4q-.2 0 0 0l-.1 1.3h.1zm2.3 27.1.3.3v-1zm12.3-30.7.4.7.1-.6zm-.4-11.6s-.1-.1 0 0l-.9-.1v.1zm.2 12.3-.3.4.6.3zM48.7 21l.2.1.4-.5-.1-.1zm-25 35.7-.1.9h.1zm34.8-32.9h.1v-.7h-.1zm18.7 46.7q.2 0 0 0l.1-.7h-.1zM62.9 24.8l-.1.7h.1zM57.3 20l.1-.7h-.1zm.7 1.2v-.7h-.1zm-20 24-.1-.7-.3.3zm-9.7-11.6q0-.1 0 0l-.5-.1v.1zm6.9-1.3.6.1v-.1zM84 23.9v.1h.5v-.1zm-42.4 8.3s0-.1 0 0l-.5-.1v.1zm-14.1-.1v.1h.6v-.1zm57.2-9.2.6.1v-.1zm-1-.1-.6-.1v.1zM42 31.9v.1h.5v-.1zm-7.6 0s0 .1 0 0l.6.1v-.1zm8.7-.1.6.1v-.1q-.5-.2-.6 0m21-2.2q-.5.3.1.4zm-23.2.3-.6-.1v.1zm14.7-12.3h-.1v.5h.1zM27 73.8h-.1l.1.5h.1zM39.4 30q0 .2 0 0l.6.1V30zm1.3 1.2v.1h.6v-.1zm17-11.2-.1.6h.1zm18.8 7.8-.2-.2-.2.1.1.1zm9.1-3.9q0-.1 0 0l-.6-.1v.1zM74.7 28s0-.1 0 0l-.5.1.1.1zm-17.2.2s0-.1 0 0l-.6-.1v.1zm28.6-4.6.6.1v-.1zm-2.2.1h-.6v.1zm-6.3.1.1.1h.5l-.3-.3zm-35.1 7.6s0 .1 0 0l.4.1v-.1zm43.1-7.2h-.4v.1zm-51.5 7.5q0-.1 0 0l-.4-.1v.1zm2.6-.1h-.4v.1zm56-8.7s0 .1 0 0l.4.1v-.1zm-56 9.3s0-.1 0 0l-.4-.1v.1zm.3.3.4.1v-.1q-.3-.2-.4 0m-.8.1v.1h.4v-.1zm-9.6.3q0-.1 0 0l-.4-.1v.1zm5.9-.1s0 .1 0 0l.4.1v-.1zm19.2 0h-.1v.4h.1q-.2-.1 0-.4m-18.1.4v-.1h-.4v.1zm49-10.9s.1 0 0 0l.1-.4h-.1zm-5.8 47.8s-.1 0 0 0l-.1.4h.1zM58.2 28.2h-.4v.1zm-16.9 2s0 .1 0 0l.4.1v-.1zm45-6.3v.1h.4v-.1zm-2.9-1.5v.1h.4v-.1zm8 .1q0-.1 0 0l-.4-.1v.1zm-41.1-1.3.1-.1-.2-.2-.1.1zm-8.6 9.9.4.1v-.1zm36.6.2v-.1l-.4.1v.1zm.4-12.7-.2-.1v.1zm-23.4.8q-.1 0 0 0v.2h.1zm-.2 13.5q0-.1 0 0h-.2v.1zm-15.9-.4q.2 0 0 0h.2v-.1zm-1.9 13.2s.1 0 0 0l.1-.3h-.1zm-9.5-11.2q0 .2 0 0h.2v-.1zm50.9-13.8s-.1 0 0 0l-.1.2h.1zm-61.5 21s.1 0 0 0v-.2zm6.1 0v-.2zm4-8.5h-.2zm53.8-11.8-.1.2h.1zM30.8 34.1q0-.1 0 0h-.2v.1zm23.9-1.6h.2v-.1zm-29.1 0h-.2v.1zm6.1 1.4h-.2zm58.6-11.8h.2V22zM32.5 33.7h.2zm-8.1 2.6s-.1 0 0 0v.2zm54.8 1.5v.2h.1zm-63.7-1.5v.2h.1zm17.8-2.8h.2v-.1zm45.3-9.9h.2v-.1zM15.3 35.8v.2h.1zm19.3-2.4s0-.1 0 0h-.2v.1zm50-9q0-.1 0 0h-.2zm-51.9 9s0-.1 0 0h-.2v.1zm-6.1-1.1h-.2v.1zm22.6-.5v.2h.1zm29.7-.7s-.1 0 0 0h-.2zm-36.5-.5h-.2v.1zM31.3 56.5l.1-.2h-.1zm10.3-26.8q-.1 0 0 0h-.2zm.8-.1q0-.2 0 0h-.2v.1zm34.2 40.2v-.2h-.1zm-52.4 2.9v.2zm-7.1-31.8q0 .2 0 0v.1zq0 .2 0 0M81 20s-.1 0 0 0M58.4 32s0-.1 0 0m-.3-.2q-.2 0 0 0H58zq-.2 0 0 0M32 54.2s0-.1 0 0m48.7-32.9q0-.2 0 0 0-.1 0 0m1.8 0s-.1.1 0 0v.1zM31.8 55.6v-.1zm13.6-25.4q-.1 0 0 0M30.4 58s.1 0 0 0v-.1zM92 23.1s.1 0 0 0m-20.2 6.3q-.1 0 0 0-.1-.1 0 0-.1 0 0 0-.1 0 0 0m2.3-.3v.1q.1 0 0-.1.2.2 0 0m-18.7-5.2s0 .1 0 0q0 .2 0 0m12.7.4s-.1 0 0 0m-.8.2q-.1 0 0 0-.1 0 0 0-.1 0 0 0-.1 0 0 0m-6.1 3.8h-.1s0 .1.1 0m13.9-.5s-.1 0 0 0q-.1 0 0 0m-5.6-1.7V26s-.1 0 0 .1q-.1 0 0 0M15.1 64.2s.1 0 0 0q.2 0 0 0"/><path d="M58.3 51.1q-.5.7-1.3 1-3.3 2.2-6.7 4.2l-6.7 4c-.5.3-1 .8-1.7.7q1.4-1.1 2.9-2l4.5-2.8q2.7-1.9 5.6-3.4l2.9-1.6z"/><path d="M56.7 63.8q-.9 1.1-2.1 1.6l-1.2.6-3.1 1.9q-1.7 1-3.3 2.3l-2.4 1.2-.2-.1q1.5-1.3 3.2-2.2l2.4-1.5 3-1.8 1.7-1.2 1.6-.8z"/><path d="m63.1 55.1-1.3 1-8.1 5.1-2.4 1.4-.6.2.8-.6 7.3-4.6 3.4-2.1z"/><path d="M54.1 37.6q-.6.3-1.2.3l-2.4.4-.9.5q-1.2.9-2.7 1.3l1.3-.9.4-.3h.3v-.1l-.3.2-1.4.2-2.5.5q-.4 0-.7.3l-2.1 1.2-.3.1q.4-.5.9-.7l1-.6q-1 0-1.9.3l-.7.2q.7-.7 1.6-.7l3.8-.7 3.9-.7 3.2-.5q.4-.4.7-.3"/><path d="m42.8 56 .3-.3 7.4-4.6 3.3-1.9.6-.2q-.6.7-1.3 1l-4.5 2.8-5 2.9z"/><path d="M40.7 64.1q-.1 0 0 0l-.3-3.4-.2-7.6.1-.9.2 1.6.2 4.8q.2 2.4.1 4.7.3.6-.1.8"/><path d="M50.6 72.3q-1.2 1.3-2.8 2.2l-3.4 1.9-.9.3.7-.5 2.5-1.7a15 15 0 0 1 3.9-2.2"/><path d="M51.2 64.8q-.4.5-.9.7l-5.9 3.8q-.7.5-1.8.8l.4-.4q3.3-2.3 6.7-4.1.6-.6 1.5-.8"/><path d="m55.3 76.5 1-.9q2.3-1.7 4.9-3h.4l-.8.7a29 29 0 0 1-4.2 2.5z"/><path d="m73.2 67.4-.8.6-7.1 4.5-.6.2q2-1.6 4.4-3l3.4-2.1z"/><path d="m50.3 49.2-.2.3-4.3 2.7-2.4 1.3-.5.1q1.7-1.3 3.2-2.1l3.1-1.7q.5-.4 1.1-.6"/><path d="M50.3 40.4q-.5.6-1.4 1l-5.8 3.4-.9.4.2-.3 6.5-3.9z"/><path d="M43.2 74.5c1.7-1.1 3.1-2.6 5.2-3.2a14 14 0 0 1-5.2 3.2"/><path d="m50.3 47-.9.7-6.1 3.7-.5.2.8-.6 5.2-3.1q.7-.7 1.5-.9"/><path d="M52.7 63.8q1.8-1.7 4.3-2.6c-.6.9-3.1 2.4-4.3 2.6"/><path d="m68.7 68-1.1.9-3.7 2.4q-.4.3-.9.3l.8-.6q2.2-1.5 4.6-2.8z"/><path d="m44.2 62.1.3-.4 4-2.6 1.7-.9-1.9 1.3-3.5 2.2q-.1.3-.6.4"/><path d="m53.8 75.1-2 1.5-1.5.9-.7.7-1 .3q.4-.7 1-.9l1.4-.8 2.5-1.5q0-.2.3-.2"/><path d="M47.9 76.5q-.5.8-1.3 1.2-.9.5-1.9.8l.3-.3q1.1-1.1 2.5-1.6z"/><path d="m63.8 57-.1.2-3.4 2.2q-.3.3-.8.2 1.3-1 2.8-1.8z"/><path d="m50.8 62.8-.2.3-2.7 1.7-1.8.9q.8-.8 1.5-1.2l3-1.6z"/><path d="m48.2 46.1-1.1.8-3.6 2.1-.6.2.1-.2 3.7-2.2z"/><path d="M60.9 61.2q-1.2 1-2.6 1.8-.6.4-1.4.6a11 11 0 0 1 4-2.4"/><path d="m48.7 71.1.8-.7 1.9-1.1v.2q-1 .9-2.2 1.5z"/><path d="M54.1 72.5q-.6.8-1.5 1.2-.5.4-1.3.6l.9-.8a5 5 0 0 1 1.9-1"/><path d="m54.1 38.1-.7.6q-1 .7-2.2 1l.5-.3 1.9-1.2z"/><path d="M40.7 69.1V68l-.1-1.3v-.6l.2-1.5q.4 2.4-.1 4.5"/><path d="M47.9 76.5a3 3 0 0 1 1.6-1.3h.5c-.5.9-1.4 1-2.1 1.3"/><path d="M44.2 41.6q-1.3 1-2.9 1.7 1.3-1.2 2.9-1.7"/><path d="M48.2 62q-1.3 1-2.7 1.7.3-.6.8-.8l.9-.5zv.1"/><path d="m35.7 43.7-.4-.4-1.6-2.2-.1-.3.7.7 1.2 1.6z"/><path d="M40.1 46.7q.6 1.2.1 2.5l-.2-.6z"/><path d="M56.5 70.9q-.9 1.2-1.9 1.2.8-1 1.9-1.2"/><path d="m38.7 78.4-.6-.7q-.7-.8-1.1-1.9l.5.5 1.2 1.8z"/><path d="M46.2 65.7q-1 .9-2 1.2.6-1 2-1.2"/><path d="M30.3 43.3q-.2 0-.3-.3l-1.2-1.9.7.8q.5.6.8 1.4"/><path d="M34.7 45.9q-.7-.7-1.2-1.6l-.3-.7.6.7z"/><path d="M31.9 71.8q-.8-.7-1-1.6.7.6 1 1.6"/><path d="M28.4 51.7q.8.5 1 1.5-.6-.7-1-1.5"/><path d="M39.9 44.4q.6.7.3 1.4c-.5-.4-.3-.8-.3-1.4"/><path d="m54.1 77.5-.2-.1q.3-.6 1.1-.8-.4.7-.9.9"/><path d="M29.8 64.8q.6.5.8 1.2-.6-.4-.8-1.2"/><path d="M39.2 36.4q1-.2 2 .1c-.7.2-1.2-.2-2-.1"/><path d="M29.5 38.3q-.7-.4-.9-1.2.7.5.9 1.2"/><path d="M43.2 65q.4-.5 1-.5c-.4.5-.4.5-1 .5"/><path d="M33.6 48.2q-.6-.4-.7-1 .7.3.7 1"/><path d="M44.4 36.3q.7-.2 1.4.1-.8.2-1.4-.1"/><path d="M45.9 34.4q-.8.3-1.5-.2c.6-.2 1 .2 1.5.2"/><path d="M42.7 36.9q.7-.3 1.1.1c-.4.2-.6-.2-1.1-.1"/><path d="M66.8 50.6a1 1 0 0 1-.9.5q.3-.4.9-.5"/><path d="M64.7 49.6a1 1 0 0 1-.9.5q.3-.5.9-.5"/><path d="M52.9 59.1q.3-.5.9-.5-.3.6-.9.5"/><path d="M56.9 45.2a1 1 0 0 1-.9.5q.3-.4.9-.5"/><path d="M36.9 75.8a1 1 0 0 1-.5-.9q.5.3.5.9"/><path d="M54.3 58.3q.3-.6.9-.5-.4.4-.9.5"/><path d="M50.3 58.2q.3-.5.9-.5-.3.6-.9.5"/><path d="M60.2 52.4q.3-.6.9-.5-.4.4-.9.5"/><path d="M55.7 73.9q.3-.6.9-.5-.4.4-.9.5"/><path d="M54.8 67.3q.3-.6.9-.5-.3.4-.9.5"/><path d="M50.3 47q.3-.5.9-.5-.3.4-.9.5"/><path d="M38.7 79.9q.5.1.8.5-.5 0-.8-.5"/><path d="M59.7 55q.3-.5.9-.5z"/><path d="M64.7 56.5q.3-.5.9-.5a1 1 0 0 1-.9.5"/><path d="m54.1 37.6.2-.2h.8l-.2.2z"/><path d="M42 35.9h-.8l-.2-.2h.8z"/><path d="m28.1 47.4.5.6q-.5 0-.5-.6"/><path d="M28.3 36.6q.4.1.4.5-.6-.2-.4-.5"/><path d="M28.4 44.2q.4.2.3.5-.3-.1-.3-.5"/><path d="m51.3 49.4-.2.3-.2.1q0-.5.4-.4"/><path d="M45.4 33.6h-.5v-.1z"/><path d="M36.1 44.2q-.4-.1-.4-.5.4.1.4.5"/><path d="M52.6 43.5q-.2.4-.5.3 0-.3.5-.3"/><path d="M58.3 46.6q-.1.4-.6.4.1-.4.6-.4"/><path d="M44.2 41.6q.2-.3.5-.3 0 .3-.5.3"/><path d="M30.3 50.8q.4.2.3.5-.3-.1-.3-.5"/><path d="m34.7 45.9.4.4q-.5.1-.4-.4"/><path d="M65.9 51.1q-.2.4-.5.3.1-.3.5-.3"/><path d="M32.4 61.4 32 61q.5 0 .4.4"/><path d="M40.9 35.7h-.6q.3-.3.6 0"/><path d="M43.5 80.5c.2-.3.5-.1.7-.2-.1.3-.5.1-.7.2"/><path d="m28.3 60 .3.4-.1.1z"/><path d="M31 51.8q-.4-.2-.3-.5.4.2.3.5"/><path d="M52.9 59.1q-.2.4-.5.3.1-.3.5-.3"/><path d="M31.4 52.3q-.4-.2-.3-.5.3.2.3.5"/><path d="M34.9 76.3q-.4-.2-.3-.5.3.1.3.5"/><path d="M53.8 58.6q.2-.4.5-.3-.2.3-.5.3"/><path d="m39.7 74.9.4.4q-.5 0-.4-.4"/><path d="M55.1 74.2q-.2.5-.5.3.2-.3.5-.3"/><path d="M55.7 73.9q-.2.5-.5.3 0-.3.5-.3"/><path d="m37.6 57.9.4.4q-.5 0-.4-.4"/><path d="M57.1 73q-.2.4-.5.4 0-.4.5-.4"/><path d="M35 72.8q-.4-.1-.4-.5.4.2.4.5"/><path d="M30.2 72.8q-.4-.2-.3-.5.3.2.3.5"/><path d="M51.2 72q-.2.4-.5.3 0-.3.5-.3"/><path d="M58.5 72.1q.1-.4.5-.4-.2.6-.5.4"/><path d="M29.8 72.3q-.4-.2-.3-.5.3.2.3.5"/><path d="M59.5 71.4q-.2.4-.5.4 0-.4.5-.4"/><path d="M59.8 71.3q.2-.5.5-.3 0 .3-.5.3"/><path d="M64.7 56.5q-.2.4-.5.3 0-.3.5-.3"/><path d="M29.3 71.4q-.4-.2-.4-.5.4.2.4.5"/><path d="M59 53q-.2.4-.5.3 0-.3.5-.3"/><path d="M28.6 70.4q.4.2.3.5-.3-.1-.3-.5"/><path d="m36.1 57-.2-.4.1-.1.3.4z"/><path d="M57.9 53.7q.2-.4.5-.4 0 .5-.5.4"/><path d="M58.8 69.5q.2-.4.5-.4-.1.5-.5.4"/><path d="M61.4 53.9q.2-.4.5-.3-.1.3-.5.3"/><path d="M64.2 68.5q-.2.5-.5.3 0-.3.5-.3"/><path d="M54.8 67.3q-.2.5-.5.3.1-.3.5-.3"/><path d="M60.9 54.3q.2-.5.5-.3-.2.3-.5.3"/><path d="M63.1 55.1q.2-.4.5-.3 0 .3-.5.3"/><path d="M70.6 66.8q-.2.5-.5.3.1-.5.5-.3"/><path d="M59.7 55q-.2.4-.5.3 0-.4.5-.3"/><path d="M62.3 48.7q-.2.5-.5.3 0-.3.5-.3"/><path d="M28.4 66.4q-.4-.2-.4-.5.4.1.4.5"/><path d="M48.2 46.1q.2-.4.5-.3 0 .3-.5.3"/><path d="M50.8 48.9q-.1.4-.5.4.2-.4.5-.4"/><path d="M32.9 65.9q-.4-.1-.4-.5.4.1.4.5"/><path d="M32.6 65.4q-.4-.2-.3-.5.3 0 .3.5"/><path d="M53.4 56.3q.2-.5.5-.3 0 .4-.5.3"/><path d="M37.1 64.7q-.4-.2-.4-.5.4 0 .4.5"/><path d="M31.5 63.8q.4.2.3.5-.3-.1-.3-.5"/><path d="M36.4 63.6q.4.2.3.5-.3 0-.3-.5"/><path d="M29.8 56.2q0 .3-.4.5 0-.4.4-.5"/><path d="M36.1 63.1q.4.2.3.5-.4 0-.3-.5"/><path d="m53.4 47.3-.4.4q0-.5.4-.4"/><path d="M29.1 45.2q.4.2.3.5-.3 0-.3-.5"/><path d="M43.3 62.6q-.2.4-.5.3.2-.3.5-.3"/><path d="M29.1 45.2q-.4-.2-.3-.5.3.2.3.5"/><path d="M43.7 62.4q.2-.4.5-.4-.1.4-.5.4"/><path d="m35.1 69.3-.2-.4.1-.1.2.4z"/><path d="m56.7 35.7.5.1q-.3.3-.5-.1"/><path d="M43.5 80.5q-.1.3-.6.1z"/><path d="M37.3 39.5q-.3.1-.5-.2.3 0 .5.2"/><path d="m40.4 40.6.4.2-.1.1z"/><path d="m38.3 48.7.3.3q-.4 0-.3-.3"/><path d="m30.7 58.7.4.3q-.5.2-.4-.3 0 .2 0 0"/><path d="M39.2 78.2q-.2-.2-.2-.5.3.2.2.5"/><path d="m28.6 40.7.2.3z"/><path d="m32.8 47-.2-.3h.1z"/><path d="m36.8 47.7.2.3h-.1z"/><path d="m42.1 45.2-.2.2v-.1z"/><path d="m37.8 46.6.2.3h-.1z"/><path d="m44.7 41.3.3-.2v.1z"/><path d="m49.1 45.6.3-.2v.1z"/><path d="m54.8 48.7.3-.2v.1z"/><path d="m36.9 41.6.2.3H37z"/><path d="M49.1 45.6q0 .3-.3.2z"/><path d="m29.5 45.8.2.4z"/><path d="m55.7 45.9.3-.2z"/><path d="m43 47-.3.2v-.1z"/><path d="m57.7 47-.3.2z"/><path d="m51.7 46.1.3-.2v.1z"/><path d="m30.3 43.3.2.3h-.1z"/><path d="M35.7 37.4h.3v.1z"/><path d="m33.1 43.7-.2-.4z"/><ellipse cx="40.8" cy="43.8" rx=".2" ry=".1"/><path d="m54.3 49.1.4-.2z"/><path d="M42 35.9h.3v.1z"/><path d="m52 43.9-.3.2V44z"/><path d="M37.3 38.8q-.2.1-.3-.2.2 0 .3.2"/><path d="m51.3 48.5.3-.2z"/><path d="M37.3 38.8h.3v.1z"/><path d="M37.8 39.1h.2v.1z"/><path d="M51.2 46.5q0-.3.3-.2z"/><path d="m51.2 48.7-.3.2z"/><path d="M37.3 39.5h.3v.1z"/><path d="m33.1 39.9.2.3z"/><path d="m28.4 40.6-.2-.3h.1z"/><path d="m58.6 46.5-.3.2q0-.3.3-.2"/><path d="m50.3 40.4.2-.2v.1z"/><path d="M33.6 40.7q-.3 0-.2-.4z"/><path d="m61.7 49.1-.3.2z"/><path d="m36.2 49.6-.2-.3q.3 0 .2.3"/><path d="m61.1 49.4.3-.2z"/><path d="m35.7 49.9.2.3h-.1z"/><path d="m30 50.3.2.3z"/><path d="m63.6 50.3-.3.2v-.1z"/><path d="m58.6 51-.3.2z"/><path d="m42.8 51.5-.4.2z"/><path d="m60.2 52.4-.4.2z"/><path d="m59 53.1.3-.2v.1z"/><path d="M32.4 53.4h-.2l.1-.3h.1z"/><path d="m62.6 53.2-.3.2q0-.2.3-.2"/><path d="M32.3 53.7h-.2l.2-.4q-.1.3 0 .4"/><path d="m61.9 53.6.3-.2z"/><path d="m27.7 54.3.2.3h-.1z"/><path d="m60.9 54.3-.3.2z"/><path d="m64.2 54.4.3-.2q0 .3-.3.2"/><path d="m64 54.6-.3.2z"/><path d="m38.1 54.8.2.3-.1.1z"/><path d="m55.8 55 .3-.2z"/><path d="m55.5 55.1.3-.2q0 .3-.3.2"/><path d="m58.8 55.5.3-.2z"/><path d="m58.6 55.6-.3.2z"/><path d="m42.8 56-.3.2v-.1z"/><path d="m53.4 56.3-.3.2v-.1z"/><path d="m29.3 57 .2-.4q0 .4-.2.4"/><path d="m33.6 56.9.2.3h-.1z"/><path d="m63.8 57 .3-.2z"/><path d="m55.7 57.4.3-.2v.1z"/><path d="m31.6 57.6.2.3h-.1z"/><path d="m55.5 57.6-.3.2z"/><path d="m52 59.6.3-.2z"/><path d="m51.8 59.8-.3.2z"/><path d="M36.8 60.3q.3 0 .2.3-.2 0-.2-.3"/><path d="m35.2 60.5.2.3h-.1z"/><path d="m61.4 60.9.3-.2q0 .2-.3.2"/><path d="m37.1 60.9.2.3z"/><path d="m61.2 61-.3.2z"/><path d="M32.4 61.4q.3 0 .2.4z"/><path d="M43.7 62.4q0 .3-.4.2z"/><path d="m42.5 63.1.3-.2z"/><path d="m31.4 63.5.2.3z"/><path d="m32.1 64.7-.2-.3z"/><path d="m51.3 64.7.3-.2z"/><path d="m37.3 64.9.2.3h-.1z"/><path d="m28.6 66.8-.2-.3q.3 0 .2.3"/><path d="m29 67.3-.2-.3z"/><path d="m74.1 66.9-.4.2z"/><path d="m73.5 67.3-.4.2z"/><path d="M54.3 67.6q0 .3-.3.2z"/><path d="m69 67.8-.3.2z"/><path d="m53.8 68-.3.2z"/><path d="m63.3 69 .3-.2z"/><path d="m58.8 69.5-.3.2z"/><path d="m30.9 70.2-.2-.4z"/><path d="m60.9 70.6-.3.2z"/><path d="m38.7 70.8.2.3h-.1z"/><path d="m59.5 71.4.3-.2z"/><path d="m29.5 71.8-.2-.3z"/><path d="m31.9 71.8.2.3H32z"/><path d="m34.7 72.3-.2-.2.1-.1z"/><path d="m58.4 72.1-.3.2z"/><path d="m57.1 73 .3-.2v.1z"/><path d="M38 73.9v-.4h.2z"/><path d="m54.3 74.7.3-.2z"/><path d="m34.3 75.6-.2-.3h.1z"/><path d="m34.8 76.3.2.3q-.2 0-.2-.3"/><path d="m35.2 76.8.2.3z"/><path d="m39.2 78.2.2.3z"/><path d="m38.7 78.4.2.3z"/><path d="m39.4 78.6.2.3h-.1z"/><path d="m39.2 79.2-.2-.3z"/><path d="m54.1 38.1.1-.1v.1z"/><path d="M39 36.1s-.1.1 0 0q-.1 0 0 0"/><path d="m29.5 38.3.1.1z"/><path d="m33.1 39.9-.1-.1z"/><path d="m33.3 40.2.2.2z"/><path d="m40.4 40.4.1-.1z"/><path d="m40.9 40.2-.1.1z"/><path d="m28.4 40.6.2.2z"/><path d="m40.2 41.1.1.1z"/><path d="m41.6 41.1-.1.1z"/><path d="m40.1 41.6.1.1h-.1z"/><path d="M38.5 42.3h-.2l.1-.1z"/><path d="m32.8 43.2-.1-.1z"/><path d="m32.8 43.2.2.2z"/><path d="m28.3 44-.1-.1z"/><path d="m28.2 44 .2.2z"/><path d="m51.3 44.2.1-.1z"/><path d="m36.1 44.2.1.1z"/><path d="m51.3 44.2-.1.1z"/><path d="m54.3 44.7-.1.1z"/><path d="M38.7 45.2q0 .1 0 0 0 .2 0 0"/><path d="m55.7 45.9-.2.2z"/><path d="m29.6 46.1.2.2z"/><path d="m51.5 46.3.2-.2z"/><path d="m55.5 46.1-.1.1z"/><path d="m29.8 46.3.1.1z"/><path d="M55.1 46.4q-.1 0 0 0-.1 0 0 0"/><path d="m37.8 46.6-.2-.2z"/><path d="m32.8 47 .2.2z"/><path d="m37.3 47.2.1.1z"/><path d="m53.4 47.3.1-.1z"/><path d="m57.4 47.1-.1.1z"/><path d="m33.6 48.2.1.1z"/><path d="m51.7 48.4.1-.1z"/><path d="m38.3 48.7-.1-.1z"/><path d="m51.2 48.7.2-.2z"/><path d="m54.8 48.7-.2.2z"/><path d="M43 49.2q0 .1 0 0 0 .1 0 0"/><path d="M51.3 49.4q.1 0 0 0 .2 0 0 0"/><path d="M42.6 49.4q0 .2 0 0 0 .2 0 0 0 .1 0 0"/><path d="m61 49.4-.1.1z"/><path d="m36.2 49.6.1.1z"/><path d="m30 50.3-.1-.1z"/><path d="m63.7 50.3.2-.2z"/><path d="M63 50.6s0-.1 0 0q0-.1 0 0 .2-.1 0 0 .2 0 0 0"/><path d="m30.2 50.6.2.2z"/><path d="m58.6 51 .1-.1z"/><path d="M38.1 51q.2 0 0 0 .1 0 0 0"/><path d="m28.4 51.7-.1-.1z"/><path d="m65.4 51.5-.1.1z"/><path d="m38.8 51.8-.1-.1z"/><path d="m42.5 51.7-.1.1z"/><path d="m61.1 51.8.1-.1z"/><path d="M38.8 51.8q.2.2 0 0 .2.2 0 0"/><path d="m31.4 52.4.1.1z"/><path d="m35.7 52.5.1.1z"/><path d="m59.8 52.5-.1.1z"/><path d="M63 52.9q.2 0 0 0 0 .1 0 0"/><path d="m62.6 53.2.1-.1z"/><path d="m57.9 53.7-.1.1z"/><path d="m27.6 54.1.2.2z"/><path d="m34.3 54.3.1.1z"/><path d="M56.7 54.5s-.1.1 0 0q-.1 0 0 0"/><path d="m64 54.6.2-.2z"/><path d="m56.2 54.8.1-.1z"/><path d="m55.5 55.1-.1.1z"/><path d="m58.8 55.5-.2.2z"/><path d="m53.9 56 .1-.1z"/><path d="m58.3 55.8-.1.1z"/><path d="m33.5 56.7.2.2z"/><path d="m29.3 57-.1.1z"/><path d="m55.5 57.6.2-.2z"/><path d="M51.2 57.7s0-.1 0 0"/><path d="m31.2 58.3-.2-.2z"/><path d="m31.2 58.3.1.1z"/><path d="m30.2 58.8.2-.2z"/><path d="M29.8 59.1h.2l-.1.1z"/><path d="m29.8 59.8-.2-.1z"/><path d="m51.9 59.8.2-.2z"/><path d="m29.8 59.8.1.1z"/><path d="M51.5 60s-.1.1 0 0"/><path d="m37.1 60.9-.2-.2z"/><path d="m61.2 61 .2-.2z"/><path d="m42 61-.1.1z"/><path d="m37.3 61.2.1.1z"/><path d="m27.7 61.7.1.1z"/><path d="m32.6 61.7.1.1z"/><path d="M48.5 61.8h-.1z"/><path d="m42.5 63.1-.1.1z"/><path d="m31.4 63.5-.1-.1z"/><path d="m51.7 64.5.1-.1z"/><path d="m29.6 64.7-.1-.1z"/><path d="m29.6 64.7.2.2z"/><path d="m32.2 64.8-.2-.2z"/><path d="m37.3 64.8-.2-.2z"/><path d="m51.2 64.8.2-.2z"/><path d="m37.1 65.9-.2-.2z"/><path d="m32.9 65.9.1.1z"/><path d="m37.1 65.9.1.1z"/><path d="m28.6 66.8.2.2z"/><path d="m73.7 67.1-.2.2z"/><path d="m28.9 67.3.1.1z"/><path d="m53.9 67.8-.2.2z"/><path d="m53.4 68.1-.1.1z"/><path d="m38 68.5.1.1z"/><path d="m63.1 69.2.2-.2z"/><path d="m63.1 69.2-.1.1z"/><path d="m30.7 69.9-.1-.1z"/><path d="m58.4 69.7-.2.2z"/><path d="m58.3 69.9-.1.1z"/><path d="m60.9 70.6.1-.1z"/><path d="m56.5 70.9.1-.1z"/><path d="m60.5 70.7-.2.2z"/><path d="m48.7 71.1-.1.1v-.1z"/><path d="M54.1 72.5q0-.1 0 0 .2 0 0 0"/><path d="m58.1 72.3-.1.1z"/><path d="m30.2 72.8.1.1z"/><path d="m35 72.8.1.1z"/><path d="m64.7 72.8-.2.2z"/><path d="m51.3 74.2-.1.1z"/><path d="m36.4 74.9-.1-.1z"/><path d="m54.3 74.7-.1.1z"/><path d="m53.8 75.1.1-.1z"/><path d="M32.1 75.8q-.2 0 0 0-.1-.1 0 0"/><path d="m34.5 75.8-.2-.2z"/><path d="m55.3 76.5-.1.1z"/><path d="m35 76.7.2.2z"/><path d="m43.5 76.6-.1.1z"/><path d="m35.4 77.2.1.1z"/><path d="m38.8 78.7.2.2z"/><path d="M39.7 79.2q-.1 0 0 0-.1 0 0 0-.1-.1 0 0 0-.1 0 0"/><path d="m39.2 79.3.1.1z"/><path d="m28.3 36.6-.1-.1z"/><path d="M39.8 80.6s0-.1 0 0q0-.1 0 0"/><path d="m104.5 56.7-1.9 1.4-5.9 3.8-7.9 5-3.5 2.3-.4.1.4-.4 5.2-3.5 8.3-5.3 5.1-3.2z"/><path d="m93.9 47.3 1.6-1.1 4.4-2.8 3.6-2.2q1.5-1.1 3.2-2l.8-.4-.3.5-1.2.9-1.5.9q-2.3 1.3-4.5 2.8L95.1 47q-.4.3-1.2.3"/><path d="M88.5 30.8c.3-.4.7-.2 1.1-.3l2.8-.6q1.2 0 2.3-.4c.9-.3 1.9-.2 2.8-.6l-.6-.1v-.1h.5c1.2.3 2.2-.2 3.3-.3l2.9-.4.6-.1.9.1-4 .8-3.4.7-4.9.8-3.2.5z"/><path d="M94.2 36q.5-.7 1.2-1l5.6-3.5 1.5-1 2.5-1.4h.3q-.2.4-.6.6-1.4 1.2-3 1.9l-4.6 2.7-2.5 1.5q0 .3-.4.2"/><path d="m98.2 35.6 2.9-2 2.7-1.6q1.1-.9 2.3-1.4l1.1-.5-.2.4q-.9.8-1.9 1.3l-3.4 2.1-3.2 1.7q.1.2-.3 0"/><path d="m98.5 49.1.4-.4 6.6-4.4 2-.8-2.2 1.6q-2.8 2-6 3.6z"/><path d="m95.6 60.1.8-.6 3.1-2 6.8-4.4.6-.2-.5.5-8.7 5.7z"/><path d="m99.9 50.4.9-.8q2.8-2.2 6.3-3.9l-.2.4-3 2.1-3.6 2q-.2.3-.4.2"/><path d="M89.7 50.1q1-1.1 2.4-1.8.3-.2.8-.1-1.4 1.5-3.2 1.9"/><path d="M104.6 38.5q-.2.8-.9.9l-2.2 1.1h-.2l.3-.3q1-.5 1.7-1.2.5-.5 1.3-.5"/><path d="m107.6 32.2-.8.7L105 34l-.1-.1.5-.4.5-.5 1.3-.8z"/><path d="M104.6 38.5q.3-.6 1-.9c.7-.3.7-.4 1.2-.4l-1.6 1.1z"/><path d="M85.2 28.2c.9-.2 1.8.2 2.6.3-.8.2-1.7-.3-2.6-.3"/><path d="M89.1 39q.9-.8 2.1-1.2-.8.8-2.1 1.2"/><path d="M92.5 50.6q-.9.8-1.9 1.2v-.1q.7-.7 1.9-1.1"/><path d="M93.2 61.6q.7-.7 1.6-.9-.8.7-1.6.9"/><path d="M93.5 38.6q.5-.6 1.2-.7-.4.6-1.2.7"/><path d="M105.5 56q-.3.6-1 .7l-.1-.1a2 2 0 0 1 1.1-.6"/><path d="M96.6 39q-.3.5-.9.5.4-.5.9-.5"/><path d="M91.1 42.5q-.3.5-.9.5.3-.5.9-.5"/><path d="M94.7 60.7q.3-.5.9-.5-.3.4-.9.5"/><path d="M102.5 35.3q-.3.5-.9.5.4-.4.9-.5"/><path d="M98.6 46.8a1 1 0 0 1-.9.5q.2-.4.9-.5"/><path d="M90.4 40.6q.3-.5.9-.5-.4.4-.9.5"/><path d="M95.6 37.4q-.3.5-.9.5.3-.4.9-.5"/><path d="M86.6 31.2q.3-.3.8 0z"/><path d="M88.5 30.8q-.3.3-.8 0z"/><path d="M93.3 50.1q.2-.4.5-.3 0 .3-.5.3"/><path d="M93 43.5q-.2.4-.5.3 0-.3.5-.3"/><path d="M92.8 50.4q.2-.4.5-.3-.1.4-.5.3"/><path d="M93 43.5q.2-.4.5-.3-.2.3-.5.3"/><path d="M90.2 43q-.2.4-.5.4.1-.4.5-.4"/><path d="M96.1 37.1q-.2.4-.5.4.1-.4.5-.4"/><path d="M94.7 42.5q.2-.4.5-.3 0 .3-.5.3"/><path d="M91.1 42.5q.2-.4.5-.3-.2.3-.5.3"/><path d="M95.6 41.9q.2-.4.5-.3-.2.4-.5.3"/><path d="M103 37.3q.2-.5.5-.3 0 .3-.5.3"/><path d="M96.1 41.6q.2-.4.5-.3-.1.3-.5.3"/><path d="M95.2 51.1q.2-.4.5-.3 0 .4-.5.3"/><path d="M97.1 40.9q-.2.4-.5.3.2-.3.5-.3"/><path d="M98 40.4q-.2.4-.5.3.1-.3.5-.3"/><path d="M103 37.3q-.2.5-.5.3.2-.4.5-.3"/><path d="M91.2 40q.2-.4.5-.3 0 .3-.5.3"/><path d="m95.8 39.5-.4.4q-.1-.5.4-.4"/><path d="M87.8 51.3q.2-.4.5-.3-.2.3-.5.3"/><path d="M106.3 51q-.1.4-.5.4.2-.5.5-.4"/><path d="m89.2 39-.5.4q0-.4.5-.4"/><path d="M101.7 38.1q.2-.4.5-.3-.2.3-.5.3"/><path d="m106.9 52.9.4-.4q0 .4-.4.4"/><path d="M85.2 48.4q.2-.4.5-.3-.2.3-.5.3"/><path d="M84.8 69.4q-.2.5-.5.3.2-.4.5-.3"/><path d="M98 38.1q-.2.4-.5.3.2-.3.5-.3"/><path d="M101.7 35.9q-.2.4-.5.3 0-.3.5-.3"/><path d="M84.8 48.5q-.2.4-.5.4.2-.4.5-.4"/><path d="M100.6 36.6q.2-.4.5-.4 0 .4-.5.4"/><path d="M105.5 56q.2-.4.5-.3-.2.3-.5.3"/><path d="M103.9 36.7q.2-.5.5-.3-.1.4-.5.3"/><path d="m90.4 45.1.3-.2z"/><path d="m103.6 36.9.3-.2z"/><path d="m86.2 47.7.3-.2z"/><path d="m97.1 40.9.3-.2z"/><path d="m92.5 41.6-.3.2z"/><path d="m85.7 48 .3-.2z"/><path d="m91.9 41.9-.3.2z"/><path d="m95.6 41.9-.3.2q0-.3.3-.2"/><path d="m94.4 42.6.3-.2z"/><path d="m93.8 43-.3.2z"/><path d="m93.7 36.4-.3.2z"/><path d="m91.9 37.4.3-.2z"/><path d="m91.9 37.4-.3.2z"/><path d="m91.2 37.8.4-.2z"/><path d="m102.2 37.8.3-.2z"/><path d="m104.6 36.2.3-.2q0 .3-.3.2"/><path d="m98.4 37.9-.3.2z"/><path d="m93.8 36.2.3-.2q0 .2-.3.2"/><path d="m105 36 .3-.2z"/><path d="M101.7 38.1q0 .3-.3.2z"/><path d="m97.1 38.6.3-.2q0 .2-.3.2"/><path d="m101.1 38.5-.3.2z"/><path d="m92.5 43.8-.3.2z"/><path d="M93.5 38.6q0 .3-.3.2z"/><path d="M100.8 38.6q0 .3-.3.2z"/><path d="m84.8 48.5.3-.2z"/><path d="m96.6 39 .3-.2z"/><path d="M92.1 44q0 .3-.3.2z"/><path d="m102.5 35.4.3-.2z"/><path d="m92.6 39.2.3-.2z"/><path d="m92.3 39.3.3-.2q0 .3-.3.2"/><path d="m91.2 44.6.3-.2z"/><path d="m92.1 39.5-.3.2z"/><path d="m103.4 34.8-.3.2z"/><path d="m98 40.4.3-.2z"/><path d="m90.7 44.9.3-.2z"/><path d="m98.5 49.1-.4.2z"/><path d="m94.2 49.6-.3.2z"/><path d="m89.2 50.5.3-.2z"/><path d="m88.8 50.6.3-.2z"/><path d="m92.5 50.6.3-.2z"/><path d="m88.6 50.8-.3.2q0-.3.3-.2"/><path d="m106.7 50.8-.3.2z"/><path d="m87.8 51.3-.3.2z"/><path d="m96.1 52.9.3-.2z"/><path d="m95.9 53-.3.2q0-.2.3-.2"/><path d="m106 55.7.3-.2z"/><path d="m92.8 36.9-.3.2z"/><path d="m107.4 57-.3.2z"/><path d="m96.1 37.1.3-.2z"/><path d="m106.5 57.6.4-.2z"/><path d="m100.6 36.6-.2.2v-.1z"/><path d="m107.5 59.1.3-.1v.1z"/><path d="m106.7 61.9.3-.2v.1z"/><path d="M93.3 36.6q0 .3-.3.2z"/><path d="M102.2 26.3h.3v.1z"/><path d="m104.4 36.4.2-.2z"/><path d="m93.8 36.2-.2.2z"/><path d="m98.4 38 .1-.1z"/><path d="m101.3 38.3-.2.2z"/><path d="m105.3 35.9.1-.1z"/><path d="m97.1 38.6-.2.2z"/><path d="m93.1 38.8-.1.2z"/><path d="m100.3 39 .2-.2z"/><path d="m102.9 35.2.2-.2z"/><path d="m100.3 39-.1.1z"/><path d="m96.5 36.9.1-.1z"/><path d="m92.3 39.3-.2.2z"/><path d="M98.4 40.2s0-.1 0 0"/><path d="m103.4 34.8.1-.1z"/><path d="m93 41.3.1-.1z"/><path d="m93 41.2-.1.1z"/><path d="m92.5 41.6.1-.1z"/><path d="m92.1 41.8-.2.2z"/><path d="M94.4 42.6q-.1.2 0 0-.1.2 0 0"/><path d="m93.8 43 .1-.1z"/><path d="m91.6 44.4.2-.2z"/><path d="m91.1 44.7.2-.2z"/><path d="m90.2 45.2.2-.2z"/><path d="m90.2 45.2-.1.1z"/><path d="M89.8 45.5q-.1 0 0 0"/><path d="m92.8 36.9.2-.2z"/><path d="m86.6 47.5.1-.1z"/><path d="m97.7 47.3-.1.1z"/><path d="m86 47.8.2-.2z"/><path d="m95.2 48.9.1-.1z"/><path d="m95.2 48.9-.1.1z"/><path d="M94.8 49.2q0-.1 0 0 0-.1 0 0"/><path d="m94.4 49.4.1-.1z"/><path d="m98.2 49.2-.1.1z"/><path d="m94.2 49.6.2-.2z"/><path d="m89.5 50.3.2-.2z"/><path d="M96.5 50.3q.2 0 0 0 0 .2 0 0"/><path d="M96.2 50.5q0 .2 0 0"/><path d="m99.9 50.4-.1.1z"/><path d="m106.9 50.6.1-.1z"/><path d="m88.6 50.8.2-.2z"/><path d="M95.8 50.8s0-.1 0 0"/><path d="m106.7 50.8.2-.2z"/><path d="M97 52.3s0-.1 0 0q.1 0 0 0 .2 0 0 0"/><path d="m96.6 52.5.1-.1z"/><path d="m96.6 52.5-.2.2z"/><path d="m95.9 53.1.2-.2z"/><path d="M106.8 55.2s0 .1 0 0q-.1 0 0 0"/><path d="m106.3 55.5.1-.1z"/><path d="m107.4 57 .1-.1z"/><path d="m106.9 57.4.2-.2z"/><path d="m92.5 37.1-.2.2z"/><path d="M21.8 54.8q-.5-.4-.5-1l-1.2-3.7-.4-1.6q.5.5.5 1.1l.7 1.7.1.7.7 2.3z"/><path d="m18.4 40-.4-.4-1-1.7q1 1 1.4 2.1"/><path d="m18.7 44.2.6.8.8 1.3a5 5 0 0 1-1.4-2.1"/><path d="M20.3 35.7q.5.4.7 1-.6-.3-.7-1"/><path d="M19.4 32.1q-.5 0-.9-.3.6-.2.9.3"/><path d="M18 31.5q-.5.1-.9-.4.6 0 .9.4"/><path d="M25.3 28.2c-.4.2-.4.2-1 0z"/><path d="M21.7 45.1q-.4-.2-.3-.5.3 0 .3.5"/><path d="M21.3 44.5q-.3 0-.3-.5.3.2.3.5"/><path d="M19.2 37.8q.4.2.4.5-.4-.2-.4-.5"/><path d="M19.6 34.7q-.4-.2-.3-.5.3 0 .3.5"/><path d="M18.9 37.3q-.4-.2-.3-.5.3 0 .3.5"/><path d="M19.6 34.7q.4.2.4.5-.4-.2-.4-.5"/><path d="m20.9 40.4-.3-.5q.4 0 .3.5"/><path d="m20.3 39.3.4.5q-.4 0-.4-.5"/><path d="M19.9 35.2q.4.2.4.5-.4-.2-.4-.5"/><path d="M22.4 53.4q-.4-.2-.3-.5.3.1.3.5"/><path d="m18.2 36.2-.4-.4q.5 0 .4.4"/><path d="M22.4 53.4q.4.2.3.5-.4-.1-.3-.5"/><path d="M18.9 37.3q.4.2.3.5z"/><path d="M16.6 37.4q.4.2.4.5-.4 0-.4-.5"/><path d="M22.7 46.6q-.4-.2-.3-.5.3.2.3.5"/><path d="M19.9 38.8q-.4-.2-.3-.5.3.2.3.5"/><path d="M22.4 46.1q-.4-.2-.4-.5.4.1.4.5"/><path d="M19.9 38.8q.4.2.3.5-.3 0-.3-.5"/><path d="M18.5 31.7q-.3.1-.5-.2c.2.1.4-.1.5.2"/><path d="M20.3 31.9h-.6q.4-.4.6 0"/><path d="M19.9 32.2q-.3.1-.5-.2c.2.1.4-.1.5.2"/><path d="M20.4 32.4q-.3.1-.5-.2c.2.1.4-.1.5.2"/><path d="M20.4 32.4q.3-.1.5.2c-.1-.1-.4.1-.5-.2"/><path d="M15.2 35H15v-.5c.4.1.2.3.2.5"/><path d="M21.8 54.8q.4.1 0 .6z"/><path d="M17.2 31.2q-.3.1-.5-.2c.1.1.4-.1.5.2"/><path d="m21.8 45.4-.2-.3z"/><path d="m22.2 35-.2-.3z"/><path d="m18.7 33.4-.2-.3z"/><path d="M21 32.6h.3v.1z"/><path d="m15.1 34.5-.2-.3h.1z"/><path d="m19.8 48.5-.2-.3h.1z"/><path d="M18.5 36.7q-.2 0-.2-.3z"/><path d="m19.1 34-.2-.3z"/><path d="m22.5 35.5-.2-.3z"/><path d="m22 49.2-.2-.3z"/><path d="m18.4 40 .2.3h-.1z"/><path d="m22.4 49.7-.2-.3z"/><path d="m22.5 50.1-.2-.3z"/><path d="M22.9 50.6q-.2 0-.2-.3.2 0 .2.3"/><path d="m21.5 52 .2.3z"/><path d="m21.8 52.5.2.3q-.2 0-.2-.3"/><path d="m16.5 37.1.2.3z"/><path d="M24 28.5h-.2v-.1z"/><path d="m18.4 36.4-.2-.2z"/><path d="m22.2 35 .2.2z"/><path d="m22 34.7-.1-.1z"/><path d="m21 44-.1-.1z"/><path d="m18.4 44-.1.1z"/><path d="m18.9 33.6-.2-.2z"/><path d="m22 45.6-.2-.2z"/><path d="m18.5 33.1-.1-.1z"/><path d="m21.7 48.7-.1-.1z"/><path d="m21.8 48.9-.2-.2z"/><path d="m16.5 37.1-.1-.1z"/><path d="m19.2 34.1-.2-.2z"/><path d="m22 49.2.2.2z"/><path d="m22.7 50.3-.2-.2z"/><path d="m21.5 52-.1-.1z"/><path d="m21.7 52.4.2.2z"/><path d="m16.6 31.5-.1-.1z"/><path d="m16.6 31-.1-.1z"/><path d="M22 70.9 20.6 69l-.9-1.5q1 1.2 1.7 2.5.4.4.6.9"/><path d="M23 69q-.8-.9-1.2-1.9.9.9 1.2 1.9"/><path d="M21.7 58.4q-.7-.5-.9-1.4.7.5.9 1.4"/><path d="M19.7 67.5q-.6-.5-.8-1.4.6.5.8 1.4"/><path d="M21.8 59.8q.6.3.5.9-.4-.3-.5-.9"/><path d="M18.5 61.9c.3.3.4.3.5.9z"/><path d="M23 61.7q-.4-.2-.3-.5.4.2.3.5"/><path d="M22.7 61.2q-.4-.2-.3-.5.3.1.3.5"/><path d="M21.8 59.8q-.4-.2-.3-.5.3.2.3.5"/><path d="M22.4 71.4q-.4-.2-.4-.5.4.2.4.5"/><path d="M21.8 67.1q-.4-.2-.3-.5.4.1.3.5"/><path d="M21.5 66.6q-.4-.2-.3-.5.3 0 .3.5"/><path d="M18.9 66.1q-.4-.2-.3-.5.3 0 .3.5"/><path d="M18.2 65q.4.2.4.5-.4 0-.4-.5"/><path d="M23 65.4q-.4-.2-.3-.5.4 0 .3.5"/><path d="M22.4 64.3q.4.2.3.5-.4 0-.3-.5"/><path d="M22.4 64.3q-.4-.2-.3-.5.3.2.3.5"/><path d="m20.8 57-.3-.2q.4-.1.3.2"/><path d="m18.4 61.7-.2-.3h.1z"/><path d="m21.7 63.3-.2-.3z"/><path d="m16.5 63.5-.2.3z"/><path d="M21.8 63.5q.3 0 .2.3z"/><path d="M16.3 63.8v.3h-.1z"/><path d="m18 64.7.2.3z"/><path d="m20.4 64.9.2.3z"/><path d="m20.6 65.2.2.3z"/><path d="m21.1 66.1-.2-.3z"/><path d="m16.8 66.6-.2-.3h.1z"/><path d="m20.6 70.6.3.2z"/><path d="M21 70.8h.3v.1z"/><path d="M22.4 71.4q.3 0 .2.4z"/><path d="m22.9 57.9.2.2z"/><path d="m21.7 58.4.1.1z"/><path d="m21.3 59.1-.1-.1z"/><path d="m21.5 59.3-.2-.2z"/><path d="m18.4 61.7.2.2z"/><path d="M20.9 62s-.1 0 0 0"/><path d="m21.1 62.4-.1-.1z"/><path d="M21.1 62.4q.2.2 0 0 .2.2 0 0"/><path d="M21.5 62.9q-.1 0 0 0"/><path d="m21.7 63.3.2.2z"/><path d="m18 64.7-.1-.1z"/><path d="m20.5 64.8-.1-.1z"/><path d="m20.8 65.5.2.2z"/><path d="m16.8 66.6.2.2z"/><path d="m22.5 71.8.1.1z"/><path d="m15.1 45.7.6.8.5.8q-.9-.5-1.1-1.6"/><path d="M15.2 42.5q.6.4.8 1.2-.6-.6-.8-1.2"/><path d="M16.5 58.6q-.6-.3-.6-1 .4.4.6 1"/><path d="M18.9 51.7q-.4-.2-.3-.5.3 0 .3.5"/><path d="M15.6 39.5q-.5-.2-.3-.5.3.2.3.5"/><path d="M18.9 51.7q.4.2.4.5-.4-.2-.4-.5"/><path d="M15.1 38.6q-.3-.1-.3-.5.3.2.3.5"/><path d="M17.3 52.9q-.4-.2-.3-.5.3 0 .3.5"/><path d="M17.3 52.9q.4.2.4.5-.4-.2-.4-.5"/><path d="m17.8 57.2-.4-.5h.1q.4.1.3.5"/><path d="M18.4 54.4q-.4-.2-.3-.5.3.2.3.5"/><path d="M17.5 45.9q.4.1.4.5-.4 0-.4-.5"/><path d="m17.1 56.2-.3-.5q.4 0 .3.5"/><path d="m17.5 56.7-.3-.5q.3 0 .3.5"/><path d="m15.2 42.5-.2-.3h.1z"/><path d="m15.2 39-.2-.3z"/><path d="m19.1 49.6-.2-.3h.1z"/><path d="m17.8 50.1-.2-.3z"/><path d="m18.4 50.8.2.3z"/><path d="m16.8 52-.2-.3z"/><path d="m16.8 52 .2.3z"/><path d="m17.8 53.6.2.3z"/><path d="m16.6 58.9-.2-.3z"/><path d="M16.5 43.2h.1v.1z"/><path d="m17.5 45.9-.1-.1z"/><path d="m17.5 49.6-.1-.1z"/><path d="m17.5 49.6.2.2z"/><path d="M19.2 49.6v.2l-.2-.2z"/><path d="m17.8 50.1.1.1z"/><path d="m18.2 50.6-.1-.1z"/><path d="m18.4 50.8-.2-.2z"/><path d="m16.6 51.7-.1-.1z"/><path d="M19.9 51.9s0 .1 0 0q-.1 0 0 0"/><path d="M20.1 52.2v.2l-.1-.1z"/><path d="m17.7 53.4.2.2z"/><path d="m16.8 55.6-.1-.1z"/><path d="m17 57-.1-.1z"/><path d="m16.8 59.1-.2-.2z"/><path d="m15.4 61.9-.1-.1z"/><path d="m15.9 61.9-.2.2z"/><path d="m15.1 37.4-.1-.1z"/><path d="M92.8 32.4q.3-.5.9-.5-.3.4-.9.5"/><path d="M94.5 31.4q-.2.4-.5.3.2-.4.5-.3"/><path d="m93.7 31.9.4-.2z"/><path d="m94.9 31.2-.3.2z"/><path d="m94.9 31.2.1-.1z"/><path d="M77.9 17.8q-.7.4-1.4-.1c.5-.2.9.2 1.4.1"/><path d="M75.9 17.2q.7-.4 1.3.2c-.5.2-.9-.2-1.3-.2"/><path d="m76.8 17-1.1-.2c.5-.2.5-.2 1.1.2"/><path d="M69.9 22.5q0-.5.5-.5-.2.4-.5.5"/><path d="M70.6 25.3h-.2l.2-.3z"/><path d="M69.6 22.7h-.2l.1-.3h.1q-.2.2 0 .3"/><path d="M69.6 23.9v-.3h.1z"/><path d="M70.3 24v-.2h.1z"/><path d="M70.6 24.9v-.3h.1z"/><path d="M78.2 19.3q-.1 0 0 0-.1 0 0 0"/><path d="M79.9 19.4s0 .1 0 0q0 .2 0 0"/><path d="M69.2 22.3s-.1 0 0 0q-.1 0 0 0 0-.2 0 0"/><path d="M69.4 22.7v.2h-.2z"/><path d="M70.3 22.8s0-.1 0 0q.1 0 0 0"/><path d="M68.5 23.2s.1-.1 0 0q.1 0 0 0"/><path d="M68 23.7h-.2l.1-.1z"/><path d="M71.1 24.2s-.1 0 0 0q-.1 0 0 0-.1-.1 0 0 0-.2 0 0"/><path d="M69.6 24.4v-.2z"/><path d="M70.4 24.5s-.1 0 0 0q-.1 0 0 0-.1 0 0 0"/><path d="M71.5 24.6h-.2l.1-.1z"/><path d="M69.8 24.8q0 .2 0 0"/><path d="M69.9 25.5q0-.2 0 0 0-.2 0 0"/><path d="M66.2 35.2q0 1.1-1.5 1.8z"/><path d="m65.7 31.2-.6-1.9.4.3c.1.5.6.9.2 1.6"/><path d="m70.9 35-.2.3-.7.1v-.3l.5-.9.1.6-.2.3h.1v-.3l.4-.3z"/><path d="m66.3 36.1.8-1.5q0 1-.8 1.5"/><path d="m68 35.2.7-1.1q.3.7-.4 1.3z"/><path d="M67.3 32.1c.3-.3 0-.7.2-.9.2.7.2.9-.2 1.7z"/><path d="M69.3 33.7q0 .8-.3 1.4-.2-.4.3-1.4"/><path d="M67.1 32.1q.1.8-.5 1.2l.2-.9z"/><path d="M69.6 34.1q.1.9-.2 1.4h-.2z"/><path d="m66.8 32.4-.5.7v-.5l.5-.7z"/><path d="M67.3 35.7c0-.5.5-.6.7-1v.5z"/><path d="m69.7 35.5.2-1.1h.1v.8z"/><path d="m70.5 31.4-.3-.9q.5.2.3.9"/><path d="m68.8 30.4-.3-.8q.5.2.3.8"/><path d="M69.6 30.1q.4.3 0 .6z"/><path d="M65.9 32v.4h-.1l-.1-.4z"/><path d="M66.3 32.6q-.3-.2 0-.5z"/><path d="M67.1 32.1v-.3h.1z"/><path d="m69.6 30.1-.2-.3h.1z"/><path d="m67.3 35.7-.1.1z"/><path d="m69.7 35.5-.1.1z"/><path d="m64.7 28.8.1.1z"/><path d="m48.4 32.6-.2-.3v-.8l.2-.2q0 .5.4 1v.5z"/><path d="m56.2 27.7-1.3.3q.5-.8 1.3-.3"/><path d="m48.9 26.7.3-.2h.6v.1l-.5.2-.5.2z"/><path d="m50.6 26.9-1.1.4q.5-.6 1-.6z"/><path d="M54.1 27.7v-.2l.9-.2v.2z"/><path d="M50.5 27.3q.3-.4.9-.2-.5.3-.9.2"/><path d="m55.7 28.9-.2.2h-.2l.1-.3z"/><path d="M52.3 31.3v-.2h.1z"/><path d="M51.2 30.6v-.2l.1.1z"/><path d="m51.9 31.9.1-.1z"/><path d="m48.4 31.2.1-.1z"/><path d="M48 30.5s0 .1 0 0q0 .2 0 0-.2 0 0 0"/><path d="M47.5 30.6s-.1 0 0 0q-.1 0 0 0"/><path d="m49.9 30.3.1-.1z"/><path d="M48.7 30.2q0 .2 0 0-.1 0 0 0"/><path d="M55.3 29.1v.2l-.1-.1z"/><path d="M56.4 28.2v.2l-.1-.1z"/><path d="m54.1 27.7-.1.1z"/><path d="M60.9 16.8v-.2h.7c-.2.4-.5.1-.7.2"/><path d="M58.3 18.3q-.4-.3 0-.6z"/><path d="M61.5 22.1v.4h-.1l-.1-.4z"/><path d="M62.7 16h.2v.1z"/><path d="M63.3 15.9h.2l-.1.1z"/><path d="m62.3 16.3-.3-.2z"/><path d="m61.6 16.6.3-.2v.1z"/><path d="m59.7 17 .2.2h-.1z"/><path d="M61.5 21.4v-.2h.1z"/><path d="M61.9 22.1v-.2l.1.1z"/><path d="m64.2 16.3-.1-.1z"/><path d="m62.3 16.3.1.1z"/><path d="M64.2 16.3s.1 0 0 0"/><path d="m57.6 16.4.1.1z"/><path d="m59.7 17-.1-.1z"/><path d="M75.1 24.4q.6-.1 1 .2l.2.2v.2l-.5-.2h-.4z"/><path d="M76.1 24.6c.2-.4.5 0 .7 0l.1.3-.7-.2z"/><path d="M77.2 24.6h.4l.1.3q-.4 0-.5-.3"/><path d="M79.6 24.9q.4 0 .3.4z"/><path d="M77.2 24.4v.2h-.4z"/><path d="M80.3 29.8v-.3h.1z"/><path d="M78.7 29.5v.2h-.1z"/><path d="M80.8 29.3v.2z"/><path d="M79.8 24.4v-.2z"/><path d="M82.4 28.3q-.1 0 0 0-.1 0 0 0-.1 0 0 0-.1 0 0 0"/><path d="M79.6 24.4h.2l-.1.1z"/><path d="M80.6 24.6q-.1-.1 0 0 0-.2 0 0 0-.1 0 0 0-.1 0 0"/><path d="m76.3 24.9.1.1z"/><path d="m79.3 25.1.1.1z"/><path d="m80 25.3.1.1z"/><path d="M76.8 27.4v-.2z"/><path d="m49.1 24.4-.4-.2.8-.1V24l-.6-.1c.7-.3 1.3.1 1.9.2l-1.1.1.4.1.3.1c-.8.1-1.5.5-2.3.1z"/><path d="M48.3 24.9h-1.1c.5-.2.5-.2 1.1 0"/><path d="M51.4 23.4H51v-.1h.4z"/><path d="M51.5 23.9h-.6q.4-.4.6 0"/><path d="M46 25.3h-.4q.1-.4.4 0"/><path d="M50.1 25.3h-.3v-.1z"/><path d="M45.6 25.3v.2l-.3-.1v-.1z"/><path d="M52.5 23.7h-.3v-.1zq0-.1 0 0"/><path d="M51.5 23.9h.3v.1z"/><path d="m53.8 23.9.3.2z"/><path d="M52 22.8q-.1 0 0 0"/><path d="M45.6 23.2V23l.1.1z"/><path d="M52.7 23.1s-.1.1 0 0h-.1z"/><path d="m45.6 23.4-.1-.1.1-.1z"/><path d="m45.6 23.4.1.1z"/><path d="m53.8 23.9-.1-.1z"/><path d="m53.4 24.2-.1-.1z"/><path d="m54.1 24.1.2.2z"/><path d="m53.4 24.9-.1-.1z"/><path d="m52 25.1-.1-.1z"/><path d="m52.7 25.1-.1-.1z"/><path d="M66.8 73.9q-.2.4-.5.4 0-.4.5-.4"/><path d="M68.2 73q-.2.4-.5.4 0-.4.5-.4"/><path d="M68.7 72.7q-.2.4-.5.4 0-.5.5-.4"/><path d="m67.6 73.3-.4.2z"/><path d="m67.1 73.7-.4.2z"/><path d="m67.3 73.5-.2.2z"/><path d="M66.3 74.4h-.2l.2-.2z"/><path d="m67.5 17.1.7.1c.1.5-.4.2-.7.4z"/><path d="m65.2 17.1.2-.2.2.3-.3.6z"/><path d="m68.3 17.5.2-.4.1.1-.2.4z"/><path d="m66.9 17.7.3-.4.1.1-.2.4z"/><path d="m65.9 17.5-.1.3h-.1z"/><path d="M66 21v.2h-.1z"/><path d="M67.2 20.9q0-.1 0 0"/><path d="M65.4 21.6q-.1 0 0 0-.1 0 0 0-.1-.1 0 0-.1-.1 0 0"/><path d="m67 21.6.1-.1z"/><path d="M78.2 34.1v.4h-.1z"/><path d="m76.5 32.9.1.1z"/><path d="M85.3 32.4h.4l-.4.2z"/><path d="m55.4 21.1-.5-.5q.5 0 .5.5"/><path d="m55.8 20.8.2.2v.4q-.5-.4-.2-.6"/><path d="m54.7 20.7.4.4q-.6.1-.4-.4-.1.2 0 0"/><path d="M57.6 25.3h-.2v-.4q.3.1.2.4"/><path d="M56.1 23.1v.2H56z"/><path d="M55.8 23.6h-.2v-.4z"/><path d="M56.7 24.4h-.2v-.3h.1z"/><path d="M56.9 24.8h-.2v-.4q.3 0 .2.4"/><path d="M57.4 24.9h-.2v-.3h.1z"/><path d="m51.7 20.6-.1-.1z"/><path d="m51.9 20.8-.2-.2z"/><path d="m54.6 20.8-.2-.2.1-.1z"/><path d="M51.8 20.8q.2 0 0 0 .1 0 0 0"/><path d="m54.1 21 .1.1z"/><path d="m56 21.3.1.1z"/><path d="M53.4 21.7q0 .2 0 0-.2 0 0 0-.1 0 0 0"/><path d="m54.6 22.5-.1-.1z"/><path d="m54.8 22.7-.2-.2z"/><path d="M54.5 22.9h-.2l.1-.1z"/><path d="m54.8 22.7.2.2z"/><path d="M55.5 23h-.2l.1-.1z"/><path d="M55.5 23.2V23l.2.2z"/><path d="M57 23.8s-.1 0 0 0"/><path d="m27.2 34.7-.1.1z"/><path d="M83.3 19h.5l.3.4q-.5.1-.8-.4"/><path d="m83.4 19.7.3.1v.1z"/><path d="M66.6 27.5h-.2l.1-.1z"/><path d="m63.3 27.5-.1-.1z"/><path d="M66.1 26.8q0 .2 0 0-.1.2 0 0"/><path d="M58.6 32.4v.2h-.5v-.1z"/><path d="m56.2 32.6.3-.2v.1z"/><path d="M57.2 31.4v.2l-.3-.1v-.1z"/><path d="m56 33.6.1-.1z"/><path d="M57.7 33.1q-.1-.1 0 0 0-.1 0 0 0-.1 0 0 0-.1 0 0"/><path d="M55.3 31.7v-.2l.1.1z"/><path d="m56.7 31.2-.1.1z"/><path d="M54.8 30.8q0 .2 0 0 0 .2 0 0"/><path d="m55.7 31.9.1-.1z"/><path d="M79.6 21.5v.4l-.3.1q0-.5.3-.5"/><path d="M77.4 21.6v.2h-.2v-.2z"/><path d="M80.1 21.6h.2l-.1.1z"/><path d="M77.4 21.8h.2l-.1.1z"/><path d="M77.9 21.8h.2l-.1.1z"/><path d="M79.6 21.8h.2l-.1.1z"/><path d="m80.5 22.2-.1.1z"/><path d="m80.8 22.5-.1.1z"/><path d="M62.8 35v-.3l.1.1z"/><path d="M62.3 34.5h-.2l.1-.3h.1z"/><path d="M63.3 33.4v.3h-.1z"/><path d="m63.5 34.8-.1-.1z"/><path d="m62.6 32.9-.1.1z"/><path d="M76.3 29.8v.2z"/><path d="m73.2 27 .1-.1z"/><path d="M60 30h.4q-.3.3-.4 0"/><path d="m59.5 30 .1.1z"/><path d="m59.8 29.8.2.2z"/><path d="M59.3 29.8h.2v.2z"/><path d="M58.8 29.8h.2l-.1.1z"/><path d="M58.1 29.6h.2l-.1.1z"/><path d="M57.2 29.4h.2l-.1.1z"/><path d="M59.5 34.8h.3v.1z"/><path d="M48 26.2h-.3v-.1q.2-.1.3.1"/><path d="m72.1 33.3.1.1z"/><path d="m44.7 28.6.2.2z"/><path d="M44.7 28.2V28h.2v.2z"/><path d="M45.1 27.5h-.2v-.4z"/><path d="M45.1 27.7v-.2l.2.2z"/></svg>