<?xml version="1.0" encoding="utf-8"?>
<!-- Generator: Adobe Illustrator 25.2.3, SVG Export Plug-In . SVG Version: 6.00 Build 0)  -->
<svg version="1.1" id="Design" xmlns="http://www.w3.org/2000/svg" xmlns:xlink="http://www.w3.org/1999/xlink" x="0px" y="0px"
	 viewBox="0 0 126.5 165.7" style="enable-background:new 0 0 126.5 165.7;" xml:space="preserve">
<g>
	<g>
		<g>
			<g>
				<path d="M122,161.5c0,0.3,0.1,0.1,0.1-0.7l-0.1-0.6L122,161.5z"/>
			</g>
			<g>
				<path d="M122.2,156.1c-0.1-0.9-0.2-2-0.3-1.4c0.1,0.9,0.1,1.2,0.2,2.2c0,0.8,0,1.4-0.1,1.3c0,0.3,0,1.2,0.1,1.7
					C122.2,158.8,122.2,157.4,122.2,156.1C122.1,155.8,122.2,156,122.2,156.1z"/>
			</g>
			<g>
				<path d="M122.4,78l0,0.5C122.4,78.3,122.4,78.2,122.4,78z"/>
			</g>
			<g>
				<path d="M122.5,29.5c0,0.4,0,0.5,0,0.5C122.5,29.7,122.5,29.5,122.5,29.5z"/>
			</g>
			<g>
				<path d="M122.6,21.3c0,0.2,0,0.3,0,0.5C122.6,21.6,122.6,21.4,122.6,21.3z"/>
			</g>
			<g>
				<path d="M122.4,78l0-1.3C122.4,76.6,122.4,77.3,122.4,78z"/>
			</g>
			<g>
				<path d="M121.9,145.3c0,0.3,0,0.5,0,0.7C121.9,145.8,121.9,145.6,121.9,145.3C121.9,145.4,121.9,145.4,121.9,145.3z"/>
			</g>
			<g>
				<path d="M122.5,99.3l0,0.4c0,0.1,0,0.2,0.1,0.3L122.5,99.3z"/>
			</g>
			<g>
				<path d="M122.5,115.7c0-0.4-0.1-0.5-0.2-0.6c0,0.2,0.1,0.5,0.1,0.8C122.5,115.9,122.5,115.8,122.5,115.7z"/>
			</g>
			<g>
				<path d="M122.3,141.7l0,0.5C122.3,142,122.3,141.8,122.3,141.7z"/>
			</g>
			<g>
				<path d="M122.5,87.6c0,0,0-0.1,0-0.1C122.6,87.4,122.6,87.5,122.5,87.6z"/>
			</g>
			<g>
				<path d="M103.2,161C103.2,161,103.2,161,103.2,161C103.3,161,103.4,161,103.2,161z"/>
			</g>
			<g>
				<path d="M122.2,161.5l-0.3,0c0,0-0.1,0-0.1,0.1L122.2,161.5z"/>
			</g>
			<g>
				<path d="M122.8,6.1C122.8,6.2,122.8,6.2,122.8,6.1C122.8,6.6,122.8,6.4,122.8,6.1z"/>
			</g>
			<g>
				<path d="M3.7,22.6c0.1-1.6,0.1,2.6,0.2,0.2C3.9,23,3.8,20.7,3.7,22.6z"/>
			</g>
			<g>
				<path d="M121.9,144.9c0-0.2,0-0.4,0-0.7C121.9,144.5,121.9,144.8,121.9,144.9z"/>
			</g>
			<g>
				<path d="M4,22.8L4,22.8l0-0.2C4,22.7,4,22.7,4,22.8z"/>
			</g>
			<g>
				<path d="M89.6,3.4c0.1,0,0.2,0,0.4,0C89.9,3.5,89.8,3.5,89.6,3.4z"/>
			</g>
			<g>
				<path d="M115.5,3.6l-0.6,0C115.1,3.6,115.4,3.6,115.5,3.6z"/>
			</g>
			<g>
				<path d="M76.1,3.6c-0.3,0-0.5,0-0.9,0c0,0,0.1,0,0.1,0C75.4,3.6,75.7,3.6,76.1,3.6z"/>
			</g>
			<g>
				<path d="M62,3.6c0.1,0,0.2,0,0.3,0c0.1,0,0.3,0,0.4,0L62,3.6z"/>
			</g>
			<g>
				<path d="M60.6,161c0.3,0,0.5,0.1,0.6,0.1C61,161,63.1,161,60.6,161z"/>
			</g>
			<g>
				<path d="M121.9,145.3c0-0.1,0-0.2,0-0.4C121.9,145.1,121.9,145.2,121.9,145.3C121.9,145.4,121.9,145.4,121.9,145.3z"/>
			</g>
			<g>
				<path d="M75.5,4.5l-2.2,0C73.9,4.5,74.7,4.5,75.5,4.5z"/>
			</g>
			<g>
				<path d="M4.7,117.1l0,0.5C4.7,117.5,4.7,117.3,4.7,117.1z"/>
			</g>
			<g>
				<path d="M66.7,4.5c-0.4,0-0.8-0.1-1.3-0.1c-0.1,0-0.2,0-0.3,0L66.7,4.5z"/>
			</g>
			<g>
				<path d="M61.2,161.1L61.2,161.1L61.2,161.1z"/>
			</g>
			<g>
				<path d="M75.9,160.8c-2.1,0-1,0.1-1.4,0.2c-2.5,0-1.2-0.1-2-0.2c-1.6,0-2.8,0.2-4,0.2c-0.1,0-0.3,0,0-0.1c-1.7,0.1-5,0-6.9,0.2
					c-0.1,0-0.2,0-0.3,0c0.3,0.1,0.4,0.2,0.3,0.2c-1,0-1.8,0.1-2.1,0c0.6,0,0.6,0,0.9-0.1l-1,0c-0.9-0.1,1.4,0,1.4-0.2
					c-1.9,0-4.2,0.2-5.7,0.1c-0.3-0.1,3.5,0,1.5-0.2l2.3,0.1c-1.8-0.2,1.4,0-0.2-0.2c-3,0-3.4,0.1-6.4,0c-0.7,0.1,0.2,0.1-0.5,0.2
					c-4.3,0.1-3.4-0.3-6.6-0.2c-0.8,0.1-1.1,0.3-3.4,0.2l0.8-0.2c-2.9,0-1.7,0.2-4.8,0.1c0.5-0.1,2.3-0.1,1.9-0.1
					c-2-0.1-1.4,0.1-2.9,0.1l-0.3-0.1c-3.1,0-6.6,0.1-10,0.1c0.2,0,0.8-0.1,0-0.1c-4.4,0.1-9.3,0-13.6-0.1l-1.6,0.1
					c-0.4,0-0.7-0.1-0.3-0.1c-1.6,0-0.1,0.1-0.9,0.1c-0.9,0-1.2-0.1-0.6-0.1c-1.2,0-2.9,0.1-4.7,0.1c0-0.4,0-0.9,0-1.3
					c0-0.6,0-1.1,0-1.7c0-1.1,0-2.1,0.1-2.9l0,0.6c0-2.4-0.2-2.7-0.1-4.9l0,0.4c0.1-5.2-0.1-10.9,0.1-14.8c-0.2-0.7,0.1-5.1-0.2-5.4
					c0.1-2.9,0.2-2.1,0.2-6.3c0-1.1-0.1-1.7-0.2-3l0.1,0l-0.1-1.9l0.1-1l0-1.3c0,0.5-0.1,1.1-0.1,1c0-1,0-2.2,0-3.2
					c0-1,0.1-1.7,0.1-1.7L4.7,109c0.1,0.1,0.1,0.9,0.1,1.5c-0.1-2.5,0.1-0.5,0-2.8c0,0.3-0.1-0.2-0.1-0.2c0.1-1.2,0.1-3.8,0-5.8
					l0.1,0.4c0-3.5,0-7.4,0-11.4c0,1.4-0.2,1.1-0.2-0.1l0.1-0.5c-0.1-0.7,0,1.2-0.2-0.3c0-1.5,0.2-1,0.2-0.1l0-1.8
					c0-0.1,0.1,0.3,0.1,0.4c-0.1-0.7,0.1-3.1,0-4.2l0-0.1c0-4,0-5.8-0.1-9c-0.1-0.1-0.1-1.3-0.2-2.3c0-2.4,0.1-5,0.1-7.8
					c-0.1-2-0.1-0.6-0.2-1.5c0.1-0.1,0.1-3,0.2-1.5c0-3.4,0-4.4-0.1-8.7c0,0.5-0.1,1-0.1,0.7c0-0.8,0-1.8,0.1-1.7l0,0.2
					c-0.2-4.9,0.3-11.2,0.1-15.1l0,0.2l-0.1-4c0-1.8,0.1,1.1,0.1-0.3C4.6,29,4.8,26.5,4.7,23c0.3-2.8,0-9.8,0.2-13.5L4.8,9.7
					c-0.1-1,0-1.2,0.1-1.9c-0.1,0.1-0.1,1-0.1,0.4c0-1.3,0-2.5,0-3.8c3.3,0,6.6,0.1,10,0.1c3.5,0,7,0.1,10.5,0.1
					c3.1,0,1.7-0.4,5.6-0.2l-1.1,0.1c6.2-0.2,12.6,0,18.7-0.1c-0.4,0-0.4,0.1-1,0.1c0.6,0,1.8,0,2.8,0s1.9-0.1,1.9-0.1
					c0.9,0,0.2,0.1,0.8,0.1c1.3,0.1,3.2-0.1,3.9,0c0.1,0-0.4,0-0.6,0c0.8,0,3.9,0,3.1-0.1c2.3,0.1,4.3,0,6.1,0
					c1.2-0.1,3.9,0.1,4.3-0.1c-0.2,0.2,4,0.1,5.4,0.1c-0.5,0.1,1.2,0.1,0.7,0.1c1.6,0,3.1,0,2.9-0.1c3,0.2,6.1-0.2,7.8,0.1
					c4.9-0.1,9.4-0.1,13.7-0.2c-0.2,0.2-4.8,0-4.6,0.2c4.1-0.1,6.5-0.2,10.7-0.2c1.1,0-0.6,0.1-1,0.1c4.1-0.1,8,0,11.7-0.1
					c0,0-0.4,0-0.8,0c0.7,0,1.7,0,1.6-0.1l-0.7,0c-1.2-0.1,2.9-0.3,3-0.3c-0.6,0.1,0.3,0.1,1.1,0.2c0.2,0,0.4,0,0.5,0
					c0.1,0,0.2,0,0.2,0c0.1,0-0.1,0.1-0.2,0.2c0.1,0,0.1,0,0.2,0c0,0.1,0,0.2,0.1,0.1c0,0.1,0,0.2,0,0.3c0,0.1,0,0.2,0,0.2
					c0,0.1,0-0.1-0.1-0.4c0,2.6,0.1,1.7,0.1,4c0,0-0.1-0.5-0.1-0.7c0.1,1.2,0.2,2.4,0.1,4.4c0-0.1-0.1,0.1-0.1-0.5
					c0,3.4,0.2,5.8,0.1,9.6c-0.2-1.1-0.1,1.3-0.2,1.5l0,2l0.1-0.8c0,1.8,0.1,3.3,0.1,4.9l-0.1-1.3l0,3.3L122,29
					c0.1,1.8,0.2-0.2,0.1,2.2c0-0.5,0,1.8-0.1,2.7l0,0c0,0.9,0.1,1.8,0.1,3.1c0,0.3-0.2-0.3-0.2-0.1c0.1,0.9,0,4.1,0.2,5.2
					c0-0.4-0.1-0.4-0.1-0.3l0.1,0.7c0,0.8,0,0.9-0.1,0.8c0,2.5,0.2-0.8,0.1,2.1c0-0.2,0-0.1,0-0.6c0,2.9,0.1,5.7,0,8.4
					c-0.2,0.8,0-2.4-0.2-1.4c0,3.9,0.2,8.1,0.1,11.8l0-0.7c0.2,0.5-0.1,2.8,0,4.7c0-0.5-0.1-0.6-0.1-0.5c0,2.6,0.1,5.3,0.1,9.2
					l-0.1-0.5c0,1.5,0,4-0.1,5.6c0.1,0.5,0,1.4,0.1,0.9c-0.3,5.1,0.2,9.7-0.1,14.2c0-0.5,0-1.3,0-0.9l0.1,3.8
					c0.1-0.3,0.1-0.5,0.1-1.3c0.1,0.5,0.1,1.6,0.1,2.5c-0.1-1.7-0.2,0-0.2,0.8c0-0.1,0.1,0.1,0.1,0.1c-0.2,2,0.2,0.3,0.1,3.1l0-0.1
					c0,1,0.1,2,0.1,3.1c-0.1,0.5-0.1-1.1-0.1-1.2c0,1.5,0.2,3.1,0.1,4.5c0-0.7,0-1.6-0.1-2.3c-0.1,1.5-0.1,1.7-0.1,2.8l0-0.1
					l-0.1,2.6l0-0.7c0.3,1.9,0.1,3.9,0.2,6.6c-0.2-2.5-0.1-0.4-0.2-0.6c0,0.7-0.1,1.7-0.1,1.4c0.1,1.2-0.1,2.1,0.1,3.8
					c0,0.1,0,1.3-0.1,1c0,1.6,0.1-0.4,0.1-0.2c0.1,2.5-0.2,5.8,0,9.4c0.1,3.1,0.2,3.6,0.3,6.5c-0.1,1-0.1-0.8-0.1-0.8
					c-0.1,1.5,0,2.7,0,4.2c0-0.3-0.1,0-0.1,0.5c0,1.2,0.1,0.8,0.1,2.3c0-0.3-0.1-0.6-0.2-1.2c0,1.4,0.1,2.7,0.1,4.2
					c-0.1,0.4-0.1-0.9-0.1-1.4c0,1.6,0.1,4.2,0.2,4.7l0-1c0,0.6-0.1,0.3-0.1-0.1c-0.1-1.4,0-2,0.1-2.1l0,1c0.2-1,0-4.1,0-6.1
					l0.2,0.9l-0.1-2.1c0-0.4,0.1-0.8,0.2,0.3c0.1-1.5-0.1-1.3,0-2.6c0-0.1,0-0.1,0,0.1l-0.1-1.4c0,0.3,0.1-0.2,0.1,0.6
					c0.1-2.6-0.1-4.2,0-5.1l0,0.2c-0.1-3.6-0.1-0.3-0.3-3l0.3-1.8l-0.1-0.4c0-0.4,0-1.1,0.1-1c-0.1-1.4-0.1,0.2-0.1-0.6
					c0.1-1.8-0.1-4.9,0.1-5.3c-0.1-0.6-0.1,1.7-0.1-0.2c0.2-0.5,0-2.2,0.1-3.8c0.1,0.5,0.1,2,0.1,0.4c-0.2-1,0-3.2,0-4.5
					c-0.1-0.1-0.1-3-0.1-5.3c0,0.1,0.1-4.3,0.1-6.4l0,0.1c-0.1-0.4-0.1-2.6-0.2-4.2c0.1,0.1,0.1,0.4,0.2,1.2l0-1.5
					c0-0.4-0.1-0.8-0.1-1.8l0.1,0.4c0-2-0.1-4-0.1-6.6c-0.1-0.1-0.3,2.1-0.4-0.7c0.1-0.1,0.2-0.2,0.2,0.5c0-0.2,0-0.8,0-1.3l0.1,1.1
					c0-1.2-0.1-0.6-0.1-1.6c0.1,0,0.1-0.7,0.1-0.6c0,0.2,0,0.8,0,1.2c0-1.1,0.1-2.3,0.1-2.8c0,0.1-0.1,0-0.1-0.8
					c0-2,0.1-0.7,0.1-1.9c-0.1-0.5,0-1.8-0.1-1.8c0-0.6,0.1-0.7,0.1-0.9c-0.1-1,0-4.8-0.1-3.7l0,0.3c0,0,0-0.1,0-0.2c0,0,0,0,0,0v0
					c-0.1-3.4,0.1-7.1,0-10.4l0,0c0-2,0-4.5-0.1-5.9c0-0.6,0.1-1.4,0.1-1.2c0-1.5-0.1-1.7,0-3.9c0.1,1.5,0.1-0.5,0.1,1.6
					c0-2,0.1-2.5,0-4.6c0.1,0.7,0.1-1.5,0.1-2.5l-0.1,1.4c0-1.1,0-2,0-3l0.1,0.5c0.2-4.1-0.3-7.4,0-10.5c-0.1-1.1-0.1,2.2-0.2,1.3
					c0-1.9,0.2-3.8,0.2-4.4c0.1-2.6-0.2-2.4-0.1-5.1c0,0.3-0.2,0.7-0.2-1.3c0-1.9,0.2-2.3,0.2-1.1c0,0.5,0,0.7,0,0.7
					c0,0.6,0,1.4,0.1,0.7l0-0.2c0-0.9,0-3.5,0.1-2.9c0-1.4-0.1-0.6-0.1,0.4c0.1-2.4,0-3.8,0-6.3c0,0.4-0.1,0.8-0.1,0.4
					c0.1-3.7-0.1-1.6-0.1-4.1c0.1-1.4,0.2,0.5,0.1-2c0-1.5,0.1-0.3,0.2,0.3c-0.1-2.3,0.1-4.2,0.1-5.5l0,1.2c0-0.7,0-1.3,0-1.9
					l-0.1,0.7c0-0.7,0-1.3,0.1-1.3c-0.1-0.7-0.2,0.6-0.2-0.9c0-0.9-0.1-2.8,0.1-3.2c0,2.9,0.1-0.3,0.1,2.2c0-0.5,0-1.1,0-1.8
					c0-0.1,0,0.1,0,0.3c0-0.8,0-1.2,0-1.5c0-0.6,0-0.8-0.1-1.2c-0.3,0-0.6,0-1.1,0.1c-0.3,0-0.7,0-1.4,0c0.4-0.1-0.7-0.1-1.2-0.1
					c1.2,0,0.6,0.1-0.5,0.2c-1.9-0.1-2,0-3,0l1.1,0c-0.4,0.1-1.3,0.1-2.6,0.1c-0.1-0.1,1.2,0,0.7-0.1c-1.4,0.1-3.3-0.1-5.3,0
					c-0.9,0-0.1-0.1-0.9-0.2c-2.3,0.1-2.4-0.1-4.8,0c0.7,0.1,0.8,0.1-0.9,0.2l3.9-0.1l-2.5,0.1c1.2,0,2.5-0.1,3.2,0
					c-1.2,0.1-1.1,0.1-0.5,0.1c-1.6-0.1-3.2,0.1-5.1,0l0.1-0.2c-2.8-0.1-5,0.1-8.6,0.1l1.2,0c-0.5,0.1-2.2,0-3.4,0.1
					c0.1-0.1-0.6-0.1-1.1-0.2c0.1,0.1-2.7,0-3,0.2l-1.6-0.1c-2.9,0-3.4,0.2-6.2,0.2c0.9-0.1-0.4-0.1,1.5-0.2c-0.9,0-1.8,0-1.8,0
					c-0.6-0.1-2.6,0.1-3.5,0c-0.4,0-0.5,0.1-1.6,0.1c-0.1,0,0,0,0,0c0,0-1.7,0.1-0.7,0.1c-2.9-0.3-8.1,0-10.7-0.2
					c-2.1,0-4.5,0-6.4,0.1c0.1,0,0,0,0.4,0c-2.6-0.1-1.6,0.2-4.5,0.1c-1.5-0.1,1.6-0.1,0.6-0.1c-0.4-0.3-3.5,0-5.5-0.1l0.5,0
					c-1.5-0.1-3.7,0.1-6.2,0.1c0,0,0.1,0,0,0c-1.7,0.1-4.9,0.2-7.3,0.2c0.7-0.1,1.1-0.1,0.6-0.2c-1.1,0,0.3,0.2-1.8,0.2
					c-0.7-0.1-2.2-0.1-2.4-0.2l2,0c-1-0.1-2.6,0-3.6,0l0.1-0.1c-3.1,0-3.1,0.2-6.4,0.2l0.3,0c-1.8,0.2-1.5-0.1-3.3,0l-0.5-0.2
					c-1.2,0-4.2,0.2-6.3,0.2c1.2-0.1,3.7-0.2,5.3-0.3c-1.2,0-4,0-4.6,0.1c0.5,0,1.1-0.1,1.5,0C13.3,3.7,11.4,3.8,9,3.8
					c0.1-0.1-0.5-0.1-1.4-0.2c-1,0-2.4,0-3.7,0c0,1.1,0,1.5,0,2.1c0,0.5,0,1-0.1,1.3c0.1,4.2,0,8.2,0,13.1c0.2-1.7,0,1.4,0.3,1.1
					c0,1.1,0,1.6,0,1.7l-0.1,3.4c-0.1,0.8-0.1-1.1-0.1-1c0,2.5-0.1,1-0.2,2.7c0.1-0.3,0.1,0.9,0.1,2.3l0.1-2c0.1,3.5-0.2,3-0.1,6.5
					l-0.1-1.1c0,1.8,0,6.6,0.2,8.3c0,0.3-0.1,0.7-0.1-0.1c0,4.3,0.2,9.5,0.1,12.8l-0.1-0.3c0,0.8,0.1,1.4,0.1,2.4
					c0-0.1-0.1-0.3-0.1,0c0,0.4,0.1,2.1,0.1,3.2l-0.1-0.9c-0.1,4.2,0.2,6.4,0.2,9.9c-0.2,0-0.2,3.3-0.3,4.9l0-0.1
					c0,4.8,0.1,8.2,0.2,12.7c-0.2,2.8-0.1,9.4-0.2,13.9c0-0.7,0.1,0.1,0.2,0.9c0,1.1,0.1,2.9,0,2.7l0-0.4c-0.2,0.8-0.1,3-0.1,4.6
					l0.2,0.3c-0.3,4.4,0.1,11.6-0.2,14c0,1.1,0.1,2.4,0.1,3.4L3.7,126c0,2.9,0,4.4,0,8.1l-0.1-0.7c0,2.1,0.3,2.6,0.3,4.5l-0.2,0.6
					c0,3.6-0.1,7.2,0,10.8c0-0.1-0.1-0.2-0.1-0.7c0,1.7-0.1,6.5,0.1,5.9c-0.2,0,0,3.7,0.1,5.6l-0.1-0.3c0,0.4,0.1,0.8,0.1,1.1
					c0,0.2,0,0.4,0,0.5c0,0.2,0,0.4,0,0.6c0.5,0,1.2,0,2.4-0.1c0.5,0,0.5,0.1-0.2,0.1c1.8,0.1,1.4-0.1,3.6,0l-0.8,0.1
					c1.9,0,1.7,0,2.7-0.1c1.2,0,3.5,0,3.8,0.1c0.2-0.1,1.3-0.1,2.4-0.1c0.1,0-0.3,0.1-0.5,0.1c3.1,0.1,4.6-0.1,6.7,0
					c0,0,0.2,0.1,0.4,0.1c-2.5,0-4.4,0-4.3,0c0,0.1,2,0.1,0.4,0.3c1.6-0.1,4.3-0.2,6.3-0.2c0.1,0,0.2,0,0.3,0l-0.2,0
					c0.4,0,0.8,0,1.2,0c0.6,0,1,0,1.6,0c0.2,0.1,2.3,0,3.3,0.1c-0.1-0.1,1.2-0.1,0-0.2c0.2,0-0.2,0-0.8,0c-0.1,0-0.3,0-0.4,0
					c0,0,0,0,0.1,0c-0.7,0-1.5,0-2.5,0c0.8-0.1,1.6-0.1,2.7,0c0.5-0.1,1.1-0.1,1.4-0.2c1.4,0.2,4,0.2,4.3,0.3c3-0.1,7.1,0,9-0.3
					c0.9,0,1,0.1,1.3,0.1c-0.5,0-1.1,0-1.4,0c1.7-0.1,5.1,0,5.5-0.2c2.2,0.1-1.2,0.1,1.8,0.1l-0.4,0c5.9,0.2,9.5-0.4,16.1-0.1
					c-0.5,0-0.7,0-0.8-0.1c7.4,0.1,15.3-0.1,22.6,0.1c2.1,0,2.3-0.1,3.6-0.1l0.5,0.1l2.2-0.1c3.1-0.1,5.3,0.3,9.2,0.1l-0.5-0.1
					c1.4,0,4.4,0,4.2,0c0.1,0,0.5-0.1,1,0l0,0.1l3.4-0.1c2.7,0-0.4,0.3,3.5,0.3c1.4,0,4.1-0.2,3.6-0.2c-0.6,0-1.5,0-1.5-0.1l1.3,0
					c0.2-0.2,1.3-0.4-2-0.5l-2.3,0.1L117,161l1.9,0c-1.1-0.1-1.8,0-2.5,0c-0.2,0-0.5-0.1-0.9-0.1l-2.2,0.2c-0.3-0.1,1-0.1-0.5-0.2
					c-1,0.1,1,0.2-0.7,0.2c-1.1-0.1-0.8-0.2-2-0.1c-0.2,0,0.1-0.1,0.6-0.1c-1.1,0.1-3,0-3.6,0.1c-1.1-0.1-3.8,0-3.7-0.2
					c-0.4,0-2,0.1-3,0.1c1.9-0.2-3.9,0-3.4-0.2c-1.4,0.2-5.1,0.1-7.6,0.2c0.1,0,0.4,0,0.6,0c-1.4,0-1.8-0.1-2.7-0.1
					c-0.2,0.2-2.4,0.2-3.5,0.3c-1.7-0.2,1-0.2,0.5-0.3c0.1,0.1-3,0.1-2.4,0.2c-1.3-0.1-1.1,0-1.8-0.2c-0.2,0.2-1.2,0-2.3,0.2
					c-1.9-0.1-0.5-0.2-2.6-0.1C74.1,160.9,75.9,160.8,75.9,160.8z M26.3,161.2L26.3,161.2c0.4,0,0.8,0,1,0
					C27.1,161.2,26.8,161.2,26.3,161.2z M22.1,161.2c0.5,0,1.1,0,1.8,0c0.1,0,0,0.1-0.4,0.1C23.7,161.2,22.7,161.2,22.1,161.2z
					 M30.9,162c-0.7,0-0.9,0-1,0c0.3,0,0.7,0,1.2,0c0,0,0.1,0,0.1,0C31.1,161.9,31.1,162,30.9,162z"/>
			</g>
			<g>
				<path d="M32.1,161.8c0.1,0,0.1,0,0.3,0c-0.1,0-0.3,0-0.4,0c-0.1,0-0.2,0-0.2,0C31.9,161.8,32,161.8,32.1,161.8z"/>
			</g>
			<g>
				<path d="M122.4,78.5L122.4,78.5C122.4,78.5,122.4,78.6,122.4,78.5C122.4,78.6,122.4,78.6,122.4,78.5z"/>
			</g>
			<g>
				<polygon points="4.7,121.8 4.7,121.8 4.7,122.2 				"/>
			</g>
			<g>
				<path d="M122,101.5c0,0,0,0.1,0,0.3C122,101.8,122,101.7,122,101.5z"/>
			</g>
			<g>
				<path d="M122,111.4l0,1.4C122,112.2,122,111.8,122,111.4z"/>
			</g>
			<g>
				<path d="M121.9,119.1c0,0.1,0,0.1,0,0.1c0,0,0,0,0,0L121.9,119.1z"/>
			</g>
			<g>
				<path d="M116.1,4.4c-0.1,0-0.2,0-0.3,0C115.1,4.4,115.5,4.4,116.1,4.4z"/>
			</g>
			<g>
				<path d="M122,33.9c0-0.4,0-0.8-0.1-1.2C122,33.3,122,33.8,122,33.9z"/>
			</g>
			<g>
				<path d="M75.7,4.5L75.7,4.5c-0.1,0-0.2,0-0.2,0L75.7,4.5z"/>
			</g>
			<g>
				<path d="M122,31c0,0.6,0,1.2,0,1.7C122,32.2,122,31.6,122,31z"/>
			</g>
			<g>
				<path d="M121.9,152.1l0,0.4c0,0,0,0,0,0L121.9,152.1z"/>
			</g>
			<g>
				<path d="M121.9,152.6l0,0.4C121.9,152.8,121.9,152.6,121.9,152.6z"/>
			</g>
			<g>
				<path d="M121.9,153.8l0-0.9C121.9,153.3,121.9,153.6,121.9,153.8z"/>
			</g>
			<g>
				<path d="M121.9,142l0-0.1C121.9,142,121.9,142,121.9,142z"/>
			</g>
			<g>
				<path d="M121.9,139c0,0.7-0.1,1.8-0.1,2.9l0,0.1C121.8,141.4,122,139.7,121.9,139z"/>
			</g>
			<g>
				<path d="M122.4,126.2l0,2.6c0-0.4,0.1-1,0.1,0.1C122.6,125.6,122.4,129.5,122.4,126.2z"/>
			</g>
			<g>
				<path d="M122.5,118.2C122.5,119.6,122.5,118.2,122.5,118.2C122.5,117.4,122.5,117.2,122.5,118.2z"/>
			</g>
			<g>
				<path d="M122.5,60.6l0.1,0.1C122.6,59.6,122.5,60.7,122.5,60.6z"/>
			</g>
			<g>
				<polygon points="121.9,49.5 121.9,50.6 122,51.1 				"/>
			</g>
			<g>
				<polygon points="122.7,43 122.7,43.5 122.7,41.7 				"/>
			</g>
			<g>
				<path d="M64.5,3.5l0.3,0.1C65.6,3.6,65.7,3.5,64.5,3.5z"/>
			</g>
			<g>
				<path d="M22.8,3.6c-0.5-0.1-1.6-0.1-2.4,0C21.3,3.6,22.3,3.6,22.8,3.6z"/>
			</g>
			<g>
				<polygon points="3.7,110.7 3.7,109.9 3.7,111.5 				"/>
			</g>
		</g>
		<g>
			<g>
				<path d="M124.9,164.2c0,0.3,0.1,0.1,0.1-0.7l-0.1-0.6L124.9,164.2z"/>
			</g>
			<g>
				<path d="M125.2,158.6c-0.1-1-0.2-2.1-0.3-1.5c0.1,1,0.1,1.2,0.2,2.2c0,0.8,0,1.5-0.1,1.3c0,0.3,0,1.3,0.1,1.7
					C125.2,161.4,125.2,160,125.2,158.6C125.1,158.3,125.2,158.6,125.2,158.6z"/>
			</g>
			<g>
				<path d="M125.4,77.2l0,0.5C125.4,77.6,125.4,77.4,125.4,77.2z"/>
			</g>
			<g>
				<path d="M125.5,26.8c0,0.4,0,0.5,0,0.6C125.5,27,125.5,26.7,125.5,26.8z"/>
			</g>
			<g>
				<path d="M125.6,18.2c0,0.2,0,0.3,0,0.5C125.6,18.5,125.6,18.3,125.6,18.2z"/>
			</g>
			<g>
				<path d="M125.4,77.2l0-1.3C125.4,75.8,125.4,76.6,125.4,77.2z"/>
			</g>
			<g>
				<path d="M124.9,147.4c0,0.3,0,0.5,0,0.7C124.9,147.9,124.9,147.7,124.9,147.4C124.9,147.4,124.9,147.4,124.9,147.4z"/>
			</g>
			<g>
				<path d="M125.5,99.5l0,0.4c0,0.1,0,0.2,0.1,0.3L125.5,99.5z"/>
			</g>
			<g>
				<path d="M125.5,116.5c0-0.4-0.1-0.5-0.2-0.7c0,0.2,0.1,0.5,0.1,0.8C125.5,116.7,125.5,116.7,125.5,116.5z"/>
			</g>
			<g>
				<path d="M125.3,143.6l0,0.5C125.3,143.9,125.3,143.7,125.3,143.6z"/>
			</g>
			<g>
				<path d="M125.5,87.2c0,0,0-0.1,0-0.2C125.6,87.1,125.6,87.2,125.5,87.2z"/>
			</g>
			<g>
				<path d="M105.4,163.7C105.4,163.7,105.4,163.7,105.4,163.7C105.5,163.7,105.6,163.7,105.4,163.7z"/>
			</g>
			<g>
				<path d="M125.2,164.3l-0.3,0c0,0-0.1,0-0.1,0.1L125.2,164.3z"/>
			</g>
			<g>
				<path d="M125.8,2.4C125.8,2.4,125.8,2.5,125.8,2.4C125.8,2.9,125.8,2.7,125.8,2.4z"/>
			</g>
			<g>
				<path d="M0.7,20.7C0.8,19,0.9,23.3,1,20.9C0.9,21.1,0.8,18.6,0.7,20.7z"/>
			</g>
			<g>
				<path d="M124.9,147c0-0.2,0-0.5,0-0.7C124.9,146.6,124.9,146.8,124.9,147z"/>
			</g>
			<g>
				<path d="M1,20.9L1,20.9l0-0.3C1,20.7,1,20.8,1,20.9z"/>
			</g>
			<g>
				<path d="M90.1,0.7c0.1,0,0.2,0,0.4,0.1C90.5,0.7,90.4,0.7,90.1,0.7z"/>
			</g>
			<g>
				<path d="M117.2,0.8l-0.7,0C116.8,0.8,117,0.8,117.2,0.8z"/>
			</g>
			<g>
				<path d="M76.1,0.8c-0.4,0-0.5,0-1,0c0,0,0.1,0,0.2,0C75.4,0.8,75.7,0.8,76.1,0.8z"/>
			</g>
			<g>
				<path d="M61.5,0.8c0.1,0,0.2,0,0.3,0c0.1,0,0.3,0,0.5,0L61.5,0.8z"/>
			</g>
			<g>
				<path d="M61,163.7c0.3,0,0.5,0.1,0.7,0.1C61.4,163.8,63.6,163.7,61,163.7z"/>
			</g>
			<g>
				<path d="M124.9,147.4c0-0.1,0-0.2-0.1-0.4C124.9,147.1,124.9,147.3,124.9,147.4C124.9,147.5,124.9,147.5,124.9,147.4z"/>
			</g>
			<g>
				<path d="M75.5,1.8l-2.3,0C73.8,1.8,74.7,1.8,75.5,1.8z"/>
			</g>
			<g>
				<path d="M1.7,119.1l0,0.5C1.7,119.4,1.7,119.3,1.7,119.1z"/>
			</g>
			<g>
				<path d="M66.3,1.8c-0.4,0-0.9-0.1-1.3-0.1c-0.1,0-0.2,0-0.3,0L66.3,1.8z"/>
			</g>
			<g>
				<path d="M61.7,163.8C61.7,163.8,61.7,163.8,61.7,163.8C61.7,163.8,61.7,163.8,61.7,163.8z"/>
			</g>
			<g>
				<path d="M77,163.6c-2.2,0-1,0.2-1.5,0.2c-2.6,0-1.2-0.1-2.1-0.2c-1.6,0-2.9,0.2-4.1,0.2c-0.1,0-0.3,0-0.1-0.1
					c-1.7,0.1-5.2,0-7.2,0.2c-0.2,0-0.2,0-0.3,0c0.3,0.1,0.4,0.2,0.3,0.2c-1,0-1.8,0.1-2.2,0c0.6,0,0.7,0,0.9-0.1l-1,0
					c-0.9-0.1,1.4-0.1,1.4-0.2c-2,0-4.4,0.2-5.9,0.1c-0.3-0.1,3.6,0,1.6-0.2l2.4,0.1c-1.8-0.2,1.5,0-0.2-0.2c-3.2,0-3.5,0.1-6.7,0
					c-0.7,0.1,0.2,0.1-0.5,0.2c-4.5,0.1-3.5-0.4-6.8-0.2c-0.9,0.1-1.2,0.3-3.5,0.2l0.8-0.2c-3.1,0-1.7,0.2-5,0.1
					c0.6-0.1,2.4-0.1,1.9-0.1c-2.1-0.1-1.5,0.1-3.1,0.1l-0.3-0.1c-3.3,0-6.9,0.1-10.5,0.2c0.2,0,0.8-0.1,0-0.1
					c-4.6,0.1-9.7,0-14.1-0.1l-1.7,0.1c-0.4,0-0.7-0.1-0.3-0.1c-1.7,0-0.1,0.1-0.9,0.1c-1,0-1.3-0.1-0.7-0.1c-0.8,0-1.8,0.1-2.9,0.1
					c-1,0-2,0-3.1,0.1c0-0.9,0-1.7,0-2.5c0-0.9,0-1.8,0.1-2.5l0,0.6c0.1-2.5-0.3-2.8-0.1-5.1l0,0.4c0.1-5.4-0.1-11.3,0.1-15.4
					c-0.2-0.8,0.1-5.3-0.2-5.7c0.1-3.1,0.2-2.2,0.3-6.5c0-1.2-0.2-1.7-0.2-3.2l0.1,0L1.6,122l0.2-1l0-1.3c0,0.5-0.1,1.1-0.1,1.1
					c0-1,0-2.3,0-3.3c0-1,0.1-1.8,0.1-1.8l-0.1-5c0.1,0.1,0.1,0.9,0.1,1.6c-0.1-2.6,0.1-0.5,0-2.9c0,0.3-0.1-0.2-0.1-0.2
					c0.1-1.2,0.1-4,0-6l0.1,0.4c0-3.7,0-7.7,0-11.9c0,1.5-0.2,1.1-0.2-0.1L1.7,91c-0.1-0.8-0.1,1.3-0.2-0.3c0-1.5,0.2-1,0.2-0.2
					l0-1.9c0-0.1,0.1,0.3,0.1,0.4c-0.1-0.8,0.1-3.2,0-4.3l0-0.1c0-4.1,0-6-0.1-9.3C1.7,75.3,1.7,74,1.6,73c0-2.5,0.1-5.2,0.1-8.2
					c-0.1-2.1-0.1-0.6-0.2-1.5c0.1-0.2,0.1-3.1,0.2-1.6c0-3.6,0-4.6-0.1-9.1c0,0.5-0.1,1-0.1,0.8c0-0.8,0-1.9,0.1-1.7l0,0.2
					C1.5,46.7,2,40.1,1.7,36.1l0,0.2l-0.1-4.2c0-1.9,0.1,1.2,0.1-0.3c-0.2-4.5,0-7.1-0.1-10.8c0.3-2.9,0-10.2,0.2-14.1L1.8,7.2
					c-0.1-1,0-1.2,0.1-2C1.8,5.3,1.8,6.3,1.7,5.7c0-1.3,0-2.6,0-4c3.4,0,6.9,0.1,10.4,0.1c3.6,0,7.3,0.1,10.9,0.1
					c3.2,0,1.8-0.4,5.8-0.2l-1.1,0.1c6.4-0.2,13.1,0,19.4-0.1c-0.4,0-0.4,0.1-1,0.1c0.7,0.1,1.9,0.1,3,0c1.1,0,2-0.1,2-0.1
					c1,0,0.2,0.1,0.8,0.1c1.3,0.1,3.3-0.1,4.1,0c0.1,0-0.4,0-0.6,0c0.9,0,4,0,3.2-0.1c2.4,0.1,4.5-0.1,6.4,0c1.2-0.1,4,0.1,4.4-0.1
					c-0.2,0.2,4.1,0.2,5.6,0.1c-0.5,0.1,1.3,0.1,0.7,0.1c1.7,0,3.3,0,3-0.1c3.1,0.2,6.3-0.2,8.1,0.1c5.1-0.1,9.8-0.2,14.3-0.2
					c-0.2,0.2-5,0-4.8,0.2c4.3-0.1,6.8-0.2,11.1-0.2c1.1,0-0.6,0.1-1,0.1c4.3-0.1,8.3,0,12.2-0.1c0,0-0.4,0-0.8,0.1
					c0.8,0,1.8,0,1.7-0.1l-0.7,0c-1.2-0.1,3-0.3,3.1-0.3c-1.3,0.2,3.8,0.1,1.8,0.4c0.5,0,1.1-0.1,1-0.1c0.2,0,0.3,0,0.3,0
					c0,0,0,0,0,0c0,0-0.1,0-0.2,0.1c0.1,0,0.1,0,0.1,0c0,0.1,0,0.2,0,0.2c0,0.2,0,0.4,0,0.5c0,0.3,0,0.5,0,0.7c0,0.4,0,0.8,0,1.9
					c0,0-0.1-0.5-0.1-0.8c0.1,1.2,0.2,2.5,0.1,4.6c0-0.1-0.1,0.1-0.1-0.5c0,3.6,0.2,6.1,0.1,10c-0.2-1.2-0.1,1.3-0.2,1.5l0,2.1
					l0.1-0.8c0,1.8,0.1,3.5,0.1,5.1l-0.1-1.4l0,3.5l0.1-2c0.1,1.9,0.2-0.2,0.2,2.3c0-0.5,0,1.8-0.1,2.8l0,0c0.1,0.9,0.1,1.8,0.1,3.2
					c-0.1,0.4-0.2-0.3-0.2-0.1c0.1,0.9,0,4.3,0.2,5.5c0-0.4-0.1-0.4-0.1-0.3l0.1,0.8c0,0.9-0.1,1-0.1,0.8c0,2.6,0.2-0.8,0.1,2.2
					c0-0.2,0-0.1,0-0.6c0,3.1,0.1,5.9,0,8.7c-0.2,0.8,0-2.5-0.2-1.5c0,4.1,0.2,8.4,0.2,12.3l0-0.7c0.2,0.5-0.1,2.9,0,4.9
					c0-0.5-0.1-0.6-0.1-0.5c0,2.7,0.1,5.5,0.1,9.6l-0.1-0.5c-0.1,1.6,0,4.2-0.1,5.9c0.1,0.5,0,1.5,0.1,0.9
					c-0.3,5.3,0.2,10.1-0.1,14.7c0-0.6-0.1-1.3-0.1-0.9l0.1,4c0.1-0.3,0.1-0.5,0.1-1.4c0.1,0.5,0.1,1.6,0.1,2.6
					c-0.1-1.8-0.2,0-0.2,0.8c0-0.1,0.1,0.1,0.1,0.1c-0.2,2.1,0.2,0.3,0.1,3.2l-0.1-0.2c0,1.1,0.1,2,0.1,3.2
					c-0.1,0.5-0.1-1.1-0.1-1.2c0,1.6,0.2,3.2,0.1,4.6c0-0.7,0-1.7-0.1-2.4c-0.1,1.6-0.1,1.8-0.1,3l0-0.1l-0.1,2.7l0-0.7
					c0.3,2,0.1,4.1,0.2,6.8c-0.2-2.6-0.1-0.4-0.2-0.6c0,0.7-0.1,1.7-0.1,1.4c0.1,1.3-0.1,2.1,0.1,4c0,0.1,0,1.4-0.1,1.1
					c0,1.7,0.1-0.4,0.1-0.3c0.1,2.6-0.2,6,0,9.8c0.1,3.2,0.2,3.8,0.3,6.7c-0.1,1-0.2-0.8-0.2-0.8c-0.1,1.6,0,2.8,0,4.3
					c0-0.3-0.1,0-0.1,0.5c0,1.2,0.2,0.8,0.1,2.4c0-0.3-0.1-0.6-0.2-1.2c0.1,1.4,0.1,2.9,0.2,4.3c-0.1,0.4-0.1-0.9-0.2-1.4
					c0,1.7,0.1,4.3,0.2,4.8l0-1.1c0,0.6-0.1,0.3-0.1-0.1c-0.1-1.4,0-2.1,0.1-2.1l0,1.1c0.2-1.1,0-4.3,0-6.4l0.2,0.9l-0.1-2.2
					c0-0.5,0.1-0.8,0.2,0.3c0.1-1.5-0.1-1.4,0-2.7c0-0.1,0-0.1,0,0.1l-0.1-1.5c0,0.3,0.1-0.2,0.1,0.7c0.1-2.7-0.1-4.3,0-5.3l0,0.2
					c-0.1-3.7-0.1-0.4-0.3-3.2l0.3-1.9l-0.1-0.4c0-0.4,0-1.1,0.1-1c-0.1-1.4-0.1,0.2-0.1-0.6c0.1-1.8-0.1-5.1,0.2-5.5
					c-0.1-0.7-0.1,1.8-0.1-0.2c0.2-0.6,0-2.3,0.1-4c0.1,0.5,0.1,2.1,0.2,0.4c-0.2-1,0-3.3,0-4.7c-0.2-0.1-0.1-3.1-0.1-5.5
					c0.1,0.2,0.1-4.5,0.1-6.7l0,0.1c-0.2-0.4-0.1-2.7-0.2-4.4c0.1,0.1,0.1,0.4,0.2,1.3l0-1.6c0-0.4-0.1-0.9-0.1-1.9l0.1,0.4
					c0-2.1-0.1-4.2-0.1-6.9c-0.1-0.2-0.3,2.1-0.4-0.7c0.1-0.1,0.2-0.2,0.2,0.5c0-0.2,0-0.9,0-1.4l0.1,1.1c0-1.2-0.1-0.6-0.1-1.6
					c0.1,0,0.1-0.7,0.1-0.6c0,0.2,0,0.9,0,1.2c0-1.1,0.1-2.4,0.1-2.9c0,0.1-0.1,0-0.1-0.8c0-2.1,0.1-0.7,0.1-1.9
					c-0.1-0.5,0-1.8-0.1-1.9c0-0.6,0.1-0.7,0.1-1c-0.1-1.1,0-5-0.1-3.8l0,0.3c0-0.1,0-0.1,0-0.2c0,0,0,0,0,0v0
					c-0.1-3.5,0.1-7.4,0-10.9l0,0c0-2.1,0-4.7-0.1-6.2c0-0.6,0.1-1.5,0.1-1.2c0-1.6-0.1-1.8,0-4.1c0.1,1.6,0.1-0.6,0.1,1.7
					c0-2.1,0.1-2.6,0-4.8c0.1,0.8,0.1-1.6,0.1-2.6l-0.1,1.5c0-1.1,0-2.1,0-3.1l0.1,0.5c0.2-4.3-0.3-7.7,0-10.9
					c-0.1-1.1-0.1,2.3-0.2,1.3c0-2,0.2-4,0.2-4.6c0.1-2.7-0.2-2.5-0.2-5.3c-0.1,0.4-0.2,0.7-0.2-1.4c0-2,0.2-2.4,0.3-1.2
					c0,0.5,0,0.7,0,0.7c0,0.6,0,1.5,0.1,0.7l-0.1-0.3c0.1-1,0-3.7,0.1-3c0-1.5-0.1-0.6-0.1,0.5c0.1-2.5,0-3.9,0.1-6.5
					c0,0.4-0.1,0.8-0.1,0.4c0.1-3.8-0.1-1.7-0.1-4.3c0.1-1.5,0.2,0.5,0.1-2.1c0.1-1.6,0.1-0.3,0.2,0.3c-0.1-2.4,0.1-4.4,0.1-5.8
					l0,1.2c0-0.7,0-1.4,0-2l-0.1,0.7c0-0.7,0-1.3,0.1-1.3c-0.1-0.8-0.2,0.6-0.3-0.9c0-0.5,0-1.2,0-1.9c0-0.3,0-0.6,0-0.9
					c0-0.1,0-0.2,0-0.3c0-0.1,0-0.2,0-0.3c0,0.4,0,0.7,0,1c0,0.2,0,0.3,0,0.4c0,0.2,0,0.1,0.1,0c0-0.1,0.1-0.3,0.1,1
					c0-0.5,0-1.1,0-1.8c0-0.1,0,0.1,0,0.3c0-0.4,0-1.4,0-1.8c-0.6,0-1,0-1.3,0c-0.2,0-0.3,0-0.5,0.1c-0.3,0-0.8,0.1-2,0.1
					c0.4-0.1-0.7-0.1-1.2-0.1c1.2,0,0.6,0.1-0.5,0.2c-1.9-0.1-2.1,0-3.1,0l1.2,0C117.9,1,117,0.9,115.6,1c-0.1-0.1,1.2,0,0.7-0.1
					c-1.5,0.1-3.4-0.1-5.5,0c-1-0.1-0.1-0.1-0.9-0.2c-2.4,0.1-2.6-0.1-5,0c0.7,0.1,0.8,0.1-0.9,0.2l4.1-0.1l-2.6,0.1
					c1.2,0,2.6-0.1,3.3,0c-1.2,0.1-1.1,0.1-0.5,0.1c-1.7-0.2-3.3,0.1-5.3,0l0.1-0.2c-2.9-0.1-5.2,0.1-9,0.1l1.2,0
					c-0.5,0.1-2.3,0-3.6,0.1c0.1-0.1-0.7-0.1-1.2-0.2c0.1,0.1-2.8,0-3.1,0.2l-1.7-0.1c-3.1,0-3.5,0.2-6.4,0.2
					c0.9-0.1-0.5-0.2,1.5-0.2c-1,0-1.9,0-1.9,0c-0.6-0.1-2.7,0.1-3.6,0c-0.4,0-0.6,0.1-1.7,0.1c-0.1,0,0,0,0,0c0,0-1.7,0.1-0.8,0.1
					c-3-0.3-8.5,0-11.1-0.2c-2.1,0-4.7,0-6.7,0.1c0.1,0,0,0,0.4,0c-2.7-0.1-1.7,0.2-4.7,0.2c-1.6-0.1,1.6-0.1,0.7-0.1
					c-0.4-0.3-3.7,0-5.7-0.1l0.5,0c-1.6-0.1-3.8,0.1-6.4,0.1c0,0,0.1,0,0,0C38,1,34.6,1,32.2,1.1C32.9,1,33.3,1,32.8,0.9
					c-1.1,0,0.3,0.2-1.9,0.2C30.2,1,28.6,1,28.4,0.9l2.1,0c-1.1-0.2-2.7,0-3.8,0l0.1-0.1c-3.2,0-3.2,0.2-6.7,0.2L20.5,1
					c-1.9,0.2-1.6-0.1-3.4,0l-0.6-0.2c-1.2,0-4.3,0.2-6.6,0.2c1.3-0.1,3.9-0.2,5.5-0.3c-1.2,0-4.2,0-4.8,0.1c0.5,0,1.1-0.1,1.6,0
					C10.7,1,8.7,1.1,6.2,1.1c0.1-0.1-0.5-0.2-1.5-0.2c-1.1,0-2.5,0-3.9,0c0,1.1,0,1.6,0,2.2c0,0.5,0,1-0.1,1.3
					c0.1,4.3-0.1,8.6,0,13.6c0.3-1.8,0,1.5,0.3,1.2c0,1.2,0,1.6,0,1.7l-0.2,3.6c-0.1,0.8-0.1-1.1-0.1-1c0,2.6-0.1,1.1-0.2,2.8
					c0.1-0.3,0.1,0.9,0.1,2.4l0.1-2.1c0.1,3.6-0.2,3.1-0.1,6.7l-0.1-1.1c0,1.9,0,6.9,0.2,8.7c0,0.3-0.1,0.8-0.1-0.1
					c0,4.4,0.2,9.9,0.1,13.3l-0.1-0.3c0,0.8,0.1,1.4,0.1,2.5c0-0.1-0.1-0.3-0.1,0c0,0.4,0.1,2.2,0.1,3.3l-0.1-0.9
					C0.6,63,0.9,65.3,0.9,68.9c-0.2,0-0.2,3.4-0.3,5.1l0-0.1c0,5,0.2,8.6,0.2,13.3c-0.2,2.9-0.1,9.8-0.2,14.5c0-0.7,0.1,0.1,0.2,0.9
					c0,1.1,0.1,3,0,2.9l0-0.4c-0.2,0.8-0.1,3.1-0.1,4.8l0.2,0.3c-0.3,4.6,0.1,12-0.2,14.5c0,1.1,0.1,2.5,0.1,3.6l-0.1-0.1
					c0,3.1,0,4.6,0,8.4l-0.1-0.8c0,2.1,0.3,2.7,0.4,4.7l-0.2,0.6c0,3.7-0.2,7.5,0,11.2c0-0.1-0.1-0.2-0.1-0.8c0,1.8-0.1,6.8,0.1,6.2
					c-0.1,0-0.1,1-0.1,2.2c0,1.2,0.1,2.7,0.1,3.7c0-0.2-0.1-0.3-0.1-0.4c0,0.5,0.1,0.9,0.1,1.3c0.6,0,1.1-0.1,1.7-0.1
					c0.5,0,1,0,2-0.1c0.6,0,0.5,0.1-0.3,0.1c1.9,0.1,1.5-0.1,3.7,0l-0.8,0.1c1.9,0,1.8,0,2.8-0.1c1.2,0,3.7,0,4,0.1
					c0.3-0.1,1.3-0.2,2.5-0.1c0.2,0-0.3,0.1-0.5,0.1c3.2,0.1,4.8-0.1,7,0c0,0,0.2,0.1,0.4,0.1c-2.6,0-4.6,0-4.4,0
					c0,0.1,2.1,0.1,0.4,0.3c1.7-0.1,4.5-0.3,6.5-0.2c0.1,0,0.2,0,0.3,0l-0.2,0c0.5,0,0.9,0,1.3,0c0.6,0,1.1,0,1.7,0
					c0.2,0.1,2.4,0,3.4,0.1c-0.1-0.1,1.3-0.1,0-0.2c0.2,0-0.2,0-0.9,0c-0.2,0-0.3,0-0.4,0c0,0,0,0,0.1,0c-0.7,0-1.6,0-2.6,0
					c0.8-0.1,1.7-0.1,2.8,0c0.5-0.1,1.1-0.1,1.4-0.2c1.4,0.2,4.1,0.3,4.5,0.4c3.2-0.1,7.4,0,9.4-0.3c0.9,0,1,0.1,1.4,0.1
					c-0.5,0-1.1,0-1.4,0.1c1.8-0.1,5.3,0,5.7-0.2c2.3,0.1-1.3,0.1,1.8,0.1l-0.4,0c6.1,0.2,9.9-0.4,16.7-0.1c-0.5,0-0.7,0-0.8-0.1
					c7.7,0.1,15.9-0.1,23.6,0.1c2.2,0,2.4-0.1,3.7-0.1l0.5,0.1l2.3-0.1c3.2-0.1,5.6,0.3,9.6,0.1l-0.5-0.1c1.5,0,4.6-0.1,4.4,0
					c0.1,0,0.5-0.1,1,0l0,0.1l3.6-0.1c2.8,0-0.4,0.3,3.6,0.3c1.5,0,4.3-0.2,3.7-0.2c-0.6,0-1.6,0-1.6-0.1l1.4,0
					c0.2-0.2,1.3-0.4-2.1-0.5l-2.4,0.1l-0.8-0.1l2,0c-1.1-0.1-1.8,0-2.6,0c-0.2-0.1-0.5-0.1-1-0.1l-2.3,0.2c-0.3-0.1,1-0.2-0.5-0.2
					c-1.1,0.1,1,0.2-0.8,0.2c-1.1-0.1-0.8-0.2-2.1-0.1c-0.2-0.1,0.1-0.1,0.6-0.1c-1.2,0.1-3.1,0-3.7,0.1c-1.2-0.1-4,0-3.9-0.2
					c-0.4,0-2.1,0.1-3.2,0.2c2-0.2-4.1,0-3.5-0.3c-1.5,0.2-5.3,0.1-7.9,0.2c0.1,0,0.4,0,0.7,0c-1.5,0-1.9-0.1-2.8-0.1
					c-0.2,0.2-2.5,0.2-3.7,0.3c-1.8-0.2,1.1-0.2,0.5-0.3c0.1,0.1-3.1,0.1-2.5,0.2c-1.4-0.1-1.2,0-1.9-0.2c-0.2,0.2-1.3,0-2.4,0.2
					c-2-0.1-0.5-0.2-2.7-0.1C75,163.6,77,163.6,77,163.6z M25.3,163.9L25.3,163.9c0.4,0,0.8,0,1.1,0
					C26.1,163.9,25.8,163.9,25.3,163.9z M20.9,163.9c0.5,0,1.2,0,1.9,0c0.2,0,0,0.1-0.4,0.1C22.6,164,21.6,164,20.9,163.9z
					 M30.1,164.7c-0.7,0-0.9,0-1,0c0.3,0,0.7,0,1.2,0c0,0,0.1,0,0.1,0C30.3,164.7,30.3,164.7,30.1,164.7z"/>
			</g>
			<g>
				<path d="M31.4,164.6c0.1,0,0.2,0,0.3,0c-0.1,0-0.3,0-0.4,0c-0.1,0-0.2,0-0.2,0C31.1,164.6,31.2,164.6,31.4,164.6z"/>
			</g>
			<g>
				<path d="M125.4,77.8L125.4,77.8c0,0,0,0.1,0,0.1C125.4,77.9,125.4,77.9,125.4,77.8z"/>
			</g>
			<g>
				<polygon points="1.8,124 1.7,124 1.8,124.3 				"/>
			</g>
			<g>
				<path d="M125,101.8c0,0,0,0.1,0,0.3C125,102.1,125,101.9,125,101.8z"/>
			</g>
			<g>
				<path d="M125,112.1l0,1.5C124.9,112.9,124.9,112.5,125,112.1z"/>
			</g>
			<g>
				<path d="M124.9,120c0,0.1,0,0.1,0.1,0.2l0,0L124.9,120z"/>
			</g>
			<g>
				<path d="M117.7,1.6c-0.1,0-0.2,0-0.3,0C116.7,1.7,117.2,1.7,117.7,1.6z"/>
			</g>
			<g>
				<path d="M125,31.3c0-0.4,0-0.8-0.1-1.2C125,30.8,125,31.3,125,31.3z"/>
			</g>
			<g>
				<path d="M75.7,1.8L75.7,1.8c-0.1,0-0.2,0-0.3,0L75.7,1.8z"/>
			</g>
			<g>
				<path d="M125,28.3c0,0.7,0,1.2,0,1.7C125,29.5,125,28.9,125,28.3z"/>
			</g>
			<g>
				<path d="M124.8,154.5l0,0.4c0,0,0,0,0,0L124.8,154.5z"/>
			</g>
			<g>
				<path d="M124.9,154.9l0,0.4C124.9,155.2,124.9,155,124.9,154.9z"/>
			</g>
			<g>
				<path d="M124.9,156.2l0-0.9C124.9,155.7,124.9,156,124.9,156.2z"/>
			</g>
			<g>
				<path d="M124.9,144l0-0.1C124.9,143.9,124.9,144,124.9,144z"/>
			</g>
			<g>
				<path d="M124.9,140.8c0,0.8-0.1,1.9-0.1,3l0,0.1C124.8,143.4,125,141.5,124.9,140.8z"/>
			</g>
			<g>
				<path d="M125.4,127.4l0,2.7c0-0.5,0.1-1.1,0.1,0.1C125.6,126.9,125.4,130.9,125.4,127.4z"/>
			</g>
			<g>
				<path d="M125.5,119.1C125.5,120.6,125.5,119.1,125.5,119.1C125.5,118.3,125.5,118.1,125.5,119.1z"/>
			</g>
			<g>
				<path d="M125.5,59.1l0.1,0.1C125.6,58.1,125.5,59.2,125.5,59.1z"/>
			</g>
			<g>
				<polygon points="124.9,47.6 124.9,48.7 125,49.2 				"/>
			</g>
			<g>
				<polygon points="125.7,40.8 125.7,41.3 125.7,39.5 				"/>
			</g>
			<g>
				<path d="M64.1,0.7l0.3,0.1C65.1,0.9,65.3,0.7,64.1,0.7z"/>
			</g>
			<g>
				<path d="M20.5,0.9c-0.5-0.1-1.7-0.1-2.5,0C19.1,0.8,20,0.9,20.5,0.9z"/>
			</g>
			<g>
				<polygon points="0.7,112.4 0.7,111.5 0.7,113.2 				"/>
			</g>
		</g>
	</g>
	<g>
		<g>
			<path d="M50.9,89c-1.4,0.4-2.8,0.8-4.2,1.2c-0.2,0-0.4,0-0.6,0c-2,0.1-4,0.5-5.9,0.4c-8.3-0.4-14.5-4.6-19-11.4
				c-0.9-1.3-1.5-2.9-2.2-4.3c-0.4-1.4-0.8-2.8-1.2-4.2c0-0.2,0-0.4,0-0.5C16.9,66,17.3,62,18.5,58c3.9-12.8,16.9-25.5,31.3-27.5
				c0.3,0,0.7-0.3,0.9-0.6c2.4-3.4,5.7-5.9,9.3-7.8c0.6-0.3,1.3-0.6,2-0.9c1.3-0.4,2.6-0.7,3.9-1.1c1.4-0.2,2.9-0.4,4.3-0.5
				c8.9-0.4,17.2,1.8,24.8,6.4c4.6,2.8,8.6,6.4,11.3,11.1c0.8,1.3,1.4,2.7,2,4c0.4,1.2,0.7,2.5,1.1,3.7c0,0.2,0,0.4,0,0.6
				c0.5,2.8,0.4,5.5-0.1,8.3c-2,11.3-9.8,18.7-21.2,20.1c-5.4,0.7-10.7,0.1-16-1.3c-0.7-0.2-1,0-1.4,0.5
				c-4.1,5.8-9.2,10.5-15.6,13.8C53.8,87.7,52.3,88.3,50.9,89z M98.3,41.6c0.3,0.3,0.6,0.5,0.9,0.8c0.1-0.1,0.1-0.1,0.2-0.2
				c-0.5-0.6-1.1-1.3-1.6-1.9c-0.1,0-0.1,0.1-0.2,0.1c0.2,0.3,0.4,0.7,0.6,1c-0.3-0.1-0.6-0.3-1-0.4c0,0-0.1,0.1-0.1,0.1
				c0.5,0.6,1.1,1.2,1.6,1.8c0.1,0,0.1-0.1,0.2-0.1C98.7,42.4,98.5,42,98.3,41.6z M56,60.7c-0.2,0-0.3-0.1-0.5-0.1
				c0,0.1-0.1,0.1-0.1,0.2c1.4,1.1,2.8,2.2,4.1,3.3c0-0.1,0.1-0.1,0.1-0.2c-0.4-0.4-0.8-0.7-1.1-1.1c0.2,0.1,0.5,0.2,0.7,0.3
				c0,0,0.1-0.1,0.1-0.1C58.2,62.2,57.1,61.5,56,60.7z M63.6,75.5c-0.5,0.5-1.1,1-1.6,1.5c-4.1,3.9-8.8,6.9-14.2,9.2
				c0.5-0.1,0.8-0.2,1.1-0.3c5.4-2.1,10.1-5.5,14.1-9.6C63.2,76.1,63.4,75.8,63.6,75.5c0.7-0.7,1.4-1.5,2.1-2.2
				c-0.1-0.1-0.2-0.1-0.3-0.2C64.8,73.9,64.2,74.7,63.6,75.5z M42.6,47.7c-0.2,0.1-0.4,0.2-0.6,0.3c-5.8,4.5-10.2,10.1-12.6,17.2
				c-0.6,1.6-0.9,3.3-1.3,5c0.8-2.2,1.6-4.4,2.4-6.6c0.5-1.2,1-2.5,1.7-3.6c1-1.6,2.1-3.1,3.3-4.6c1-1.2,2-2.4,3.1-3.6
				c0.6-0.6,1.2-1.2,1.8-1.8C41,49.2,41.8,48.4,42.6,47.7c1.2-0.2,1.9-1.3,3-1.8c-0.1-0.1-0.1-0.2-0.2-0.3
				C44.5,46.3,43.5,47,42.6,47.7z M61.6,58.9c0.3,0.1,0.6,0.3,1.1,0.4c0.1-0.3,0.2-0.7,0.3-1c0.5-1.1,1.1-2.3,1.7-3.4
				c0.2-0.4,0.1-0.7-0.3-1c-1.3-0.9-2.6-1.8-3.8-2.9c-3.7-3.2-6.6-7.1-7.7-12c-1.2-5.6,0.2-10.5,5-14c3.4-2.5,7.3-3.7,11.4-4
				c12.4-0.9,23.1,3,32.1,11.6c3.6,3.5,5.9,7.7,6.4,12.7c0.3,2.6-0.6,5-1.9,7.2c-2.2,3.7-5.6,5.7-9.6,7c-6,1.9-12.1,1.6-18.2,0.2
				c-0.4-0.1-0.7-0.2-1.1-0.3c-0.1,0.8-0.1,0.9,0.6,1c1.1,0.3,2.3,0.5,3.5,0.8c0,0.1,0,0.1,0,0.2c-1.4-0.3-2.7-0.5-4.2-0.8
				c-0.1,0.3-0.2,0.5-0.3,0.8c1.1,0.2,2.1,0.5,3.2,0.7c0.4,0.1,0.8,0.2,1.2,0.4c-1.5-0.3-2.9-0.5-4.5-0.8c-0.1,0.2-0.2,0.4-0.3,0.7
				c0.3,0.1,0.5,0.2,0.8,0.2c2,0.4,4.1,0.8,6.1,1c5.6,0.5,11.1,0,16.3-2.5c2.3-1.1,4.4-2.7,5.9-4.8c-0.1,0-0.2,0-0.2,0
				c-0.1,0.1-0.2,0.1-0.2,0.2c-2.3,2.5-5.2,4.1-8.4,5.1c-4.5,1.4-9,1.5-13.6,1.1c-0.2,0-0.4-0.1-0.6-0.2c3.9,0.4,7.9,0.4,11.7-0.5
				c4.5-1,8.5-3,11.4-6.8c0.2-0.2,0.4-0.4,0.7-0.7c0,0.2,0.1,0.4,0.1,0.6c0.8-1.9,1.5-3.7,2.2-5.5c0.1,0,0.2,0.1,0.3,0.1
				c-0.4,3.9-0.6,7.9-3.4,11.1c0.2-0.1,0.4-0.2,0.8-0.4c-1.4,3-3.3,5.5-5.9,7.5c-4.4,3.4-9.5,4.6-15,4.8c-4.2,0.1-8.3-0.4-12.3-1.4
				c-0.3-0.1-0.8-0.3-0.9,0.3c0.2,0.1,0.3,0.1,0.4,0.2c6.1,1.7,12.2,2.2,18.4,0.8c7.3-1.7,12.8-5.7,16-12.5c2.3-5,3.1-10.2,2-15.7
				c-1.1-5.1-3.6-9.3-7.4-12.8c-9.4-8.7-20.5-12.6-33.2-11.2c-9.5,1-16.3,6.2-20,15.2c-1.5,3.7-1.7,7.5-0.4,11.3
				c1,2.8,2.4,5.4,4.4,7.6c0.3,0.4,0.5,0.9,0.9,1.3c0.7,0.8,1.5,1.5,2.3,2.2c1,0.9,1.9,1.8,2.9,2.7c0.3,0.3,0.7,0.4,1.1,0.6
				c0.2,0.1,0.3,0.3,0.5,0.4c0.3,0.2,0.6,0.6,0.8,0.6c0.2,0,0.4-0.5,0.7-0.8c-0.4-0.3-0.7-0.5-1-0.7c-4.9-3.4-9.2-7.5-11.8-13
				c-0.7-1.5-1.4-3.1-0.8-4.9c1.7,8.4,7.1,13.8,14,18.5c0-0.5,0.1-0.9,0.1-1.2c0.3-0.2,0.5-0.4,0.9-0.6
				C62.1,59.3,61.8,59.1,61.6,58.9z M26.5,63c0.1-0.5,0.2-1,0.3-1.5c2.3-6.6,6.4-12,11.7-16.4c0.6-0.5,1.2-1,1.8-1.4
				c-0.3,0-0.5,0.1-0.7,0.2c-2.7,2-5.1,4.2-7.3,6.8c-0.3,0.3-0.6,0.6-1,1c0.1-0.2,0.1-0.4,0.3-0.6c2.1-2.8,4.6-5.2,7.4-7.4
				c2.1-1.6,4.5-3,6.9-4.1c0.3-0.1,0.4-0.4,0.7-0.7c-0.1-0.1-0.1-0.1-0.2-0.2c-0.5,0.2-1.1,0.5-1.6,0.7c-3,1.3-5.6,3.1-8.2,5.1
				c0.2-0.2,0.4-0.5,0.7-0.7c2.8-2.3,5.7-4.2,9.1-5.5c0.2-0.1,0.4-0.4,0.6-0.6c-0.1-0.1-0.1-0.1-0.2-0.2c-3.8,1.3-7.3,3.3-10.5,5.7
				c0.1-0.2,0.1-0.2,0.2-0.3c3.1-2.5,6.4-4.5,10.1-6c0.3-0.1,0.5-0.4,0.8-0.6c-0.1-0.1-0.1-0.2-0.2-0.2c-3.5,1-6.7,2.7-9.8,4.6
				c3.1-2.5,6.5-4.2,10.2-5.6c-4.8,1.2-9.1,3.4-13.1,6.4c0.1-0.2,0.3-0.4,0.5-0.6c3.7-3,7.7-5.2,12.3-6.5c0.5-0.1,0.9-0.3,0.9-1
				c-5.5,1.3-10.2,4-14.7,7.3c2.2-2,4.5-3.6,7.1-5c2.5-1.4,5.2-2.4,8-3.1c-2.8,0.2-5.4,1.1-7.9,2.3c-7.5,3.8-13.3,9.5-17.5,16.8
				c-2.4,4.2-3.9,8.6-4,13.5c0,0.1,0,0.2,0.1,0.3c0.1-0.1,0.2-0.2,0.5-0.5c0.1,2.8,0.2,5.4,1.2,7.8c-0.2-1.7-0.6-3.5-0.7-5.3
				c-0.1-2.7,0.2-4.5,0.8-5.3c-0.1,1.8-0.2,3.5-0.3,5.3c0,1.8,0.3,3.5,1,5.4c-0.9-5.5-0.9-7.4,0-10.7c0.9-3.5,3.4-8.8,4.5-9.6
				c0,0.1-0.1,0.2-0.2,0.3c-2.2,3.9-3.8,8.1-4.2,12.7c-0.2,2.8,0,5.5,1.2,8c-1-3.1-1-6.3-0.4-9.4c0.6-3.1,1.7-6.1,3.3-8.8
				c-2.8,6.1-4.5,12.3-1.8,18.9c-0.2-1.1-0.6-2.2-0.8-3.4c-0.4-2.6-0.2-5.1,0.5-7.6c0.9-3.7,2.5-7,4.7-10.1
				c-0.5,0.9-0.9,1.8-1.4,2.7c-2.1,4.2-3.5,8.5-3.3,13.3c0.1,1.7,0.4,3.3,1,4.8c0-0.5,0-1.1-0.2-1.6c-0.7-2.2-0.6-4.4-0.2-6.6
				c0.8-4.6,2.7-8.7,5.2-12.5c0.4-0.6,0.9-1.1,1.4-1.6c-0.2,0.4-0.4,0.8-0.6,1.1c-4,5.7-6.4,11.9-5.4,19c0.2,1,0.6,2.1,0.9,3.1
				c0.1,0,0.2-0.1,0.3-0.1c-0.2-0.7-0.4-1.3-0.6-2.1c0.1,0.2,0.2,0.3,0.2,0.2c0.1-1.9,0.1-3.9,0.2-5.9c-0.1,0.1-0.2,0.3-0.3,0.5
				c-0.8-1.4-0.1-2.7,0.2-3.9c-0.1,0.7-0.2,1.4-0.3,2.2C26.6,65,26.8,63.8,26.5,63z M88.4,32.2c-0.4-0.1-0.8-0.1-1.1-0.3
				c-3.3-1.5-6.9-2.5-10.5-3.1c-0.3-0.1-0.6-0.1-0.9-0.1c10,2,18.7,6.2,24.7,14.8c0,0.1-0.1,0.1-0.1,0.2c-0.1-0.2-0.3-0.3-0.4-0.5
				c0,0-0.1,0-0.1,0.1c0.1,0.4,0.3,0.8,0.4,1.2c-0.3-0.2-0.5-0.5-0.7-0.6c1.1,2.3,2.2,4.7,3.4,7c0,0,0.1,0,0.1,0
				c-0.3-1.2-0.7-2.4-1-3.5c0.1,0,0.1,0,0.2-0.1c0.2,0.5,0.3,1.1,0.5,1.6c0.1-0.2,0.2-0.5,0.1-0.7c-0.8-2.2-1.7-4.4-3.1-6.3
				c-2.6-3.7-6.1-6.4-9.9-8.6C89.3,32.9,88.8,32.5,88.4,32.2c0.3,0.1,0.7,0.2,1,0.4c2.1,1.4,4.3,2.7,6.3,4.3
				c3.2,2.6,5.7,5.6,7.1,9.5c0.4,1.1,0.6,2.2,1,3.4c-0.8-7.3-5.3-12-10.7-16.2c5.6,3.8,10.2,8.4,11.5,15.6c0-1.9-0.7-4.3-1.7-6.4
				c-2.2-4.2-5.5-7.5-9.4-10.2c-0.3-0.2-0.5-0.4-0.8-0.6c0.2,0.1,0.4,0.2,0.6,0.3c2.4,1.5,4.5,3.3,6.4,5.3c2.4,2.6,4.3,5.6,5.2,9.1
				c0.1,0.5,0.2,1.1,0.3,1.6c-0.9-7.6-5.6-12.6-11.3-16.9c6.2,4.1,11.1,9,12.2,17c0-0.3,0-0.5,0-0.6c0-0.2,0-0.3,0-0.5
				c-0.3-3.3-1.7-6.1-3.4-8.8c-0.2-0.3-0.3-0.6-0.5-0.9c0.1,0,0.1-0.1,0.2-0.1c1.4,1.5,2.4,3.2,3.1,5.1c0.7,1.9,1.1,3.9,1.7,6
				c0-3.4-1.3-6.3-2.5-9.2c1.2,0.9,1.5,2.3,2.1,3.6c0-0.2,0-0.3,0-0.4c-0.1-0.3-0.1-0.6-0.2-0.8c-1.4-4.3-4-7.7-7.4-10.5
				c-7.9-6.6-17.1-9.7-27.4-9.7c-4.5,0-8.8,0.9-12.6,3.2c-1.6,0.9-2.9,2.1-4,3.7c0.1,0,0.2-0.1,0.3-0.1c2.7-2.7,5.9-4.2,9.5-5.1
				c4.5-1.1,9.1-1.2,13.7-0.3c1.9,0.4,3.8,0.9,5.8,1.4c0,0.1,0,0.2,0,0.3c-7.6-2.2-15.2-2.7-22.7,0.5c3.4-1.2,6.9-1.7,10.5-1.7
				c3.3,0,9.1,1,10.5,1.8C82.4,25,82.2,25,82.1,25c-4.5-1.2-9-1.6-13.6-1c-4,0.5-7.7,1.7-11.1,4c-1.3,0.9-2.4,1.9-3.3,3.3
				c2.9-3.4,6.6-5.2,10.9-6.2c4.5-1,10.8-0.6,12.6,0.1c-0.3,0-0.6,0-0.9-0.1c-5.1-0.6-10-0.3-14.8,1.6c-2.4,0.9-4.5,2.2-6.3,4.1
				c0.1,0,0.1,0,0.1,0c0.1-0.1,0.2-0.1,0.3-0.2c2.1-1.9,4.6-3.2,7.3-3.9c4.5-1.3,9.2-1.4,13.8-0.6c2,0.4,4,1,5.9,1.5
				c-0.3,0-0.5,0-0.8-0.1c-4.3-1.2-8.6-1.7-13-1.3c-4,0.3-7.7,1.3-11.1,3.5c-0.4,0.3-0.8,0.6-1.2,0.9c-0.4,0.3-0.8,0.7-1.1,1
				c7.4-5.7,15.6-5.6,24.2-3.7c-0.2,0.1-0.3,0-0.5,0c-1.6-0.2-3.1-0.5-4.7-0.7c-5.3-0.4-10.4,0.1-15.2,2.6c-1.3,0.7-2.5,1.5-3.5,2.7
				c0.6-0.4,1.1-0.8,1.7-1.2c3.5-2.2,7.5-3.3,11.6-3.6c4.9-0.3,9.7,0.5,14.3,2.2C85.3,30.7,86.8,31.5,88.4,32.2z M63.4,35.8
				c0.1,0.2,0.2,0.4,0.3,0.5c1.6,1.9,2.7,4.1,3.1,6.6c0.8,4.9-0.1,9.5-2.1,13.9C60.1,66.6,53,73.7,43.1,78c-3.9,1.7-8,2.5-12.3,2
				c-4-0.5-7.2-2.3-9.6-5.4c-1.4-1.7-1.8-3.9-2.2-6c-0.7-4-0.1-7.8,1.3-11.5c2.6-7.1,7-12.9,12.7-17.6c4.7-3.9,10-6.6,16.1-7.6
				c0.3-0.1,0.6-0.3,0.9-0.5c0-0.1-0.1-0.2-0.1-0.3c-1,0.2-1.9,0.3-2.9,0.5c-5,1.2-9.4,3.5-13.4,6.7C26.7,43.7,21.5,50.4,19.1,59
				c-2.6,9.3-0.7,17.5,6.4,24.3c4.4,4.2,9.5,6.6,15.6,6.7c4.8,0.1,9.3-1.3,13.5-3.5c6.6-3.4,11.9-8.4,16-14.5
				c1.9-2.8,3.5-5.7,4.6-8.9c0.3-0.8,0.5-1.6,0.7-2.4c0-0.1,0.1-0.2,0.1-0.2c1.5-5.5,1.4-11-1.3-16.2c-0.7-1.3-1.6-2.5-2.4-3.7
				c-0.1,0-0.1,0.1-0.2,0.1c0.1,0.2,0.3,0.5,0.4,0.7c3.5,5.7,4.8,11.9,3.3,18.5c-0.1,0.2,0,0.5,0,0.8c-0.1,0.2-0.3,0.4-0.4,0.6
				c-0.3,0.8-0.5,1.5-0.8,2.3c-3,7.6-8,13.8-14.4,18.7c-4.8,3.7-10.1,6.4-16.2,7.2c-5.2,0.7-9.7-1-14-3.6c0.4,0,0.8,0.1,1.2,0.2
				c0.4,0.2,0.7,0.6,1.1,0.6c1.3,0.3,2.4,0.8,3.8,0.8c4.4-0.1,8.6-0.8,12.7-2.5c6.9-2.9,12.6-7.4,17.1-13.4c0.4-0.5,0.8-1,1.3-1.5
				c0.3-0.3,0.5-0.7,0.7-1c0.3-0.4,0.5-0.8,0.8-1.2c0.1-0.2,0.2-0.5,0.4-0.7c0.7-1,1.3-2.1,2-3.1c0.1-0.1,0.1-0.4,0.1-0.5
				c0.3-0.7,0.5-1.4,0.8-2c0.2-0.3,0.5-0.7,0.5-1c0.5-2.3,1.2-4.7,1.5-7.1c0.7-4.3,0.2-8.4-2.2-12.2c-1.8-2.9-4.5-5-7.3-6.9
				c-1-0.7-1.9-0.2-2.9-0.1c0,0.1,0,0.2-0.1,0.3c0.2,0.1,0.4,0.2,0.6,0.3C62.7,35.1,63,35.5,63.4,35.8z M57.9,66.2
				c-6.6-5-11.7-10.8-12.3-19.6c-0.3,0.2-0.5,0.3-0.7,0.4c-2.9,2.1-5.5,4.4-7.8,7.1c-4.1,4.7-7.1,10-8.3,16.2
				c-0.5,2.6-0.7,5.3,0.2,7.9c0.2,0.5,0.5,0.8,1,0.9c3.1,0.6,6.2,0.3,9.2-0.5c6.2-1.7,11.3-5.1,15.9-9.5
				C56.1,68.2,57,67.2,57.9,66.2z M76.8,59.2c0.2,0.1,0.3,0.1,0.5,0.2c4.3,1.1,8.7,1.6,13.1,1.1c3.4-0.3,6.7-1,9.7-2.9
				c2.6-1.6,2.6-1.7,1.8-4.6c-0.9-3.2-2.9-5.8-5.3-8c-7.9-7.4-17.3-11.1-28.1-11.4c-1.1,0-2.2,0.1-3.4,0.1
				C74.2,39.9,79.1,47.9,76.8,59.2z M54.2,42.3c0.9,3.4,6.6,9.5,10.7,11.4c0,0,0.1-0.1,0.1-0.1c1.2-3.7,1.6-7.4,0.8-11.2
				c-0.1-0.5-0.4-0.7-0.8-0.8C61.4,40.6,57.8,41.2,54.2,42.3z M74.4,66.9c0.2,0.1,0.3,0.1,0.4,0.1c6.4,1.7,12.9,2.2,19.4,0.7
				c3-0.7,5.8-1.7,8.1-3.9c0.6-0.5,1.1-1.1,1.8-1.4c0.5-0.3,0.6-0.4,0.3-0.9c-0.1,0.1-0.2,0.2-0.3,0.2c-2.3,2.1-5,3.5-7.9,4.5
				c-4.3,1.3-8.8,1.7-13.3,1.3c-2.7-0.3-5.5-0.8-8.3-1.2C74.6,66.5,74.5,66.7,74.4,66.9z M75.2,64.9c5.7,1.5,11.4,2.1,17.2,1
				c3.9-0.7,7.5-2.1,10.5-4.7c0.2-0.2,0.4-0.3,0.5-0.5c-0.2,0-0.3,0-0.4,0.1c-2,1.6-4.3,2.7-6.8,3.4c-5.2,1.5-10.5,1.5-15.8,0.8
				c-1.7-0.2-3.3-0.6-5-0.9C75.4,64.3,75.3,64.5,75.2,64.9z M75.6,63.7c0.2,0.1,0.4,0.2,0.7,0.2c2.6,0.4,5.3,1,7.9,1.2
				c5.2,0.4,10.2-0.3,14.9-2.5c2.1-1,4-2.4,5.5-4.2c-0.1,0-0.3,0.1-0.4,0.2c-2.2,2.1-4.8,3.5-7.7,4.4c-6.2,1.9-12.4,1.7-18.6,0.4
				c-0.7-0.1-1.4-0.3-2.1-0.5c-0.1,0.2-0.1,0.4-0.2,0.5C75.6,63.5,75.6,63.6,75.6,63.7z M46.3,42.1C46.4,42.1,46.4,42.1,46.3,42.1
				c0.1,0.2,0,0.4,0,0.6c-0.4,3.6,0.2,7.1,1.7,10.5c2.1,5,5.7,8.8,9.9,12c0.2,0.1,0.4,0.1,0.7,0.2c-0.1-0.2-0.2-0.4-0.3-0.6
				c-1.9-1.8-3.8-3.6-5.6-5.5c-2.5-2.6-4.3-5.6-4.8-9.3c-0.2-1-0.2-2.1-0.5-3.1C47.1,45.3,46.7,43.7,46.3,42.1z M101.9,62.9
				c-8.6,4.9-17.6,4.4-26.8,2.3c-0.1,0.2-0.2,0.5-0.3,0.8c0.4,0.1,0.8,0.2,1.1,0.3c6.9,1.6,13.7,1.8,20.4-0.5
				C98.4,65.1,100.3,64.2,101.9,62.9z M76.3,54.6C75.1,68,63.2,82.9,48.8,88.1c0.3-0.1,0.6-0.1,0.9-0.2c0.8-0.3,1.5-0.5,2.3-0.9
				c5.6-2.4,10.4-6.1,14.5-10.6c4-4.5,7.1-9.5,8.9-15.4C75.9,58.9,76.3,56.8,76.3,54.6z M74.2,67.3c-0.1,0.3-0.2,0.5-0.3,0.8
				c6.4,2.1,15.8,2.2,22-0.4C87.1,69.5,83.5,69.4,74.2,67.3z M50.9,86.5c4.8-1.6,12.1-6.7,17.4-14c3.5-4.9,6.2-10.2,7.1-16.2
				C74,62.9,70.8,68.8,66.5,74C62.2,79.3,57,83.5,50.9,86.5z M99.4,47.3c-2.9-4.3-6.8-7.5-11.3-10c-4.7-2.5-9.8-3.9-15.1-4.3
				C83.4,34.7,92.6,38.9,99.4,47.3z M48.7,86.7c9.4-3.5,16.3-10,21.5-18.4C64.7,76.3,57.7,82.6,48.7,86.7z M28.4,63
				c3.1-7.4,8.2-13.1,14.4-18C36.1,49.5,31.2,55.4,28.4,63z M27.7,62.2c0.1,0,0.2,0.1,0.3,0.1c2.7-6.7,7-12.1,12.5-16.7
				c-0.3,0.1-0.7,0.2-0.9,0.4c-0.3,0.2-0.5,0.6-0.8,0.8c-2.4,2.1-4.8,4.3-6.6,7.1c-0.3,0.4-0.7,0.8-0.9,1.3
				c-0.9,1.6-1.8,3.1-2.7,4.7C28.2,60.6,28,61.4,27.7,62.2z M96.2,40.1c0-0.1,0.1-0.1,0.1-0.2c-0.2-0.3-0.3-0.6-0.5-0.7
				c-0.6-0.5-1.3-1-2-1.5c-1.3-1-2.6-2.1-4-2.9c-1.4-0.8-2.9-1.5-4.4-2c-1.9-0.7-3.8-1.3-5.7-1.9c-0.6-0.2-1.3-0.3-1.9-0.4
				c0,0.1,0,0.2-0.1,0.2C84.6,32.4,90.9,35.2,96.2,40.1z M77.3,31.6c6.8,1.7,13.1,4.5,18.5,9.1C90.6,35.7,84.4,32.8,77.3,31.6z
				 M94.9,41.1c-5.1-4.7-11.2-7.4-18-8.5C83.5,34.1,89.6,36.7,94.9,41.1z M89.2,72c-5.7,0.7-11.2,0-16.8-1.2
				C77.9,72.6,83.5,73.1,89.2,72z M87.9,71.5c-2.3-0.1-4.9-0.1-7.4-0.3c-2.6-0.3-5.1-0.8-7.8-1.2C75,71.5,85.3,72.4,87.9,71.5z
				 M40.9,47.7c-4.8,3.8-8.5,8.4-10.9,14C32.7,56.3,36.4,51.7,40.9,47.7z M88.1,70.9c-2.4-0.1-4.9-0.1-7.4-0.4
				c-2.5-0.3-5-0.8-7.4-1.2C78.1,70.9,83.1,71.4,88.1,70.9z M71.9,33c0-0.1,0-0.2,0-0.2c-1.1,0-2.3-0.1-3.4-0.1
				c-3.6,0-7.1,0.4-10.5,1.7c-0.6,0.2-1.2,0.6-1.7,0.9c0,0.1,0.1,0.1,0.1,0.2c0.2-0.1,0.4-0.2,0.6-0.3c1.6-0.6,3.1-1.4,4.8-1.7
				c3.1-0.6,6.3-0.8,9.4-0.6C71.4,33,71.7,33,71.9,33z M89,70.1c-1.7,0-3.4,0.1-5.2,0c-1.7-0.1-3.5-0.2-5.2-0.5
				c-1.7-0.2-3.4-0.6-5.1-0.9C77.2,70.2,86.1,70.9,89,70.1z M54.6,37.3c1.9,0.2,3.8,0.3,5.7,0.5c-1.7-0.6-3.4-0.8-5.2-0.7
				C54.9,37,54.7,37.2,54.6,37.3z M30.3,54.8c0.1,0.1,0.2,0.1,0.2,0.2c1.6-2.1,3.2-4.1,4.8-6.2c0,0-0.1-0.1-0.1-0.1
				C33.6,50.7,32,52.7,30.3,54.8z M26.7,66.2c0.3-1.2,0.6-2.1,0.9-3C26.9,64,26.5,64.9,26.7,66.2z M59.8,36.8c0-0.1,0-0.1,0.1-0.2
				c-1.2-0.2-2.3-0.4-3.5-0.6c0,0.1,0,0.2,0,0.3C57.5,36.4,58.7,36.6,59.8,36.8z M94.7,37.4c-0.1,0.1-0.1,0.1-0.2,0.2
				c0.7,0.6,1.4,1.2,2,1.8c0.1-0.1,0.1-0.1,0.2-0.2C96,38.6,95.4,38,94.7,37.4z M88.3,33.5c0-0.1,0.1-0.2,0.1-0.2
				c-0.8-0.4-1.7-0.8-2.5-1.2c0,0.1-0.1,0.1-0.1,0.2C86.6,32.7,87.4,33.1,88.3,33.5z M28.7,57.8C28.8,57.8,28.8,57.8,28.7,57.8
				c0.6-0.8,1-1.6,1.5-2.4c0,0,0,0-0.1,0C29.7,56.2,29.2,57,28.7,57.8z"/>
		</g>
		<g>
			<path d="M62.4,34.8c0.5,0.3,1,0.6,1.6,0.9c0.4,0.4,0.8,0.9,1.2,1.3c1.1,1.7,2,3.4,2.3,5.4c0.2,1.7,0.3,3.3,0.4,5
				c0,0.2-0.1,0.4-0.3,0.6c0-0.3,0-0.5,0-0.8c0-3.5-0.6-6.8-2.6-9.7c-0.5-0.7-1.1-1.2-1.6-1.8C63,35.5,62.7,35.1,62.4,34.8z"/>
		</g>
		<g>
			<path d="M48.2,80.4c-5.5,3-12.9,5.1-19.2,3.2c1.1,0.3,2.3,0.7,3.4,0.9c4.1,0.7,8.1,0,12.1-1.4c3.3-1.2,6.3-2.8,9.2-4.6
				c-0.5,0.3-0.9,0.6-1.4,0.9c-0.5,0.3-1,0.6-1.4,0.9c-3.8,2.3-7.8,4-12.2,4.7c-4.2,0.7-8.3,0.2-12.1-2c1.1,0.9,3.1,1.8,4.8,2.2
				c5,1.1,9.9,0.4,14.6-1.4c1.9-0.7,3.7-1.7,5.6-2.4c-1.5,0.7-2.9,1.6-4.4,2.2c-3.8,1.8-7.8,2.8-12.1,2.7c-2.7-0.1-5.2-0.7-7.5-1.9
				c-0.6-0.3-1.1-0.7-1.5-1.2c-1.9-1.9-3.5-4-4.8-6.3C21.1,76.6,21,76.4,21,76c0.8,0.7,1.6,1.3,2.4,2c2.7,2.3,6,3.2,9.5,3.6
				c4,0.4,7.7-0.5,11.4-2c5.2-2.1,9.7-5.3,13.7-9.3c0.1-0.1,0.2-0.2,0.3-0.2c0,0,0,0,0.2,0c-0.7,0.7-1.3,1.3-1.9,1.9
				c-4.8,4.3-10.1,7.5-16.3,9.3c-4,1.1-8.1,1.3-12.1,0c-0.1,0-0.1,0-0.2,0c0,0.1,0,0.2-0.1,0.2c1.2,0.3,2.4,0.8,3.6,1
				c4.1,0.8,8,0,11.9-1.3C48,79.5,52,77,55.7,73.9c0.1-0.1,0.2-0.2,0.4-0.3c0,0,0,0,0.2,0.1c-1,0.8-1.9,1.5-2.8,2.2
				c-3.9,2.9-8.2,5.2-13,6.4c-4,1-7.9,1.2-11.9-0.1c-0.1,0-0.1,0-0.2,0c1.6,1.2,6.4,1.8,10,1.2C41.9,83,45.1,81.8,48.2,80.4z"/>
		</g>
		<g>
			<path d="M65.2,37.1c-0.4-0.4-0.8-0.9-1.2-1.3c0.5,0.3,1,0.6,1.5,0.9c-0.1-0.1-0.2-0.3-0.2-0.4c1-0.2,1.5,0.6,2.2,1.1
				c2.5,1.5,4.1,3.8,5.2,6.4c1.3,3.2,1.6,6.5,0.9,9.8c-0.5,2.3-1.2,4.5-1.9,6.7c0,0.2-0.2,0.3-0.2,0.4c0.6-2.2,1.2-4.4,1.7-6.7
				c0.5-2.3,0.5-4.7,0-7c0.4,7.2-2.1,13.5-6,19.4c4-6.8,6.6-14,4.7-22.1c1.7,8.3-2.5,17.1-5.2,20.6c4.1-7.2,6.4-14.6,3.7-22.8
				c2.3,8.5-0.7,15.8-5,22.9C69.3,58,71.7,51,69.8,43c0.3,2.1,0.6,4.3,0.1,6.5c-0.1,0-0.2,0-0.3,0c0-0.4-0.1-0.9-0.1-1.3
				c0-2.2-0.3-4.3-1-6.5c0,1.4,0.8,2.7,0.3,4c-0.1,0-0.2,0-0.2,0c-0.1-0.4-0.2-0.8-0.3-1.1c-0.5-1.6-0.8-3.2-1.4-4.7
				C66.5,38.9,65.8,38,65.2,37.1z"/>
		</g>
		<g>
			<path d="M36.6,80.9c3.2-1,6.5-2.1,9.5-3.1C43.2,79.2,39.9,80.5,36.6,80.9z"/>
		</g>
		<g>
			<path d="M40.3,86.7c4.9-0.9,9.2-2.9,13.4-5.4C49.7,84,45.2,86,40.3,86.7z"/>
		</g>
		<g>
			<path d="M54.1,76.8c2.4-2.2,5-4.5,7.4-6.7C60.9,71.2,55.7,76,54.1,76.8z"/>
		</g>
		<g>
			<path d="M66.7,53.5c0.3-1.6,0.6-3.2,0.8-4.7C67.8,50.4,67.3,51.9,66.7,53.5z"/>
		</g>
		<g>
			<path d="M53,73.2c1.2-1.1,2.4-2.1,3.6-3.2c0,0.1,0.1,0.1,0.1,0.2c-1.2,1-2.4,2.1-3.6,3.1C53.1,73.3,53.1,73.3,53,73.2z"/>
		</g>
		<g>
			<path d="M63,58.4c-0.9-0.6-1.9-1.1-2.7-1.7c-4.1-3-7.5-6.5-9.6-11.2c-0.7-1.5-1.1-3.1-1.5-4.4c0.2,2.2,1,4.5,2.1,6.6
				c2.3,4.2,5.6,7.6,9.4,10.4c0.3,0.2,0.5,0.5,0.8,0.8C55,54.6,50,49.2,48.4,41.3c0.1,2.3,0.8,4.4,1.8,6.4c2.2,4.6,5.6,8.2,9.7,11.2
				c0.3,0.2,0.5,0.4,0.8,0.6c-0.2-0.1-0.4-0.1-0.5-0.2c-4.3-3-8-6.6-10.5-11.3c-1-1.9-1.7-4-1.9-6.1c-0.1-0.9,0.1-1.8,0.3-2.6
				c0.4-1.6,0.9-3.2,1.4-4.9c0.2,0.2,0.3,0.3,0.4,0.4c0.3-0.5,0.5-1,0.8-1.7c0,0.3,0,0.5,0,0.7c0.2-0.3,0.4-0.5,0.5-0.8
				c0,0.2,0.1,0.4,0.1,0.7c0.2-0.4,0.3-0.7,0.4-0.8c0,1.3-0.1,2.6-0.1,4c0,0.1,0,0.2,0,0.3c-0.2,1.5,0.1,2.9,0.6,4.3
				c0.2,0.5,0.3,1,0.3,1.6c-0.7-0.4-0.9-1.1-1.1-1.8c-0.2-0.7-0.3-1.4-0.5-2.1c0.2,2.8,1.3,5.2,2.3,7.8c-1.6-1.8-2.3-3.9-3-6.1
				c0.4,2.5,1.3,4.8,2.6,7c2.4,4,5.7,7.1,9.5,9.8C62.5,58,62.7,58.2,63,58.4z"/>
		</g>
		<g>
			<path d="M98.5,59.7c-3.3,1.9-7,2.2-10.7,2.3c1.8-0.3,3.6-0.5,5.4-0.8C95,60.8,96.7,60.2,98.5,59.7z"/>
		</g>
		<g>
			<path d="M51.4,37.4c0-0.1,0-0.2,0-0.3c0.1,0.2,0.3,0.3,0.3,0.5c0.4,2.5,1.2,4.7,2.4,6.9c0.1,0.2,0.1,0.4,0.1,0.6
				C52.6,42.8,51.8,40.2,51.4,37.4z"/>
		</g>
		<g>
			<path d="M57.3,49.6c-1-1.3-2-2.6-3-3.9c0.1-0.1,0.2-0.1,0.3-0.2c1,1.3,1.9,2.6,2.9,3.9C57.4,49.5,57.4,49.5,57.3,49.6z"/>
		</g>
		<g>
			<path d="M101.1,58.5c-0.7,0.4-1.5,0.8-2.2,1.2c0-0.1-0.1-0.2-0.1-0.3c0.7-0.4,1.5-0.8,2.2-1.2C101,58.3,101.1,58.4,101.1,58.5z"
				/>
		</g>
		<g>
			<path d="M19.9,63.7c0.3-1.5,0.7-3.1,1-4.6c0.1,0,0.1,0,0.2,0c-0.3,1.5-0.7,3.1-1,4.6C20,63.8,20,63.8,19.9,63.7z"/>
		</g>
	</g>
</g>
</svg>
