<?xml version="1.0" encoding="utf-8"?>
<!-- Generator: Adobe Illustrator 25.2.3, SVG Export Plug-In . SVG Version: 6.00 Build 0)  -->
<svg version="1.1" id="Layer_1" xmlns="http://www.w3.org/2000/svg" xmlns:xlink="http://www.w3.org/1999/xlink" x="0px" y="0px"
	 viewBox="0 0 59.9 53.5" style="enable-background:new 0 0 59.9 53.5;" xml:space="preserve">
<style type="text/css">
	.st0{fill:#1E8C50;}
</style>
<g>
	<path class="st0" d="M23.9,18.1c0.6,0.1,1.1,0.1,1.8,0.2c0.1-0.1,0.2-0.2,0.3-0.3c0.4-0.7,0.9-1.3,1.4-1.9c0.5-0.5,1-1,1.4-1.6
		c0.3-0.5,0.7-1,1.3-1.2c0.1-0.1,0.2-0.2,0.3-0.3c0.3-0.3,0.7-0.6,1-0.9c0.1-0.1,0.2-0.1,0.4-0.1c0.1-0.3,0.3-0.5,0.6-0.7
		c0.9-0.4,1.7-0.9,2.5-1.5c0.3-0.2,0.7-0.3,1.1-0.3c-0.1-0.5-0.8-1.2-1.3-1.5c-0.2-0.3-0.3-0.6-0.3-1c0-0.3-0.1-0.6-0.4-0.8
		c-0.4-0.3-0.4-0.6-0.3-1c0-0.1,0-0.2,0-0.3c0.2-0.1,0.5-0.2,0.7-0.3c0.5,0.4,3.9-0.1,4.4-0.1c0.6,0,5.8,0.1,6.4,0
		c0.3,0,0.5,0,0.7,0.2c0.2,0.2,0.5,0.4,0.8,0.5c0.4,0.3,0.5,0.6,0.2,1.1C47,6.7,46.8,7,46.6,7.2c-0.1,0.1-0.2,0.3-0.3,0.6
		c-0.1,0.1-0.2,0.1-0.4,0.2c-0.1,0.1-0.3,0.2-0.3,0.3c-0.2,0.5-0.6,0.8-0.9,1.2c-0.1,0.2-0.3,0.3-0.4,0.5c0.1,0.1,0.2,0.2,0.3,0.3
		c0.7,0.4,1.5,0.6,2.2,0.8c0.1,0,0.3,0.1,0.4,0.2c0.5,0.3,1.1,0.5,1.6,0.7c0.4,0.2,0.9,0.3,1.2,0.6c0.1,0.1,0.3,0.2,0.5,0.3
		c0.4,0.2,0.7,0.4,1,0.7c0.3,0.3,0.7,0.4,1,0.6c0.1,0.1,0.3,0.1,0.4,0.2c0.3,0.4,0.7,0.7,1,1.2c0.3,0.4,0.6,0.8,1,1.2
		c0.4,0.4,1,1.1,1.4,2.1s0.4,2.6,0.5,2.7c0.1,0.4,0.2,0.7,0.3,1c0.2,0.6,0.2,1.3,0.3,1.9c0.1,0.6,0.2,1.1,0.2,1.7
		c0,0.2,0.1,0.3,0.1,0.5c-0.1,0.7-0.3,1.4-0.4,2.1c-0.1,0.4-0.1,0.8-0.1,1.2c-0.1,0.4-0.1,0.8-0.2,1.3c-0.1,0.4-0.2,0.8-0.2,1.3
		c-0.1,0.2-0.1,0.4-0.2,0.6c-0.2,0.4-0.4,0.8-0.6,1.2c-0.2,0.3-0.4,0.6-0.5,1c0,0.2-0.2,0.3-0.3,0.5c-0.4,0.6-0.8,1.1-1.3,1.6
		c-0.2,0.2-0.4,1-1,1.5c-0.6,0.5-1.7,0.9-1.9,1.3c-0.1,0.2-0.5,0.3-0.8,0.4c-0.3,0.6-1.7,0.7-1.8,0.8c-0.7,0.2-1.4,0.4-2.1,0.3
		c-0.1,0-0.2,0-0.3,0.1c-0.4,0.3-2.1,0.4-2.3,0.7c-0.6,0-1.1,0.2-1.6,0.1c-0.1,0-0.2,0-0.2,0c-0.5,0.1-1,0.2-1.5,0.3
		C39.2,43,38,43.1,36.9,43c-0.4,0-0.8-0.1-1.2-0.1c-0.4,0-0.8-0.2-1.2-0.4c-0.2-0.1-0.4-0.2-0.7-0.2c-0.3-0.1-0.6-0.1-0.9-0.2
		c-0.2,0-0.4-0.1-0.7-0.1c-0.2,0.3-0.4,0.6-0.5,0.9c-0.1,0.1-0.1,0.3-0.2,0.3c-0.2,0.1-0.3,0.3-0.4,0.5c-0.1,0.1-0.2,0.3-0.3,0.4
		c-0.2,0.1-0.2,0.3-0.3,0.4c-0.4,0.6-0.8,1.1-1.3,1.6c-0.4,0.4-0.9,0.8-1.3,1.3c-0.2,0.2-0.4,0.3-0.7,0.4c-0.3,0.1-0.6,0.3-0.9,0.4
		c-0.8,0.2-1.5,0.6-2.3,0.8c-0.1,0-0.2,0-0.2,0.1c-0.4,0.3-0.9,0.4-1.4,0.5c-0.4,0.1-0.8,0.2-1.1,0.5c-0.1,0.1-0.2,0.1-0.3,0.1
		c-0.6,0.1-1.2,0.2-1.9,0.2c-0.6,0-1.2,0-1.8,0c-0.1,0-0.1,0-0.2,0c-0.6-0.5-1.4-0.3-2.1-0.5c-0.3-0.1-0.7-0.3-1.1-0.2
		c0,0-0.4-0.2-0.6-0.3c-0.7-0.3-1.4-0.4-2-0.7c-0.7-0.3-1.8-0.8-2.3-1.4C9.1,47.1,9,47,8.8,46.9c-0.2-0.3-0.2-0.6-0.5-0.7
		c-0.2-0.1-0.2-0.3-0.3-0.5c-0.5-0.6-0.8-1.2-1.2-1.8c-0.2-0.4-0.4-0.8-0.7-1.2c-0.3-0.4-0.4-0.8-0.6-1.2c-0.3-0.8-0.7-1.5-0.9-2.3
		c-0.2-0.5-0.4-1-0.4-1.6C4.2,37,4,36.5,3.9,36c-0.1-0.6-0.3-1.8-0.2-2.4c0-0.2,0-0.5-0.1-0.7c-0.2-0.6-0.2-1.3-0.1-1.9
		c0-0.2,0-0.4,0-0.6c-0.1-0.9,0.2-1.7,0.7-2.5c0,0,0-0.1,0.1-0.1c0.2-0.6,2.8-3.5,3.2-4.5c0.1-0.2,0.2-0.3,0.3-0.5
		c0.2,0,1.7-1.2,1.8-1.3c0.6-0.3,0.9-0.9,1.4-1.3c0.4-0.4,1.7-1.9,1.7-1.9c0.5-0.3,1.1-0.5,1.6-0.7c0.3-0.1,0.6-0.1,0.9-0.2
		c0.7-0.1,1.3-0.3,2-0.3c0.4,0,0.8,0,1.2,0.1c0.2,0,0.3,0,0.5,0c0.6-0.1,1.1,0,1.7,0.2C20.8,17.6,23.2,17.5,23.9,18.1z M33.8,29.7
		c0.2,1.7,0.1,5.4,0.2,5.5c0,0.5,0.2,1.1-0.1,1.6c0,0.2,0,0.4,0,0.6c-0.1,0.2-0.2,0.6-0.1,0.7c-0.2,0.4-0.4,1.4-0.4,1.5
		c-0.1,0.1-0.2,0.1-0.3,0.2c0,0.3,0.1,0.5,0.1,0.8c0.2,0.1,0.3,0.2,0.5,0.2c0.9,0.2,1.7,0.3,2.6,0.5c1.2,0.2,2.3,0,3.5-0.1
		c1-0.1,2.1-0.2,3-0.6c0.6-0.2,1.2-0.3,1.7-0.5c0.6-0.2,1.3-0.5,1.9-0.7c0.4-0.2,0.7-0.4,1.1-0.5c0.7-0.2,1.3-0.6,1.8-1.1
		c0.6-0.6,1.2-1.2,1.8-1.8c0.1-0.1,0.1-0.2,0.2-0.3c0.6-0.4,0.9-1.1,1.4-1.6c0.2-0.2,0.3-0.4,0.6-0.6c0-0.2,0.1-0.4,0.1-0.7
		c0-0.4,0.1-0.7,0.3-1c0.3-0.5,0.4-1.1,0.2-1.5c0.4-0.3,0.2-0.8,0.4-1.1c-0.3-0.5-0.2-1,0-1.3c0-0.3-0.1-0.5-0.1-0.6
		c0-0.3,0-0.6-0.1-0.9c-0.2-0.6-0.2-1.3,0.1-1.9c0-0.4-0.1-0.8-0.1-1.3c-0.6-1.1-0.6-1.1-0.7-2.3c0-0.8,0-1.6-0.4-2.3
		c-0.3-0.5-0.5-1-0.9-1.4c-0.5-0.5-0.9-1-1.5-1.4c-0.5-0.3-0.9-0.9-1.5-1.1c-0.2-0.1-0.3-0.2-0.5-0.4c-0.6-0.5-1.5-0.5-2-1.1
		c-0.7-0.2-1.4-0.5-2.2-0.6c-0.6-0.1-1.2-0.4-1.8-0.4c-0.1,0-0.3-0.1-0.3-0.2c-0.2-0.2-2.7-0.3-3.1-0.1c-0.2,0-1.2,0.4-1.4,0.4
		c-0.6,0-1.1,0.2-1.6,0.2c-0.2,0-0.4,0-0.5,0.1c-0.9,0.3-1.7,0.9-2.5,1.5c-0.7,0.6-1.3,1.3-1.9,1.9c-0.3,0.3-0.7,0.7-1,1.1
		c-0.4,0.5-0.8,1-1.2,1.4c-0.3,0.4-0.7,0.9-1,1.4c0.1,0.2,0.2,0.3,0.3,0.4c0.5,0.4,1,0.8,1.4,1.3c0.2,0.2,0.4,0.3,0.5,0.5
		c0.3,0.3,0.5,0.6,0.8,0.9c0.4,0.5,0.7,1.1,1.2,1.3c0.3,0.9,0.6,1.7,0.9,2.5c0,0.3,0,0.5,0,0.8C33.5,27.7,33.5,29.5,33.8,29.7z
		 M16,19.7c-0.1,0.1-0.2,0.1-0.3,0.1c-0.5,0-0.8,0.4-1,0.8c0,0.1-0.1,0.1-0.1,0.2c-0.3,0.1-0.6,0.3-0.8,0.4
		c-0.4,0.2-0.8,0.4-1.2,0.7c-0.5,0.5-1,1-1.7,1.2c-0.1,0-0.3,0.1-0.3,0.2c-0.3,0.5-0.7,0.9-1.1,1.3c-0.5,0.5-1,1-1.3,1.6
		c0,0-0.1,0.1-0.1,0.1c-0.6,0.5-0.8,1.2-1.2,1.8c-0.4,0.5-0.5,1.1-0.7,1.7c-0.2,0.5-0.3,1.1-0.2,1.6c0,0.1,0,0.1,0,0.2
		c-0.1,1-0.3,2.6,0,3.5C6,35.5,6,35.7,6,35.9c-0.1,0.3,0,0.5,0.1,0.8c0.1,0.4,0.2,0.8,0.2,1.2c0,0.4,0.2,0.9,0.3,1.3
		c0.2,0.4,0.3,0.9,0.5,1.4c0.3,0.7,0.6,1.3,0.9,2c0.5,0.9,1,1.8,1.6,2.7c0.2,0.3,0.4,0.6,0.6,0.9c0.5,0.6,1.5,1,2.2,1.3
		c0.7,0.3,1.3,0.5,1.9,0.5c0.6,0.2,1.1,0.3,1.6,0.4c0.3,0.1,0.7,0.2,1,0.2c0.5,0,1-0.1,1.6-0.1c0.2,0,0.4,0,0.5-0.1
		c0.6-0.2,1.2-0.4,1.8-0.6c0.3-0.1,0.6-0.2,0.9-0.3c0.4-0.1,0.8-0.3,1.2-0.5c0.1,0,0.3-0.1,0.4-0.1c0.8-0.3,1.6-0.5,2.3-1.1
		c0.2-0.2,0.5-0.4,0.8-0.6c0.5-0.4,1-0.8,1.5-1.3c0.6-0.7,1.2-1.3,1.6-2.1c0,0,0-0.1,0.1-0.1c0.5-0.3,0.5-0.8,0.7-1.3
		c-0.3-0.2-0.6-0.5-0.9-0.7c-0.3-0.2-0.7-0.5-0.9-0.8c-0.1-0.2-0.3-0.4-0.5-0.5c-0.3-0.2-0.5-0.4-0.7-0.7c-0.4-0.5-0.8-0.9-1.1-1.4
		c-0.4-0.6-0.6-1.3-0.9-2c-0.4-0.8-0.4-1.6-0.7-2.4c0-0.1,0-0.2,0-0.3c0-0.1,0-0.2,0-0.3c-0.2-0.7-0.2-1.5-0.3-2.2c0-0.5,0-1,0-1.5
		c-0.1-1.4-0.3-2.7-0.2-4.1c0-0.6,0-1.2,0.2-1.7c0.1-0.3,0.1-0.6,0-0.9c-0.2-0.1-0.4-0.2-0.6-0.3c-0.7-0.5-1.5-0.7-2.4-0.8
		c-0.2,0-0.3,0-0.5-0.1c-0.5-0.2-1-0.2-1.5,0c-0.1,0-0.2,0.1-0.2,0c-0.5-0.2-0.9,0.1-1.4,0.1c-0.4,0-0.9,0.2-1.3,0.2
		C16.2,19.9,16.1,19.8,16,19.7z M31.4,36.9c0.2-0.5,0.5-0.9,0.4-1.5c0-0.2,0-0.5,0.1-0.8c0-0.3,0.2-0.7,0.1-1c-0.1-0.5-0.1-1,0-1.4
		c-0.2-0.3-0.5-2-0.4-2.4c0.1-0.3,0-0.7-0.1-1c-0.1-0.4-0.4-0.7-0.5-1c-0.3-0.6-0.6-1.1-0.8-1.7c-0.2-0.5-0.4-0.9-0.8-1.3
		c-0.6-0.6-1.2-1.1-1.6-1.9c-0.2-0.4-0.6-0.5-1-0.8c-0.1,0.2-0.2,0.3-0.2,0.4c-0.1,0.5-0.2,1.1-0.3,1.6c-0.1,0.5-0.1,1-0.1,1.5
		c-0.1,0.5,0.2,1,0,1.5c0,0,0,0.1,0,0.1c0.1,0.9-0.1,3.7,0,4c0.2,0.5,0.5,2.6,0.7,3.2c0,0.1,0,0.1,0.1,0.2c0.1,0.8,0.5,1.4,1.3,1.8
		c0.1,0.3,0.7,0.8,0.7,0.8c0.6,0.6,1.2,1.1,1.7,1.6c0.1,0,0.2-0.1,0.2-0.1c0.1-0.6,0.3-1.1,0.4-1.7C31.4,37,31.4,36.9,31.4,36.9z"/>
</g>
</svg>
