<svg xmlns="http://www.w3.org/2000/svg" xml:space="preserve" viewBox="0 0 126.5 165.7"><path d="m122 161.5.1-.7-.1-.6z"/><path d="M122.2 156.1c-.1-.9-.2-2-.3-1.4l.2 2.2-.1 1.3.1 1.7zq0-.3 0 0"/><path d="M122.4 78v.5z"/><path d="M122.5 29.5v.5z"/><path d="M122.6 21.3v.5z"/><path d="M122.4 78v-1.3z"/><path d="M121.9 145.3v.7zq0 .2 0 0"/><path d="M122.5 99.3v.4l.1.3z"/><path d="M122.5 115.7q0-.5-.2-.6l.1.8z"/><path d="M122.3 141.7v.5z"/><path d="M122.5 87.6q.1-.1 0 .1"/><path d="M103.2 161q.2 0 0 0"/><path d="M122.2 161.5h-.3l-.1.1z"/><path d="M122.8 6.1q0 .2 0 0 0 .6 0 0"/><path d="M3.7 22.6c.1-1.6.1 2.6.2.2 0 .2-.1-2.1-.2-.2"/><path d="M121.9 144.9v-.7z"/><path d="M4 22.8v-.2z"/><path d="M89.6 3.4h.4q-.1.1-.4 0"/><path d="M115.5 3.6h-.6z"/><path d="M76.1 3.6h-.9z"/><path d="M62 3.6h.7z"/><path d="m60.6 161 .6.1c-.2-.1 1.9-.1-.6-.1"/><path d="M121.9 145.3v-.4zq0 .2 0 0"/><path d="M75.5 4.5h-2.2z"/><path d="M4.7 117.1v.5z"/><path d="m66.7 4.5-1.3-.1h-.3z"/><path d="M75.9 160.8c-2.1 0-1 .1-1.4.2-2.5 0-1.2-.1-2-.2l-4 .2q-.3 0 0-.1c-1.7.1-5 0-6.9.2h-.3l.3.2h-2.1l.9-.1h-1c-.9-.1 1.4 0 1.4-.2-1.9 0-4.2.2-5.7.1-.3-.1 3.5 0 1.5-.2l2.3.1c-1.8-.2 1.4 0-.2-.2-3 0-3.4.1-6.4 0-.7.1.2.1-.5.2-4.3.1-3.4-.3-6.6-.2-.8.1-1.1.3-3.4.2l.8-.2c-2.9 0-1.7.2-4.8.1l1.9-.1c-2-.1-1.4.1-2.9.1l-.3-.1-10 .1-13.6-.2-1.6.1q-.7 0-.3-.1c-1.6 0-.1.1-.9.1q-1.4 0-.6-.1l-4.7.1v-3l.1-2.9v.6c0-2.4-.2-2.7-.1-4.9v.4c.1-5.2-.1-10.9.1-14.8-.2-.7.1-5.1-.2-5.4.1-2.9.2-2.1.2-6.3l-.2-3h.1l-.1-1.9.1-1v-1.3l-.1 1v-3.2l.1-1.7-.1-4.4.1 1.5v-2.8c0 .3-.1-.2-.1-.2v-5.8l.1.4V90.7c0 1.4-.2 1.1-.2-.1l.1-.5c-.1-.7 0 1.2-.2-.3 0-1.5.2-1 .2-.1v-1.8l.1.4V84l-.1-9-.2-2.3.1-7.8c-.1-2-.1-.6-.2-1.5.1-.1.1-3 .2-1.5l-.1-8.7-.1.7c0-.8 0-1.8.1-1.7v.2c-.2-4.9.3-11.2.1-15.1v.2l-.1-4c0-1.8.1 1.1.1-.3 0-4.2.2-6.7.1-10.2.3-2.8 0-9.8.2-13.5l-.1.2c-.1-1 0-1.2.1-1.9-.1.1-.1 1-.1.4V4.4l10 .1 10.5.1c3.1 0 1.7-.4 5.6-.2l-1.1.1 18.7-.1-1 .1h2.8l1.9-.1c.9 0 .2.1.8.1h3.9-.6c.8 0 3.9 0 3.1-.1h6.1c1.2-.1 3.9.1 4.3-.1-.2.2 4 .1 5.4.1-.5.1 1.2.1.7.1 1.6 0 3.1 0 2.9-.1 3 .2 6.1-.2 7.8.1l13.7-.2c-.2.2-4.8 0-4.6.2l10.7-.2c1.1 0-.6.1-1 .1l11.7-.1h-.8c.7 0 1.7 0 1.6-.1h-.7c-1.2-.1 2.9-.3 3-.3-.6.1.3.1 1.1.2h.7l-.2.2h.2q0 .2.1.1v.5l-.1-.4.1 4-.1-.7c.1 1.2.2 2.4.1 4.4 0-.1-.1.1-.1-.5 0 3.4.2 5.8.1 9.6-.2-1.1-.1 1.3-.2 1.5v2l.1-.8.1 4.9-.1-1.3v3.3V29c.1 1.8.2-.2.1 2.2l-.1 2.7.1 3.1c0 .3-.2-.3-.2-.1.1.9 0 4.1.2 5.2q0-.5-.1-.3l.1.7q0 1-.1.8c0 2.5.2-.8.1 2.1v-.6 8.4c-.2.8 0-2.4-.2-1.4l.1 11.8v-.7c.2.5-.1 2.8 0 4.7l-.1-.5.1 9.2-.1-.5-.1 5.6c.1.5 0 1.4.1.9-.3 5.1.2 9.7-.1 14.2v-.9l.1 3.8.1-1.3.1 2.5c-.1-1.7-.2 0-.2.8l.1.1c-.2 2 .2.3.1 3.1v-.1l.1 3.1c-.1.5-.1-1.1-.1-1.2l.1 4.5-.1-2.3-.1 2.8v-.1l-.1 2.6v-.7c.3 1.9.1 3.9.2 6.6-.2-2.5-.1-.4-.2-.6l-.1 1.4c.1 1.2-.1 2.1.1 3.8 0 .1 0 1.3-.1 1 0 1.6.1-.4.1-.2.1 2.5-.2 5.8 0 9.4l.3 6.5c-.1 1-.1-.8-.1-.8v4.2l-.1.5.1 2.3-.2-1.2.1 4.2c-.1.4-.1-.9-.1-1.4l.2 4.7v-1c0 .6-.1.3-.1-.1q-.1-2 .1-2.1v1c.2-1 0-4.1 0-6.1l.2.9-.1-2.1c0-.4.1-.8.2.3v-2.6.1l-.1-1.4c0 .3.1-.2.1.6V136v.2c-.1-3.6-.1-.3-.3-3l.3-1.8-.1-.4c0-.4 0-1.1.1-1-.1-1.4-.1.2-.1-.6.1-1.8-.1-4.9.1-5.3-.1-.6-.1 1.7-.1-.2.2-.5 0-2.2.1-3.8.1.5.1 2 .1.4-.2-1 0-3.2 0-4.5l-.1-5.3.1-6.4v.1l-.2-4.2.2 1.2v-1.5l-.1-1.8.1.4-.1-6.6c-.1-.1-.3 2.1-.4-.7.1-.1.2-.2.2.5v-1.3l.1 1.1-.1-1.6.1-.6v1.2l.1-2.8-.1-.8c0-2 .1-.7.1-1.9l-.1-1.8.1-.9c-.1-1 0-4.8-.1-3.7v.3-10.6l-.1-5.9.1-1.2v-3.9c.1 1.5.1-.5.1 1.6v-4.6c.1.7.1-1.5.1-2.5l-.1 1.4v-3l.1.5c.2-4.1-.3-7.4 0-10.5-.1-1.1-.1 2.2-.2 1.3l.2-4.4c.1-2.6-.2-2.4-.1-5.1 0 .3-.2.7-.2-1.3q.1-2.9.2-1.1v.7c0 .6 0 1.4.1.7v-.2c0-.9 0-3.5.1-2.9 0-1.4-.1-.6-.1.4V22l-.1.4c.1-3.7-.1-1.6-.1-4.1.1-1.4.2.5.1-2 0-1.5.1-.3.2.3l.1-5.5v1.2-1.9l-.1.7.1-1.3c-.1-.7-.2.6-.2-.9 0-.9-.1-2.8.1-3.2 0 2.9.1-.3.1 2.2V6.1v.3-1.5l-.1-1.2-1.1.1h-1.4c.4-.1-.7-.1-1.2-.1 1.2 0 .6.1-.5.2h-3 1.1l-2.6.1c-.1-.1 1.2 0 .7-.1h-5.3c-.9 0-.1-.1-.9-.2h-4.8c.7.1.8.1-.9.2l3.9-.1-2.5.1h3.2c-1.2.1-1.1.1-.5.1h-5.1l.1-.2c-2.8-.1-5 .1-8.6.1h1.2L91 4c.1-.1-.6-.1-1.1-.2.1.1-2.7 0-3 .2l-1.6-.1-6.2.2c.9-.1-.4-.1 1.5-.2h-5.3l-1.6.1s-1.7.1-.7.1c-2.9-.3-8.1 0-10.7-.2l-6.4.1h.4c-2.6-.1-1.6.2-4.5.1-1.5-.1 1.6-.1.6-.1-.4-.3-3.5 0-5.5-.1h.5l-6.2.1-7.3.2q1.2-.1.6-.2c-1.1 0 .3.2-1.8.2L30.3 4h2-3.6l.1-.1c-3.1 0-3.1.2-6.4.2h.3c-1.8.2-1.5-.1-3.3 0l-.5-.2-6.3.2 5.3-.3-4.6.1h1.5q-2.2-.2-5.8-.1l-1.4-.2H3.9v2.1L3.8 7v13.1c.2-1.7 0 1.4.3 1.1v1.7L4 26.3c-.1.8-.1-1.1-.1-1 0 2.5-.1 1-.2 2.7.1-.3.1.9.1 2.3l.1-2c.1 3.5-.2 3-.1 6.5l-.1-1.1.1 8.2c0 4.3.2 9.5.1 12.8l-.1-.3.1 2.4q0-.3-.1 0l.1 3.2-.1-.9c-.1 4.2.2 6.4.2 9.9-.2 0-.2 3.3-.3 4.9v-.1l.2 12.7c-.2 2.8-.1 9.4-.2 13.9 0-.7.1.1.2.9v2.7-.4c-.2.8-.1 3-.1 4.6l.2.3c-.3 4.4.1 11.6-.2 14l.1 3.4-.2.1v8.1l-.1-.7c0 2.1.3 2.6.3 4.5l-.2.6v10.8l-.1-.7c0 1.7-.1 6.5.1 5.9-.2 0 0 3.7.1 5.6l-.1-.3.1 1.1v1.1l2.4-.1q.8 0-.2.1h3.6l-.8.1 2.7-.1 3.8.1 2.4-.1-.5.1h6.7l.4.1H20c0 .1 2 .1.4.3l6.3-.2h.3-.2 2.8l3.3.1c-.1-.1 1.2-.1 0-.2h-1.2.1-2.5H32l1.4-.2c1.4.2 4 .2 4.3.3 3-.1 7.1 0 9-.3l1.3.1h-1.4c1.7-.1 5.1 0 5.5-.2 2.2.1-1.2.1 1.8.1h-.4c5.9.2 9.5-.4 16.1-.1l-.8-.1c7.4.1 15.3-.1 22.6.1l3.6-.1.5.1 2.2-.1c3.1-.1 5.3.3 9.2.1l-.5-.1h5.2v.1l3.4-.1c2.7 0-.4.3 3.5.3l3.6-.2-1.5-.1h1.3c.2-.2 1.3-.4-2-.5l-2.3.1-.6-.4h1.9-2.5l-.9-.1-2.2.2c-.3-.1 1-.1-.5-.2-1 .1 1 .2-.7.2-1.1-.1-.8-.2-2-.1l.6-.1-3.6.1c-1.1-.1-3.8 0-3.7-.2l-3 .1c1.9-.2-3.9 0-3.4-.2-1.4.2-5.1.1-7.6.2h.6l-2.7-.1c-.2.2-2.4.2-3.5.3-1.7-.2 1-.2.5-.3.1.1-3 .1-2.4.2-1.3-.1-1.1 0-1.8-.2l-2.3.2c-1.9-.1-.5-.2-2.6-.1-1.1 0 .7-.1.7-.1m-49.6.4h1zm-4.2 0h1.8l-.4.1c.2-.1-.8-.1-1.4-.1m8.8.8h-1 1.3z"/><path d="M32.1 161.8h.3-.6z"/><path d="M122.4 78.5s0 .1 0 0q0 .2 0 0"/><path d="M4.7 121.8v.4z"/><path d="M122 101.5v.3z"/><path d="M122 111.4v1.4z"/><path d="M116.1 4.4h-.3z"/><path d="m122 33.9-.1-1.2z"/><path d="M75.7 4.5h-.2z"/><path d="M122 31v1.7z"/><path d="M121.9 152.1v.4z"/><path d="M121.9 152.6v.4z"/><path d="M121.9 153.8v-.9z"/><path d="m121.9 139-.1 2.9v.1c0-.6.2-2.3.1-3"/><path d="M122.4 126.2v2.6c0-.4.1-1 .1.1.1-3.3-.1.6-.1-2.7"/><path d="M122.5 118.2c0 1.4 0 0 0 0q0-1.3 0 0"/><path d="m122.5 60.6.1.1c0-1.1-.1 0-.1-.1"/><path d="M121.9 49.5v1.1l.1.5z"/><path d="M122.7 43v.5-1.8z"/><path d="m64.5 3.5.3.1q1.4 0-.3-.1"/><path d="M22.8 3.6h-2.4z"/><path d="M3.7 110.7v-.8 1.6z"/><path d="m124.9 164.2.1-.7-.1-.6z"/><path d="M125.2 158.6c-.1-1-.2-2.1-.3-1.5l.2 2.2q0 1.4-.1 1.3l.1 1.7zc-.1-.3 0 0 0 0"/><path d="M125.4 77.2v.5z"/><path d="M125.5 26.8v.6z"/><path d="M125.6 18.2v.5z"/><path d="M125.4 77.2v-1.3z"/><path d="M124.9 147.4v.7z"/><path d="M125.5 99.5v.4l.1.3z"/><path d="M125.5 116.5q0-.5-.2-.7l.1.8q.1.2.1-.1"/><path d="M125.3 143.6v.5z"/><path d="M125.5 87.2V87q.1.2 0 .2"/><path d="M105.4 163.7q.2 0 0 0"/><path d="M125.2 164.3h-.3l-.1.1z"/><path d="M125.8 2.4s0 .1 0 0q0 .6 0 0"/><path d="M.7 20.7c.1-1.7.2 2.6.3.2-.1.2-.2-2.3-.3-.2"/><path d="M124.9 147v-.7z"/><path d="M1 20.9v-.3z"/><path d="m90.1.7.4.1z"/><path d="M117.2.8h-.7z"/><path d="M76.1.8h-1z"/><path d="M61.5.8h.8z"/><path d="m61 163.7.7.1c-.3 0 1.9-.1-.7-.1"/><path d="m124.9 147.4-.1-.4zq0 .2 0 0"/><path d="M75.5 1.8h-2.3z"/><path d="M1.7 119.1v.5z"/><path d="M66.3 1.8 65 1.7h-.3z"/><path d="M77 163.6c-2.2 0-1 .2-1.5.2-2.6 0-1.2-.1-2.1-.2l-4.1.2q-.3 0-.1-.1c-1.7.1-5.2 0-7.2.2h-.3l.3.2h-2.2l.9-.1h-1c-.9-.1 1.4-.1 1.4-.2-2 0-4.4.2-5.9.1-.3-.1 3.6 0 1.6-.2l2.4.1c-1.8-.2 1.5 0-.2-.2h-6.7c-.7.1.2.1-.5.2-4.5.1-3.5-.4-6.8-.2-.9.1-1.2.3-3.5.2l.8-.2c-3.1 0-1.7.2-5 .1l1.9-.1c-2.1-.1-1.5.1-3.1.1l-.3-.1-10.5.2-14.1-.2-1.7.1q-.7 0-.3-.1c-1.7 0-.1.1-.9.1q-1.5 0-.7-.1l-2.9.1-3.1.1v-2.5l.1-2.5v.6c.1-2.5-.3-2.8-.1-5.1v.4c.1-5.4-.1-11.3.1-15.4-.2-.8.1-5.3-.2-5.7l.3-6.5-.2-3.2h.1l-.1-1.9.2-1v-1.3l-.1 1.1v-3.3l.1-1.8-.1-5 .1 1.6v-2.9c0 .3-.1-.2-.1-.2v-6l.1.4V91.7c0 1.5-.2 1.1-.2-.1l.1-.6c-.1-.8-.1 1.3-.2-.3 0-1.5.2-1 .2-.2v-1.9l.1.4v-4.4l-.1-9.3-.1-2.3.1-8.2c-.1-2.1-.1-.6-.2-1.5.1-.2.1-3.1.2-1.6l-.1-9.1-.1.8c0-.8 0-1.9.1-1.7v.2c-.1-5.2.4-11.8.1-15.8v.2l-.1-4.2c0-1.9.1 1.2.1-.3-.2-4.5 0-7.1-.1-10.8.3-2.9 0-10.2.2-14.1v.3c-.1-1 0-1.2.1-2-.1.1-.1 1.1-.2.5v-4l10.4.1 10.9.1c3.2 0 1.8-.4 5.8-.2l-1.1.1 19.4-.1-1 .1h3l2-.1c1 0 .2.1.8.1H56h-.6c.9 0 4 0 3.2-.1H65c1.2-.1 4 .1 4.4-.1-.2.2 4.1.2 5.6.1-.5.1 1.3.1.7.1 1.7 0 3.3 0 3-.1 3.1.2 6.3-.2 8.1.1l14.3-.2c-.2.2-5 0-4.8.2l11.1-.2c1.1 0-.6.1-1 .1l12.2-.1-.8.1c.8 0 1.8 0 1.7-.1h-.7c-1.2-.1 3-.3 3.1-.3-1.3.2 3.8.1 1.8.4l1-.1h.3l-.2.1h.1V5l-.1-.8q.2 1.6.1 4.6c0-.1-.1.1-.1-.5 0 3.6.2 6.1.1 10-.2-1.2-.1 1.3-.2 1.5v2.1l.1-.8.1 5.1-.1-1.4v3.5l.1-2c.1 1.9.2-.2.2 2.3l-.1 2.8.1 3.2c-.1.4-.2-.3-.2-.1.1.9 0 4.3.2 5.5q0-.5-.1-.3l.1.8q0 1.2-.1.8c0 2.6.2-.8.1 2.2v-.6 8.7c-.2.8 0-2.5-.2-1.5l.2 12.3v-.7c.2.5-.1 2.9 0 4.9l-.1-.5.1 9.6-.1-.5-.1 5.9c.1.5 0 1.5.1.9-.3 5.3.2 10.1-.1 14.7l-.1-.9.1 4 .1-1.4.1 2.6c-.1-1.8-.2 0-.2.8l.1.1c-.2 2.1.2.3.1 3.2l-.1-.2.1 3.2c-.1.5-.1-1.1-.1-1.2l.1 4.6-.1-2.4-.1 3v-.1l-.1 2.7v-.7c.3 2 .1 4.1.2 6.8-.2-2.6-.1-.4-.2-.6l-.1 1.4c.1 1.3-.1 2.1.1 4 0 .1 0 1.4-.1 1.1 0 1.7.1-.4.1-.3.1 2.6-.2 6 0 9.8l.3 6.7c-.1 1-.2-.8-.2-.8v4.3l-.1.5c0 1.2.2.8.1 2.4l-.2-1.2.2 4.3c-.1.4-.1-.9-.2-1.4l.2 4.8v-1.1q0 .7-.1-.1-.1-2.1.1-2.1v1.1c.2-1.1 0-4.3 0-6.4l.2.9-.1-2.2c0-.5.1-.8.2.3v-2.7.1l-.1-1.5c0 .3.1-.2.1.7v-5.3.2c-.1-3.7-.1-.4-.3-3.2l.3-1.9-.1-.4c0-.4 0-1.1.1-1-.1-1.4-.1.2-.1-.6.1-1.8-.1-5.1.2-5.5-.1-.7-.1 1.8-.1-.2.2-.6 0-2.3.1-4 .1.5.1 2.1.2.4-.2-1 0-3.3 0-4.7-.2-.1-.1-3.1-.1-5.5.1.2.1-4.5.1-6.7v.1c-.2-.4-.1-2.7-.2-4.4l.2 1.3v-1.6l-.1-1.9.1.4-.1-6.9c-.1-.2-.3 2.1-.4-.7.1-.1.2-.2.2.5v-1.4l.1 1.1-.1-1.6.1-.6v1.2l.1-2.9-.1-.8c0-2.1.1-.7.1-1.9l-.1-1.9.1-1c-.1-1.1 0-5-.1-3.8v.3-11.1l-.1-6.2.1-1.2v-4.1c.1 1.6.1-.6.1 1.7v-4.8c.1.8.1-1.6.1-2.6l-.1 1.5V48l.1.5c.2-4.3-.3-7.7 0-10.9-.1-1.1-.1 2.3-.2 1.3l.2-4.6c.1-2.7-.2-2.5-.2-5.3-.1.4-.2.7-.2-1.4q0-3 .3-1.2v.7c0 .6 0 1.5.1.7l-.1-.3c.1-1 0-3.7.1-3 0-1.5-.1-.6-.1.5l.1-6.5-.1.4c.1-3.8-.1-1.7-.1-4.3.1-1.5.2.5.1-2.1.1-1.6.1-.3.2.3l.1-5.8v1.2-2l-.1.7.1-1.3c-.1-.8-.2.6-.3-.9V1.3v1.4q0 .2.1 0c0-.1.1-.3.1 1V1.9v.3V.4h-1.3l-.5.1-2 .1c.4-.1-.7-.1-1.2-.1 1.2 0 .6.1-.5.2H117h1.2q-.5.3-2.6.3c-.1-.1 1.2 0 .7-.1h-5.5c-1-.1-.1-.1-.9-.2h-5c.7.1.8.1-.9.2l4.1-.1-2.6.1h3.3c-1.2.1-1.1.1-.5.1-1.7-.2-3.3.1-5.3 0l.1-.2c-2.9-.1-5.2.1-9 .1h1.2l-3.6.1c.1-.1-.7-.1-1.2-.2.1.1-2.8 0-3.1.2L85.7.9l-6.4.2c.9-.1-.5-.2 1.5-.2h-5.5l-1.7.1s-1.7.1-.8.1c-3-.3-8.5 0-11.1-.2L55 1h.4c-2.7-.1-1.7.2-4.7.2-1.6-.1 1.6-.1.7-.1-.4-.3-3.7 0-5.7-.1h.5l-6.4.1h-7.6q1.2-.1.6-.2c-1.1 0 .3.2-1.9.2L28.4.9h2.1c-1.1-.2-2.7 0-3.8 0l.1-.1c-3.2 0-3.2.2-6.7.2h.4c-1.9.2-1.6-.1-3.4 0l-.6-.2-6.6.2 5.5-.3-4.8.1h1.6q-2.3.3-6 .3 0-.2-1.5-.2H.8v2.2L.7 4.4V18c.3-1.8 0 1.5.3 1.2v1.7l-.2 3.6c-.1.8-.1-1.1-.1-1 0 2.6-.1 1.1-.2 2.8.1-.3.1.9.1 2.4l.1-2.1c.1 3.6-.2 3.1-.1 6.7l-.1-1.1.1 8.6c0 4.4.2 9.9.1 13.3l-.1-.3.1 2.5q0-.3-.1 0l.1 3.3-.1-.9c0 4.3.3 6.6.3 10.2-.2 0-.2 3.4-.3 5.1v-.1l.2 13.3C.6 90.1.7 97 .6 101.7c0-.7.1.1.2.9v2.9-.4c-.2.8-.1 3.1-.1 4.8l.2.3c-.3 4.6.1 12-.2 14.5l.1 3.6-.1-.1v8.4l-.1-.8c0 2.1.3 2.7.4 4.7l-.2.6v11.2l-.1-.8c0 1.8-.1 6.8.1 6.2l-.1 2.2.1 3.7-.1-.4.1 1.3 1.7-.1 2-.1q.9 0-.3.1h3.7l-.8.1 2.8-.1 4 .1q.6-.2 2.5-.1l-.5.1h7l.4.1h-4.4c0 .1 2.1.1.4.3 1.7-.1 4.5-.3 6.5-.2h.3-.2 3l3.4.1c-.1-.1 1.3-.1 0-.2H31h.1-2.6 2.8l1.4-.2 4.5.4c3.2-.1 7.4 0 9.4-.3l1.4.1-1.4.1c1.8-.1 5.3 0 5.7-.2 2.3.1-1.3.1 1.8.1h-.4c6.1.2 9.9-.4 16.7-.1l-.8-.1c7.7.1 15.9-.1 23.6.1l3.7-.1.5.1 2.3-.1c3.2-.1 5.6.3 9.6.1l-.5-.1h5.4v.1l3.6-.1c2.8 0-.4.3 3.6.3l3.7-.2-1.6-.1h1.4c.2-.2 1.3-.4-2.1-.5l-2.4.1-.8-.1h2-2.6l-1-.1-2.3.2c-.3-.1 1-.2-.5-.2-1.1.1 1 .2-.8.2-1.1-.1-.8-.2-2.1-.1q-.2-.1.6-.1l-3.7.1c-1.2-.1-4 0-3.9-.2l-3.2.2c2-.2-4.1 0-3.5-.3-1.5.2-5.3.1-7.9.2h.7l-2.8-.1c-.2.2-2.5.2-3.7.3-1.8-.2 1.1-.2.5-.3.1.1-3.1.1-2.5.2-1.4-.1-1.2 0-1.9-.2-.2.2-1.3 0-2.4.2-2-.1-.5-.2-2.7-.1-.9-.2 1.1-.2 1.1-.2m-51.7.3h1.1zm-4.4 0h1.9l-.4.1zm9.2.8h-1 1.3z"/><path d="M31.4 164.6h.3-.6z"/><path d="M1.8 124h-.1l.1.3z"/><path d="M125 101.8v.3z"/><path d="M125 112.1v1.5z"/><path d="m124.9 120 .1.2z"/><path d="M117.7 1.6h-.3z"/><path d="m125 31.3-.1-1.2z"/><path d="M75.7 1.8h-.3z"/><path d="M125 28.3V30z"/><path d="M124.8 154.5v.4z"/><path d="M124.9 154.9v.4z"/><path d="M124.9 156.2v-.9z"/><path d="m124.9 140.8-.1 3v.1c0-.5.2-2.4.1-3.1"/><path d="M125.4 127.4v2.7c0-.5.1-1.1.1.1.1-3.3-.1.7-.1-2.8"/><path d="M125.5 119.1c0 1.5 0 0 0 0q0-1.4 0 0"/><path d="m125.5 59.1.1.1c0-1.1-.1 0-.1-.1"/><path d="M124.9 47.6v1.1l.1.5z"/><path d="M125.7 40.8v.5-1.8z"/><path d="m64.1.7.3.1c.7.1.9-.1-.3-.1"/><path d="M20.5.9H18z"/><path d="M.7 112.4v-.9 1.7z"/><path d="m50.9 89-4.2 1.2h-.6c-2 .1-4 .5-5.9.4a23 23 0 0 1-19-11.4q-1.2-2-2.2-4.3l-1.2-4.2v-.5a24 24 0 0 1 .7-12.2 41 41 0 0 1 31.3-27.5q.5 0 .9-.6a26 26 0 0 1 9.3-7.8l2-.9 3.9-1.1 4.3-.5Q83.6 19 95 26q7 4.1 11.3 11.1l2 4 1.1 3.7v.6q.7 4.2-.1 8.3a23.4 23.4 0 0 1-21.2 20.1q-8 1-16-1.3-1-.3-1.4.5a43 43 0 0 1-15.6 13.8q-2 1.3-4.2 2.2m47.4-47.4.9.8.2-.2-1.6-1.9-.2.1.6 1-1-.4-.1.1 1.6 1.8.2-.1zM56 60.7l-.5-.1-.1.2 4.1 3.3.1-.2-1.1-1.1.7.3.1-.1zm7.6 14.8L62 77a47 47 0 0 1-14.2 9.2l1.1-.3a40 40 0 0 0 14.7-10.4l2.1-2.2-.3-.2zm-21-27.8-.6.3a36 36 0 0 0-12.6 17.2q-.8 2.4-1.3 5l2.4-6.6q.7-1.9 1.7-3.6 1.5-2.4 3.3-4.6l3.1-3.6 1.8-1.8q1-1.2 2.2-2.3c1.2-.2 1.9-1.3 3-1.8l-.2-.3zm19 11.2 1.1.4.3-1 1.7-3.4q.3-.6-.3-1-2-1.3-3.8-2.9a22 22 0 0 1-7.7-12c-1.2-5.6.2-10.5 5-14q5.2-3.6 11.4-4 18.6-1.3 32.1 11.6 5.5 5.2 6.4 12.7.3 3.9-1.9 7.2a16 16 0 0 1-9.6 7 34 34 0 0 1-18.2.2l-1.1-.3q-.3 1 .6 1l3.5.8v.2l-4.2-.8-.3.8 3.2.7 1.2.4-4.5-.8-.3.7.8.2q3 .6 6.1 1c5.6.5 11.1 0 16.3-2.5q3.6-1.7 5.9-4.8h-.2l-.2.2a19 19 0 0 1-8.4 5.1 35 35 0 0 1-14.2.9q6 .7 11.7-.5 6.9-1.3 11.4-6.8l.7-.7.1.6 2.2-5.5.3.1c-.4 3.9-.6 7.9-3.4 11.1l.8-.4q-2 4.5-5.9 7.5a25 25 0 0 1-15 4.8 46 46 0 0 1-12.3-1.4c-.3-.1-.8-.3-.9.3l.4.2a37 37 0 0 0 18.4.8 22 22 0 0 0 16-12.5 24 24 0 0 0-5.4-28.5 41 41 0 0 0-33.2-11.2q-14.3 1.6-20 15.2a16 16 0 0 0-.4 11.3q1.4 4.3 4.4 7.6l.9 1.3 2.3 2.2 2.9 2.7q.5.4 1.1.6l.5.4.8.6c.3.2.4-.5.7-.8l-1-.7a34 34 0 0 1-11.8-13c-.7-1.5-1.4-3.1-.8-4.9 1.7 8.4 7.1 13.8 14 18.5l.1-1.2.9-.6zM26.5 63l.3-1.5a37 37 0 0 1 11.7-16.4l1.8-1.4-.7.2q-4 3-7.3 6.8l-1 1 .3-.6a40 40 0 0 1 14.3-11.5l.7-.7-.2-.2-1.6.7q-4.4 2-8.2 5.1l.7-.7q4.1-3.5 9.1-5.5l.6-.6-.2-.2a38 38 0 0 0-10.5 5.7l.2-.3q4.6-3.8 10.1-6l.8-.6-.2-.2q-5.2 1.6-9.8 4.6 4.7-3.6 10.2-5.6A36 36 0 0 0 35 40.9q5.5-4.5 12.3-6.5.8 0 .9-1c-5.5 1.3-10.2 4-14.7 7.3a35 35 0 0 1 15.1-8.1q-4.2.4-7.9 2.3a42 42 0 0 0-17.5 16.8 28 28 0 0 0-3.9 13.8l.5-.5a22 22 0 0 0 1.2 7.8l-.7-5.3q-.1-4 .8-5.3l-.3 5.3q0 2.6 1 5.4c-.9-5.5-.9-7.4 0-10.7a28 28 0 0 1 4.3-9.3 31 31 0 0 0-4.2 12.7q-.4 4.2 1.2 8-1.4-4.7-.4-9.4c1-4.7 1.7-6.1 3.3-8.8-2.8 6.1-4.5 12.3-1.8 18.9l-.8-3.4q-.6-3.9.5-7.6 1.4-5.5 4.7-10.1l-1.4 2.7a27 27 0 0 0-3.3 13.3q.1 2.5 1 4.8l-.2-1.6q-1-3.3-.2-6.6 1.3-6.9 5.2-12.5l1.4-1.6-.6 1.1a26 26 0 0 0-5.4 19l.9 3.1.3-.1-.6-2.1.2.2.2-5.9-.3.5c-.8-1.4-.1-2.7.2-3.9l-.3 2.2q1.3-1.4.8-2.8m61.9-30.8q-.6 0-1.1-.3a42 42 0 0 0-10.5-3.1l-.9-.1c10 2 18.7 6.2 24.7 14.8l-.1.2-.4-.5-.1.1.4 1.2-.7-.6 3.4 7h.1l-1-3.5.2-.1.5 1.6q.2-.3.1-.7-1.1-3.4-3.1-6.3a30 30 0 0 0-9.9-8.6zl1 .4q3.2 2 6.3 4.3 4.9 3.8 7.1 9.5l1 3.4c-.8-7.3-5.3-12-10.7-16.2 5.6 3.8 10.2 8.4 11.5 15.6q-.1-3-1.7-6.4a29 29 0 0 0-9.4-10.2l-.8-.6.6.3q3.6 2.3 6.4 5.3 3.7 3.9 5.2 9.1l.3 1.6c-.9-7.6-5.6-12.6-11.3-16.9 6.2 4.1 11.1 9 12.2 17v-1.1q-.7-4.9-3.4-8.8l-.5-.9.2-.1q2 2.3 3.1 5.1c1.1 2.8 1.1 3.9 1.7 6 0-3.4-1.3-6.3-2.5-9.2 1.2.9 1.5 2.3 2.1 3.6v-.4l-.2-.8q-2.2-6.4-7.4-10.5a41 41 0 0 0-27.4-9.7 24 24 0 0 0-12.6 3.2q-2.4 1.3-4 3.7l.3-.1q4-3.9 9.5-5.1 6.8-1.7 13.7-.3l5.8 1.4v.3a33 33 0 0 0-22.7.5 31 31 0 0 1 21 .1q-.6-.4-.7-.3-6.7-1.9-13.6-1-6 .6-11.1 4-2 1.3-3.3 3.3 4.4-4.9 10.9-6.2c4.5-1 10.8-.6 12.6.1l-.9-.1q-7.6-1-14.8 1.6-3.6 1.3-6.3 4.1h.1l.3-.2q3.2-2.8 7.3-3.9 6.8-1.9 13.8-.6l5.9 1.5-.8-.1a36 36 0 0 0-13-1.3 23 23 0 0 0-11.1 3.5l-1.2.9-1.1 1c7.4-5.7 15.6-5.6 24.2-3.7h-.5l-4.7-.7c-5.3-.4-10.4.1-15.2 2.6q-2 1-3.5 2.7l1.7-1.2a25 25 0 0 1 11.6-3.6q7.4-.4 14.3 2.2zm-25 3.6.3.5q2.4 2.9 3.1 6.6 1 7.3-2.1 13.9A41 41 0 0 1 43.1 78q-5.9 2.7-12.3 2-6-.7-9.6-5.4c-1.4-1.7-1.8-3.9-2.2-6q-1-6 1.3-11.5 4-10.6 12.7-17.6 7-6 16.1-7.6l.9-.5-.1-.3-2.9.5q-7.4 1.9-13.4 6.7A40 40 0 0 0 19.1 59a23 23 0 0 0 6.4 24.3Q32 89.7 41.1 90q7.2 0 13.5-3.5a43 43 0 0 0 20.6-23.4l.7-2.4.1-.2c1.5-5.5 1.4-11-1.3-16.2q-1.1-2-2.4-3.7l-.2.1.4.7a24 24 0 0 1 3.3 18.5v.8l-.4.6-.8 2.3Q70 75 60.2 82.3A34 34 0 0 1 44 89.5a21 21 0 0 1-14-3.6l1.2.2 1.1.6q1.8.6 3.8.8 6.6 0 12.7-2.5a41 41 0 0 0 17.1-13.4l1.3-1.5.7-1 .8-1.2.4-.7 2-3.1.1-.5.8-2q.4-.5.5-1 .9-3.5 1.5-7.1a17 17 0 0 0-2.2-12.2 24 24 0 0 0-7.3-6.9c-1-.7-1.9-.2-2.9-.1l-.1.3.6.3q.8.4 1.3.9m-5.5 30.4c-6.6-5-11.7-10.8-12.3-19.6l-.7.4a44 44 0 0 0-7.8 7.1q-6.3 7-8.3 16.2-1 4 .2 7.9.3.7 1 .9 4.7.8 9.2-.5a37 37 0 0 0 18.7-12.4m18.9-7 .5.2q6.5 1.8 13.1 1.1a21 21 0 0 0 9.7-2.9c2.6-1.6 2.6-1.7 1.8-4.6q-1.5-4.7-5.3-8a41 41 0 0 0-28.1-11.4l-3.4.1c9.1 6.2 14 14.2 11.7 25.5M54.2 42.3c.9 3.4 6.6 9.5 10.7 11.4l.1-.1q1.9-5.5.8-11.2-.2-.7-.8-.8a19 19 0 0 0-10.8.7m20.2 24.6.4.1a40 40 0 0 0 19.4.7c3-.7 5.8-1.7 8.1-3.9q.8-.9 1.8-1.4.7-.3.3-.9l-.3.2q-3.5 3-7.9 4.5-6.5 2-13.3 1.3l-8.3-1.2zm.8-2a39 39 0 0 0 17.2 1q6-1 10.5-4.7l.5-.5-.4.1a19 19 0 0 1-6.8 3.4 38 38 0 0 1-15.8.8l-5-.9zm.4-1.2.7.2q4 .8 7.9 1.2 7.8.7 14.9-2.5 3.2-1.5 5.5-4.2l-.4.2a19 19 0 0 1-7.7 4.4 37 37 0 0 1-18.6.4l-2.1-.5-.2.5zM46.3 42.1q.2 0 0 0v.6q-.6 5.4 1.7 10.5c2.1 5 5.7 8.8 9.9 12l.7.2-.3-.6-5.6-5.5a16 16 0 0 1-4.8-9.3l-.5-3.1zm55.6 20.8c-8.6 4.9-17.6 4.4-26.8 2.3l-.3.8 1.1.3a36 36 0 0 0 20.4-.5q3.2-1 5.6-2.9m-25.6-8.3a44 44 0 0 1-27.5 33.5l.9-.2L52 87a42 42 0 0 0 23.4-26q.8-3.1.9-6.4m-2.1 12.7-.3.8a35 35 0 0 0 22-.4 41 41 0 0 1-21.7-.4M50.9 86.5a40 40 0 0 0 17.4-14 38 38 0 0 0 7.1-16.2 46 46 0 0 1-24.5 30.2m48.5-39.2a32 32 0 0 0-11.3-10A38 38 0 0 0 73 33a41 41 0 0 1 26.4 14.3M48.7 86.7c9.4-3.5 16.3-10 21.5-18.4a52 52 0 0 1-21.5 18.4M28.4 63a45 45 0 0 1 14.4-18 37 37 0 0 0-14.4 18m-.7-.8.3.1q4.1-10 12.5-16.7-.5.1-.9.4l-.8.8a34 34 0 0 0-6.6 7.1l-.9 1.3-2.7 4.7q-.5 1-.9 2.3m68.5-22.1.1-.2-.5-.7-2-1.5q-2-1.6-4-2.9c-2-1.3-2.9-1.5-4.4-2l-5.7-1.9-1.9-.4-.1.2a41 41 0 0 1 18.5 9.4m-18.9-8.5a45 45 0 0 1 18.5 9.1q-7.8-7.4-18.5-9.1m17.6 9.5a34 34 0 0 0-18-8.5 42 42 0 0 1 18 8.5M89.2 72a50 50 0 0 1-16.8-1.2A33 33 0 0 0 89.2 72m-1.3-.5-7.4-.3-7.8-1.2a33 33 0 0 0 15.2 1.5m-47-23.8a36 36 0 0 0-10.9 14q4.1-8 10.9-14m47.2 23.2q-3.6 0-7.4-.4c-3.8-.4-5-.8-7.4-1.2q7.3 2.4 14.8 1.6M71.9 33v-.2l-3.4-.1A29 29 0 0 0 58 34.4q-1 .4-1.7.9l.1.2.6-.3q2.3-1 4.8-1.7 4.7-.9 9.4-.6zM89 70.1h-5.2q-2.6-.1-5.2-.5l-5.1-.9A37 37 0 0 0 89 70.1M54.6 37.3l5.7.5q-2.5-.9-5.2-.7-.3 0-.5.2M30.3 54.8l.2.2 4.8-6.2-.1-.1zm-3.6 11.4.9-3q-1.1 1.1-.9 3m33.1-29.4.1-.2-3.5-.6v.3zm34.9.6-.2.2 2 1.8.2-.2zm-6.4-3.9.1-.2-2.5-1.2-.1.2zM28.7 57.8q.2 0 0 0l1.5-2.4h-.1z"/><path d="m62.4 34.8 1.6.9 1.2 1.3q1.8 2.5 2.3 5.4l.4 5q0 .3-.3.6v-.8c0-3.5-.6-6.8-2.6-9.7l-1.6-1.8q-.6-.4-1-.9"/><path d="M48.2 80.4c-5.5 3-12.9 5.1-19.2 3.2l3.4.9q6.1.9 12.1-1.4 4.9-1.8 9.2-4.6l-1.4.9-1.4.9q-5.7 3.5-12.2 4.7t-12.1-2c1.1.9 3.1 1.8 4.8 2.2q7.5 1.5 14.6-1.4l5.6-2.4-4.4 2.2a27 27 0 0 1-12.1 2.7q-4-.1-7.5-1.9-.9-.4-1.5-1.2-2.8-2.8-4.8-6.3-.3-.4-.3-.9l2.4 2a17 17 0 0 0 9.5 3.6q6 .4 11.4-2 7.8-3.2 13.7-9.3l.3-.2h.2L56.6 72a42 42 0 0 1-16.3 9.3q-6 1.8-12.1 0H28l-.1.2 3.6 1c4.1.8 8 0 11.9-1.3a41 41 0 0 0 12.7-7.6l.2.1-2.8 2.2a37 37 0 0 1-13 6.4 21 21 0 0 1-11.9-.1h-.2c1.6 1.2 6.4 1.8 10 1.2q5.2-.7 9.8-3"/><path d="M65.2 37.1 64 35.8l1.5.9-.2-.4c1-.2 1.5.6 2.2 1.1a13 13 0 0 1 5.2 6.4q2 4.8.9 9.8-.8 3.4-1.9 6.7l-.2.4 1.7-6.7q.8-3.5 0-7c.4 7.2-2.1 13.5-6 19.4 4-6.8 6.6-14 4.7-22.1a28 28 0 0 1-5.2 20.6c4.1-7.2 6.4-14.6 3.7-22.8 2.3 8.5-.7 15.8-5 22.9 3.9-7 6.3-14 4.4-22 .3 2.1.6 4.3.1 6.5h-.3l-.1-1.3a21 21 0 0 0-1-6.5c0 1.4.8 2.7.3 4h-.2l-.3-1.1q-.6-2.4-1.4-4.7-.7-1.5-1.7-2.8"/><path d="m36.6 80.9 9.5-3.1a31 31 0 0 1-9.5 3.1"/><path d="m54.1 76.8 7.4-6.7c-.6 1.1-5.8 5.9-7.4 6.7"/><path d="m66.7 53.5.8-4.7q.3 2.3-.8 4.7"/><path d="m53 73.2 3.6-3.2.1.2-3.6 3.1z"/><path d="m63 58.4-2.7-1.7q-6.3-4.3-9.6-11.2-1-2.4-1.5-4.4.4 3.4 2.1 6.6 3.6 6.3 9.4 10.4l.8.8a28 28 0 0 1-13.1-17.6q.2 3.4 1.8 6.4a30 30 0 0 0 9.7 11.2l.8.6-.5-.2Q53.6 54.9 49.7 48q-1.6-2.9-1.9-6.1 0-1.4.3-2.6l1.4-4.9.4.4.8-1.7v.7l.5-.8.1.7.4-.8-.1 4v.3a9 9 0 0 0 .6 4.3q.3.7.3 1.6-1-.7-1.1-1.8c-.1-1.1-.3-1.4-.5-2.1.2 2.8 1.3 5.2 2.3 7.8a16 16 0 0 1-3-6.1q.6 3.7 2.6 7 3.7 5.9 9.5 9.8z"/><path d="M98.5 59.7A22 22 0 0 1 87.8 62l5.4-.8z"/><path d="M51.4 37.4v-.3l.3.5a21 21 0 0 0 2.4 6.9l.1.6a18 18 0 0 1-2.8-7.7"/><path d="m57.3 49.6-3-3.9.3-.2 2.9 3.9z"/><path d="m101.1 58.5-2.2 1.2-.1-.3 2.2-1.2z"/><path d="m19.9 63.7 1-4.6h.2l-1 4.6q-.1.1-.2 0"/></svg>