<?xml version="1.0" encoding="utf-8"?>
<!-- Generator: Adobe Illustrator 25.2.3, SVG Export Plug-In . SVG Version: 6.00 Build 0)  -->
<svg version="1.1" id="Layer_1" xmlns="http://www.w3.org/2000/svg" xmlns:xlink="http://www.w3.org/1999/xlink" x="0px" y="0px"
	 viewBox="0 0 59.9 53.5" style="enable-background:new 0 0 59.9 53.5;" xml:space="preserve">
<style type="text/css">
	.st0{fill:#1E8C50;}
</style>
<path class="st0" d="M57.3,38.9c-0.1-1.3-0.3-2.7-0.4-4c-0.1-1.1-0.1-2.2-0.1-3.3c0,0,0,0,0-0.1c0.1-1,0.2-2,0.2-3
	c0-1.3-0.2-2.7-0.1-4c0-1.9,0.2-3.8,0.2-5.6c0-0.8-0.9-3.2-1-3.5c-0.6-1.1-1.6-2.8-3.4-3.5c-1.7-0.7-2.9-0.6-3.4-0.8
	c-1.5-0.6-4.1-0.2-5.7-0.3c-0.8,0-1.6,0.1-2.5,0.2c0.1-2,0-3.8,0.2-5.5c0.1-0.8,0-1.4-0.6-1.9c-0.5-0.4-0.7-0.7-1.5-0.5
	c-0.6,0.2-1.6,0-2.2,0c-2.3,0-4.2,0.1-6.4,0.1c-0.9,0-1.8-0.2-2.8-0.2c-1.6,0-3.2,0.2-4.8,0.3c-0.6,0-1.7,0.2-1.8,0.9
	c0,0.2,0.1,1.7,0.1,1.9c0.2,1.2,0.1,2.4,0.2,3.6c0.1,0.5-0.2,0.7-0.6,0.7c-0.9,0.1-1.6,0.1-2.5,0.1c-1.3,0-1.7-0.1-3,0
	c-1.4,0.1-2.9,0.3-4.3,0.5c-1.1,0.2-2.4,0.2-3.4,0.7c-1.6,0.8-3.3,1.7-4.4,3.3c-0.7,1.1,0.2,4.5,0.2,4.8c0,1.7-0.1,3.3-0.1,5
	c0,1.2,0,2.3,0,3.5c0,1,0,2,0,2.9c0,0.7,0.1-0.1,0.1,0.6c0,1.6,0,3.2-0.2,4.8c-0.2,1.6,0.3,3.1,0.7,4.6c0.1,0.3,0.1,0.6,0.3,0.8
	c0.5,0.7,1.1,1.5,1.7,2.2c0.8,0.9,1.5,2,2.9,2.3c1.1,0.3,2.2,0.8,3.3,1.2C12.2,47.8,12,48,12,48.1c0,0.5,0.3,1.4,0.8,1.5
	c1.1,0.3,1.5,0.5,2.8,0.3c1.1-0.2,1.7,0,1.5-0.4c0.3,0,0.6-1.5,0.8-1.5c1.5-0.1,8.7-0.2,9.8-0.3c1.5-0.1,2.9,0.2,4.3-0.5
	c0.1,0,1.3,0,1.8,0c0.7,0,1.3-0.1,2-0.1c1,0,2,0.1,3,0.2c0.5,0,1.4-0.2,1.9-0.1c0.2,0,2.2,0.3,2.2,0.3c0.2,0.9-0.2,2.9,1.4,2.6
	c0,0,0.1,0,0.1,0.1c0.9,0.3,1.7,0.4,2.4-0.4c0.1-0.1,0.2-0.1,0.4-0.1c0.7-0.2,1.1-0.6,1-1.3c-0.2-0.3-0.3-0.5-0.5-0.8
	c0.3-0.1,0.6-0.2,0.9-0.2c0.9,0,1.8,0,2.4-0.8c0.1-0.1,0.3-0.3,0.5-0.3c0.7-0.1,1.2-0.5,1.6-1c0.7-0.8,1.6-1.4,2.4-2.1
	c1.2-1.1,1.3-2.6,1.8-4C57.4,39.2,57.3,39.1,57.3,38.9z M24,5.5c2.5-0.1,5-0.2,7.6-0.2c1.6,0,3.2,0.2,4.8,0.3c0.3,0,0.6-0.1,0.9-0.3
	c0.6-0.3,1.4,0.2,1.4,0.9c0,0.7-0.1,1.5-0.1,2.2c0,0.7,0.1,1.4,0.2,2.1c-4.8-0.1-9.9-0.2-14.8-0.3c-0.3-1.5-0.2-3-0.4-4.4
	C23.6,5.8,23.9,5.5,24,5.5z M7.1,15.8c0-0.1,0.1-0.2,0.2-0.2c0.5-0.2,1.1-0.9,1.6-1.1c1-0.4,2-0.8,3.1-1c0.7-0.2,1.5,0,2.2,0
	c0.6,0,1.1-0.2,1.7-0.2c1.5-0.1,2-0.1,3.5-0.2c0.2,0,0.5,0,0.7,0c1,0,4.8,0,4.9,0c1.8,0.1,3.6,0.2,5.4,0.2c1.1,0,2.3-0.1,3.4-0.2
	c0.8,0,1.6,0,2.4,0c1.7,0,3.5-0.1,5.2,0c1.2,0,3.4,0.1,4.6,0.1c0.7,0,1.5-0.2,2.2-0.2c1,0.1,3.1,0.6,4.6,2.2c0.2,0.5,0.5,1,0.7,1.4
	c0.1,0.3,0.3,0.6,0.3,0.9c0.6,2.1,0.4,5,0.4,6.1c-1.2,0-2.5-0.1-3.6-0.3c-1.2-0.3-2.2-1.1-3-1.8c-1-0.8-2-1.4-3.4-1.7
	c-2.7-0.5-4.5,0.7-6.1,1.9c-1.1,0.8-2.5,1.3-3.8,1.7c-0.4,0.1-1,0.1-1.4,0c-2.2-0.5-4.2-1.1-5.9-2.3c-1.5-1-3.5-1.2-5.6-1
	c-1.9,0.3-3.2,1.1-4.7,1.8c-1.9,1-4,1.9-6.2,2.6c-1.5,0.5-3.2,0-4.2-1c0-0.2,0-0.4,0-0.6c-0.1-1.3,0-2.5-0.1-3.8
	C6.2,17.7,6.1,17.2,7.1,15.8z M54,41.2c-0.2,0.3-0.5,0.6-0.8,0.9c-1,1-2.1,1.9-3.4,2.5c-1.2,0.6-2.6,0.8-3.9,0.3
	c-0.2-0.1-0.4-0.1-0.5-0.1c-0.6,0-1.1,0-1.7,0.1c-0.6,0-1.2,0-1.7,0c-1.2-0.1-2.4-0.1-3.6-0.2c-1.2-0.1-2.5,0-3.7,0
	c-1,0-2.1,0-3.1,0c-0.5,0-1,0.2-1.5,0.2c-1.7,0.1-3.5,0.2-5.2,0.4c-1.4,0.1-2.9,0.1-4.3,0.1c-1.6,0-5.5-0.4-5.7-0.3
	c-1,0.6-2,0.3-3,0.2C10.9,45,9.9,44.8,9.2,44c-0.3-0.3-0.7-0.5-1-0.9c-1.4-1.8-1.5-1.8-1.6-4.1c0-1.9,0-3.7,0-5.6
	c0-1.9,0-2.4-0.1-4.3C6.4,28.1,6.4,27,6.4,26c0.4,0.2,0.8,0.4,1.2,0.6c2.3,0.9,4.9,0.4,7.2-0.9c2.1-1.2,4.4-2.4,6.8-3.4
	c1.2-0.5,2.5-0.5,3.9,0.1c1,0.4,1.5,0.9,2.3,1.4c0.7,0.5,1.8,0.7,2.5,1.2c1,0.6,2.1,0.5,3.2,0.6c0.1,0,0.2,0,0.3,0
	c1.3,0.8,2.3,0.1,3.3-0.4c1.5-0.8,3-1.6,4.6-2.4c0.7-0.3,1.7-0.6,2.5-0.7c1-0.2,1.5,0.4,2,0.9c2,2.2,4.6,3.2,8,3.3
	c0,0.6,0,1.2,0,1.8c0,0.8,0.1,1.5,0.1,2.3c0,0.4,0,0.8-0.1,1.2c-0.3,1.1-0.2,0.7,0.1,1.8c0,0.1,0,0.1,0,0.2c0.1,1.7,0.1,3.3,0.2,5
	C54.7,39.4,54.6,40.4,54,41.2z"/>
</svg>
