<?xml version="1.0" encoding="utf-8"?>
<!-- Generator: Adobe Illustrator 25.2.3, SVG Export Plug-In . SVG Version: 6.00 Build 0)  -->
<svg version="1.1" id="Layer_1" xmlns="http://www.w3.org/2000/svg" xmlns:xlink="http://www.w3.org/1999/xlink" x="0px" y="0px"
	 viewBox="0 0 59.9 53.5" style="enable-background:new 0 0 59.9 53.5;" xml:space="preserve">
<style type="text/css">
	.st0{fill:#1E8C50;}
</style>
<g>
	<g>
		<path class="st0" d="M6.5,35.1c0,1.7,0,3.3,0,5.1c0.2-0.1,0,2.2,0.3,3.3c0.1,0.5,0,0.9-0.1,1.3c-0.1,0.8-0.1,5.5,0.1,5.9
			c-0.6,0.6-1.1,0.9-1.9,1c-0.3,0-0.6-0.5-0.9-0.8c-0.1-0.1,0.3-2.3,0.3-2.5c0.2-0.9,0.3-1.9,0.4-2.8c0.1-1.1,0-2.3,0-3.5
			c0-1.2,0-2.3-0.1-3.5c-0.2-1.6-0.2-3.2-0.1-4.8c0-0.9,0.2-1.8,0.2-2.7c0-0.4-0.1-0.7-0.1-1.1c0-1.1-0.1-2.1,0.2-3.2
			c0.3-1.2-0.2-3.3-0.2-4.5c0-2.2-0.1-4.4-0.2-6.6c0-1.4,0-2.9-0.1-4.3c-0.1-1.1-0.6-6.2-0.5-6.3C4.9,4,5.1,3.9,6.7,4.5
			c0.1,0,0.2,0.1,0.3,0.1C7.6,4.8,8.2,5,8.2,5.6c0,0.7-0.3,1.2-0.9,1.6C7.2,7.3,7,7.4,6.9,7.5C6.7,7.8,7.1,7.7,7.3,8
			c0.7,1.2,2.2,1.5,3.4,2.1c1.5,0.9,3.2,1.4,4.8,2.1c1,0.4,1.9,1,2.8,1.5c0.9,0.5,1.8,0.8,2.8,1c0.7,0.1,1.4,0.4,2,0.7
			c0.3,0.1,0.4,0.4,0.6,0.7c-0.1,0.1-0.1,0.1-0.1,0.1c-0.6,1.6-2.1,1-3.3,1.1c-0.1,0-0.3,0-0.4,0c-0.8,0.6-2,0.6-2.9,0.9
			c-1,0.4-2,0.6-3,1c-1.4,0.6-2.7,1.2-4.1,1.8C9,21.4,8,21.7,7,22.1c-0.1,0.7-0.3,2.4-0.4,3C6.7,25.4,6.5,34.8,6.5,35.1z M7.4,10.9
			c0,1.6,0.1,2.9,0,4.3c-0.1,1.3-0.3,2.7-0.5,4c0.1,0,0.1,0,0.2,0c0.1-0.3,7.3-1.8,10.7-3.3c-0.6-0.4-1.1-0.8-1.6-1.1
			c-1.2-0.6-2.4-1.2-3.7-1.5c-1.4-0.3-2.4-1-3.6-1.7C8.4,11.4,7.9,11.1,7.4,10.9z"/>
	</g>
	<g>
		<path class="st0" d="M56.2,51.7C57.1,51.3,56.2,51.7,56.2,51.7c0.4-0.2,1.2-0.7,1.2-1c0-0.3-0.3-0.9-0.5-1.5
			c-0.1-0.2-0.2-0.5-0.3-0.7c-0.5-1-0.9-1.9-1.3-2.9c-0.3-0.8-0.5-1.6-0.7-2.4c-0.9-3.4-3.3-11.6-3.3-12.6c0-0.6-0.7-2.8-1-3.4
			c0,0-1-1.3-1.2-2.7c-0.1-0.7-0.6-3.7-1.6-3.6c-0.3,0-1.1-0.4-1.3-0.5c-0.5-0.1-0.9-0.2-1.4-0.2c-0.5-0.1-1,0.1-1.4,0
			c-0.7,0-1.3,0-2,0c-1.2,0-2.4-0.1-3.6,0c-1.8,0.2-3.6,0.1-5.4,0.3c-1.3,0.2-2.7,0.4-4,0.6c-0.7,0.1-1.5,0.1-2.2,0.2
			c-0.9,0-3,0-3.9-0.1c-0.9-0.1-1.6,2.2-1.7,2.5c-0.2,0.5-0.4,1.1-0.7,1.5c-0.4,0.7-0.7,2.6-1.1,3.3c-0.1,0.3-0.1,0.6-0.3,0.9
			c-0.5,1.1-1.1,2.1-1.5,3.2c-0.8,2-1.5,4.2-2.2,6.2c-0.2,0.6-0.4,1.1-0.6,1.7c-0.2,0.5-0.8,0.7-0.6,1.5c0,0.1-0.1,0.2-0.1,0.2
			c-0.7,0.5-0.4,1.9-1.4,2.2c0,0,0,0.2-0.1,0.2c-0.2,0.4-0.3,0.8-0.5,1.1c-0.2,0.4-1.9,3.1-2,3c0,0.1-0.1,0.2-0.1,0.3
			c-0.5,0.5-0.5,1,0.1,1.5c0.5,0.4,1.2,0.8,1.8,1c1.2,0.4,2.4,0.2,3.5,0.1c0.5-0.1,1.1-0.1,1.6-0.2c0.7,0,1.3,0,2-0.1
			c1-0.1,10.8,0.1,10.9,0.2c0.3-0.1,0.7-0.3,0.8-0.2c0.5,0.8,3.2,0.1,3.3,0.1c0.8-0.1,4.5,0.2,4.6,0.2l1.8,0
			c0.1-0.3,5.1-0.1,5.3-0.1c0.1,0,0.3,0.1,0.4,0.1c0,0,3,0,3,0c0-0.3,2.1-0.3,2.7-0.4c0.6-0.1,1.3,0.3,2,0.1
			C53.2,51.4,55.3,52,56.2,51.7z M32,43.4c-0.5,0.7-0.6,1.5-1.2,2.2c-0.6,0.8-0.8,2.5-1.6,3.2C29,49,28.4,48.9,28,48.9
			c-1.8,0-4.9-0.3-6.8-0.3c-0.7,0-1.5,0-2.2,0.1c-0.6,0.1-1.2,0.3-1.9,0.4c-1.2,0.2-2.4,0.4-3.6,0.6c-0.2,0-0.5,0-0.9,0
			c0.1-0.5,0-1,0.5-1.2c0.3-0.1,0.6-1.2,0.4-1.9c-0.1-0.3,0.1-0.7,0.2-1.1c1.3-3,2.5-6.1,3.9-9.1c0.2-0.4,0.6-0.6,0.9-1
			c-0.1-0.7,1.6-5.2,2.2-5.6c0.5-0.4,0.6-1.1,0.9-1.6c0.2-0.5,1.3-4.3,1.4-4.6c0.9,0.1,7-0.7,7.6-0.4c1.1-0.2,1.3-0.5,1.3-0.5
			c0-0.1,4.3-0.3,4.3-0.3c-0.1,0.1,4.8-0.2,6-0.1c0.2,0.7,0.5,0.7-0.1,1.2c-0.5,0.5-0.6,0.7-1,1.4c-0.9,1.5-1.4,2.6-2.2,4.2
			c-0.4,0.8-0.7,1.7-1,2.5c-0.4,0.8-1,1.6-1.5,2.4c-0.2,0.4-0.4,0.8-0.6,1.2l0,0c-0.1,0.3-0.1,0.7-0.3,1c-0.9,2-1.6,4-2.5,5.9
			C32.6,42.7,32.2,43,32,43.4z M40.4,43.9c-0.4,1.2-0.9,3.1-1.3,4.3c-0.1,0.1-0.3,1.1-0.5,1.1c-0.4-0.1-2.5,0.1-3,0.2
			c-0.7,0.1-1.5,0.1-2.3,0c-0.3,0-0.7-0.4-1.3-0.9c0.7-0.8,1.5-2.2,2.1-3.1c0.6-0.8,1-1.8,1.4-2.8c0.5-1.1,1-2.2,1.5-3.4
			c0.3-0.6,0.4-1.3,0.7-1.9c0.5-0.8,1.1-1.5,1.6-2.3c0.4-0.6,0.7-1.3,1-2c0.2-0.5,0.4-0.9,0.6-1.4c0.1-0.4,0.1-0.8,0.1-1.2
			c0.1,0,3.4-6.8,3.7-6.8c-0.4,1.5-0.7,6.2-1,7.7c-0.3,1.5-0.6,3-1,4.5c-0.1,0.5-0.9,3.2-1.1,4.1c-0.1,1-0.4,1.9-0.7,2.8
			C40.8,43.2,40.5,43.5,40.4,43.9z M45.2,38.5c-0.3,0.6-0.4,2.6-0.5,2.9c0,0.2-0.1,0.5-0.1,0.7c0,0.8,0.2,1.7,0.2,2.5
			c0,0.6-0.2,1.2-0.2,1.9c0,0.4,0.1,1.5,0.1,1.9c0,0.5,0,1.1-0.5,1.1c-1.2,0-2.4,0.2-3.8-0.2c0.1-0.3,0.1-0.5,0.1-0.7
			c0.8-2.6,1.7-5.8,2.5-8.4c0.3-0.8,0.6-1.7,0.9-2.5c0.1-0.2,0.8-6.1,1.2-6.4C45.1,32,45.1,38.5,45.2,38.5z M51.4,49.4
			c-0.6,0-1.2,0.1-1.8,0.1c-0.5,0.1-0.9,0.2-1.3,0.3c-0.4,0.1-1.3-0.3-1.5-0.3c-0.1-0.5-0.4-1.1-0.3-1.4c0.4-0.9-0.1-2.6,0-3.5
			c0-0.7,0.4-1.3-0.1-2.1c-0.5-0.8,0.1-1.4,0.1-2.1c0-0.6,0-4.9-0.2-6.5c0.5-0.1-0.1-8.2,0.1-9.1c0.1-0.6,0-0.1,0.1-0.6
			c0.1,0,0.1,0,0.2,0c0.2,1.6,2.7,6.7,2.8,7.2c0.6,2.2,1.1,4.3,1.7,6.5c0,0.1,0,0.1,0,0.2c0.1,1.4,0.6,2.8,1,4.1
			c0.3,0.8,0.4,1.6,0.7,2.4c0.3,0.8,0.7,1.5,1.1,2.3c0.1,0.3,0.4,1.8,0.5,2.1C55.3,50.4,52,49.3,51.4,49.4z"/>
		<path class="st0" d="M46.6,40.1"/>
	</g>
</g>
</svg>
