<svg xmlns="http://www.w3.org/2000/svg" xml:space="preserve" viewBox="0 0 169.9 83.6"><path d="M167.7 35.5q.3 6.5.2 13-.3 4.8-.9 9.5v.1l-.6 5.2-1 7.4-.7 4-1.4 6q-.3 1.2-1.6 1.1l-5.6-.7c-1.7-.3-3.4-.9-5.1-.9-3.4-.1-6.4-1.2-9.6-2.1q-4.5-1-9-2.3-7.1-2-13.9-4.3-8-3.2-15.9-6.6l-1.9-.7q-1.2-.5-2.5.1l-.6.2-5.2-.1-5-.4-9 .2q-2 .1-4-.5-1.3-.4-2.5.4a28 28 0 0 1-10 4.2q-2.5.6-5.1 1.5c-2.1.7-4.1 1.7-6.3 2.1-3 .5-5.8 1.9-8.7 2.8q-3.1 1-6.4 1.6-2.3.4-4.7.6l-3.3.7-7.9.8c-1.7.2-3.4.7-5.1.6h-.7q-2.7-.5-5.4.1-1.4.1-2.9-.2-.4-.2-.6-.6l-.2-.8c-1.3-1.7-.8-3.6-.8-5.5q0-1.7-.4-3.4l-.1-.4-.4-20.6-.2-19q.2-4.6.8-9.3v-.1l.7-8.2.8-3.9q.3-1.4 1.8-1.5c3.4-.5 6.6.4 9.9 1.3l6.8 1.6 7.3 2L41 13.3c2.8.6 5.3 1.9 8 2.9l10.2 4 3.3 1.5 4.3 1.6q2 .8 3.7 1.8l.8.6c1.8 1.3 2.4 1.3 4.2.1q1.4-1.1 3.3-.6 1 .3 2.3.1l14.1-.2q1 0 1.9.2 1 .5 2.2.1l.2-.1c1 .7 1.8-.2 2.6-.5l6.3-2.1q7-2.6 13.8-5.4l12.4-5.2q2.6-1 5.4-1.7 2.7-1 5.4-1.6c4.4-1.2 8.8-2.6 13.3-3.2 1.2-.1 2.4-.7 3.6-.9q.7-.1 1.2.2 1.6 1.4 1.7 3.5l1.2 7.1.1.9a133 133 0 0 1 1.2 19.1M119 45.1c-.3-1-2.8-2.6-3.6-2.1q1.4 1.7 3.6 2.1.2.8.7 1.5l3 2.9q1.4 1.3 3.2 1.2 1.1 0 2.2.3c1.2.4 2.3.1 3.4.1l-.3-.3-4.8-1.4q-.4-.1-.8.2-.7.5-1.3-.2l-3.9-3.7q-.6-.4-1.4-.6m-12.5 6.5-.3-.1-5.1-4.5-.6-.2-.1.2 1.2 1.8 2.3 2.5q1 1.5 2.7 1.6l.5.4h-1.4l-3.6-1.6-.4.1.5.8q1 1 2.1 1.6l3.5 1.7q.4.2.7.7l-1 .2-.2.3.9.5 3.1 1.4 5 2.3h-1.8l-2.8-1.3-1.6-.3-.1.3.5.4c2.1.8 3.9 2 6 2.7q2.5 1 4.9 2.3l.6.6q-1 0-2-.4c-2.4-1-4.6-2.3-7.1-3q-2.2-.8-4.3-1.8-1.5-.4-2.8-1l-4.2-2.5-.9-.3-.2.3q.6.8 1.4 1.4 2 1.2 3.9 2.1l4.2 2.1q5.3 2.1 10.6 4.5l17.8 7 1.1.2.1-.4-3.2-1.4-3.7-1.8q-1.7-1-3.5-1.8l-6.7-2.7-.5-.5q1 0 1.8.3l2.9 1.1q2.6.8 5 2l9.7 4.6c1.2.6 2.4 1.5 3.6 1.9q1.9.6 3.9.9l.1-.3-1-.8-7.6-3.2-1.1-.7.2-.4 2.4.8q1 .5 1.9-.1.6-.3 1.2-.1l10.1 3.8 2 .3.1-.4-10.4-4.1.1-.4 1.1.1 8.9 3.1q.5.1 1.1-.1-.1-.6-.4-1-2.9-1.5-5.9-2.8l-5.8-2-.9-.7q.5-.3.6-.2l9.6 3.6 2.3 1 1-.1q-.2-.5-.6-.8l-3.7-1.8-.8-.5.1-.3q.7 0 1.3.3c1.8.8 3.6 1.7 5.7 1.6q0-.9-.9-1.2l-5.5-2.5-.7-.4.1-.4 3.2.7.1-.4-4-1.7.1-.4q1 0 2 .3l4.7 1.9 1.3.2.1-.3q-1.7-.7-3.2-1.6c-1.5-.9-2.4-.2-3.1-1.5q1.3-.3 2.2.5c1 .7 2.3.6 3.4 1.1h.7l.1-.2-8.4-4.2q.5-.4.8-.3l4.8 2 2.7 1.3.8-.1-.2-.9-.5-.4-6-2.7-1.2-.7.2-.3c3.3.6 6.2 2.5 9.7 3.2l-.4-.9-1.3-.9-10.2-4.7q-1-.2-1.5-1.4 1 0 1.6.3l10.7 5h.8l-.1-.9-.5-.4q-6-3.6-12.6-6.2l-1.1-.5.1-.3 1.2.1 2.7 1 9.5 4.5.8.4.2-.2q-.2-.4-.6-.7-4.2-2.8-9-4.5-1-.2-1.3-1.3h.8q1 .3 1.8.2a3 3 0 0 1 2.1.2l5.9 2.5.6.1v-.6q-.3-1-1.3-1.3l-6-2.5-2.3-.8a26 26 0 0 0-7.2-2l-1.7-.7.1-.4 1.8.1 6 1.5h1l-.1-1.2 3.4-.1v-.3l-1-.6.5-.3 3.2-.7 3.5-.1q.4-.1.7-.6-.3-.5-.7-.6c-1.9-.1-3.7-.9-5.6-.7l-.8-.2v-.3l.9-.1 5.4-.1q.4-.1.8-.5-.2-.6-.5-.8l-2.6-.6-4.6-.1-.7-.4q.4-.4.9-.5l6.9.1.7-.5-.5-.7c-1.4-.7-2.8-.5-4.3-.4l-3-.2v-.4l5.6-.3-.1-1 1.3-.2.8-.5q-.4-.4-.9-.5-2.8 0-5.8-.7c-1.7-.5-3.6-.4-5.4-.5l-.9-.2v-.4h2.7c1.6 0 3.3-.3 4.8.1s2.9.3 4.4.3l.8-.1v-.3l-3.1-.4v-.3l2.5-.3q.8 0 .9-.8t-1-.8h-3.1q-1.4 0-2.9.3l-1.2-.3v-.4l1.8-.4 1.2-.6 1.3-.8q.6-.2 1.4-.2l.6-.5-.6-.4c-3.8 0-7.6-.3-11.4.5h-.4l-.7-.4.6-.6 1.5-.1q2.8 0 5.5-.3l4.9-.6.3-.2v-.2l-1.5-.1c-1.7.1-3.4-.3-5 .6q-.5.1-1.1-.1c.4-1.1 1.2-1 1.9-1.1l5.6-.3q.5 0 .8-.3l-.7-.8-.8-.1-6 .1-1.5-.1v-.3l4.1-.6 4-.6v-.4h-8v-.4l8.3-1.2c-1.2-1.2-2.7-.6-4-.7-.8-.1-1.7.3-2.5.3l-5 .3-6.9 1.2-2 .4a6 6 0 0 1-3 0l3.8-1.1 4.4-.9h1.7l3.9-.5 5.5-.7 2.3-.1.8-.2v-.2h-.9q-1.8.2-3.5-.1-2-.6-4-.5l-1.1-.1v-.3l1.6-.3 3.8-.1 1.6.3q1.6.5 3.3-.1l-2.1-.6c-1.4-.3-2.8-1-4.4-.9q-3 0-5.7 1.4-1 .5-2.1.7l-4 1.1-5.1 1.6-1.1.4q-.7.2-1.3 0-1-.7-2.2-.1-1.6.8-3.3 1.3c-2.3.7-4.7 1-6.8 2.2h-1l-.1-.4 2.9-1.4 9.5-3.2q2.8-.7 5.1-2.2.8-.5 1.9-.6l1.1-.3 6-1.7 6.3-1.8 4.7-.9 1-.2v-.3q-.8-.7-1.8-.6l-5.8 1.6q-2 .7-4.3.9-2.7 0-4.9 1.6l-.6.3-5.2 1.4a198 198 0 0 0-16.3 6.1l-2.9 1.4 1.7.7-2 .9c-.7.2-1.4.8-2-.3q-.3-.2-.8 0-.4.4-.6.9.1.4.7.6h2.8q1.2-.2 2.3-.8 1.5-.7 3.4-.3l-.7.4-3.1 1.1c-2 .8-4.1 1.2-5.8 2.6l-.3.1-3 .8-.6.4q.2.4.6.7.6.4 1 .1l2.1-.8 10.9-4.2q1.2-.5 2.4.1c-8.6 3.1-17.1 6.2-25.3 10.1h1.4l5.3-1.7h1.7l.1.4-1.9.7-4.9 1.5-.9.7.1.3 1.3-.2c1.3-.3 2.5-.9 3.8-1a33 33 0 0 0 6.2-1.5l2.9-1 7.2-1.9 1.6-.1c-.6.9-.8 1-1.7 1.1q-2 .3-4.1.9l-3.9 1.2-1.8.8.1.2 3.1.7c-.4-1.2.3-1.2.9-1.1 3.6.3 7-.5 10.5-1.2a35 35 0 0 1 7.9-.4q.8 0 1 1.2c-3.3-1.2-6.3.1-9.4.5l.6.2 4.7 1q.9.3 1.3-.4.2-.4.7-.5c2.1 0 4.2-.4 6.2.6q1.9.8 3.9 1.2h.4c2.1-.4 4.2.2 6.3.3l.7.2q-.3.3-.7.4-2 .3-3.8-.4c-.4-.2-1.1-.4-1.1.3 0 .9-.4.7-.9.5l-3.4-1.2-5.6-.9-.9.2 2.5 1.1 7.2 3q.8.2.5 1l-.9-.4-10.8-4.1q-.6-.2-1.4-.1c-.8.1-.6.3-.2.7l.7.4 5.5 2.3 2.5 1.4.3.9-.8-.2q-3.4-1.7-7-3.2c-3.6-1.5-4.8-1.5-7.3-2.1q-1.4-.4-2.9.3.5.5 1.2.8c4.1.7 7.8 2.4 11.6 3.9q1 .3 1.4 1.7l-7.1-2.9q-3.5-1.3-7.3-2c0 1 0 1 .6 1.2l2.9.9q2.4.6 4.5 2 1 .6 2 .8l3.4.7q1 0 1.1 1.2-.9 0-1.6-.3-2.4-1-4.9-1.1-.8 0-1.4-.5-1.2-1.4-3-1.8l-7.1-1.8q-.7-.1-1.3.1v.3l3.3 1.3c1.1.4 2.3.6 3.2 1.9h-.9l-7.3-2.6a7 7 0 0 0-4.6.1q1.7.6 3.5.9t3.6.9c1.7.6 2 1.4 3 2.1q.7.4 1.3.5l3.3.7 1.2.7q.9.7 1.9 1 2.3.3 4.5.8 2.8.6 5.5 1.5c1.6.5 3 1.5 4.7 1.9q.7.3 1.4.9l-.2.4-2.2-.9-1.5-.9-2.7-.8q-3.3-.6-6.6-1.6-1.2-.4-2.4-.5H132q.5 1.2 2.4 1.7l6.4 2.1 2.2.6 7.9 3.4.7.5c-2 .4-3.4-1.2-5.2-1.5l-.3 1q-.5-.2-.9-.6-1.7-1.5-3.8-2.3h-1l-.1.2c.9.9 1.6 2.1 3 2.3q.9 0 1.2 1c-1.3 0-2.6.5-3.7-.9-.6-.8-3.3-1.2-4.1-.7q-.7.5-1.3-.1-1-.9-2.2-.3-.5.2-1.2 0-1.3-.5-2.8-.8c-2.4-.4-4.6-1.5-7.1-1.2l-.7-.2-2.9-.9-.8.1-.1.3 1.2.7 4.4 1.2 2.7.6 4.5.8 4.5 1 4.4 1.3.8.6-.2.3-1.1-.3-5.6-1.4-7.3-1.4c-1.9-.4-3.7-1.2-5.7-.9q-.4 0-.8-.3l-3.5-2.7q-1.5-1.1-3.4-1.2l.2 1-.2.2-1.3-.8q-.6-.4-1-.4c-.9.5-1.3 0-1.8-.5l-1.1-1-1.2-.5-.1.3c-.4 1.6.1 2.4.5 3.1M56 58.3q-.1-.7.6-.8l1.2-.3 2.1-1 2.8-.8 4.6-2.6.4-.4c-2.7 0-5 1.8-7.7.9a4 4 0 0 1 1.6-.8l4.5-.9 2.6-.8v-.3l-.8-.1-3.5.7-5.4.8-.3.2q.3 1.3-1 1.1l-1.9.1-3.6.5q-1.8.4-3.6.4l-5.2.1c.5-1.3 1.8-.8 2.6-1.3v-.2l-7.5-2.1v-.3l1.4-.1 6 1.2 3.4 1h1.2l.1-.4-2.2-.7q-1.8-.3-3.5-.8l-7.6-2.1q-1.3-.4-2.8-.6l-6.3-.7-.2-.3 1.1-.2c2-.3 4 .2 6 .5q2.1.3 4.3.9l5.3 1.6 4.3.9 1.1-.1-.7-.5a31 31 0 0 0-7.8-3.1q-1.9-.2-3.6-1.1t-3.6-1.2q-3-.1-5.9-.4-4-.6-8.3-.7l-5.9-.6h-.2L7 42l-.6.3q.1.5.4.6 2.2.8 4.4 1.2l7.6.7.9.2v.3l-1 .1c-2.5-.1-4.9.2-7.4-.4q-1.8-.4-3.8-.6h-.6l-.6.5q.1.5.5.6a59 59 0 0 0 9.4 1.4l2.6.5q.4 0 .7.3l.4.7-.8.1-1.9-.5-5.9-.6-.8-.2-3.8-.3v.4c5.7 1.7 11.7 1.8 17.6 2q-.1.4-.4.5c-1.4.4-2.8.9-4.4.4q-1-.2-2.1-.2l-3.3-.1-3-.5-2.6-.4H7.2v.3c2.2 1 4.3 2.2 6.9 2s5.4-.4 8.1.3l1 .4-.3.3-5-.2q-1.4-.3-2.9.1-.9.3-1.8.1l-5.6-1.9-1-.2-.1.3c1.1 1.1 2.7 1.4 4 2.4-1.4.6-2.6-.9-3.9 0l.4.3.9.4q3.7 1.2 7.5 1.5 2.3.1 4.4.5l.4.3-.7.3q-4.3.3-8.6-.7l-3.3-.9-.9.2v.3q6.8 2 13.9 3.3-.5.4-.9.4-1.8 0-3.5-.4l-7.8-1.8h-.6q-.4.1-.6.4 0 .5.4.6l2 .7 3.8.7.5.4q-.7.2-1 .1L8.5 59q-1.5-.1-1.4.9c.1 1 .3 1 1.3 1l2.8-.1 4.1-.6h1.3l-.4.4q-1.2.8-2.6.8l-5.3.7-.7.2v.3q1.9.3 3.7-.1l2.4-.5q1.7 0 3.4-.5 1.5-.3 3.2-.3l.1.3-.4.3-4.2.8-1 .1-3.1.5-2.3.2q-1 0-1.2 1.1l2.5-.2 7.9-1.2 7.1-1.2h1.4v.2l-.6.3-3.4.8q-3 .7-6.1 1.2l-5.5.8c-.4.1-1 .1-.8.7q.3.4 1 .4l1.3-.2 1.2-.1 1.6-.3 5.8-1.1 3.8-.3v.3l-13.9 2.7v.3l5.2-.1.3-.1 3.1-.5 2.6-.1 5.8-.7 2.5-.5 1.7-.2.1.4-.8.3-7.6 1.3-4.4.4-1.9.3-6 .3-.8.1-.1.3 1.2.6q1.5.2 3 .1l6.2-.6 3.4-.1 2.1-.2 5.9-1.2q1.9-.3 3.6-1 1.2-.5 2.4-.1 1.4.4 2.9.1 1.8-.5 3.5-1.2l1.9-.8-.1-.3h-1l-2.8.5-1.9.2-3.2.5-.6-.1v-.3l4.8-.9 5.2-1.2c1.1-.3 2.1-1.1 3.4-.4q.4.1 1-.1l5.6-2.2.9-.5-.9-.8q-.2-1-1.7-.5M28.7 21.7q-1.6 0-3-.4a86 86 0 0 0-13.2-3.5l-.8.4q.3.4.6.5l6.2 1.3q1.7.4 3.2 1.2.4.3.6.8h-.9l-4.2-1.3-5.2-1-2-.1q-.6.1-.7.4 0 .5.4 1 .3.3 1 .3l2.1.3 7.1 1.5 3 .6 2.9.8.6.6-.2.2-3.1-.5-4.4-.9-7.9-1.7c-.6-.1-1.2-.3-1.9.3l2.3.8 8.5 2.5 1.4.6-.1.3h-.9l-3-.7-6.4-1.9H9q-.5.3-.9.8 0 .3.6.8l1.5.3 11.5 2.4 1.2.6-.1.3-.9-.1-4.6-.9-5.3-.9-3-.7c-.3-.1-.7.3-1 .4q.3.5.7.8l3.9 1.1 7.9 1.9q.9.1 1.1 1.1l-2.7-.5-.1.2.9.5v.3l-1.2.2-5.2-.9-4.4-.7q-.5.1-.9.5l.8.6 1.7.3 4.3.9 4.5.8c1.9.4 3.8 1 5.8.9l2.3.1 2.6.7-.1.3-3.1-.1-3-.4-3-.4-3.7-.7-6.9-1.1-2.1-.1q-.3 0-.5.4 0 .3.3.5t.7.3l3.7.6 6.9.7 1.4.6v.3l-.8.5.1.3q4 0 8 .9l-.6.2-7.6-.4q-.5 0-.8-.3c-.7-1.2-1.9-1.3-3.1-1.4l-3.9-.5-4.2-.6-.8.5q.2.4.6.5l5 .7 5.2.7.1.1q-.2 1-1.2.6-.6-.2-1.4-.2l-4.5-.4-3-.1-.6.1q.6.4 1.2.3l2.5.2 6.9.9 10.9.6 1.4.2 5.6.9a4 4 0 0 1 2.5 1.1q-.7.3-1.4.2l-3.6-.7-2.4-.4-1.1-.3-1.2-.3c-3.5-.1-7.1.2-10.6-.3q-4.2-.5-8.4-.7-.8 0-1.7-.3-1.2-.3-1.2.6c-.1.3.5.7.8 1l.3.1 4.7.6h.9l1.5.1 3.7.5 2.3.1c2.6.9 5.4.2 8.1.9 2.1.6 4.5.4 6.8.6l1.5.2q.6 0 .7-.2c.4-.9 1.1-.8 1.8-.6l1.9.4c2.9.7 5.9 1.2 8.5 2.8l1.3 1c1 1.1 2.9 1.5 4.1.8l-.8-.5-5.8-3.4q-1.2-.8-2.4-1.2l-4.3-.7-1.1-.6q-.9-.7-1.8-1l-7.6-1.4-.6-.3 1-.2q4.2 0 8.2 1.2l1 .1 1.9-.3c2.2-.1 4.4.6 6.5 1.2l3 .9q.9.2.5-.6-.2-.5-.5-.6l-6.1-2.1c-.8-.3-1.7-.3-2.5-.9l.8-.7c-.5-1.2-2.7-2.8-3.6-2.7.2.8 1.4 1.2 1.1 2.4l-5-4.1.2-.4 2.1 1c.3-1.2 1.3-.2 2.2-.6l-2.2-2v-.2l1.9.2 3.6.9 6 1.8q1.1.3 1.6 1.5c.5 1.2 2.4 1.9 3.6 1.5l-1.7-1.3.2-.3.9.2 4.4 1.8 1.8.5.1-.3c-1.9-2.1-4.8-2.5-7.4-3.9l.9-.3.1-.2-10.1-3.6.3-.1 1.1.2q5.1 1.3 9.8 3.7 3 1.6 6.4 2.8c2.4.8 4.7 2.4 7 3.6l1.3.8q.8-1.5-.3-2.2l-3.8-2.3-8.3-4q-.8-.2-.6-1.1A64 64 0 0 1 71.5 37q.3-1.4-.8-1.6l-7-3.9-3.3-2.2-.9-.6-8.3-3.2-.4-.3.1-.3q1 0 1.9.2l9.6 3.9.9.8q.6.7 1.3 1.2l7.4 4.1q0-1.2-.9-1.6l-5.5-3.1q-.7-.5-1.2-1.3-.4-.6-1-.9l-4.5-1.8c-2-.8-4.3-1.2-6.1-2.6l-1.7-.7-4.1-1.3-5.7-2-4.8-1.5-.7-.4q.6-.3 1-.2l2.9.9 1.6.2.1-.3-.5-.4-2.5-.9-7-3-1.6-.3v.2l1.6 1.2-.2.3-.9-.2-2.6-.9-6.2-1.4-6.2-1.9q-1.1-.2-1 .8.3.6.8.8l4.1.9 5.3 1.4 5.4 1.9.5.3-.1.3-1.9-.4-6.4-2-7.7-1.6q-.6 0-.8.3c-.2.5.3.6.6.7l6.2 1.6 6.6 2.2 1.6.8-.1.3-1.4-.1-5.5-1.8-8.4-2.2q-.6 0-1 .7c-.1.2.2.9.4 1l2.9.7 6.4 1.7 6.1 2q.4-.1.8.2m48.1 12.2-.4-.1.1-5-.1-.7-.7.2q-.5.6-.6 1.4l-.1 2.2-.4 3.8-.3 4.6-.3 2.8c-.1 3 .2 6-.3 9q-.2 1.5 0 2.9.1.6.5.8c.6.1.5-.4.6-.8l.2-2.8.4-1.9c.1-.9-.3-1.2-.3-1.9l.2-3.5.2-2.1h.3l.1.9v6.6l-.1.6c-.3 1.1-.2 1.2.8 1.7l2.6 1.5 1 .6q.4.2.6.1.3-.4.2-.7-.2-.5-.7-.8c-1.3-.2-1.8-1.5-2.8-2l-.2-.5 1 .1h.6l1.4-1.9q.5-1.2.8-2.5.7 1.5.1 3.1l-.1.7q1 .6 1.8.7c.4-.1 1.1-.8.8-1.6q-.2-.6.5-.5c1 .2.9.2 1.1-.9l.7-2.8q.5 1.4 1.2 2.4 1 1.3 2.3 1l.4-2.9.3-2 .2-3.1q.2-1-.8-1.4l-.3 2.7q-1-1.2-2-2c-.7-.6-1.6-.9-2.1-1.7l.2-.3 2.6 1q.5-1.1-.8-1.6-.9-.4-1.5-1.2-.7-1.2-1.3 0c-.6 1.2-1.9.9-2.5.2-.3-.4-.5-.9-1-.6-.1.1.2.8.4 1.2l.8.8.4.7h-.6q-1.4-.2-2.1-1.5-.5-.4-.8-.4c-.6.3-.6 1.3-.1 1.8l2.7 2.7q.3.4.4 1l-.3.2-3.6-3.3q-.4-.5-.4-1.2l.2-4.1q-.1-.5-.4-.8l-.5.6zm16.7 13.8 1.9 2.4q.5.6-.3 1-.9.3-.5 1l1.1.8q.4-.5.5-1v-6.7q0-.8.2-1.4c1.1-2.1-.5-3.5-1.9-4.4q-.4-.1-.7.1l.1.7 1.1 1 .3.8-.3.1-3.2-2-.8 3.2q-.1.6.4 1l1.1.8 2.2 1.9-.2.3-2.1-1.2h-.8l.2 1.6q.3.2 1.1.1zM35.4 68.5l-.1-.5-2.2.2-5.7 1.1-10.7 1-3.2.2q-.5.1-1 .5l.9.6.5.2c1.9 1 3.8.5 5.7.2q3.3-.5 6.5-1.2l1.8-.4a70 70 0 0 0 7.5-1.9M42 40.7l-.1.4 1.2.7 2.7.7 1.5.5 2.9 1.1 7.5 4.2q.7.3 1.6.2l.1-.4-1-.8-5.6-3q-.8-.4-1.2-1-.7-1.1-2-1.4-2.7-.7-5.6-1.2zm3.6 26-1.3-.2q-2.2-.1-4.1 1.1c-3.1 1.6-6.5 2.1-9.8 2.9l-4.8.9-.7.2-1.9.4-1.5.2v.3l.9.1q2.8 0 5.5-.6l6.4-1.4 6.8-2.1q1.5-.5 3.2-.6 1.3-.2 1.3-1.2M55 50.8l-1.3-.9-3.5-1.9a27 27 0 0 0-9.5-3.5h-1.8l-.1.4.8.6q1.1.5 2.3.7 3.3.6 6.2 2.1l5.1 2.5q.7.6 1.8 0M13.1 8.9l-.2.4 2.2.6q.6 0 1.3.3l3 1 8.4 2.2h1.1c-5-2.5-10.4-3.6-15.8-4.5m93.3 53.6-.1.4 1.1.7 11.1 4.6q.6.3 1.4.2l.1-.3-.8-.5-7.3-3.2-4.1-2zM53.2 20.7l.1-.3-2.1-.9L38.1 15l-1.7-.3q0 .5.2.5c1.8.6 3.2 2.1 5.2 2l.5.1 6.9 2.6q1.5.5 3.2.8zm4.6 37v.3l1.8.5q2.1.8 3.5-1 .8-1.2 2.3-1.3l.7-.2c-.6-1-2.1-1-3.2-.4l-3 1.4zm94.7-45.6 2.6-.1 5.3-.7.7-.1q.3-.2.3-.4t-.3-.5-.7-.2q-4.2-.3-7.9 2m-70 15.4-.1.2.8.3c2.1.8 4.3.4 6.4.2l3.8-.6.9-.1v-.2zm-40.6 5.6 5.3 5.2q.8.6 1.7-.1l-.9-1.1-4-3.3q-1-1-2.1-.7m55.4 11.1-.4.6.2 12.3c.7-.5.6-11.6.2-12.9M5.7 56.3h-.4l-.2.9-.2 1.4c-.9 2.2-.1 4.5-.2 6.8q.1.4.5.5.6 0 .6-.5l-.3-1.2q-.3-.8-.2-1.4c.7-1.4.5-2.8.4-4.2zm109.9-17 1.7-.2 2.7-.5 4.4-.1.7-.1c-2.2-1.2-7.9-.9-9.5.9M128.9 72l-.5-.4-6.9-3-1.2-.1v.3q3.7 2.2 7.8 3.3.1.1.8-.1M61.3 47.3l.1-.2q-.5-.6-1.1-1l-3.2-1.9c-.4-.2-.9-.7-1.3-.1s.2 1 .6 1.3l.2.1 3.5 1.7zM139.6 16c1.4.3 7.5-1.9 7.9-2.9l-1 .2q-1.7.6-3.5.9c-1.4.1-2.3 1-3.4 1.8m19.6 30.5.5.3 3.3 1.1q.6.1.9-.1.3-.5.1-1c-.3-.7-2-1.3-2.7-1.1zm-139 26.7v-.4l-.8-.1h-2.6l-5.4.2-.8.6q.4.5.8.6.8 0 1.5-.3l1.8-.5 2.1-.1zm111.7-21.8.8.6 3.9 2.1q.6.2 1.4.2c-.6-2.3-4.3-3.1-6.1-2.9m-16.7-6.1 4.1 3.9q.6.3 1.6.2c-1.2-1.8-4.7-4.4-5.7-4.1m10.5 2.7c-1.4-2.3-3.5-3.7-4.8-3.4l3.6 3.3q.6.2 1.2.1M53.6 20.8c.9 1.1 6.5 3.2 7.4 2.8a30 30 0 0 0-7.4-2.8m95.3 53.9c1.2 1.6 4.8 3.1 5.8 2.5-.3-.7-4.8-2.7-5.8-2.5M56.4 23.8c-.9-1.2-5-2.7-6-2.1q2.7 1.9 6 2.1m-41.2 6.8-.5-.2-4.9-1.2c-.6-.1-1.2-.3-1.9.4 2.5.7 4.8 1.5 7.3 1m96.8-4.7c1.3.6 3.7.2 4.4-.9-1.7-.6-3.9-.2-4.4.9M90.1 36.1l-.6.6q-.1.4.2.8l2 1.4q.5.1 1.1-.1v-.6q-.5-.5-1-.6-.6.1-.8-.5zm17.1-7.5c1.8.4 2.9-.6 4.3-1.5-1.8-.6-4 .2-4.3 1.5m-1.3 1.1q-2-1.3-3.8.7c1.1.7 3.1.4 3.8-.7M129 52.2c.7 1.5 2.4 2.5 3.3 1.9-.7-1.6-2.3-2.4-3.3-1.9m-24.3 5.1c.5 1.3 4 2.8 5.1 2.2q-2.4-1.3-5.1-2.2m6.9-20c-1.6-.7-3.2-1.2-5.1-.6 1.8.8 3.3 1.3 5.1.6m-56 24.9.1.4 3.5-.3.3-.4-.3-.4a4 4 0 0 0-3.6.7m-6.5-26.1-.3.3 1.5 2.1q.5.2 1.1 0c.1 0 .2-.7.1-.8zm12.8 1.1q1.5 1.5 3.5.9l-.1-.1-1.3-1c-.9-.6-1.1-.6-2.1.2M64.3 27c.5.8 2.1.8 1.5 2.2l.2.2 1.9-.8c-1.2-.6-1.9-2-3.6-1.6M7.7 10.4l.1.1 1.3-2.7q.4-.6-.3-.8c-.4 0-1.1.3-1.1.5zM74 56.9c-.6 1.2-.3 3.4.6 3.8.6-1.1.3-3.2-.6-3.8m-7.3-2.5q2 .7 2.8-.5l.1-.7-.5-.2q-1.3.3-2.4 1.4m51.6-3.2c1.3-.1 2.4 1 3.8.6-.5-1.3-2.7-1.6-3.8-.6m11.5-2.4-2.2-1.8h-.5l-.1.4c.1 1 1.6 1.9 2.8 1.4m-45.6 1.5q.2 1.2.6 2.3.3.5.8-.1 1-1.5-1.4-2.2m-20-23.4c-1.1-1.2-3.5-2-4.3-1.5 1.4.6 2.6 1.6 4.3 1.5m-.4 32.7a2.5 2.5 0 0 0-3.2.7c1.2.7 2.6.4 3.2-.7M7.4 18.1l.7-.2q.5-1.1.7-2.4 0-.5-.4-.9l-.6.8zm49.2 22.6c-.5-1.1-1.8-2.1-2.5-1.9.1 1.4 1.4 2.3 2.5 1.9M161.2 44q2 1.5 3.2.7-1-1.5-3.2-.7M64.4 58.3q2 .7 3.1-.8c-1.2-.5-2.1.1-3.1.8M62.7 45l-1.8-1.4-.6.2q-.3.2 0 .6.6 1.3 2.4.6m19.9 8.6.4-.2q0-.7-.3-1.2c-.5-.5-1.1-1-2.2-.6zM110 29.8q-.6-.3-.9-.2-.7.2-1.3.7l-.3.5.6.3 1.6-.7zM96.2 36h.2c.4-1.3.1-5.1-.3-5.4zm60.7 31 3.3 1.5c-.3-1.3-1.9-2-3.3-1.5m-44.7-31.2c1.3.9 2.9.9 3.3-.1zM9.7 16.4l.4.4c.4.1 1.1-.9 1.1-1.5q0-.4-.4-.5c-.4-.2-1 .7-1.1 1.6m95.7 16a2.4 2.4 0 0 0-3.2.6c1.1.5 1.9-.5 3.2-.6M90.1 51.5h.3l.5-1.8q.5-1.2-1-.8zm15.7-24.3c-1-.7-2.2-.3-2.5.7q1 .6 2.5-.7M52.4 66.7q2.1-.1 2.5-1.2c-.9-.3-2.5.5-2.5 1.2m2.6-3.4-1.7.2q-.4.1-.4.3 0 .3.4.5 1 .4 1.7-1m33.2-11.9.1 1.8q.2.4.6.4.3-.1.4-.5.3-1-1.1-1.7m6.6-14.7-.3.1-.2.6 1.4 1.4.4-.2zm30.3 15.6 1.6.7q.5 0 .6-.2.1-.4-.2-.7c-.4-.4-1.4-.3-2 .2m36.7-39.8v-.3a7 7 0 0 0-3.7.4zM60.3 42q-.7-1.9-2-1.3.6 1.3 2 1.3m52.9.4q-1.6-1.4-2.8-.5c.9.3 1.6 1 2.8.5M50.5 65.7v-.2c-.8-.5-2.4-.4-3 .3zm6.4-1.6q1.2 1.6 2-.1-1-.5-2 .1m48.5-17.2 3.2.7c-.4-1-1.8-1.3-3.2-.7m-44.2 3.7.8-.8q-.4-.4-.9-.5c-.5-.1-.5.4-.8.6zm15.9 7.1q.3-1.2-.6-1.6h-.7q0 .4.2.7zM80.4 32l-1-.8c-.1.2-.5.5-.4.6l.8 1zm31.4 12.7.3-.4q-.2-.9-1.2-1l-.5.6zm-36.3 9.1 1.3 1.4.5-.3q0-.5-.3-.9c-.3-.3-.6-.7-1.5-.2m10.1-19.4c.2-.8.5-1.6 0-2.3q-.7 1 0 2.3M61.2 62.8c.9.4 1.3-.3 2-.6q-1.2-.9-2 .6m5.3-2.7-.1-.3-1.9.9q1.4.8 2-.6m20.1-10.5.7.7.7-.8-.6-.7zm79.7-5.2q-.9.5-.6 1.4.3.2.7.1.6-.6-.1-1.5M58.6 51.1q-.5-1.9-2.1-.8zM9 11.1c.7.1 1.2.5 1.6-.2.1-.1-.1-.6-.2-.7-.8-.2-1 .3-1.4.9m70.2 22.8q-.6.9.2 1.5c.1.1.6-.1.6-.2q.2-1-.8-1.3M15.8 31v.3h2.7c-1-.5-1.9-.3-2.7-.3m66.5 2.3-.8-.8-.5.6.7.9zM115 49.9l-.2.2.5.6c.6.1 1.2.4 1.9-.2zM83.1 33.8q-.6.9.2 1.5c.1.1.6-.1.6-.2q.2-.9-.8-1.3m83.7 14.7-.7-.8-.5.6q.1.5.5.8zM64.2 43.7l-1.5-1.5q-.1 1.6 1.5 1.5M11.7 11.6q.8.6 1.3-.1c.1-.1 0-.6-.2-.7-.7-.3-.9.3-1.1.8M84 31.3q-1 .8-.2 1.4l.6-.1zm-34.7 3.4q-.3-1.6-1.9-.9zm5.3 6.5q-.3 1.5 1.7.8zM7.8 71.7l-.2.2.6 1.3.6.1-.3-1.1q-.3-.4-.7-.5m85.4-35.3.1-.4-1.2-.6-.1.5q.4.8 1.2.5m10.7 1.1-.6.5q.4.4.8.5l.6-.5zm62.6.3q1-1.1-.7-1.4zM88 34l.5-.3-.8-1.1-.3.3q.2.6.6 1.1M66.3 44l-.2.3q.2 1.1 1.5.4zM10 68.9l.1-.3-1.2-.7-.2.1.2.7q.5.3 1.1.2m156-28.8.4.1c.3-.3.8-.5.4-1l-.6-.2zM8.5 66.7 9 66q-.1-.3-.5-.6-.4.3-.5.6zM163 10.3h.3q.3-.9-.1-1.8h-.3zm3.2 14.8h-.4l.1 1.7h.4zM70.4 28l-.3.4 1.3.8.3-.4zM8.9 12.3l-.3.8q.2.4.6.5.5 0 .6-.5zM102 39l-.7-.5q-.4 0-.6.4l.5.5q.2.1.8-.4M70.1 58.3q-1.4-.7-1.3.6zM5.8 30l-.3.1.1.8.7.5.2-.3zM5 37.6h.3v-1.7H5zm132.6-20.3V17q-.9-.2-1.5.3zm.2-.9.1.3q.8.2 1.6-.2v-.3zM68.4 40.1l.2-.4-1.3-.8-.2.4zm12 16.3-.3.7.4.5.4-.5q0-.3-.5-.7m10.3-27.2v.3h1.6v-.3zm-12.4 1.9-.7-.5-.4.4q0 .4.4.5zm4.1 24-.4.8.5.5.4-.6q0-.3-.5-.7m24.1-3.4 4.2 2.4.9.7a113 113 0 0 0 18.2 8.8l5.2 2.1 1.2.6-.1.3-1.3-.4q-8-3.3-15.9-6.9-3.8-2-7.4-4.3l-1-.2q-1.2 0-2.5-.4v-.3l.8-.6-1.8-.3-.5-.4zm22.1 13.7q1.7.5 3.2 1.3l6.3 3.3.8.4q-.9.7-1.6.1l-5.4-2.7-3-1.4q-.4-.2-.7-.7zm24.1-15.9q-.7 0-1.2-.2l-5.3-2.4q-1.7-.6-3.6-1l-.5-.2v-.2h1.8c2.6.5 5 1.7 7.4 2.8q.8.5 1.4 1.2m-18.2 13.1-3.6-1.1-12.1-5.5-.2-.3 2.2.7 6.3 3 6.7 2.7.8.3zm1-32.2.8-.1 7.3-.1q.4 0 .7.2t.3.5c.1.3-.3.4-.4.4h-1.5a9 9 0 0 0-5.3.1q-1.3.3-1.9-1m-27.1 26.3h.9v-.1l-1.7-1 .1-.2c3.7 1.4 7.5 2.8 10.5 5.6l-.1.3-.7-.4-6.3-3.4q-.5-.2-1.1-.1c-.5-.2-1.2.1-1.6-.7m41.4-36.2h.3l1.3.4q-.7.6-1.3.8l-4.6.6-.6-.3.5-.6zM127.1 22c.8-1.2 6.1-2.8 7.1-2.2-2.4.8-4.6 2-7.1 2.2m18.5 27.2-.7-.1-4.9-.7q-.7-.3-1.3-.8l.2-.4 1.5.2 2.2.4 2.8.8zm10.6-8.3c-1.1.7-5.9-.1-7.2-1.2h1.1l3.5.4a5 5 0 0 1 2.6.8m-39.9 20.5 2.9.8 3.4 1.2.5.7-5.1-1.4c-.7-.2-1.7-.2-1.7-1.3m22.3-14.1c-2.1-.8-4.5-.2-6.6-1.4 1.1-.8 5.8.2 6.6 1.4m-23.7-16.5 3.8-1 1.3-.2.6.1-.3.6-5.1.8zm41.3-2.7c-1.5.9-4.3.5-4.7-.5 1.6-.5 3 .3 4.7.5m-1.7-2.5h3s.2.5.1.6c-.7.8-2.6.5-3.1-.6m-9.1 45c-1.7 0-3-.8-4.4-1.6 1-.4 3.5.5 4.4 1.6m5.9-6.5-4.5-1.4c1.3-.6 4 .1 4.6 1.1zm-14.6 3.1c1.7-.3 2.8.7 4.1 1.5-1.6.2-2.7-.9-4.1-1.5m-6.8-40.5 4.3-.8c-.8 1.1-3.1 1.6-4.3.8m-7.6 1.9 3.9-.9c-.5 1-2.9 1.5-3.8 1.2zM147 60.5l-3.9-.8c.6-.8 3-.4 3.9.5zM157.3 34c-1.3.7-2.6.4-3.9.1q2-.7 3.9-.1m-44.2 18.7 2.7 1.6c-1 .6-2.4-.2-2.7-1.6m32.5-3.5q1.9-.5 3.2.9c-1.2.4-2.2-.3-3.2-.9m-7.4 15.4-2.6-.9.1-.3c1-.3 1.8.4 2.6.8zm-11.7-36.7q.9-1.2 2.2-.2zm21.6 37.5 1.1.2q.3.1.5.7c-.7-.1-1.5.2-1.6-.9m-33-34.3q-.9 1-1.6.5v-.3zm7.9 33h1.8v.3c-.7.5-1.2.1-1.8-.3m16.9.9 1.5.2-.1.4-1.5-.2zm8.2.4h-1.7v-.3c.6-.5 1.1 0 1.7.3m-100.2-39c1.7-.5 9.5 2.7 10 3.9l-1.7-.4-7.5-3q-.4-.1-.8-.5m-6.2 3.7-2.2-.9c-1.8-.7-3.7-1.8-5.6-2-2.2-.2-4.1-1.3-6.3-1.1l-.6-.2.6-.3q2.3-.4 4.5.5l1.8.4q1.8.4 3.5 1l4.4 2.3zm-13-8.4q2 .3 3.9.8l5.5 1.7 1.3.7-.1.3h-.6l-6.3-2-2.8-.8q-.7-.1-.9-.7m10.5 14.6 2.4 1.6c-2.5.7-4.8-.4-7.2-.6 1.5-.8 3.3.2 4.8-1m-5.7-1.9-1.7-.5q-2.2-1.3-4.7-1.3l-1.2-.1c1.4-1.5 5.6-.3 7.6 1.9m8.8-12.6c1.3-.7 5.8 1.1 6.5 2.5l-.4.2zm-3.2 9.8-8.3-2.8c1.3-.5 7.9 1.8 8.3 2.8m-6.5-13.3q3 .6 5.5 1.8c-1 .5-5.4-1-5.5-1.8m-7.4 9.5q1.4-.6 2.3.1v.7c-.6.5-2-.1-2.3-.8m10.4-10.7q-1.7.5-2.3-.9 1.1 0 2.3.9m-.5 16q1.3-.1 1.8 1.2-1.1.2-1.8-1.2m-1.6 1.3c.4.5 1.3.6.9 1.6q-1.4-.5-.9-1.6m2.3 28.1.9-.2 2.3-.5q2.7-1 5.6-1l5.7-1c.4-.1.9-.4 1 .2q-.2.5-.8.7l-6.5.8-4.8 1-3.4.3zm6.4-9.7c-.8.8-1.6.6-2.3.4l-6.1-1.6q-1.5-.3-3.1-1l.8-.2 4.6.8 4.1.9q1 .2 2 .7M48 58l-.3.2-5.3.8-2.5.5-.5.1-.8-.2.6-.7.3-.1 5.2-.9 2-.4q.9-.4 1.3.7m-12.3-3.2 1.2-.6 3.5-.1.5.1.7.8-.8.3h-4.2l-.8-.1zm-13.1 4.1 1-.3 3.4-1.1.2-.1 1 .2-.5.8q-1.2.6-2.4.8-1.3.2-2.7.1zm27.1-2.4q.4-.4.9-.6l4.3-.2.5.2v.2l-5.5.8zm-27.5-9.8 5.3.6c-.5 1-4 .7-5.3-.6m7.4 12.7.8-.2 2.6-.3.6.2-.3.5q-1.8.4-3.6.1zm5.9 3.8q-2.3.4-4.7.4c.3-.6 2.4-.8 4.7-.4m-5 .5c-.5.5-3.3.7-4.7.4.5-.4 2.8-.6 4.7-.4m-5.9-7.4q-.4 1-1.3.8l-.2-.5q.6-.7 1.5-.3m31.4 2-1.8.6-.1-.4q.9-.5 1.9-.2m23-11.7-.1 1.9-.4.3q-.4 0-.4-.3-.5-1.2.9-1.9M76.4 36l-.1 2.2q-.1.3-.5.4-.3-.1-.3-.4l.6-2.3zm9.4 5.2 2.1 1.4c-.9.6-1.3.1-1.7-.2l-.8-.9zm-3.3 7.9-.1-3.1h.3q.3 1.5.1 3.2z"/></svg>