<?xml version="1.0" encoding="utf-8"?>
<!-- Generator: Adobe Illustrator 25.2.3, SVG Export Plug-In . SVG Version: 6.00 Build 0)  -->
<svg version="1.1" id="Layer_1" xmlns="http://www.w3.org/2000/svg" xmlns:xlink="http://www.w3.org/1999/xlink" x="0px" y="0px"
	 viewBox="0 0 169.9 83.6" style="enable-background:new 0 0 169.9 83.6;" xml:space="preserve">
<g id="Layer_3">
</g>
<g id="Text">
</g>
<path id="Branches" d="M167.7,35.5c0.1,4.3,0.3,8.7,0.2,13c-0.1,3.2-0.6,6.3-0.9,9.5v0.1c-0.2,1.7-0.4,3.5-0.6,5.2
	c-0.3,2.5-0.6,4.9-1,7.4c-0.2,1.3-0.4,2.7-0.7,4c-0.4,2-0.9,4-1.4,6c-0.2,0.8-0.8,1.2-1.6,1.1c-1.9-0.2-3.7-0.4-5.6-0.7
	c-1.7-0.3-3.4-0.9-5.1-0.9c-3.4-0.1-6.4-1.2-9.6-2.1c-3-0.8-6-1.4-9-2.3c-4.7-1.4-9.4-2.6-13.9-4.3c-5.4-2-10.6-4.4-15.9-6.6
	c-0.6-0.3-1.3-0.4-1.9-0.7c-0.8-0.3-1.7-0.4-2.5,0.1c-0.2,0.1-0.4,0.2-0.6,0.2c-1.7,0-3.5,0-5.2-0.1s-3.3-0.4-5-0.4
	c-3,0-6,0.1-9,0.2c-1.4,0-2.7,0-4-0.5c-0.9-0.3-1.7-0.1-2.5,0.4c-3.1,1.9-6.3,3.6-10,4.2c-1.7,0.3-3.4,1-5.1,1.5
	c-2.1,0.7-4.1,1.7-6.3,2.1c-3,0.5-5.8,1.9-8.7,2.8c-2.1,0.6-4.2,1.2-6.4,1.6c-1.5,0.3-3.1,0.4-4.7,0.6c-1.1,0.2-2.2,0.6-3.3,0.7
	c-2.6,0.3-5.3,0.5-7.9,0.8c-1.7,0.2-3.4,0.7-5.1,0.6c-0.2,0-0.5,0-0.7,0c-1.8-0.4-3.6-0.3-5.4,0.1c-0.9,0.2-1.9-0.1-2.9-0.2
	c-0.2,0-0.5-0.4-0.6-0.6s-0.1-0.6-0.2-0.8c-1.3-1.7-0.8-3.6-0.8-5.5c0-1.1-0.2-2.3-0.4-3.4c0-0.1-0.1-0.3-0.1-0.4
	C3.2,61.3,3,54.5,2.9,47.6c-0.1-6.3-0.3-12.7-0.2-19c0-3.1,0.5-6.2,0.8-9.3v-0.1C3.7,16.5,4,13.8,4.2,11C4.5,9.7,4.7,8.4,5,7.1
	c0.2-0.9,0.8-1.4,1.8-1.5c3.4-0.5,6.6,0.4,9.9,1.3c2.2,0.6,4.5,1,6.8,1.6c2.5,0.6,4.9,1.4,7.3,2c3.4,0.9,6.8,2,10.2,2.8
	c2.8,0.6,5.3,1.9,8,2.9c3.4,1.3,6.8,2.6,10.2,4c1.1,0.4,2.2,1,3.3,1.5c1.4,0.6,2.9,1,4.3,1.6c1.3,0.5,2.5,1.2,3.7,1.8
	c0.3,0.1,0.5,0.4,0.8,0.6c1.8,1.3,2.4,1.3,4.2,0.1c1-0.7,2-1,3.3-0.6c0.7,0.3,1.5,0.1,2.3,0.1c4.7-0.1,9.4-0.1,14.1-0.2
	c0.6,0,1.3,0,1.9,0.2c0.7,0.2,1.4,0.5,2.2,0.1c0.1,0,0.2-0.1,0.2-0.1c1,0.7,1.8-0.2,2.6-0.5c2.1-0.7,4.2-1.3,6.3-2.1
	c4.6-1.8,9.3-3.5,13.8-5.4c4.2-1.7,8.3-3.5,12.4-5.2c1.7-0.7,3.6-1.2,5.4-1.7c1.8-0.6,3.6-1.2,5.4-1.6c4.4-1.2,8.8-2.6,13.3-3.2
	c1.2-0.1,2.4-0.7,3.6-0.9c0.4-0.1,0.9,0,1.2,0.2c1.2,0.8,1.5,2.2,1.7,3.5c0.4,2.4,0.8,4.7,1.2,7.1c0,0.3,0.1,0.6,0.1,0.9
	c0.6,5.1,1,10.3,1,15.5C167.5,33.1,167.5,34.3,167.7,35.5C167.8,35.5,167.7,35.5,167.7,35.5z M119,45.1c-0.3-1-2.8-2.6-3.6-2.1
	C116.4,44.1,117.5,44.9,119,45.1c0.2,0.5,0.3,1.1,0.7,1.5c1,1,2,2,3,2.9c0.9,0.9,2,1.2,3.2,1.2c0.7,0,1.5,0.1,2.2,0.3
	c1.2,0.4,2.3,0.1,3.4,0.1c-0.1-0.2-0.2-0.2-0.3-0.3c-1.6-0.5-3.2-0.9-4.8-1.4c-0.2-0.1-0.6,0-0.8,0.2c-0.5,0.4-0.9,0.2-1.3-0.2
	c-1.3-1.2-2.6-2.5-3.9-3.7C120.1,45.4,119.5,45.3,119,45.1z M106.5,51.6c-0.1,0-0.2-0.1-0.3-0.1c-1.7-1.5-3.4-3-5.1-4.5
	c-0.1-0.1-0.4-0.1-0.6-0.2c0,0.1-0.1,0.1-0.1,0.2c0.4,0.6,0.7,1.2,1.2,1.8c0.7,0.9,1.6,1.6,2.3,2.5c0.7,0.9,1.5,1.6,2.7,1.6
	c0.2,0.1,0.3,0.3,0.5,0.4c-0.5,0-1,0.1-1.4,0c-1.2-0.5-2.4-1-3.6-1.6c-0.1,0-0.2,0-0.4,0.1c0.2,0.3,0.3,0.6,0.5,0.8
	c0.7,0.6,1.3,1.2,2.1,1.6c1.1,0.6,2.3,1.1,3.5,1.7c0.3,0.1,0.5,0.4,0.7,0.7l0,0c-0.3,0.1-0.6,0.1-1,0.2c-0.1,0.1-0.1,0.2-0.2,0.3
	c0.3,0.2,0.6,0.4,0.9,0.5c1,0.5,2.1,1,3.1,1.4c1.7,0.8,3.3,1.5,5,2.3l0,0c-0.6,0-1.3,0.1-1.8,0c-1-0.3-1.9-0.9-2.8-1.3
	c-0.5-0.2-1.1-0.2-1.6-0.3c0,0.1-0.1,0.2-0.1,0.3c0.2,0.1,0.3,0.3,0.5,0.4c2.1,0.8,3.9,2,6,2.7c1.7,0.5,3.3,1.5,4.9,2.3
	c0.2,0.1,0.4,0.4,0.6,0.6c-0.7-0.1-1.4-0.1-2-0.4c-2.4-1-4.6-2.3-7.1-3c-1.5-0.5-2.9-1.2-4.3-1.8c-0.9-0.4-2-0.5-2.8-1
	c-1.4-0.8-2.8-1.7-4.2-2.5c-0.3-0.2-0.6-0.2-0.9-0.3c-0.1,0.1-0.1,0.2-0.2,0.3c0.5,0.5,0.8,1,1.4,1.4c1.3,0.8,2.6,1.5,3.9,2.1
	c1.4,0.7,2.7,1.5,4.2,2.1c3.6,1.3,7,3,10.6,4.5c4.9,2,9.9,4,14.8,5.9c1,0.4,2,0.8,3,1.1c0.3,0.1,0.7,0.1,1.1,0.2
	c0-0.1,0.1-0.2,0.1-0.4c-1.1-0.5-2.1-0.9-3.2-1.4c-1.2-0.6-2.5-1.2-3.7-1.8c-1.2-0.6-2.3-1.3-3.5-1.8c-2.2-0.9-4.4-1.8-6.7-2.7
	c-0.2-0.1-0.3-0.4-0.5-0.5c0.6,0.1,1.3,0.1,1.8,0.3c1,0.3,1.9,0.7,2.9,1.1c1.7,0.6,3.4,1.2,5,2c3.2,1.5,6.5,3.1,9.7,4.6
	c1.2,0.6,2.4,1.5,3.6,1.9c1.2,0.5,2.6,0.6,3.9,0.9c0-0.1,0.1-0.2,0.1-0.3c-0.3-0.3-0.6-0.6-1-0.8c-2.5-1.1-5.1-2.1-7.6-3.2
	c-0.4-0.2-0.7-0.5-1.1-0.7c0.1-0.1,0.1-0.3,0.2-0.4c0.8,0.3,1.6,0.5,2.4,0.8c0.7,0.3,1.2,0.3,1.9-0.1c0.3-0.2,0.9-0.2,1.2-0.1
	c3.4,1.2,6.7,2.6,10.1,3.8c0.6,0.2,1.3,0.2,2,0.3c0-0.1,0.1-0.3,0.1-0.4c-3.5-1.4-7-2.7-10.4-4.1c0-0.1,0.1-0.2,0.1-0.4
	c0.4,0,0.8,0,1.1,0.1c3,1,5.9,2.1,8.9,3.1c0.3,0.1,0.7,0,1.1-0.1c-0.1-0.3-0.2-0.8-0.4-1c-1.9-1-3.9-2-5.9-2.8
	c-1.9-0.8-3.8-1.3-5.8-2c-0.3-0.1-0.6-0.5-0.9-0.7c0.3-0.2,0.5-0.3,0.6-0.2c3.2,1.2,6.4,2.4,9.6,3.6c0.8,0.3,1.5,0.7,2.3,1
	c0.3,0.1,0.7-0.1,1-0.1c-0.2-0.3-0.3-0.7-0.6-0.8c-1.2-0.6-2.5-1.2-3.7-1.8c-0.3-0.1-0.5-0.3-0.8-0.5c0-0.1,0.1-0.2,0.1-0.3
	c0.4,0.1,0.9,0.1,1.3,0.3c1.8,0.8,3.6,1.7,5.7,1.6c0.1-0.6-0.4-1-0.9-1.2c-1.8-0.8-3.7-1.6-5.5-2.5c-0.3-0.1-0.5-0.3-0.7-0.4
	c0-0.1,0.1-0.2,0.1-0.4c1.1,0.2,2.1,0.4,3.2,0.7c0-0.1,0.1-0.3,0.1-0.4c-1.3-0.6-2.7-1.1-4-1.7c0-0.1,0.1-0.3,0.1-0.4
	c0.7,0.1,1.4,0.1,2,0.3c1.6,0.6,3.2,1.3,4.7,1.9c0.4,0.2,0.9,0.1,1.3,0.2c0-0.1,0-0.2,0.1-0.3c-1.1-0.5-2.3-0.9-3.2-1.6
	s-2.4-0.2-3.1-1.5c0.9-0.3,1.6,0.1,2.2,0.5c1,0.7,2.3,0.6,3.4,1.1c0.2,0.1,0.5,0,0.7,0c0-0.1,0-0.1,0.1-0.2
	c-2.8-1.4-5.6-2.8-8.4-4.2c0.3-0.2,0.6-0.4,0.8-0.3c1.6,0.6,3.2,1.3,4.8,2c0.9,0.4,1.8,0.9,2.7,1.3c0.2,0.1,0.6-0.1,0.8-0.1
	c-0.1-0.3-0.1-0.6-0.2-0.9c-0.1-0.2-0.3-0.3-0.5-0.4c-2-0.9-4-1.8-6-2.7c-0.4-0.2-0.8-0.5-1.2-0.7c0.1-0.1,0.1-0.2,0.2-0.3
	c3.3,0.6,6.2,2.5,9.7,3.2c-0.2-0.4-0.2-0.7-0.4-0.9c-0.4-0.3-0.8-0.7-1.3-0.9c-3.4-1.6-6.8-3.1-10.2-4.7c-0.6-0.3-1.2-0.5-1.5-1.4
	c0.7,0.1,1.2,0.1,1.6,0.3c3.6,1.6,7.1,3.3,10.7,5c0.2,0.1,0.6,0,0.8,0c0-0.3,0-0.6-0.1-0.9c-0.1-0.2-0.3-0.3-0.5-0.4
	c-4-2.5-8.3-4.4-12.6-6.2c-0.4-0.2-0.8-0.4-1.1-0.5c0-0.1,0.1-0.2,0.1-0.3c0.4,0,0.9,0,1.2,0.1c0.9,0.3,1.8,0.6,2.7,1
	c3.2,1.5,6.3,3,9.5,4.5c0.3,0.1,0.6,0.2,0.8,0.4c0.1-0.1,0.2-0.2,0.2-0.2c-0.2-0.2-0.3-0.6-0.6-0.7c-2.7-2-5.9-3.3-9-4.5
	c-0.6-0.2-1.2-0.5-1.3-1.3l0,0c0.3,0,0.5,0,0.8,0c0.6,0.1,1.3,0.3,1.8,0.2c0.8-0.2,1.4-0.1,2.1,0.2c2,0.9,3.9,1.7,5.9,2.5
	c0.2,0.1,0.4,0,0.6,0.1c0-0.2,0-0.4,0-0.6c-0.2-0.7-0.6-1-1.3-1.3c-2-0.8-4-1.7-6-2.5c-0.7-0.3-1.6-0.4-2.3-0.8
	c-2.3-1.1-4.7-1.6-7.2-2c-0.6-0.1-1.1-0.5-1.7-0.7c0-0.1,0.1-0.3,0.1-0.4c0.6,0,1.2,0,1.8,0.1c2,0.5,4,1,6,1.5c0.3,0.1,0.7,0,1,0
	c0-0.4-0.1-0.7-0.1-1.2c1.2,0,2.3,0,3.4-0.1c0-0.1,0-0.2,0-0.3c-0.3-0.2-0.6-0.4-1-0.6c0.2-0.1,0.3-0.3,0.5-0.3
	c1.1-0.2,2.1-0.6,3.2-0.7c1.2-0.1,2.4,0,3.5-0.1c0.3,0,0.5-0.4,0.7-0.6c-0.2-0.2-0.5-0.6-0.7-0.6c-1.9-0.1-3.7-0.9-5.6-0.7
	c-0.3,0-0.5-0.1-0.8-0.2c0-0.1,0-0.2,0-0.3c0.3,0,0.6-0.1,0.9-0.1c1.8,0,3.6,0,5.4-0.1c0.3,0,0.5-0.3,0.8-0.5
	c-0.2-0.3-0.3-0.7-0.5-0.8c-0.8-0.3-1.7-0.5-2.6-0.6c-1.5-0.1-3.1,0-4.6-0.1c-0.2,0-0.5-0.2-0.7-0.4c0.3-0.2,0.6-0.5,0.9-0.5
	c2.3,0,4.6,0.1,6.9,0.1c0.2,0,0.5-0.3,0.7-0.5c-0.2-0.2-0.3-0.5-0.5-0.7c-1.4-0.7-2.8-0.5-4.3-0.4c-1,0.1-2-0.1-3-0.2
	c0-0.1,0-0.3,0-0.4c1.9-0.1,3.7-0.2,5.6-0.3c-0.1-0.4-0.1-0.7-0.1-1c0.5-0.1,0.9-0.1,1.3-0.2c0.3-0.1,0.5-0.4,0.8-0.5
	c-0.3-0.2-0.6-0.5-0.9-0.5c-1.9-0.1-3.8-0.1-5.8-0.7c-1.7-0.5-3.6-0.4-5.4-0.5c-0.3,0-0.6-0.1-0.9-0.2c0-0.1,0-0.2,0-0.4
	c0.9,0,1.8,0,2.7,0c1.6,0,3.3-0.3,4.8,0.1s2.9,0.3,4.4,0.3c0.3,0,0.5-0.1,0.8-0.1c0-0.1,0-0.2,0-0.3c-1-0.1-2.1-0.2-3.1-0.4
	c0-0.1,0-0.2,0-0.3c0.8-0.1,1.7-0.2,2.5-0.3c0.5,0,0.9-0.3,0.9-0.8c0-0.6-0.4-0.8-1-0.8c-1,0-2.1,0-3.1,0s-1.9,0.2-2.9,0.3
	c-0.4,0-0.8-0.2-1.2-0.3c0-0.1,0-0.2,0-0.4c0.6-0.1,1.2-0.2,1.8-0.4c0.4-0.1,0.8-0.4,1.2-0.6s0.8-0.6,1.3-0.8
	c0.4-0.2,0.9-0.1,1.4-0.2c0.2-0.1,0.4-0.3,0.6-0.5c-0.2-0.1-0.4-0.4-0.6-0.4c-3.8,0-7.6-0.3-11.4,0.5c-0.1,0-0.3,0.1-0.4,0
	c-0.2-0.1-0.5-0.2-0.7-0.4c0.2-0.2,0.4-0.5,0.6-0.6c0.5-0.1,1-0.1,1.5-0.1c1.8-0.1,3.7-0.1,5.5-0.3c1.6-0.1,3.2-0.4,4.9-0.6
	c0.1,0,0.2-0.1,0.3-0.2c0-0.1,0-0.2,0-0.2c-0.5,0-1-0.1-1.5-0.1c-1.7,0.1-3.4-0.3-5,0.6c-0.3,0.1-0.7,0-1.1-0.1
	c0.4-1.1,1.2-1,1.9-1.1c1.9-0.1,3.7-0.2,5.6-0.3c0.3,0,0.6-0.2,0.8-0.3c-0.2-0.3-0.4-0.6-0.7-0.8c-0.2-0.1-0.5-0.1-0.8-0.1
	c-2,0-4,0.1-6,0.1c-0.5,0-1-0.1-1.5-0.1c0-0.1,0-0.2,0-0.3c1.4-0.2,2.7-0.4,4.1-0.6c1.3-0.2,2.7-0.4,4-0.6c0-0.1,0-0.3,0-0.4
	c-2.7,0-5.4,0-8,0c0-0.1,0-0.2,0-0.4c2.7-0.4,5.5-0.8,8.3-1.2c-1.2-1.2-2.7-0.6-4-0.7c-0.8-0.1-1.7,0.3-2.5,0.3
	c-1.7,0.1-3.3,0.1-5,0.3c-2.3,0.3-4.6,0.8-6.9,1.2c-0.7,0.1-1.3,0.3-2,0.4c-1,0.2-2,0.3-3,0c1.3-0.4,2.5-0.8,3.8-1.1
	c1.5-0.3,2.9-0.6,4.4-0.9c0.5-0.1,1.1,0.1,1.7,0c1.3-0.1,2.6-0.4,3.9-0.5c1.8-0.3,3.7-0.5,5.5-0.7c0.8-0.1,1.6-0.1,2.3-0.1
	c0.3,0,0.6-0.1,0.8-0.2c0-0.1,0-0.2,0-0.2c-0.3,0-0.6,0-0.9,0c-1.2,0-2.4,0.2-3.5-0.1c-1.3-0.4-2.6-0.6-4-0.5c-0.4,0-0.7,0-1.1-0.1
	c0-0.1,0-0.2,0-0.3c0.5-0.1,1-0.2,1.6-0.3c1.3-0.1,2.5-0.1,3.8-0.1c0.5,0,1.1,0.2,1.6,0.3c1.1,0.4,2.2,0.2,3.3-0.1
	c-0.7-0.3-1.4-0.4-2.1-0.6c-1.4-0.3-2.8-1-4.4-0.9c-2,0.1-3.9,0.3-5.7,1.4c-0.6,0.4-1.4,0.5-2.1,0.7c-1.3,0.4-2.6,0.7-4,1.1
	c-1.7,0.5-3.4,1-5.1,1.6c-0.4,0.1-0.7,0.4-1.1,0.4c-0.4,0.1-1,0.2-1.3,0c-0.7-0.6-1.4-0.4-2.2-0.1c-1.1,0.5-2.2,1-3.3,1.3
	c-2.3,0.7-4.7,1-6.8,2.2c-0.3,0.1-0.7,0-1,0c0-0.1-0.1-0.2-0.1-0.4c1-0.5,1.9-1,2.9-1.4c3.1-1.1,6.3-2.2,9.5-3.2
	c1.8-0.6,3.6-1.1,5.1-2.2c0.5-0.4,1.2-0.5,1.9-0.6c0.4-0.1,0.7-0.2,1.1-0.3c2-0.6,4-1.1,6-1.7c2.1-0.6,4.2-1.3,6.3-1.8
	c1.5-0.4,3.1-0.6,4.7-0.9c0.3-0.1,0.7-0.1,1-0.2c0-0.1,0-0.2,0-0.3c-0.6-0.4-1.1-0.8-1.8-0.6c-1.9,0.5-3.9,1.1-5.8,1.6
	c-1.4,0.4-2.8,0.8-4.3,0.9c-1.8,0.1-3.4,0.5-4.9,1.6c-0.2,0.1-0.4,0.2-0.6,0.3c-1.7,0.5-3.5,0.8-5.2,1.4c-2.8,0.9-5.5,1.9-8.2,2.9
	s-5.4,2.1-8.1,3.2c-0.9,0.4-1.8,0.9-2.9,1.4c0.6,0.3,1,0.4,1.7,0.7c-0.9,0.4-1.4,0.7-2,0.9c-0.7,0.2-1.4,0.8-2-0.3
	c-0.1-0.1-0.6-0.1-0.8,0c-0.3,0.2-0.5,0.6-0.6,0.9c0,0.2,0.4,0.6,0.7,0.6c0.9,0.1,1.9,0.1,2.8,0c0.8-0.1,1.6-0.5,2.3-0.8
	c1-0.4,2.1-0.7,3.4-0.3c-0.4,0.2-0.5,0.3-0.7,0.4c-1,0.4-2.1,0.7-3.1,1.1c-2,0.8-4.1,1.2-5.8,2.6c-0.1,0.1-0.2,0.1-0.3,0.1
	c-1,0.3-2,0.5-3,0.8c-0.2,0.1-0.4,0.2-0.6,0.4c0.2,0.2,0.3,0.6,0.6,0.7c0.3,0.1,0.7,0.2,1,0.1c0.7-0.2,1.4-0.5,2.1-0.8
	c3.6-1.4,7.2-2.8,10.9-4.2c0.8-0.3,1.6-0.4,2.4,0.1c-8.6,3.1-17.1,6.2-25.3,10.1c0.5,0.1,1,0.1,1.4,0c1.8-0.5,3.5-1.2,5.3-1.7
	c0.5-0.1,1.1,0,1.7,0c0,0.1,0,0.3,0.1,0.4c-0.6,0.2-1.2,0.5-1.9,0.7c-1.6,0.5-3.3,1-4.9,1.5c-0.4,0.1-0.6,0.5-0.9,0.7
	c0,0.1,0.1,0.2,0.1,0.3c0.4-0.1,0.9-0.1,1.3-0.2c1.3-0.3,2.5-0.9,3.8-1c2.1-0.3,4.2-0.8,6.2-1.5c1-0.3,1.9-0.7,2.9-1
	c2.4-0.7,4.8-1.3,7.2-1.9c0.4-0.1,0.9-0.1,1.6-0.1c-0.6,0.9-0.8,1-1.7,1.1c-1.4,0.2-2.7,0.5-4.1,0.9c-1.3,0.3-2.6,0.8-3.9,1.2
	c-0.6,0.2-1.2,0.5-1.8,0.8c0,0.1,0.1,0.2,0.1,0.2c1,0.2,2,0.4,3.1,0.7c-0.4-1.2,0.3-1.2,0.9-1.1c3.6,0.3,7-0.5,10.5-1.2
	c2.6-0.5,5.3-0.5,7.9-0.4c0.5,0,0.9,0.3,1,1.2c-3.3-1.2-6.3,0.1-9.4,0.5c0.2,0.1,0.4,0.2,0.6,0.2c1.6,0.3,3.2,0.6,4.7,1
	c0.6,0.1,1,0.2,1.3-0.4c0.1-0.2,0.4-0.5,0.7-0.5c2.1,0,4.2-0.4,6.2,0.6c1.2,0.6,2.6,0.8,3.9,1.2c0.1,0,0.3,0,0.4,0
	c2.1-0.4,4.2,0.2,6.3,0.3c0.2,0,0.4,0.2,0.7,0.2c-0.2,0.3-0.5,0.3-0.7,0.4c-1.3,0.1-2.6,0.1-3.8-0.4c-0.4-0.2-1.1-0.4-1.1,0.3
	c0,0.9-0.4,0.7-0.9,0.5c-1.1-0.4-2.3-0.9-3.4-1.2c-1.8-0.4-3.7-0.6-5.6-0.9c-0.3,0-0.6,0.1-0.9,0.2c0.9,0.5,1.7,0.8,2.5,1.1
	c2.4,1,4.8,2,7.2,3c0.4,0.2,0.8,0.4,0.5,1c-0.3-0.1-0.6-0.3-0.9-0.4c-3.6-1.4-7.2-2.8-10.8-4.1c-0.4-0.2-0.9-0.1-1.4-0.1
	s-0.6,0.3-0.2,0.7c0.2,0.2,0.4,0.3,0.7,0.4c1.8,0.8,3.7,1.5,5.5,2.3c0.9,0.4,1.7,0.9,2.5,1.4c0.2,0.1,0.2,0.6,0.3,0.9
	c-0.3-0.1-0.6-0.1-0.8-0.2c-2.3-1.1-4.6-2.3-7-3.2s-4.8-1.5-7.3-2.1c-0.9-0.2-2-0.2-2.9,0.3c0.4,0.3,0.7,0.7,1.2,0.8
	c4.1,0.7,7.8,2.4,11.6,3.9c0.6,0.3,1.2,0.6,1.4,1.7c-2.5-1-4.8-2-7.1-2.9s-4.8-1.5-7.3-2c0,1,0,1,0.6,1.2c1,0.3,1.9,0.6,2.9,0.9
	c1.6,0.5,3.1,1,4.5,2c0.6,0.4,1.3,0.6,2,0.8c1.1,0.3,2.3,0.4,3.4,0.7c0.5,0.1,1.1,0.4,1.1,1.2c-0.6-0.1-1.1-0.1-1.6-0.3
	c-1.6-0.6-3.2-1-4.9-1.1c-0.5,0-1.1-0.2-1.4-0.5c-0.8-0.9-1.8-1.5-3-1.8c-2.4-0.6-4.7-1.2-7.1-1.8c-0.4-0.1-0.9,0-1.3,0.1
	c0,0.1,0,0.2,0,0.3c1.1,0.4,2.2,0.8,3.3,1.3c1.1,0.4,2.3,0.6,3.2,1.9c-0.4,0-0.7,0.1-0.9,0c-2.4-0.9-4.9-1.8-7.3-2.6
	c-1.5-0.5-3.1-0.4-4.6,0.1c1.1,0.4,2.3,0.7,3.5,0.9c1.2,0.3,2.5,0.4,3.6,0.9s2,1.4,3,2.1c0.4,0.3,0.9,0.4,1.3,0.5
	c1.1,0.3,2.2,0.4,3.3,0.7c0.4,0.1,0.8,0.5,1.2,0.7c0.6,0.4,1.2,0.9,1.9,1c1.5,0.3,3,0.4,4.5,0.8c1.9,0.4,3.7,0.9,5.5,1.5
	c1.6,0.5,3,1.5,4.7,1.9c0.5,0.1,0.9,0.6,1.4,0.9c-0.1,0.1-0.1,0.3-0.2,0.4c-0.8-0.3-1.5-0.6-2.2-0.9c-0.5-0.3-1-0.7-1.5-0.9
	c-0.9-0.3-1.8-0.6-2.7-0.8c-2.2-0.4-4.4-0.9-6.6-1.6c-0.8-0.3-1.6-0.4-2.4-0.5c-0.4-0.1-0.8,0-1.2,0c0.4,0.9,1.1,1.3,2.4,1.7
	c2.2,0.7,4.3,1.4,6.4,2.1c0.7,0.2,1.5,0.3,2.2,0.6c2.6,1.1,5.3,2.2,7.9,3.4c0.3,0.1,0.5,0.3,0.7,0.5c-2,0.4-3.4-1.2-5.2-1.5
	c-0.1,0.4-0.2,0.7-0.3,1c-0.3-0.2-0.7-0.3-0.9-0.6c-1.1-1-2.4-1.8-3.8-2.3c-0.3-0.1-0.7,0-1,0c0,0.1,0,0.2-0.1,0.2
	c0.9,0.9,1.6,2.1,3,2.3c0.5,0.1,1.1,0.2,1.2,1c-1.3,0-2.6,0.5-3.7-0.9c-0.6-0.8-3.3-1.2-4.1-0.7c-0.5,0.4-0.9,0.3-1.3-0.1
	c-0.7-0.6-1.4-0.7-2.2-0.3c-0.3,0.2-0.8,0.1-1.2,0c-0.9-0.2-1.8-0.7-2.8-0.8c-2.4-0.4-4.6-1.5-7.1-1.2c-0.2,0-0.4-0.1-0.7-0.2
	c-1-0.3-1.9-0.6-2.9-0.9c-0.2-0.1-0.5,0.1-0.8,0.1c0,0.1-0.1,0.2-0.1,0.3c0.4,0.2,0.8,0.6,1.2,0.7c1.5,0.4,2.9,0.8,4.4,1.2
	c0.9,0.2,1.8,0.4,2.7,0.6c1.5,0.3,3,0.5,4.5,0.8s3,0.6,4.5,1s3,0.9,4.4,1.3c0.3,0.1,0.5,0.4,0.8,0.6c-0.1,0.1-0.1,0.2-0.2,0.3
	c-0.4-0.1-0.7-0.2-1.1-0.3c-1.9-0.5-3.7-1-5.6-1.4c-2.4-0.5-4.8-0.9-7.3-1.4c-1.9-0.4-3.7-1.2-5.7-0.9c-0.2,0-0.6-0.1-0.8-0.3
	c-1.2-0.9-2.4-1.7-3.5-2.7c-1-0.8-2.1-1.1-3.4-1.2c0.1,0.4,0.1,0.7,0.2,1c-0.1,0.1-0.1,0.1-0.2,0.2c-0.4-0.3-0.9-0.6-1.3-0.8
	c-0.3-0.2-0.8-0.5-1-0.4c-0.9,0.5-1.3,0-1.8-0.5c-0.3-0.3-0.7-0.7-1.1-1c-0.4-0.2-0.8-0.3-1.2-0.5c0,0.1-0.1,0.2-0.1,0.3
	C105.6,50.1,106.1,50.9,106.5,51.6L106.5,51.6z M56,58.3L56,58.3c-0.2-0.5,0.2-0.7,0.6-0.8c0.4-0.1,0.8-0.1,1.2-0.3
	c0.7-0.3,1.4-0.7,2.1-1c0.9-0.3,1.9-0.4,2.8-0.8c1.6-0.8,3.1-1.7,4.6-2.6c0.1-0.1,0.2-0.2,0.4-0.4c-2.7,0-5,1.8-7.7,0.9
	c0.5-0.4,1.1-0.7,1.6-0.8c1.5-0.3,3-0.5,4.5-0.9c0.9-0.2,1.8-0.5,2.6-0.8c0-0.1,0-0.2,0-0.3c-0.3,0-0.5-0.1-0.8-0.1
	c-1.2,0.2-2.4,0.5-3.5,0.7c-1.8,0.3-3.6,0.5-5.4,0.8c-0.1,0-0.2,0.1-0.3,0.2c0.3,1-0.2,1.1-1,1.1c-0.6,0-1.3,0-1.9,0.1
	c-1.2,0.2-2.4,0.4-3.6,0.5c-1.2,0.2-2.4,0.4-3.6,0.4c-1.7,0.1-3.4,0.1-5.2,0.1c0.5-1.3,1.8-0.8,2.6-1.3c0-0.1,0-0.2,0-0.2
	c-2.5-0.7-5-1.4-7.5-2.1c0-0.1,0-0.2,0-0.3c0.5,0,1-0.1,1.4-0.1c2,0.4,4,0.8,6,1.2c1.2,0.3,2.3,0.7,3.4,1c0.4,0.1,0.8,0,1.2,0
	c0-0.1,0-0.3,0.1-0.4c-0.7-0.2-1.5-0.5-2.2-0.7c-1.2-0.3-2.4-0.4-3.5-0.8c-2.6-0.7-5.1-1.4-7.6-2.1c-0.9-0.3-1.8-0.5-2.8-0.6
	c-2.1-0.3-4.2-0.5-6.3-0.7c0,0-0.1-0.1-0.2-0.3c0.4-0.1,0.7-0.2,1.1-0.2c2-0.3,4,0.2,6,0.5c1.4,0.2,2.9,0.5,4.3,0.9
	c1.8,0.5,3.5,1.1,5.3,1.6c1.4,0.4,2.8,0.6,4.3,0.9c0.3,0.1,0.6-0.1,1.1-0.1c-0.4-0.2-0.5-0.4-0.7-0.5c-2.5-1.3-5-2.5-7.8-3.1
	c-1.2-0.2-2.5-0.5-3.6-1.1c-1.2-0.7-2.4-1.1-3.6-1.2c-2-0.2-3.9-0.1-5.9-0.4c-2.7-0.5-5.5-0.5-8.3-0.7c-2-0.2-3.9-0.4-5.9-0.6
	c-0.1,0-0.1,0-0.2,0C11.5,42.6,9.3,42.3,7,42c-0.2,0-0.4,0.2-0.6,0.3c0.1,0.2,0.2,0.6,0.4,0.6c1.5,0.4,2.9,1,4.4,1.2
	c2.5,0.3,5.1,0.4,7.6,0.7c0.3,0,0.6,0.1,0.9,0.2c0,0.1,0,0.2,0,0.3c-0.3,0-0.7,0.1-1,0.1c-2.5-0.1-4.9,0.2-7.4-0.4
	c-1.2-0.3-2.5-0.4-3.8-0.6c-0.2,0-0.4-0.1-0.6,0s-0.6,0.4-0.6,0.5c0,0.2,0.3,0.6,0.5,0.6c1.4,0.3,2.7,0.5,4.1,0.7
	c1.8,0.2,3.5,0.4,5.3,0.7c0.9,0.1,1.7,0.3,2.6,0.5c0.2,0.1,0.5,0.1,0.7,0.3s0.2,0.5,0.4,0.7c-0.3,0-0.5,0.1-0.8,0.1
	c-0.6-0.1-1.3-0.4-1.9-0.5c-2-0.2-3.9-0.4-5.9-0.6c-0.3,0-0.5-0.2-0.8-0.2C9.2,47,8,47,6.7,46.9c0,0.1,0,0.3,0,0.4
	c5.7,1.7,11.7,1.8,17.6,2c-0.1,0.3-0.2,0.4-0.4,0.5c-1.4,0.4-2.8,0.9-4.4,0.4C18.8,50,18.1,50,17.4,50c-1.1,0-2.2,0-3.3-0.1
	c-1-0.1-2-0.3-3-0.5c-0.9-0.2-1.7-0.3-2.6-0.4c-0.4-0.1-0.9,0-1.3,0c0,0.1,0,0.2,0,0.3c2.2,1,4.3,2.2,6.9,2c2.7-0.2,5.4-0.4,8.1,0.3
	c0.3,0.1,0.6,0.3,1,0.4c-0.2,0.2-0.3,0.3-0.3,0.3c-1.7,0-3.3,0-5-0.2c-1-0.1-1.9-0.2-2.9,0.1c-0.6,0.2-1.2,0.3-1.8,0.1
	c-1.9-0.6-3.7-1.3-5.6-1.9c-0.3-0.1-0.7-0.2-1-0.2c0,0.1-0.1,0.2-0.1,0.3c1.1,1.1,2.7,1.4,4,2.4c-1.4,0.6-2.6-0.9-3.9,0
	c0.2,0.2,0.3,0.3,0.4,0.3c0.3,0.1,0.6,0.3,0.9,0.4c2.5,0.7,4.9,1.4,7.5,1.5c1.5,0,3,0.3,4.4,0.5c0.1,0,0.2,0.1,0.4,0.3
	c-0.3,0.1-0.5,0.2-0.7,0.3c-2.9,0.3-5.7-0.1-8.6-0.7c-1.1-0.2-2.2-0.6-3.3-0.9c-0.3-0.1-0.6,0.1-0.9,0.2c0,0.1,0,0.2,0,0.3
	c4.5,1.4,9.2,2.3,13.9,3.3c-0.3,0.2-0.6,0.4-0.9,0.4c-1.2-0.1-2.4-0.1-3.5-0.4c-2.6-0.5-5.2-1.2-7.8-1.8c-0.2,0-0.4-0.1-0.6,0
	S7.2,56.8,7.2,57c-0.1,0.2,0.2,0.6,0.4,0.6c0.7,0.3,1.3,0.5,2,0.7c1.3,0.3,2.5,0.5,3.8,0.7c0.1,0,0.2,0.2,0.5,0.4
	c-0.5,0.1-0.8,0.2-1,0.1c-1.5-0.1-2.9-0.3-4.4-0.5c-1-0.1-1.4,0.2-1.4,0.9s0.3,1,1.3,1c0.9,0,1.9,0,2.8-0.1c1.4-0.1,2.7-0.4,4.1-0.6
	c0.3,0,0.7,0,1.3,0c-0.3,0.3-0.4,0.4-0.4,0.4c-0.8,0.6-1.7,0.7-2.6,0.8c-1.8,0.2-3.5,0.5-5.3,0.7c-0.2,0-0.5,0.1-0.7,0.2
	c0,0.1,0,0.2,0,0.3c1.2,0.2,2.5,0.2,3.7-0.1c0.8-0.2,1.6-0.4,2.4-0.5c1.1-0.1,2.3-0.1,3.4-0.5c1-0.3,2.1-0.2,3.2-0.3
	c0,0.1,0,0.2,0.1,0.3c-0.1,0.1-0.2,0.2-0.4,0.3c-1.4,0.3-2.8,0.6-4.2,0.8c-0.3,0.1-0.7,0.1-1,0.1c-1,0.2-2.1,0.4-3.1,0.5
	c-0.8,0.1-1.6,0.1-2.3,0.2c-0.6,0.1-1.1,0.2-1.2,1.1c0.9-0.1,1.7-0.1,2.5-0.2c2.6-0.4,5.3-0.8,7.9-1.2c2.4-0.4,4.7-0.8,7.1-1.2
	c0.5-0.1,0.9,0,1.4,0c0,0.1,0,0.2,0,0.2c-0.2,0.1-0.4,0.3-0.6,0.3c-1.1,0.3-2.3,0.5-3.4,0.8c-2,0.4-4,0.9-6.1,1.2
	c-1.8,0.3-3.7,0.5-5.5,0.8c-0.4,0.1-1,0.1-0.8,0.7c0.1,0.2,0.7,0.4,1,0.4c0.4,0,0.9-0.1,1.3-0.2c0.4,0,0.8,0,1.2-0.1
	c0.5-0.1,1.1-0.2,1.6-0.3c1.9-0.4,3.9-0.8,5.8-1.1c1.2-0.2,2.5-0.2,3.8-0.3c0,0.1,0,0.2,0,0.3c-4.6,0.9-9.3,1.8-13.9,2.7
	c0,0.1,0,0.2,0,0.3c1.7,0,3.4-0.1,5.2-0.1c0.1,0,0.2-0.1,0.3-0.1c1-0.2,2.1-0.4,3.1-0.5c0.9-0.1,1.7,0,2.6-0.1
	c1.9-0.2,3.9-0.5,5.8-0.7c0.8-0.1,1.7-0.4,2.5-0.5c0.6-0.1,1.2-0.1,1.7-0.2c0,0.1,0,0.2,0.1,0.4c-0.3,0.1-0.5,0.3-0.8,0.3
	c-2.5,0.4-5.1,0.9-7.6,1.3c-1.4,0.2-2.9,0.2-4.4,0.4c-0.6,0.1-1.2,0.3-1.9,0.3c-2,0.1-4,0.2-6,0.3c-0.3,0-0.5,0.1-0.8,0.1
	c0,0.1-0.1,0.2-0.1,0.3c0.4,0.2,0.8,0.5,1.2,0.6c1,0.1,2,0.2,3,0.1c2.1-0.2,4.2-0.5,6.2-0.6c1.1-0.1,2.2-0.1,3.4-0.1
	c0.7,0,1.4-0.1,2.1-0.2c2-0.4,3.9-0.8,5.9-1.2c1.2-0.3,2.5-0.4,3.6-1c0.9-0.4,1.5-0.3,2.4-0.1c0.9,0.3,2,0.3,2.9,0.1
	c1.2-0.2,2.4-0.8,3.5-1.2c0.7-0.2,1.3-0.5,1.9-0.8c0-0.1,0-0.2-0.1-0.3c-0.3,0-0.7,0-1,0c-0.9,0.2-1.8,0.4-2.8,0.5
	c-0.6,0.1-1.3,0.1-1.9,0.2c-1.1,0.2-2.1,0.4-3.2,0.5c-0.2,0-0.4-0.1-0.6-0.1c0-0.1,0-0.2,0-0.3c1.6-0.3,3.2-0.6,4.8-0.9
	c1.7-0.4,3.5-0.8,5.2-1.2c1.1-0.3,2.1-1.1,3.4-0.4c0.2,0.1,0.7,0,1-0.1c1.9-0.7,3.8-1.4,5.6-2.2c0.3-0.1,0.6-0.3,0.9-0.5
	c-0.4-0.3-0.7-0.5-0.9-0.8C57.4,58.1,57.1,57.9,56,58.3z M28.7,21.7c-1-0.1-2.1-0.1-3-0.4c-4.3-1.5-8.7-2.7-13.2-3.5
	c-0.2,0-0.5,0.3-0.8,0.4c0.2,0.2,0.4,0.5,0.6,0.5c2,0.5,4.1,0.8,6.2,1.3c1.1,0.3,2.2,0.7,3.2,1.2c0.3,0.1,0.4,0.5,0.6,0.8
	c-0.3,0-0.6,0.1-0.9,0c-1.4-0.4-2.8-1-4.2-1.3c-1.7-0.4-3.5-0.7-5.2-1c-0.6-0.1-1.3-0.1-2-0.1c-0.3,0-0.7,0.3-0.7,0.4
	c0,0.3,0.1,0.7,0.4,1c0.2,0.2,0.6,0.3,1,0.3c0.7,0.1,1.4,0.2,2.1,0.3c2.4,0.5,4.7,1,7.1,1.5c1,0.2,2,0.4,3,0.6s2,0.5,2.9,0.8
	c0.2,0.1,0.4,0.4,0.6,0.6c-0.1,0.1-0.1,0.2-0.2,0.2c-1-0.2-2.1-0.3-3.1-0.5c-1.5-0.3-2.9-0.6-4.4-0.9c-2.6-0.6-5.3-1.1-7.9-1.7
	c-0.6-0.1-1.2-0.3-1.9,0.3c0.9,0.3,1.6,0.6,2.3,0.8c2.8,0.9,5.7,1.7,8.5,2.5c0.5,0.1,0.9,0.4,1.4,0.6c0,0.1,0,0.2-0.1,0.3
	c-0.3,0-0.6,0.1-0.9,0c-1-0.2-2-0.4-3-0.7c-2.1-0.6-4.2-1.3-6.4-1.9C9.9,24,9.4,24,9,24.1c-0.3,0.1-0.7,0.5-0.9,0.8
	C8,25,8.4,25.5,8.7,25.7c0.5,0.2,1,0.2,1.5,0.3c3.8,0.8,7.7,1.5,11.5,2.4c0.4,0.1,0.8,0.4,1.2,0.6c0,0.1-0.1,0.2-0.1,0.3
	c-0.3,0-0.6-0.1-0.9-0.1c-1.5-0.3-3-0.6-4.6-0.9c-1.7-0.3-3.5-0.6-5.3-0.9c-1-0.2-2-0.6-3-0.7c-0.3-0.1-0.7,0.3-1,0.4
	c0.2,0.3,0.4,0.7,0.7,0.8c1.3,0.4,2.6,0.8,3.9,1.1c2.6,0.6,5.3,1.2,7.9,1.9c0.5,0.1,1,0.4,1.1,1.1c-0.9-0.2-1.8-0.3-2.7-0.5
	c0,0.1-0.1,0.2-0.1,0.2c0.3,0.2,0.6,0.4,0.9,0.5c0,0.1,0,0.2,0,0.3c-0.4,0.1-0.8,0.2-1.2,0.2c-1.7-0.3-3.4-0.6-5.2-0.9
	c-1.5-0.3-2.9-0.5-4.4-0.7c-0.3,0-0.6,0.3-0.9,0.5c0.3,0.2,0.5,0.5,0.8,0.6c0.5,0.2,1.1,0.2,1.7,0.3c1.4,0.3,2.9,0.6,4.3,0.9
	c1.5,0.3,3,0.5,4.5,0.8c1.9,0.4,3.8,1,5.8,0.9c0.8,0,1.6,0,2.3,0.1c0.9,0.2,1.7,0.5,2.6,0.7c0,0.1,0,0.2-0.1,0.3c-1,0-2.1,0-3.1-0.1
	s-2-0.3-3-0.4c-1-0.1-2-0.2-3-0.4c-1.2-0.2-2.5-0.5-3.7-0.7c-2.3-0.4-4.6-0.8-6.9-1.1c-0.7-0.1-1.4-0.1-2.1-0.1
	c-0.2,0-0.4,0.2-0.5,0.4c0,0.1,0.1,0.4,0.3,0.5c0.2,0.1,0.4,0.3,0.7,0.3c1.2,0.2,2.4,0.4,3.7,0.6c2.3,0.3,4.6,0.4,6.9,0.7
	c0.5,0.1,0.9,0.4,1.4,0.6c0,0.1,0,0.2,0,0.3c-0.3,0.2-0.5,0.3-0.8,0.5c0,0.1,0.1,0.2,0.1,0.3c2.7-0.1,5.4,0.3,8,0.9
	c-0.2,0.1-0.4,0.2-0.6,0.2c-2.5-0.1-5.1-0.3-7.6-0.4c-0.3,0-0.6-0.1-0.8-0.3c-0.7-1.2-1.9-1.3-3.1-1.4c-1.3-0.1-2.6-0.3-3.9-0.5
	c-1.4-0.2-2.8-0.5-4.2-0.6c-0.2,0-0.5,0.3-0.8,0.5c0.2,0.2,0.3,0.5,0.6,0.5c1.7,0.3,3.4,0.5,5,0.7c1.7,0.2,3.5,0.5,5.2,0.7l0.1,0.1
	c-0.2,0.6-0.5,0.9-1.2,0.6c-0.4-0.2-0.9-0.2-1.4-0.2c-1.5-0.1-3-0.3-4.5-0.4c-1-0.1-2-0.1-3-0.1c-0.2,0-0.4,0.1-0.6,0.1
	c0.4,0.3,0.8,0.3,1.2,0.3c0.8,0.1,1.7,0.1,2.5,0.2c2.3,0.3,4.6,0.7,6.9,0.9c3.6,0.3,7.3,0.4,10.9,0.6c0.5,0,1,0.2,1.4,0.2
	c1.9,0.3,3.7,0.6,5.6,0.9c0.9,0.1,1.8,0.4,2.5,1.1c-0.5,0.2-0.9,0.2-1.4,0.2c-1.2-0.2-2.4-0.5-3.6-0.7c-0.8-0.2-1.6-0.3-2.4-0.4
	c-0.4-0.1-0.7-0.2-1.1-0.3s-0.8-0.3-1.2-0.3c-3.5-0.1-7.1,0.2-10.6-0.3c-2.8-0.4-5.6-0.5-8.4-0.7c-0.6,0-1.1-0.2-1.7-0.3
	S6.6,39.5,6.5,40c-0.1,0.3,0.5,0.7,0.8,1c0,0,0.2,0,0.3,0.1c1.6,0.2,3.1,0.4,4.7,0.6c0.3,0,0.6,0,0.9,0c0.5,0,1,0.1,1.5,0.1
	c1.2,0.1,2.5,0.3,3.7,0.5c0.8,0.1,1.6-0.1,2.3,0.1c2.6,0.9,5.4,0.2,8.1,0.9c2.1,0.6,4.5,0.4,6.8,0.6c0.5,0,1,0.2,1.5,0.2
	c0.3,0,0.7,0,0.7-0.2c0.4-0.9,1.1-0.8,1.8-0.6c0.6,0.2,1.2,0.3,1.9,0.4c2.9,0.7,5.9,1.2,8.5,2.8c0.5,0.3,0.9,0.6,1.3,1
	c1,1.1,2.9,1.5,4.1,0.8c-0.3-0.2-0.6-0.3-0.8-0.5c-1.9-1.1-3.9-2.3-5.8-3.4c-0.8-0.5-1.6-1-2.4-1.2c-1.4-0.4-2.9-0.4-4.3-0.7
	c-0.4-0.1-0.7-0.4-1.1-0.6c-0.6-0.4-1.2-0.9-1.8-1c-2.5-0.5-5-0.9-7.6-1.4c-0.1,0-0.3-0.1-0.6-0.3c0.5-0.1,0.7-0.2,1-0.2
	c2.8-0.1,5.5,0.5,8.2,1.2c0.3,0.1,0.7,0.1,1,0.1c0.6-0.1,1.2-0.3,1.9-0.3c2.2-0.1,4.4,0.6,6.5,1.2c1,0.3,2,0.6,3,0.9
	c0.6,0.2,0.7-0.1,0.5-0.6c-0.1-0.2-0.3-0.6-0.5-0.6c-2-0.7-4.1-1.5-6.1-2.1c-0.8-0.3-1.7-0.3-2.5-0.9c0.3-0.3,0.6-0.5,0.8-0.7
	c-0.5-1.2-2.7-2.8-3.6-2.7c0.2,0.8,1.4,1.2,1.1,2.4c-1.7-1.4-3.4-2.8-5-4.1c0.1-0.1,0.2-0.2,0.2-0.4c0.7,0.3,1.3,0.6,2.1,1
	c0.3-1.2,1.3-0.2,2.2-0.6c-0.8-0.7-1.5-1.4-2.2-2c0-0.1,0-0.1,0-0.2c0.6,0.1,1.3,0.1,1.9,0.2c1.2,0.3,2.4,0.6,3.6,0.9
	c2,0.6,4,1.2,6,1.8c0.7,0.2,1.3,0.7,1.6,1.5c0.5,1.2,2.4,1.9,3.6,1.5c-0.6-0.5-1.1-0.9-1.7-1.3c0.1-0.1,0.1-0.2,0.2-0.3
	c0.3,0.1,0.6,0.1,0.9,0.2c1.5,0.6,2.9,1.2,4.4,1.8c0.6,0.2,1.2,0.3,1.8,0.5c0-0.1,0.1-0.2,0.1-0.3c-1.9-2.1-4.8-2.5-7.4-3.9
	c0.4-0.2,0.7-0.2,0.9-0.3c0-0.1,0-0.2,0.1-0.2c-3.3-1.2-6.7-2.4-10.1-3.6c0.2,0,0.2-0.1,0.3-0.1c0.4,0.1,0.7,0.1,1.1,0.2
	c3.4,0.9,6.7,2.1,9.8,3.7c2.1,1,4.1,2.1,6.4,2.8c2.4,0.8,4.7,2.4,7,3.6c0.4,0.2,0.9,0.6,1.3,0.8c0.5-1,0.4-1.7-0.3-2.2
	c-1.2-0.8-2.5-1.6-3.8-2.3c-2.7-1.4-5.5-2.7-8.3-4c-0.5-0.2-0.7-0.5-0.6-1.1c4.6,1.7,9,3.8,13.1,6.5c0.3-1-0.2-1.4-0.8-1.6
	c-2.3-1.3-4.7-2.6-7-3.9c-1.1-0.7-2.2-1.5-3.3-2.2c-0.3-0.2-0.5-0.4-0.9-0.6c-2.8-1.1-5.5-2.1-8.3-3.2c-0.2-0.1-0.3-0.2-0.4-0.3
	c0-0.1,0-0.2,0.1-0.3c0.6,0.1,1.3,0,1.9,0.2c3.2,1.3,6.4,2.6,9.6,3.9c0.4,0.2,0.6,0.6,0.9,0.8c0.4,0.4,0.8,0.9,1.3,1.2
	c2.2,1.3,4.4,2.5,6.7,3.7c0.2,0.1,0.4,0.2,0.7,0.4c0.1-0.9-0.4-1.3-0.9-1.6c-1.8-1.1-3.7-2-5.5-3.1c-0.5-0.3-0.8-0.8-1.2-1.3
	c-0.3-0.3-0.6-0.8-1-0.9c-1.5-0.7-3-1.2-4.5-1.8c-2-0.8-4.3-1.2-6.1-2.6c-0.5-0.3-1.1-0.5-1.7-0.7c-1.4-0.4-2.8-0.8-4.1-1.3
	c-1.9-0.6-3.8-1.4-5.7-2c-1.6-0.5-3.2-1-4.8-1.5c-0.3-0.1-0.5-0.3-0.7-0.4c0.4-0.2,0.7-0.3,1-0.2c1,0.3,1.9,0.6,2.9,0.9
	c0.5,0.1,1.1,0.2,1.6,0.2c0-0.1,0.1-0.2,0.1-0.3c-0.2-0.1-0.3-0.3-0.5-0.4c-0.8-0.3-1.7-0.6-2.5-0.9c-2.3-1-4.7-2-7-3
	c-0.5-0.2-1.1-0.2-1.6-0.3c0,0.1,0,0.1,0,0.2c0.5,0.4,1,0.8,1.6,1.2c-0.1,0.1-0.1,0.2-0.2,0.3c-0.3-0.1-0.6-0.1-0.9-0.2
	c-0.9-0.3-1.7-0.7-2.6-0.9c-2.1-0.5-4.2-0.9-6.2-1.4c-2.1-0.6-4.1-1.3-6.2-1.9c-0.7-0.2-1.1,0.2-1,0.8c0.1,0.3,0.5,0.7,0.8,0.8
	c1.4,0.4,2.8,0.6,4.1,0.9c1.8,0.4,3.6,0.9,5.3,1.4c1.8,0.6,3.6,1.3,5.4,1.9c0.2,0.1,0.4,0.2,0.5,0.3c0,0.1-0.1,0.2-0.1,0.3
	c-0.6-0.1-1.3-0.2-1.9-0.4c-2.1-0.6-4.2-1.4-6.4-2c-2.5-0.6-5.1-1.1-7.7-1.6c-0.3-0.1-0.8,0.1-0.8,0.3c-0.2,0.5,0.3,0.6,0.6,0.7
	c2.1,0.5,4.1,1,6.2,1.6c2.2,0.7,4.4,1.5,6.6,2.2c0.5,0.2,1,0.5,1.6,0.8c0,0.1,0,0.2-0.1,0.3c-0.5,0-1,0-1.4-0.1
	c-1.8-0.6-3.7-1.3-5.5-1.8c-2.8-0.8-5.6-1.5-8.4-2.2c-0.3-0.1-0.8,0.3-1,0.7c-0.1,0.2,0.2,0.9,0.4,1c0.9,0.3,1.9,0.4,2.9,0.7
	c2.1,0.6,4.3,1.1,6.4,1.7c2,0.6,4,1.3,6.1,2C28.2,21.3,28.4,21.6,28.7,21.7L28.7,21.7z M76.8,33.9c-0.1,0-0.3,0-0.4-0.1
	c0-1.7,0.1-3.4,0.1-5c0-0.2,0-0.5-0.1-0.7c-0.3,0.1-0.6,0.1-0.7,0.2c-0.3,0.4-0.5,0.9-0.6,1.4c-0.1,0.7,0,1.4-0.1,2.2
	c-0.1,1.3-0.3,2.5-0.4,3.8c-0.1,1.5-0.2,3-0.3,4.6c-0.1,0.9-0.2,1.9-0.3,2.8c-0.1,3,0.2,6-0.3,9c-0.2,0.9,0,2,0,2.9
	c0,0.3,0.3,0.8,0.5,0.8c0.6,0.1,0.5-0.4,0.6-0.8c0.1-0.9,0.1-1.8,0.2-2.8c0.1-0.6,0.4-1.3,0.4-1.9c0-0.6-0.3-1.2-0.3-1.9
	c0-1.2,0.1-2.3,0.2-3.5c0.1-0.7,0.2-1.4,0.2-2.1c0.1,0,0.2,0,0.3,0c0,0.3,0.1,0.6,0.1,0.9c0,2.2,0,4.4,0,6.6c0,0.2,0,0.4-0.1,0.6
	c-0.3,1.1-0.2,1.2,0.8,1.7c0.9,0.4,1.8,1,2.6,1.5c0.4,0.2,0.7,0.4,1,0.6c0.2,0.1,0.5,0.2,0.6,0.1c0.1-0.2,0.3-0.5,0.2-0.7
	c-0.1-0.3-0.4-0.7-0.7-0.8c-1.3-0.2-1.8-1.5-2.8-2c-0.1,0-0.1-0.2-0.2-0.5c0.4,0.1,0.7,0.1,1,0.1c0.2,0,0.5,0.1,0.6,0
	c0.5-0.6,1-1.2,1.4-1.9c0.4-0.8,0.5-1.6,0.8-2.5c0.6,1.1,0.4,2,0.1,3.1c-0.1,0.2-0.1,0.7-0.1,0.7c0.6,0.3,1.3,0.8,1.8,0.7
	c0.4-0.1,1.1-0.8,0.8-1.6c-0.2-0.4,0.1-0.6,0.5-0.5c1,0.2,0.9,0.2,1.1-0.9c0.1-0.9,0.5-1.8,0.7-2.8c0.4,0.9,0.6,1.8,1.2,2.4
	c0.6,0.6,1.4,1.1,2.3,1c0.1-1,0.3-1.9,0.4-2.9c0.1-0.7,0.3-1.3,0.3-2c0.1-1,0-2.1,0.2-3.1c0.1-0.7-0.1-1-0.8-1.4
	c-0.1,1-0.2,1.9-0.3,2.7c-0.8-0.7-1.3-1.5-2-2c-0.7-0.6-1.6-0.9-2.1-1.7c0.1-0.1,0.1-0.2,0.2-0.3c0.9,0.3,1.7,0.7,2.6,1
	c0.3-0.8,0.1-1.2-0.8-1.6c-0.6-0.3-1.1-0.7-1.5-1.2c-0.6-0.8-0.8-0.8-1.3,0s-1.9,0.9-2.5,0.2c-0.3-0.4-0.5-0.9-1-0.6
	c-0.1,0.1,0.2,0.8,0.4,1.2c0.2,0.3,0.5,0.5,0.8,0.8c0.1,0.2,0.2,0.4,0.4,0.7c-0.3,0-0.5,0.1-0.6,0c-1-0.1-1.6-0.7-2.1-1.5
	c-0.2-0.2-0.7-0.5-0.8-0.4c-0.6,0.3-0.6,1.3-0.1,1.8c0.9,0.9,1.9,1.7,2.7,2.7c0.2,0.2,0.3,0.7,0.4,1c-0.1,0.1-0.2,0.1-0.3,0.2
	c-1.2-1.1-2.4-2.2-3.6-3.3c-0.3-0.3-0.4-0.8-0.4-1.2c0-1.4,0.2-2.7,0.2-4.1c0-0.3-0.3-0.6-0.4-0.8c-0.2,0.2-0.4,0.4-0.5,0.6
	C76.9,33.5,76.8,33.7,76.8,33.9z M93.5,47.7c0.7,0.8,1.3,1.6,1.9,2.4c0.3,0.4,0.3,0.8-0.3,1c-0.5,0.2-0.8,0.5-0.5,1
	c0.2,0.3,0.7,0.5,1.1,0.8c0.2-0.3,0.5-0.7,0.5-1c0-2.2,0-4.5,0-6.7c0-0.5,0-1,0.2-1.4c1.1-2.1-0.5-3.5-1.9-4.4
	c-0.2-0.1-0.5,0-0.7,0.1c0,0.2,0,0.5,0.1,0.7c0.3,0.4,0.8,0.6,1.1,1c0.2,0.2,0.2,0.5,0.3,0.8c-0.1,0-0.2,0.1-0.3,0.1
	c-1.1-0.7-2.1-1.3-3.2-2c-0.3,1.1-0.6,2.2-0.8,3.2c-0.1,0.3,0.1,0.8,0.4,1c0.3,0.3,0.8,0.5,1.1,0.8c0.8,0.6,1.5,1.3,2.2,1.9
	c-0.1,0.1-0.1,0.2-0.2,0.3c-0.7-0.4-1.4-0.8-2.1-1.2c-0.2-0.1-0.5,0-0.8,0c0,0.5,0,1.1,0.2,1.6c0.1,0.2,0.7,0.1,1.1,0.1
	C93.3,47.8,93.4,47.7,93.5,47.7z M35.4,68.5c0-0.2,0-0.3-0.1-0.5c-0.7,0-1.5,0-2.2,0.2c-1.9,0.3-3.8,0.9-5.7,1.1
	c-3.6,0.4-7.1,0.7-10.7,1c-1.1,0.1-2.1,0.1-3.2,0.2c-0.3,0-0.7,0.3-1,0.5c0.3,0.2,0.6,0.4,0.9,0.6c0.1,0.1,0.3,0.1,0.5,0.2
	c1.9,1,3.8,0.5,5.7,0.2c2.2-0.3,4.3-0.8,6.5-1.2c0.6-0.1,1.2-0.3,1.8-0.4c1.5-0.3,2.9-0.6,4.4-1C33.2,69,34.3,68.7,35.4,68.5z
	 M42,40.7c0,0.1-0.1,0.3-0.1,0.4c0.4,0.2,0.7,0.5,1.2,0.7c0.9,0.3,1.8,0.4,2.7,0.7c0.5,0.1,1,0.4,1.5,0.5c1,0.4,2,0.6,2.9,1.1
	c2.5,1.4,5,2.8,7.5,4.2c0.4,0.2,1,0.2,1.6,0.2c0-0.1,0.1-0.2,0.1-0.4c-0.3-0.3-0.6-0.6-1-0.8c-1.9-1-3.8-2-5.6-3
	c-0.5-0.3-1-0.6-1.2-1c-0.4-0.8-1.2-1.2-2-1.4c-1.8-0.5-3.7-0.9-5.6-1.2C43.3,40.6,42.6,40.7,42,40.7z M45.6,66.7
	c-0.4-0.1-0.9-0.1-1.3-0.2c-1.5-0.2-2.8,0.4-4.1,1.1c-3.1,1.6-6.5,2.1-9.8,2.9c-1.6,0.4-3.2,0.6-4.8,0.9c-0.2,0-0.4,0.2-0.7,0.2
	c-0.6,0.1-1.3,0.3-1.9,0.4c-0.5,0.1-1,0.1-1.5,0.2c0,0.1,0,0.2,0,0.3c0.3,0,0.6,0.1,0.9,0.1c1.9,0,3.7-0.1,5.5-0.6
	c2.1-0.6,4.3-0.8,6.4-1.4c2.3-0.6,4.5-1.4,6.8-2.1c1-0.3,2.1-0.5,3.2-0.6C45.2,67.7,45.5,67.5,45.6,66.7z M55,50.8
	c-0.5-0.3-0.8-0.7-1.3-0.9c-1.2-0.7-2.4-1.2-3.5-1.9c-2.9-1.9-6.2-2.8-9.5-3.5c-0.6-0.1-1.2,0-1.8,0c0,0.1-0.1,0.2-0.1,0.4
	c0.3,0.2,0.5,0.5,0.8,0.6c0.8,0.3,1.5,0.6,2.3,0.7c2.2,0.3,4.2,1.2,6.2,2.1c1.7,0.8,3.4,1.7,5.1,2.5C53.7,51.1,54.2,51.3,55,50.8z
	 M13.1,8.9C13,9,13,9.1,12.9,9.3c0.7,0.2,1.5,0.4,2.2,0.6c0.4,0.1,0.9,0.1,1.3,0.3c1,0.3,2,0.7,3,1c2.8,0.8,5.6,1.5,8.4,2.2
	c0.4,0.1,0.8,0,1.1,0C23.9,10.9,18.5,9.8,13.1,8.9z M106.4,62.5c0,0.1,0,0.3-0.1,0.4c0.4,0.3,0.7,0.6,1.1,0.7
	c3.7,1.6,7.4,3.1,11.1,4.6c0.4,0.2,0.9,0.2,1.4,0.2c0-0.1,0-0.2,0.1-0.3c-0.3-0.2-0.5-0.4-0.8-0.5c-2.4-1.1-4.8-2.1-7.3-3.2
	c-1.4-0.6-2.7-1.4-4.1-2C107.5,62.4,106.9,62.5,106.4,62.5z M53.2,20.7c0-0.1,0.1-0.2,0.1-0.3c-0.7-0.3-1.4-0.6-2.1-0.9
	c-4.3-1.5-8.7-3-13.1-4.5c-0.5-0.2-1.1-0.2-1.7-0.3c0,0.3,0.1,0.5,0.2,0.5c1.8,0.6,3.2,2.1,5.2,2c0.2,0,0.3,0.1,0.5,0.1
	c2.3,0.9,4.6,1.8,6.9,2.6c1,0.4,2.1,0.6,3.2,0.8C52.6,20.8,52.9,20.7,53.2,20.7z M57.8,57.7c0,0.1,0,0.2,0,0.3
	c0.6,0.2,1.2,0.3,1.8,0.5c1.5,0.5,2.5,0.3,3.5-1c0.6-0.8,1.2-1.3,2.3-1.3c0.2,0,0.5-0.1,0.7-0.2c-0.6-1-2.1-1-3.2-0.4
	c-1,0.5-2,1-3,1.4C59.2,57.3,58.5,57.5,57.8,57.7z M152.5,12.1c0.9,0,1.8,0,2.6-0.1c1.8-0.2,3.5-0.5,5.3-0.7c0.2,0,0.5,0,0.7-0.1
	s0.3-0.3,0.3-0.4c0-0.2-0.1-0.4-0.3-0.5s-0.5-0.1-0.7-0.2C157.6,9.9,155,10.5,152.5,12.1z M82.5,27.5c0,0.1,0,0.2-0.1,0.2
	c0.2,0.1,0.5,0.3,0.8,0.3c2.1,0.8,4.3,0.4,6.4,0.2c1.3-0.1,2.5-0.4,3.8-0.6c0.3-0.1,0.6-0.1,0.9-0.1c0-0.1,0-0.1,0-0.2
	C90.3,27.3,86.4,27.4,82.5,27.5z M41.9,33.1c1.8,1.7,3.5,3.5,5.3,5.2c0.5,0.5,1.1,0.3,1.7-0.1c-0.4-0.4-0.6-0.8-0.9-1.1
	c-1.3-1.1-2.7-2.2-4-3.3C43.3,33.2,42.7,32.8,41.9,33.1z M97.3,44.2c-0.2,0.2-0.4,0.4-0.4,0.6c0,4.1,0.1,8.2,0.2,12.3
	C97.8,56.6,97.7,45.5,97.3,44.2z M5.7,56.3c-0.1,0-0.3,0-0.4,0c-0.1,0.3-0.1,0.6-0.2,0.9c-0.1,0.5,0,0.9-0.2,1.4
	c-0.9,2.2-0.1,4.5-0.2,6.8c0,0.2,0.3,0.5,0.5,0.5s0.6-0.3,0.6-0.5c0-0.4-0.2-0.8-0.3-1.2c-0.1-0.5-0.4-1-0.2-1.4
	C6,61.4,5.8,60,5.7,58.6C5.7,57.8,5.7,57,5.7,56.3z M115.6,39.3c0.6-0.1,1.1-0.1,1.7-0.2c0.9-0.1,1.8-0.4,2.7-0.5
	c1.5-0.1,2.9-0.1,4.4-0.1c0.2,0,0.4-0.1,0.7-0.1C122.9,37.2,117.2,37.5,115.6,39.3z M128.9,72c-0.3-0.2-0.4-0.4-0.5-0.4
	c-2.3-1-4.6-2-6.9-3c-0.3-0.1-0.8-0.1-1.2-0.1c0,0.1,0,0.2,0,0.3c2.5,1.4,5,2.6,7.8,3.3C128.2,72.2,128.4,72.1,128.9,72z M61.3,47.3
	c0-0.1,0.1-0.2,0.1-0.2c-0.3-0.4-0.7-0.8-1.1-1c-1-0.7-2.1-1.3-3.2-1.9c-0.4-0.2-0.9-0.7-1.3-0.1c-0.4,0.6,0.2,1,0.6,1.3
	c0.1,0.1,0.1,0.1,0.2,0.1c1.2,0.6,2.3,1.2,3.5,1.7C60.6,47.2,60.9,47.2,61.3,47.3z M139.6,16c1.4,0.3,7.5-1.9,7.9-2.9
	c-0.4,0.1-0.7,0.2-1,0.2c-1.2,0.3-2.3,0.8-3.5,0.9C141.6,14.3,140.7,15.2,139.6,16z M159.2,46.5c0.2,0.1,0.3,0.2,0.5,0.3
	c1.1,0.4,2.2,0.8,3.3,1.1c0.3,0.1,0.8,0,0.9-0.1c0.2-0.3,0.2-0.7,0.1-1c-0.3-0.7-2-1.3-2.7-1.1C160.6,46,160,46.2,159.2,46.5z
	 M20.2,73.2c0-0.1,0-0.3,0-0.4c-0.3,0-0.6-0.1-0.8-0.1c-0.9,0-1.7,0-2.6,0c-1.8,0.1-3.6,0.1-5.4,0.2c-0.3,0-0.5,0.4-0.8,0.6
	c0.3,0.2,0.5,0.6,0.8,0.6c0.5,0,1-0.1,1.5-0.3c0.6-0.1,1.2-0.4,1.8-0.5c0.7-0.1,1.4-0.1,2.1-0.1C17.9,73.3,19,73.3,20.2,73.2z
	 M131.9,51.4c0.4,0.2,0.6,0.4,0.8,0.6c1.3,0.7,2.6,1.5,3.9,2.1c0.4,0.2,0.9,0.1,1.4,0.2C137.4,52,133.7,51.2,131.9,51.4z
	 M115.2,45.3c1.4,1.4,2.7,2.7,4.1,3.9c0.3,0.3,1,0.1,1.6,0.2C119.7,47.6,116.2,45,115.2,45.3z M125.7,48c-1.4-2.3-3.5-3.7-4.8-3.4
	c1.2,1.1,2.4,2.2,3.6,3.3C124.8,48.1,125.4,48,125.7,48z M53.6,20.8c0.9,1.1,6.5,3.2,7.4,2.8C58.5,22.4,56.2,21.3,53.6,20.8z
	 M148.9,74.7c1.2,1.6,4.8,3.1,5.8,2.5C154.4,76.5,149.9,74.5,148.9,74.7z M56.4,23.8c-0.9-1.2-5-2.7-6-2.1
	C52.2,23,54.2,23.6,56.4,23.8z M15.2,30.6c-0.2-0.1-0.3-0.2-0.5-0.2c-1.6-0.4-3.3-0.8-4.9-1.2c-0.6-0.1-1.2-0.3-1.9,0.4
	C10.4,30.3,12.7,31.1,15.2,30.6z M112,25.9c1.3,0.6,3.7,0.2,4.4-0.9C114.7,24.4,112.5,24.8,112,25.9z M90.1,36.1
	c-0.3,0.3-0.6,0.4-0.6,0.6c-0.1,0.2,0,0.6,0.2,0.8c0.6,0.5,1.3,1,2,1.4c0.3,0.1,0.7,0,1.1-0.1c0,0,0.1-0.5,0-0.6
	c-0.3-0.3-0.7-0.6-1-0.6c-0.5,0.1-0.6-0.1-0.8-0.5C90.8,36.8,90.5,36.5,90.1,36.1z M107.2,28.6c1.8,0.4,2.9-0.6,4.3-1.5
	C109.7,26.5,107.5,27.3,107.2,28.6z M105.9,29.7c-1.2-0.9-2.7-0.6-3.8,0.7C103.2,31.1,105.2,30.8,105.9,29.7z M129,52.2
	c0.7,1.5,2.4,2.5,3.3,1.9C131.6,52.5,130,51.7,129,52.2z M104.7,57.3c0.5,1.3,4,2.8,5.1,2.2C108.1,58.7,106.6,57.8,104.7,57.3z
	 M111.6,37.3c-1.6-0.7-3.2-1.2-5.1-0.6C108.3,37.5,109.8,38,111.6,37.3z M55.6,62.2c0,0.1,0,0.3,0.1,0.4c1.2-0.1,2.4-0.2,3.5-0.3
	c0.1,0,0.3-0.3,0.3-0.4c0-0.1-0.2-0.4-0.3-0.4C57.9,61.2,56.7,61.4,55.6,62.2z M49.1,36.1c-0.1,0.1-0.2,0.2-0.3,0.3
	c0.5,0.7,1,1.5,1.5,2.1c0.2,0.2,0.8,0.1,1.1,0c0.1,0,0.2-0.7,0.1-0.8C50.8,37.2,49.9,36.7,49.1,36.1z M61.9,37.2
	c0.9,1,2.3,1.3,3.5,0.9c0-0.1,0-0.1-0.1-0.1c-0.4-0.3-0.9-0.6-1.3-1C63.1,36.4,62.9,36.4,61.9,37.2z M64.3,27
	c0.5,0.8,2.1,0.8,1.5,2.2c0.1,0.1,0.1,0.1,0.2,0.2c0.6-0.3,1.3-0.5,1.9-0.8C66.7,28,66,26.6,64.3,27z M7.7,10.4l0.1,0.1
	c0.4-0.9,0.8-1.8,1.3-2.7C9.3,7.5,9.3,7,8.8,7C8.4,7,7.7,7.3,7.7,7.5C7.6,8.5,7.7,9.5,7.7,10.4z M74,56.9c-0.6,1.2-0.3,3.4,0.6,3.8
	C75.2,59.6,74.9,57.5,74,56.9z M66.7,54.4c1.2,0.5,2.3,0.3,2.8-0.5c0.1-0.2,0.1-0.5,0.1-0.7c0-0.1-0.4-0.2-0.5-0.2
	C68.2,53.2,67.4,53.6,66.7,54.4z M118.3,51.2c1.3-0.1,2.4,1,3.8,0.6C121.6,50.5,119.4,50.2,118.3,51.2z M129.8,48.8
	c-0.7-0.6-1.5-1.2-2.2-1.8c-0.1-0.1-0.4-0.1-0.5,0s-0.1,0.3-0.1,0.4C127.1,48.4,128.6,49.3,129.8,48.8z M84.2,50.3
	c0.2,0.8,0.3,1.6,0.6,2.3c0.2,0.4,0.5,0.3,0.8-0.1C86.2,51.6,85.8,50.7,84.2,50.3z M64.2,26.9c-1.1-1.2-3.5-2-4.3-1.5
	C61.3,26,62.5,27,64.2,26.9z M63.8,59.6c-1.2-0.6-2.4-0.3-3.2,0.7C61.8,61,63.2,60.7,63.8,59.6z M7.4,18.1C7.7,18,8,18,8.1,17.9
	c0.3-0.8,0.6-1.5,0.7-2.4c0.1-0.3-0.3-0.6-0.4-0.9c-0.2,0.3-0.5,0.5-0.6,0.8C7.6,16.2,7.5,17.1,7.4,18.1z M56.6,40.7
	c-0.5-1.1-1.8-2.1-2.5-1.9C54.2,40.2,55.5,41.1,56.6,40.7z M161.2,44c1.4,1,2.4,1.2,3.2,0.7C163.8,43.7,162.6,43.4,161.2,44z
	 M64.4,58.3c1.3,0.5,2.5,0.2,3.1-0.8C66.3,57,65.4,57.6,64.4,58.3z M62.7,45c-0.7-0.5-1.2-1-1.8-1.4c-0.1-0.1-0.5,0.1-0.6,0.2
	c-0.1,0.1-0.1,0.4,0,0.6C60.6,45.2,61.6,45.5,62.7,45z M82.6,53.6c0.1-0.1,0.3-0.1,0.4-0.2c-0.1-0.4,0-0.9-0.3-1.2
	c-0.5-0.5-1.1-1-2.2-0.6C81.3,52.4,82,53,82.6,53.6z M110,29.8c-0.4-0.1-0.7-0.3-0.9-0.2c-0.5,0.1-0.9,0.4-1.3,0.7
	c-0.2,0.1-0.2,0.4-0.3,0.5c0.2,0.1,0.5,0.3,0.6,0.3c0.5-0.2,1-0.5,1.6-0.7C109.8,30.3,109.8,30.2,110,29.8z M96.2,36
	c0.1,0,0.2,0,0.2,0c0.4-1.3,0.1-5.1-0.3-5.4C96.2,32.5,96.2,34.2,96.2,36z M156.9,67c1.1,0.5,2.2,1,3.3,1.5
	C159.9,67.2,158.3,66.5,156.9,67z M112.2,35.8c1.3,0.9,2.9,0.9,3.3-0.1C114.4,35.8,113.4,35.8,112.2,35.8z M9.7,16.4
	c0.1,0.1,0.2,0.3,0.4,0.4c0.4,0.1,1.1-0.9,1.1-1.5c0-0.2-0.2-0.5-0.4-0.5C10.4,14.6,9.8,15.5,9.7,16.4z M105.4,32.4
	c-1.2-0.7-2.4-0.4-3.2,0.6C103.3,33.5,104.1,32.5,105.4,32.4z M90.1,51.5c0.1,0,0.2,0,0.3,0c0.2-0.6,0.3-1.2,0.5-1.8
	c0.2-0.9,0.1-1-1-0.8C90,49.8,90.1,50.7,90.1,51.5z M105.8,27.2c-1-0.7-2.2-0.3-2.5,0.7C104.1,28.3,104.7,28.1,105.8,27.2z
	 M52.4,66.7c1.4-0.1,2.3-0.5,2.5-1.2C54,65.2,52.4,66,52.4,66.7z M55,63.3c-0.7,0.1-1.2,0.1-1.7,0.2c-0.2,0-0.4,0.3-0.4,0.3
	c0,0.2,0.2,0.4,0.4,0.5C53.9,64.6,54.7,64.2,55,63.3z M88.2,51.4c0,0.7,0,1.3,0.1,1.8c0,0.2,0.4,0.4,0.6,0.4c0.1,0,0.4-0.3,0.4-0.5
	C89.5,52.4,89.1,51.9,88.2,51.4z M94.8,36.7c-0.1,0-0.2,0-0.3,0.1c-0.1,0.2-0.3,0.5-0.2,0.6c0.4,0.5,0.9,1,1.4,1.4
	c0,0,0.2-0.2,0.4-0.2C95.6,37.9,95.2,37.3,94.8,36.7z M125.1,52.3c0.6,0.3,1,0.5,1.6,0.7c0.2,0.1,0.6-0.1,0.6-0.2
	c0.1-0.2,0-0.5-0.2-0.7C126.7,51.7,125.7,51.8,125.1,52.3z M161.8,12.5c0-0.1,0-0.2,0-0.3c-1.2-0.1-2.5-0.2-3.7,0.4
	C159.4,12.5,160.6,12.5,161.8,12.5z M60.3,42c-0.4-1.2-1.2-1.7-2-1.3C58.8,41.6,59.3,42,60.3,42z M113.2,42.4
	c-1.1-0.9-2-1.1-2.8-0.5C111.3,42.2,112,42.9,113.2,42.4z M50.5,65.7c0-0.1,0-0.2,0-0.2c-0.8-0.5-2.4-0.4-3,0.3
	C48.6,65.8,49.5,65.8,50.5,65.7z M56.9,64.1c0.8,1.1,1.5,1,2-0.1C58.2,63.5,57.6,63.8,56.9,64.1z M105.4,46.9
	c1.1,0.2,2.1,0.5,3.2,0.7C108.2,46.6,106.8,46.3,105.4,46.9z M61.2,50.6c0.3-0.3,0.6-0.5,0.8-0.8c-0.3-0.2-0.6-0.5-0.9-0.5
	c-0.3,0-0.5,0.4-0.8,0.6C60.5,50.1,60.8,50.3,61.2,50.6z M77.1,57.7c0.3-0.9-0.1-1.3-0.6-1.6c-0.2-0.1-0.5,0-0.7,0
	c0.1,0.2,0,0.5,0.2,0.7C76.3,57.1,76.7,57.3,77.1,57.7z M80.4,32c-0.4-0.3-0.7-0.5-1-0.8c-0.1,0.2-0.5,0.5-0.4,0.6
	c0.2,0.4,0.5,0.7,0.8,1C80,32.6,80.1,32.3,80.4,32z M111.8,44.7c0.1-0.1,0.2-0.2,0.3-0.4c-0.1-0.6-0.6-0.9-1.2-1
	c-0.1,0-0.3,0.4-0.5,0.6C110.8,44.2,111.3,44.5,111.8,44.7z M75.5,53.8c0.5,0.5,0.9,1,1.3,1.4c0.2-0.1,0.3-0.2,0.5-0.3
	c-0.1-0.3-0.1-0.7-0.3-0.9C76.7,53.7,76.4,53.3,75.5,53.8z M85.6,34.4c0.2-0.8,0.5-1.6,0-2.3C85,32.8,85.2,33.6,85.6,34.4z
	 M61.2,62.8c0.9,0.4,1.3-0.3,2-0.6C62.4,61.6,61.7,61.8,61.2,62.8z M66.5,60.1c0-0.1-0.1-0.2-0.1-0.3c-0.6,0.3-1.2,0.6-1.9,0.9
	C65.5,61.3,66,61,66.5,60.1z M86.6,49.6c0.3,0.3,0.5,0.5,0.7,0.7c0.2-0.3,0.6-0.5,0.7-0.8c0-0.2-0.4-0.4-0.6-0.7
	C87.1,49.1,86.9,49.3,86.6,49.6z M166.3,44.4c-0.5,0.4-0.9,0.8-0.6,1.4c0.1,0.1,0.6,0.2,0.7,0.1C166.8,45.5,166.8,45,166.3,44.4z
	 M58.6,51.1c-0.3-1.2-1.1-1.6-2.1-0.8C57.2,50.5,57.8,50.8,58.6,51.1z M9,11.1c0.7,0.1,1.2,0.5,1.6-0.2c0.1-0.1-0.1-0.6-0.2-0.7
	C9.6,10,9.4,10.5,9,11.1z M79.2,33.9c-0.4,0.6-0.3,1.1,0.2,1.5c0.1,0.1,0.6-0.1,0.6-0.2C80.2,34.5,79.8,34.2,79.2,33.9z M15.8,31
	c0,0.1,0,0.2,0,0.3c0.9,0,1.8,0,2.7,0C17.5,30.8,16.6,31,15.8,31z M82.3,33.3c-0.3-0.3-0.5-0.6-0.8-0.8C81.3,32.7,81,33,81,33.1
	c0.2,0.3,0.5,0.6,0.7,0.9C81.9,33.8,82,33.6,82.3,33.3z M115,49.9c-0.1,0.1-0.1,0.1-0.2,0.2c0.2,0.2,0.3,0.5,0.5,0.6
	c0.6,0.1,1.2,0.4,1.9-0.2C116.3,50.2,115.6,50,115,49.9z M83.1,33.8c-0.4,0.6-0.3,1.1,0.2,1.5c0.1,0.1,0.6-0.1,0.6-0.2
	C84.1,34.5,83.7,34.1,83.1,33.8z M166.8,48.5c-0.3-0.3-0.5-0.6-0.7-0.8c-0.2,0.2-0.5,0.5-0.5,0.6c0,0.3,0.3,0.6,0.5,0.8
	C166.2,49,166.4,48.8,166.8,48.5z M64.2,43.7c-0.5-0.5-0.9-1-1.5-1.5C62.6,43.3,63.1,43.7,64.2,43.7z M11.7,11.6
	c0.5,0.4,1,0.4,1.3-0.1c0.1-0.1,0-0.6-0.2-0.7C12.1,10.5,11.9,11.1,11.7,11.6z M84,31.3c-0.8,0.6-0.7,1-0.2,1.4
	c0.1,0.1,0.4-0.1,0.6-0.1C84.2,32.1,84.1,31.7,84,31.3z M49.3,34.7c-0.2-1.1-0.8-1.3-1.9-0.9C48.2,34.2,48.7,34.5,49.3,34.7z
	 M54.6,41.2c-0.1,1.1,0.3,1.2,1.7,0.8C55.6,41.7,55.1,41.5,54.6,41.2z M7.8,71.7c-0.1,0.1-0.2,0.1-0.2,0.2c0.2,0.4,0.4,0.9,0.6,1.3
	c0.1,0.1,0.4,0.1,0.6,0.1c-0.1-0.4-0.2-0.8-0.3-1.1C8.3,71.9,8,71.8,7.8,71.7z M93.2,36.4c0-0.1,0.1-0.2,0.1-0.4
	c-0.4-0.2-0.8-0.4-1.2-0.6c0,0.2-0.2,0.4-0.1,0.5C92.3,36.4,92.6,36.7,93.2,36.4z M103.9,37.5c-0.2,0.2-0.4,0.4-0.6,0.5
	c0.3,0.2,0.5,0.5,0.8,0.5c0.1,0,0.4-0.3,0.6-0.5C104.5,37.9,104.2,37.7,103.9,37.5z M166.5,37.8c0.7-0.8,0.5-1.2-0.7-1.4
	C166.1,36.9,166.3,37.4,166.5,37.8z M88,34c0.2-0.1,0.3-0.2,0.5-0.3c-0.3-0.4-0.6-0.7-0.8-1.1c-0.1,0.1-0.3,0.3-0.3,0.3
	C87.5,33.3,87.7,33.6,88,34z M66.3,44c-0.1,0.1-0.1,0.2-0.2,0.3c0.2,0.6,0.6,1,1.5,0.4C67.1,44.5,66.7,44.2,66.3,44z M10,68.9
	c0-0.1,0-0.2,0.1-0.3c-0.4-0.2-0.8-0.4-1.2-0.7c-0.1,0-0.2,0.1-0.2,0.1c0.1,0.3,0.1,0.7,0.2,0.7C9.2,68.9,9.6,68.9,10,68.9z
	 M166,40.1c0.1,0,0.2,0.1,0.4,0.1c0.3-0.3,0.8-0.5,0.4-1c-0.1-0.1-0.4-0.1-0.6-0.2C166.1,39.4,166,39.8,166,40.1z M8.5,66.7
	C8.7,66.4,9,66.1,9,66c0-0.2-0.3-0.4-0.5-0.6C8.3,65.6,8,65.8,8,66C7.9,66.1,8.2,66.3,8.5,66.7z M163,10.3c0.1,0,0.2,0,0.3,0
	c0.2-0.6,0.2-1.2-0.1-1.8c-0.1,0-0.2,0-0.3,0C163,9.2,163,9.7,163,10.3z M166.2,25.1c-0.1,0-0.3,0-0.4,0c0,0.6,0.1,1.1,0.1,1.7
	c0.1,0,0.2,0,0.4,0C166.2,26.2,166.2,25.6,166.2,25.1z M70.4,28c-0.1,0.1-0.2,0.3-0.3,0.4c0.4,0.3,0.9,0.6,1.3,0.8
	c0.1-0.1,0.2-0.3,0.3-0.4C71.2,28.6,70.8,28.3,70.4,28z M8.9,12.3c-0.1,0.3-0.3,0.6-0.3,0.8c0.1,0.2,0.4,0.5,0.6,0.5
	c0.2,0,0.4-0.3,0.6-0.5C9.6,12.9,9.4,12.7,8.9,12.3z M102,39c-0.3-0.2-0.5-0.5-0.7-0.5s-0.4,0.2-0.6,0.4c0.2,0.2,0.3,0.5,0.5,0.5
	C101.4,39.5,101.6,39.2,102,39z M70.1,58.3c-1-0.5-1.3-0.3-1.3,0.6C69.3,58.7,69.7,58.5,70.1,58.3z M5.8,30c-0.1,0-0.2,0.1-0.3,0.1
	c0,0.3,0,0.6,0.1,0.8c0.1,0.2,0.5,0.3,0.7,0.5c0.1-0.1,0.2-0.2,0.2-0.3C6.3,30.7,6.1,30.4,5.8,30z M5,37.6c0.1,0,0.2,0,0.3,0
	c0-0.6,0-1.2,0-1.7c-0.1,0-0.2,0-0.3,0C5,36.4,5,37,5,37.6z M137.6,17.3c0-0.1,0-0.2,0-0.3c-0.6-0.1-1.1-0.1-1.5,0.3
	C136.5,17.3,137,17.3,137.6,17.3z M137.8,16.4c0,0.1,0,0.2,0.1,0.3c0.5,0,1.1,0.2,1.6-0.2c0-0.1,0-0.2,0-0.3
	C138.9,16.3,138.4,16.4,137.8,16.4z M68.4,40.1c0.1-0.1,0.2-0.2,0.2-0.4c-0.4-0.3-0.8-0.5-1.3-0.8c-0.1,0.1-0.2,0.3-0.2,0.4
	C67.6,39.6,68,39.8,68.4,40.1z M80.4,56.4c-0.1,0.4-0.3,0.6-0.3,0.7c0.1,0.2,0.3,0.4,0.4,0.5c0.1-0.2,0.4-0.4,0.4-0.5
	C81,56.9,80.7,56.7,80.4,56.4z M90.7,29.2c0,0.1,0,0.2,0,0.3c0.5,0,1.1,0,1.6,0c0-0.1,0-0.2,0-0.3C91.8,29.2,91.3,29.2,90.7,29.2z
	 M78.3,31.1c-0.3-0.2-0.5-0.4-0.7-0.5c-0.1,0-0.4,0.3-0.4,0.4c0,0.2,0.2,0.5,0.4,0.5C77.7,31.6,78,31.3,78.3,31.1z M82.4,55.1
	c-0.2,0.4-0.4,0.6-0.4,0.8c0.1,0.2,0.3,0.3,0.5,0.5c0.1-0.2,0.4-0.4,0.4-0.6C82.9,55.6,82.7,55.4,82.4,55.1z M106.5,51.7
	c1.4,0.8,2.8,1.6,4.2,2.4c0.3,0.2,0.6,0.5,0.9,0.7c5.8,3.6,11.9,6.3,18.2,8.8c1.7,0.7,3.5,1.4,5.2,2.1c0.4,0.2,0.8,0.4,1.2,0.6
	c0,0.1-0.1,0.2-0.1,0.3c-0.4-0.1-0.9-0.2-1.3-0.4c-5.3-2.3-10.6-4.4-15.9-6.9c-2.6-1.2-4.9-2.8-7.4-4.3c-0.4-0.2-0.6-0.2-1-0.2
	c-0.8,0.1-1.6-0.2-2.5-0.4c0-0.1,0-0.2,0-0.3c0.2-0.1,0.4-0.3,0.8-0.6c-0.7-0.1-1.2-0.2-1.8-0.3c-0.2-0.1-0.3-0.3-0.5-0.4
	C106.5,52.5,106.5,52.1,106.5,51.7C106.5,51.6,106.5,51.7,106.5,51.7z M128.6,65.4c1.1,0.4,2.2,0.7,3.2,1.3c2.1,1.1,4.2,2.2,6.3,3.3
	c0.2,0.1,0.5,0.3,0.8,0.4c-0.6,0.6-1.1,0.4-1.6,0.1c-1.8-0.9-3.6-1.8-5.4-2.7c-1-0.5-2-0.9-3-1.4c-0.3-0.1-0.4-0.4-0.7-0.7
	C128.4,65.6,128.5,65.5,128.6,65.4z M152.7,49.5c-0.4,0-0.9,0-1.2-0.2c-1.8-0.8-3.5-1.7-5.3-2.4c-1.1-0.5-2.4-0.7-3.6-1
	c-0.2,0-0.3-0.1-0.5-0.2c0-0.1,0-0.2,0-0.2c0.6,0,1.2-0.1,1.8,0c2.6,0.5,5,1.7,7.4,2.8C151.9,48.5,152.3,49.1,152.7,49.5L152.7,49.5
	z M134.5,62.6c-1.2-0.4-2.5-0.6-3.6-1.1c-4.1-1.8-8.1-3.7-12.1-5.5c0,0-0.1-0.1-0.2-0.3c0.8,0.3,1.5,0.4,2.2,0.7c2.1,1,4.2,2,6.3,3
	c2.2,1,4.5,1.8,6.7,2.7c0.3,0.1,0.5,0.2,0.8,0.3C134.5,62.4,134.5,62.5,134.5,62.6z M135.5,30.4c0.3-0.1,0.6-0.1,0.8-0.1
	c2.4-0.1,4.9-0.1,7.3-0.1c0.3,0,0.5,0,0.7,0.2c0.1,0.1,0.3,0.3,0.3,0.5s-0.3,0.4-0.4,0.4c-0.5,0-1.1,0.1-1.5,0
	c-1.8-0.5-3.5-0.5-5.3,0.1C136.5,31.5,135.9,31.3,135.5,30.4z M108.4,56.7c0.3,0,0.6,0,0.9,0v-0.1c-0.6-0.3-1.2-0.6-1.7-1
	c0-0.1,0.1-0.2,0.1-0.2c3.7,1.4,7.5,2.8,10.5,5.6c0,0.1-0.1,0.2-0.1,0.3c-0.2-0.1-0.5-0.3-0.7-0.4c-2.1-1.2-4.2-2.3-6.3-3.4
	c-0.3-0.2-0.7-0.1-1.1-0.1C109.5,57.2,108.8,57.5,108.4,56.7C108.5,56.6,108.4,56.7,108.4,56.7z M149.8,20.5c0.3,0,0.3,0,0.3,0
	c0.4,0.1,0.9,0.3,1.3,0.4c-0.4,0.3-0.9,0.7-1.3,0.8c-1.5,0.3-3.1,0.4-4.6,0.6c-0.2,0-0.4-0.2-0.6-0.3c0.2-0.2,0.3-0.6,0.5-0.6
	C146.9,21,148.5,20.7,149.8,20.5z M127.1,22c0.8-1.2,6.1-2.8,7.1-2.2C131.8,20.6,129.6,21.8,127.1,22z M145.6,49.2
	c-0.2-0.1-0.5-0.1-0.7-0.1c-1.6-0.2-3.3-0.4-4.9-0.7c-0.5-0.1-0.8-0.5-1.3-0.8c0.1-0.1,0.1-0.3,0.2-0.4c0.5,0.1,1,0.2,1.5,0.2
	c0.7,0.1,1.5,0.2,2.2,0.4c0.9,0.2,1.9,0.5,2.8,0.8C145.5,48.7,145.6,49,145.6,49.2L145.6,49.2z M156.2,40.9
	c-1.1,0.7-5.9-0.1-7.2-1.2c0.5,0,0.8,0,1.1,0c1.2,0.1,2.3,0.3,3.5,0.4C154.5,40.2,155.4,40.3,156.2,40.9z M116.3,61.4
	c1,0.3,1.9,0.5,2.9,0.8c1.1,0.4,2.3,0.8,3.4,1.2c0.2,0.1,0.3,0.5,0.5,0.7l0,0c-1.7-0.5-3.4-0.9-5.1-1.4
	C117.3,62.5,116.3,62.5,116.3,61.4L116.3,61.4z M138.6,47.3c-2.1-0.8-4.5-0.2-6.6-1.4C133.1,45.1,137.8,46.1,138.6,47.3z
	 M114.9,30.8c1.4-0.4,2.6-0.7,3.8-1c0.4-0.1,0.8-0.2,1.3-0.2c0.2,0,0.4,0,0.6,0.1c-0.1,0.2-0.2,0.6-0.3,0.6
	c-1.7,0.3-3.4,0.6-5.1,0.8C115.2,31.1,115.2,31.1,114.9,30.8z M156.2,28.1c-1.5,0.9-4.3,0.5-4.7-0.5
	C153.1,27.1,154.5,27.9,156.2,28.1z M154.5,25.6c1.1,0,2,0,3,0c0,0,0.2,0.5,0.1,0.6C156.9,27,155,26.7,154.5,25.6z M145.4,70.6
	c-1.7,0-3-0.8-4.4-1.6C142,68.6,144.5,69.5,145.4,70.6z M151.3,64.1c-1.4-0.4-2.9-0.9-4.5-1.4c1.3-0.6,4,0.1,4.6,1.1
	C151.3,63.9,151.3,64,151.3,64.1z M136.7,67.2c1.7-0.3,2.8,0.7,4.1,1.5C139.2,68.9,138.1,67.8,136.7,67.2z M129.9,26.7
	c1.4-0.3,2.9-0.5,4.3-0.8C133.4,27,131.1,27.5,129.9,26.7z M122.3,28.6c1.3-0.3,2.6-0.6,3.9-0.9c-0.5,1-2.9,1.5-3.8,1.2
	C122.4,28.8,122.3,28.7,122.3,28.6z M147,60.5c-1.3-0.3-2.5-0.5-3.9-0.8c0.6-0.8,3-0.4,3.9,0.5C147,60.3,147,60.4,147,60.5z
	 M157.3,34c-1.3,0.7-2.6,0.4-3.9,0.1C154.7,33.6,156,33.6,157.3,34z M113.1,52.7c0.9,0.5,1.8,1,2.7,1.6
	C114.8,54.9,113.4,54.1,113.1,52.7z M145.6,49.2c1.3-0.4,2.3,0.1,3.2,0.9C147.6,50.5,146.6,49.8,145.6,49.2L145.6,49.2z M138.2,64.6
	c-0.9-0.3-1.7-0.6-2.6-0.9c0-0.1,0.1-0.2,0.1-0.3c1-0.3,1.8,0.4,2.6,0.8C138.2,64.3,138.2,64.4,138.2,64.6z M126.5,27.9
	c0.6-0.8,1.3-0.9,2.2-0.2C127.9,27.7,127.3,27.8,126.5,27.9z M148.1,65.4c0.4,0.1,0.7,0.1,1.1,0.2c0.2,0.1,0.4,0.3,0.5,0.7
	C149,66.2,148.2,66.5,148.1,65.4L148.1,65.4z M115.1,31.1c-0.6,0.8-1.1,0.8-1.6,0.5c0-0.1,0-0.2,0-0.3
	C113.9,31.3,114.4,31.2,115.1,31.1z M123,64.1c0.6,0,1.2,0,1.8,0c0,0.1,0,0.2,0,0.3C124.1,64.9,123.6,64.5,123,64.1L123,64.1z
	 M139.9,65c0.5,0.1,1,0.2,1.5,0.2c0,0.1,0,0.2-0.1,0.4c-0.5-0.1-1-0.1-1.5-0.2C139.9,65.3,139.9,65.2,139.9,65z M148.1,65.4
	c-0.6,0-1.1,0-1.7,0c0-0.1,0-0.2,0-0.3C147,64.6,147.5,65.1,148.1,65.4L148.1,65.4z M47.9,26.4c1.7-0.5,9.5,2.7,10,3.9
	c-0.6-0.1-1.2-0.2-1.7-0.4c-2.5-1-5-1.9-7.5-3C48.4,26.9,48.2,26.6,47.9,26.4z M41.7,30.1c-0.7-0.3-1.4-0.7-2.2-0.9
	c-1.8-0.7-3.7-1.8-5.6-2c-2.2-0.2-4.1-1.3-6.3-1.1c-0.1,0-0.3-0.1-0.6-0.2c0.3-0.2,0.5-0.3,0.6-0.3c1.5-0.1,3-0.2,4.5,0.5
	c0.6,0.2,1.2,0.3,1.8,0.4c1.2,0.3,2.4,0.5,3.5,1c1.5,0.7,2.9,1.5,4.4,2.3C41.8,29.9,41.7,30,41.7,30.1z M28.7,21.7
	c1.3,0.3,2.6,0.4,3.9,0.8c1.9,0.5,3.7,1.1,5.5,1.7c0.5,0.1,0.9,0.5,1.3,0.7c0,0.1-0.1,0.2-0.1,0.3c-0.2,0-0.5,0.1-0.6,0
	c-2.1-0.7-4.2-1.3-6.3-2c-0.9-0.3-1.9-0.5-2.8-0.8C29.1,22.4,28.9,22,28.7,21.7L28.7,21.7z M39.2,36.3c0.8,0.5,1.5,1,2.4,1.6
	c-2.5,0.7-4.8-0.4-7.2-0.6C35.9,36.5,37.7,37.5,39.2,36.3z M33.5,34.4c-0.6-0.2-1.2-0.2-1.7-0.5c-1.5-0.8-3-1.4-4.7-1.3
	c-0.4,0-0.8-0.1-1.2-0.1C27.3,31,31.5,32.2,33.5,34.4L33.5,34.4z M42.3,21.8c1.3-0.7,5.8,1.1,6.5,2.5c-0.2,0.1-0.3,0.2-0.4,0.2
	C46.3,23.6,44.3,22.7,42.3,21.8z M39.1,31.6c-2.8-0.9-5.5-1.9-8.3-2.8C32.1,28.3,38.7,30.6,39.1,31.6z M32.6,18.3
	c2,0.4,3.8,1,5.5,1.8C37.1,20.6,32.7,19.1,32.6,18.3z M25.2,27.8c0.8-0.4,1.8-0.4,2.3,0.1c0.1,0.1,0.1,0.6,0,0.7
	C26.9,29.1,25.5,28.5,25.2,27.8z M35.6,17.1c-1.2,0.3-1.9,0.1-2.3-0.9C34.1,16.1,34.8,16.5,35.6,17.1z M35.1,33.1
	c0.9,0,1.5,0.2,1.8,1.2C36.1,34.4,35.6,34,35.1,33.1z M33.5,34.4c0.4,0.5,1.3,0.6,0.9,1.6C33.4,35.6,33.2,35.2,33.5,34.4L33.5,34.4z
	 M35.8,62.5c0.3-0.1,0.6-0.2,0.9-0.2c0.8-0.2,1.6-0.2,2.3-0.5c1.8-0.8,3.7-0.9,5.6-1c1.9-0.2,3.8-0.6,5.7-1c0.4-0.1,0.9-0.4,1,0.2
	c0,0.2-0.5,0.7-0.8,0.7c-2.2,0.3-4.3,0.5-6.5,0.8c-1.6,0.3-3.2,0.7-4.8,1c-1.1,0.2-2.3,0.2-3.4,0.3C35.8,62.8,35.8,62.7,35.8,62.5z
	 M42.2,52.8c-0.8,0.8-1.6,0.6-2.3,0.4c-2-0.5-4-1.1-6.1-1.6c-1-0.3-2-0.5-3.1-1c0.3-0.1,0.5-0.2,0.8-0.2c1.5,0.2,3.1,0.5,4.6,0.8
	c1.4,0.3,2.7,0.6,4.1,0.9C40.8,52.2,41.5,52.5,42.2,52.8z M48,58c-0.1,0.1-0.2,0.2-0.3,0.2c-1.8,0.3-3.6,0.5-5.3,0.8
	c-0.8,0.1-1.7,0.3-2.5,0.5c-0.2,0-0.3,0.2-0.5,0.1c-0.3,0-0.6-0.1-0.8-0.2c0.2-0.2,0.4-0.5,0.6-0.7c0.1-0.1,0.2-0.1,0.3-0.1
	c1.7-0.3,3.5-0.6,5.2-0.9c0.7-0.1,1.3-0.3,2-0.4C47.2,57.1,47.8,57.2,48,58z M35.7,54.8c0.4-0.2,0.8-0.5,1.2-0.6
	c1.2-0.1,2.3-0.1,3.5-0.1c0.2,0,0.4,0,0.5,0.1c0.3,0.2,0.5,0.5,0.7,0.8c-0.3,0.1-0.5,0.3-0.8,0.3c-1.4,0-2.8,0-4.2,0
	c-0.3,0-0.5-0.1-0.8-0.1C35.8,55,35.7,54.9,35.7,54.8z M22.6,58.9c0.3-0.1,0.7-0.2,1-0.3c1.1-0.4,2.3-0.7,3.4-1.1
	c0.1,0,0.2-0.1,0.2-0.1c0.3,0,0.6,0.1,1,0.2c-0.2,0.3-0.3,0.7-0.5,0.8c-0.8,0.4-1.6,0.7-2.4,0.8c-0.9,0.2-1.8,0.1-2.7,0.1
	C22.6,59.1,22.6,59,22.6,58.9z M49.7,56.5c0.3-0.2,0.6-0.6,0.9-0.6c1.4-0.1,2.9-0.2,4.3-0.2c0.2,0,0.3,0.1,0.5,0.2
	c0,0.1,0,0.2,0,0.2c-1.8,0.3-3.6,0.6-5.5,0.8C49.8,56.8,49.8,56.6,49.7,56.5z M22.2,46.7c1.9,0.2,3.6,0.4,5.3,0.6
	C27,48.3,23.5,48,22.2,46.7z M29.6,59.4c0.3-0.1,0.5-0.2,0.8-0.2c0.8-0.1,1.7-0.2,2.6-0.3c0.2,0,0.4,0.1,0.6,0.2
	c-0.1,0.2-0.2,0.5-0.3,0.5c-1.2,0.2-2.4,0.3-3.6,0.1C29.6,59.6,29.6,59.5,29.6,59.4z M35.5,63.2c-1.5,0.4-3.1,0.3-4.7,0.4
	C31.1,63,33.2,62.8,35.5,63.2z M30.5,63.7c-0.5,0.5-3.3,0.7-4.7,0.4C26.3,63.7,28.6,63.5,30.5,63.7z M24.6,56.3
	c-0.3,0.7-0.7,1-1.3,0.8c-0.1,0-0.3-0.5-0.2-0.5C23.5,56.2,24,56,24.6,56.3z M56,58.3c-0.6,0.2-1.2,0.4-1.8,0.6
	c0-0.1-0.1-0.2-0.1-0.4C54.7,58,55.3,58.2,56,58.3L56,58.3z M79,46.6c0,0.7,0,1.3-0.1,1.9c0,0.1-0.3,0.3-0.4,0.3
	c-0.2,0-0.4-0.2-0.4-0.3C77.7,47.8,78.1,47,79,46.6z M76.4,36c0,0.7,0,1.5-0.1,2.2c0,0.2-0.3,0.3-0.5,0.4c-0.1,0-0.4-0.3-0.3-0.4
	c0.2-0.8,0.4-1.5,0.6-2.3C76.1,35.9,76.2,36,76.4,36z M85.8,41.2c0.7,0.4,1.3,0.9,2.1,1.4c-0.9,0.6-1.3,0.1-1.7-0.2
	c-0.3-0.2-0.5-0.6-0.8-0.9C85.5,41.4,85.7,41.3,85.8,41.2z M82.5,49.1c0-1,0-2.1-0.1-3.1c0.1,0,0.2,0,0.3,0c0.3,1,0.2,2.1,0.1,3.2
	C82.7,49.1,82.6,49.1,82.5,49.1z"/>
</svg>
