<?xml version="1.0" encoding="utf-8"?>
<!-- Generator: Adobe Illustrator 25.2.3, SVG Export Plug-In . SVG Version: 6.00 Build 0)  -->
<svg version="1.1" id="Design" xmlns="http://www.w3.org/2000/svg" xmlns:xlink="http://www.w3.org/1999/xlink" x="0px" y="0px"
	 viewBox="0 0 281.5 4.1" style="enable-background:new 0 0 281.5 4.1;" xml:space="preserve">
<g>
	<g>
		<g>
			<path d="M280.1,2.3c0.1,0,0.1-0.1-0.3-0.1l-0.3,0.1L280.1,2.3z"/>
		</g>
		<g>
			<path d="M277.3,2.1c-0.5,0-1,0.1-0.7,0.2c0.5-0.1,0.6-0.1,1.1-0.2c0.4,0,0.7,0,0.6,0.1c0.1,0,0.6,0,0.8,0
				C278.7,2.1,278,2.1,277.3,2.1C277.2,2.2,277.3,2.2,277.3,2.1z"/>
		</g>
		<g>
			<path d="M237.9,2l0.3,0C238.1,2,238,2,237.9,2z"/>
		</g>
		<g>
			<path d="M213.5,2c0.2,0,0.3,0,0.3,0C213.6,2,213.4,2,213.5,2z"/>
		</g>
		<g>
			<path d="M209.3,1.9c0.1,0,0.2,0,0.2,0C209.5,1.9,209.4,1.9,209.3,1.9z"/>
		</g>
		<g>
			<path d="M237.9,2l-0.7,0C237.2,2,237.6,2,237.9,2z"/>
		</g>
		<g>
			<path d="M271.9,2.4c0.1,0,0.3,0,0.4,0C272.1,2.4,272,2.4,271.9,2.4C271.9,2.4,271.9,2.4,271.9,2.4z"/>
		</g>
		<g>
			<path d="M248.7,1.9l0.2,0c0.1,0,0.1,0,0.2,0L248.7,1.9z"/>
		</g>
		<g>
			<path d="M256.9,1.9c-0.2,0-0.3,0.1-0.3,0.1C256.7,2,256.9,2,256.9,1.9C257,2,257,1.9,256.9,1.9z"/>
		</g>
		<g>
			<path d="M270.1,2l0.2,0C270.2,2,270.1,2,270.1,2z"/>
		</g>
		<g>
			<path d="M242.8,1.9C242.8,1.9,242.7,1.9,242.8,1.9C242.7,1.9,242.7,1.9,242.8,1.9z"/>
		</g>
		<g>
			<path d="M11.6,3C11.6,3,11.6,3,11.6,3C11.6,3,11.6,3,11.6,3z"/>
		</g>
		<g>
			<path d="M2,2.6l0.1,0c0,0,0,0,0,0L2,2.6z"/>
		</g>
		<g>
			<path d="M201.7,1.8C201.7,1.8,201.7,1.8,201.7,1.8C201.9,1.8,201.8,1.8,201.7,1.8z"/>
		</g>
		<g>
			<path d="M131.6,2c0.8,0.1-1.3,0.1-0.1,0.2C131.4,2.2,132.6,2.1,131.6,2z"/>
		</g>
		<g>
			<path d="M271.7,2.4c-0.1,0-0.2,0-0.3,0C271.5,2.4,271.6,2.4,271.7,2.4z"/>
		</g>
		<g>
			<path d="M131.5,2.2C131.5,2.2,131.5,2.2,131.5,2.2l0.1,0C131.6,2.2,131.6,2.2,131.5,2.2z"/>
		</g>
		<g>
			<path d="M184.1,1.9c0,0,0.1,0,0.2,0C184.3,1.9,184.2,1.9,184.1,1.9z"/>
		</g>
		<g>
			<path d="M197.2,2l-0.3,0C197,2,197.1,2,197.2,2z"/>
		</g>
		<g>
			<path d="M177.3,2c-0.2,0-0.2,0-0.5,0c0,0,0,0,0.1,0C177,2,177.1,2,177.3,2z"/>
		</g>
		<g>
			<path d="M170.2,2c0,0,0.1,0,0.1,0c0.1,0,0.2,0,0.2,0L170.2,2z"/>
		</g>
		<g>
			<path d="M33.1,2.9c-0.2,0-0.3-0.1-0.3-0.1C32.9,2.9,31.9,2.9,33.1,2.9z"/>
		</g>
		<g>
			<path d="M271.9,2.3c0,0-0.1,0-0.2,0C271.8,2.4,271.9,2.4,271.9,2.3C271.9,2.4,272,2.3,271.9,2.3z"/>
		</g>
		<g>
			<path d="M177,2.7l-1.1,0C176.2,2.7,176.6,2.7,177,2.7z"/>
		</g>
		<g>
			<path d="M83.9,2.8l-0.3,0C83.8,2.8,83.9,2.8,83.9,2.8z"/>
		</g>
		<g>
			<path d="M172.5,2.7c-0.2,0-0.4,0-0.6-0.1c0,0-0.1,0-0.1,0L172.5,2.7z"/>
		</g>
		<g>
			<path d="M32.8,2.8C32.8,2.8,32.8,2.8,32.8,2.8C32.8,2.8,32.8,2.8,32.8,2.8z"/>
		</g>
		<g>
			<path d="M25.4,3c1.1,0,0.5-0.1,0.7-0.2c1.3,0,0.6,0.1,1,0.1c0.8,0,1.4-0.1,2-0.1c0,0,0.2,0,0,0c0.8-0.1,2.5,0,3.5-0.1
				c0.1,0,0.1,0,0.1,0c-0.2-0.1-0.2-0.1-0.2-0.2c0.5,0,0.9-0.1,1.1,0c-0.3,0-0.3,0-0.5,0.1l0.5,0c0.5,0.1-0.7,0-0.7,0.1
				c1,0,2.1-0.1,2.9-0.1c0.2,0.1-1.8,0-0.8,0.1l-1.2,0c0.9,0.2-0.7,0,0.1,0.2c1.5,0,1.7-0.1,3.2,0c0.3-0.1-0.1-0.1,0.2-0.1
				c2.2-0.1,1.7,0.3,3.3,0.1c0.4-0.1,0.6-0.2,1.7-0.1l-0.4,0.1c1.5,0,0.8-0.2,2.4-0.1c-0.3,0-1.2,0-0.9,0.1c1,0.1,0.7-0.1,1.5-0.1
				l0.2,0.1c1.6,0,3.3-0.1,5.1-0.1c-0.1,0-0.4,0.1,0,0.1c2.2-0.1,4.7,0,6.8,0.1l0.8-0.1c0.2,0,0.4,0,0.1,0.1c0.8,0,0-0.1,0.4-0.1
				c0.5,0,0.6,0.1,0.3,0.1c1.5-0.1,4.2-0.2,5.7-0.1l-0.3,0c1.2,0,1.4-0.2,2.5-0.1l-0.2,0c2.6,0,5.5-0.1,7.5,0.1
				c0.4-0.1,2.6,0.1,2.7-0.1c1.5,0.1,1.1,0.1,3.2,0.2c0.6,0,0.8-0.1,1.5-0.1l0,0.1l0.9-0.1L83,2.8l0.6,0c-0.3,0-0.5,0-0.5-0.1
				c1,0,2.5,0.1,2.5,0.1l2.4-0.1c-0.1,0-0.5,0.1-0.8,0.1c1.3-0.1,0.2,0.1,1.4,0c-0.2,0,0.1-0.1,0.1-0.1c0.6,0.1,1.9,0.1,2.9,0
				l-0.2,0.1c1.8,0,3.7,0,5.7,0c-0.7,0-0.6-0.1,0-0.2l0.2,0.1c0.4-0.1-0.6,0,0.2-0.1c0.7,0,0.5,0.1,0.1,0.1l0.9,0
				c0.1,0-0.2,0-0.2,0.1c0.4-0.1,1.6,0.1,2.1,0l0.1,0c2,0,2.9,0,4.5,0c0-0.1,0.7-0.1,1.2-0.1c1.2,0,2.5,0.1,4,0.1
				c1,0,0.3-0.1,0.8-0.1c0.1,0.1,1.5,0.1,0.8,0.1c1.7,0,2.2,0,4.4-0.1c-0.2,0-0.5,0-0.4-0.1c0.4,0,0.9,0,0.8,0.1l-0.1,0
				c2.5-0.1,5.7,0.2,7.6,0.1l-0.1,0l2-0.1c0.9,0-0.6,0.1,0.1,0.1c2.2-0.1,3.5,0,5.3-0.1c1.4,0.2,4.9,0,6.8,0.1l-0.1-0.1
				c0.5-0.1,0.6,0,0.9,0c-0.1,0-0.5,0-0.2-0.1c4.1-0.1,8.5,0.1,12.7,0.1c1.5,0,0.9-0.3,2.8-0.2l-0.6,0.1c3.1-0.1,6.4,0,9.4-0.1
				c-0.2,0-0.2,0.1-0.5,0.1c0.6,0.1,2.4,0,2.4-0.1c0.5,0,0.1,0.1,0.4,0.1c0.6,0,1.6-0.1,2,0c0.1,0-0.2,0-0.3,0c0.4,0,2,0,1.6-0.1
				c1.1,0,2.2,0,3.1,0c0.6-0.1,2,0,2.1-0.1c-0.1,0.1,2,0.1,2.7,0c-0.2,0,0.6,0,0.3,0.1c0.8,0,1.6,0,1.4-0.1c1.5,0.2,3.1-0.1,3.9,0.1
				c2.5-0.1,4.7-0.1,6.9-0.2c-0.1,0.1-2.4,0-2.3,0.2c2.1-0.1,3.3-0.2,5.4-0.2c0.5,0-0.3,0.1-0.5,0.1c2.1-0.1,4,0,5.9-0.1
				c0,0-0.2,0-0.4,0c0.4,0,0.9,0,0.8,0l-0.4,0c-0.6-0.1,1.5-0.2,1.5-0.2c-0.6,0.2,1.8,0,0.8,0.3c0.2,0,0.5,0,0.5-0.1
				c0.4,0,0.5,0,0.1,0.1c1.3,0,0.8-0.1,2-0.1c0,0-0.2,0-0.4,0.1c0.6-0.1,1.2-0.1,2.2-0.1c-0.1,0,0.1,0-0.2,0c1.7,0,2.9-0.2,4.8-0.1
				c-0.6,0.1,0.6,0,0.7,0.2l1,0l-0.4-0.1c0.9,0,1.7-0.1,2.4,0l-0.7,0l1.7,0l-0.9,0c0.9-0.1-0.1-0.1,1.1-0.1c-0.2,0,0.9,0,1.4,0.1
				c0,0,0,0,0,0c0.4,0,0.9-0.1,1.6,0c0.2,0-0.1,0.1,0,0.2c0.4-0.1,2.1,0,2.6-0.1c-0.2,0-0.2,0.1-0.1,0.1l0.4-0.1
				c0.4,0,0.5,0,0.4,0.1c1.2,0-0.4-0.1,1.1-0.1c-0.1,0-0.1,0-0.3,0c1.5,0,2.9-0.1,4.2,0c0.4,0.1-1.2,0-0.7,0.1c2,0,4.1-0.1,6-0.1
				l-0.4,0c0.3-0.2,1.4,0.1,2.4,0c-0.2,0-0.3,0.1-0.2,0.1c1.3,0,2.7,0,4.6-0.1l-0.2,0c0.8,0,2,0,2.8,0c0.2,0,0.7,0,0.4-0.1
				c2.6,0.2,4.9-0.1,7.1,0.1c-0.3,0-0.6,0-0.4,0l1.9,0c-0.2-0.1-0.3,0-0.7-0.1c0.2,0,0.8-0.1,1.3-0.1c-0.9,0,0,0.1,0.4,0.2
				c-0.1,0,0.1,0,0-0.1c1,0.1,0.2-0.1,1.5-0.1l-0.1,0c0.5,0,1-0.1,1.5-0.1c0.2,0.1-0.5,0-0.6,0.1c0.8,0,1.5-0.2,2.2-0.1
				c-0.3,0-0.8,0-1.1,0c0.8,0.1,0.9,0.1,1.4,0.1l-0.1,0l1.3,0l-0.3,0c1-0.2,2,0,3.3-0.2c-1.3,0.1-0.2,0.1-0.3,0.2
				c0.3,0,0.8,0.1,0.7,0.1c0.6-0.1,1,0.1,1.9-0.1c0,0,0.7,0,0.5,0.1c0.8,0-0.2-0.1-0.1-0.1c1.2-0.1,2.9,0.1,4.7,0
				c1.5-0.1,1.8-0.2,3.3-0.2c0.5,0-0.4,0.1-0.4,0.1c0.8,0,1.4,0,2.1,0c-0.1,0,0,0,0.2,0.1c0.6,0,0.4-0.1,1.2-0.1
				c-0.1,0-0.3,0.1-0.6,0.1c0.7,0,1.4-0.1,2.1-0.1c0.2,0.1-0.4,0.1-0.7,0.1c0.8,0,2.1-0.1,2.3-0.1l-0.5,0c0.3,0,0.2,0.1-0.1,0.1
				c-0.7,0.1-1,0-1-0.1l0.5,0c-0.5-0.2-2.1,0-3.1,0l0.4-0.1l-1.1,0.1c-0.2,0-0.4-0.1,0.1-0.1c-0.7-0.1-0.7,0-1.3,0c-0.1,0,0,0,0,0
				l-0.7,0c0.1,0-0.1-0.1,0.3-0.1c-1.3-0.1-2.1,0.1-2.6,0l0.1,0c-1.8,0-0.2,0.1-1.5,0.2L264.7,2l-0.2,0.1c-0.2,0-0.6,0-0.5,0
				c-0.7,0.1,0.1,0-0.3,0.1c-0.9-0.1-2.5,0-2.7-0.1c-0.3,0.1,0.9,0.1-0.1,0.1c-0.3-0.2-1.1,0-1.9,0c0.3-0.1,1,0,0.2-0.1
				c-0.5,0.1-1.6,0-2.3,0c0,0.1-1.5,0-2.7,0.1c0.1,0-2.2-0.1-3.3-0.1l0,0c-0.2,0.1-1.3,0.1-2.1,0.1c0-0.1,0.2-0.1,0.6-0.1l-0.8,0
				C248.7,2,248.5,2,248,2l0.2-0.1c-1,0-2,0.1-3.3,0c-0.1,0.1,1,0.2-0.3,0.3c-0.1,0-0.1-0.1,0.3-0.1c-0.1,0-0.4,0-0.7,0l0.5-0.1
				c-0.6,0-0.3,0.1-0.8,0.1c0-0.1-0.4,0-0.3-0.1c0.1,0,0.4,0,0.6,0c-0.5,0-1.2,0-1.4-0.1c0,0,0,0.1-0.4,0.1c-1,0-0.3-0.1-0.9-0.1
				c-0.2,0-0.9,0-0.9,0.1c-0.3,0-0.4,0-0.5-0.1c-0.5,0-2.4,0-1.9,0.1l0.1,0c0,0-0.1,0-0.1,0c0,0,0,0,0,0h0c-1.7,0.1-3.6,0-5.3,0l0,0
				c-1,0-2.3,0-3,0.1c-0.3,0-0.7-0.1-0.6-0.1c-0.8,0-0.9,0.1-2,0c0.8-0.1-0.3,0,0.8,0c-1,0-1.2-0.1-2.3,0c0.4-0.1-0.8-0.1-1.2-0.1
				l0.7,0.1c-0.5,0-1,0-1.5,0l0.3-0.1c-2.1-0.1-3.7,0.2-5.3,0C218.3,2,220,2,219.5,2c-1,0-1.9-0.2-2.2-0.2C216,1.8,216,2,214.7,2
				c0.2,0,0.3,0.1-0.7,0.2c-1,0-1.2-0.2-0.6-0.2c0.2,0,0.3,0,0.3,0c0.3,0,0.7,0,0.3-0.1L214,2c-0.5,0-1.8,0-1.5-0.1
				c-0.7,0-0.3,0.1,0.2,0.1c-1.2-0.1-1.9,0-3.2,0c0.2,0,0.4,0.1,0.2,0.1c-1.8,0-0.8,0.1-2.1,0.1c-0.7-0.1,0.3-0.1-1-0.1
				c-0.8,0-0.2-0.1,0.1-0.1c-1.1,0.1-2.1,0-2.8-0.1l0.6,0c-0.4,0-0.7,0-1,0l0.3,0.1c-0.4,0-0.7,0-0.6,0c-0.4,0,0.3,0.1-0.4,0.2
				c-0.5,0-1.4,0-1.6-0.1c1.5,0-0.2-0.1,1.1-0.1c-0.2,0-0.5,0-0.9,0c-0.1,0,0.1,0,0.1,0c-1.4-0.1-0.7,0.1-2.1,0.1
				c0.2-0.1-0.3-0.1-0.6-0.1c0.6,0,0.3,0.1-0.3,0.1c-0.9,0-1,0-1.5,0l0.6,0c-0.2,0.1-0.7,0-1.3,0.1c-0.1,0,0.6,0,0.4,0
				c-0.7,0.1-1.7-0.1-2.7,0c-0.5,0,0-0.1-0.5-0.1c-1.1,0.1-1.2-0.1-2.4,0c0.3,0.1,0.4,0.1-0.4,0.1l2-0.1l-1.3,0.1c0.6,0,1.3,0,1.6,0
				c-0.6,0.1-0.5,0-0.3,0.1c-0.8-0.1-1.6,0.1-2.6,0l0-0.2C188.9,1.9,187.8,2,186,2l0.6,0c-0.2,0.1-1.1,0-1.7,0
				c0.1-0.1-0.3-0.1-0.6-0.1c0,0-1.3,0-1.5,0.1L181.9,2c-1.5,0-1.7,0.2-3.1,0.2c0.4-0.1-0.2-0.1,0.7-0.2c-0.5,0-0.9,0-0.9,0
				c-0.3,0-1.3,0.1-1.8,0c-0.2,0-0.3,0.1-0.8,0.1c-0.1,0,0,0,0,0c0,0-0.8,0-0.4,0.1c-1.5-0.2-4.1,0-5.4-0.1c-1,0-2.3,0-3.2,0
				c0.1,0,0,0,0.2,0C166,2,166.5,2.3,165,2.2c-0.8-0.1,0.8-0.1,0.3-0.1c-0.2-0.2-1.8,0-2.8-0.1l0.2,0c-0.8-0.1-1.9,0.1-3.1,0.1
				c0,0,0.1,0,0,0c-0.9,0.1-2.5,0.1-3.7,0.2c0.4-0.1,0.5,0,0.3-0.1c-0.5,0,0.2,0.1-0.9,0.2c-0.3,0-1.1-0.1-1.2-0.2l1,0
				c-0.5-0.1-1.3,0-1.8,0l0.1,0c-1.5,0-1.6,0.1-3.2,0.1l0.2,0c-0.9,0.1-0.8-0.1-1.7,0l-0.3-0.1c-0.6,0-2.1,0.1-3.2,0.1
				c0.6-0.1,1.9-0.1,2.6-0.2c-0.6,0-2,0-2.3,0.1c0.2,0,0.5,0,0.8,0c-0.7,0.1-1.7,0.1-2.9,0.1c0.2-0.2-3.1-0.1-4-0.2
				c-2.1,0.1-4.2,0-6.6,0c0.9,0.2-0.7,0-0.6,0.2c-0.6,0-0.8,0-0.8,0l-1.7-0.1c-0.4-0.1,0.5,0,0.5-0.1c-1.2,0-0.5-0.1-1.3-0.1
				c0.2,0.1-0.4,0.1-1.1,0.1l1,0.1c-1.7,0.1-1.5-0.2-3.3-0.1l0.6-0.1c-0.9,0-3.3,0-4.2,0.2c-0.2,0-0.4-0.1,0-0.1
				c-2.2,0-4.8,0.2-6.5,0.1l0.2,0c-0.4,0-0.7,0.1-1.2,0c0,0,0.2,0,0,0c-0.2,0-1.1,0.1-1.6,0.1l0.5-0.1c-2.1-0.1-3.2,0.1-5,0.2
				c0-0.1-1.6-0.2-2.5-0.2l0,0c-2.4,0-4.2,0.1-6.4,0.2C98,2,94.6,2.1,92.4,2c0.3,0-0.1,0.1-0.5,0.1c-0.5,0-1.5,0.1-1.4,0l0.2,0
				C90.3,2,89.2,2,88.4,2l-0.1,0.2c-2.2-0.2-5.8,0.1-7-0.1c-0.5,0-1.2,0-1.7,0.1l0-0.1c-1.5,0-2.2,0-4.1,0L75.8,2
				c-1,0-1.3,0.3-2.3,0.3l-0.3-0.1c-1.8,0-3.6-0.1-5.4,0c0,0,0.1-0.1,0.4-0.1c-0.9,0-3.3-0.1-3,0.1c0-0.1-1.9,0-2.8,0l0.2-0.1
				c-0.8,0.1-0.9,0.1-2,0.2c-0.3,0-0.2-0.1,0.1,0c-0.9,0-0.7,0.1-1.8,0l0.4-0.1c-0.9,0-0.9,0-1.4,0.1c-0.6,0-1.8,0-1.9-0.1
				c-0.1,0-0.6,0.1-1.2,0.1c-0.1,0,0.1,0,0.2-0.1c-1.6-0.1-2.3,0.1-3.4,0c0,0-0.1,0-0.2-0.1c1.2,0,2.2,0,2.2,0c0-0.1-1-0.1-0.2-0.2
				c-0.8,0.1-2.2,0.2-3.2,0.2c0,0-0.1,0-0.1,0l0.1,0c-0.2,0-0.4,0-0.6,0c-0.3,0-0.5,0-0.8,0c-0.1-0.1-1.2,0-1.7,0
				c0,0.1-0.6,0.1,0,0.1c-0.1,0,0.1,0,0.4,0c0.1,0,0.2,0,0.2,0c0,0,0,0,0,0c0.3,0,0.8,0,1.2,0c-0.4,0-0.8,0.1-1.4,0
				c-0.3,0.1-0.5,0.1-0.7,0.1c-0.7-0.1-2-0.2-2.2-0.3c-1.5,0.1-3.6,0-4.6,0.2c-0.4,0-0.5,0-0.7-0.1c0.3,0,0.5,0,0.7,0
				c-0.9,0-2.6,0-2.8,0.1c-1.1,0,0.6-0.1-0.9-0.1l0.2,0c-3-0.2-4.8,0.3-8.1,0.1c0.2,0,0.3,0,0.4,0c-3.7-0.1-7.7,0.1-11.4,0
				c-1,0-1.2,0-1.8,0.1l-0.2-0.1l-1.1,0.1c-1.6,0.1-2.7-0.2-4.7-0.1L10,2.4c-0.7,0-2.2,0-2.1,0c-0.1,0-0.2,0.1-0.5,0l0,0L5.6,2.5
				c-1.3,0,0.2-0.2-1.8-0.2c-0.7,0-2.1,0.1-1.8,0.2c0.3,0,0.8,0,0.8,0.1l-0.7,0C2,2.7,1.5,2.8,3.2,2.9l1.1-0.1l0.4,0.1l-1,0
				c0.5,0.1,0.9,0,1.3,0c0.1,0,0.3,0.1,0.5,0.1l1.1-0.1C6.7,2.9,6.1,2.9,6.8,3c0.5-0.1-0.5-0.1,0.4-0.2c0.5,0.1,0.4,0.1,1,0.1
				c0.1,0,0,0.1-0.3,0.1c0.6,0,1.5,0,1.8-0.1c0.6,0.1,1.9,0,1.9,0.1c0.2,0,1-0.1,1.5-0.1c-1,0.2,2,0,1.7,0.2
				c0.7-0.1,2.6-0.1,3.8-0.2c-0.1,0-0.2,0-0.3,0c0.7,0,0.9,0.1,1.4,0.1c0.1-0.1,1.2-0.1,1.8-0.2C22.4,2.9,21,2.9,21.2,3
				c0-0.1,1.5-0.1,1.2-0.2c0.7,0.1,0.6,0,0.9,0.1c0.1-0.1,0.6,0,1.2-0.1c1,0.1,0.2,0.1,1.3,0.1C26.3,3,25.4,3,25.4,3z M50.4,2.7
				C50.4,2.7,50.4,2.7,50.4,2.7c-0.2,0-0.4,0-0.5,0C50,2.7,50.2,2.7,50.4,2.7z M52.5,2.7c-0.3,0-0.6,0-0.9,0c-0.1,0,0-0.1,0.2-0.1
				C51.7,2.7,52.2,2.7,52.5,2.7z M48.1,2.1c0.3,0,0.4,0,0.5,0C48.4,2.2,48.2,2.2,48.1,2.1c-0.1,0-0.1,0-0.1,0
				C48,2.2,48,2.1,48.1,2.1z"/>
		</g>
		<g>
			<path d="M47.5,2.2c0,0-0.1,0-0.1,0C47.4,2.3,47.5,2.3,47.5,2.2c0.1,0,0.1,0,0.2,0C47.6,2.2,47.5,2.2,47.5,2.2z"/>
		</g>
		<g>
			<path d="M238.2,2.1L238.2,2.1C238.2,2.1,238.2,2.1,238.2,2.1C238.2,2.1,238.2,2.1,238.2,2.1z"/>
		</g>
		<g>
			<polygon points="81.6,2.8 81.6,2.8 81.4,2.8 			"/>
		</g>
		<g>
			<path d="M249.8,2.3c0,0,0.1,0,0.2,0C249.9,2.3,249.9,2.3,249.8,2.3z"/>
		</g>
		<g>
			<path d="M254.8,2.3l0.7,0C255.2,2.4,255,2.3,254.8,2.3z"/>
		</g>
		<g>
			<path d="M258.7,2.4C258.7,2.4,258.7,2.3,258.7,2.4C258.7,2.3,258.7,2.3,258.7,2.4L258.7,2.4z"/>
		</g>
		<g>
			<path d="M197.5,2.6c-0.1,0-0.1,0-0.1,0C197,2.6,197.2,2.6,197.5,2.6z"/>
		</g>
		<g>
			<path d="M215.7,2.3c-0.2,0-0.4,0-0.6,0C215.4,2.4,215.7,2.4,215.7,2.3z"/>
		</g>
		<g>
			<path d="M177.1,2.7C177.1,2.7,177.1,2.7,177.1,2.7c0,0-0.1,0-0.1,0L177.1,2.7z"/>
		</g>
		<g>
			<path d="M214.2,2.4c0.3,0,0.6,0,0.8,0C214.8,2.4,214.5,2.4,214.2,2.4z"/>
		</g>
		<g>
			<path d="M275.3,2.4l0.2,0c0,0,0,0,0,0L275.3,2.4z"/>
		</g>
		<g>
			<path d="M275.5,2.4l0.2,0C275.7,2.4,275.6,2.4,275.5,2.4z"/>
		</g>
		<g>
			<path d="M276.2,2.3l-0.4,0C275.9,2.4,276.1,2.4,276.2,2.3z"/>
		</g>
		<g>
			<path d="M270.2,2.4L270.2,2.4C270.2,2.4,270.2,2.4,270.2,2.4z"/>
		</g>
		<g>
			<path d="M268.7,2.4c0.4,0,0.9,0.1,1.4,0l0,0C269.9,2.4,269,2.3,268.7,2.4z"/>
		</g>
		<g>
			<path d="M262.2,2l1.3,0c-0.2,0-0.5-0.1,0.1-0.1C262,1.8,263.9,2,262.2,2z"/>
		</g>
		<g>
			<path d="M258.2,2C258.9,1.9,258.2,1.9,258.2,2C257.8,1.9,257.7,1.9,258.2,2z"/>
		</g>
		<g>
			<path d="M229.1,2L229.1,2C228.7,1.9,229.2,2,229.1,2z"/>
		</g>
		<g>
			<polygon points="223.6,2.4 224.1,2.5 224.4,2.4 			"/>
		</g>
		<g>
			<polygon points="220.3,1.9 220.5,1.9 219.6,1.9 			"/>
		</g>
		<g>
			<path d="M171.5,2l0.2,0.1C172,2,172.1,1.9,171.5,2z"/>
		</g>
		<g>
			<path d="M150.4,2.1c-0.2,0-0.8-0.1-1.2,0C149.7,2.1,150.2,2.1,150.4,2.1z"/>
		</g>
		<g>
			<polygon points="87.2,2.1 87.6,2 86.8,2 			"/>
		</g>
	</g>
</g>
</svg>
