<svg xmlns="http://www.w3.org/2000/svg" xml:space="preserve" viewBox="0 0 281.5 4.1"><path d="m280.1 2.3-.3-.1-.3.1z"/><path d="M277.3 2.1c-.5 0-1 .1-.7.2l1.1-.2q.7 0 .6.1h.8zq0 .1 0 0"/><path d="M237.9 2h.3z"/><path d="M213.5 2h.3z"/><path d="M209.3 1.9h.2z"/><path d="M237.9 2h-.7z"/><path d="M271.9 2.4h.4z"/><path d="M248.7 1.9h.4z"/><path d="m256.9 1.9-.3.1zq.2 0 0 0"/><path d="M270.1 2h.2z"/><path d="M242.8 1.9s-.1 0 0 0q-.1 0 0 0"/><path d="M2 2.6h.1z"/><path d="M201.7 1.8q.2 0 0 0"/><path d="M131.6 2c.8.1-1.3.1-.1.2-.1 0 1.1-.1.1-.2"/><path d="M271.7 2.4h-.3z"/><path d="M184.1 1.9h.2z"/><path d="M197.2 2h-.3z"/><path d="M177.3 2h-.5z"/><path d="M170.2 2h.3z"/><path d="m33.1 2.9-.3-.1c.1.1-.9.1.3.1"/><path d="M271.9 2.3h-.2q.2.1.2 0"/><path d="M177 2.7h-1.1z"/><path d="M83.9 2.8h-.3z"/><path d="m172.5 2.7-.6-.1h-.1z"/><path d="M25.4 3c1.1 0 .5-.1.7-.2 1.3 0 .6.1 1 .1l2-.1q.2 0 0 0l3.5-.1h.1l-.2-.2h1.1l-.5.1h.5c.5.1-.7 0-.7.1l2.9-.1c.2.1-1.8 0-.8.1h-1.2c.9.2-.7 0 .1.2 1.5 0 1.7-.1 3.2 0 .3-.1-.1-.1.2-.1 2.2-.1 1.7.3 3.3.1.4-.1.6-.2 1.7-.1l-.4.1c1.5 0 .8-.2 2.4-.1-.3 0-1.2 0-.9.1 1 .1.7-.1 1.5-.1l.2.1 5.1-.1L57 3l.8-.1q.4 0 .1.1c.8 0 0-.1.4-.1q.8 0 .3.1c1.5-.1 4.2-.2 5.7-.1H64c1.2 0 1.4-.2 2.5-.1h-.2c2.6 0 5.5-.1 7.5.1.4-.1 2.6.1 2.7-.1l3.2.2 1.5-.1V3l.9-.1.9-.1h.6l-.5-.1 2.5.1 2.4-.1-.8.1h1.4l.1-.1h2.9l-.2.1h5.7q-1 0 0-.2l.2.1c.4-.1-.6 0 .2-.1q.9 0 .1.1h.9l-.2.1h6.7l1.2-.1 4 .1c1 0 .3-.1.8-.1l.8.1 4.4-.1-.4-.1.8.1h-.1c2.5-.1 5.7.2 7.6.1h-.1l2-.1c.9 0-.6.1.1.1l5.3-.1c1.4.2 4.9 0 6.8.1l-.1-.1h.9c-.1 0-.5 0-.2-.1l12.7.1c1.5 0 .9-.3 2.8-.2l-.6.1 9.4-.1-.5.1c.6.1 2.4 0 2.4-.1.5 0 .1.1.4.1h2-.3c.4 0 2 0 1.6-.1h3.1l2.1-.1h2.7c-.2 0 .6 0 .3.1.8 0 1.6 0 1.4-.1 1.5.2 3.1-.1 3.9.1l6.9-.2c-.1.1-2.4 0-2.3.2l5.4-.2-.5.1 5.9-.1h-.4.8-.4c-.6-.1 1.5-.2 1.5-.2-.6.2 1.8 0 .8.3l.5-.1q.7 0 .1.1l2-.1-.4.1 2.2-.1h-.2c1.7 0 2.9-.2 4.8-.1-.6.1.6 0 .7.2h1l-.4-.1h2.4-.7 1.7-.9c.9-.1-.1-.1 1.1-.1l1.4.1h1.6c.2 0-.1.1 0 .2l2.6-.1q-.3 0-.1.1l.4-.1q.6 0 .4.1c1.2 0-.4-.1 1.1-.1h-.3 4.2c.4.1-1.2 0-.7.1l6-.1h-.4c.3-.2 1.4.1 2.4 0l-.2.1 4.6-.1h-.2 2.8c.2 0 .7 0 .4-.1 2.6.2 4.9-.1 7.1.1h-.4 1.9l-.7-.1 1.3-.1c-.9 0 0 .1.4.2v-.1c1 .1.2-.1 1.5-.1h-.1l1.5-.1c.2.1-.5 0-.6.1l2.2-.1h-1.1l1.4.1h-.1 1.3-.3l3.3-.2c-1.3.1-.2.1-.3.2l.7.1 1.9-.1s.7 0 .5.1c.8 0-.2-.1-.1-.1h4.7l3.3-.2c.5 0-.4.1-.4.1h2.1l.2.1 1.2-.1-.6.1 2.1-.1c.2.1-.4.1-.7.1l2.3-.1h-.5q.4 0-.1.1-1 .1-1-.1h.5c-.5-.2-2.1 0-3.1 0l.4-.1-1.1.1q-.5 0 .1-.1h-2c.1 0-.1-.1.3-.1h-2.6.1c-1.8 0-.2.1-1.5.2l-.1-.1-.2.1h-.5c-.7.1.1 0-.3.1l-2.7-.1c-.3.1.9.1-.1.1q-.6-.2-1.9 0c.3-.1 1 0 .2-.1h-2.3l-2.7.1h-5.4l.6-.1h-.8q.1-.1-.6-.1l.2-.1h-3.3c-.1.1 1 .2-.3.3l.3-.1h-.7l.5-.1-.8.1c0-.1-.4 0-.3-.1h.6l-1.4-.1-.4.1c-1 0-.3-.1-.9-.1l-.9.1-.5-.1c-.5 0-2.4 0-1.9.1h.1-5.4l-3 .1-.6-.1h-2c.8-.1-.3 0 .8 0h-2.3c.4-.1-.8-.1-1.2-.1l.7.1h-1.5l.3-.1c-2.1-.1-3.7.2-5.3 0-.5.1 1.2.1.7.1l-2.2-.2-2.6.2c.2 0 .3.1-.7.2q-1.5-.1-.6-.2h.3c.3 0 .7 0 .3-.1V2c-.5 0-1.8 0-1.5-.1-.7 0-.3.1.2.1-1.2-.1-1.9 0-3.2 0l.2.1-2.1.1c-.7-.1.3-.1-1-.1-.8 0-.2-.1.1-.1q-1.7.1-2.8-.1h.6-1l.3.1h-.6c-.4 0 .3.1-.4.2l-1.6-.1c1.5 0-.2-.1 1.1-.1h-.9.1c-1.4-.1-.7.1-2.1.1.2-.1-.3-.1-.6-.1q.8 0-.3.1H197h.6l-1.3.1h.4-2.7l-.5-.1h-2.4q.6.1-.4.1l2-.1-1.3.1h1.6q-.7 0-.3.1h-2.6v-.2q-1.6-.2-4.1-.1h.6-1.7l-.6-.1-1.5.1h-.9l-3.1.2c.4-.1-.2-.1.7-.2h-2.7l-.8.1s-.8 0-.4.1c-1.5-.2-4.1 0-5.4-.1H167h.2c-1.2-.1-.7.2-2.2.1-.8-.1.8-.1.3-.1-.2-.2-1.8 0-2.8-.1h.2l-3.1.1-3.7.2q.6 0 .3-.1c-.5 0 .2.1-.9.2l-1.2-.2h1-1.8.1l-3.2.1h.2-1.7l-.3-.1-3.2.1 2.6-.2-2.3.1h.8l-2.9.1c.2-.2-3.1-.1-4-.2h-6.6c.9.2-.7 0-.6.2h-.8l-1.7-.1c-.4-.1.5 0 .5-.1l-1.3-.1q.1.1-1.1.1l1 .1c-1.7.1-1.5-.2-3.3-.1l.6-.1-4.2.1c-2.2 0-4.8.2-6.5.1h.2-1.2q.2 0 0 0l-1.6.1.5-.1c-2.1-.1-3.2.1-5 .2l-2.5-.2-6.4.2c-1.4-.4-4.8-.3-7-.4l-.5.1h-1.4.2L88.4 2l-.1.2c-2.2-.2-5.8.1-7-.1l-1.7.1v-.1h-4.1l.3-.1c-1 0-1.3.3-2.3.3l-.3-.1h-5.4l.4-.1c-.9 0-3.3-.1-3 .1h-2.8l.2-.1-2 .2h.1-1.8l.4-.1-1.4.1-1.9-.1-1.2.1.2-.1h-3.4l-.2-.1h2.2c0-.1-1-.1-.2-.2l-3.2.2h-.1.1-3.1c0 .1-.6.1 0 .1h1.8-1.4l-.7.1-2.2-.3c-1.5.1-3.6 0-4.6.2l-.7-.1h.7l-2.8.1c-1.1 0 .6-.1-.9-.1h.2c-3-.2-4.8.3-8.1.1h.4-11.4l-1.8.1-.2-.1-1.1.1c-1.6.1-2.7-.2-4.7-.1l.4.2H7.4l-1.8.1c-1.3 0 .2-.2-1.8-.2-.7 0-2.1.1-1.8.2l.8.1h-.7c-.1.1-.6.2 1.1.3l1.1-.1.4.1h-1H5l.5.1 1.1-.1c.1 0-.5 0 .2.1.5-.1-.5-.1.4-.2l1 .1-.3.1 1.8-.1 1.9.1 1.5-.1c-1 .2 2 0 1.7.2l3.8-.2h-.3l1.4.1 1.8-.2c.9.1-.5.1-.3.2 0-.1 1.5-.1 1.2-.2l.9.1 1.2-.1 1.3.1c.5.1-.4.1-.4.1m25-.3h-.5zm2.1 0h-.9l.2-.1zm-4.4-.6h.5zH48z"/><path d="M47.5 2.2h-.1q0 .1.1 0h.2z"/><path d="M81.6 2.8h-.2z"/><path d="M249.8 2.3h.2z"/><path d="M254.8 2.3h.7z"/><path d="M258.7 2.4s0-.1 0 0q0-.1 0 0"/><path d="M215.7 2.3h-.6z"/><path d="M214.2 2.4h.8z"/><path d="M275.3 2.4h.2z"/><path d="M275.5 2.4h.2z"/><path d="M276.2 2.3h-.4q.2.1.4 0"/><path d="M268.7 2.4h1.4z"/><path d="M262.2 2h1.3c-.2 0-.5-.1.1-.1-1.6-.1.3.1-1.4.1"/><path d="M258.2 2c.7-.1 0-.1 0 0q-.7-.2 0 0"/><path d="M229.1 2c-.4-.1.1 0 0 0"/><path d="m223.6 2.4.5.1.3-.1z"/><path d="M220.3 1.9h.2-.9z"/><path d="m171.5 2 .2.1q.6-.2-.2-.1"/><path d="M150.4 2.1h-1.2z"/><path d="m87.2 2.1.4-.1h-.8z"/></svg>