<?xml version="1.0" encoding="utf-8"?>
<!-- Generator: Adobe Illustrator 25.2.3, SVG Export Plug-In . SVG Version: 6.00 Build 0)  -->
<svg version="1.1" id="Layer_1" xmlns="http://www.w3.org/2000/svg" xmlns:xlink="http://www.w3.org/1999/xlink" x="0px" y="0px"
	 viewBox="0 0 196.8 196" style="enable-background:new 0 0 196.8 196;" xml:space="preserve">
<g id="Layer_3">
</g>
<g id="Text">
</g>
<path id="Branches" d="M119,91.8c3.5,0.1,6.6,3.4,6.6,7.1c0,3.9-3.2,6.8-7.3,6.7c-3.8-0.1-6.8-3.2-6.6-6.9
	C111.8,94.8,115.2,91.6,119,91.8z M73.6,98.5c-0.1,4,2.7,7,6.7,7s7.1-2.9,7.1-6.8c0-3.7-3.4-7-7.1-7C76.6,91.8,73.7,94.7,73.6,98.5z
	 M195.8,98c0,53.7-43.7,97.5-97.5,97.5S0.9,151.7,0.9,98S44.6,0.5,98.4,0.5S195.8,44.3,195.8,98z M151.5,121.6
	c-0.9,0.2-2.1,1-2.3,1.8c-3.7,10.7-10.5,19-20,25.5c2,4.5,4,8.9,6,13.2c2.6,5.4,5.2,6.1,10,2.6c20.9-15.1,32.8-35.7,34.3-61.4
	c1.7-29.6-9.7-53.8-33.8-71.4C125.4,17,102.5,13.1,77.9,19c-3.5,0.9-6.2,3.1-4.9,6.6c2.9,7.7,6.6,15.1,10.2,23.1
	c5.2-8.9,11.3-11.9,18.5-9.5c7.6,2.5,12.2,9.9,11.3,18.4c-0.7,6.3-4,11.2-8.8,15.1c-2.4,1.9-5,3.7-7.6,5.5
	c6.8,14.9,27.8,60.7,30.1,65.6c8.2-4.4,14.9-13,18-23.6c1-3.3,2.1-4.8,5.9-4c3.7,0.7,6.6-1.3,8.4-4.6c1.8-3.4,1.7-6.9-0.6-10.1
	c-2.2-3-5.3-4.7-8.9-3.5c-3.5,1.1-4.8,0-6-3.1c-3.8-9.6-10.6-16.7-19.5-21.8c-1.1-0.6-2.5-1-3.3-1.8c-1-1.1-3.2-1.9-2.4-3.9
	c0.8-2,3.2-0.5,4.8-0.6c0.5,0,1,0.5,1.5,0.7c10.7,5.5,18.5,13.9,23.4,24.8c0.3,0.1,0.5,0.2,0.6,0.2c9.7,0.2,15.7,4.7,16.5,12.5
	C166.1,114,161.5,119.5,151.5,121.6z M98.8,60.9c-2.9,0.8-5.9,1-9.2,1.5c1.7,3.6,3.2,7,4.9,10.8c6-3.6,11-7.2,12.9-13.7
	c2.3-7.5-2-14.9-9.1-15.7c-3.8-0.4-6.9,1.1-8.5,4.4c-0.9,1.9-1.3,4.9-0.4,6.6c1.7,3.3,5,2,7.9,1.4c1.1-0.2,3.3-0.8,3.8,1.4
	C101.6,59.8,99.8,60.6,98.8,60.9z M77.8,70.3C66,75.6,57.4,83.5,52.7,95.1c-0.9,2.3-1.8,4.2-4.8,3.2c-4-1.4-7.3-0.2-9.8,3
	c-2.4,3.1-2.6,6.6-0.9,10c1.9,3.8,5.3,5.5,9.5,4.8c2.7-0.4,3.8,0.4,4.6,3c4.5,16,15.4,25.8,30.8,30.9c10.6,3.5,21.3,3.5,32.3,0
	c-2.5-5.4-4.8-10.4-7.1-15.4c-1.4,0.2-2.5,0.4-3.6,0.6c-10.6,2.1-18.8-2.6-25.8-9.8c-0.7-0.7-1.8-1.8-0.6-3.3s2.6-0.3,3.7,0.2
	c1.2,0.6,2.1,1.8,3.2,2.7c6,5,12.6,7.5,21.2,5C95.9,110,86.9,90.2,77.8,70.3z M75.6,65.5c-5.2-11.2-10.1-22.3-15.4-33.3
	c-1.8-3.7-4.9-3.9-9-0.9C30.3,46.5,18.4,67,16.8,92.7C15,120,25,143.2,46.1,160.8c21.1,17.5,45.5,22.7,72.2,16.4
	c4.3-1,6.2-3.9,4.8-7.4c-2-5-4.4-9.8-6.7-14.8c-14.6,4.1-28.6,3.8-42.2-2.5c-13.8-6.3-23.1-16.6-27.7-30.8
	c-9.9-0.8-15.3-6.1-15.5-14.5c-0.2-7.2,5.9-15.4,15.3-14.7c0.8,0.1,2.2-0.7,2.6-1.5C54.3,79.1,63.6,71.1,75.6,65.5z"/>
</svg>
