<svg xmlns="http://www.w3.org/2000/svg" viewBox="0 0 58.4 56.8">
  <path d="m58 27.5-.1-2-.3-2.2c-.2.6-.1-.4-.3-.3l-.1-.5v.1-.1l-.1-1.1c0-.3.1.3.2.3-.2-.8 0-.4 0-.9q-.1.1-.3-.7l.1.6c-.4-1-.1-1-.6-2l.2.3-.5-1.2-.7-1.1q0-.3.1 0-.5-1.2-1.4-2.2l-.8-1.3h.1l-.5-.6v-.1l-.7-.7.2.2q-.7-1-1.4-1.5l.3.2-.3-.4-.5-.4h.2l-.7-.6-.8-.9-1.6-1.3-.1-.2-.5-.2q-.2-.1-.2-.3c-.3-.1-1.3-.9-1-.6l.1.1-.1-.1-1.4-1-1.1-.6-.2-.1-.1-.1-.7-.4q.2 0 0 .1l-.9-.3-.1-.1-.2-.2-.1-.1-.2-.1q-.9.2-1.1 0l.4.1c-.6-.2-.7-.4-1.4-.5.3 0-.4-.3-.7-.4l.4.2-.9-.3h.3c-1.2-.5-2.4-.3-3.3-.8-.4.1.7.2.4.3l-1.4-.4c-.8-.2-.8.1-1.6 0l-.7.1q-.6-.1-.2-.2h.2q.5 0 .2-.1h-.1c-.3-.1-1.1-.1-.9-.2-.5 0-.2.1.1.1l-2-.1.1.1c-1.2 0-.5.1-1.3.2h-.5c-.5 0-.1-.1.1-.2l-1.8.1.4-.1-.6.1.2.1h-.4c-.2.1.2.1-.2.3l-1 .1c.9-.1-.1-.1.7-.3l-.6.1.1-.1c-.9.1-.4.2-1.3.5q0-.2-.4 0 .5 0-.1.2c-.7.1-.7.2-1 .3l.3-.1-.8.3.2-.1q-.6.3-1.6.5l-.3-.1c-.7.4-.8.2-1.5.6q.4 0-.2.3l1.1-.6-.6.5.9-.4q-.4.3-.1.2l-.5.2.1-.1-.4.3-.7.3-.1-.2-1.2.6-1.3.8.3-.2-.9.6h-.4s-.7.5-.7.7l-.5.2c-.8.5-.8.8-1.4 1.4.1-.3-.2 0 .2-.5l-.4.4-.8.8-.3.4s-.4.4-.1.3l-.1.1q-.6.4-1.1 1.1t-1.2 1.2l-1.2 1.7v-.1l-.4.8q0 .2-.3.5c-.3.2.2-.5 0-.3-.3 0-.6 1-1 1.4l.1-.1-.8 1.8-.4 1.2-.3.7v.1l-.2.8-.1.2h-.1l-.1.1.2-.6q-.4.3-.4 1l-.1-.1-.2 1.6q-.3.5-.3 1.4l.1-.1v.1l-.2.1v1.3h-.1v.4-1.4c-.1.4-.2 1.3-.1 1.5v-.5 1.3c-.1.5-.3-.2-.3.9l.1.7-.1 1.4.1 2 .3 2.2c.2-.6.1.4.3.3l.1.5v-.1.1l.1 1.1c0 .3-.1-.3-.2-.3.2.8 0 .4 0 .9q.1-.1.3.7l-.1-.7c.4 1 .1 1 .6 2l-.2-.3.5 1.2.7 1.1q0 .3-.1 0c.5 1.3 1.7 2.6 2.1 3.5l-.1-.1q.3.2.5.6v.1l.7.8h-.1l1.1 1.3 1.2 1c-.1.1.5 1 .9 1.3l1.6 1.3 1.7 1.1.7.6 1 .6 2.1 1.2h.3c.3.2.9.3.8.4l-.1-.1q.4.4 1.3.7l.2-.2q1 .6 2.3.9c1.3.3 1.6.3 1.9.6l1.1.1v.1l2.6.4-.2.1c.7 0 .9-.3 1.5-.3l.2.2q1.7.2 3.5-.1l-.2.1c.5 0 2.1-.1 1.9-.3 0 .2 1.2-.2 1.8-.3H35l1.2-.5q.3 0-.1.1l1.1-.3-.2.1c.6-.1.5-.2.8-.3.3-.2 1.1-.3 1.2-.3q.1-.2.7-.4l-.1.1c1-.2 1.3-.7 2-.9h.1l-1.2.6c0 .1.6-.1.2.2l1.7-1.1h.1-.1l.3-.2.5-.2.9-.5c-.1-.1.3-.3-.1-.2l-.2.2-.1.1-.7.4.7-.5.3-.4 1.4-.4c.7-.6 1.9-1.4 2.2-2l.4-.2-.3.3c.4-.4 1.2-1.1 1.2-1.3.6-.4-.2.4.5-.3l-.1.1q1-.9 1.7-1.9l.1-.1.1-.1q.5-.9 1.5-1.9l-.2.2q.6-.6 1-1.5l.2-.3.1-.1.5-.8.2-.3-.1.1.8-1.8.1-.3.7-1.4q.3-.7.3-1.1l.1-.1-.1.3q.4-.5.4-1.1l.1.1.2-1.3v-.1l.2-.7q.2-.3.1-.6v.2-.4l-.1.1v-.3l.1-.1v-1.2h.1V31v1.3c.1-.4.2-1.3.1-1.5v.5l-.1-1.2c.1-.6.3.2.3-1l-.1-.7c.3 0 .3-.6.4-.9m-14.3 25-.3.2zm-26.4 0h.1q0 .2-.1 0m38.4-16.3-1 2.6-.5 1-.8 1.6.1-.3-.7 1.1.1-.2q-.3.4-.1.4l-.2.1c-.3.3-.4.9-.7 1l.1-.2c-.1.2-.7.9-.5.8l-1.2 1.4c-.1.3-.8.8-.8 1q-.2 0-.5.4l-.7.7c.1-.1-.3.2-.3 0q-.7.6-.6.7c-.8.4-1.4 1.3-2 1.3l-1.8 1.3-1.8 1 .6-.4.5-.4c-1.1.7-1.7 1.1-2.9 1.6-.3.1.1-.1.2-.2l-1.7.7-1.7.6.2-.1-.5.2.2-.1c.4 0-.8.5-.8.6.3-.3-1.1.2-.6-.3l-.3.2q-.3 0-.1-.1l-1.2.3.2-.1-1.3.3.1-.1q-1.4.4-3 .4c.3-.2-.4 0-.5-.2h-.6l.3.1h-1.5.4-1l.6.1c-.6.1 0 .2-.7.1.2 0-.6 0-.8-.2l-1-.1v-.2c-.3.1-1.3-.1-1.6-.1l.1-.1-.2.1q-.3-.1-.2-.2c-.7-.2.2.3-.7 0h.2l-2-.5h-.1l-.4-.2c-.2-.2.7.2.5 0l-3.4-1.1h.1l-1.2-.6-1.2-.6-.7-.4.1.1-.6-.3h.2l-.2-.1-.3-.2h.1c-.2-.1-.7-.7-1-.7v-.1l-2.2-1.7-.6-.3-.2-.1-.7-.8q.1.1.1 0l-.3-.3-.7-.7-.3-.2v-.1h-.1c.1-.1-.5-.8-.1-.5l-.8-1-.9-1.1v.1l-.2-.3-.2-.3.1.2c-.9-1.2-1.3-3-2-3.9l-.6-1.1c.3-.5.7.3.6-.1-.7-1.2-.6-2-1-3.1l-.2-2-.3-1.1v-1l-.1.1v-.6c-.1 0-.1.3-.1.1l-.1-2V26q.5-1 .7-2l.2-1 .3-.9q.2-.5 0-.8.2-.6.3-.5v-.2l.7-2.1.3-.5v-.2l.4-.8.1.3.1-.7.1-.3.2-.2q-.1-.1.1-.4l.4-.5.3-.4c.2-.2 0 .3 0 .3.4-.5 0-.3 0-.5l.2-.3H6l.1-.1h.2l.6-1.1H7c.2-.5.9-1.2 1.2-1.8h.1-.1l.2-.1.3-.4-.2.3v.1l.4-.3-.2.2.4-.5.3-.4v-.1l.2-.1c-.2.2-.5.5-.1.3l-.5.5c.5-.2-.3.3.2.1.7-.6.6-.8 1.4-1.4v-.2l.3-.2-.3.2.3-.3.3-.3c.4-.2.6-.1 1.1-.6q0-.2.7-.8l-.1.3c.7-.5.3-.5 1.1-1l-.4.4c.6-.2.3-.4.7-.6l.2.1.9-.8.7-.4.7-.4q-.2.2.1.1l1.9-.9 2-.6.4-.3q.2 0 .1.1c.5-.1 0-.1.2-.2q.5-.1.2.1l1.6-.6 1.8-.2-.1.1c.7-.1.8-.4 1.5-.4h-.1q2.6-.3 4.6.1c.2-.2 1.6.2 1.7-.1.9.3.6.3 1.9.5h1v.1h.6l.3.2.4.1q-.3 0-.3-.2c.6.1 1.4.4 1.4.5l1.4.4-.5-.1c.6.4-.1.4.6.5l.1-.1 1.6.7h-.1l1.5.7 1.6.9q-.5-.4.1-.2v.2c.2 0-.3-.2.2-.1q.5.3-.1.2l.5.3h-.2c.2.1.7.7 1 .7v.1l2.2 1.7.7.3 1.6 1.8c.5.4.2.1.5.2 0 .1.5.8.2.5l1.7 2.1v-.2l.2.5c1 1.1 1.4 3.1 2.1 4.1l.6 1.1c.2.5-.2-.3-.1.1.7 1.2.6 2 1 3l.2 2 .2 1.2v1l.1-.1v.6l.1-.1.1 1.9v1.9l-.4 1.9-.2.9-.5.9v.9z"/>
  <path d="M20.1 37.5v-25H20a17 17 0 0 1-8.6 3.8v.2q3.5.5 3.3 8.2v12.8q0 4.8-2 5.3v.2h9.5v-.2q-2.1-.5-2.1-5.3"/>
  <path d="M34.8 26q3.2-3.5 3.2-7.1c0-3.5-2.4-6.3-6.2-6.3-4.5 0-7.1 3.4-7.1 8.3 0 3.8 1.2 5.9 2.9 7.8a10 10 0 0 0-3.5 7.4c0 4.4 2.6 7.5 7.5 7.5 4.6 0 7.6-3.5 7.6-8.9-.1-4.2-2.1-6.5-4.4-8.7m-3.2-12.8c2.6 0 3.8 2.8 3.8 6.2a8 8 0 0 1-2 5.2c-2.7-2.5-5.1-4.5-5.1-7.3q0-4 3.3-4.1m0 29.8c-3.7 0-5.1-3.5-5.1-7.6 0-2.1 1.1-4 2.2-5.3l1.5 1.3c2.4 2.2 5.1 4.6 5.1 7.3S33.9 43 31.6 43"/>
  <path d="M46.9 20h-2.5v5.7h-5.1v2.4h5.1v5.7h2.5v-5.7H52v-2.4h-5.1z"/>
</svg>
