<svg xmlns="http://www.w3.org/2000/svg" xml:space="preserve" viewBox="0 0 196.8 196"><path d="M119 91.8c3.5.1 6.6 3.4 6.6 7.1 0 3.9-3.2 6.8-7.3 6.7a6.7 6.7 0 0 1-6.6-6.9 7 7 0 0 1 7.3-6.9m-45.4 6.7c-.1 4 2.7 7 6.7 7s7.1-2.9 7.1-6.8c0-3.7-3.4-7-7.1-7-3.7.1-6.6 3-6.7 6.8m122.2-.5A97.5 97.5 0 1 1 1.1 98a97.5 97.5 0 0 1 194.7 0m-44.3 23.6c-.9.2-2.1 1-2.3 1.8a50 50 0 0 1-20 25.5l6 13.2c2.6 5.4 5.2 6.1 10 2.6a79 79 0 0 0 34.3-61.4 78 78 0 0 0-33.8-71.4A79 79 0 0 0 77.9 19c-3.5.9-6.2 3.1-4.9 6.6 2.9 7.7 6.6 15.1 10.2 23.1q7.8-13.2 18.5-9.5A17 17 0 0 1 113 57.6c-.7 6.3-4 11.2-8.8 15.1l-7.6 5.5 30.1 65.6a39 39 0 0 0 18-23.6c1-3.3 2.1-4.8 5.9-4 3.7.7 6.6-1.3 8.4-4.6a9 9 0 0 0-.6-10.1c-2.2-3-5.3-4.7-8.9-3.5-3.5 1.1-4.8 0-6-3.1A43 43 0 0 0 124 73.1c-1.1-.6-2.5-1-3.3-1.8-1-1.1-3.2-1.9-2.4-3.9s3.2-.5 4.8-.6c.5 0 1 .5 1.5.7A50 50 0 0 1 148 92.3l.6.2c9.7.2 15.7 4.7 16.5 12.5q1.5 13.5-13.6 16.6M98.8 60.9c-2.9.8-5.9 1-9.2 1.5l4.9 10.8c6-3.6 11-7.2 12.9-13.7 2.3-7.5-2-14.9-9.1-15.7-3.8-.4-6.9 1.1-8.5 4.4-.9 1.9-1.3 4.9-.4 6.6 1.7 3.3 5 2 7.9 1.4 1.1-.2 3.3-.8 3.8 1.4s-1.3 3-2.3 3.3m-21 9.4a46 46 0 0 0-25.1 24.8c-.9 2.3-1.8 4.2-4.8 3.2q-6-2-9.8 3a9 9 0 0 0-.9 10 8.4 8.4 0 0 0 9.5 4.8c2.7-.4 3.8.4 4.6 3A44 44 0 0 0 82.1 150a51 51 0 0 0 32.3 0l-7.1-15.4-3.6.6c-10.6 2.1-18.8-2.6-25.8-9.8-.7-.7-1.8-1.8-.6-3.3s2.6-.3 3.7.2 2.1 1.8 3.2 2.7c6 5 12.6 7.5 21.2 5q-14.1-30-27.6-59.7m-2.2-4.8Q68 48.7 60.2 32.2q-2.8-5.5-9-.9a79 79 0 0 0-34.4 61.4 78 78 0 0 0 29.3 68.1 79 79 0 0 0 72.2 16.4c4.3-1 6.2-3.9 4.8-7.4q-3.1-7.4-6.7-14.8a59 59 0 0 1-42.2-2.5 50 50 0 0 1-27.7-30.8c-9.9-.8-15.3-6.1-15.5-14.5-.2-7.2 5.9-15.4 15.3-14.7.8.1 2.2-.7 2.6-1.5a52 52 0 0 1 26.7-25.5"/></svg>