<?xml version="1.0" encoding="utf-8"?>
<!-- Generator: Adobe Illustrator 25.2.3, SVG Export Plug-In . SVG Version: 6.00 Build 0)  -->
<svg version="1.1" id="Design" xmlns="http://www.w3.org/2000/svg" xmlns:xlink="http://www.w3.org/1999/xlink" x="0px" y="0px"
	 viewBox="0 0 78 10.3" style="enable-background:new 0 0 78 10.3;" xml:space="preserve">
<g>
	<g>
		<g>
			<g>
				<path d="M0,2.4C0,2.4,0,2.4,0,2.4l0.2,0L0,2.4z"/>
			</g>
			<g>
				<path d="M0.7,2.5c0.1,0,0.3-0.1,0.2-0.2c-0.1,0.1-0.2,0-0.3,0.1c-0.1,0-0.2,0-0.2-0.1c0,0-0.2,0-0.2,0C0.4,2.5,0.6,2.5,0.7,2.5
					C0.8,2.5,0.8,2.5,0.7,2.5z"/>
			</g>
			<g>
				<path d="M11.5,2.6L11.5,2.6C11.5,2.6,11.5,2.6,11.5,2.6z"/>
			</g>
			<g>
				<path d="M18.2,2.6C18.2,2.6,18.1,2.6,18.2,2.6C18.2,2.6,18.2,2.6,18.2,2.6z"/>
			</g>
			<g>
				<path d="M19.3,2.7C19.3,2.7,19.3,2.7,19.3,2.7C19.3,2.7,19.3,2.7,19.3,2.7z"/>
			</g>
			<g>
				<path d="M11.5,2.6l0.2,0C11.7,2.6,11.6,2.6,11.5,2.6z"/>
			</g>
			<g>
				<path d="M2.2,2.3C2.2,2.3,2.2,2.3,2.2,2.3C2.2,2.3,2.2,2.3,2.2,2.3C2.2,2.3,2.2,2.3,2.2,2.3z"/>
			</g>
			<g>
				<path d="M8.6,2.7L8.6,2.7C8.5,2.7,8.5,2.7,8.6,2.7L8.6,2.7z"/>
			</g>
			<g>
				<path d="M6.3,2.7c0.1,0,0.1-0.1,0.1-0.1C6.4,2.6,6.3,2.7,6.3,2.7C6.3,2.7,6.3,2.7,6.3,2.7z"/>
			</g>
			<g>
				<path d="M2.7,2.6L2.7,2.6C2.7,2.6,2.7,2.6,2.7,2.6z"/>
			</g>
			<g>
				<path d="M10.2,2.7C10.2,2.7,10.2,2.7,10.2,2.7C10.2,2.7,10.2,2.7,10.2,2.7z"/>
			</g>
			<g>
				<path d="M73.4,1.8C73.4,1.8,73.4,1.8,73.4,1.8C73.4,1.8,73.4,1.8,73.4,1.8z"/>
			</g>
			<g>
				<path d="M76,2.2L76,2.2C76,2.2,76,2.2,76,2.2L76,2.2z"/>
			</g>
			<g>
				<path d="M21.4,2.8C21.4,2.8,21.4,2.8,21.4,2.8C21.4,2.8,21.4,2.8,21.4,2.8z"/>
			</g>
			<g>
				<path d="M40.6,2.6c-0.2-0.1,0.4-0.1,0-0.2C40.7,2.5,40.3,2.6,40.6,2.6z"/>
			</g>
			<g>
				<path d="M2.3,2.3C2.3,2.3,2.3,2.3,2.3,2.3C2.3,2.3,2.3,2.3,2.3,2.3z"/>
			</g>
			<g>
				<path d="M40.6,2.5C40.6,2.5,40.6,2.5,40.6,2.5L40.6,2.5C40.6,2.5,40.6,2.5,40.6,2.5z"/>
			</g>
			<g>
				<path d="M26.2,2.7C26.2,2.7,26.2,2.7,26.2,2.7C26.2,2.7,26.2,2.7,26.2,2.7z"/>
			</g>
			<g>
				<path d="M22.7,2.6L22.7,2.6C22.7,2.6,22.7,2.6,22.7,2.6z"/>
			</g>
			<g>
				<path d="M28.1,2.6c0,0,0.1,0,0.1,0c0,0,0,0,0,0C28.2,2.6,28.2,2.6,28.1,2.6z"/>
			</g>
			<g>
				<path d="M30,2.6C30,2.6,30,2.6,30,2.6C30,2.6,30,2.6,30,2.6L30,2.6z"/>
			</g>
			<g>
				<path d="M67.5,1.9C67.6,1.9,67.6,1.9,67.5,1.9C67.6,1.9,67.9,1.9,67.5,1.9z"/>
			</g>
			<g>
				<path d="M2.2,2.3C2.2,2.3,2.3,2.3,2.2,2.3C2.3,2.3,2.2,2.3,2.2,2.3C2.2,2.3,2.2,2.3,2.2,2.3z"/>
			</g>
			<g>
				<path d="M28.2,2l0.3,0C28.4,2,28.3,2,28.2,2z"/>
			</g>
			<g>
				<path d="M53.6,2L53.6,2C53.7,2,53.7,2,53.6,2z"/>
			</g>
			<g>
				<path d="M29.4,2c0.1,0,0.1,0,0.2,0.1c0,0,0,0,0,0L29.4,2z"/>
			</g>
			<g>
				<path d="M67.6,2C67.6,2,67.6,2,67.6,2C67.6,2,67.6,2,67.6,2z"/>
			</g>
			<g>
				<path d="M69.7,1.8c-0.3,0-0.1,0.1-0.2,0.2c-0.3,0-0.2-0.1-0.3-0.1c-0.2,0-0.4,0.1-0.5,0.1c0,0,0,0,0,0c-0.2,0.1-0.7,0-1,0.1
					c0,0,0,0,0,0c0,0,0.1,0.1,0,0.1c-0.1,0-0.2,0.1-0.3,0c0.1,0,0.1,0,0.1,0l-0.1,0C67.2,2,67.6,2,67.6,2c-0.3,0-0.6,0.1-0.8,0.1
					C66.7,2,67.2,2,67,2l0.3,0c-0.2-0.1,0.2,0,0-0.1c-0.4,0-0.5,0-0.9,0c-0.1,0.1,0,0.1-0.1,0.1c-0.6,0.1-0.5-0.2-0.9-0.1
					C65.3,2,65.2,2.1,64.9,2L65,1.9c-0.4,0-0.2,0.1-0.7,0.1c0.1,0,0.3,0,0.3,0C64.4,1.9,64.4,2,64.2,2l0-0.1c-0.4,0-0.9,0.1-1.4,0.1
					c0,0,0.1-0.1,0-0.1c-0.6,0-1.3,0-1.9-0.1L60.7,2c-0.1,0-0.1,0,0,0c-0.2,0,0,0-0.1,0.1c-0.1,0-0.2,0-0.1-0.1
					C60.1,2,59.3,2.1,58.9,2L59,2c-0.3,0-0.4,0.2-0.7,0.1l0.1,0c-0.7,0-1.5,0-2-0.1c-0.1,0.1-0.7,0-0.8,0.1C55.2,2,55.3,2,54.7,1.9
					c-0.2,0-0.2,0.1-0.4,0.1l0-0.1L54,2l-0.1-0.1l-0.2,0c0.1,0,0.2,0,0.1,0.1c-0.3,0-0.7-0.1-0.7-0.1L52.5,2c0,0,0.1,0,0.2-0.1
					c-0.3,0.1-0.1-0.1-0.4,0c0,0,0,0,0,0.1c-0.2,0-0.5,0-0.8,0l0.1-0.1c-0.5,0-1,0-1.6,0c0.2,0,0.2,0.1,0,0.1L49.9,2
					c-0.1,0.1,0.2,0,0,0.1c-0.2,0-0.1-0.1,0-0.1l-0.2,0c0,0,0,0,0.1-0.1c-0.1,0.1-0.4-0.1-0.6,0l0,0c-0.5,0-0.8,0-1.2,0
					c0,0.1-0.2,0.1-0.3,0.1C47.2,2,46.8,2,46.4,2c-0.3,0-0.1,0.1-0.2,0.1C46.2,2,45.8,2,46,2c-0.5,0-0.6,0-1.2,0.1
					c0.1,0,0.1,0,0.1,0.1c-0.1,0-0.2,0-0.2-0.1l0,0c-0.7,0.1-1.5-0.2-2.1,0l0,0l-0.6,0.1c-0.3,0,0.2-0.1,0-0.1
					c-0.6,0.1-0.9,0-1.4,0.1c-0.4-0.2-1.4,0-1.9-0.1l0,0c-0.1,0-0.2,0-0.3,0c0,0,0.1,0,0.1,0.1c-1.1,0.1-2.3-0.1-3.5-0.1
					c-0.4,0-0.2,0.2-0.8,0.1L34.5,2c-0.9,0.1-1.7,0-2.6,0.1c0,0,0.1,0,0.1,0c-0.2-0.1-0.7,0-0.7,0.1c-0.1,0,0,0-0.1-0.1
					c-0.2,0-0.4,0.1-0.5,0c0,0,0,0,0.1,0c-0.1,0-0.5,0-0.4,0.1c-0.3,0-0.6,0-0.8,0C29.4,2.2,29,2,29,2.2c0-0.1-0.5-0.1-0.7,0
					c0.1,0-0.2,0-0.1-0.1c-0.2,0-0.4,0-0.4,0.1c-0.4-0.1-0.8,0.1-1.1-0.1c-0.7,0.1-1.3,0.1-1.9,0.1c0-0.1,0.7,0,0.6-0.1
					c-0.6,0.1-0.9,0.2-1.5,0.1c-0.1,0,0.1-0.1,0.1-0.1c-0.6,0.1-1.1,0-1.6,0.1c0,0,0.1,0,0.1,0c-0.1,0-0.2,0-0.2,0l0.1,0
					c0.2,0.1-0.4,0.2-0.4,0.2c0.2-0.2-0.5,0-0.2-0.2c-0.1,0-0.1,0-0.1,0.1c-0.1,0-0.1,0,0-0.1c-0.4,0-0.2,0.1-0.6,0.1
					c0,0,0.1,0,0.1-0.1c-0.2,0.1-0.3,0.1-0.6,0.1c0,0,0,0,0.1,0c-0.5,0-0.8,0.1-1.3,0.1c0.2-0.1-0.2,0-0.2-0.1l-0.3,0l0.1,0
					c-0.2,0-0.5,0.1-0.7,0l0.2,0l-0.5,0l0.3,0c-0.2,0.1,0,0.1-0.3,0.1c0.1,0-0.2,0-0.4-0.1c0,0,0,0,0,0c-0.1,0-0.2,0.1-0.4,0
					c0,0,0-0.1,0-0.1c-0.1,0.1-0.6,0-0.7,0.1c0.1,0,0.1-0.1,0-0.1l-0.1,0.1c-0.1,0-0.1,0-0.1-0.1c-0.3,0,0.1,0.1-0.3,0.1
					c0,0,0,0,0.1,0c-0.4,0-0.8,0-1.2,0c-0.1-0.1,0.3,0,0.2-0.1c-0.5,0-1.1,0.1-1.6,0.1l0.1,0c-0.1,0.1-0.4-0.1-0.6,0
					C13,2.3,13,2.3,13,2.3c-0.4,0-0.7,0-1.3,0.1l0.1,0c-0.2,0-0.6,0-0.8,0c-0.1,0-0.2,0-0.1,0.1c-0.7-0.2-1.3,0.1-2-0.1
					c0.1,0,0.2,0,0.1,0l-0.5,0c0,0.1,0.1,0,0.2,0.1c-0.1,0-0.2,0.1-0.3,0.1c0.2,0,0-0.1-0.1-0.1c0,0,0,0,0,0.1
					C8,2.3,8.2,2.5,7.8,2.5l0,0c-0.1,0-0.3,0.1-0.4,0.1c-0.1-0.1,0.1,0,0.2-0.1C7.4,2.4,7.2,2.5,7,2.5c0.1,0,0.2,0,0.3,0
					C7.1,2.3,7.1,2.4,6.9,2.3l0,0l-0.4,0l0.1,0c-0.3,0.2-0.5,0-0.9,0.2c0.3-0.1,0.1-0.1,0.1-0.1c-0.1,0-0.2,0-0.2-0.1
					c-0.2,0.1-0.3,0-0.5,0c0,0-0.2,0-0.1-0.1c-0.2,0,0.1,0,0,0.1c-0.3,0.1-0.8-0.1-1.3,0C3.3,2.4,3.2,2.5,2.8,2.5
					c-0.1,0,0.1-0.1,0.1-0.1c-0.2,0-0.4,0-0.6,0c0,0,0,0-0.1-0.1C2.1,2.4,2.2,2.5,2,2.4c0,0,0.1-0.1,0.2-0.1c-0.2,0-0.4,0.1-0.6,0.1
					c-0.1,0,0.1-0.1,0.2-0.1c-0.2,0-0.6,0-0.6,0.1l0.1,0c-0.1,0,0-0.1,0-0.1c0.2-0.1,0.3,0,0.3,0l-0.1,0c0.1,0.1,0.6,0,0.8,0
					L2.1,2.5l0.3-0.1c0.1,0,0.1,0.1,0,0.1c0.2,0.1,0.2,0,0.4,0c0,0,0,0,0,0l0.2,0c0,0,0,0.1-0.1,0.1c0.4,0.1,0.6-0.1,0.7,0l0,0
					c0.5,0,0-0.1,0.4-0.2l0.2,0.2l0-0.1c0.1,0,0.2,0,0.1,0c0.2-0.1,0,0,0.1-0.1c0.2,0.1,0.7,0,0.7,0.1c0.1-0.1-0.2,0,0-0.1
					c0.1,0.1,0.3,0,0.5,0c-0.1,0.1-0.3,0-0.1,0.1c0.1-0.1,0.4,0,0.6,0c0-0.1,0.4,0,0.7-0.1c0,0,0.6,0,0.9,0.1l0,0
					C8,2.6,8.3,2.6,8.5,2.6c0,0.1,0,0.1-0.2,0.1l0.2,0c0,0,0.1,0,0.2-0.1L8.7,2.7c0.3,0,0.6-0.1,0.9,0c0-0.1-0.3-0.2,0.1-0.2
					c0,0,0,0.1-0.1,0.1c0,0,0.1,0,0.2,0L9.7,2.6c0.2,0,0.1-0.1,0.2,0c0,0.1,0.1,0,0.1,0.1c0,0-0.1,0-0.2,0c0.1,0,0.3,0,0.4,0.1
					c0,0,0-0.1,0.1-0.1c0.3,0,0.1,0.1,0.3,0.1c0.1,0,0.2,0,0.2-0.1c0.1,0,0.1,0,0.1,0.1c0.1,0,0.7,0,0.5-0.1l0,0c0,0,0,0,0,0
					c0,0,0,0,0,0h0c0.5-0.1,1,0,1.4,0l0,0c0.3,0,0.6,0,0.8-0.1c0.1,0,0.2,0,0.2,0.1c0.2,0,0.2,0,0.5,0c-0.2,0,0.1,0-0.2,0
					c0.3,0,0.3,0.1,0.6,0c-0.1,0.1,0.2,0.1,0.3,0.1l-0.2,0c0.1,0,0.3,0,0.4,0l-0.1,0.1c0.6,0.1,1-0.2,1.4,0c0.1-0.1-0.3,0-0.2-0.1
					c0.3,0,0.5,0.1,0.6,0.1c0.4,0,0.3-0.1,0.7-0.1c0,0-0.1-0.1,0.2-0.1c0.3,0,0.3,0.1,0.2,0.2c-0.1,0-0.1,0-0.1,0
					c-0.1,0-0.2,0-0.1,0.1l0,0c0.1,0,0.5,0,0.4,0.1c0.2,0,0.1-0.1-0.1-0.1c0.3,0,0.5,0,0.9,0c-0.1,0-0.1-0.1-0.1-0.1
					c0.5,0,0.2-0.1,0.6-0.1c0.2,0-0.1,0.1,0.3,0.1c0.2,0,0,0.1,0,0.1c0.3-0.1,0.6,0,0.8,0l-0.2,0c0.1,0,0.2,0,0.3,0l-0.1-0.1
					c0.1,0,0.2,0,0.2,0c0.1,0-0.1-0.1,0.1-0.2c0.1,0,0.4,0,0.4,0c-0.4,0,0,0.1-0.3,0.1c0.1,0,0.1,0,0.2,0c0,0,0,0,0,0
					c0.4,0.1,0.2-0.1,0.6-0.1c-0.1,0,0.1,0.1,0.2,0.1c-0.2,0-0.1-0.1,0.1-0.1c0.3,0,0.3,0,0.4,0l-0.2,0c0.1,0,0.2,0,0.4-0.1
					c0,0-0.2,0-0.1,0c0.2-0.1,0.5,0.1,0.7,0c0.1,0,0,0.1,0.1,0.1c0.3-0.1,0.3,0.1,0.7,0c-0.1-0.1-0.1,0,0.1-0.1l-0.5,0l0.3-0.1
					c-0.2,0-0.3,0-0.4,0c0.2-0.1,0.1,0,0.1-0.1c0.2,0.1,0.4-0.1,0.7,0l0,0.2c0.4,0.1,0.7-0.1,1.2,0l-0.2,0c0.1-0.1,0.3,0,0.5,0
					c0,0.1,0.1,0.1,0.2,0.1c0,0,0.4,0,0.4-0.1l0.2,0.1c0.4,0,0.5-0.2,0.9-0.1c-0.1,0.1,0.1,0.1-0.2,0.1c0.1,0,0.2,0,0.2,0
					c0.1,0,0.4-0.1,0.5,0c0.1,0,0.1-0.1,0.2-0.1c0,0,0,0,0,0c0,0,0.2,0,0.1-0.1c0.4,0.2,1.1,0,1.5,0.1c0.3,0,0.6,0,0.9,0
					c0,0,0,0,0,0c0.4,0,0.2-0.2,0.6-0.1c0.2,0.1-0.2,0-0.1,0.1c0.1,0.2,0.5,0,0.8,0.1l-0.1,0c0.2,0.1,0.5-0.1,0.8-0.1c0,0,0,0,0,0
					c0.2-0.1,0.7-0.1,1-0.1c-0.1,0.1-0.1,0-0.1,0.1c0.1,0,0-0.1,0.2-0.1c0.1,0,0.3,0.1,0.3,0.1l-0.3,0c0.1,0.1,0.4,0,0.5,0l0,0
					c0.4,0,0.4-0.1,0.9-0.1l0,0c0.2-0.1,0.2,0.1,0.5,0L36,2.6c0.2,0,0.6-0.1,0.9-0.1c-0.2,0.1-0.5,0.1-0.7,0.2c0.2,0,0.6,0,0.6-0.1
					c-0.1,0-0.1,0-0.2,0c0.2-0.1,0.5-0.1,0.8-0.1c-0.1,0.2,0.8,0,1.1,0.2c0.6-0.1,1.1,0,1.8,0c-0.2-0.2,0.2,0,0.2-0.2
					c0.2,0,0.2,0,0.2,0l0.5,0.1c0.1,0-0.1,0-0.1,0.1c0.3,0,0.1,0.1,0.4,0.1c0-0.1,0.1-0.1,0.3-0.1l-0.3-0.1c0.5-0.1,0.4,0.1,0.9,0
					l-0.2,0.1c0.2,0,0.9,0,1.1-0.1c0,0,0.1,0.1,0,0.1c0.6,0,1.3-0.1,1.8-0.1l0,0c0.1,0,0.2-0.1,0.3,0c0,0,0,0,0,0
					c0.1,0,0.3-0.1,0.4,0l-0.1,0c0.6,0,0.9-0.1,1.4-0.1c0,0.1,0.5,0.2,0.7,0.2l0,0c0.7,0,1.1-0.1,1.8-0.1c0.4,0.1,1.3,0,1.9,0.1
					c-0.1,0,0-0.1,0.1-0.1c0.1,0,0.4-0.1,0.4,0l-0.1,0c0.1,0.1,0.4,0.1,0.6,0.1l0-0.1c0.6,0.2,1.6-0.1,1.9,0.1c0.1,0,0.3,0,0.5-0.1
					l0,0.1c0.4,0,0.6,0,1.1,0l-0.1,0.1c0.3,0,0.4-0.2,0.6-0.2l0.1,0.1c0.5,0,1,0.1,1.5,0c0,0,0,0-0.1,0.1c0.2,0,0.9,0.1,0.8-0.1
					c0,0.1,0.5,0,0.8,0l0,0.1c0.2-0.1,0.2-0.1,0.5-0.1c0.1,0,0.1,0.1,0,0c0.2,0,0.2-0.1,0.5,0l-0.1,0c0.3,0,0.2,0,0.4-0.1
					c0.2,0,0.5,0,0.5,0.1c0,0,0.2-0.1,0.3-0.1c0,0,0,0-0.1,0c0.4,0,0.6-0.1,0.9,0c0,0,0,0,0,0c-0.3,0-0.6,0-0.6,0
					c0,0.1,0.3,0.1,0.1,0.2c0.2-0.1,0.6-0.2,0.9-0.1c0,0,0,0,0,0l0,0c0.1,0,0.1,0,0.2,0c0.1,0,0.1,0,0.2,0c0,0.1,0.3,0,0.5,0
					c0-0.1,0.2-0.1,0-0.1c0,0,0,0-0.1,0c0,0,0,0-0.1,0c0,0,0,0,0,0c-0.1,0-0.2,0-0.3,0c0.1,0,0.2-0.1,0.4,0c0.1,0,0.1-0.1,0.2-0.1
					c0.2,0.1,0.5,0.2,0.6,0.2c0.4,0,1,0,1.2-0.2c0.1,0,0.1,0,0.2,0.1c-0.1,0-0.2,0-0.2,0c0.2,0,0.7,0,0.8-0.1c0.3,0-0.2,0.1,0.2,0.1
					l-0.1,0c0.8,0.2,1.3-0.3,2.2-0.1c-0.1,0-0.1,0-0.1,0c1,0.1,2.1-0.1,3.1,0c0.3,0,0.3,0,0.5-0.1l0.1,0.1l0.3-0.1
					c0.4-0.1,0.7,0.2,1.3,0.1l-0.1-0.1c0.2,0,0.6,0,0.6,0c0,0,0.1-0.1,0.1,0l0,0l0.5-0.1c0.4,0-0.1,0.2,0.5,0.2
					c0.2,0,0.6-0.1,0.5-0.2c-0.1,0-0.2,0-0.2-0.1l0.2,0c0-0.1,0.2-0.2-0.3-0.3l-0.3,0.1l-0.1-0.1l0.3,0c-0.1-0.1-0.2,0-0.3,0
					c0,0-0.1-0.1-0.1-0.1L74.8,2c0,0,0.1-0.1-0.1-0.1c-0.1,0.1,0.1,0.1-0.1,0.1c-0.1-0.1-0.1-0.1-0.3-0.1c0,0,0-0.1,0.1-0.1
					c-0.2,0-0.4,0-0.5,0.1c-0.2-0.1-0.5,0-0.5-0.1c0,0-0.3,0.1-0.4,0.1c0.3-0.1-0.5,0-0.5-0.2c-0.2,0.1-0.7,0.1-1,0.1
					c0,0,0.1,0,0.1,0c-0.2,0-0.2,0-0.4-0.1c0,0.1-0.3,0.1-0.5,0.2c-0.2-0.1,0.1-0.1,0.1-0.2c0,0.1-0.4,0.1-0.3,0.2
					c-0.2-0.1-0.2,0-0.2-0.1c0,0.1-0.2,0-0.3,0.1c-0.3-0.1-0.1-0.1-0.4-0.1C69.4,1.8,69.7,1.8,69.7,1.8z M62.8,2
					C62.8,2,62.8,2,62.8,2c0.1,0,0.1,0,0.1,0C62.9,2,62.9,2,62.8,2z M62.2,2c0.1,0,0.2,0,0.2,0c0,0,0,0.1-0.1,0.1
					C62.5,2.1,62.3,2.1,62.2,2z M63.5,2.5c-0.1,0-0.1,0-0.1,0C63.4,2.5,63.4,2.5,63.5,2.5C63.5,2.5,63.5,2.5,63.5,2.5
					C63.5,2.5,63.5,2.5,63.5,2.5z"/>
			</g>
			<g>
				<path d="M63.6,2.4C63.6,2.4,63.6,2.4,63.6,2.4C63.6,2.4,63.6,2.4,63.6,2.4C63.6,2.4,63.6,2.4,63.6,2.4
					C63.6,2.4,63.6,2.4,63.6,2.4z"/>
			</g>
			<g>
				<path d="M11.4,2.6L11.4,2.6C11.4,2.6,11.4,2.6,11.4,2.6C11.4,2.6,11.4,2.6,11.4,2.6z"/>
			</g>
			<g>
				<polygon points="54.3,1.9 54.3,2 54.3,1.9 				"/>
			</g>
			<g>
				<path d="M8.3,2.4C8.3,2.3,8.3,2.3,8.3,2.4C8.2,2.3,8.3,2.3,8.3,2.4z"/>
			</g>
			<g>
				<path d="M6.9,2.3l-0.2,0C6.8,2.3,6.9,2.3,6.9,2.3z"/>
			</g>
			<g>
				<path d="M5.9,2.3C5.8,2.3,5.8,2.3,5.9,2.3C5.8,2.3,5.8,2.3,5.9,2.3L5.9,2.3z"/>
			</g>
			<g>
				<path d="M22.6,2.1C22.6,2.1,22.6,2.1,22.6,2.1C22.7,2.1,22.7,2.1,22.6,2.1z"/>
			</g>
			<g>
				<path d="M17.6,2.3c0.1,0,0.1,0,0.2,0C17.7,2.3,17.6,2.3,17.6,2.3z"/>
			</g>
			<g>
				<path d="M28.2,2C28.2,2,28.2,2,28.2,2C28.2,2,28.2,2,28.2,2L28.2,2z"/>
			</g>
			<g>
				<path d="M18,2.3c-0.1,0-0.2,0-0.2,0C17.8,2.3,17.9,2.3,18,2.3z"/>
			</g>
			<g>
				<path d="M1.3,2.3L1.3,2.3C1.2,2.3,1.2,2.3,1.3,2.3L1.3,2.3z"/>
			</g>
			<g>
				<path d="M1.2,2.3L1.2,2.3C1.2,2.3,1.2,2.3,1.2,2.3z"/>
			</g>
			<g>
				<path d="M1.1,2.3l0.1,0C1.1,2.3,1.1,2.3,1.1,2.3z"/>
			</g>
			<g>
				<path d="M2.7,2.3L2.7,2.3C2.7,2.3,2.7,2.3,2.7,2.3z"/>
			</g>
			<g>
				<path d="M3.1,2.3c-0.1,0-0.3-0.1-0.4,0l0,0C2.8,2.3,3,2.4,3.1,2.3z"/>
			</g>
			<g>
				<path d="M4.9,2.6l-0.4,0c0.1,0,0.1,0.1,0,0.1C5,2.8,4.4,2.6,4.9,2.6z"/>
			</g>
			<g>
				<path d="M6,2.7C5.8,2.7,6,2.7,6,2.7C6.1,2.7,6.1,2.7,6,2.7z"/>
			</g>
			<g>
				<path d="M13.9,2.6L13.9,2.6C14.1,2.7,13.9,2.7,13.9,2.6z"/>
			</g>
			<g>
				<polygon points="15.4,2.3 15.3,2.2 15.2,2.3 				"/>
			</g>
			<g>
				<polygon points="16.3,2.8 16.3,2.8 16.5,2.7 				"/>
			</g>
			<g>
				<path d="M29.7,2.7L29.7,2.7C29.6,2.6,29.5,2.7,29.7,2.7z"/>
			</g>
			<g>
				<path d="M35.5,2.6c0.1,0,0.2,0.1,0.3,0C35.7,2.6,35.5,2.5,35.5,2.6z"/>
			</g>
			<g>
				<polygon points="52.8,2.6 52.6,2.6 52.9,2.6 				"/>
			</g>
		</g>
		<g>
			<g>
				<path d="M0,7.9C0,7.9,0,8,0,7.9l0.2,0L0,7.9z"/>
			</g>
			<g>
				<path d="M0.7,8.1C0.9,8,1,8,0.9,7.9C0.8,8,0.8,7.9,0.6,8C0.5,8,0.4,8,0.5,8c0,0-0.2,0-0.2,0C0.4,8.1,0.6,8.1,0.7,8.1
					C0.8,8,0.8,8.1,0.7,8.1z"/>
			</g>
			<g>
				<path d="M11.5,8.2L11.5,8.2C11.5,8.2,11.5,8.2,11.5,8.2z"/>
			</g>
			<g>
				<path d="M18.2,8.2C18.2,8.2,18.2,8.2,18.2,8.2C18.2,8.2,18.2,8.2,18.2,8.2z"/>
			</g>
			<g>
				<path d="M19.4,8.3C19.3,8.3,19.3,8.3,19.4,8.3C19.3,8.3,19.4,8.3,19.4,8.3z"/>
			</g>
			<g>
				<path d="M11.5,8.2l0.2,0C11.7,8.2,11.6,8.2,11.5,8.2z"/>
			</g>
			<g>
				<path d="M2.2,7.9C2.2,7.9,2.2,7.9,2.2,7.9C2.2,7.9,2.2,7.9,2.2,7.9C2.2,7.9,2.2,7.9,2.2,7.9z"/>
			</g>
			<g>
				<path d="M8.6,8.2L8.6,8.2C8.5,8.3,8.5,8.3,8.6,8.2L8.6,8.2z"/>
			</g>
			<g>
				<path d="M6.3,8.3c0.1,0,0.1-0.1,0.1-0.1C6.4,8.2,6.3,8.2,6.3,8.3C6.3,8.2,6.3,8.2,6.3,8.3z"/>
			</g>
			<g>
				<path d="M2.7,8.2L2.7,8.2C2.7,8.2,2.7,8.2,2.7,8.2z"/>
			</g>
			<g>
				<path d="M10.2,8.3C10.2,8.3,10.2,8.3,10.2,8.3C10.2,8.3,10.2,8.3,10.2,8.3z"/>
			</g>
			<g>
				<path d="M73.5,7.4C73.5,7.4,73.5,7.4,73.5,7.4C73.5,7.4,73.5,7.4,73.5,7.4z"/>
			</g>
			<g>
				<path d="M76.1,7.7L76.1,7.7C76.1,7.7,76.1,7.8,76.1,7.7L76.1,7.7z"/>
			</g>
			<g>
				<path d="M21.5,8.3C21.5,8.3,21.5,8.3,21.5,8.3C21.4,8.4,21.4,8.4,21.5,8.3z"/>
			</g>
			<g>
				<path d="M40.6,8.2c-0.2-0.1,0.4-0.1,0-0.2C40.7,8.1,40.4,8.1,40.6,8.2z"/>
			</g>
			<g>
				<path d="M2.3,7.9C2.3,7.9,2.4,7.9,2.3,7.9C2.3,7.9,2.3,7.9,2.3,7.9z"/>
			</g>
			<g>
				<path d="M40.7,8C40.7,8,40.7,8,40.7,8L40.7,8C40.6,8,40.7,8,40.7,8z"/>
			</g>
			<g>
				<path d="M26.3,8.3C26.3,8.3,26.2,8.3,26.3,8.3C26.2,8.3,26.2,8.3,26.3,8.3z"/>
			</g>
			<g>
				<path d="M22.7,8.2L22.7,8.2C22.7,8.2,22.7,8.2,22.7,8.2z"/>
			</g>
			<g>
				<path d="M28.1,8.2c0,0,0.1,0,0.1,0c0,0,0,0,0,0C28.2,8.2,28.2,8.2,28.1,8.2z"/>
			</g>
			<g>
				<path d="M30.1,8.2C30.1,8.1,30,8.1,30.1,8.2C30,8.1,30,8.1,30.1,8.2L30.1,8.2z"/>
			</g>
			<g>
				<path d="M67.6,7.4C67.6,7.5,67.7,7.5,67.6,7.4C67.7,7.4,67.9,7.4,67.6,7.4z"/>
			</g>
			<g>
				<path d="M2.2,7.9C2.2,7.9,2.3,7.9,2.2,7.9C2.3,7.9,2.2,7.9,2.2,7.9C2.2,7.9,2.2,7.9,2.2,7.9z"/>
			</g>
			<g>
				<path d="M28.2,7.6l0.3,0C28.4,7.6,28.3,7.6,28.2,7.6z"/>
			</g>
			<g>
				<path d="M53.7,7.5L53.7,7.5C53.7,7.5,53.7,7.5,53.7,7.5z"/>
			</g>
			<g>
				<path d="M29.4,7.6c0.1,0,0.1,0,0.2,0.1c0,0,0,0,0,0L29.4,7.6z"/>
			</g>
			<g>
				<path d="M67.7,7.5C67.7,7.5,67.7,7.5,67.7,7.5C67.7,7.5,67.7,7.5,67.7,7.5z"/>
			</g>
			<g>
				<path d="M69.7,7.3c-0.3,0-0.1,0.1-0.2,0.2c-0.4,0-0.2-0.1-0.3-0.1c-0.2,0-0.4,0.1-0.5,0.1c0,0,0,0,0,0c-0.2,0.1-0.7,0-1,0.1
					c0,0,0,0,0,0c0,0,0.1,0.1,0,0.1c-0.1,0-0.2,0.1-0.3,0c0.1,0,0.1,0,0.1,0l-0.1,0c-0.1-0.1,0.2,0,0.2-0.1c-0.3,0-0.6,0.1-0.8,0.1
					c0-0.1,0.5,0,0.2-0.1l0.3,0c-0.2-0.1,0.2,0,0-0.1c-0.4,0-0.5,0-0.9,0c-0.1,0.1,0,0.1-0.1,0.1c-0.6,0.1-0.5-0.2-0.9-0.1
					c-0.1,0.1-0.2,0.2-0.5,0.1l0.1-0.1c-0.4,0-0.2,0.1-0.7,0.1c0.1,0,0.3,0,0.3,0c-0.3-0.1-0.2,0.1-0.4,0.1l0-0.1
					c-0.4,0-0.9,0.1-1.4,0.1c0,0,0.1-0.1,0-0.1c-0.6,0-1.3,0-1.9-0.1l-0.2,0.1c-0.1,0-0.1,0,0,0c-0.2,0,0,0-0.1,0.1
					c-0.1,0-0.2,0-0.1-0.1c-0.4,0.1-1.1,0.1-1.6,0.1l0.1,0c-0.3,0-0.4,0.2-0.7,0.1l0.1,0c-0.7,0-1.5,0-2-0.1c-0.1,0.1-0.7,0-0.8,0.1
					c-0.4-0.1-0.3-0.1-0.9-0.2c-0.2,0-0.2,0.1-0.4,0.1l0-0.1l-0.3,0.1l-0.1-0.1l-0.2,0c0.1,0,0.2,0,0.1,0.1c-0.3,0-0.7-0.1-0.7-0.1
					l-0.7,0.1c0,0,0.1,0,0.2-0.1c-0.3,0.1-0.1-0.1-0.4,0c0,0,0,0,0,0.1c-0.2,0-0.5,0-0.8,0l0.1-0.1c-0.5,0-1,0-1.6,0
					c0.2,0,0.2,0.1,0,0.1L50,7.5c-0.1,0.1,0.2,0,0,0.1c-0.2,0-0.1-0.1,0-0.1l-0.2,0c0,0,0,0,0.1-0.1c-0.1,0.1-0.4-0.1-0.6,0l0,0
					c-0.5,0-0.8,0-1.2,0c0,0.1-0.2,0.1-0.3,0.1c-0.3,0-0.7-0.1-1.1-0.1c-0.3,0-0.1,0.1-0.2,0.1c0-0.1-0.4-0.1-0.2-0.1
					c-0.5,0-0.6,0-1.2,0.1c0.1,0,0.1,0,0.1,0.1c-0.1,0-0.2,0-0.2-0.1l0,0c-0.7,0.1-1.6-0.2-2.1,0l0,0l-0.6,0.1c-0.3,0,0.2-0.1,0-0.1
					c-0.6,0.1-0.9,0-1.4,0.1c-0.4-0.2-1.4,0-1.9-0.1l0,0c-0.1,0-0.2,0-0.3,0c0,0,0.1,0,0.1,0.1c-1.1,0.1-2.3-0.1-3.5-0.1
					c-0.4,0-0.2,0.2-0.8,0.1l0.2-0.1c-0.9,0.1-1.7,0-2.6,0.1c0,0,0.1,0,0.1,0c-0.2-0.1-0.7,0-0.7,0.1c-0.1,0,0,0-0.1-0.1
					c-0.2,0-0.4,0.1-0.5,0c0,0,0,0,0.1,0c-0.1,0-0.5,0-0.4,0.1c-0.3,0-0.6,0-0.8,0c-0.2,0.1-0.5,0-0.6,0.1c0-0.1-0.5-0.1-0.7,0
					c0.1,0-0.2,0-0.1-0.1c-0.2,0-0.4,0-0.4,0.1c-0.4-0.1-0.8,0.1-1.1-0.1c-0.7,0.1-1.3,0.1-1.9,0.1c0-0.1,0.7,0,0.6-0.1
					c-0.6,0.1-0.9,0.2-1.5,0.1c-0.1,0,0.1-0.1,0.1-0.1c-0.6,0.1-1.1,0-1.6,0.1c0,0,0.1,0,0.1,0c-0.1,0-0.2,0-0.2,0l0.1,0
					c0.2,0.1-0.4,0.2-0.4,0.2c0.2-0.2-0.5,0-0.2-0.2c-0.1,0-0.1,0-0.1,0.1c-0.1,0-0.1,0,0-0.1c-0.4,0-0.2,0.1-0.6,0.1
					c0,0,0.1,0,0.1-0.1c-0.2,0.1-0.3,0.1-0.6,0.1c0,0,0,0,0.1,0c-0.5,0-0.8,0.1-1.3,0.1c0.2-0.1-0.2,0-0.2-0.1l-0.3,0l0.1,0
					c-0.2,0-0.5,0.1-0.7,0l0.2,0l-0.5,0l0.3,0C18,7.9,18.3,8,18,8c0.1,0-0.2,0-0.4-0.1c0,0,0,0,0,0c-0.1,0-0.2,0.1-0.4,0
					c0,0,0-0.1,0-0.1c-0.1,0.1-0.6,0-0.7,0.1c0.1,0,0.1-0.1,0-0.1l-0.1,0.1c-0.1,0-0.1,0-0.1-0.1C16,7.8,16.4,8,16,7.9
					c0,0,0,0,0.1,0c-0.4,0-0.8,0-1.2,0c-0.1-0.1,0.3,0,0.2-0.1c-0.5,0-1.1,0.1-1.6,0.1l0.1,0c-0.1,0.1-0.4-0.1-0.7,0
					C13,7.9,13,7.8,13,7.8c-0.4,0-0.7,0-1.3,0.1l0.1,0c-0.2,0-0.6,0-0.8,0c-0.1,0-0.2,0-0.1,0.1c-0.7-0.2-1.3,0.1-2-0.1
					c0.1,0,0.2,0,0.1,0l-0.5,0c0,0.1,0.1,0,0.2,0.1C8.7,8,8.5,8,8.4,8c0.2,0,0-0.1-0.1-0.1c0,0,0,0,0,0.1C8,7.9,8.2,8.1,7.8,8l0,0
					C7.7,8,7.6,8,7.4,8C7.4,8,7.6,8,7.6,7.9C7.4,8,7.2,8.1,7,8c0.1,0,0.2,0,0.3,0C7.1,7.9,7.1,7.9,6.9,7.9l0,0l-0.4,0l0.1,0
					C6.4,8.1,6.1,7.9,5.8,8C6.1,7.9,5.8,8,5.8,7.9c-0.1,0-0.2,0-0.2-0.1c-0.2,0.1-0.3,0-0.5,0c0,0-0.2,0-0.1-0.1c-0.2,0,0.1,0,0,0.1
					C4.7,8,4.2,7.8,3.7,7.9C3.3,8,3.2,8,2.8,8.1C2.7,8.1,2.9,8,2.9,8C2.7,8,2.6,8,2.4,8c0,0,0,0-0.1-0.1C2.1,7.9,2.2,8,2,8
					c0,0,0.1-0.1,0.2-0.1C1.9,7.9,1.8,8,1.6,8c-0.1,0,0.1-0.1,0.2-0.1c-0.2,0-0.6,0-0.6,0.1l0.1,0c-0.1,0,0-0.1,0-0.1
					c0.2-0.1,0.3,0,0.3,0L1.4,8C1.6,8.2,2,8,2.3,8L2.1,8.1L2.4,8c0.1,0,0.1,0.1,0,0.1c0.2,0.1,0.2,0,0.4,0c0,0,0,0,0,0l0.2,0
					c0,0,0,0.1-0.1,0.1c0.4,0.1,0.6-0.1,0.7,0l0,0c0.5,0,0-0.1,0.4-0.2l0.3,0.2l0-0.1c0.1,0,0.2,0,0.1,0c0.2-0.1,0,0,0.1-0.1
					c0.2,0.1,0.7,0,0.7,0.1c0.1-0.1-0.2,0,0-0.1c0.1,0.1,0.3,0,0.5,0c-0.1,0.1-0.3,0-0.1,0.1c0.1-0.1,0.4,0,0.6,0
					c0-0.1,0.4,0,0.7-0.1c0,0,0.6,0,0.9,0.1l0,0C8,8.1,8.3,8.2,8.5,8.1c0,0.1,0,0.1-0.2,0.1l0.2,0c0,0,0.1,0,0.2-0.1L8.7,8.3
					c0.3,0,0.6-0.1,0.9,0C9.7,8.1,9.4,8,9.7,8c0,0,0,0.1-0.1,0.1c0,0,0.1,0,0.2,0L9.7,8.1c0.2,0,0.1-0.1,0.2,0c0,0.1,0.1,0,0.1,0.1
					c0,0-0.1,0-0.2,0c0.1,0,0.3,0,0.4,0.1c0,0,0-0.1,0.1-0.1c0.3,0,0.1,0.1,0.3,0.1c0.1,0,0.2,0,0.2-0.1c0.1,0,0.1,0,0.1,0.1
					c0.1,0,0.7,0,0.5-0.1l0,0c0,0,0,0,0,0c0,0,0,0,0,0l0,0c0.5-0.1,1,0,1.4,0l0,0c0.3,0,0.6,0,0.8-0.1c0.1,0,0.2,0,0.2,0.1
					c0.2,0,0.2,0,0.5,0c-0.2,0,0.1,0-0.2,0c0.3,0,0.3,0.1,0.6,0c-0.1,0.1,0.2,0.1,0.3,0.1l-0.2,0c0.1,0,0.3,0,0.4,0l-0.1,0.1
					c0.6,0.1,1-0.2,1.5,0c0.1-0.1-0.3,0-0.2-0.1c0.3,0,0.5,0.1,0.6,0.1c0.4,0,0.3-0.1,0.7-0.1c0,0-0.1-0.1,0.2-0.1
					c0.3,0,0.3,0.1,0.2,0.2c-0.1,0-0.1,0-0.1,0c-0.1,0-0.2,0-0.1,0.1l0,0c0.1,0,0.5,0,0.4,0.1c0.2,0,0.1-0.1-0.1-0.1
					c0.3,0,0.5,0,0.9,0c-0.1,0-0.1-0.1-0.1-0.1c0.5,0,0.2-0.1,0.6-0.1c0.2,0-0.1,0.1,0.3,0.1c0.2,0,0,0.1,0,0.1c0.3-0.1,0.6,0,0.8,0
					l-0.2,0c0.1,0,0.2,0,0.3,0l-0.1-0.1c0.1,0,0.2,0,0.2,0c0.1,0-0.1-0.1,0.1-0.2c0.1,0,0.4,0,0.4,0c-0.4,0,0,0.1-0.3,0.1
					c0.1,0,0.1,0,0.2,0c0,0,0,0,0,0c0.4,0.1,0.2-0.1,0.6-0.1c-0.1,0,0.1,0.1,0.2,0.1c-0.2,0-0.1-0.1,0.1-0.1c0.3,0,0.3,0,0.4,0
					l-0.2,0c0.1,0,0.2,0,0.4-0.1c0,0-0.2,0-0.1,0c0.2-0.1,0.5,0.1,0.7,0c0.1,0,0,0.1,0.1,0.1c0.3-0.1,0.3,0.1,0.7,0
					c-0.1-0.1-0.1,0,0.1-0.1l-0.5,0l0.3-0.1c-0.2,0-0.3,0-0.4,0c0.2-0.1,0.1,0,0.1-0.1c0.2,0.1,0.4-0.1,0.7,0l0,0.2
					c0.4,0.1,0.7-0.1,1.2,0l-0.2,0c0.1-0.1,0.3,0,0.5,0c0,0.1,0.1,0.1,0.2,0.1c0,0,0.4,0,0.4-0.1l0.2,0.1c0.4,0,0.5-0.2,0.9-0.1
					c-0.1,0.1,0.1,0.1-0.2,0.1c0.1,0,0.2,0,0.2,0c0.1,0,0.4-0.1,0.5,0c0.1,0,0.1-0.1,0.2-0.1c0,0,0,0,0,0c0,0,0.2,0,0.1-0.1
					C29,8.2,29.7,8,30,8.1c0.3,0,0.6,0,0.9,0c0,0,0,0,0,0c0.4,0,0.2-0.2,0.6-0.1c0.2,0.1-0.2,0-0.1,0.1c0.1,0.2,0.5,0,0.8,0.1
					l-0.1,0c0.2,0.1,0.5-0.1,0.8-0.1c0,0,0,0,0,0C33.2,8.1,33.6,8,34,8c-0.1,0.1-0.1,0-0.1,0.1c0.1,0,0-0.1,0.2-0.1
					c0.1,0,0.3,0.1,0.3,0.1l-0.3,0c0.1,0.1,0.4,0,0.5,0l0,0c0.4,0,0.4-0.1,0.9-0.1l0,0c0.2-0.1,0.2,0.1,0.5,0L36,8.1
					c0.2,0,0.6-0.1,0.9-0.1c-0.2,0.1-0.5,0.1-0.7,0.2c0.2,0,0.6,0,0.6-0.1c-0.1,0-0.1,0-0.2,0C36.8,8,37.1,8,37.4,8
					c-0.1,0.2,0.8,0,1.1,0.2c0.6-0.1,1.1,0,1.8,0C40,8,40.5,8.2,40.4,8c0.2,0,0.2,0,0.2,0l0.5,0.1c0.1,0-0.1,0-0.1,0.1
					c0.3,0,0.1,0.1,0.4,0.1c0-0.1,0.1-0.1,0.3-0.1l-0.3-0.1c0.5-0.1,0.4,0.1,0.9,0l-0.2,0.1c0.2,0,0.9,0,1.2-0.1c0,0,0.1,0.1,0,0.1
					c0.6,0,1.3-0.1,1.8-0.1l0,0c0.1,0,0.2-0.1,0.3,0c0,0,0,0,0,0c0.1,0,0.3-0.1,0.4,0l-0.1,0c0.6,0,0.9-0.1,1.4-0.1
					c0,0.1,0.5,0.2,0.7,0.2l0,0c0.7,0,1.1-0.1,1.8-0.2c0.4,0.1,1.3,0,1.9,0.1c-0.1,0,0-0.1,0.1-0.1c0.1,0,0.4-0.1,0.4,0l-0.1,0
					c0.1,0.1,0.4,0.1,0.6,0.1l0-0.1c0.6,0.2,1.6-0.1,1.9,0.1c0.1,0,0.3,0,0.5-0.1l0,0.1c0.4,0,0.6,0,1.1,0l-0.1,0.1
					c0.3,0,0.4-0.2,0.6-0.2l0.1,0.1c0.5,0,1,0.1,1.5,0c0,0,0,0-0.1,0.1c0.2,0,0.9,0.1,0.8-0.1c0,0.1,0.5,0,0.8,0l0,0.1
					C59.8,8,59.8,8,60.1,7.9c0.1,0,0.1,0.1,0,0c0.2,0,0.2-0.1,0.5,0l-0.1,0c0.3,0,0.2,0,0.4-0.1c0.2,0,0.5,0,0.5,0.1
					c0,0,0.2-0.1,0.3-0.1c0,0,0,0-0.1,0c0.4,0,0.6-0.1,0.9,0c0,0,0,0,0,0C62.3,8,62,8,62,8c0,0.1,0.3,0.1,0.1,0.2
					C62.3,8.1,62.7,8,62.9,8c0,0,0,0,0,0l0,0c0.1,0,0.1,0,0.2,0c0.1,0,0.1,0,0.2,0c0,0.1,0.3,0,0.5,0C63.8,8,64,8,63.8,8
					c0,0,0,0-0.1,0c0,0,0,0-0.1,0c0,0,0,0,0,0c-0.1,0-0.2,0-0.3,0c0.1,0,0.2-0.1,0.4,0c0.1,0,0.1-0.1,0.2-0.1
					C64,7.9,64.4,8,64.4,8.1c0.4,0,1,0,1.2-0.2c0.1,0,0.1,0,0.2,0.1c-0.1,0-0.2,0-0.2,0c0.2,0,0.7,0,0.8-0.1c0.3,0-0.2,0.1,0.2,0.1
					l-0.1,0c0.8,0.2,1.3-0.3,2.2-0.1c-0.1,0-0.1,0-0.1,0c1,0.1,2.1-0.1,3.1,0c0.3,0,0.3,0,0.5-0.1l0.1,0.1l0.3-0.1
					C73.1,7.8,73.5,8,74,7.9l-0.1-0.1c0.2,0,0.6,0,0.6,0c0,0,0.1-0.1,0.1,0l0,0l0.5-0.1c0.4,0-0.1,0.2,0.5,0.2
					c0.2,0,0.6-0.1,0.5-0.2c-0.1,0-0.2,0-0.2-0.1l0.2,0c0-0.1,0.2-0.2-0.3-0.3l-0.3,0.1l-0.1-0.1l0.3,0c-0.1-0.1-0.2,0-0.3,0
					c0,0-0.1-0.1-0.1-0.1l-0.3,0.1c0,0,0.1-0.1-0.1-0.1c-0.1,0.1,0.1,0.1-0.1,0.1c-0.1-0.1-0.1-0.1-0.3-0.1c0,0,0-0.1,0.1-0.1
					c-0.2,0-0.4,0-0.5,0.1c-0.2-0.1-0.5,0-0.5-0.1c0,0-0.3,0.1-0.4,0.1c0.3-0.1-0.5,0-0.5-0.2c-0.2,0.1-0.7,0.1-1,0.1
					c0,0,0.1,0,0.1,0c-0.2,0-0.2,0-0.4-0.1c0,0.1-0.3,0.1-0.5,0.2c-0.2-0.1,0.1-0.1,0.1-0.2c0,0.1-0.4,0.1-0.3,0.2
					c-0.2-0.1-0.2,0-0.3-0.1c0,0.1-0.2,0-0.3,0.1c-0.3-0.1-0.1-0.1-0.4-0.1C69.5,7.4,69.7,7.3,69.7,7.3z M62.9,7.6
					C62.9,7.6,62.9,7.6,62.9,7.6c0.1,0,0.1,0,0.1,0C63,7.6,62.9,7.6,62.9,7.6z M62.3,7.6c0.1,0,0.2,0,0.2,0c0,0,0,0.1-0.1,0.1
					C62.5,7.6,62.4,7.6,62.3,7.6z M63.5,8.1c-0.1,0-0.1,0-0.1,0C63.4,8.1,63.5,8.1,63.5,8.1C63.5,8.1,63.5,8,63.5,8.1
					C63.5,8.1,63.5,8.1,63.5,8.1z"/>
			</g>
			<g>
				<path d="M63.7,8C63.7,8,63.7,8,63.7,8C63.7,8,63.7,8,63.7,8C63.6,8,63.6,8,63.7,8C63.6,8,63.7,8,63.7,8z"/>
			</g>
			<g>
				<path d="M11.5,8.1L11.5,8.1C11.5,8.1,11.4,8.1,11.5,8.1C11.4,8.1,11.4,8.1,11.5,8.1z"/>
			</g>
			<g>
				<polygon points="54.3,7.5 54.3,7.5 54.4,7.5 				"/>
			</g>
			<g>
				<path d="M8.3,7.9C8.3,7.9,8.3,7.9,8.3,7.9C8.2,7.9,8.3,7.9,8.3,7.9z"/>
			</g>
			<g>
				<path d="M6.9,7.9l-0.2,0C6.8,7.9,6.9,7.9,6.9,7.9z"/>
			</g>
			<g>
				<path d="M5.9,7.9C5.8,7.9,5.8,7.9,5.9,7.9C5.8,7.9,5.8,7.9,5.9,7.9L5.9,7.9z"/>
			</g>
			<g>
				<path d="M22.6,7.7C22.6,7.7,22.6,7.7,22.6,7.7C22.7,7.7,22.7,7.7,22.6,7.7z"/>
			</g>
			<g>
				<path d="M17.6,7.9c0.1,0,0.1,0,0.2,0C17.7,7.9,17.6,7.9,17.6,7.9z"/>
			</g>
			<g>
				<path d="M28.2,7.6C28.2,7.6,28.2,7.6,28.2,7.6C28.2,7.6,28.2,7.6,28.2,7.6L28.2,7.6z"/>
			</g>
			<g>
				<path d="M18,7.9c-0.1,0-0.2,0-0.2,0C17.9,7.9,17.9,7.9,18,7.9z"/>
			</g>
			<g>
				<path d="M1.3,7.9L1.3,7.9C1.2,7.9,1.2,7.9,1.3,7.9L1.3,7.9z"/>
			</g>
			<g>
				<path d="M1.2,7.9L1.2,7.9C1.2,7.9,1.2,7.9,1.2,7.9z"/>
			</g>
			<g>
				<path d="M1.1,7.9l0.1,0C1.1,7.9,1.1,7.9,1.1,7.9z"/>
			</g>
			<g>
				<path d="M2.7,7.9L2.7,7.9C2.7,7.9,2.7,7.9,2.7,7.9z"/>
			</g>
			<g>
				<path d="M3.1,7.9c-0.1,0-0.3-0.1-0.4,0l0,0C2.8,7.8,3,7.9,3.1,7.9z"/>
			</g>
			<g>
				<path d="M4.9,8.2l-0.4,0c0.1,0,0.1,0.1,0,0.1C5,8.3,4.4,8.2,4.9,8.2z"/>
			</g>
			<g>
				<path d="M6,8.2C5.8,8.2,6,8.3,6,8.2C6.1,8.3,6.1,8.3,6,8.2z"/>
			</g>
			<g>
				<path d="M13.9,8.2L13.9,8.2C14.1,8.2,13.9,8.2,13.9,8.2z"/>
			</g>
			<g>
				<polygon points="15.5,7.8 15.3,7.8 15.2,7.9 				"/>
			</g>
			<g>
				<polygon points="16.4,8.3 16.3,8.3 16.5,8.3 				"/>
			</g>
			<g>
				<path d="M29.7,8.2L29.7,8.2C29.6,8.2,29.6,8.2,29.7,8.2z"/>
			</g>
			<g>
				<path d="M35.5,8.1c0.1,0,0.2,0.1,0.3,0C35.7,8.1,35.6,8.1,35.5,8.1z"/>
			</g>
			<g>
				<polygon points="52.8,8.1 52.7,8.2 52.9,8.2 				"/>
			</g>
		</g>
		<g>
			<g>
				<path d="M0,5.2C0,5.3,0,5.3,0,5.2l0.2,0L0,5.2z"/>
			</g>
			<g>
				<path d="M0.7,5.4c0.1,0,0.3-0.1,0.2-0.2c-0.1,0.1-0.2,0-0.3,0.1c-0.1,0-0.2,0-0.2-0.1c0,0-0.2,0-0.2,0C0.4,5.4,0.6,5.4,0.7,5.4
					C0.8,5.4,0.8,5.4,0.7,5.4z"/>
			</g>
			<g>
				<path d="M11.5,5.5L11.5,5.5C11.5,5.5,11.5,5.5,11.5,5.5z"/>
			</g>
			<g>
				<path d="M18.2,5.5C18.1,5.5,18.1,5.5,18.2,5.5C18.2,5.5,18.2,5.5,18.2,5.5z"/>
			</g>
			<g>
				<path d="M19.3,5.6C19.3,5.6,19.3,5.6,19.3,5.6C19.3,5.6,19.3,5.6,19.3,5.6z"/>
			</g>
			<g>
				<path d="M11.5,5.5l0.2,0C11.7,5.5,11.6,5.5,11.5,5.5z"/>
			</g>
			<g>
				<path d="M2.2,5.2C2.2,5.2,2.2,5.2,2.2,5.2C2.2,5.2,2.2,5.2,2.2,5.2C2.2,5.2,2.2,5.2,2.2,5.2z"/>
			</g>
			<g>
				<path d="M8.6,5.6L8.6,5.6C8.5,5.6,8.5,5.6,8.6,5.6L8.6,5.6z"/>
			</g>
			<g>
				<path d="M6.3,5.6c0.1,0,0.1-0.1,0.1-0.1C6.4,5.5,6.3,5.5,6.3,5.6C6.3,5.6,6.3,5.6,6.3,5.6z"/>
			</g>
			<g>
				<path d="M2.7,5.5L2.7,5.5C2.7,5.5,2.7,5.5,2.7,5.5z"/>
			</g>
			<g>
				<path d="M10.2,5.6C10.2,5.6,10.2,5.6,10.2,5.6C10.2,5.6,10.2,5.6,10.2,5.6z"/>
			</g>
			<g>
				<path d="M73.3,4.7C73.3,4.7,73.3,4.7,73.3,4.7C73.3,4.7,73.4,4.7,73.3,4.7z"/>
			</g>
			<g>
				<path d="M76,5L76,5C75.9,5.1,75.9,5.1,76,5L76,5z"/>
			</g>
			<g>
				<path d="M21.4,5.7C21.4,5.7,21.4,5.7,21.4,5.7C21.3,5.7,21.4,5.7,21.4,5.7z"/>
			</g>
			<g>
				<path d="M40.6,5.5c-0.2-0.1,0.4-0.1,0-0.2C40.6,5.4,40.3,5.5,40.6,5.5z"/>
			</g>
			<g>
				<path d="M2.3,5.2C2.3,5.2,2.3,5.2,2.3,5.2C2.3,5.2,2.3,5.2,2.3,5.2z"/>
			</g>
			<g>
				<path d="M40.6,5.4C40.6,5.4,40.6,5.4,40.6,5.4L40.6,5.4C40.6,5.4,40.6,5.4,40.6,5.4z"/>
			</g>
			<g>
				<path d="M26.2,5.6C26.2,5.6,26.2,5.6,26.2,5.6C26.2,5.6,26.2,5.6,26.2,5.6z"/>
			</g>
			<g>
				<path d="M22.6,5.5L22.6,5.5C22.7,5.5,22.7,5.5,22.6,5.5z"/>
			</g>
			<g>
				<path d="M28.1,5.5c0,0,0.1,0,0.1,0c0,0,0,0,0,0C28.2,5.5,28.1,5.5,28.1,5.5z"/>
			</g>
			<g>
				<path d="M30,5.5C30,5.5,30,5.5,30,5.5C30,5.5,29.9,5.5,30,5.5L30,5.5z"/>
			</g>
			<g>
				<path d="M67.5,4.8C67.5,4.8,67.5,4.8,67.5,4.8C67.5,4.8,67.8,4.8,67.5,4.8z"/>
			</g>
			<g>
				<path d="M2.2,5.2C2.2,5.2,2.3,5.2,2.2,5.2C2.3,5.2,2.2,5.2,2.2,5.2C2.2,5.2,2.2,5.2,2.2,5.2z"/>
			</g>
			<g>
				<path d="M28.2,4.9l0.3,0C28.4,4.9,28.3,4.9,28.2,4.9z"/>
			</g>
			<g>
				<path d="M53.6,4.8L53.6,4.8C53.6,4.8,53.6,4.8,53.6,4.8z"/>
			</g>
			<g>
				<path d="M29.4,4.9c0.1,0,0.1,0,0.2,0.1c0,0,0,0,0,0L29.4,4.9z"/>
			</g>
			<g>
				<path d="M67.5,4.8C67.5,4.8,67.5,4.8,67.5,4.8C67.5,4.8,67.5,4.8,67.5,4.8z"/>
			</g>
			<g>
				<path d="M69.6,4.6c-0.3,0-0.1,0.1-0.2,0.2c-0.3,0-0.2-0.1-0.3-0.1c-0.2,0-0.4,0.1-0.5,0.1c0,0,0,0,0,0c-0.2,0.1-0.7,0-1,0.1
					c0,0,0,0,0,0c0,0,0.1,0.1,0,0.1c-0.1,0-0.2,0.1-0.3,0c0.1,0,0.1,0,0.1,0l-0.1,0c-0.1-0.1,0.2,0,0.2-0.1c-0.3,0-0.6,0.1-0.8,0.1
					c0-0.1,0.5,0,0.2-0.1l0.3,0c-0.2-0.1,0.2,0,0-0.1c-0.4,0-0.5,0-0.9,0c-0.1,0.1,0,0.1-0.1,0.1c-0.6,0.1-0.5-0.2-0.9-0.1
					c-0.1,0.1-0.2,0.2-0.5,0.1L65,4.8c-0.4,0-0.2,0.1-0.7,0.1c0.1,0,0.3,0,0.3,0c-0.3-0.1-0.2,0.1-0.4,0.1l0-0.1
					c-0.4,0-0.9,0.1-1.4,0.1c0,0,0.1-0.1,0-0.1c-0.6,0-1.3,0-1.9-0.1l-0.2,0.1c-0.1,0-0.1,0,0,0c-0.2,0,0,0-0.1,0.1
					c-0.1,0-0.2,0-0.1-0.1c-0.4,0.1-1.1,0.1-1.6,0.1l0.1,0c-0.3,0-0.4,0.2-0.7,0.1l0.1,0c-0.7,0-1.5,0-2-0.1c-0.1,0.1-0.7,0-0.7,0.1
					c-0.4-0.1-0.3-0.1-0.9-0.2c-0.2,0-0.2,0.1-0.4,0.1l0-0.1L54,4.9l-0.1-0.1l-0.2,0c0.1,0,0.2,0,0.1,0.1c-0.3,0-0.7-0.1-0.7-0.1
					l-0.7,0.1c0,0,0.1,0,0.2-0.1c-0.3,0.1-0.1-0.1-0.4,0c0,0,0,0,0,0.1c-0.2,0-0.5,0-0.8,0l0.1-0.1c-0.5,0-1,0-1.6,0
					c0.2,0,0.2,0.1,0,0.1l-0.1-0.1c-0.1,0.1,0.2,0,0,0.1c-0.2,0-0.1-0.1,0-0.1l-0.2,0c0,0,0,0,0.1-0.1c-0.1,0.1-0.4-0.1-0.6,0l0,0
					c-0.5,0-0.8,0-1.2,0c0,0.1-0.2,0.1-0.3,0.1c-0.3,0-0.7-0.1-1.1-0.1c-0.3,0-0.1,0.1-0.2,0.1c0-0.1-0.4-0.1-0.2-0.1
					c-0.5,0-0.6,0-1.2,0.1c0.1,0,0.1,0,0.1,0.1c-0.1,0-0.2,0-0.2-0.1l0,0c-0.7,0.1-1.5-0.2-2.1,0l0,0L42.1,5c-0.3,0,0.2-0.1,0-0.1
					c-0.6,0.1-0.9,0-1.4,0.1c-0.4-0.2-1.3,0-1.9-0.1l0,0c-0.1,0-0.2,0-0.3,0c0,0,0.1,0,0.1,0.1c-1.1,0.1-2.3-0.1-3.5-0.1
					c-0.4,0-0.2,0.2-0.8,0.1l0.2-0.1c-0.9,0.1-1.7,0-2.6,0.1c0,0,0.1,0,0.1,0c-0.2-0.1-0.7,0-0.7,0.1c-0.1,0,0,0-0.1-0.1
					c-0.2,0-0.4,0.1-0.5,0c0,0,0,0,0.1,0c-0.1,0-0.5,0-0.4,0.1c-0.3,0-0.6,0-0.8,0C29.4,5,29,4.9,29,5c0-0.1-0.5-0.1-0.7,0
					c0.1,0-0.2,0-0.1-0.1c-0.2,0-0.4,0-0.4,0.1c-0.4-0.1-0.8,0.1-1.1-0.1C26,5,25.4,5,24.8,5.1c0-0.1,0.7,0,0.6-0.1
					c-0.6,0.1-0.9,0.2-1.5,0.1C23.8,5,24,5,24.1,5C23.5,5,23,5,22.5,5.1c0,0,0.1,0,0.1,0c-0.1,0-0.2,0-0.2,0l0.1,0
					C22.6,5.1,22,5.2,22,5.2c0.2-0.2-0.5,0-0.2-0.2c-0.1,0-0.1,0-0.1,0.1c-0.1,0-0.1,0,0-0.1c-0.4,0-0.2,0.1-0.6,0.1
					c0,0,0.1,0,0.1-0.1c-0.2,0.1-0.3,0.1-0.6,0.1c0,0,0,0,0.1,0c-0.5,0-0.8,0.1-1.3,0.1c0.2-0.1-0.2,0-0.2-0.1l-0.3,0l0.1,0
					c-0.2,0-0.5,0.1-0.7,0l0.2,0l-0.5,0l0.3,0c-0.2,0.1,0,0.1-0.3,0.1c0.1,0-0.2,0-0.4-0.1c0,0,0,0,0,0c-0.1,0-0.2,0.1-0.4,0
					c0,0,0-0.1,0-0.1c-0.1,0.1-0.6,0-0.7,0.1c0.1,0,0.1-0.1,0-0.1l-0.1,0.1c-0.1,0-0.1,0-0.1-0.1c-0.3,0,0.1,0.1-0.3,0.1
					c0,0,0,0,0.1,0c-0.4,0-0.8,0-1.2,0c-0.1-0.1,0.3,0,0.2-0.1c-0.5,0-1.1,0.1-1.6,0.1l0.1,0c-0.1,0.1-0.4-0.1-0.6,0
					C13,5.2,13,5.1,13,5.2c-0.4,0-0.7,0-1.3,0.1l0.1,0c-0.2,0-0.6,0-0.8,0c-0.1,0-0.2,0-0.1,0.1c-0.7-0.2-1.3,0.1-2-0.1
					c0.1,0,0.2,0,0.1,0l-0.5,0c0,0.1,0.1,0,0.2,0.1c-0.1,0-0.2,0.1-0.3,0.1c0.2,0,0-0.1-0.1-0.1c0,0,0,0,0,0.1
					C8,5.2,8.2,5.4,7.8,5.3l0,0c-0.1,0-0.3,0.1-0.4,0.1c-0.1-0.1,0.1,0,0.2-0.1C7.4,5.3,7.2,5.4,7,5.3c0.1,0,0.2,0,0.3,0
					C7.1,5.2,7.1,5.2,6.9,5.2l0,0l-0.4,0l0.1,0c-0.3,0.2-0.5,0-0.9,0.2c0.3-0.1,0.1-0.1,0.1-0.1c-0.1,0-0.2,0-0.2-0.1
					c-0.2,0.1-0.3,0-0.5,0c0,0-0.2,0-0.1-0.1c-0.2,0,0.1,0,0,0.1c-0.3,0.1-0.8-0.1-1.3,0C3.3,5.3,3.2,5.4,2.8,5.4
					c-0.1,0,0.1-0.1,0.1-0.1c-0.2,0-0.4,0-0.6,0c0,0,0,0-0.1-0.1C2.1,5.3,2.2,5.3,2,5.3c0,0,0.1-0.1,0.2-0.1c-0.2,0-0.4,0.1-0.6,0.1
					c-0.1,0,0.1-0.1,0.2-0.1c-0.2,0-0.6,0-0.6,0.1l0.1,0c-0.1,0,0-0.1,0-0.1c0.2-0.1,0.3,0,0.3,0l-0.1,0c0.1,0.1,0.6,0,0.8,0
					L2.1,5.4l0.3-0.1c0.1,0,0.1,0.1,0,0.1c0.2,0.1,0.2,0,0.4,0c0,0,0,0,0,0l0.2,0c0,0,0,0.1-0.1,0.1c0.4,0.1,0.6-0.1,0.7,0l0,0
					c0.5,0,0-0.1,0.4-0.2l0.2,0.2l0-0.1c0.1,0,0.2,0,0.1,0c0.2-0.1,0,0,0.1-0.1c0.2,0.1,0.7,0,0.7,0.1c0.1-0.1-0.2,0,0-0.1
					c0.1,0.1,0.3,0,0.5,0c-0.1,0.1-0.3,0-0.1,0.1c0.1-0.1,0.4,0,0.6,0c0-0.1,0.4,0,0.7-0.1c0,0,0.6,0,0.9,0.1l0,0
					C8,5.5,8.3,5.5,8.5,5.5c0,0.1,0,0.1-0.2,0.1l0.2,0c0,0,0.1,0,0.2-0.1L8.7,5.6c0.3,0,0.6-0.1,0.9,0c0-0.1-0.3-0.2,0.1-0.2
					c0,0,0,0.1-0.1,0.1c0,0,0.1,0,0.2,0L9.7,5.5c0.2,0,0.1-0.1,0.2,0c0,0.1,0.1,0,0.1,0.1c0,0-0.1,0-0.2,0c0.1,0,0.3,0,0.4,0.1
					c0,0,0-0.1,0.1-0.1c0.3,0,0.1,0.1,0.3,0.1c0.1,0,0.2,0,0.2-0.1c0.1,0,0.1,0,0.1,0.1c0.1,0,0.7,0,0.5-0.1l0,0c0,0,0,0,0,0
					c0,0,0,0,0,0h0c0.5-0.1,1,0,1.4,0l0,0c0.3,0,0.6,0,0.8-0.1c0.1,0,0.2,0,0.2,0.1c0.2,0,0.2,0,0.5,0c-0.2,0,0.1,0-0.2,0
					c0.3,0,0.3,0.1,0.6,0c-0.1,0.1,0.2,0.1,0.3,0.1l-0.2,0c0.1,0,0.3,0,0.4,0l-0.1,0.1c0.6,0.1,1-0.2,1.4,0c0.1-0.1-0.3,0-0.2-0.1
					c0.3,0,0.5,0.1,0.6,0.1c0.4,0,0.3-0.1,0.7-0.1c0,0-0.1-0.1,0.2-0.1c0.3,0,0.3,0.1,0.2,0.2c-0.1,0-0.1,0-0.1,0
					c-0.1,0-0.2,0-0.1,0.1l0,0c0.1,0,0.5,0,0.4,0.1c0.2,0,0.1-0.1-0.1-0.1c0.3,0,0.5,0,0.9,0c-0.1,0-0.1-0.1-0.1-0.1
					c0.5,0,0.2-0.1,0.6-0.1c0.2,0-0.1,0.1,0.3,0.1c0.2,0,0,0.1,0,0.1c0.3-0.1,0.6,0,0.8,0l-0.2,0c0.1,0,0.2,0,0.3,0l-0.1-0.1
					c0.1,0,0.2,0,0.2,0c0.1,0-0.1-0.1,0.1-0.2c0.1,0,0.4,0,0.4,0c-0.4,0,0,0.1-0.3,0.1c0.1,0,0.1,0,0.2,0c0,0,0,0,0,0
					c0.4,0.1,0.2-0.1,0.6-0.1c-0.1,0,0.1,0.1,0.2,0.1c-0.2,0-0.1-0.1,0.1-0.1c0.3,0,0.3,0,0.4,0l-0.2,0c0.1,0,0.2,0,0.4-0.1
					c0,0-0.2,0-0.1,0c0.2-0.1,0.5,0.1,0.7,0c0.1,0,0,0.1,0.1,0.1c0.3-0.1,0.3,0.1,0.7,0c-0.1-0.1-0.1,0,0.1-0.1l-0.5,0l0.3-0.1
					c-0.2,0-0.3,0-0.4,0c0.2-0.1,0.1,0,0.1-0.1c0.2,0.1,0.4-0.1,0.7,0l0,0.2c0.4,0.1,0.7-0.1,1.2,0l-0.2,0c0.1-0.1,0.3,0,0.5,0
					c0,0.1,0.1,0.1,0.2,0.1c0,0,0.4,0,0.4-0.1l0.2,0.1c0.4,0,0.5-0.2,0.9-0.1c-0.1,0.1,0.1,0.1-0.2,0.1c0.1,0,0.2,0,0.2,0
					c0.1,0,0.4-0.1,0.5,0c0.1,0,0.1-0.1,0.2-0.1c0,0,0,0,0,0c0,0,0.2,0,0.1-0.1c0.4,0.2,1.1,0,1.5,0.1c0.3,0,0.6,0,0.9,0
					c0,0,0,0,0,0c0.4,0,0.2-0.2,0.6-0.1c0.2,0.1-0.2,0-0.1,0.1c0.1,0.2,0.5,0,0.8,0.1l-0.1,0c0.2,0.1,0.5-0.1,0.8-0.1c0,0,0,0,0,0
					c0.2-0.1,0.7-0.1,1-0.1c-0.1,0.1-0.1,0-0.1,0.1c0.1,0,0-0.1,0.2-0.1c0.1,0,0.3,0.1,0.3,0.1l-0.3,0c0.1,0.1,0.4,0,0.5,0l0,0
					c0.4,0,0.4-0.1,0.9-0.1l0,0c0.2-0.1,0.2,0.1,0.5,0L36,5.4c0.2,0,0.6-0.1,0.9-0.1c-0.2,0.1-0.5,0.1-0.7,0.2c0.2,0,0.6,0,0.6-0.1
					c-0.1,0-0.1,0-0.2,0c0.2-0.1,0.5-0.1,0.8-0.1c-0.1,0.2,0.8,0,1.1,0.2c0.6-0.1,1.1,0,1.8,0c-0.2-0.2,0.2,0,0.2-0.2
					c0.2,0,0.2,0,0.2,0l0.5,0.1c0.1,0-0.1,0-0.1,0.1c0.3,0,0.1,0.1,0.4,0.1c0-0.1,0.1-0.1,0.3-0.1l-0.3-0.1c0.5-0.1,0.4,0.1,0.9,0
					l-0.2,0.1c0.2,0,0.9,0,1.1-0.1c0,0,0.1,0.1,0,0.1c0.6,0,1.3-0.1,1.8-0.1l0,0c0.1,0,0.2-0.1,0.3,0c0,0,0,0,0,0
					c0.1,0,0.3-0.1,0.4,0l-0.1,0c0.6,0,0.9-0.1,1.4-0.1c0,0.1,0.5,0.2,0.7,0.2l0,0c0.7,0,1.1-0.1,1.8-0.2c0.4,0.1,1.3,0,1.9,0.1
					c-0.1,0,0-0.1,0.1-0.1c0.1,0,0.4-0.1,0.4,0l-0.1,0c0.1,0.1,0.4,0.1,0.6,0.1l0-0.1C53,5.6,54,5.3,54.3,5.5c0.1,0,0.3,0,0.5-0.1
					l0,0.1c0.4,0,0.6,0,1.1,0l-0.1,0.1c0.3,0,0.4-0.2,0.6-0.2l0.1,0.1c0.5,0,1,0.1,1.5,0c0,0,0,0-0.1,0.1c0.2,0,0.9,0.1,0.8-0.1
					c0,0.1,0.5,0,0.8,0l0,0.1c0.2-0.1,0.2-0.1,0.5-0.1c0.1,0,0.1,0.1,0,0c0.2,0,0.2-0.1,0.5,0l-0.1,0c0.3,0,0.2,0,0.4-0.1
					c0.2,0,0.5,0,0.5,0.1c0,0,0.2-0.1,0.3-0.1c0,0,0,0-0.1,0c0.4,0,0.6-0.1,0.9,0c0,0,0,0,0,0c-0.3,0-0.6,0-0.6,0
					c0,0.1,0.3,0.1,0.1,0.2c0.2-0.1,0.6-0.2,0.9-0.1c0,0,0,0,0,0l0,0c0.1,0,0.1,0,0.2,0c0.1,0,0.1,0,0.2,0c0,0.1,0.3,0,0.5,0
					c0-0.1,0.2-0.1,0-0.1c0,0,0,0-0.1,0c0,0,0,0-0.1,0c0,0,0,0,0,0c-0.1,0-0.2,0-0.3,0c0.1,0,0.2-0.1,0.4,0c0.1,0,0.1-0.1,0.2-0.1
					c0.2,0.1,0.5,0.2,0.6,0.2c0.4,0,1,0,1.2-0.2c0.1,0,0.1,0,0.2,0.1c-0.1,0-0.2,0-0.2,0c0.2,0,0.7,0,0.8-0.1c0.3,0-0.2,0.1,0.2,0.1
					l-0.1,0c0.8,0.2,1.3-0.3,2.2-0.1c-0.1,0-0.1,0-0.1,0c1,0.1,2.1-0.1,3.1,0c0.3,0,0.3,0,0.5-0.1l0.1,0.1l0.3-0.1
					c0.4-0.1,0.7,0.2,1.3,0.1l-0.1-0.1c0.2,0,0.6,0,0.6,0c0,0,0.1-0.1,0.1,0l0,0L75,5.1c0.4,0-0.1,0.2,0.5,0.2
					c0.2,0,0.6-0.1,0.5-0.2c-0.1,0-0.2,0-0.2-0.1l0.2,0c0-0.1,0.2-0.2-0.3-0.3l-0.3,0.1l-0.1-0.1l0.3,0c-0.1-0.1-0.2,0-0.3,0
					c0,0-0.1-0.1-0.1-0.1l-0.3,0.1c0,0,0.1-0.1-0.1-0.1c-0.1,0.1,0.1,0.1-0.1,0.1c-0.1-0.1-0.1-0.1-0.3-0.1c0,0,0-0.1,0.1-0.1
					c-0.2,0-0.4,0-0.5,0.1c-0.2-0.1-0.5,0-0.5-0.1c0,0-0.3,0.1-0.4,0.1c0.3-0.1-0.5,0-0.5-0.2c-0.2,0.1-0.7,0.1-1,0.1
					c0,0,0.1,0,0.1,0c-0.2,0-0.2,0-0.4-0.1c0,0.1-0.3,0.1-0.5,0.2c-0.2-0.1,0.1-0.1,0.1-0.2c0,0.1-0.4,0.1-0.3,0.2
					c-0.2-0.1-0.2,0-0.2-0.1c0,0.1-0.2,0-0.3,0.1c-0.3-0.1-0.1-0.1-0.4-0.1C69.3,4.7,69.6,4.6,69.6,4.6z M62.7,4.9
					C62.7,4.9,62.7,4.9,62.7,4.9c0.1,0,0.1,0,0.1,0C62.8,4.9,62.8,4.9,62.7,4.9z M62.2,4.9c0.1,0,0.2,0,0.2,0c0,0,0,0.1-0.1,0.1
					C62.4,4.9,62.2,4.9,62.2,4.9z M63.4,5.4c-0.1,0-0.1,0-0.1,0C63.3,5.4,63.3,5.4,63.4,5.4C63.4,5.4,63.4,5.4,63.4,5.4
					C63.4,5.4,63.4,5.4,63.4,5.4z"/>
			</g>
			<g>
				<path d="M63.5,5.3C63.5,5.3,63.6,5.3,63.5,5.3C63.6,5.3,63.5,5.3,63.5,5.3C63.5,5.3,63.5,5.3,63.5,5.3
					C63.5,5.3,63.5,5.3,63.5,5.3z"/>
			</g>
			<g>
				<path d="M11.4,5.5L11.4,5.5C11.4,5.5,11.4,5.5,11.4,5.5C11.4,5.5,11.4,5.5,11.4,5.5z"/>
			</g>
			<g>
				<polygon points="54.2,4.8 54.2,4.8 54.3,4.8 				"/>
			</g>
			<g>
				<path d="M8.3,5.2C8.3,5.2,8.2,5.2,8.3,5.2C8.2,5.2,8.2,5.2,8.3,5.2z"/>
			</g>
			<g>
				<path d="M6.9,5.2l-0.2,0C6.8,5.2,6.8,5.2,6.9,5.2z"/>
			</g>
			<g>
				<path d="M5.8,5.2C5.8,5.2,5.8,5.2,5.8,5.2C5.8,5.2,5.8,5.2,5.8,5.2L5.8,5.2z"/>
			</g>
			<g>
				<path d="M22.6,5C22.6,5,22.6,5,22.6,5C22.7,5,22.6,5,22.6,5z"/>
			</g>
			<g>
				<path d="M17.6,5.2c0.1,0,0.1,0,0.2,0C17.7,5.2,17.6,5.2,17.6,5.2z"/>
			</g>
			<g>
				<path d="M28.1,4.9C28.1,4.9,28.1,4.9,28.1,4.9C28.1,4.9,28.1,4.9,28.1,4.9L28.1,4.9z"/>
			</g>
			<g>
				<path d="M18,5.2c-0.1,0-0.2,0-0.2,0C17.8,5.2,17.9,5.2,18,5.2z"/>
			</g>
			<g>
				<path d="M1.3,5.2L1.3,5.2C1.2,5.2,1.2,5.2,1.3,5.2L1.3,5.2z"/>
			</g>
			<g>
				<path d="M1.2,5.2L1.2,5.2C1.2,5.2,1.2,5.2,1.2,5.2z"/>
			</g>
			<g>
				<path d="M1.1,5.2l0.1,0C1.1,5.2,1.1,5.2,1.1,5.2z"/>
			</g>
			<g>
				<path d="M2.7,5.2L2.7,5.2C2.7,5.2,2.7,5.2,2.7,5.2z"/>
			</g>
			<g>
				<path d="M3.1,5.2c-0.1,0-0.3-0.1-0.4,0l0,0C2.8,5.1,3,5.2,3.1,5.2z"/>
			</g>
			<g>
				<path d="M4.9,5.5l-0.4,0c0.1,0,0.1,0.1,0,0.1C4.9,5.7,4.4,5.5,4.9,5.5z"/>
			</g>
			<g>
				<path d="M6,5.6C5.8,5.6,6,5.6,6,5.6C6.1,5.6,6.1,5.6,6,5.6z"/>
			</g>
			<g>
				<path d="M13.9,5.5L13.9,5.5C14,5.6,13.9,5.6,13.9,5.5z"/>
			</g>
			<g>
				<polygon points="15.4,5.2 15.3,5.1 15.2,5.2 				"/>
			</g>
			<g>
				<polygon points="16.3,5.6 16.3,5.6 16.5,5.6 				"/>
			</g>
			<g>
				<path d="M29.7,5.5L29.7,5.5C29.5,5.5,29.5,5.6,29.7,5.5z"/>
			</g>
			<g>
				<path d="M35.4,5.4c0.1,0,0.2,0.1,0.3,0C35.6,5.4,35.5,5.4,35.4,5.4z"/>
			</g>
			<g>
				<polygon points="52.7,5.5 52.6,5.5 52.8,5.5 				"/>
			</g>
		</g>
	</g>
</g>
</svg>
