<svg xmlns="http://www.w3.org/2000/svg" xml:space="preserve" viewBox="0 0 78 10.3"><path d="M0 2.4h.2z"/><path d="M.7 2.5q.3 0 .2-.2l-.3.1-.2-.1H.2q.3.3.5.2"/><path d="M18.2 2.6s-.1 0 0 0"/><path d="M11.5 2.6h.2z"/><path d="M8.6 2.7q-.1 0 0 0"/><path d="m6.3 2.7.1-.1z"/><path d="M40.6 2.6c-.2-.1.4-.1 0-.2.1.1-.3.2 0 .2"/><path d="M28.1 2.6h.1z"/><path d="M67.5 1.9q.2 0 0 0c.1 0 .4 0 0 0"/><path d="M2.2 2.3s.1 0 0 0"/><path d="M28.2 2h.3z"/><path d="M53.6 2q.2 0 0 0"/><path d="m29.4 2 .2.1z"/><path d="M69.7 1.8c-.3 0-.1.1-.2.2l-.3-.1-.5.1-1 .1v.1h-.3.1-.1c-.2-.2.2-.2.2-.2l-.8.1c-.1-.1.4-.1.2-.1h.3c-.2-.1.2 0 0-.1h-.9l-.1.1c-.6.1-.5-.2-.9-.1q-.1.2-.5.1l.1-.1-.7.1h.3-.4v-.1l-1.4.1v-.1l-1.9-.1-.2.2q-.2 0 0 0l-.1.1q-.2 0-.1-.1h-1.6.1l-.7.1h.1l-2-.1-.8.1-.9-.2-.4.1v-.1L54 2l-.1-.1h-.2q.2 0 .1.1l-.7-.1-.6.1.2-.1c-.3.1-.1-.1-.4 0V2h-.8l.1-.1H50q.3 0 0 .1h-.1c-.1.1.2 0 0 .1q-.2 0 0-.1h-.2l.1-.1H48l-.3.1h-1.3l-.2.1L46 2l-1.2.1.1.1-.2-.1c-.7.1-1.5-.2-2.1 0l-.6.1c-.3 0 .2-.1 0-.1l-1.4.1c-.4-.2-1.4 0-1.9-.1h-.3l.1.1-3.5-.1c-.4 0-.2.2-.8.1l.3-.2-2.6.1h.1q-.5-.1-.7.1l-.1-.1h-.5.1l-.4.1h-.8q-.5-.2-.6 0h-.7l-.1-.1-.4.1-1.1-.1-1.9.1c0-.1.7 0 .6-.1q-.7.2-1.5.1l.1-.1-1.6.1h.1-.2.1c.2.1-.4.2-.4.2.2-.2-.5 0-.2-.2l-.1.1q-.2 0 0-.1l-.6.1.1-.1-.6.1h.1l-1.3.1c.2-.1-.2 0-.2-.1h-.3.1-.7.2-.5.3l-.3.1-.4-.1h-.4v-.1l-.7.1q.2 0 0-.1l-.1.1-.1-.1c-.3 0 .1.1-.3.1h.1-1.2c-.1-.1.3 0 .2-.1l-1.6.1h.1-.6l-1.3.1h.1-.8q-.2 0-.1.1c-.7-.2-1.3.1-2-.1H9h-.5l.2.1-.3.1q.2 0-.1-.1v.1c-.3-.3-.1-.1-.5-.1l-.4.1.2-.1H7h.3l-.4-.2h-.4.1c-.3.2-.5 0-.9.2q.3-.1.1-.1l-.2-.1h-.5L5 2.2c-.2 0 .1 0 0 .1H3.7l-.9.2.1-.1h-.6l-.1-.1q0 .2-.2.1l.2-.1-.6.1.2-.1-.6.1h.1v-.1h.3-.1.8l-.2.2.3-.1q.1 0 0 .1H3l-.1.1h.7c.5 0 0-.1.4-.2l.2.2v-.1h.1l.1-.1.7.1c.1-.1-.2 0 0-.1h.5q-.3 0-.1.1h.6l.7-.1.9.1.8.1-.2.1h.2l.2-.1v.1h.9c0-.1-.3-.2.1-.2l-.1.1h.2-.1.2l.1.1h-.2l.4.1.1-.1.3.1.2-.1.1.1c.1 0 .7 0 .5-.1h1.4l.8-.1.2.1h.5-.2.6l.3.1h-.2.4l-.1.1c.6.1 1-.2 1.4 0 .1-.1-.3 0-.2-.1l.6.1.7-.1.2-.1q.4 0 .2.2h-.1q-.2 0-.1.1l.4.1q.3 0-.1-.1h.9l-.1-.1.6-.1c.2 0-.1.1.3.1q.1 0 0 .1h.8-.2.3l-.1-.1h.2l.1-.2h.4c-.4 0 0 .1-.3.1h.2c.4.1.2-.1.6-.1l.2.1q-.2 0 .1-.1h.4-.2l.4-.1h-.1.7l.1.1h.7q-.2 0 .1-.1h-.5l.3-.1h-.4l.1-.1h.7v.2h1.2-.2.5l.2.1.4-.1.2.1.9-.1c-.1.1.1.1-.2.1h.7l.2-.1.1-.1 1.5.1h.9c.4 0 .2-.2.6-.1.2.1-.2 0-.1.1l.8.1H32l.8-.1 1-.1-.1.1.2-.1.3.1h-.3.5l.9-.1h.5l.2.1.9-.1-.7.2.6-.1h-.2l.8-.1c-.1.2.8 0 1.1.2h1.8c-.2-.2.2 0 .2-.2h.2l.5.1-.1.1.4.1.3-.1-.3-.1h.9l-.2.1 1.1-.1v.1l1.8-.1h.7-.1l1.4-.1.7.2 1.8-.1 1.9.1.1-.1h.4-.1l.6.1v-.1c.6.2 1.6-.1 1.9.1l.5-.1v.1H56l-.1.1.6-.2.1.1h1.5l-.1.1c.2 0 .9.1.8-.1h.8v.1l.5-.1q.2 0 0 0h.5-.1l.4-.1.5.1.3-.1h-.1.9-.6q.2.1.1.2.4-.2.9-.1h.9q.1-.1 0-.1h-.5.4l.2-.1.6.2q.8 0 1.2-.2l.2.1h-.2l.8-.1c.3 0-.2.1.2.1h-.1c.8.2 1.3-.3 2.2-.1h-.1 3.1l.5-.1.1.1.3-.1c.4-.1.7.2 1.3.1l-.1-.1h.6s.1-.1.1 0l.5-.1c.4 0-.1.2.5.2q.5 0 .5-.2l-.2-.1h.2c0-.1.2-.2-.3-.3l-.3.1-.1-.1h.3-.3l-.1-.1-.5.2s.1-.1-.1-.1l-.1.1-.3-.1.1-.1-.5.1-.5-.1-.4.1c.3-.1-.5 0-.5-.2l-1 .1h.1l-.4-.1-.5.2c-.2-.1.1-.1.1-.2 0 .1-.4.1-.3.2l-.2-.1-.3.1-.4-.1zm-6.9.2h.1zm-.6 0h.2l-.1.1q.2 0-.1-.1m1.3.5h-.1z"/><path d="M54.3 1.9V2z"/><path d="M8.3 2.4q0-.1 0 0 0-.1 0 0"/><path d="M6.9 2.3h-.2z"/><path d="M5.9 2.3q-.1 0 0 0-.1 0 0 0"/><path d="M22.6 2.1q.2 0 0 0"/><path d="M17.6 2.3h.2z"/><path d="M18 2.3h-.2z"/><path d="M1.3 2.3q-.1 0 0 0"/><path d="M1.1 2.3h.1z"/><path d="M3.1 2.3h-.4z"/><path d="M4.9 2.6h-.4q.1 0 0 .1c.5.1-.1-.1.4-.1"/><path d="M6 2.7q-.2 0 0 0"/><path d="M13.9 2.6q.2.2 0 0"/><path d="m15.4 2.3-.1-.1-.1.1z"/><path d="m16.3 2.8.2-.1z"/><path d="M29.7 2.7q-.2 0 0 0"/><path d="M35.5 2.6h.3z"/><path d="M52.8 2.6h-.2z"/><path d="M0 7.9s0 .1 0 0h.2z"/><path d="M.7 8.1q.3-.1.2-.2zH.3zq.2 0 0 0"/><path d="M19.4 8.3q-.1 0 0 0"/><path d="M11.5 8.2h.2z"/><path d="M8.6 8.2q-.1.2 0 0"/><path d="M6.3 8.3q0-.1 0 0"/><path d="M76.1 7.7s0 .1 0 0"/><path d="M21.5 8.3q-.1.2 0 0"/><path d="M40.6 8.2c-.2-.1.4-.1 0-.2.1.1-.2.1 0 .2"/><path d="M2.3 7.9s.1 0 0 0"/><path d="M26.3 8.3s-.1 0 0 0q-.1 0 0 0"/><path d="M28.1 8.2h.1z"/><path d="M30.1 8.2q0-.2 0 0-.1-.1 0 0"/><path d="M67.6 7.4q0 .1 0 0 .3 0 0 0"/><path d="M2.2 7.9s.1 0 0 0"/><path d="M28.2 7.6h.3z"/><path d="m29.4 7.6.2.1z"/><path d="M69.7 7.3c-.3 0-.1.1-.2.2-.4 0-.2-.1-.3-.1l-.5.1-1 .1v.1h-.3.1-.1l.2-.1-.8.1c0-.1.5 0 .2-.1h.3c-.2-.1.2 0 0-.1h-.9l-.1.1c-.6.1-.5-.2-.9-.1q-.1.2-.5.1l.1-.1-.7.1h.3l-.4.1v-.1l-1.4.1v-.1l-1.9-.1-.2.1q-.2 0 0 0l-.1.1q-.2 0-.1-.1l-1.6.1h.1l-.7.1h.1l-2-.1-.8.1-.9-.2-.4.1v-.1l-.3.1-.1-.1h-.2q.2 0 .1.1l-.7-.1-.7.1.2-.1c-.3.1-.1-.1-.4 0v.1h-.8l.1-.1h-1.6q.3 0 0 .1l.1-.2c-.1.1.2 0 0 .1q-.2 0 0-.1h-.2l.1-.1h-1.8l-.3.1-1.1-.1-.2.1-.2-.1-1.2.1.1.1-.2-.1c-.7.1-1.6-.2-2.1 0l-.6.1c-.3 0 .2-.1 0-.1l-1.4.1c-.4-.2-1.4 0-1.9-.1h-.3l.1.1-3.5-.1c-.4 0-.2.2-.8.1l.2-.1-2.6.1h.1q-.5-.1-.7.1l-.1-.1h-.5.1l-.4.1h-.8l-.6.1h-.7l-.1-.1-.4.1-1.1-.1-1.9.1c0-.1.7 0 .6-.1q-.7.2-1.5.1l.1-.1-1.6.1h.1-.2.1c.2.1-.4.2-.4.2.2-.2-.5 0-.2-.2l-.1.1q-.2 0 0-.1l-.6.1.1-.1-.6.1h.1l-1.3.1c.2-.1-.2 0-.2-.1h-.3.1-.7.2-.5.3L18 8l-.4-.1h-.4v-.1l-.7.1q.2 0 0-.1l-.1.1-.1-.1c-.3 0 .1.2-.3.1h.1-1.2c-.1-.1.3 0 .2-.1l-1.6.1h.1-.7l.1-.1-1.3.1h.1-.8q-.2 0-.1.1c-.7-.2-1.3.1-2-.1H9h-.5l.2.1h-.3q.2 0-.1-.1V8h-.9l.2-.1q-.3.2-.6.1h.3l-.4-.1h-.4.1l-.8.1c.3-.1 0 0 0-.1l-.2-.1h-.5L5 7.7c-.2 0 .1 0 0 .1l-1.3.1-.9.2.1-.1h-.5l-.1-.1L2 8l.2-.1-.6.1.2-.1-.6.1h.1v-.1h.3l-.2.1h.9l-.2.1.3-.1q.1 0 0 .1H3l-.1.1h.7c.5 0 0-.1.4-.2l.3.2v-.1h.1l.1-.1.7.1c.1-.1-.2 0 0-.1h.5q-.3 0-.1.1h.6l.7-.1.9.1h.7l-.2.1h.2l.2-.1v.2h.9c.1-.2-.2-.3.1-.3l-.1.1h.2-.1.2l.1.1h-.2l.4.1.1-.1.3.1.2-.1.1.1c.1 0 .7 0 .5-.1h1.4l.8-.1.2.1h.5-.2.6l.3.1h-.2.4l-.1.1c.6.1 1-.2 1.5 0 .1-.1-.3 0-.2-.1l.6.1.7-.1.2-.1q.4 0 .2.2H18q-.2 0-.1.1l.4.1q.3 0-.1-.1h.9l-.1-.1.6-.1c.2 0-.1.1.3.1q.2 0 0 .1h.8-.2.3l-.1-.1h.2l.1-.2h.4c-.4 0 0 .1-.3.1h.2c.4.1.2-.1.6-.1l.2.1q-.2 0 .1-.1h.4-.2l.4-.1h-.1.7l.1.1h.7q-.2 0 .1-.1h-.5l.3-.1h-.4l.1-.1h.7v.2h1.2-.2.5l.2.1.4-.1.2.1.9-.1c-.1.1.1.1-.2.1h.7l.2-.1.1-.1 1.5.1h.9c.4 0 .2-.2.6-.1.2.1-.2 0-.1.1l.8.1h-.1l.8-.1L34 8l-.1.1.2-.1.3.1h-.3.5l.9-.1h.5v.1l.9-.1-.7.2.6-.1h-.2l.8-.1c-.1.2.8 0 1.1.2h1.8c-.3-.2.2 0 .1-.2h.2l.5.1-.1.1.4.1.3-.1-.3-.1h.9l-.2.1 1.2-.1v.1l1.8-.1h.7-.1l1.4-.1.7.2 1.8-.2 1.9.1.1-.1h.4-.1l.6.1V8c.6.2 1.6-.1 1.9.1l.5-.1v.1H56l-.1.1.6-.2.1.1h1.5l-.1.1c.2 0 .9.1.8-.1h.8v.1l.5-.3q.2 0 0 0h.5-.1l.4-.1.5.1.3-.1h-.1.9q-.4.3-.5.2.2.1.1.2l.8-.2h.9q.1 0 0 0h-.5.4l.2-.1.5.2q.8 0 1.2-.2l.2.1h-.2l.8-.1c.3 0-.2.1.2.1h-.1c.8.2 1.3-.3 2.2-.1h-.1 3.1l.5-.1.1.1.3-.1 1.4.1-.1-.1h.6s.1-.1.1 0l.5-.1c.4 0-.1.2.5.2q.5 0 .5-.2l-.2-.1h.2c0-.1.2-.2-.3-.3l-.3.1-.1-.1h.3-.3l-.1-.1-.3.1s.1-.1-.1-.1l-.1.1-.3-.1.1-.1-.5.1-.5-.1-.4.1c.3-.1-.5 0-.5-.2l-1 .1h.1l-.4-.1-.5.2q-.1-.1.1-.2c0 .1-.4.1-.3.2l-.3-.1-.3.1-.4-.1q-.2.3 0 .2m-7.4.3h.2l-.1.1q.1-.1-.1-.1m1.2.5h-.1zs0-.1 0 0"/><path d="M63.7 8q-.1 0 0 0"/><path d="M11.5 8.1s-.1 0 0 0q-.1 0 0 0"/><path d="M54.3 7.5h.1z"/><path d="M6.9 7.9h-.2z"/><path d="M5.9 7.9q-.1 0 0 0-.1 0 0 0"/><path d="M22.6 7.7q.2 0 0 0"/><path d="M17.6 7.9h.2z"/><path d="M18 7.9h-.2z"/><path d="M1.3 7.9q-.1 0 0 0"/><path d="M1.1 7.9h.1z"/><path d="M3.1 7.9h-.4z"/><path d="M4.9 8.2h-.4q.1 0 0 .1c.5 0-.1-.1.4-.1"/><path d="M6 8.2q-.2 0 0 0 .2.2 0 0"/><path d="M13.9 8.2q.2 0 0 0"/><path d="M15.5 7.8h-.2l-.1.1z"/><path d="M16.4 8.3h-.1z"/><path d="M29.7 8.2q-.1 0 0 0"/><path d="M35.5 8.1h.3z"/><path d="m52.8 8.1-.1.1h.2z"/><path d="M0 5.2q0 .2 0 0h.2z"/><path d="M.7 5.4q.3 0 .2-.2l-.3.1-.2-.1H.2q.3.3.5.2"/><path d="M18.2 5.5q-.1 0 0 0"/><path d="M11.5 5.5h.2z"/><path d="M8.6 5.6q-.1 0 0 0"/><path d="M73.3 4.7s.1 0 0 0"/><path d="M76 5q-.1.2 0 0"/><path d="M40.6 5.5c-.2-.1.4-.1 0-.2 0 .1-.3.2 0 .2"/><path d="M22.6 5.5q.2 0 0 0"/><path d="M28.1 5.5h.1z"/><path d="M30 5.5s-.1 0 0 0"/><path d="M67.5 4.8s.3 0 0 0"/><path d="M2.2 5.2s.1 0 0 0"/><path d="M28.2 4.9h.3z"/><path d="m29.4 4.9.2.1z"/><path d="M69.6 4.6c-.3 0-.1.1-.2.2l-.3-.1-.5.1-1 .1V5h-.3.1-.1l.2-.1-.8.1c0-.1.5 0 .2-.1h.3c-.2-.1.2 0 0-.1h-.9l-.1.1c-.6.1-.5-.2-.9-.1q-.1.2-.5.1l.2-.1-.7.1h.3l-.4.1v-.1l-1.4.1v-.1l-1.9-.1-.2.1q-.2 0 0 0l-.1.1q-.2 0-.1-.1l-1.6.1h.1l-.7.1h.1l-2-.1-.7.1-.9-.2-.4.1v-.1H54l-.1-.1h-.2q.2 0 .1.1l-.7-.1-.7.1.2-.1c-.3.1-.1-.1-.4 0v.1h-.8l.1-.1h-1.6q.3 0 0 .1l-.1-.1c-.1.1.2 0 0 .1q-.2 0 0-.1h-.2l.1-.1h-1.8l-.3.1-1.1-.1-.2.1-.2-.1-1.2.1.1.1-.2-.1c-.7.1-1.5-.2-2.1 0l-.6.2c-.3 0 .2-.1 0-.1l-1.4.1-1.9-.1h-.3l.1.1-3.5-.1c-.4 0-.2.2-.8.1l.2-.1-2.6.1h.1q-.5-.1-.7.1l-.1-.1h-.5.1l-.4.1h-.8L29 5h-.7l-.1-.1-.4.1-1.1-.1-1.9.2c0-.1.7 0 .6-.1q-.7.2-1.5.1l.2-.1-1.6.1h.1-.2.1l-.5.1c.2-.2-.5 0-.2-.2l-.1.1q-.2 0 0-.1l-.6.1.1-.1-.6.1h.1l-1.3.1c.2-.1-.2 0-.2-.1h-.3.1-.7.2-.5.3l-.3.1-.4-.1h-.4V5l-.7.1q.2 0 0-.1l-.1.1-.1-.1c-.3 0 .1.1-.3.1h.1-1.2c-.1-.1.3 0 .2-.1l-1.6.1h.1-.6v.1l-1.3.1h.1-.8q-.2 0-.1.1c-.7-.2-1.3.1-2-.1H9h-.5l.2.1-.3.1q.2 0-.1-.1v.1c-.3-.3-.1-.1-.5-.2l-.4.1.2-.1H7h.3l-.4-.1h-.4.1c-.3.2-.5 0-.9.2q.3-.1.1-.1l-.2-.1h-.5L5 5.1c-.2 0 .1 0 0 .1H3.7l-.9.2.1-.1h-.6l-.1-.1-.2.1.2-.1-.6.1.2-.1-.6.1h.1v-.1h.3-.1.8l-.2.2.3-.1q.1 0 0 .1H3l-.1.1h.7c.5 0 0-.1.4-.2l.2.2v-.1h.1l.1-.1.7.1c.1-.1-.2 0 0-.1h.5q-.3 0-.1.1h.6l.7-.1.9.1.8.1-.2.1h.2l.2-.1v.1h.9c0-.1-.3-.2.1-.2l-.1.1h.2-.1.2l.1.1h-.2l.4.1.1-.1.3.1.2-.1.1.1c.1 0 .7 0 .5-.1h1.4l.8-.1.2.1h.5-.2.6l.3.1h-.2.4l-.1.1c.6.1 1-.2 1.4 0 .1-.1-.3 0-.2-.1l.6.1.7-.1.2-.1q.4 0 .2.2h-.1q-.2 0-.1.1l.4.1q.3 0-.1-.1h.9l-.1-.1.6-.1c.2 0-.1.1.3.1q.1 0 0 .1h.8-.2.3l-.1-.1h.2l.1-.2h.4c-.4 0 0 .1-.3.1h.2c.4.1.2-.1.6-.1l.2.1q-.2 0 .1-.1h.4-.2l.4-.1h-.1.7l.1.1h.7q-.2 0 .1-.1h-.5l.3-.1h-.4l.1-.1h.7v.2h1.2-.2.5l.2.1.4-.1.2.1.9-.1c-.1.1.1.1-.2.1h.7l.2-.1.1-.1 1.5.1h.9c.4 0 .2-.2.6-.1.2.1-.2 0-.1.1l.8.1H32l.8-.1 1-.1-.1.1.2-.1.3.1h-.3.5l.9-.1h.7l.9-.1-.7.2.6-.1h-.2l.8-.1c-.1.2.8 0 1.1.2h1.8c-.2-.2.2 0 .2-.2h.2l.5.1-.1.1.4.1.3-.1-.3-.1h.9l-.2.1 1.1-.1v.1l1.8-.1h.7-.1l1.4-.1.7.2 1.8-.2 1.9.1.1-.1h.4-.1l.6.1v-.1c.5.3 1.5 0 1.8.2l.5-.1v.1h1.1l-.1.1.6-.2.1.1H58l-.1.1c.2 0 .9.1.8-.1h.8v.1l.5-.1q.2 0 0 0h.5-.1l.4-.1.5.1.3-.1h-.1.9-.6q.2.1.1.2.4-.2.9-.1h.9q.1-.1 0-.1h-.5.4l.2-.1.6.2q.8 0 1.2-.2l.2.1h-.2l.8-.1c.3 0-.2.1.2.1h-.1c.8.2 1.3-.3 2.2-.1h-.1 3.1l.5-.1.1.1.3-.1c.4-.1.7.2 1.3.1l-.1-.1h.6s.1-.1.1 0l.5-.1c.4 0-.1.2.5.2q.5 0 .5-.2l-.2-.1h.2c0-.1.2-.2-.3-.3l-.3.1-.1-.1h.3-.3l-.1-.1-.3.1s.1-.1-.1-.1l-.1.1-.3-.1.1-.1-.5.1-.5-.1-.4.1c.3-.1-.5 0-.5-.2l-1 .1h.1l-.4-.1-.5.2q-.1-.1.1-.2c0 .1-.4.1-.3.2l-.2-.1-.3.1zc-.4.2-.1.1-.1.1m-7.4.3h.2l-.1.1zm1.2.5"/><path d="M63.5 5.3s.1 0 0 0"/><path d="M54.2 4.8h.1z"/><path d="M8.3 5.2s-.1 0 0 0q-.1 0 0 0"/><path d="M6.9 5.2h-.2z"/><path d="M17.6 5.2h.2z"/><path d="M18 5.2h-.2z"/><path d="M1.3 5.2q-.1 0 0 0"/><path d="M1.1 5.2h.1z"/><path d="M3.1 5.2h-.4z"/><path d="M4.9 5.5h-.4q.1 0 0 .1c.4.1-.1-.1.4-.1"/><path d="M6 5.6q-.2 0 0 0"/><path d="M13.9 5.5q0 .1 0 0"/><path d="M16.3 5.6h.2z"/><path d="M29.7 5.5q-.3 0 0 0"/><path d="M35.4 5.4h.3z"/><path d="M52.7 5.5h-.1.2z"/></svg>