<?xml version="1.0" encoding="utf-8"?>
<!-- Generator: Adobe Illustrator 25.2.3, SVG Export Plug-In . SVG Version: 6.00 Build 0)  -->
<svg version="1.1" id="Design" xmlns="http://www.w3.org/2000/svg" xmlns:xlink="http://www.w3.org/1999/xlink" x="0px" y="0px"
	 viewBox="0 0 141 6.6" style="enable-background:new 0 0 141 6.6;" xml:space="preserve">
<g>
	<g>
		<path d="M15.4,3.3c-0.3,0-0.2,0.2,0.8,0.1l0.7-0.2L15.4,3.3z"/>
	</g>
	<g>
		<path d="M21.8,3.6c1.1-0.1,2.4-0.2,1.7-0.4c-1.1,0.2-1.4,0.1-2.6,0.3c-1,0-1.7-0.1-1.5-0.1c-0.3,0-1.5,0-2,0.1
			c1.2,0.1,2.8,0.2,4.5,0C22.3,3.6,21.9,3.6,21.8,3.6z"/>
	</g>
	<g>
		<path d="M115.3,4l-0.6,0C114.8,4,115,4,115.3,4z"/>
	</g>
	<g>
		<path d="M80.5,3.8c0.4,0,0.6,0,0.6,0C80.8,3.8,80.4,3.8,80.5,3.8z"/>
	</g>
	<g>
		<path d="M70.6,3.6c0.2,0,0.4,0,0.6,0C71,3.6,70.8,3.6,70.6,3.6z"/>
	</g>
	<g>
		<path d="M115.3,4l1.5,0.1C116.9,4,116,4.1,115.3,4z"/>
	</g>
	<g>
		<path d="M34.7,3.2c-0.3,0-0.6,0-0.8,0C34.1,3.2,34.4,3.2,34.7,3.2C34.7,3.2,34.7,3.2,34.7,3.2z"/>
	</g>
	<g>
		<path d="M89.8,4.2l-0.5,0c-0.1,0-0.3,0-0.4,0.1L89.8,4.2z"/>
	</g>
	<g>
		<path d="M70.2,4.2c0.4,0,0.6-0.2,0.8-0.2C70.7,4,70.4,4,70,4.1C70,4.1,70,4.1,70.2,4.2z"/>
	</g>
	<g>
		<path d="M39.1,3.9l-0.6,0C38.7,3.9,38.9,3.9,39.1,3.9z"/>
	</g>
	<g>
		<path d="M103.8,4.2c0,0,0.1,0,0.2,0.1C104,4.3,103.9,4.2,103.8,4.2z"/>
	</g>
	<g>
		<path d="M23.5,5.5C23.5,5.5,23.5,5.5,23.5,5.5C23.4,5.5,23.4,5.5,23.5,5.5z"/>
	</g>
	<g>
		<path d="M0.9,4.1l0.3,0c0,0,0.1-0.1,0.1-0.1L0.9,4.1z"/>
	</g>
	<g>
		<path d="M52.6,3.1C52.6,3.1,52.6,3.1,52.6,3.1C53.1,3.1,52.8,3.1,52.6,3.1z"/>
	</g>
	<g>
		<path d="M74.2,2c1.9,0.1-3.1,0.2-0.2,0.3C73.7,2.2,76.5,2,74.2,2z"/>
	</g>
	<g>
		<path d="M35.2,3.2c0.3,0,0.5,0,0.8,0C35.7,3.2,35.4,3.2,35.2,3.2z"/>
	</g>
	<g>
		<path d="M74,2.3L74,2.3l0.3,0C74.1,2.3,74.1,2.3,74,2.3z"/>
	</g>
	<g>
		<path d="M66.1,3.2c-0.1,0-0.3,0-0.4-0.1C65.7,3.2,65.8,3.2,66.1,3.2z"/>
	</g>
	<g>
		<path d="M41.9,3.2l-0.8,0C41.5,3.2,41.7,3.2,41.9,3.2z"/>
	</g>
	<g>
		<path d="M82.2,2.7c0.4,0,0.6,0,1.1,0c-0.1,0-0.1,0-0.2,0C83,2.8,82.7,2.8,82.2,2.7z"/>
	</g>
	<g>
		<path d="M99,2.7c-0.1,0-0.2,0-0.3,0c-0.2,0-0.4,0-0.5,0L99,2.7z"/>
	</g>
	<g>
		<path d="M74.6,5.4c-0.4,0-0.6-0.1-0.8-0.1C74,5.4,71.6,5.5,74.6,5.4z"/>
	</g>
	<g>
		<path d="M34.7,3.3c0.1,0,0.2-0.1,0.5-0.1C35,3.2,34.9,3.2,34.7,3.3C34.6,3.3,34.6,3.3,34.7,3.3z"/>
	</g>
	<g>
		<path d="M82.9,1.5l2.7,0C84.8,1.5,83.9,1.5,82.9,1.5z"/>
	</g>
	<g>
		<path d="M85,1l0.6,0C85.3,0.9,85.1,0.9,85,1z"/>
	</g>
	<g>
		<path d="M93.5,1.4c0.5,0.1,1,0.1,1.5,0.1c0.1,0,0.2,0,0.3,0L93.5,1.4z"/>
	</g>
	<g>
		<path d="M73.8,5.3C73.8,5.3,73.8,5.3,73.8,5.3C73.8,5.3,73.8,5.3,73.8,5.3z"/>
	</g>
	<g>
		<path d="M56.2,5.9c2.5,0,1.2-0.2,1.7-0.3c3-0.1,1.4,0.1,2.4,0.2c1.9-0.1,3.3-0.3,4.8-0.3c0.1,0,0.4,0,0.1,0.1
			c2-0.2,5.9-0.1,8.3-0.4c0.2,0,0.3,0,0.3,0c-0.4-0.1-0.4-0.2-0.4-0.3c1.1,0,2.1-0.2,2.5-0.1c-0.7,0-0.8,0.1-1.1,0.1L76.1,5
			c1.1,0.2-1.6,0.1-1.6,0.3c2.3-0.1,5-0.3,6.8-0.3c0.4,0.2-4.2,0.2-1.8,0.3l-2.8,0c2.1,0.3-1.7,0,0.3,0.3c3.6,0,4.1-0.2,7.7-0.3
			c0.8-0.1-0.3-0.2,0.5-0.3c5.1-0.3,4.1,0.3,7.8,0c1-0.2,1.3-0.4,4-0.4l-0.9,0.3c3.5-0.1,2-0.4,5.7-0.4c-0.7,0.1-2.8,0.2-2.2,0.2
			c2.4,0.1,1.7-0.2,3.5-0.3l0.4,0.2c3.7-0.2,7.9-0.6,12-0.8c-0.2,0.1-0.9,0.2,0,0.2c5.2-0.4,11.1-0.7,16.2-0.9l1.9-0.3
			c0.4,0,0.8,0,0.4,0.1c2-0.1,0.1-0.1,1-0.2c1.1-0.1,1.5,0,0.8,0.1c1.1-0.1,2.6-0.3,4.1-0.4l0-1.2c-3.2,0.1-6.9,0.1-9.4,0l0.7,0
			c-2.8-0.1-3.2,0.3-5.9,0.2l0.5,0c-6.2-0.1-13,0.1-17.7-0.1c-0.9,0.2-6.1-0.1-6.5,0.3c-3.5-0.1-2.5-0.2-7.5-0.3
			c-1.3,0-2,0.2-3.6,0.3l0-0.2l-2.2,0.2l-1.2-0.2l-1.5,0.1c0.6,0,1.3,0.1,1.2,0.1c-1.2,0.1-2.7,0-3.8,0c-1.2,0-2.1-0.1-2.1-0.1
			l-5.7,0.2C75.3,1,76.3,1,77,1c-3,0.2-0.6-0.2-3.3,0c0.4,0-0.2,0.1-0.3,0.1c-1.4-0.1-4.5,0-6.9,0L67,1c-4.2,0-8.9,0.2-13.6,0.3
			c1.7,0,1.3,0.2-0.1,0.3l-0.6-0.2c-0.9,0.1,1.5,0-0.4,0.2c-1.8,0-1.2-0.2-0.2-0.3L50,1.5c-0.1-0.1,0.4-0.1,0.5-0.2
			c-0.9,0.1-3.7-0.1-5,0.1l-0.1-0.1c-4.7,0.1-6.9,0.2-10.7,0.3c-0.1,0.2-1.6,0.2-2.7,0.3c-2.7,0-5.7,0-8.9,0l0,1.4
			c0.2,0,0.3,0,0.5,0c2.4-0.1,0.7-0.1,1.8-0.2c0.2,0.1,3.6,0.1,1.8,0.2c4.1,0,5.2,0,10.4-0.2c-0.6-0.1-1.2-0.1-0.9-0.1
			c0.9,0,2.1,0.1,2,0.1l-0.2,0c5.8-0.2,13.4,0.4,18,0.1l-0.3,0L61,3.2c2.2,0-1.3,0.1,0.3,0.2c5.2-0.2,8.2,0,12.4-0.1
			c3.3,0.4,11.7,0,16.2,0.2l-0.3-0.1c1.2-0.1,1.4,0.1,2.2,0.1c-0.1-0.1-1.2-0.1-0.5-0.1c9.8-0.1,20.1,0.1,30.1,0.2
			c3.7,0,2.1-0.5,6.7-0.3l-1.3,0.2c1.8-0.1,3.6-0.1,5.4-0.1l0-1.5c-5.7,0-11.4-0.2-16.9-0.1c0.4,0,0.4-0.1,1.1-0.1
			c-1.5-0.2-5.6-0.1-5.7,0.1c-1.1,0-0.3-0.1-1-0.2c-1.5-0.1-3.8,0.1-4.7,0c-0.1,0,0.4,0,0.7-0.1c-1,0.1-4.6,0-3.7,0.1
			c-2.7-0.1-5.2,0-7.4,0c-1.4,0.2-4.6-0.1-5.1,0.2c0.2-0.3-4.8-0.2-6.5-0.1c0.6-0.1-1.5-0.1-0.8-0.2c-2,0-3.8,0.1-3.4,0.2
			c-3.6-0.3-7.2,0.3-9.3,0C64.1,2,58.7,2.2,53.5,2.4C53.7,2.2,59.3,2.2,59,2c-5,0.3-7.8,0.6-12.7,0.7c-1.3,0,0.7-0.1,1.1-0.2
			c-3.1,0.2-6.1,0.3-9,0.5l0,1.2c1.7,0,3.4,0.1,5,0.1c0,0-0.5,0-0.9,0c0.9,0,2,0.1,1.9,0l-0.8,0c-1.4-0.2,3.5-0.3,3.6-0.4
			c-1.5,0.3,4.4,0.2,2,0.5c0.6,0,1.3-0.1,1.2-0.1c0.8,0,1.1,0.1,0.3,0.2c3.1,0,2-0.1,4.8-0.1c0,0.1-0.6,0.1-0.9,0.1
			c1.4-0.1,2.9-0.2,5.2-0.1c-0.1,0,0.1,0.1-0.6,0.1c4.1,0,7-0.2,11.5-0.1c-1.3,0.2,1.5,0.1,1.8,0.3l2.4,0l-1-0.1
			c2.1,0,4-0.1,5.8-0.1l-1.6,0.1l4,0l-2.2-0.1c2.1-0.1-0.2-0.3,2.6-0.2c-0.6,0,2.1,0,3.2,0.1l0,0c1-0.1,2.1-0.1,3.7-0.1
			c0.4,0.1-0.3,0.2-0.1,0.3c1-0.2,5-0.1,6.3-0.3c-0.4,0-0.5,0.2-0.3,0.2l0.9-0.1c1,0,1.1,0.1,1,0.2c2.9,0-0.9-0.3,2.6-0.2
			c-0.3,0-0.1,0-0.7,0.1c3.5,0,6.8-0.1,10-0.1c1,0.2-2.8,0.1-1.7,0.3c4.7-0.1,9.6-0.4,14.1-0.4l-0.8,0c0.6-0.3,3.4,0.1,5.6-0.1
			c-0.6,0-0.7,0.2-0.6,0.1c0.4,0,0.8,0,1.3,0l0-0.8c-2.7,0-5.7,0.1-9.7,0.2l0.6-0.1c-1.8-0.1-4.8,0-6.8-0.1c-0.6,0.1-1.7,0.1-1,0.2
			C103.9,3.1,98.4,3.8,93,3.4c0.6,0,1.5-0.1,1-0.1l-4.6,0.1c0.4,0.1,0.6,0.1,1.6,0.2c-0.6,0.1-1.9,0.1-3,0.1c2.1-0.1,0-0.2-0.9-0.3
			c0.1,0-0.2,0.1-0.1,0.1c-2.4-0.2-0.4,0.3-3.7,0.1l0.2-0.1c-1.2,0-2.3,0.1-3.7,0.1c-0.5-0.2,1.3-0.1,1.4-0.2
			c-1.8,0-3.7,0.3-5.3,0.1c0.8,0,1.9-0.1,2.7-0.1c-1.8-0.2-2-0.1-3.4-0.2l0.1,0l-3.1-0.1l0.8,0c-2.3,0.4-4.7,0.1-7.8,0.3
			c3-0.2,0.5-0.1,0.7-0.3c-0.8,0-2-0.1-1.7-0.2c-1.5,0.1-2.5-0.1-4.5,0.1c-0.1-0.1-1.6,0-1.2-0.1c-1.9,0,0.5,0.1,0.3,0.2
			c-3,0.2-6.9-0.2-11.2,0c-3.7,0.1-4.3,0.3-7.7,0.4c-1.1-0.1,0.9-0.2,0.9-0.2c-1.9-0.1-3.2-0.1-5,0c0.4,0,0-0.1-0.5-0.2
			c-1.4,0-0.9,0.2-2.8,0.1c0.3-0.1,0.7-0.2,1.4-0.2c-1.6,0.1-3.3,0.1-5,0.2c-0.5-0.1,1-0.1,1.6-0.2c-1.9,0-5,0.1-5.6,0.2l1.2,0.1
			c-0.7,0-0.4-0.1,0.2-0.2c1.6-0.1,2.4,0.1,2.5,0.1l-1.2,0c1.2,0.3,4.9,0,7.3,0l-1,0.2l2.5-0.2c0.5,0.1,0.9,0.2-0.3,0.2
			c1.8,0.1,1.6-0.1,3.1,0c0.2,0,0.1,0-0.1,0l1.7-0.1c-0.3,0,0.3,0.2-0.8,0.1c3.1,0.1,5-0.2,6.1,0l-0.3,0c4.3-0.1,0.4-0.2,3.6-0.4
			L51.7,4l0.4-0.2c0.4,0,1.3,0,1.2,0.1c1.6-0.1-0.3-0.1,0.7-0.2c2.1,0.2,5.8-0.1,6.3,0.2c0.8-0.1-2-0.1,0.2-0.2
			c0.6,0.3,2.6,0,4.6,0.1C64.5,4,62.6,3.9,64.6,4c1.2-0.3,3.8,0.1,5.4,0C70,3.9,73.5,4,76.3,3.9C76.1,4,81.4,4,84,4.1l-0.1,0
			c0.5-0.2,3.1-0.2,5-0.2c-0.1,0.1-0.4,0.2-1.5,0.2l1.8,0c0.4-0.1,1-0.1,2.2-0.1L91,4.2c2.4,0,4.8-0.2,7.9-0.1
			c0.2-0.1-2.5-0.4,0.8-0.5c0.1,0.1,0.2,0.2-0.6,0.2c0.3,0,1-0.1,1.6,0L99.4,4c1.4,0.1,0.7-0.1,1.9-0.1c0,0.1,0.8,0.1,0.7,0.2
			c-0.3,0-1,0-1.4,0c1.3,0,2.8,0.1,3.3,0.2c-0.1-0.1,0-0.2,0.9-0.2c2.4,0,0.8,0.1,2.2,0.2c0.6-0.1,2.1,0,2.2-0.2
			c0.7,0,0.8,0.1,1.1,0.1c1.2-0.1,5.8,0,4.4-0.2l-0.3,0c0.1,0,0.1,0,0.2,0c0,0,0,0,0,0h0c4-0.2,8.4,0.1,12.4,0l0-0.5l-0.1,0l0-0.1
			c-2.4,0.1-5.4,0.1-7.1,0.3c-0.7,0-1.7-0.1-1.4-0.1c-1.8,0.1-2,0.1-4.7,0.1c1.8-0.1-0.6-0.1,1.9-0.1c-2.4,0-2.9-0.1-5.5,0.1
			c0.9-0.2-1.8-0.2-2.9-0.1l1.7,0.1c-1.3,0-2.4,0-3.5,0l0.6-0.2C100.9,3.4,97,4,93.2,3.6c-1.3,0.1,2.7,0.1,1.5,0.2
			c-2.3,0-4.6-0.3-5.3-0.3c-3.1-0.1-2.9,0.3-6.1,0.2c0.4,0.1,0.8,0.3-1.6,0.3c-2.3,0-2.8-0.3-1.3-0.3c0.5,0,0.8,0,0.8,0
			c0.7,0,1.7,0,0.8-0.1l-0.3,0.1c-1.1-0.1-4.2-0.1-3.5-0.2c-1.7,0.1-0.7,0.1,0.5,0.1c-2.9-0.1-4.5,0-7.5-0.1c0.5,0,0.9,0.1,0.4,0.1
			c-4.4-0.1-1.9,0.1-4.9,0.1c-1.7-0.1,0.6-0.2-2.4-0.2c-1.8-0.1-0.4-0.2,0.3-0.2c-2.7,0.1-5.1-0.1-6.6-0.2l1.4,0c-0.9,0-1.6,0-2.3,0
			l0.8,0.1c-0.8,0-1.5,0-1.5-0.1c-0.9,0.1,0.7,0.2-1.1,0.3c-1.1-0.1-3.4,0-3.8-0.2c3.5,0.1-0.4-0.2,2.6-0.2c-0.6,0-1.3,0-2.1,0
			c-0.1,0,0.1,0,0.3,0c-3.4-0.2-1.5,0.2-5,0.1C48,3.1,46.7,3,46.1,3c1.4,0,0.7,0.2-0.6,0.2c-2.2-0.1-2.4,0-3.6,0l1.3,0.1
			c-0.5,0.1-1.6,0-3.1,0c-0.1-0.1,1.4,0,0.9-0.1c-0.8,0.1-1.6,0-2.5,0l0,0.8c1.2,0,2.5,0,3.8-0.1c1.1,0,0.1,0.2,1.1,0.2
			c2.7-0.3,2.9,0,5.8-0.2c-0.8-0.1-1-0.1,1-0.3l-4.7,0.3l3-0.3c-1.4,0.1-3,0.2-3.8,0.2c1.4-0.2,1.3-0.1,0.6-0.2
			c1.9,0.1,3.8-0.3,6.1-0.2l-0.1,0.3c3.4,0,5.9-0.4,10.3-0.4l-1.4,0C60.8,3,62.9,3,64.3,3c-0.1,0.1,0.8,0.1,1.4,0.2
			c-0.1-0.1,3.2-0.1,3.6-0.3L71.2,3c3.5,0,4-0.4,7.4-0.4c-1,0.1,0.5,0.2-1.7,0.3c1.1,0,2.1,0,2.2-0.1c0.7,0.1,3.1-0.2,4.2-0.1
			c0.5-0.1,0.6-0.2,1.9-0.2c0.1,0,0,0.1,0,0.1c0-0.1,2-0.1,0.9-0.2c3.5,0.3,9.7-0.1,12.7,0.3c2.5,0,5.4-0.1,7.7,0
			c-0.1,0,0,0.1-0.4,0c3.1,0.1,1.9-0.3,5.4-0.2c1.8,0.2-1.9,0.1-0.7,0.2c0.5,0.4,4.2,0,6.6,0.2l-0.6,0c1.8,0.1,4.4-0.1,7.4,0
			c0,0-0.1,0,0,0.1c2-0.2,5.6-0.2,8.4-0.2l0-0.4c-0.1,0-0.2,0-0.3,0c0.1,0,0.2,0,0.3,0l0,0.4c-0.7,0.1-0.9,0-0.5,0.2
			c0.3,0,0.4,0,0.5,0l0-0.7c-0.3,0.1,0.3,0.2-1.7,0.2c-0.8-0.1-2.7-0.1-2.9-0.3l2.4,0c-1.2-0.2-3.1,0-4.4,0l0.2-0.1
			c-3.7,0-3.7,0.3-7.7,0.2l0.4,0.1c-2.2,0.2-1.8-0.1-4,0l-0.7-0.2c-1.4,0.1-5,0.2-7.5,0.3c1.4-0.2,4.4-0.3,6.3-0.4
			c-1.4,0-4.8,0-5.5,0.1c0.6,0,1.3-0.1,1.8,0c-1.7,0.2-4,0.3-6.8,0.3C102.8,2,95,2.3,92.9,2c-5,0.2-9.9-0.1-15.7,0
			c2.1,0.3-1.7,0-1.3,0.4c-1.3,0-1.9,0-2,0l-4.1-0.2C68.9,2,71.2,2,71,1.9c-3,0-1.2-0.1-3.2-0.2c0.4,0.1-1,0.2-2.7,0.1L67.5,2
			c-4.1,0.2-3.6-0.3-7.7-0.1l1.3-0.1c-2.1,0.1-7.9,0-10,0.3c-0.4,0-0.9-0.1,0.1-0.2c-5.1,0-11.4,0.3-15.3,0.1L36.2,2
			c-1,0-1.7,0.2-2.8,0.1C33.5,2,33.8,2,33.3,2c-0.5,0-2.5,0.2-3.8,0.1L30.6,2c-3.1-0.1-5.3,0-7.5,0.2l0,1.1C24.4,3.1,25.8,3,27.3,3
			c0,0.2,3.9,0.2,5.9,0.2l-0.1,0c5.8-0.1,9.8-0.4,15.2-0.6c3.3,0.2,11.3-0.1,16.6,0c-0.8,0,0.1-0.2,1.1-0.2c1.3,0,3.5-0.2,3.3,0
			l-0.4,0c0.9,0.2,3.5,0.1,5.5,0.1l0.3-0.3C80,2.6,88.6,1.9,91.5,2.3c1.3-0.1,2.8-0.1,4.1-0.2l-0.1,0.2c3.5,0,5.3,0,9.6,0l-0.9,0.1
			c2.5,0,3.1-0.5,5.4-0.5l0.7,0.2c4.3,0,8.6,0.2,12.9,0c-0.1,0-0.2,0.1-0.9,0.1c2,0,7.8,0.2,7.1-0.2c0,0.2,4.4,0,6.7-0.1l-0.4,0.2
			c1.8-0.2,2-0.2,4.2-0.3l0-0.7c-0.1,0-0.3,0-0.6,0.1c-0.6,0-0.6-0.1,0.3-0.1c-2.2,0.1-1.7,0.3-4.3,0.4l1-0.2
			c-2.2,0.2-2,0.2-3.2,0.4c-1.4,0.2-4.2,0.3-4.5,0.1c-0.3,0.1-1.5,0.3-2.8,0.4c-0.2,0,0.3-0.1,0.5-0.1c-3.7,0.1-5.5,0.5-8,0.5
			c-0.1,0-0.2-0.1-0.4-0.1c2.9-0.2,4.9-0.3,5.1-0.3c0-0.1-2.4,0-0.5-0.3c-1.9,0.2-5.1,0.7-7.5,0.7c-0.1,0-0.2,0-0.3,0l0.2,0
			c-0.5,0-1,0.1-1.5,0.1c-0.7,0-1.2,0-1.9,0.1c-0.3-0.1-2.7,0.1-3.9,0.1c0.1,0.2-1.4,0.2,0,0.3c-0.2,0,0.2,0,1-0.1
			c0.2,0,0.4,0,0.5,0c0,0-0.1,0-0.1,0c0.8,0,1.8-0.1,2.9-0.2c-0.9,0.1-1.9,0.2-3.2,0.2c-0.6,0.1-1.3,0.3-1.6,0.3
			c-1.6-0.1-4.8-0.1-5.2-0.2C98.2,3.4,93.3,3.6,91,4c-1,0.1-1.2,0-1.6-0.1c0.6-0.1,1.3-0.1,1.6-0.1C89,3.9,85,4,84.5,4.2
			c-2.6,0,1.5-0.2-2.1-0.1l0.5-0.1c-7-0.1-11.4,0.8-19.2,0.5c0.5,0,0.8,0,0.9,0.1c-8.9-0.1-18.3,0.3-27-0.1c-2.5-0.1-2.8,0-4.3,0.1
			l-0.5-0.2l-2.6,0.2c-3.7,0.1-6.4-0.5-11-0.4l0.6,0.1c-1.7,0-5.3-0.1-5-0.2c-0.2,0-0.6,0.1-1.2,0l0-0.1l-4.1,0
			C6.2,4.1,9.8,3.9,5.2,3.7c-1.7,0-4.9,0.1-4.3,0.2c0.7,0,1.8,0.1,1.8,0.2l-1.6,0C0.9,4.3-0.4,4.6,3.5,4.9l2.7-0.1L7.1,5L4.8,4.9
			C6.1,5.1,6.9,5,7.8,5C8.1,5,8.4,5.1,9,5.1L11.6,5c0.3,0.1-1.2,0.2,0.6,0.3C13.5,5.2,11,5,13.1,5c1.3,0.2,0.9,0.2,2.4,0.2
			c0.2,0.1-0.1,0.1-0.7,0.1c1.4,0,3.6,0.1,4.3-0.1c1.3,0.2,4.6,0.1,4.4,0.3c0.4-0.1,2.4-0.1,3.6-0.1c-2.3,0.3,4.7,0.1,4,0.4
			c1.7-0.2,6.1,0,9-0.2c-0.2,0-0.5,0.1-0.8,0c1.7,0,2.2,0.1,3.2,0.2c0.2-0.2,2.8-0.3,4.2-0.4c2.1,0.2-1.2,0.3-0.6,0.5
			c-0.1-0.2,3.6-0.2,2.9-0.3c1.6,0.1,1.4,0.1,2.2,0.2c0.3-0.3,1.5,0,2.8-0.2c2.3,0.1,0.6,0.3,3.1,0.2C58.4,5.8,56.2,5.9,56.2,5.9z
			 M115.5,3.6L115.5,3.6c-0.5,0-0.9,0.1-1.2,0.1C114.6,3.6,114.9,3.6,115.5,3.6z M120.5,3.3c-0.6,0-1.4,0.1-2.2,0.1
			c-0.2,0,0-0.1,0.5-0.1C118.6,3.3,119.8,3.3,120.5,3.3z M109.9,2.7c0.8-0.1,1.1,0,1.2,0c-0.4,0-0.8,0.1-1.4,0.1c0,0-0.1,0-0.1,0
			C109.7,2.8,109.8,2.8,109.9,2.7z"/>
	</g>
	<g>
		<path d="M108.5,3c-0.1,0-0.2,0-0.3,0c0.2,0,0.3,0,0.5,0c0.1,0,0.2,0,0.3-0.1C108.8,3,108.6,3,108.5,3z"/>
	</g>
	<g>
		<path d="M114.6,4l0.1,0c-0.1,0-0.2,0-0.2,0C114.5,4,114.5,4,114.6,4z"/>
	</g>
	<g>
		<polygon points="90.5,0.8 90.5,0.9 90.9,0.8 		"/>
	</g>
	<g>
		<path d="M87.1,3.4c-0.1,0-0.2,0-0.4,0C86.8,3.4,86.9,3.4,87.1,3.4z"/>
	</g>
	<g>
		<path d="M75.2,3.4l-1.7-0.1C74.3,3.4,74.8,3.4,75.2,3.4z"/>
	</g>
	<g>
		<path d="M66.1,3.3c-0.1,0-0.1,0-0.2,0.1l0,0L66.1,3.3z"/>
	</g>
	<g>
		<path d="M42.5,4.3c-0.1,0-0.2,0-0.4,0C41.4,4.3,41.9,4.3,42.5,4.3z"/>
	</g>
	<g>
		<path d="M85.7,4.5c-0.5,0-0.9,0-1.4,0.1C85.1,4.5,85.7,4.6,85.7,4.5z"/>
	</g>
	<g>
		<path d="M82.6,1.5C82.6,1.5,82.6,1.5,82.6,1.5c0.1,0,0.2,0,0.3,0L82.6,1.5z"/>
	</g>
	<g>
		<path d="M82.3,4.5c0.8,0,1.4,0,2,0C83.7,4.5,82.9,4.5,82.3,4.5z"/>
	</g>
	<g>
		<path d="M26.6,3.2l-0.4,0c0,0,0,0-0.1,0L26.6,3.2z"/>
	</g>
	<g>
		<path d="M26.1,3.2l-0.5,0C25.8,3.2,26,3.2,26.1,3.2z"/>
	</g>
	<g>
		<path d="M24.6,3.3l1,0C25.3,3.2,24.8,3.2,24.6,3.3z"/>
	</g>
	<g>
		<path d="M38.7,3.3l0.1-0.1C38.7,3.2,38.7,3.2,38.7,3.3z"/>
	</g>
	<g>
		<path d="M42.3,3.3c-0.9,0-2.2-0.1-3.4-0.1l-0.1,0C39.4,3.1,41.5,3.4,42.3,3.3z"/>
	</g>
	<g>
		<path d="M57.6,4l-3.1-0.1c0.5,0.1,1.2,0.1-0.2,0.2C58.3,4.3,53.6,4,57.6,4z"/>
	</g>
	<g>
		<path d="M67.2,4.1c-1.7,0,0,0.1-0.1,0.1C68.2,4.2,68.4,4.1,67.2,4.1z"/>
	</g>
	<g>
		<path d="M117.6,3.6l0.2-0.1C116.5,3.5,117.8,3.5,117.6,3.6z"/>
	</g>
	<g>
		<polygon points="104.4,4.5 105.7,4.6 106.3,4.5 		"/>
	</g>
	<g>
		<polygon points="96.7,3.5 97.2,3.5 95.1,3.6 		"/>
	</g>
	<g>
		<path d="M96,2.8l-0.4-0.2C94.8,2.7,94.6,2.9,96,2.8z"/>
	</g>
	<g>
		<path d="M118.7,2.1c-0.5-0.1-1.9-0.1-2.8-0.1C117,2.1,118.1,2.2,118.7,2.1z"/>
	</g>
	<g>
		<polygon points="77.3,2.4 76.3,2.5 78.2,2.4 		"/>
	</g>
</g>
</svg>
