<svg xmlns="http://www.w3.org/2000/svg" xml:space="preserve" viewBox="0 0 141 6.6"><path d="M15.4 3.3q-.6.1.8.1l.7-.2z"/><path d="M21.8 3.6c1.1-.1 2.4-.2 1.7-.4l-2.6.3-1.5-.1-2 .1q1.9.2 4.5 0c.4.1 0 .1-.1.1"/><path d="M115.3 4h-.6z"/><path d="M80.5 3.8h.6z"/><path d="M70.6 3.6h.6z"/><path d="m115.3 4 1.5.1c.1-.1-.8 0-1.5-.1"/><path d="M34.7 3.2h-.8z"/><path d="M89.8 4.2h-.5l-.4.1z"/><path d="M70.2 4.2 71 4l-1 .1z"/><path d="M39.1 3.9h-.6z"/><path d="m103.8 4.2.2.1z"/><path d="M23.5 5.5q-.1 0 0 0"/><path d="M.9 4.1h.3l.1-.1z"/><path d="M52.6 3.1c.5 0 .2 0 0 0"/><path d="M74.2 2c1.9.1-3.1.2-.2.3-.3-.1 2.5-.3.2-.3"/><path d="M35.2 3.2h.8z"/><path d="M74 2.3h.3z"/><path d="m66.1 3.2-.4-.1z"/><path d="M41.9 3.2h-.8z"/><path d="M82.2 2.7h1.1-.2q-.1.2-.9 0"/><path d="M99 2.7h-.8z"/><path d="m74.6 5.4-.8-.1c.2.1-2.2.2.8.1"/><path d="m34.7 3.3.5-.1zq-.1 0 0 0"/><path d="M82.9 1.5h2.7z"/><path d="M85 1h.6z"/><path d="m93.5 1.4 1.5.1h.3z"/><path d="M56.2 5.9c2.5 0 1.2-.2 1.7-.3 3-.1 1.4.1 2.4.2l4.8-.3c.1 0 .4 0 .1.1 2-.2 5.9-.1 8.3-.4h.3q-.5-.1-.4-.3l2.5-.1-1.1.1 1.3.1c1.1.2-1.6.1-1.6.3l6.8-.3c.4.2-4.2.2-1.8.3h-2.8c2.1.3-1.7 0 .3.3 3.6 0 4.1-.2 7.7-.3.8-.1-.3-.2.5-.3 5.1-.3 4.1.3 7.8 0 1-.2 1.3-.4 4-.4l-.9.3c3.5-.1 2-.4 5.7-.4l-2.2.2c2.4.1 1.7-.2 3.5-.3l.4.2 12-.8c-.2.1-.9.2 0 .2l16.2-.9 1.9-.3c.4 0 .8 0 .4.1 2-.1.1-.1 1-.2q1.8-.1.8.1l4.1-.4V1.2h-9.4.7c-2.8-.1-3.2.3-5.9.2h.5c-6.2-.1-13 .1-17.7-.1-.9.2-6.1-.1-6.5.3l-7.5-.3c-1.3 0-2 .2-3.6.3v-.2l-2.2.2-1.2-.2-1.5.1 1.2.1H83l-2.1-.1-5.7.2C75.3 1 76.3 1 77 1c-3 .2-.6-.2-3.3 0 .4 0-.2.1-.3.1h-6.9L67 1l-13.6.3c1.7 0 1.3.2-.1.3l-.6-.2c-.9.1 1.5 0-.4.2-1.8 0-1.2-.2-.2-.3l-2.1.2c-.1-.1.4-.1.5-.2-.9.1-3.7-.1-5 .1l-.1-.1-10.7.3c-.1.2-1.6.2-2.7.3h-8.9v1.4h.5c2.4-.1.7-.1 1.8-.2.2.1 3.6.1 1.8.2l10.4-.2-.9-.1 2 .1h-.2c5.8-.2 13.4.4 18 .1h-.3H61c2.2 0-1.3.1.3.2 5.2-.2 8.2 0 12.4-.1 3.3.4 11.7 0 16.2.2l-.3-.1c1.2-.1 1.4.1 2.2.1-.1-.1-1.2-.1-.5-.1 9.8-.1 20.1.1 30.1.2 3.7 0 2.1-.5 6.7-.3l-1.3.2 5.4-.1V1.9l-16.9-.1 1.1-.1c-1.5-.2-5.6-.1-5.7.1-1.1 0-.3-.1-1-.2H105l.7-.1c-1 .1-4.6 0-3.7.1h-7.4c-1.4.2-4.6-.1-5.1.2.2-.3-4.8-.2-6.5-.1.6-.1-1.5-.1-.8-.2-2 0-3.8.1-3.4.2-3.6-.3-7.2.3-9.3 0l-16 .7c.2-.2 5.8-.2 5.5-.4-5 .3-7.8.6-12.7.7-1.3 0 .7-.1 1.1-.2l-9 .5v1.2l5 .1h-.9 1.9-.8c-1.4-.2 3.5-.3 3.6-.4-1.5.3 4.4.2 2 .5l1.2-.1q1.3 0 .3.2l4.8-.1-.9.1q2-.2 5.2-.1c-.1 0 .1.1-.6.1 4.1 0 7-.2 11.5-.1-1.3.2 1.5.1 1.8.3h2.4l-1-.1 5.8-.1-1.6.1h4l-2.2-.1c2.1-.1-.2-.3 2.6-.2l3.2.1 3.7-.1c.4.1-.3.2-.1.3 1-.2 5-.1 6.3-.3q-.6.1-.3.2l.9-.1q1.3 0 1 .2c2.9 0-.9-.3 2.6-.2l-.7.1 10-.1c1 .2-2.8.1-1.7.3l14.1-.4h-.8c.6-.3 3.4.1 5.6-.1l-.6.1h1.3v-.8l-9.7.2.6-.1-6.8-.1c-.6.1-1.7.1-1 .2-6.2-.6-11.7.1-17.1-.3l1-.1-4.6.1 1.6.2-3 .1c2.1-.1 0-.2-.9-.3l-.1.1c-2.4-.2-.4.3-3.7.1l.2-.1-3.7.1c-.5-.2 1.3-.1 1.4-.2q-2.8.2-5.3.1l2.7-.1-3.4-.2h.1l-3.1-.1h.8c-2.3.4-4.7.1-7.8.3 3-.2.5-.1.7-.3-.8 0-2-.1-1.7-.2-1.5.1-2.5-.1-4.5.1-.1-.1-1.6 0-1.2-.1-1.9 0 .5.1.3.2-3 .2-6.9-.2-11.2 0l-7.7.4c-1.1-.1.9-.2.9-.2h-5q.4 0-.5-.2c-1.4 0-.9.2-2.8.1l1.4-.2-5 .2c-.5-.1 1-.1 1.6-.2l-5.6.2 1.2.1q-.9 0 .2-.2l2.5.1h-1.2c1.2.3 4.9 0 7.3 0l-1 .2 2.5-.2c.5.1.9.2-.3.2h3.1-.1l1.7-.1c-.3 0 .3.2-.8.1 3.1.1 5-.2 6.1 0h-.3c4.3-.1.4-.2 3.6-.4l2.3 1 .4-.2c.4 0 1.3 0 1.2.1 1.6-.1-.3-.1.7-.2 2.1.2 5.8-.1 6.3.2.8-.1-2-.1.2-.2.6.3 2.6 0 4.6.1-.6.2-2.5.1-.5.2 1.2-.3 3.8.1 5.4 0l6.3-.1c-.2.1 5.1.1 7.7.2h-.1c.5-.2 3.1-.2 5-.2q0 .2-1.5.2h1.8l2.2-.1-.4.2 7.9-.1c.2-.1-2.5-.4.8-.5.1.1.2.2-.6.2h1.6l-1.3.2c1.4.1.7-.1 1.9-.1 0 .1.8.1.7.2h-1.4l3.3.2q-.3-.2.9-.2c2.4 0 .8.1 2.2.2.6-.1 2.1 0 2.2-.2l1.1.1c1.2-.1 5.8 0 4.4-.2h-.3.2c4-.2 8.4.1 12.4 0v-.5h-.1v-.1c-2.4.1-5.4.1-7.1.3l-1.4-.1-4.7.1c1.8-.1-.6-.1 1.9-.1-2.4 0-2.9-.1-5.5.1.9-.2-1.8-.2-2.9-.1l1.7.1h-3.5l.6-.2c-5.1-.1-9 .5-12.8.1-1.3.1 2.7.1 1.5.2-2.3 0-4.6-.3-5.3-.3-3.1-.1-2.9.3-6.1.2.4.1.8.3-1.6.3q-3.5-.2-1.3-.3h.8c.7 0 1.7 0 .8-.1l-.3.1c-1.1-.1-4.2-.1-3.5-.2-1.7.1-.7.1.5.1l-7.5-.1q1 0 .4.1c-4.4-.1-1.9.1-4.9.1-1.7-.1.6-.2-2.4-.2-1.8-.1-.4-.2.3-.2q-4.2 0-6.6-.2h1.4-2.3l.8.1-1.5-.1c-.9.1.7.2-1.1.3-1.1-.1-3.4 0-3.8-.2 3.5.1-.4-.2 2.6-.2H52h.3c-3.4-.2-1.5.2-5 .1L46.1 3c1.4 0 .7.2-.6.2h-3.6l1.3.1h-3.1c-.1-.1 1.4 0 .9-.1h-2.5V4l3.8-.1c1.1 0 .1.2 1.1.2 2.7-.3 2.9 0 5.8-.2-.8-.1-1-.1 1-.3l-4.7.3 3-.3-3.8.2c1.4-.2 1.3-.1.6-.2 1.9.1 3.8-.3 6.1-.2l-.1.3c3.4 0 5.9-.4 10.3-.4h-1.4c.6-.3 2.7-.3 4.1-.3-.1.1.8.1 1.4.2-.1-.1 3.2-.1 3.6-.3l1.9.1c3.5 0 4-.4 7.4-.4-1 .1.5.2-1.7.3l2.2-.1c.7.1 3.1-.2 4.2-.1.5-.1.6-.2 1.9-.2v.1c0-.1 2-.1.9-.2 3.5.3 9.7-.1 12.7.3h7.7-.4c3.1.1 1.9-.3 5.4-.2 1.8.2-1.9.1-.7.2.5.4 4.2 0 6.6.2h-.6 7.4V3c2-.2 5.6-.2 8.4-.2v-.4h-.3.3v.4q-1 0-.5.2h.5v-.7c-.3.1.3.2-1.7.2-.8-.1-2.7-.1-2.9-.3h2.4c-1.2-.2-3.1 0-4.4 0l.2-.1c-3.7 0-3.7.3-7.7.2l.4.1c-2.2.2-1.8-.1-4 0l-.7-.2-7.5.3c1.4-.2 4.4-.3 6.3-.4l-5.5.1h1.8q-2.6.3-6.8.3c.3-.5-7.5-.2-9.6-.5-5 .2-9.9-.1-15.7 0 2.1.3-1.7 0-1.3.4h-2l-4.1-.2c-.9-.2 1.4-.2 1.2-.3-3 0-1.2-.1-3.2-.2.4.1-1 .2-2.7.1l2.4.2c-4.1.2-3.6-.3-7.7-.1l1.3-.1c-2.1.1-7.9 0-10 .3-.4 0-.9-.1.1-.2-5.1 0-11.4.3-15.3.1h.3l-2.8.1c.1-.1.4-.1-.1-.1s-2.5.2-3.8.1l1.1-.1c-3.1-.1-5.3 0-7.5.2v1.1q2-.3 4.2-.3c0 .2 3.9.2 5.9.2h-.1c5.8-.1 9.8-.4 15.2-.6 3.3.2 11.3-.1 16.6 0-.8 0 .1-.2 1.1-.2 1.3 0 3.5-.2 3.3 0h-.4c.9.2 3.5.1 5.5.1l.3-.3c5.3.4 13.9-.3 16.8.1l4.1-.2-.1.2h9.6l-.9.1c2.5 0 3.1-.5 5.4-.5l.7.2q6.4.2 12.9 0l-.9.1c2 0 7.8.2 7.1-.2 0 .2 4.4 0 6.7-.1l-.4.2 4.2-.3v-.7l-.6.1q-1 0 .3-.1c-2.2.1-1.7.3-4.3.4l1-.2-3.2.4c-1.4.2-4.2.3-4.5.1l-2.3.3c-3.7.1-5.5.5-8 .5l-.4-.1 5.1-.3c0-.1-2.4 0-.5-.3-1.9.2-5.1.7-7.5.7h-.3.2l-1.5.1-1.9.1c-.3-.1-2.7.1-3.9.1.1.2-1.4.2 0 .3l1-.1h.5-.1l2.9-.2-3.2.2-1.6.3-5.2-.2c-3.7.2-8.6.4-10.9.8-1 .1-1.2 0-1.6-.1l1.6-.1c-2 .1-6 .2-6.5.4-2.6 0 1.5-.2-2.1-.1l.5-.1c-7-.1-11.4.8-19.2.5l.9.1c-8.9-.1-18.3.3-27-.1-2.5-.1-2.8 0-4.3.1l-.5-.2-2.6.2c-3.7.1-6.4-.5-11-.4l.6.1c-1.7 0-5.3-.1-5-.2h-1.2V4H9.5c-3.3.1.3-.1-4.3-.3-1.7 0-4.9.1-4.3.2l1.8.2H1.1c-.2.2-1.5.5 2.4.8l2.7-.1.9.2-2.3-.1q1.8.2 3 .1l1.2.1 2.6-.1c.3.1-1.2.2.6.3 1.3-.1-1.2-.3.9-.3 1.3.2.9.2 2.4.2q.3.1-.7.1c1.4 0 3.6.1 4.3-.1 1.3.2 4.6.1 4.4.3l3.6-.1c-2.3.3 4.7.1 4 .4 1.7-.2 6.1 0 9-.2h-.8c1.7 0 2.2.1 3.2.2.2-.2 2.8-.3 4.2-.4 2.1.2-1.2.3-.6.5-.1-.2 3.6-.2 2.9-.3l2.2.2c.3-.3 1.5 0 2.8-.2 2.3.1.6.3 3.1.2 1.3 0-.9.1-.9.1m59.3-2.3-1.2.1zm5-.3-2.2.1.5-.1zm-10.6-.6h1.2l-1.4.1h-.1z"/><path d="M108.5 3h-.3.5l.3-.1z"/><path d="M114.6 4h-.2z"/><path d="m90.5.8.4-.1z"/><path d="M87.1 3.4h-.4z"/><path d="m75.2 3.4-1.7-.1z"/><path d="m66.1 3.3-.2.1z"/><path d="M42.5 4.3h-.4z"/><path d="m85.7 4.5-1.4.1z"/><path d="M82.6 1.5h.3z"/><path d="M82.3 4.5h2z"/><path d="M26.6 3.2h-.5z"/><path d="M26.1 3.2h-.5z"/><path d="M24.6 3.3h1z"/><path d="m38.7 3.3.1-.1z"/><path d="m42.3 3.3-3.4-.1h-.1c.6-.1 2.7.2 3.5.1"/><path d="m57.6 4-3.1-.1c.5.1 1.2.1-.2.2 4 .2-.7-.1 3.3-.1"/><path d="M67.2 4.1c-1.7 0 0 .1-.1.1q1.8 0 .1-.1"/><path d="m117.6 3.6.2-.1c-1.3 0 0 0-.2.1"/><path d="m104.4 4.5 1.3.1.6-.1z"/><path d="M96.7 3.5h.5l-2.1.1z"/><path d="m96 2.8-.4-.2c-.8.1-1 .3.4.2"/><path d="m118.7 2.1-2.8-.1q1.8.2 2.8.1"/><path d="m77.3 2.4-1 .1 1.9-.1z"/></svg>