<?xml version="1.0" encoding="utf-8"?>
<!-- Generator: Adobe Illustrator 25.2.3, SVG Export Plug-In . SVG Version: 6.00 Build 0)  -->
<svg version="1.1" id="Layer_1" xmlns="http://www.w3.org/2000/svg" xmlns:xlink="http://www.w3.org/1999/xlink" x="0px" y="0px"
	 viewBox="0 0 288.5 223.1" style="enable-background:new 0 0 288.5 223.1;" xml:space="preserve">
<path d="M284.3,178.1c0,1.4-0.2,3.4-0.1,5.2l0.1,0.2C284.1,182.7,284.5,179.4,284.3,178.1z"/>
<path d="M286,171.7c-0.1-5.9-0.3-0.4-0.7-5.2l0.7-3.3l-0.3-0.6c0-0.7,0-2,0.2-1.7l0-0.1c0-0.1,0-0.3,0-0.4c0,0,0,0,0,0v-0.3
	c0,0,0,0.4-0.1,0.2v-0.4c-0.1,0.1-0.1,0.1-0.1,0.2c0-0.1,0-0.2,0-0.2c0,0.1-0.1,0.1-0.1,0.2c0,0,0-0.1,0-0.2c0.1-0.3,0.1-0.6,0.1-1
	c-0.1-0.6-0.2,0.2-0.3,0.8l0.1-4.6c0,2.6,0.1,2.8,0.2,2.6c0.1-3.1-0.1-6.7,0.2-7.3c-0.2-1.1-0.2,3.1-0.3-0.4c0.5-1-0.1-4,0.1-6.9
	c0.3,0.9,0.1,3.7,0.4,0.7c-0.4-1.8,0.1-5.7,0-8.2c-0.4-0.1-0.2-5.4-0.3-9.5c0.1,0.3,0.2-7.8,0.3-11.6l0.1,0.1
	c-0.4-0.7-0.3-4.2-0.4-7V107c0.2,0.2,0.3,0.7,0.4,2.2v-2.7c-0.1-0.6-0.2-1.5-0.2-3.3l0.3,0.7c0-3.6-0.3-7.3-0.1-11.9
	c-0.3-0.3-0.7,3.7-0.9-1.2c0.1-0.2,0.3-0.4,0.4,0.4c0-0.5-0.1-1.2-0.1-1.9l0.2,2c0.1-2.1-0.2-1.1-0.2-2.8c0.2,0,0.1-1.3,0.3-1
	c0,0.4-0.1,1.5,0,2.1c0-1.9,0.1-4.2,0.3-5c-0.1,0.2-0.3,0-0.3-1.4c0-3.6,0.2-1.2,0.3-3.3c-0.1-0.9,0-3.2-0.3-3.2
	c0-1.1,0.1-1.3,0.2-1.7c-0.1-1.9,0-8.7-0.3-6.6v0.2c-0.3-6.1,0.2-12.8,0-18.8h0.1c-0.1-3.6-0.1-8.1-0.3-10.7c0-1.1,0.2-2.5,0.3-2.1
	v-0.1l-0.3-0.3c0.2,0.3,0.2-1.5,0.3,0.1c-0.1-2.5-0.2-2.9,0-6.8C286,30.8,286,31,286,31v1.8c0.1-3.6,0.2-4.4,0-8.3
	c0.2,1.3,0.3-2.7,0.2-4.4l-0.2,2.5v-5.3l0.3,0.9c0.2-3,0.1-5.8,0-8.5c-0.4-0.6-0.5-1.9-0.5-3.1V2.2c-0.8,0-1.5,0-2.3-0.1
	c-0.6,0-1-0.1-1.5-0.1c-1,0.1,0,0.2,1.1,0.2h1.7c0.4,0,0.4,0.1-0.2,0.1c-1.3,0-2,0-2.8-0.1c-0.8-0.1-1.6-0.1-2.3-0.2
	c-1.4-0.1-2.6-0.2-3.1-0.2c-4.7-0.2-4.3,0.5-9.2,0.4c0.5,0.1,1.1,0.4-2,0.5h0.8c-0.9,0,3.2,0,4.9,0.2c1.6-0.1,3.2-0.2,5.6-0.2
	c0.6,0.1-0.5,0.4-0.1,0.5c0.7-0.1,2.4-0.2,4.1-0.2h3.6c0.3,0,0.5,0,0.8-0.1c0,0.1,0,0.1,0,0.2c0-0.1-0.1-0.1-0.1-0.1
	c-0.1,0-0.1,0.1-0.1,0.1c-0.1,0,0,0-0.1,0.1c0.1,0.2,0.2,0.4,0.2,0.7c-0.1,1.4-0.1,1.7-0.3,1.4c0,4.4,0.5-1.4,0.3,3.9
	c0-0.4-0.1-0.2-0.1-1.1c-0.1,5.3,0.2,10.2,0,15.1c-0.4,1.4-0.1-4.3-0.4-2.6c0.1,6.5,0.4,13.5,0.4,20c0.5,1-0.3,5.1,0,8.5
	c0-0.8-0.3-1.1-0.2-0.9c-0.1,4.7,0.1,9.5,0.3,16.6l-0.1-0.9c-0.1,2.7-0.1,7.2-0.1,10.2c0.1,0.9,0.1,2.6,0.3,1.5
	c-0.8,9.1,0.4,17.4-0.2,25.5c0-1-0.1-2.3-0.1-1.5l0.1,6.9c0.2-0.5,0.1-0.9,0.3-2.4c0.1,0.9,0.2,2.8,0.2,4.5c-0.2-3.1-0.4,0-0.5,1.4
	c0.1-0.2,0.1,0.2,0.2,0.1c-0.4,3.6,0.5,0.6,0.2,5.5l-0.1-0.3c0.1,1.8,0.2,3.5,0.2,5.5c-0.3,0.8-0.1-2-0.3-2.1c0,2.8,0.5,5.5,0.2,8
	c0-1.2-0.1-2.9-0.1-4.1c-0.3,2.8-0.2,3.1-0.3,5.1v-0.2l-0.1,4.7l0.1-1.2c0.7,3.5,0.1,7.1,0.6,11.8c-0.4-4.6-0.2-0.8-0.5-1.1
	c-0.1,1.2-0.2,3-0.3,2.5c0.2,2.2-0.2,3.7,0.2,6.9c-0.1,0.1,0,2.4-0.2,1.9c0.1,2.9,0.2-0.7,0.3-0.4c0.3,4.5-0.4,10.5,0.1,16.9
	c0.2,5.5,0.5,6.6,0.7,11.7c-0.2,1.7-0.3-1.4-0.3-1.4c-0.1,2.8-0.1,4.9,0,7.5c-0.1-0.5-0.2,0-0.3,0.8c0,2.1,0.3,1.4,0.2,4.2
	c-0.1-0.5-0.3-1.1-0.4-2.1c0.1,2.5,0.2,5,0.4,7.5c-0.2,0.7-0.3-1.6-0.4-2.5c0,1.3,0,2.9,0.1,4.4c0.1-1.2,0.2-1.7,0.3-1.8l0.1,1.8
	c0.6-1.9-0.1-7.4-0.1-11.1l0.4,1.5l-0.3-3.8c0.1-0.8,0.3-1.4,0.4,0.5c0.2-2.6-0.1-2.3,0.1-4.6c0-0.3,0.1-0.1,0.1,0.1l-0.1-2.6
	c0.1,0.4,0.2,0,0.2,0.4C286.1,175.9,285.7,173.3,286,171.7z M285.9,140.8c-0.1-0.1-0.2,2.4-0.2-0.1
	C285.8,138.8,285.8,139.2,285.9,140.8z M285.8,136.2c-0.1,0.2-0.1,0.3-0.2,0.3c0-0.6-0.1-1.1-0.2-1.5
	C285.5,135.3,285.8,135.5,285.8,136.2z M285.6,65.8l-0.1,2.3C285.5,67,285.5,65.6,285.6,65.8z"/>
<polygon points="286,1.9 286.1,5.1 286.1,4.3 "/>
<path d="M284.7,212.7c0,0.5-0.1,2.2,0.1,3c0.1-1.2,0.2-2.7,0.1-4.3C284.9,212.3,284.8,212.8,284.7,212.7z"/>
<path d="M279.3,209.5c0.1-1.2,0.2-2.6,0.1-4.1c0,0.8-0.1,1.3-0.2,1.2C279.3,207.1,279.1,208.8,279.3,209.5z"/>
<path d="M279.6,203.1c-0.1-1.6-0.4-3.4-0.7-2.4c0.3,1.6,0.1,2,0.5,3.6c0-0.4,0-0.8-0.1-1.2C279.4,202.6,279.5,203.1,279.6,203.1z"/>
<path d="M274,211.4c-1.3-0.1-2.3-0.1-3.2,0H274z"/>
<path d="M278.8,173.8c0,1.2-0.2,3.1-0.1,4.9l0.1,0.2C278.6,178,279,175,278.8,173.8z"/>
<path d="M279.9,156.2c0.1-0.8,0.3-1.8,0.3,0.2c0.3-5.5-0.2,1.2-0.2-4.6L279.9,156.2z"/>
<path d="M268.7,8.4c-4.4-0.2-4.1,0.5-8.8,0.4c0.6,0.1,1.2,0.4-2.3,0.5c-3.2,0-4-0.5-1.9-0.6c0.8,0,1.2,0,1.1,0.1
	c1,0,2.4-0.1,1.1-0.2l-0.4,0.1c-0.3,0-0.6,0-1,0c-0.1,0-0.3,0-0.6,0c0,0,0,0,0-0.1c-1.9-0.1-4.3-0.1-3.4-0.2c-1.1,0-1.4,0.1-1.2,0.1
	c-3,0-5.2,0.1-8.8,0c0.7,0.1,1.3,0.2,0.6,0.2c-6.3-0.1-2.8,0.2-7,0.3c-2.4-0.2,0.9-0.4-3.4-0.3c-2.6-0.1-0.6-0.3,0.5-0.4
	c-3.9,0.2-7.3-0.1-9.5-0.2h-1.2l1.2,0.2c-1.2,0-2.2,0-2.2-0.1c-1.2,0.2,1,0.4-1.5,0.6c-1.6-0.1-4.9,0.1-5.4-0.2
	c4.6,0.1,0.4-0.2,2.8-0.3h-2.1c-0.2,0,0.2-0.1,0.5-0.1c-4.8-0.3-2.2,0.3-7.2,0.3c0.5-0.2-0.5-0.3-1.3-0.3c1,0.1,0,0.3-1.6,0.4
	c-3.2-0.1-3.5,0.1-5.2,0.1l1.9,0.1c-0.7,0.2-2.3,0.1-4.5,0.2c-0.2-0.1,2-0.1,1.2-0.2c-2.5,0.3-5.6-0.3-9.1-0.1
	c-1.6-0.1-0.2-0.3-1.6-0.4c-3.9,0.2-4.2-0.2-8.3,0c1.2,0.2,1.4,0.2-1.5,0.4l6.7-0.2L181,8.8c2,0,4.3-0.1,5.5-0.1
	c-2.1,0.2-1.8,0.1-0.9,0.3c-2.8-0.3-5.5,0.2-8.7,0l0.1-0.6c-4.8-0.2-8.6,0.3-14.8,0.2l2,0.1c-0.8,0.2-3.9,0-5.9,0.1
	c0.2-0.2-1.1-0.3-1.9-0.4c0,0-0.1,0-0.4,0c0.1,0,0.2,0.1,0.3,0.1c-0.2,0-0.3-0.1-0.4-0.1c-1.2,0.1-4.2,0.1-4.7,0.4l-2.8-0.2
	c-5.1-0.1-5.8,0.5-10.6,0.5c1.5-0.2-0.7-0.3,2.5-0.5c-1.6,0-3.1,0-3.1,0.1c-0.9-0.1-4.5,0.3-6,0.1c-0.7,0.1-0.9,0.3-2.7,0.3
	c-0.1,0-0.1-0.1,0-0.1c-0.4,0.1-2.7,0.1-1.2,0.3c-5-0.6-14,0.1-18.3-0.5h-0.4l1.1,0.1h-0.8c-0.1,0-0.3,0-0.4-0.1
	c-3.4,0.1-7.4,0.1-10.5,0.1c0.2-0.1,0-0.1,0.6-0.1c-4.4-0.2-2.7,0.5-7.8,0.4c-2.6-0.3,2.7-0.2,1.1-0.3c-0.7-0.6-6.1,0.1-9.5-0.3h0.8
	c-2.6-0.2-6.3,0.2-10.6,0.2c0,0,0.2-0.1,0-0.1C69.7,9,64.2,9.1,60.1,9.2C61.4,9,62,9.1,61.2,8.8c-1.8,0,0.5,0.4-3.1,0.5
	c-1.2-0.1-3.8-0.2-4.2-0.5h3.4c-1.8-0.3-4.5,0-6.3,0l0.2-0.1c-5.3,0.1-5.3,0.4-11,0.4l0.6,0.1c-3.1,0.4-2.6-0.2-5.7,0.1l-0.9-0.4
	C32.2,9,27,9.3,23.4,9.3c2.1-0.3,6.4-0.4,9-0.6c-2,0-6.9,0-7.9,0.2c0.8,0,1.8-0.1,2.7-0.1c-2.5,0.3-5.8,0.4-9.8,0.4
	C17.6,9,16.6,8.9,15,8.8H8.3v2.4c0,0.5,0,1-0.1,1.4c0,0.9-0.1,1.7-0.2,2.2C8.3,21.9,7.9,29,7.9,37.3c0.6-3,0,2.4,0.6,1.9v2.4l0,0
	v0.2l0,0c0,0.2,0.1,0.4,0.1,0.3c-0.1,1-0.2,1.3-0.2,1.3l-0.2,4.5c-0.2,1.4-0.1-1.8-0.3-1.7c0,4.2-0.2,1.8-0.4,4.6
	c0.2-0.6,0.3,1.5,0.2,3.9L8,51.3c0.3,5.9-0.5,5.1-0.2,11.1l-0.2-1.9c0.1,3.1,0,11.3,0.5,14.3c-0.1,0.5-0.2,1.3-0.3-0.1
	C7.7,82,8.3,91,8,96.7l-0.1-0.6c0,1.4,0.3,2.4,0.1,4.1c-0.1-0.1-0.1-0.6-0.2,0.1c0,0.7,0.3,3.6,0.2,5.4l-0.2-1.5
	c-0.2,7.2,0.4,11,0.5,17c-0.4,0-0.6,5.6-0.6,8.4l-0.1-0.1c0,8.3,0.4,14.1,0.5,21.9c-0.5,4.8-0.2,16.2-0.4,23.9
	c0.1-1.2,0.3,0.2,0.4,1.6c-0.1,1.8,0.3,5-0.1,4.7V181c-0.4,1.4-0.3,5.1-0.3,8l0.5,0.5C8.1,190.7,8,192,8,193.3v0.6
	c-0.1,2.7-0.1,5.5,0,8.2c0,2.2,0.1,4.3,0.1,6.1v4c0,0.6-0.1,1.1-0.1,1.7c0.4,0,0.8,0.1,1.1,0.1c1.1,0,2.4-0.1,3.6-0.1
	c1,0,2-0.1,2.9-0.1l-0.1,0.3c5.1,0.1,7.6,0.1,13.9,0l-1.3,0.2c3.5,0,4.5-0.8,7.7-0.8l1,0.4c6.2,0,12.4,0.3,18.5,0
	c-0.1,0.1-0.3,0.2-1.3,0.2c2.9,0,11.2,0.3,10.2-0.3c0.1,0.4,6.4,0,9.7-0.1l-0.5,0.3c2.8-0.3,2.9-0.4,6.8-0.5c0.6,0,0.8,0.1,0.5,0.1
	c2.1,0,1.9-0.3,5.3-0.1l-1.2,0.1c3.2,0,2.9-0.1,4.7-0.3c2-0.1,6,0.1,6.5,0.3c0.4-0.1,2.2-0.3,4.1-0.3c0.3,0.1-0.4,0.1-0.8,0.2
	c5.3,0.2,7.9-0.3,11.6-0.1c0.1,0.1,0.3,0.1,0.6,0.2h-7.3c0,0.2,3.4,0.3,0.7,0.6c2.7-0.2,7.4-0.6,10.8-0.5c0.2,0,0.3,0,0.4,0.1h1.8
	c1.1,0,1.7,0.1,2.8,0.1c0.4,0.2,3.9,0.1,5.6,0.1c-0.1-0.3,2.1-0.2,0-0.4H120c1.3-0.1,2.8-0.3,4.6-0.1c0.2,0,0.3-0.1,0.5-0.1h-0.9
	c0.1,0,0.3-0.1,0.4-0.1c0.2,0,0.4,0,0.6,0.1c0.7-0.1,1.3-0.3,1.8-0.3c2.3,0.4,6.8,0.6,7.5,0.8c5.2-0.2,12.3-0.1,15.5-0.6
	c1.5-0.1,1.7,0.1,2.3,0.2c-0.9,0.1-1.9,0-2.3,0.1c3-0.1,8.8-0.1,9.5-0.4c3.7,0.2-2.1,0.3,3,0.3l-0.7,0.1c9.9,0.6,16.1-0.8,26.8-0.2
	c-0.3-0.1-0.4-0.1-0.5-0.1c12.8,0.3,26.3-0.3,38.9,0.2c3.6,0.1,4-0.1,6.1-0.3l0.8,0.3l3.7-0.3c5.3-0.2,9.2,0.7,15.9,0.2l-0.9-0.2
	c2.4,0,7.6-0.1,7.2,0.1c0.2,0,0.8-0.2,1.7-0.1l0.1,0.2l5.9-0.3c4.6,0.1-0.7,0.6,6,0.6c2.5-0.1,7.1-0.4,6.1-0.5c-1,0-2.6-0.1-2.6-0.2
	l2.1-0.1c0,0.1,0,0.1,0.1,0.1l0.6-0.2h-0.5c0.3-0.3,1.1-0.6,0-0.9v-0.4l-0.3-1l0.1,1.3c-0.6-0.1-1.6-0.2-3.2-0.3l-3.9,0.3l-1.3-0.2
	c-0.3,0-0.7,0.1-1.1,0.1c-0.3-0.1-0.9-0.2-1.6-0.2l-3.8,0.4c-0.5-0.2,1.7-0.3-0.9-0.4c-1.8,0.2,1.7,0.4-1.2,0.5
	c-1.9-0.2-1.3-0.4-3.5-0.2c-0.2-0.1-0.1-0.2,0.3-0.2c-1.9,0.1-4.5,0.1-5.4,0.3c-1.9-0.2-6.6,0.1-6.4-0.4c-0.6,0.1-3.4,0.3-5.2,0.4
	c3.3-0.5-6.7,0-5.8-0.6c-2.4,0.5-8.7,0.2-13,0.5c0.2,0,0.7-0.1,1.1-0.1c-2.4,0-3.1-0.2-4.7-0.3c-0.3,0.4-4.1,0.5-6.1,0.7
	c-2.9-0.4,1.8-0.4,0.9-0.8c0.1,0.3-5.1,0.3-4.1,0.6c-2.3-0.2-1.9-0.1-3.1-0.4c-0.4,0.5-2.1,0.1-4,0.4c-3.3-0.2-0.8-0.4-4.4-0.3
	c-1.7-0.1,1.5-0.3,1.5-0.3c-3.7,0-1.7,0.3-2.5,0.6c-4.4,0.1-2-0.3-3.5-0.4c-2.7,0.1-4.8,0.4-6.8,0.4c-0.2-0.1-0.5-0.1-0.1-0.2
	c-2.9,0.3-8.5,0-11.9,0.4c-0.2,0-0.4-0.1-0.4-0.1c0.5,0.2,0.6,0.4,0.5,0.5c-1.6,0-3,0.2-3.7,0c1,0,1.1-0.1,1.6-0.2l-1.7,0.1
	c-1.5-0.3,2.3-0.1,2.3-0.4c-3.3,0.1-7.2,0.4-9.8,0.3c-0.5-0.3,6-0.1,2.6-0.4l4,0.1c-3-0.5,2.4,0-0.4-0.5c-5.2-0.1-5.8,0.2-11,0.1
	c-1.2,0.2,0.4,0.3-0.8,0.5c-7.4,0.3-5.8-0.8-11.3-0.4c-1.4,0.2-2,0.6-5.8,0.4l1.3-0.4c-5.1,0-2.9,0.5-8.2,0.3c0.9-0.1,4-0.1,3.2-0.2
	c-3.4-0.3-2.4,0.2-5.1,0.2l-0.5-0.3c-5.4,0.1-11.3,0.2-17.3,0.4c0.3-0.1,1.4-0.2,0-0.3c-7.5,0.2-16,0-23.3-0.2l-2.8,0.3
	c-0.6,0-1.2-0.1-0.5-0.2c-2.8-0.1-0.1,0.2-1.5,0.3c-1.3,0-1.9-0.2-1.4-0.2c-5.1,0.2-14,0.5-19.2,0.2l1-0.1c-4.1-0.1-4.6,0.6-8.4,0.3
	l0.7-0.1c-8.9-0.1-18.7,0.2-25.5-0.3c-1.3,0.4-8.8-0.2-9.4,0.4c-5.1-0.3-3.6-0.4-10.8-0.6c-0.9,0-1.5,0.1-2.2,0.1
	c-0.2,0-0.3,0-0.5,0.1h-0.3c-0.1,0-0.1,0-0.1,0c-0.1,0-0.3,0.1-0.6,0.1c0-0.1,0-0.2,0-0.2l0.3-0.2c0-0.1-0.1-0.1-0.1-0.2
	c0-0.2-0.1-0.5-0.1-0.7L10,209l0.4-1.7l-0.1-2.2c0,0.9-0.1,1.9-0.2,1.7c-0.1-3.5,0.2-8.4,0.4-8.5l-0.3-8.2c0.1,0.1,0.1,1,0.2,1.8
	c-0.2-3.1,0.3-0.3,0.1-4c-0.1,0.5-0.2-0.3-0.2-0.4c0.2-2,0.2-6.5,0.1-9.9l0.2,0.6c0-6.1-0.1-12.8-0.1-19.6c-0.1,2.4-0.4,1.9-0.5-0.1
	l0.3-0.8c-0.2-1.3-0.1,2.1-0.4-0.6c0-2.5,0.4-1.7,0.5-0.2l-0.1-3.1c0.1-0.2,0.1,0.5,0.3,0.7c-0.2-1.3,0.3-5.3,0-7.2l0.1-0.2
	c0-6.8-0.1-9.9-0.1-15.4c-0.3-0.1-0.2-2.3-0.4-3.9c0.1-4.1,0.3-8.6,0.3-13.5c-0.1-3.4-0.2-1-0.4-2.6c0.2-0.3,0.2-5.2,0.4-2.6
	c0-5.9-0.1-7.5-0.3-15c-0.1,0.8-0.1,1.7-0.2,1.2c0-1.3,0.1-2.9,0.2-2.9c-0.4-8.3,0.7-19,0.2-25.5v0.4l-0.3-6.9
	c0-3.2,0.2,1.9,0.3-0.4c-0.4-7.4,0.1-11.8-0.2-17.9c0.7-4.7-0.1-16.8,0.4-23.2l-0.2,0.4c-0.2-1.7,0.1-2,0.1-3.2
	c-0.1,0.2-0.2,1.8-0.2,0.8c0-2.1,0-4.2-0.1-6.3H18c3,0,6,0.1,9,0.1c6,0.1,12.1,0.2,18,0.3c5.3,0,3-0.9,9.6-0.5l-1.9,0.3
	c10.6-0.4,21.7,0,32.1-0.3c-0.6,0.1-0.6,0.2-1.7,0.2c2.2,0.2,8.1,0,8.1-0.2c1.6,0,0.4,0.2,1.4,0.3c2.2,0.1,5.5-0.3,6.7-0.1
	c0.1,0-0.2,0-0.5,0.1c1.9-0.1,6,0,4.8-0.2c3.8,0.1,7.2-0.1,10.3,0c0.1,0,0.3,0,0.3-0.1c0.2,0,0.4,0,0.6,0c2.2-0.2,6.1,0.1,6.7-0.2
	c-0.3,0.4,6.8,0.3,9.3,0.1c-0.8,0.1,2.1,0.1,1.2,0.3c2.8,0,5.4-0.1,4.9-0.3c5.2,0.5,10.4-0.4,13.3,0.2c8.4-0.2,16.1-0.4,23.6-0.5
	c-0.3,0.4-8.3,0-8,0.5c7.1-0.2,11.2-0.6,18.3-0.5c1.8,0.1-1,0.2-1.7,0.3c7.1-0.2,13.8,0,20.1-0.2c0,0,0-0.1,0.1-0.1
	c-0.5,0-0.9,0-1.4,0c0.6,0,1.2-0.1,1.3-0.1c0,0,0.1,0.1,0.2,0.1c0.9-0.2,4.4-0.4,5.2-0.6c-1.6,0.6,6.3,0.1,3,0.9
	c0.8,0,1.9-0.1,1.7-0.3c1.2,0,1.6,0.1,0.4,0.3c4.5-0.1,2.9-0.3,6.9-0.3c0,0.1-0.8,0.1-1.3,0.2c2.1-0.2,4.1-0.4,7.5-0.3
	c-0.2,0,0,0.1-0.3,0.1c5.6-0.1,9.7-0.5,15.9-0.3c-1.9,0.4,2.2,0.1,2.5,0.5l3.5-0.1l-1.4-0.2c3,0,5.7-0.3,8.3-0.1l-2.3,0.1l5.7-0.1
	l-3.2-0.1c3.1-0.2-0.3-0.5,3.7-0.4c-0.8,0,3,0,4.6,0.2c1.5-0.1,3.1-0.2,5.3-0.1c0.6,0.1-0.5,0.4-0.1,0.5c1.5-0.3,7.1-0.1,9-0.4
	c-0.6,0.1-0.7,0.3-0.5,0.3c0.4-0.1,0.9-0.2,1.1-0.2c0.4,0,0.6,0.1,0.7,0.1c0,0.3-0.1,0.4-0.2,0.4v0.7c0,0.2,0,0.4,0,0.4
	c0,0.2,0.1,0,0.1-0.1c0.1-0.2,0.2-0.4,0.1,2.1c0-0.4-0.1-0.2-0.1-1c-0.1,5.1,0.2,9.8,0,14.4c-0.4,1.4-0.1-4.1-0.4-2.5
	c0.1,6.7,0.4,13.9,0.4,20.3v-1.2c0.5,0.9-0.2,4.8,0,8.1c0-0.8-0.3-1.1-0.2-0.8c-0.1,4.4,0.1,9.1,0.3,15.8l-0.1-0.8
	c-0.1,2.6-0.1,6.9-0.1,9.7c0.1,0.8,0.1,2.5,0.3,1.5c-0.7,8.7,0.4,16.6-0.2,24.3c0-0.9-0.1-2.2-0.1-1.5l0.1,6.6
	c0.2-0.5,0.1-0.9,0.3-2.2c0.1,0.8,0.2,2.7,0.2,4.3c-0.1-3-0.4,0-0.5,1.3c0.1-0.2,0.1,0.2,0.2,0.1c-0.4,3.4,0.4,0.6,0.2,5.3l-0.1-0.2
	c0.1,1.8,0.2,3.4,0.2,5.3c-0.3,0.8-0.1-1.9-0.3-2c0,2.7,0.5,5.2,0.2,7.7c-0.1-1.1-0.1-2.8-0.1-3.9c-0.3,2.6-0.2,2.9-0.3,4.9
	l-0.1,1.5c0.1-0.4,0.1-0.7,0.1-1l-0.1,3.8l0.1-1.1c0.7,3.3,0.1,6.8,0.6,11.3c-0.4-4.4-0.2-0.7-0.5-1.1c-0.1,1.1-0.2,2.9-0.3,2.4
	c0.2,2.1-0.2,3.5,0.2,6.5c-0.1,0.1,0,2.3-0.2,1.8c0.1,2.8,0.2-0.7,0.3-0.4c0.3,4.2-0.4,10,0.1,16.1c0.2,5.3,0.5,6.2,0.7,11.1
	c-0.1,1.6-0.3-1.4-0.3-1.4c-0.1,2.7-0.1,4.7,0,7.2c-0.1-0.5-0.2,0-0.3,0.8v0.1c0,0.2,0,0.3,0.1,0.4c0,0.2-0.1,0.2-0.1,0.2
	c0.1,1.1,0.3,0.9,0.2,3.2c-0.1-0.5-0.3-1-0.4-2c0.1,2.4,0.2,4.7,0.4,7.2c-0.2,0.7-0.2-1.5-0.4-2.3c0.1,2.8,0.2,7.1,0.4,8l0.1-1.3
	c-0.1,0.3-0.2-0.1-0.2-0.7c-0.2-2.4,0.1-3.4,0.2-3.5l0.1,1.7c0.5-1.8-0.1-7-0.1-10.5l0.4,1.5l-0.3-3.6c0.1-0.8,0.3-1.3,0.4,0.4
	c0.2-2.5-0.1-2.2,0.1-4.4c0-0.2,0.1-0.1,0.1,0.1l-0.1-2.5c0.1,0.3,0.2,0,0.2,0.3c0.1-3.9-0.3-6.4,0-8c-0.1-5.6-0.3-0.4-0.6-4.9
	l0.7-3.1l-0.3-0.6c0-0.6,0-1.9,0.1-1.7c-0.2-2.4-0.1,0.4-0.3-1c0.3-3-0.1-8.4,0.3-9.1c-0.2-1.1-0.2,2.9-0.3-0.3
	c0.5-0.9-0.1-3.8,0.1-6.5c0.3,0.9,0.1,3.5,0.4,0.7c-0.4-1.7,0.1-5.4,0-7.8c-0.3-0.1-0.1-5.1-0.3-9c0.1,0.2,0.2-7.4,0.3-11.1l0.1,0.1
	c-0.4-0.7-0.3-4.5-0.4-7.2c0.2,0.1,0.3,0.6,0.4,2.1v-2.6c-0.1-0.6-0.2-1.4-0.2-3.1l0.3,0.7c0-3.4-0.3-6.9-0.1-11.4
	c-0.2-0.2-0.7,3.5-0.8-1.2c0.1-0.1,0.3-0.2,0.4,0.5c0-0.5-0.1-1.2-0.1-1.8l0.2,1.9c0.1-2-0.2-1.1-0.2-2.7c0.2,0,0.1-1.2,0.3-1
	c0,0.4-0.1,1.4,0,2c0-1.8,0.1-4,0.3-4.7c-0.1,0.2-0.3,0-0.3-1.3c0-3.4,0.2-1.2,0.3-3.2c-0.1-0.8,0-3-0.3-3.1c0-1,0.1-1.2,0.2-1.6
	c-0.1-1.8,0-8.3-0.3-6.3v0.2c-0.3-5.8,0.2-12.1,0-17.9h0.1c-0.1-3.5-0.1-7.7-0.3-10.2c0-1,0.2-2.4,0.3-2c-0.1-2.6-0.2-2.9,0-6.8
	c0.1,0.9,0.1,1.1,0.1,1.1v1.6c0.1-3.4,0.2-4.2,0-7.9c0.2,1.3,0.3-2.6,0.2-4.2l-0.2,2.4v-5.1l0.4,0.6c0.1-2.4,0.1-4.6,0-6.6
	c0-1.1-0.1-2.1-0.1-3.1c0-0.5,0-1-0.1-1.5V8.7h-3.5c-0.9,0-1.7-0.1-2.6-0.2c-1.9,0.2,3.8,0.2,2.2,0.4C273.1,8.9,269.7,8.4,268.7,8.4
	z M123.1,213.7c-0.1,0.1-0.2,0.1-0.4,0.1c-1.1,0-1.5,0-1.7-0.1H123.1z M110.7,211.9c0.3,0.1,0,0.2-0.7,0.2c0.4-0.1-1.3-0.1-2.4-0.2
	H110.7z M278.9,20.1v2.6l-0.2-0.8L278.9,20.1z"/>
<path d="M3.1,37.2c-0.1,0.4-0.5-3.9-0.6-0.3C2.8,34,2.8,41.5,3.1,37.2z"/>
<path d="M32.8,2.3c1.7,0,3.4,0.1,4.2,0.1C36.2,2.2,34.1,2.1,32.8,2.3z"/>
<path d="M284.9,217.7v-0.4l-0.3-1l0.1,1.4c-0.6-0.1-1.7-0.2-3.4-0.3l-4.1,0.3l-1.3-0.2c-0.4,0-0.8,0.1-1.2,0.1
	c-0.3-0.1-0.9-0.2-1.7-0.2l-4,0.4c-0.5-0.2,1.8-0.4-0.9-0.5c-1.9,0.2,1.8,0.4-1.3,0.5c-2-0.2-1.4-0.4-3.7-0.2
	c-0.2-0.1-0.1-0.2,0.3-0.2c-2,0.1-4.7,0.1-5.7,0.3c-2-0.3-6.9,0.1-6.7-0.4c-0.6,0.1-3.6,0.3-5.5,0.4c3.4-0.5-7,0-6.1-0.6
	c-2.5,0.5-9.2,0.2-13.6,0.5c0.3,0,0.7-0.1,1.1-0.1c-2.5,0-3.3-0.2-4.9-0.3c-0.3,0.4-4.3,0.5-6.4,0.7c-3.1-0.4,1.9-0.5,0.9-0.8
	c0.2,0.3-5.4,0.3-4.3,0.6c-2.4-0.2-2-0.1-3.3-0.4c-0.4,0.5-2.2,0.1-4.2,0.4c-3.4-0.2-0.9-0.4-4.6-0.3c-1.8-0.1,1.6-0.3,1.6-0.3
	c-3.8,0-1.8,0.4-2.6,0.6c-4.6,0.1-2.1-0.3-3.7-0.4c-2.9,0.1-5,0.4-7.2,0.4c-0.2-0.1-0.6-0.1-0.1-0.2c-3,0.3-9,0-12.5,0.4
	c-0.1,0-0.1,0-0.2,0c-0.1,0-0.1,0-0.1,0c0.4,0.2,0.5,0.3,0.3,0.4c-1.7,0-3.2,0.2-3.8,0c1.1,0,1.1-0.1,1.6-0.2l-1.8,0.1
	c-1.6-0.3,2.3-0.1,2.5-0.4c0,0-0.1,0-0.1,0h0c-3.5,0.1-7.5,0.4-10.2,0.3c-0.6-0.3,6.3-0.1,2.7-0.4l4.2,0.1c-3.2-0.5,2.5,0-0.4-0.5
	c-5.5-0.1-6.1,0.2-11.6,0.1c-1.2,0.2,0.4,0.3-0.8,0.5c-7.8,0.3-6.1-0.8-11.8-0.4c-1.5,0.2-2.1,0.6-6.1,0.4l1.4-0.4
	c-5.3,0-3,0.5-8.6,0.3c1-0.1,4.2-0.1,3.4-0.2c-3.6-0.3-2.5,0.2-5.3,0.2l-0.6-0.3c-5.6,0.1-11.9,0.2-18.1,0.4c0.3-0.1,1.4-0.2,0-0.3
	c-7.9,0.2-16.8,0-24.5-0.2l-2.9,0.3c-0.7,0-1.3-0.1-0.5-0.2c-3-0.1-0.2,0.2-1.6,0.3c-1.7,0-2.2-0.2-1.2-0.3
	c-5.2,0.2-14.9,0.5-20.4,0.2l1.1-0.1c-4.3-0.1-4.8,0.6-8.8,0.3l0.8-0.1c-9.3-0.1-19.6,0.2-26.7-0.3c-1.4,0.4-9.2-0.2-9.8,0.4
	c-5.3-0.3-3.8-0.4-11.3-0.6H5.8c-0.1,0-0.1,0-0.1,0H5.6c-0.1,0-0.2,0.1-0.3,0.1c-0.1-0.1-0.1-0.2-0.2-0.4v-1.6l0.3-0.1l-0.3-3.4
	l0.4-1.8l-0.1-2.3c0,0.9-0.1,2-0.2,1.8c-0.1-1.8,0-4,0.1-5.8c0.1-1.8,0.2-3.1,0.3-3.1l-0.3-8.6c0.1,0.1,0.1,1,0.2,1.9
	c-0.2-3.2,0.3-0.3,0.1-4.2c-0.1,0.6-0.2-0.3-0.2-0.4c0.2-2.1,0.2-6.9,0.1-10.4l0.2,0.7c0-6.4-0.1-13.4-0.1-20.6
	c-0.1,2.6-0.5,2-0.5-0.1l0.3-0.8c-0.2-1.4-0.1,2.2-0.4-0.6c0-2.7,0.4-1.8,0.5-0.3l-0.1-3.2c0.1-0.2,0.1,0.6,0.3,0.8
	c-0.2-1.3,0.3-5.6,0-7.5l0.1-0.2c0-7.1-0.1-10.4-0.1-16.2c-0.3-0.1-0.2-2.4-0.4-4.1c0.1-4.3,0.3-9,0.3-14.2
	c-0.1-3.6-0.2-1.1-0.4-2.7c0.2-0.3,0.2-5.4,0.4-2.7c0-6.2-0.1-7.9-0.3-15.7c-0.1,0.8-0.1,1.8-0.2,1.3c0-1.3,0.1-3,0.2-3
	C4.9,81.2,6,70,5.5,63.1v0.4l-0.3-7.2c0-3.3,0.2,2,0.3-0.5C5.1,48,5.6,43.5,5.3,37C6,32,5.2,19.3,5.7,12.6L5.5,13
	c-0.2-1.7,0.1-2.1,0.1-3.4c-0.1,0.2-0.2,1.9-0.3,0.8c0-2.2,0-4.4-0.1-6.6h8.2c3.1,0,6.3,0.1,9.5,0.1C29.2,4,35.6,4.1,41.8,4.2
	c5.5,0,3.1-0.9,10.1-0.5l-2,0.3C61,3.6,72.7,4,83.6,3.7c-0.7,0.1-0.7,0.2-1.7,0.2c2.3,0.2,8.5,0,8.6-0.2c1.7,0,0.4,0.2,1.4,0.3
	c2.3,0.1,5.8-0.3,7-0.1c0.1,0-0.2,0-0.5,0.1c2-0.1,6.3,0,5-0.2c4.1,0.1,7.8-0.1,11.1,0c2.1-0.3,7,0.1,7.7-0.3
	c-0.3,0.4,7.2,0.4,9.8,0.1c-0.9,0.1,2.3,0.1,1.2,0.3c3,0,5.7-0.1,5.1-0.3c5.4,0.5,10.9-0.4,14,0.2c8.8-0.2,16.9-0.4,24.8-0.5
	c-0.3,0.4-8.7,0.1-8.4,0.5c7.5-0.2,11.8-0.6,19.2-0.5c1.9,0.1-1.1,0.2-1.7,0.3c7.4-0.2,14.3,0,20.9-0.2c-0.2-0.3,4.7-0.5,5.6-0.7
	c-1.7,0.6,6.6,0.1,3.1,0.9c0.9,0,1.9-0.1,1.7-0.3c1.3,0,1.7,0.1,0.4,0.3c4.7-0.1,3-0.3,7.3-0.3c0,0.1-0.9,0.1-1.3,0.2
	c2.2-0.2,4.3-0.4,7.9-0.3c-0.2,0.1-0.1,0.1-0.2,0.1c5.9,0,10.1-0.5,16.7-0.3c-2,0.4,2.3,0.1,2.7,0.5l3.6-0.1l-1.5-0.2
	c3.2,0,6-0.3,8.8-0.1l-2.4,0.2l6-0.1l-3.4-0.1c2.4-0.1,1-0.4,2-0.4c-2.8-0.1-3.3-0.5-1.3-0.6c0.8,0,1.2,0,1.2,0.1
	c1.1,0,2.5-0.1,1.2-0.2l-0.4,0.1c-1.7-0.1-6.4-0.1-5.3-0.3c-1.2,0-1.5,0.1-1.3,0.1c-3.2,0-5.5,0.1-9.2,0c0.7,0.1,1.4,0.2,0.7,0.2
	c-6.6-0.1-2.9,0.2-7.4,0.3c-2.5-0.2,0.9-0.4-3.6-0.3c-2.7-0.1-0.6-0.3,0.5-0.4c-4.1,0.2-7.6-0.1-10-0.2H228l1.2,0.2
	c-1.3,0-2.3,0-2.3-0.1c-1.3,0.2,1,0.4-1.6,0.6c-1.7-0.1-5.1,0.1-5.7-0.2c4.8,0.1,0.4-0.2,2.9-0.3h-2.2c-0.2,0,0.2-0.1,0.5-0.1
	c-5.1-0.3-2.3,0.4-7.6,0.3c0.6-0.2-0.7-0.3-1.6-0.3c1.4,0.1,0.3,0.3-1.4,0.4c-3.4-0.1-3.7,0.1-5.4,0.1l2,0.1
	c-0.7,0.2-2.4,0.2-4.7,0.2c-0.2-0.1,2.1-0.1,1.3-0.2c-2.6,0.3-5.9-0.3-9.5-0.1c-1.7-0.1-0.2-0.3-1.6-0.4c-4.1,0.2-4.4-0.2-8.7,0
	c1.2,0.2,1.5,0.2-1.6,0.4l7.1-0.2l-4.5,0.3c2.1,0,4.5-0.2,5.8-0.1c-2.2,0.2-1.9,0.1-0.9,0.3c-2.9-0.3-5.8,0.2-9.1,0l0.1-0.6
	c-5.1-0.3-9,0.3-15.6,0.2l2.1,0.1c-0.9,0.2-4.1,0-6.2,0.1c0.2-0.2-1.1-0.3-2-0.4c0,0.1-0.3,0.1-0.9,0.1h-0.2c-1.5,0-3.9,0-4.3,0.3
	l-2.9-0.3c-5.3-0.1-6.1,0.6-11.2,0.5c1.5-0.2-0.8-0.3,2.6-0.5c-1.7,0-3.2,0-3.3,0.1c-1-0.1-4.7,0.3-6.3,0.1c-0.7,0.1-1,0.3-2.9,0.3
	c-0.1,0-0.1-0.1,0-0.1c-0.4,0.1-2.8,0.1-1.3,0.3c-5.2-0.6-14.7,0.1-19.2-0.5c-3.7,0.1-8.2,0.1-11.6,0.1c0.2-0.1,0-0.1,0.6-0.1
	c-4.7-0.2-2.9,0.6-8.2,0.4c-2.7-0.3,2.8-0.2,1.1-0.3c-0.7-0.6-6.4,0.1-10-0.3h1c-2.7-0.2-6.6,0.2-11.1,0.2c0,0,0.2-0.1,0-0.1
	c-3,0.3-8.8,0.4-13.1,0.5c1.3-0.2,1.9-0.1,1.1-0.4c-1.9,0,0.6,0.4-3.3,0.5c-1.2-0.1-4-0.3-4.4-0.5h3.6c-1.9-0.3-4.7,0-6.6,0l0.2-0.2
	C42.7,2,42.6,2.3,36.6,2.3l0.6,0.1c-3.3,0.4-2.7-0.2-6,0.1l-1-0.4c-2.1,0.1-7.5,0.4-11.4,0.5C21,2.3,25.5,2.2,28.3,2
	c-2.1,0-7.2,0-8.3,0.2c0.9,0,1.9-0.1,2.8-0.1c-2.6,0.3-6,0.5-10.3,0.5c0.2-0.2-0.9-0.3-2.5-0.4H3.1v2.4c0,0.5,0,1-0.1,1.5
	C3,7,2.9,7.8,2.8,8.4C3.1,15.9,2.7,23.3,2.7,32c0.6-3.1,0,2.6,0.6,2v3l-0.4,6.2c-0.2,1.5-0.1-1.9-0.3-1.7c0,4.5-0.3,1.9-0.4,4.8
	c0.2-0.6,0.3,1.6,0.2,4.1l0.3-3.6C3,53,2.2,52.2,2.5,58.5l-0.2-2c0.1,3.2,0,11.9,0.5,15c-0.1,0.6-0.2,1.3-0.3-0.1
	C2.4,79.1,3,88.5,2.7,94.5l-0.1-0.6c0,1.4,0.3,2.5,0.1,4.3c-0.1-0.1-0.1-0.6-0.2,0.1c0.1,0.8,0.3,3.8,0.2,5.7l-0.2-1.6
	c-0.2,7.5,0.4,11.5,0.5,17.8c-0.4,0-0.6,5.9-0.6,8.8l-0.1-0.1c0,8.7,0.4,14.9,0.5,23c-0.5,5-0.2,17-0.4,25.1
	c0.1-1.2,0.3,0.2,0.4,1.6c-0.1,1.9,0.3,5.2-0.1,4.9v-0.7c-0.4,1.4-0.3,5.3-0.3,8.4l0.5,0.5c-0.7,8,0.3,20.9-0.4,25.2v3
	c1.1,0,2.2,0,3.4-0.1c0.7,0,1.5-0.1,2.2-0.1L8,220c5.3,0.1,8,0.1,14.6,0l-1.3,0.2c3.7,0,4.7-0.8,8.1-0.8l1,0.4c6.5,0,13,0.3,19.4,0
	c-0.1,0.1-0.3,0.2-1.3,0.2c2.9,0,11.2,0.3,10.8-0.2c0.7,0.3,6.8,0,10.1-0.2l-0.5,0.3c3-0.4,3-0.4,7.2-0.5c0.6,0,0.8,0.1,0.5,0.1
	c2.3,0,2-0.3,5.6-0.1l-1.5,0.2c3.3,0,3.1-0.1,4.9-0.3c2.1-0.1,6.4,0.1,6.8,0.3c0.5-0.2,2.3-0.4,4.3-0.3c0.3,0.1-0.5,0.2-0.8,0.2
	c5.6,0.2,8.3-0.3,12.2-0.1c0.1,0.1,0.3,0.1,0.7,0.2h-7.7c0,0.2,3.6,0.3,0.7,0.6c2.9-0.2,7.8-0.6,11.3-0.5c0.2,0,0.3,0,0.5,0.1h1.8
	c1.1,0,1.8,0.1,2.9,0.1c0.1,0.1,0.8,0.1,1.6,0.1h0.9c0,0,0,0,0,0c0,0,0,0,0,0h3.4c-0.1-0.3,2.2-0.2,0-0.5h-6.7
	c1.4-0.1,2.9-0.3,4.9-0.1c0.9-0.2,1.9-0.4,2.5-0.4c2.5,0.4,7.2,0.6,7.8,0.8c5.5-0.2,12.9-0.1,16.3-0.6c1.6-0.1,1.8,0.1,2.4,0.2
	c-0.9,0.1-2,0-2.5,0.1c3.1-0.1,9.2-0.1,10-0.4c3.9,0.2-2.2,0.3,3.2,0.3l-0.7,0.1c10.4,0.6,16.9-0.8,28.2-0.2
	c-0.3-0.1-0.5-0.1-0.6-0.1c13.4,0.3,27.6-0.3,40.8,0.2c3.8,0.1,4.2-0.1,6.5-0.3l0.8,0.3l3.9-0.3c5.6-0.3,9.6,0.7,16.7,0.2l-0.9-0.2
	c2.5,0,8-0.1,7.6,0.1c0.3,0,0.8-0.2,1.8-0.1l0.1,0.2l6.2-0.3c4.8,0.1-0.8,0.6,6.3,0.6c2.6-0.1,7.4-0.5,6.5-0.6
	c-1.1,0-2.7-0.1-2.8-0.2l2.2-0.1c0,0.1,0,0.1,0.1,0.1l0.5-0.2h-0.5C285.1,218.3,286,218,284.9,217.7z M109.2,2.3h-0.8
	c-0.2,0-0.3,0-0.5-0.1L109.2,2.3z M106.9,218.5c0.4-0.1-1.4-0.1-2.5-0.2c1-0.1,2.1,0,3.3,0C108,218.4,107.7,218.5,106.9,218.5z
	 M122.3,219.7c0.2,0,0.5,0,0.7,0.1h-1.1C122,219.8,122.2,219.7,122.3,219.7z"/>
<path d="M279.2,217.5c-1.3-0.1-2.4-0.1-3.4,0H279.2z"/>
<path d="M36.9,8.7c1.6,0,3.2,0.1,4,0.1C40.2,8.6,38.1,8.6,36.9,8.7z"/>
<path d="M284.9,210.3c0-1,0.1-2.3,0-3.4c0.1-1.3,0.2,0,0.2,0.3c0.1-4.4-0.1-9.6-0.5-6.8C284.9,204.8,284.7,205.9,284.9,210.3z"/>
<path d="M285.8,85.5c0-0.1,0.1-0.2,0.1-0.3C285.9,85.2,285.8,85.3,285.8,85.5z"/>
<path d="M285.7,160c0,0.1,0,0.2,0,0.3l0,0l0,0C285.7,160.3,285.7,160.1,285.7,160z"/>
<path d="M285.6,160.4c0-0.1,0-0.2,0-0.2l0,0V160.4z"/>
<path d="M285.7,160.3c0-0.1,0-0.2-0.1-0.1C285.7,160.3,285.7,160.3,285.7,160.3z"/>
<path d="M286,171.6L286,171.6c0,0.2,0,0.3,0,0.4V171.6z"/>
<path d="M285.8,107.6c0,0.1,0,0.2,0.1,0.3l-0.1-0.9l0,0C285.8,107.2,285.8,107.4,285.8,107.6z"/>
<path d="M286,180c0,0.3,0,0.5,0,0.8C286,180.4,286,180.1,286,180z"/>
<path d="M76.5,219.5c-0.3,0-0.6,0-0.9,0C76.1,219.5,76.4,219.5,76.5,219.5z"/>
<path d="M189.5,219.3c0.2,0,0.5,0,0.8,0C190,219.3,189.8,219.3,189.5,219.3z"/>
<polygon points="275.8,217.5 275.8,217.5 275.8,217.5 "/>
<path d="M263.3,217.4c0.3,0,0.5,0,0.8,0C263.8,217.4,263.5,217.4,263.3,217.4z"/>
<path d="M211.3,1.6c-0.1,0-0.2,0-0.2,0C211.2,1.6,211.3,1.6,211.3,1.6z"/>
<path d="M285.7,91.7c0-0.1,0-0.2,0-0.3C285.7,91.5,285.7,91.6,285.7,91.7z"/>
<path d="M211.6,1.6c-0.1,0-0.1,0-0.2,0C211.4,1.6,211.5,1.6,211.6,1.6z"/>
<path d="M284.7,41.9c0-0.4,0-0.9,0-1.3l0,0V41.9z"/>
<path d="M5.2,89.9L5.2,89.9c0,0.1,0,0.3,0,0.4V89.9z"/>
<path d="M207.2,3.4c-0.1,0-0.1,0-0.2,0l0,0C207.2,3.4,207.2,3.4,207.2,3.4z"/>
<path d="M231.6,3.3c-0.1,0-0.2,0-0.3,0C231.5,3.3,231.6,3.3,231.6,3.3z"/>
<path d="M157.6,1.8c0,0,0.1,0,0.1,0.1c0.1,0,0.1,0,0.2,0C157.8,1.8,157.7,1.8,157.6,1.8z"/>
<polygon points="4.9,215.8 5,216.5 5,215.8 "/>
<path d="M129,2.4C128.9,2.5,129,2.4,129,2.4L129,2.4z"/>
<path d="M285.7,91.2c0,0.1,0,0.1,0,0.2C285.7,91.4,285.7,91.3,285.7,91.2z"/>
<path d="M285.9,36.9c0-0.1,0-0.1,0-0.2C285.9,36.8,285.9,36.8,285.9,36.9L285.9,36.9z"/>
<path d="M264.1,2.7c0.2,0,0.5,0,0.7,0s0.3,0,0.4,0C264.7,2.7,264.3,2.7,264.1,2.7z"/>
<path d="M279.9,67.9v1C279.9,68.6,279.9,68.2,279.9,67.9z"/>
<path d="M278.8,184.2v-0.1l0,0V184v0.8c0,0,0,0,0,0.1C278.8,184.7,278.8,184.5,278.8,184.2C278.8,184.3,278.8,184.2,278.8,184.2z"/>
<path d="M279,109.5c-0.1,0.1-0.1,0.2-0.1,0.5C278.9,109.9,279,109.7,279,109.5z"/>
<path d="M278.9,139.8l-0.1-0.2C278.8,139.7,278.9,139.8,278.9,139.8z"/>
<path d="M279.4,204.4L279.4,204.4c0,0.3,0,0.6,0,1C279.4,205.1,279.4,204.8,279.4,204.4z"/>
<path d="M278.8,178.9c0,0.1,0.1,0.2,0.1,0.2L278.8,178.9z"/>
<path d="M97.3,4.5h0.5C97.7,4.4,97.5,4.4,97.3,4.5z"/>
<path d="M204.9,4c-1.3,0.1-0.4,0.1,0.5,0H204.9z"/>
<path d="M263.7,2.2c-0.6,0.1-1.1,0.1-1,0.1C263.4,2.3,263.7,2.2,263.7,2.2z"/>
<path d="M225.4,10.2h0.4C225.6,10.1,225.5,10.2,225.4,10.2z"/>
<path d="M155.8,8.2h0.1h0.1C155.9,8.2,155.9,8.2,155.8,8.2z"/>
<polygon points="276.9,8.3 280.6,8.2 280,8.2 "/>
<path d="M280.2,105.6v0.7c0,0.2,0.1,0.4,0.1,0.6L280.2,105.6z"/>
<path d="M279.7,92.1c0,0.2,0,0.3,0,0.4C279.7,92.3,279.7,92.2,279.7,92.1z"/>
<path d="M280.3,85.5c0-0.1,0.1-0.2,0.1-0.3C280.3,85.2,280.3,85.3,280.3,85.5z"/>
<path d="M284.3,183.5c0,0.1,0.1,0.2,0.1,0.2L284.3,183.5z"/>
<path d="M284.4,111.2c0-0.1,0.1-0.3,0.1-0.5C284.4,110.7,284.4,110.9,284.4,111.2z"/>
<path d="M279.9,168.5L279.9,168.5c0,0.2,0,0.3,0,0.4V168.5z"/>
<path d="M284.3,142.3c0,0.1,0.1,0.2,0.1,0.2L284.3,142.3z"/>
<path d="M279.9,176.5c0,0.3,0,0.5,0,0.8C279.9,176.9,279.9,176.7,279.9,176.5z"/>
<path d="M80.7,213.4c-0.3,0-0.5,0-0.9,0C80.2,213.4,80.5,213.4,80.7,213.4z"/>
<path d="M8,193l-0.1-1.4l0.1,2.1C8,193.5,8,193.3,8,193L8,193z"/>
<path d="M188.6,213.2c0.2,0,0.5,0,0.8,0C189.1,213.2,188.8,213.2,188.6,213.2z"/>
<path d="M207.3,8c-0.2,0-0.4,0-0.7,0C206.8,8,207,8,207.3,8z"/>
<path d="M108.5,8.6L108.5,8.6C108.6,8.6,108.6,8.6,108.5,8.6L108.5,8.6z"/>
<path d="M270.7,211.4L270.7,211.4C270.7,211.4,270.8,211.4,270.7,211.4L270.7,211.4z"/>
<polygon points="202.5,10 202.5,10 202.5,10 "/>
<path d="M225.8,9.9c-0.1,0-0.1,0-0.2,0C225.7,9.9,225.7,9.9,225.8,9.9z"/>
<path d="M278.4,128.1c0,0.3,0,0.5,0,0.9V128.1z"/>
<path d="M85.4,211.6c0.1,0,0.2,0,0.3,0C85.5,211.6,85.4,211.6,85.4,211.6z"/>
<path d="M10.2,92.2L10.2,92.2c0,0.1,0,0.3,0,0.4V92.2z"/>
<path d="M258.9,211.4c0.2,0,0.5,0,0.7,0C259.3,211.4,259.1,211.4,258.9,211.4z"/>
<path d="M284.9,210.4L284.9,210.4c0,0.3,0,0.7,0,1C284.9,211.1,284.9,210.8,284.9,210.4z"/>
</svg>
