<?xml version="1.0" encoding="utf-8"?>
<!-- Generator: Adobe Illustrator 25.2.3, SVG Export Plug-In . SVG Version: 6.00 Build 0)  -->
<svg version="1.1" id="Layer_1" xmlns="http://www.w3.org/2000/svg" xmlns:xlink="http://www.w3.org/1999/xlink" x="0px" y="0px"
	 viewBox="0 0 122.8 349.5" style="enable-background:new 0 0 122.8 349.5;" xml:space="preserve">
<path d="M15.6,345.3l1.5-0.1c0-0.1,0-0.1,0.1-0.2c0.3-0.3,0.6-0.7-0.5-0.9l-0.7-0.5c-1.8-1.2-4-1.7-6.2-1.7c-0.9,0.1-1.5,0.3-2,0.5
	c0-0.2,0.1-0.4,0-0.5c0.4-1.2,0.4-0.8,0.4-0.6v0.1c0.1-0.1,0.2-0.5,0.3-1.4v0.5c0.6-2,0.6-4,0.2-5.7c-0.3-1.4-0.7-2.7-1.3-3.9
	c0-0.2,0.1-0.4,0.1-0.5H7.2c-0.1-0.2-0.1-0.3-0.2-0.5v-0.8c-0.1-0.2-0.1-0.5-0.2-0.9v-2.3c0-1.3,0-2.6-0.3-2.8
	c0.3-3.3,0.4-2.3,0.6-6.9c0-1.2-0.4-1.8-0.5-3.3h0.3l-0.4-2.1l0.4-1.1l0.1-1.1c-0.1,0.4-0.2,0.8-0.2,0.7c-0.2-2.2,0.2-5.4,0.4-5.5
	l-0.3-5.2c0.1,0.1,0.2,0.3,0.2,0.6c-0.1-1,0.4,0.1,0.1-1.9C7.1,297.6,7,297,6.9,297c0.2-1.3,0.2-4.2,0.1-6.3l0.2,0.4
	c0.1-3.9-0.1-8.2-0.1-12.6c-0.1,1.6-0.5,1.2-0.5-0.1l0.2-0.2c-0.1,0-0.1-0.2-0.2-0.7c0-1.6,0.4-1.1,0.5-0.2l-0.1-2
	c0.1-0.1,0.2,0.3,0.3,0.5c-0.2-0.8,0.4-3.4,0-4.6l0.1-0.1c0-4.4-0.1-6.3-0.1-9.9c-0.3-0.1-0.2-1.5-0.5-2.5c0.1-2.6,0.3-5.5,0.3-8.7
	c-0.2-2.2-0.3-0.6-0.4-1.6c0.3-0.2,0.3-3.3,0.5-1.7c0-3.8-0.1-4.8-0.3-9.6c-0.1,0.5-0.2,1.1-0.3,0.8c0-0.9,0.1-1.9,0.3-1.8
	c-0.5-5.3,0.7-12.2,0.1-16.4v0.2l-0.3-4.4c0-2,0.2,1.2,0.4-0.3c-0.5-4.8,0.1-7.5-0.2-11.5c0.8-3-0.1-10.8,0.5-14.9L7.2,189
	c-0.2-1,0.1-1.2,0.1-2c-0.2,0.1-0.2,1.2-0.3,0.5c-0.2-9,0.3-18.6,0.5-27.8c0.1-3.4-1-1.9-0.5-6.2l0.4,1.2c-0.4-6.8,0-13.9-0.4-20.6
	c0.1,0.4,0.2,0.4,0.2,1.1c0.3-1.4,0-5.2-0.2-5.2c0-1,0.2-0.2,0.3-0.9c0.2-1.4-0.3-3.5-0.1-4.3c0-0.1,0.1,0.1,0.1,0.3
	c-0.1-1.2,0-3.9-0.2-3.1c0.1-2.5-0.1-4.8,0-6.8c-0.3-1.3,0.2-4.3-0.3-4.7c0.5,0.2,0.4-4.4,0.2-6c0.1,0.5,0.2-1.4,0.4-0.8
	c0-1.8-0.1-3.5-0.4-3.1c0.6-3.3-0.5-6.7,0.3-8.6C7,86.8,6.8,81.8,6.7,77c0.5,0.2,0,5.3,0.6,5.1c-0.2-4.6-0.6-7.2-0.5-11.8
	C6.9,69.1,7,71,7.1,71.4C6.9,67.4,7,63.6,6.9,60v-1.5c0,0,0.1,0.5,0.1,0.9c0-0.8,0.1-1.9-0.2-1.8l0.1,0.8c-0.3,1.2-0.7-2.6-0.9-3.2
	c0.6,1,0.2-4,1-2c0-0.5-0.1-1.2-0.3-1.1c0-0.8,0.1-1,0.3-0.2C6.9,49,6.6,50,6.6,47.4c0.1,0,0.2,0.5,0.3,0.8
	c-0.2-1.3-0.4-2.6-0.3-4.8c0.1,0.1,0.1,0.1,0.1,0.1C6.6,40,6.1,37.3,6.3,33.4c0.5,1.2,0.2-1.4,0.6-1.6l-0.1-2.2l-0.2,0.9
	c0-2-0.3-3.7-0.2-5.4l0.2,1.5l-0.1-3.7L6.3,25c-0.1-1.6-0.4-0.6-0.4-1.3c-0.1,1.7-0.5,2.1-0.6,0.8c0-0.5,0-0.7,0.1-0.7
	c0-0.7-0.1-1.6-0.2-0.7l0.1,0.3c-0.1,1-0.1,3.9-0.3,3.2c0.1,1.6,0.2,0.7,0.3-0.5c-0.2,2.7,0,4.2-0.1,6.9c0.1-0.4,0.2-0.8,0.2-0.4
	c-0.2,4,0.2,1.8,0.3,4.5c-0.2,1.6-0.5-0.6-0.3,2.2C5.3,41,5.1,39.7,5,39c0.2,2.5-0.2,4.7-0.2,6.1v0.8l0.3-0.8c0,0.8,0,1.4-0.2,1.4
	c0.2,0.8,0.4-0.6,0.7,1c-0.1,1,0.1,3.1-0.2,3.5c0.1-3.2-0.3,0.4-0.4-2.4v2c0,0.1-0.1-0.1-0.1-0.3c-0.3,3.1,0.4,1.4,0.4,4.6
	c-0.2-0.4-0.4,0.7-0.3,1.3c0-1.3,0.3-0.6,0.5,0.6c-0.2,2.1,0.1,2.2,0.1,3.3l0.1-1.2c0.2,0.4,0.2,1.4,0.2,2.9
	c-0.2,0.1-0.1-1.3-0.2-0.8c0.3,1.6-0.4,3.6-0.1,5.8c-0.1,1-0.4,0.1-0.5,1c0.3,2.5-0.3,2.7-0.1,5.3c0.3-0.8,0.2-0.9,0.5,1l-0.2-4.3
	l0.4,2.8c0-1.3-0.2-2.7-0.1-3.5c0.2,1.3,0.1,1.2,0.4,0.6c-0.4,1.8,0.2,3.5,0,5.6L4.6,75c-0.3,3.1,0.3,5.5,0.2,9.5l0.1-1.3
	c0.3,0.5,0,2.5,0.1,3.8c-0.2-0.1-0.3,0.7-0.4,1.2c0.2-0.1,0,2.9,0.4,3.3l-0.3,1.8c-0.1,3.2,0.6,3.7,0.5,6.8
	c-0.2-0.9-0.4,0.5-0.6-1.6c0,1,0,2,0.1,2c-0.1,0.6,0.3,2.9,0.1,3.8c0.1,0.4,0.3,0.6,0.3,1.8c0,0.1-0.1,0.1-0.1,0
	c0.1,0.2,0.1,1.7,0.4,0.8c-0.7,3.2,0,9-0.5,11.8c0.1,2.3,0.1,5,0.2,7.1c-0.1-0.1-0.1,0-0.1-0.4c-0.2,2.8,0.6,1.7,0.4,5
	c-0.3,1.7-0.2-1.7-0.3-0.7c-0.7,0.4,0.1,3.9-0.3,6.1v-0.5c-0.2,1.7,0.3,4.1,0.2,6.8c0,0-0.1-0.1-0.1,0c0.4,1.9,0.5,5.4,0.6,8
	c-0.3-0.8-0.1-1.2-0.4-0.7c0,1.2,0.5-0.3,0.5,2c-0.2,0.8-0.3,2.5-0.6,2.7v-2.2c-0.4,1.1,0,2.9-0.1,4l-0.2-0.1
	c0.1,3.4,0.5,3.4,0.5,7.1l0.1-0.4c0.4,2-0.2,1.7,0.1,3.7L5,166.8c0.1,1.3,0.4,4.6,0.5,7c-0.3-1.3-0.5-4.1-0.7-5.8
	c0,1.3,0,4.4,0.2,5.1c0-0.5-0.1-1.2-0.1-1.7c0.3,1.6,0.5,3.7,0.5,6.3c-0.8-0.5-0.2,6.8-0.9,8.6c0.3,4.6-0.1,9.1-0.1,14.4
	c0.7-1.9,0,1.6,0.7,1.2v1.8l-0.4,3.8c-0.2,0.9-0.1-1.2-0.3-1.1c-0.1,2.7-0.3,1.1-0.5,2.9c0.2-0.4,0.3,0.9,0.3,2.5l0.3-2.2
	c0.4,3.8-0.6,3.3-0.2,7.1l-0.2-1.2c0.1,2,0,7.3,0.5,9.2c-0.1,0.3-0.3,0.8-0.3-0.1c-0.1,4.7,0.6,10.5,0.2,14.1l-0.2-0.4
	c0,0.9,0.3,1.5,0.1,2.6c-0.1-0.1-0.2-0.4-0.2,0.1c0.1,0.5,0.3,2.3,0.2,3.5l-0.2-1c-0.2,4.6,0.4,7,0.6,10.9c-0.5,0-0.6,3.6-0.7,5.4
	L4,259.7c-0.1,5.3,0.4,9.1,0.6,14c-0.5,3.1-0.2,10.4-0.5,15.4c0.1-0.8,0.4,0.1,0.4,1c-0.1,1.2,0.3,3.2-0.1,3v-0.4
	c-0.4,0.9-0.3,3.3-0.3,5.1l0.6,0.3c-0.7,5,0.4,12.9-0.3,15.5c0.1,1.2,0.1,2.6,0.3,3.8l-0.3-0.1c-0.1,3.3-0.1,4.9,0,8.9l-0.2-0.8
	c0,2.1,0.7,2.8,0.9,4.5H4.9c0,0.1,0,0.2,0.1,0.3H4.9c0,0.1,0,0.2,0.1,0.4L4.5,331v1.5c0,0.1-0.1,0.1-0.1,0.1c-0.1,1.2-0.1,2.5,0,3.7
	c-0.1,2.2-0.1,4.4,0.1,6.5c-0.1-0.1-0.2-0.2-0.2-0.8c0,0.5,0,1.4-0.1,2.3c0-0.1-0.1-0.3-0.2-0.5c0,0.3,0.1,0.7,0.1,1.1l0,1
	c0.9,0,1.8,0.4,2.3,1.2c0.1,0.1,0.1,0.3,0.2,0.4l0.5-1.8l1.2,0.1c0.9,0,1.7,0.1,2.6,0.1c0.1,0,0.1,0,0.2,0c0.1,0.1,0.6,0.2,2.4,0.3
	c1.6-0.1,4.5-0.5,3.9-0.6C16.7,345.6,15.7,345.5,15.6,345.3z"/>
<path d="M109.4,4.9c-0.6,0.1-2.5-0.3-3.3-0.1c0.8,0,2,0.2,3.2,0.2L109.4,4.9z"/>
<path d="M114,4l-2.3,0.4C111.2,4.3,110.9,4,112,4c-1.6-0.2-1.4,0.2-2.8-0.1c-0.2,0-0.1-0.1,0.1-0.1l-1.6,0.1
	c0.3-0.1-0.3-0.3,0.7-0.3c-2.8-0.3-4.6,0.3-5.6,0c-3.6,0.2-0.2,0.3-3.1,0.7l-2-0.8l-0.4,0.3c-0.4,0-1.2,0-1.1-0.2
	c-1.5,0.2,0.3,0.1-0.6,0.4c-2-0.3-5.4,0.1-5.8-0.4c-0.7,0.3,1.9,0.2-0.2,0.4c-0.6-0.6-2.4,0.1-4.2-0.2c0.5-0.3,2.2-0.1,0.5-0.4
	c-1.1,0.5-3.5-0.1-5,0c-0.1,0.4-3.3,0.2-5.8,0.3c0.2-0.1-4.8-0.2-7.1-0.4l0.1-0.1c-0.5,0.4-2.9,0.3-4.7,0.4c0.1-0.2,0.4-0.3,1.3-0.4
	H63c-0.4,0.1-0.9,0.2-2,0.2l0.4-0.3c-2.2,0-4.5,0.4-7.3,0.2c-0.2,0.3,2.3,0.8-0.7,1c-0.1-0.2-0.2-0.4,0.6-0.5
	c-0.3,0-0.9,0.1-1.4,0.1l1.2-0.3c-1.3-0.1-0.7,0.2-1.7,0.2c0-0.2-0.8-0.2-0.6-0.3c0.3,0,0.9,0.1,1.3,0c-1.2,0-2.6-0.2-3-0.3
	c0.1,0.1,0,0.3-0.9,0.3c-2.2,0-0.8-0.3-2-0.4c-0.5,0.2-1.9,0-2,0.3c-0.6,0-0.8-0.2-1-0.2c-1.1,0.1-5.3,0-4.1,0.4h0.1
	c-3.8,0.3-7.8-0.2-11.5,0V3.5c-2.2,0.1-4.9,0.1-6.5,0.3c-0.7,0-1.6-0.2-1.3-0.3c-1.7,0.1-1.9,0.2-4.3,0c1.7-0.2-0.6-0.2,1.8-0.1
	c-2.2-0.1-2.7-0.3-5.1,0c0.8-0.3-1.7-0.3-2.7-0.3l1.5,0.2H8.5l0.6-0.4c-0.3,0-0.5,0-0.8-0.1H4.9c0,0.7,0,1.3,0.1,2v1.6
	c0.1,0.8,0.1,1.5,0.2,2.2C5.3,10,5.3,11.4,5,12.7c0.3,1.2,0.2-2.5,0.5-1.4c0,2.1-0.6,4.2-0.6,4.9c-0.2,2.8,0.5,2.7,0.4,5.6
	c0.1-0.4,0.5-0.7,0.6,1.2v-0.4c0,0.5,0-2,0.2-3c-0.1-1-0.3-2-0.2-3.4c0.1-0.4,0.5,0.3,0.5,0.1c-0.3-1-0.1-4.6-0.5-5.8
	c0.1,0.4,0.3,0.4,0.3,0.3L5.9,10C6,9.1,6,9,6.2,9.1C6.3,6.4,5.7,10,5.9,6.7C5.9,7,6,6.8,6,7.4V4.6c0.8,0,1.6,0,2.4-0.1h2.9
	c0.9,0.4-2.6,0.1-1.6,0.4c4.3-0.1,8.9-0.5,13-0.4h-0.8c0.6-0.6,3.1,0.3,5.2,0c-0.5,0-0.7,0.3-0.5,0.3c2.8,0.1,5.8-0.1,10.1-0.3
	l-0.5,0.1c1.7,0.1,4.4,0.1,6.2,0.1c0.5-0.1,1.6-0.1,0.9-0.3C48.9,5.2,54,3.9,58.9,4.6c-0.6,0-1.4,0.1-0.9,0.1l4.2-0.1
	c-0.3-0.3-0.6-0.2-1.4-0.3C61.3,4.2,62.5,4,63.6,4c-1.9,0.2,0,0.4,0.8,0.5c-0.1-0.1,0.1-0.2,0.1-0.2c2.2,0.4,0.4-0.5,3.4-0.2
	l-0.2,0.1C68.8,4.1,69.9,4,71.1,4c0.5,0.3-1.2,0.1-1.3,0.4c1.7,0,3.4-0.6,4.9-0.3c-0.7,0.1-1.8,0.1-2.5,0.2c1.7,0.3,1.9,0.3,3.1,0.3
	h-0.1l2.9,0.2l-0.7-0.1c2.1-0.8,4.3-0.1,7.2-0.6c-2.8,0.5-0.5,0.3-0.7,0.6c0.7,0.1,1.9,0.2,1.5,0.3c1.4-0.3,2.3,0.2,4.2-0.2
	c0.1,0.1,1.5,0,1.1,0.3c1.8-0.1-0.4-0.2-0.3-0.3c2.7-0.4,6.4,0.4,10.3-0.1c3.4-0.2,4-0.6,7.1-0.7c1.1,0.2-0.9,0.4-0.9,0.4
	c1.7,0.2,3,0.1,4.6,0c-0.3,0.1,0,0.2,0.5,0.3c0.8,0,1-0.1,1.3-0.2c-0.1,0-0.1,0-0.2,0L114,4z"/>
<path d="M119.9,4.4c-1-0.5-3.6-0.1-5.7,0.1h0.4c-0.3,0.1-0.7,0.3-1.3,0.4c1.5-0.1,3-0.3,4.6-0.4c0.4,0.2-1,0.3-1.5,0.4
	c1-0.1,2.3-0.1,3.3-0.2c-0.6,0-0.9-0.2-0.9-0.2L119.9,4.4z"/>
<path d="M6.7,43.5c0,0.1,0,0.1,0,0.2C6.7,43.6,6.7,43.5,6.7,43.5z"/>
<path d="M6.9,236.1L6.9,236.1c0,0.1,0,0.1,0,0.2V236.1z"/>
<path d="M6.9,59.6c0,0.1,0,0.3,0,0.4C7,60.2,7,59.9,6.9,59.6z"/>
<path d="M7,308.6c0-0.1,0-0.3,0-0.4V308.6z"/>
<path d="M7.1,299.8c0-0.2,0-0.4,0-0.6C7.1,299.3,7.1,299.5,7.1,299.8z"/>
<path d="M6.8,278.1L6.8,278.1C6.8,278.2,6.8,278.2,6.8,278.1z"/>
<path d="M17.5,345h-0.3c0,0.1-0.1,0.1-0.1,0.2L17.5,345z"/>
<path d="M102.8,3.6L102.8,3.6c0.1,0,0.1,0,0.2,0H102.8z"/>
<path d="M4.9,103.5c0,0.1-0.1,0.2,0,0.3V103.5z"/>
<path d="M7.3,333.2c0,0.1,0.1,0.1,0.1,0.2v-0.1c0,0,0-0.1,0-0.2c-0.1-0.1-0.1-0.1-0.1-0.2V333.2z"/>
<path d="M5.9,23.7c0-0.1,0-0.3,0-0.4c0-0.1,0-0.2,0-0.3C5.9,23.4,5.9,23.6,5.9,23.7z"/>
<path d="M76.1,4.6c-0.1,0-0.2,0-0.3,0H76.1z"/>
<path d="M84.3,4.6L84.3,4.6C84.3,4.7,84.3,4.6,84.3,4.6z"/>
<path d="M4.8,119c0.1-0.1,0.1-0.2,0.1-0.3v-0.5L4.8,119z"/>
<path d="M4.8,45c0-0.4,0-0.7-0.1-1.2L4.8,45z"/>
<path d="M4.3,50.1C4.2,49.6,4.2,49.9,4.3,50.1L4.3,50.1z"/>
<path d="M4.7,32.9c-0.1,0.2-0.1,0.4,0,0.5V32.9z"/>
<path d="M4.4,88.6c0.1-0.1,0.1-0.2,0.1-0.4C4.5,88.2,4.5,88.3,4.4,88.6z"/>
<path d="M49.5,3.1c-0.1,0-0.1-0.1-0.2-0.1C49.3,3,49.3,3.1,49.5,3.1z"/>
<path d="M63.2,3l-0.8,0.1h0.4C63,3.1,63.1,3.1,63.2,3z"/>
<path d="M5.1,24.3c0-0.4-0.1-0.6-0.1-0.6C5,24.1,5,24.4,5.1,24.3z"/>
<polygon points="7.1,313.2 7.1,312.8 7,312.8 "/>
<path d="M4.8,60.7c0.1-0.3,0.1-0.5,0-0.7V60.7z"/>
<path d="M65,4.6c0,0-0.1,0-0.2-0.1C64.8,4.5,64.9,4.6,65,4.6z"/>
<path d="M65.1,4.6C65.1,4.6,65.1,4.6,65.1,4.6L65.1,4.6z"/>
<path d="M113.2,4.8V4.7c-0.1,0-0.3,0.1-0.5,0.1H113.2z"/>
</svg>
