<?xml version="1.0" encoding="utf-8"?>
<!-- Generator: Adobe Illustrator 25.2.3, SVG Export Plug-In . SVG Version: 6.00 Build 0)  -->
<svg version="1.1" id="Layer_1" xmlns="http://www.w3.org/2000/svg" xmlns:xlink="http://www.w3.org/1999/xlink" x="0px" y="0px"
	 viewBox="0 0 139.4 351.3" style="enable-background:new 0 0 139.4 351.3;" xml:space="preserve">
<g>
	<path d="M137,54.2c0.1-4.4-0.4-7.4-0.6-11.5c0.5-2.5,0.2-8.5,0.5-12.5c-0.1,0.6-0.4-0.1-0.4-0.8c0.1-0.9-0.3-2.6,0.1-2.5v0.3
		c0.4-0.7,0.3-2.7,0.3-4.2l-0.6-0.3c0.8-4-0.3-10.4,0.5-12.6c-0.1-1-0.1-2.1-0.3-3.1l0.3,0.1c0-1.3,0-2.4,0.1-3.3H130l0.7-0.2
		c-1.9,0-2.3,0.9-4,0.9L126.2,4c-3.2,0-6.5-0.4-9.7,0c0.1-0.1,0.1-0.2,0.7-0.2c-1.5,0-5.9-0.3-5.3,0.3c0-0.4-3.3,0-5.1,0.1l0.3-0.3
		c-1.5,0.4-1.5,0.5-3.6,0.6c-0.5,0-0.4-0.2,0.2-0.2c-1.6-0.2-1.3,0.3-3.2,0.1l0.7-0.2c-1.7,0-1.5,0.1-2.5,0.3
		c-1.1,0.1-3.2-0.1-3.4-0.4c-0.2,0.2-1.1,0.4-2.1,0.3c-0.1-0.1,0.2-0.2,0.4-0.2c-2.8-0.2-4.2,0.4-6.1,0.1c0-0.1-0.2-0.2-0.3-0.2
		c2.2,0,4,0,3.8,0c0-0.3-1.8-0.3-0.4-0.7c-1.4,0.2-3.9,0.7-5.6,0.5c-0.1,0-0.2-0.1-0.2-0.1h-0.9c-0.6,0-0.9-0.1-1.4-0.1
		c-0.2-0.2-2.1-0.1-2.9-0.1c0.1,0.3-1.1,0.3,0,0.5h3.3c-0.3,0.1-0.6,0.2-0.9,0.2h-1c-0.1,0-0.3-0.1-0.5-0.1c-0.5,0.2-1,0.4-1.2,0.5
		c-1.2-0.4-3.6-0.7-3.9-0.9C72.7,4,69,3.9,67.3,4.5c-0.8,0.1-0.9-0.2-1.2-0.3c0.4-0.1,1,0,1.2-0.1c-1.6,0.1-4.6,0.1-5,0.5
		c-2-0.2,1.1-0.4-1.6-0.3l0.4-0.1c-5.3-0.6-8.6,1-14.5,0.2c0.2,0.1,0.4,0.1,0.5,0.1c-6.6-0.4-13.7,0.3-20.2-0.2
		c-1.9-0.1-2.1,0.1-3.2,0.3l-0.4-0.3l-2,0.4C18.5,5,16.5,3.9,13,4.4l0.5,0.2c-1,0-2.7,0.1-3.5,0C9.5,4.7,9,4.8,8.5,4.8
		c-0.3,0-0.6,0.1-1,0.1c0,0,0,0,0,0H7.3v0c-0.5,0-1,0-1.5-0.1c0,0.1,0,0.1,0,0.2H5.6C5.4,5,5.3,5,5.2,5c0.1,1.1,0.2,2.2,0.3,3.3
		c0.4,0.1,0.9,0.1,1.3,0.1c0.1,0,0.1,0,0.2,0c0.1-0.1,0-0.1-0.2-0.2c0-0.1,0.1-0.1,0.1-0.2C7,8,7.1,8,7.3,7.9c1,0.2,0.7,0.4,1.8,0.2
		C9.3,8.2,9,8.3,8.6,8.4c1-0.2,2.7-0.1,3.2-0.3c1,0.3,3.4-0.1,3.3,0.4c0.3-0.1,1.8-0.4,2.7-0.4c-1.7,0.6,3.5,0,3,0.7
		c1.3-0.5,4.6-0.2,6.8-0.5c-0.1,0-0.4,0.1-0.6,0.1c1.3,0,1.6,0.2,2.4,0.3c0.2-0.4,2.1-0.5,3.2-0.8c1.5,0.4-0.9,0.5-0.5,0.9
		c-0.1-0.3,2.7-0.3,2.2-0.6c1.2,0.3,1,0.1,1.6,0.5C36.1,8.2,37,8.6,38,8.3c1.7,0.3,0.4,0.5,2.3,0.3C41.2,8.8,39.5,9,39.5,9
		c1.9,0,0.9-0.4,1.3-0.6c2.3-0.1,1.1,0.3,1.8,0.5c1.4-0.1,2.5-0.5,3.6-0.5c0.1,0.1,0.3,0.1,0,0.2c1.5-0.3,4.5,0,6.2-0.4
		c0.1,0,0.2,0.1,0.2,0.1c-0.3-0.2-0.3-0.4-0.3-0.6c0.9,0,1.6-0.3,1.9,0c-0.5,0-0.6,0.1-0.8,0.2l0.9-0.1c0.8,0.4-1.2,0.1-1.2,0.4
		c1.8-0.1,3.8-0.4,5.1-0.3c0.3,0.4-3.1,0.1-1.3,0.5l-2.1-0.1c1.6,0.6-1.3,0,0.2,0.6c2.7,0.1,3.1-0.2,5.8-0.1
		c0.6-0.2-0.2-0.3,0.4-0.5c3.9-0.4,3.1,0.9,5.9,0.4c0.7-0.2,1-0.7,3.1-0.5l-0.7,0.4c2.6,0,1.5-0.6,4.3-0.3c-0.5,0.2-2.1,0.1-1.7,0.2
		c1.8,0.3,1.3-0.2,2.7-0.2l0.3,0.4c2.8-0.1,5.9-0.3,9-0.4c-0.2,0.1-0.7,0.2,0,0.3c3.9-0.2,8.4,0,12.2,0.3l1.5-0.3
		c0.3,0,0.6,0.1,0.3,0.2c1.5,0.1,0.1-0.2,0.8-0.3c0.8,0,1.1,0.2,0.6,0.3c2.6-0.3,7.4-0.6,10.2-0.2l-0.5,0.1c2.1,0.1,2.4-0.7,4.4-0.4
		l-0.4,0.1c4.7,0.1,9.8-0.2,13.3,0.3c0.7-0.5,4.6,0.2,4.9-0.4c0.4,0.1,0.7,0.1,1,0.1c0.2,0,0.2,0.1,0.3,0.1c0.1,0.1,0.2,0.1,0.3,0.2
		c0,0.1-0.1,0.2-0.1,0.4c0,0.1,0,0.1-0.1,0.2c0,0.3,0,0.6-0.1,1c0,1,0.4,1.5,0.5,2.7h-0.3l0.3,1.7l-0.4,0.9l0.1,1.2
		c0-0.5,0.2-1,0.2-0.9c0.1,1.8-0.2,4.4-0.4,4.5l0.3,4.3c-0.1-0.1-0.2-0.3-0.2-0.5c0,0.7-0.4-0.1-0.1,1.6c0.1-0.3,0.2,0.2,0.3,0.2
		c-0.2,1-0.2,3.4-0.1,5.2l-0.2-0.3c-0.1,3.2,0.1,6.7,0.1,10.3c0.1-1.3,0.5-1,0.5,0.1l-0.2,0.2c0.1,0,0.1,0.1,0.2,0.5
		c0,1.3-0.4,0.9-0.5,0.1l0.1,1.6c-0.1,0.1-0.2-0.3-0.3-0.4c0.2,0.7-0.4,2.8,0,3.8l-0.1,0.1c0,3.6,0.1,5.2,0.1,8.1
		c0.3,0.1,0.2,1.2,0.5,2.1c-0.1,2.1-0.3,4.5-0.3,7.1c0.1,1.8,0.3,0.5,0.4,1.3c-0.3,0.1-0.3,2.7-0.5,1.4c0,3.1,0,3.9,0.3,7.8
		c0.1-0.4,0.2-0.9,0.3-0.7c0,0.7-0.1,1.6-0.3,1.5c0.4,4.4-0.8,10-0.3,13.4V89l0.3,3.6c-0.1,1.7-0.2-1-0.4,0.2
		c0.5,3.9-0.1,6.2,0.2,9.4c-0.8,2.5,0,8.8-0.5,12.2l0.2-0.2c0.2,0.9-0.1,1-0.2,1.7c0.2-0.1,0.2-0.9,0.3-0.4
		c0.2,7.3-0.3,15.2-0.5,22.7c-0.1,2.8,1,1.6,0.5,5l-0.4-1c0.4,5.6,0,11.4,0.3,16.8c-0.1-0.3-0.2-0.3-0.2-0.9c-0.3,1.1,0,4.2,0.2,4.3
		c0,0.8-0.2,0.2-0.3,0.7c-0.2,1.2,0.3,2.9,0.1,3.5c0,0.1-0.1-0.1-0.1-0.3c0.1,1,0,3.2,0.2,2.5c-0.1,2,0.1,3.9-0.1,5.5
		c0.3,1.1-0.2,3.5,0.3,3.8c-0.5-0.1-0.4,3.6-0.2,4.9c-0.1-0.4-0.2,1.1-0.4,0.6c0,1.5,0.1,2.8,0.3,2.6c-0.6,2.7,0.5,5.5-0.3,7
		c0.3,4.4,0.4,8.4,0.5,12.4c-0.5-0.1,0-4.4-0.6-4.2c0.2,3.7,0.6,5.9,0.5,9.6c-0.1,1-0.2-0.5-0.3-0.9c0.2,3.5-0.1,7,0.2,10.2
		c0,0,0,0,0,0.1c0,0,0,0,0,0c0,0,0,0.1,0,0.1c0.3-0.1,0.6,2.8,0.7,2.9c-0.6-1.1-0.2,3.3-1,1.5c0,0.4,0.1,1,0.3,0.9
		c0,0.6-0.1,0.8-0.3,0.2c0.1,2.3,0.4,1.5,0.3,3.6c-0.1,0-0.1-0.4-0.3-0.7c0.2,1.1,0.4,2.2,0.3,4c-0.1-0.1-0.1,0-0.1-0.1
		c0,2.9,0.5,5,0.3,8.3c-0.5-1-0.2,1.1-0.6,1.3l0.1,1.8l0.2-0.7c0,1.6,0.3,3,0.1,4.4l-0.2-1.2l0.1,3l0.2-1.7c0.2,1.6,0.5-0.2,0.4,1.9
		c0-0.4,0,1.6-0.3,2.4c0.1,0.8,0.3,1.6,0.2,2.8c-0.1,0.3-0.5-0.2-0.5,0c0.3,0.8,0.1,3.7,0.4,4.7c-0.1-0.3-0.3-0.3-0.3-0.2l0.3,0.7
		c-0.1,0.7-0.1,0.8-0.3,0.7c-0.1,2.2,0.5-0.7,0.3,1.9c0-0.2-0.1-0.1-0.1-0.5c-0.1,2.6,0.2,5.1,0,7.5c-0.4,0.7-0.1-2.1-0.4-1.3
		c0.1,3.5,0.5,7.3,0.4,10.7v-0.6c0.6,0.5-0.3,2.5,0,4.2c0-0.4-0.3-0.6-0.3-0.4c-0.1,2.3,0.1,4.7,0.3,8.3l-0.1-0.4
		c-0.1,1.4-0.1,3.6-0.2,5.1c0.1,0.4,0.1,1.3,0.3,0.8c-0.9,4.6,0.4,8.7-0.3,12.7c0-0.5-0.1-1.2-0.1-0.8l0.1,3.4
		c0.3-0.3,0.2-0.5,0.4-1.2c0.1,0.4,0.3,1.4,0.3,2.3c-0.2-1.5-0.4,0-0.5,0.7c0.1-0.1,0.2,0.1,0.2,0.1c-0.5,1.8,0.5,0.3,0.2,2.8
		l-0.1-0.1c0.1,0.9,0.2,1.8,0.2,2.8c-0.3,0.4-0.1-1-0.4-1c0,1.4,0.5,2.7,0.3,4c-0.1-0.6-0.1-1.4-0.2-2c-0.3,1.4-0.3,1.5-0.3,2.6
		v-0.1l-0.2,2.4l0.1-0.6c0.8,1.7,0.1,3.6,0.6,5.9c-0.5-2.3-0.3-0.4-0.6-0.6c-0.1,0.6-0.2,1.5-0.3,1.3c0.3,1.1-0.2,1.9,0.2,3.4
		c-0.1,0.1,0,1.2-0.3,0.9c0.1,1.4,0.2-0.3,0.3-0.2c0.4,2.2-0.5,5.2,0,8.4c0.1,1.3,0.2,2.1,0.3,2.8c0.1,0.8,0.3,1.3,0.3,2.5h-0.5
		c-0.7-0.1-0.1-0.3,0.2-0.4v-0.1c-0.6-0.1-1-0.1-1.4-0.1c-0.4,0-0.8,0-1.2,0c0.3,0.1,0.5,0.4-0.3,0.4c0.7,0.1,1,0.1,1.2,0.1
		c0.3,0,0.5-0.1,1.2,0.1c0.2,0,0.1,0.1,0,0.1l1.1-0.1v-0.3c0.1,0.3,0.2,0.1,0.3,0.5h0.1v-2.1c0-0.4-0.1-0.7-0.1-1v-0.4
		c0,0-0.1,0-0.1,0c-0.1,0-0.2,0-0.2,0v-0.1h0.2v0h0c0-0.5,0-0.8,0.1-1.1c-0.1-2.9-0.3-0.1-0.7-2.5l0.8-1.6l-0.3-0.3
		c0-0.3,0-1,0.2-0.9c-0.2-1.2-0.1,0.2-0.4-0.5c0.3-1.6-0.1-4.4,0.4-4.8c-0.3-0.6-0.2,1.5-0.4-0.2c0.6-0.5-0.1-2,0.2-3.4
		c0.3,0.4,0.1,1.8,0.4,0.4c-0.5-0.9,0.1-2.8,0-4.1c-0.4-0.1-0.2-2.7-0.3-4.7c0.1,0.1,0.2-3.9,0.4-5.8l0.1,0.1
		c-0.4-0.4-0.3-2.4-0.4-3.8c0.2,0.1,0.3,0.3,0.4,1.1v-1.4c-0.1-0.3-0.2-0.7-0.2-1.6l0.3,0.3c0-1.8-0.3-3.6-0.1-6
		c-0.3-0.1-0.8,1.8-1-0.6c0.2-0.1,0.4-0.2,0.5,0.5c0-0.2-0.1-0.8-0.1-1.2l0.3,1c0.1-1.1-0.2-0.6-0.2-1.4c0.2,0,0.2-0.6,0.3-0.5
		c0,0.2-0.1,0.7,0,1.1c0-1,0.2-2.1,0.3-2.5c-0.1,0.1-0.3,0-0.3-0.7c0-1.8,0.3-0.6,0.4-1.7c-0.1-0.4,0-1.6-0.3-1.6
		c0-0.5,0.2-0.6,0.2-0.8c-0.1-0.9,0-4.4-0.4-3.3c-0.3-3.1,0.2-6.4,0.1-9.4h0.1c-0.1-1.8-0.1-4-0.3-5.3c0-0.5,0.2-1.3,0.3-1
		c-0.1-1.4-0.2-1.5,0-3.5c0.1,0.6,0.2,0.6,0.2,0.5c0,0.1-0.1,0.3-0.1,0.9c0.1-0.3,0.1-0.6,0.1-0.9c0.1-1.1,0.1-1.7-0.1-3.2
		c0.3,0.7,0.4-1.4,0.3-2.2l-0.2,1.3v-2.7l0.4,0.5c0.5-3.7-0.7-6.7,0-9.5c-0.3-1-0.2,2-0.5,1.1c0.1-1.7,0.6-3.5,0.6-4
		c0.2-2.3-0.5-2.2-0.4-4.6c-0.1,0.3-0.5,0.6-0.6-1.2c0.1-1.7,0.5-2.1,0.6-1c0,0.4,0,0.6-0.1,0.6c0,0.5,0.1,1.3,0.2,0.6l-0.1-0.2
		c0.1-0.8,0.1-3.2,0.3-2.6c-0.1-1.3-0.2-0.5-0.3,0.4c0.2-2.2,0-3.4,0.1-5.6c-0.1,0.4-0.2,0.7-0.2,0.3c0.2-3.3-0.2-1.4-0.3-3.7
		c0.2-1.3,0.5,0.5,0.3-1.8c0.1-1.4,0.3-0.3,0.4,0.3c-0.2-2,0.2-3.8,0.2-5v-0.6l1.7-1.6c0-0.6,0-1.2,0.2-1.2
		c-0.2-0.7-0.4,0.5-0.7-0.8c0.1-0.8-0.1-2.6,0.2-2.9c-0.1,2.6,0.3-0.3,0.4,1.9v-1.6c0-0.1,0.1,0.1,0.1,0.3c0.3-2.5-0.4-1.2-0.4-3.8
		c0.2,0.3,0.4-0.6,0.3-1c0,1.1-0.3,0.5-0.5-0.5c0.2-1.7-0.1-1.8-0.1-2.7l-0.1,1c-0.2-0.3-0.2-1.2-0.2-2.4c0.2-0.1,0.1,1.1,0.2,0.6
		c-0.3-1.3,0.4-2.9,0.1-4.8c0.1-0.8,0.4-0.1,0.5-0.8c-0.2-2,0.3-2.2,0.1-4.3c-0.3,0.6-0.2,0.7-0.4-0.8l0.2,3.5l-0.4-2.3
		c0,1.1,0.2,2.2,0.1,2.9c-0.2-1.1-0.1-1-0.4-0.5c0.4-1.5-0.2-2.9,0-4.6l0.6,0.1c0.3-2.5-0.3-4.5-0.2-7.8l-0.1,1.1
		c-0.3-0.4,0-2-0.1-3.1c0.2,0.1,0.3-0.6,0.4-1c-0.2,0.1,0-2.4-0.4-2.7l0.3-1.5c0.1-2.6-0.6-3-0.5-5.6c0.2,0.8,0.4-0.4,0.6,1.3
		c0-0.9,0-1.6-0.1-1.6c0.1-0.5-0.3-2.4-0.1-3.1c-0.1-0.4-0.3-0.5-0.3-1.4c0-0.1,0.1,0,0.1,0c-0.1,0-0.1-1.5-0.4-0.7
		c0.7-2.6,0-7.3,0.6-9.6c-0.1-1.9-0.1-4.1-0.1-5.8c0.1,0.1,0.1,0,0.1,0.3c0.2-2.3-0.6-1.4-0.4-4.1c0.4-1.3,0.2,1.4,0.3,0.6
		c0.7-0.4-0.1-3.2,0.3-5v0.4c0.2-1.4-0.3-3.3-0.2-5.5c0,0,0.1,0.1,0.1,0c-0.4-1.5-0.5-4.4-0.6-6.5c0.3,0.7,0.1,1,0.4,0.6
		c0-1-0.5,0.3-0.5-1.6c0.2-0.6,0.3-2,0.6-2.2v1.8c0.4-0.9,0-2.3,0.1-3.3l0.2,0.1c0-2.8-0.5-2.8-0.4-5.8l-0.1,0.3
		c-0.4-1.6,0.2-1.4-0.1-3l0.4-0.5c-0.1-1.1-0.4-3.8-0.5-5.7c0.3,1.1,0.5,3.3,0.7,4.7c0-1.1,0-3.6-0.2-4.2c0,0.4,0.1,1,0.1,1.4
		c-0.3-1.3-0.5-3-0.5-5.1c0.8,0.4,0.2-5.5,0.9-7c-0.3-3.7,0.1-7.4,0.1-11.8c-0.7,1.5,0-1.3-0.7-1v-1.5l0.4-3.1
		c0.2-0.7,0.1,1,0.3,0.9c0.1-2.2,0.3-0.9,0.5-2.4c-0.2,0.3-0.3-0.8-0.2-2l-0.3,1.8c-0.3-3.1,0.6-2.7,0.2-5.8l0.2,1
		c-0.1-1.6,0-5.9-0.5-7.5c0.1-0.3,0.3-0.7,0.3,0c0.1-3.8-0.6-8.6-0.2-11.5l0.2,0.3c0-0.7-0.3-1.2-0.1-2.1c0.1,0,0.2,0.3,0.2,0
		c-0.1-0.4-0.3-1.9-0.2-2.9l0.2,0.8c0.2-3.7-0.4-5.8-0.5-8.9C136.7,58.5,136.8,55.6,137,54.2z M53.9,6.5c0.1,0.1,0.3,0.2,0.6,0.3
		C52.2,6.8,54.1,6.7,53.9,6.5z M87.5,6.3c-0.1-0.1,0-0.2,0.4-0.2c-0.2,0.1,0.7,0.1,1.2,0.2H87.5z M134,264.6l0.1,1.3l-0.3-0.4
		L134,264.6z M133.5,173.4l0.1-1.3c0,0.1,0.1,0.2,0.1,0.2C133.7,172.7,133.6,173.1,133.5,173.4z"/>
	<path d="M135.8,181.2v0.8C135.9,181.6,135.9,181.4,135.8,181.2z"/>
	<path d="M135.8,169.5v0.4l0.1-0.6C135.8,169.3,135.8,169.4,135.8,169.5z"/>
	<path d="M135.8,216.9c-0.1,0.2-0.1,0.4,0,0.6V216.9z"/>
	<path d="M136.1,194.4c0,0,0.1-0.1,0.1-0.3C136.2,194.1,136.1,194.3,136.1,194.4z"/>
	<path d="M7.6,6.4C7.5,6.4,7.6,6.5,7.6,6.4L7.6,6.4z"/>
	<path d="M16.1,6.8C16,6.8,16,6.9,16.1,6.8L16.1,6.8z"/>
	<path d="M80.4,4.5H80c0,0-0.1,0-0.2,0c0.2,0.1,0.3,0.1,0.4,0.1S80.3,4.5,80.4,4.5z"/>
	<path d="M133.7,217.7c-0.1-0.7-0.1-0.2,0,0.3V217.7z"/>
	<polygon points="134,11.1 133.9,10.8 134,11.1 	"/>
	<path d="M132.3,220.5L132.3,220.5C132.3,220.4,132.3,220.4,132.3,220.5L132.3,220.5z"/>
	<path d="M132.8,23.6c0,0.2,0,0.4,0,0.5C132.8,24,132.8,23.8,132.8,23.6z"/>
	<path d="M132.2,232.7v-0.1C132.2,232.7,132.2,232.7,132.2,232.7z"/>
	<path d="M133.1,41.4L133.1,41.4C133.1,41.3,133.1,41.4,133.1,41.4z"/>
	<path d="M133,75.7L133,75.7c0-0.1,0-0.1,0-0.2V75.7z"/>
	<path d="M136.3,225.5C136.4,225.9,136.4,225.7,136.3,225.5L136.3,225.5z"/>
	<polygon points="136.1,259.1 136.1,258.7 136,257.5 	"/>
	<path d="M135.6,247c0-0.3-0.1-0.5-0.1-0.5C135.5,246.8,135.6,247,135.6,247z"/>
	<path d="M134.4,232c0,0.3,0,0.6,0.1,1L134.4,232z"/>
	<path d="M133.3,344.2L133.3,344.2c0,0.1,0,0.1,0,0.2V344.2z"/>
	<path d="M134.1,311.4C134.1,311.4,134.1,311.3,134.1,311.4C134.1,311.3,134.1,311.4,134.1,311.4z"/>
	<path d="M135.5,309.7c0,0.1,0,0.2,0.1,0.3l-0.1-0.7V309.7z"/>
	<path d="M135.6,298.7c0,0,0,0-0.1,0.1C135.5,298.8,135.6,298.8,135.6,298.7z"/>
	<path d="M134.1,311.4c0,0-0.1,0.1-0.1,0.2C134,311.6,134,311.5,134.1,311.4z"/>
	<path d="M129.6,345.5h0.6C130,345.4,129.8,345.5,129.6,345.5z"/>
	<path d="M133.9,320.2l-0.1,1.3C133.9,321,133.9,320.6,133.9,320.2z"/>
	<polygon points="136.7,21 136.8,21.8 136.7,20.4 	"/>
	<path d="M133.9,327.3L133.9,327.3C133.8,327.3,133.9,327.3,133.9,327.3z"/>
</g>
</svg>
