<svg xmlns="http://www.w3.org/2000/svg" xml:space="preserve" viewBox="0 0 139.4 351.3"><path d="M137 54.2c.1-4.4-.4-7.4-.6-11.5.5-2.5.2-8.5.5-12.5-.1.6-.4-.1-.4-.8.1-.9-.3-2.6.1-2.5v.3c.4-.7.3-2.7.3-4.2l-.6-.3c.8-4-.3-10.4.5-12.6q0-1.5-.3-3.1l.3.1.1-3.3H130l.7-.2c-1.9 0-2.3.9-4 .9l-.5-.5c-3.2 0-6.5-.4-9.7 0q0-.2.7-.2c-1.5 0-5.9-.3-5.3.3 0-.4-3.3 0-5.1.1l.3-.3c-1.5.4-1.5.5-3.6.6q-.7-.1.2-.2c-1.6-.2-1.3.3-3.2.1l.7-.2c-1.7 0-1.5.1-2.5.3-1.1.1-3.2-.1-3.4-.4q-.5.4-2.1.3 0-.2.4-.2c-2.8-.2-4.2.4-6.1.1l-.3-.2H91c0-.3-1.8-.3-.4-.7-1.4.2-3.9.7-5.6.5l-.2-.1h-.9l-1.4-.1c-.2-.2-2.1-.1-2.9-.1.1.3-1.1.3 0 .5h3.3l-.9.2h-1l-.5-.1-1.2.5c-1.2-.4-3.6-.7-3.9-.9-2.7.2-6.4.1-8.1.7-.8.1-.9-.2-1.2-.3l1.2-.1c-1.6.1-4.6.1-5 .5-2-.2 1.1-.4-1.6-.3l.4-.1c-5.3-.6-8.6 1-14.5.2l.5.1c-6.6-.4-13.7.3-20.2-.2-1.9-.1-2.1.1-3.2.3l-.4-.3-2 .4c-2.8.3-4.8-.8-8.3-.3l.5.2H10l-1.5.2-1 .1h-.2l-1.5-.1V5h-.6l.3 3.3 1.3.1H7q.1-.1-.2-.2l.1-.2.4-.1c1 .2.7.4 1.8.2q.2.1-.5.3c1-.2 2.7-.1 3.2-.3 1 .3 3.4-.1 3.3.4l2.7-.4c-1.7.6 3.5 0 3 .7 1.3-.5 4.6-.2 6.8-.5l-.6.1c1.3 0 1.6.2 2.4.3.2-.4 2.1-.5 3.2-.8 1.5.4-.9.5-.5.9-.1-.3 2.7-.3 2.2-.6 1.2.3 1 .1 1.6.5.2-.5 1.1-.1 2.1-.4 1.7.3.4.5 2.3.3.9.2-.8.4-.8.4 1.9 0 .9-.4 1.3-.6 2.3-.1 1.1.3 1.8.5l3.6-.5q.3.1 0 .2c1.5-.3 4.5 0 6.2-.4l.2.1q-.4-.3-.3-.6c.9 0 1.6-.3 1.9 0q-.6 0-.8.2l.9-.1c.8.4-1.2.1-1.2.4 1.8-.1 3.8-.4 5.1-.3.3.4-3.1.1-1.3.5l-2.1-.1c1.6.6-1.3 0 .2.6 2.7.1 3.1-.2 5.8-.1.6-.2-.2-.3.4-.5 3.9-.4 3.1.9 5.9.4.7-.2 1-.7 3.1-.5l-.7.4c2.6 0 1.5-.6 4.3-.3-.5.2-2.1.1-1.7.2 1.8.3 1.3-.2 2.7-.2l.3.4 9-.4c-.2.1-.7.2 0 .3a99 99 0 0 1 12.2.3l1.5-.3q.6 0 .3.2c1.5.1.1-.2.8-.3q1.3 0 .6.3c2.6-.3 7.4-.6 10.2-.2l-.5.1c2.1.1 2.4-.7 4.4-.4l-.4.1c4.7.1 9.8-.2 13.3.3.7-.5 4.6.2 4.9-.4l1 .1.3.1.3.2-.1.4-.1.2-.1 1c0 1 .4 1.5.5 2.7h-.3l.3 1.7-.4.9.1 1.2.2-.9a14 14 0 0 1-.4 4.5l.3 4.3-.2-.5c0 .7-.4-.1-.1 1.6.1-.3.2.2.3.2-.2 1-.2 3.4-.1 5.2l-.2-.3.1 10.3q.3-1.7.5.1l-.2.2.2.5c0 1.3-.4.9-.5.1l.1 1.6-.3-.4c.2.7-.4 2.8 0 3.8l-.1.1.1 8.1c.3.1.2 1.2.5 2.1l-.3 7.1c.1 1.8.3.5.4 1.3-.3.1-.3 2.7-.5 1.4 0 3.1 0 3.9.3 7.8.1-.4.2-.9.3-.7 0 .7-.1 1.6-.3 1.5.4 4.4-.8 10-.3 13.4V89l.3 3.6c-.1 1.7-.2-1-.4.2.5 3.9-.1 6.2.2 9.4-.8 2.5 0 8.8-.5 12.2l.2-.2c.2.9-.1 1-.2 1.7.2-.1.2-.9.3-.4.2 7.3-.3 15.2-.5 22.7-.1 2.8 1 1.6.5 5l-.4-1c.4 5.6 0 11.4.3 16.8-.1-.3-.2-.3-.2-.9-.3 1.1 0 4.2.2 4.3 0 .8-.2.2-.3.7-.2 1.2.3 2.9.1 3.5l-.1-.3c.1 1 0 3.2.2 2.5l-.1 5.5c.3 1.1-.2 3.5.3 3.8-.5-.1-.4 3.6-.2 4.9-.1-.4-.2 1.1-.4.6 0 1.5.1 2.8.3 2.6-.6 2.7.5 5.5-.3 7q.4 6.5.5 12.4c-.5-.1 0-4.4-.6-4.2.2 3.7.6 5.9.5 9.6-.1 1-.2-.5-.3-.9.2 3.5-.1 7 .2 10.2v.2c.3-.1.6 2.8.7 2.9-.6-1.1-.2 3.3-1 1.5 0 .4.1 1 .3.9q0 1-.3.2c.1 2.3.4 1.5.3 3.6l-.3-.7q.4 1.5.3 4l-.1-.1c0 2.9.5 5 .3 8.3-.5-1-.2 1.1-.6 1.3l.1 1.8.2-.7c0 1.6.3 3 .1 4.4l-.2-1.2.1 3 .2-1.7c.2 1.6.5-.2.4 1.9 0-.4 0 1.6-.3 2.4q.3 1.1.2 2.8c-.1.3-.5-.2-.5 0 .3.8.1 3.7.4 4.7q-.2-.4-.3-.2l.3.7q0 1-.3.7c-.1 2.2.5-.7.3 1.9l-.1-.5c-.1 2.6.2 5.1 0 7.5-.4.7-.1-2.1-.4-1.3l.4 10.7v-.6c.6.5-.3 2.5 0 4.2q-.2-.6-.3-.4c-.1 2.3.1 4.7.3 8.3l-.1-.4-.2 5.1c.1.4.1 1.3.3.8-.9 4.6.4 8.7-.3 12.7l-.1-.8.1 3.4q.3-.3.4-1.2l.3 2.3c-.2-1.5-.4 0-.5.7l.2.1c-.5 1.8.5.3.2 2.8l-.1-.1.2 2.8c-.3.4-.1-1-.4-1 0 1.4.5 2.7.3 4l-.2-2c-.3 1.4-.3 1.5-.3 2.6v-.1l-.2 2.4.1-.6c.8 1.7.1 3.6.6 5.9-.5-2.3-.3-.4-.6-.6-.1.6-.2 1.5-.3 1.3.3 1.1-.2 1.9.2 3.4-.1.1 0 1.2-.3.9.1 1.4.2-.3.3-.2.4 2.2-.5 5.2 0 8.4l.3 2.8c.1.8.3 1.3.3 2.5h-.5c-.7-.1-.1-.3.2-.4v-.1l-1.4-.1h-1.2c.3.1.5.4-.3.4l1.2.1q.3-.1 1.2.1.2 0 0 .1l1.1-.1v-.3c.1.3.2.1.3.5h.1v-2.1l-.1-1v-.4h-.3v-.1h.2l.1-1.1c-.1-2.9-.3-.1-.7-2.5l.8-1.6-.3-.3c0-.3 0-1 .2-.9-.2-1.2-.1.2-.4-.5.3-1.6-.1-4.4.4-4.8-.3-.6-.2 1.5-.4-.2.6-.5-.1-2 .2-3.4.3.4.1 1.8.4.4-.5-.9.1-2.8 0-4.1-.4-.1-.2-2.7-.3-4.7.1.1.2-3.9.4-5.8l.1.1c-.4-.4-.3-2.4-.4-3.8q.3 0 .4 1.1v-1.4q-.2-.3-.2-1.6l.3.3c0-1.8-.3-3.6-.1-6-.3-.1-.8 1.8-1-.6q.3-.4.5.5l-.1-1.2.3 1c.1-1.1-.2-.6-.2-1.4.2 0 .2-.6.3-.5v1.1c0-1 .2-2.1.3-2.5q-.2.3-.3-.7c0-1.8.3-.6.4-1.7-.1-.4 0-1.6-.3-1.6l.2-.8c-.1-.9 0-4.4-.4-3.3-.3-3.1.2-6.4.1-9.4h.1c-.1-1.8-.1-4-.3-5.3 0-.5.2-1.3.3-1-.1-1.4-.2-1.5 0-3.5q.2.8.2.5l-.1.9.1-.9c.1-1.1.1-1.7-.1-3.2.3.7.4-1.4.3-2.2l-.2 1.3v-2.7l.4.5c.5-3.7-.7-6.7 0-9.5-.3-1-.2 2-.5 1.1.1-1.7.6-3.5.6-4 .2-2.3-.5-2.2-.4-4.6-.1.3-.5.6-.6-1.2q.3-2.6.6-1l-.1.6c0 .5.1 1.3.2.6l-.1-.2c.1-.8.1-3.2.3-2.6-.1-1.3-.2-.5-.3.4.2-2.2 0-3.4.1-5.6q-.2.8-.2.3c.2-3.3-.2-1.4-.3-3.7.2-1.3.5.5.3-1.8.1-1.4.3-.3.4.3-.2-2 .2-3.8.2-5v-.6l1.7-1.6q0-1 .2-1.2c-.2-.7-.4.5-.7-.8.1-.8-.1-2.6.2-2.9-.1 2.6.3-.3.4 1.9v-1.6l.1.3c.3-2.5-.4-1.2-.4-3.8.2.3.4-.6.3-1 0 1.1-.3.5-.5-.5.2-1.7-.1-1.8-.1-2.7l-.1 1q-.2-.5-.2-2.4c.2-.1.1 1.1.2.6-.3-1.3.4-2.9.1-4.8.1-.8.4-.1.5-.8-.2-2 .3-2.2.1-4.3-.3.6-.2.7-.4-.8l.2 3.5-.4-2.3.1 2.9q-.1-1.4-.4-.5c.4-1.5-.2-2.9 0-4.6l.6.1c.3-2.5-.3-4.5-.2-7.8l-.1 1.1c-.3-.4 0-2-.1-3.1.2.1.3-.6.4-1-.2.1 0-2.4-.4-2.7l.3-1.5c.1-2.6-.6-3-.5-5.6.2.8.4-.4.6 1.3l-.1-1.6c.1-.5-.3-2.4-.1-3.1-.1-.4-.3-.5-.3-1.4h.1c-.1 0-.1-1.5-.4-.7.7-2.6 0-7.3.6-9.6l-.1-5.8.1.3c.2-2.3-.6-1.4-.4-4.1.4-1.3.2 1.4.3.6.7-.4-.1-3.2.3-5v.4c.2-1.4-.3-3.3-.2-5.5h.1c-.4-1.5-.5-4.4-.6-6.5.3.7.1 1 .4.6 0-1-.5.3-.5-1.6.2-.6.3-2 .6-2.2v1.8c.4-.9 0-2.3.1-3.3l.2.1c0-2.8-.5-2.8-.4-5.8l-.1.3c-.4-1.6.2-1.4-.1-3l.4-.5-.5-5.7c.3 1.1.5 3.3.7 4.7 0-1.1 0-3.6-.2-4.2l.1 1.4a23 23 0 0 1-.5-5.1c.8.4.2-5.5.9-7-.3-3.7.1-7.4.1-11.8-.7 1.5 0-1.3-.7-1v-1.5l.4-3.1c.2-.7.1 1 .3.9.1-2.2.3-.9.5-2.4-.2.3-.3-.8-.2-2l-.3 1.8c-.3-3.1.6-2.7.2-5.8l.2 1c-.1-1.6 0-5.9-.5-7.5.1-.3.3-.7.3 0 .1-3.8-.6-8.6-.2-11.5l.2.3c0-.7-.3-1.2-.1-2.1.1 0 .2.3.2 0-.1-.4-.3-1.9-.2-2.9l.2.8c.2-3.7-.4-5.8-.5-8.9.5 0 .6-2.9.8-4.3M53.9 6.5l.6.3c-2.3 0-.4-.1-.6-.3m33.6-.2q-.2-.2.4-.2c-.2.1.7.1 1.2.2zM134 264.6l.1 1.3-.3-.4zm-.5-91.2.1-1.3.1.2z"/><path d="M135.8 181.2v.8q.2-.6 0-.8"/><path d="M135.8 169.5v.4l.1-.6z"/><path d="M135.8 216.9v.6z"/><path d="m136.1 194.4.1-.3z"/><path d="M16.1 6.8q-.2 0 0 0"/><path d="M80.4 4.5h-.6l.4.1z"/><path d="M133.7 217.7v.3z"/><path d="m134 11.1-.1-.3z"/><path d="M132.3 220.5q0-.1 0 0"/><path d="M132.8 23.6v.5z"/><path d="M133 75.7v-.2z"/><path d="M136.3 225.5q.2.4 0 0"/><path d="M136.1 259.1v-.4l-.1-1.2z"/><path d="m135.6 247-.1-.5z"/><path d="m134.4 232 .1 1z"/><path d="M133.3 344.2v.2z"/><path d="M134.1 311.4s0-.1 0 0"/><path d="m135.5 309.7.1.3-.1-.7z"/><path d="m135.6 298.7-.1.1z"/><path d="m134.1 311.4-.1.2z"/><path d="M129.6 345.5h.6z"/><path d="m133.9 320.2-.1 1.3z"/><path d="m136.7 21 .1.8-.1-1.4z"/></svg>